<svg width="402" height="381" viewBox="0 0 402 381" fill="none" xmlns="http://www.w3.org/2000/svg">
<path d="M173.805 189.247V153.215C173.805 151.648 172.867 150.081 171.304 149.142L166.303 151.648V193.32C167.553 193.947 169.116 193.947 170.367 193.32L171.304 193.007C172.867 192.38 173.805 190.813 173.805 189.247Z" fill="#168CA8"/>
<path d="M192.56 138.488L187.246 135.669C186.933 135.669 186.933 135.355 186.62 135.355C185.683 135.042 184.745 135.042 183.495 135.355L164.113 145.695C160.988 147.262 159.112 150.395 159.112 153.528V159.168C159.112 160.421 160.05 161.674 161.3 161.988L166.302 164.808L174.742 156.348L183.495 151.648C186.62 150.081 188.496 146.948 188.496 143.815V142.562L192.56 138.488Z" fill="#FF5252"/>
<path d="M170.054 165.121L189.435 154.781C192.561 153.215 194.436 150.081 194.436 146.948V141.308C194.436 138.802 191.623 137.549 189.435 138.489L170.054 148.828C166.928 150.395 165.052 153.528 165.052 156.661V162.301C165.052 164.808 167.866 166.374 170.054 165.121Z" fill="#B33939"/>
<path d="M196 128.462C196 128.462 199.439 131.282 201.314 138.489C203.19 146.008 206.003 156.661 206.003 156.661L199.126 158.854L196 128.462Z" fill="#11487F"/>
<path d="M170.366 191.753C170.366 191.753 170.053 170.134 169.428 163.241C168.803 156.348 167.24 142.248 169.428 138.175C171.616 134.102 177.243 131.595 181.619 129.716C185.995 127.836 194.123 124.702 195.999 128.462C197.874 132.222 202.563 174.521 202.563 174.521L170.366 191.753Z" fill="#002B6A"/>
<path d="M177.556 131.595C177.556 131.595 181.619 135.982 183.182 138.489C184.433 141.308 191.31 156.348 191.31 156.348C191.31 156.348 192.56 139.428 192.248 136.609C191.935 134.102 190.685 129.089 190.685 129.089L177.556 131.595Z" fill="white"/>
<path d="M177.556 118.749V131.595L182.245 135.042L187.871 135.982L190.372 131.909V127.209L177.556 118.749Z" fill="#F9A873"/>
<path d="M191.308 137.235L191.621 132.535C191.308 130.655 190.683 129.089 190.683 129.089L187.87 135.669L191.308 137.235Z" fill="white"/>
<path d="M185.996 139.428L188.184 135.982L177.556 131.595C177.556 131.595 180.682 134.729 182.245 137.235L185.996 139.428Z" fill="white"/>
<path d="M196.625 110.603C196.625 110.603 196.625 122.196 196.625 123.449C196.625 124.702 192.249 130.342 192.249 130.342L187.872 131.595L180.058 126.269L179.12 122.822C179.12 122.822 176.619 122.822 175.994 120.629C175.369 118.436 175.994 117.183 177.244 117.183C178.182 116.869 186.622 110.916 186.622 110.916C186.622 110.916 196.938 110.29 196.625 110.603Z" fill="#F9A873"/>
<path d="M176.619 117.183C176.619 117.183 178.494 116.556 178.807 117.809C179.119 118.749 179.119 121.882 179.119 121.882L180.682 122.822V118.436C180.682 118.436 182.245 118.123 183.183 117.183C184.433 116.243 184.746 114.049 184.746 114.049H191.623L198.188 111.543L196.312 102.456L178.807 102.77L175.681 109.35L175.993 117.183H176.619Z" fill="#002B6A"/>
<path d="M186.622 138.489L187.872 140.368L186.935 146.322L191.624 157.288L191.936 145.382L189.748 140.055L190.686 136.922L187.872 135.982L186.622 138.489Z" fill="#B33939"/>
<path d="M101.593 118.123V221.206L270.396 311.442V208.673L101.593 118.123Z" fill="#9FEDEB"/>
<path d="M91.5916 231.859V195.827C91.5916 194.26 90.6538 192.693 89.0908 191.753L84.0892 194.26V235.932C85.3396 236.558 86.9026 236.558 88.153 235.932L89.0908 235.618C90.6538 234.992 91.5916 233.425 91.5916 231.859Z" fill="#168CA8"/>
<path d="M110.661 181.414L105.347 178.594C105.035 178.594 105.035 178.28 104.722 178.28C103.784 177.967 102.846 177.967 101.596 178.28L82.2151 188.62C79.0891 190.187 77.2135 193.32 77.2135 196.453V202.093C77.2135 203.346 78.1513 204.6 79.4017 204.913L84.4032 207.733L92.8434 199.273L101.596 194.573C104.722 193.007 106.598 189.873 106.598 186.74V185.487L110.661 181.414Z" fill="#FF5252"/>
<path d="M87.8434 208.046L107.224 197.706C110.35 196.14 112.226 193.007 112.226 189.873V184.234C112.226 181.727 109.413 180.474 107.224 181.414L87.8434 191.753C84.7174 193.32 82.8418 196.453 82.8418 199.586V205.226C82.8418 207.733 85.6552 208.986 87.8434 208.046Z" fill="#B33939"/>
<path d="M113.786 171.074C113.786 171.074 117.225 173.894 119.1 181.1C120.976 188.62 123.789 199.273 123.789 199.273L116.912 201.466L113.786 171.074Z" fill="#168CA8"/>
<path d="M88.1525 234.365C88.1525 234.365 92.2162 215.252 91.591 208.359C90.9658 201.466 85.0265 185.174 87.2147 180.787C89.4029 176.714 95.0296 174.207 99.406 172.327C103.782 170.447 111.91 167.314 113.785 171.074C114.098 172.014 115.348 179.534 115.348 179.534L119.412 187.68V191.127L117.537 194.887L120.35 217.446L88.1525 234.365Z" fill="#33B3C4"/>
<path d="M105.971 180.787L101.907 185.8L95.9679 179.847L93.4671 175.147L95.9679 172.641L108.159 174.521L111.91 180.787H105.971Z" fill="white"/>
<path d="M97.5327 162.614L95.6571 174.207C97.5327 177.027 100.659 179.22 104.097 180.16L105.973 180.787C107.536 178.594 108.161 175.774 108.161 173.267V170.134L97.5327 162.614Z" fill="#FFAD91"/>
<path d="M107.222 215.879L97.219 210.553C97.219 210.553 95.3434 186.427 92.53 183.294C89.7167 180.16 86.9033 180.16 86.2781 184.86C85.3403 189.247 87.8411 214.939 89.0915 216.819C90.3419 218.699 104.409 224.652 104.409 224.652L107.222 215.879Z" fill="#6ABFCE"/>
<path d="M101.909 146.008C101.909 146.008 99.721 143.188 95.6572 144.128C92.2186 145.068 92.2186 148.515 91.5934 153.215C90.9683 157.915 91.5934 159.168 90.0305 160.108C88.4675 161.048 86.2793 159.794 86.2793 159.794C86.2793 159.794 87.8423 164.808 91.5934 165.121C95.6572 165.434 97.5328 164.494 99.0958 160.108C100.971 156.035 101.909 146.008 101.909 146.008Z" fill="#003D75"/>
<path d="M114.412 155.721V168.567L110.036 175.461L107.222 176.4L98.7822 171.387L97.8444 167.941C97.8444 167.941 95.3437 167.941 94.7185 165.748C94.0933 163.554 93.7807 160.108 94.7185 160.108C95.6562 159.794 108.473 149.768 108.473 149.768C108.473 149.768 114.725 155.408 114.412 155.721Z" fill="#FFAD91"/>
<path d="M114.413 155.721C114.413 151.021 110.662 145.382 104.41 145.382C98.1584 145.068 94.7199 149.768 94.0947 152.901C93.4695 156.348 93.7821 160.108 93.7821 160.108C93.7821 160.108 95.6576 159.481 96.2828 160.108C96.908 160.734 96.908 163.241 96.908 163.241L99.4088 163.868L99.7214 161.674L98.7836 156.661L102.222 154.468L110.037 155.408C110.037 156.035 112.225 154.468 114.413 155.721Z" fill="#002B6A"/>
<path d="M71.2731 231.545L150.985 188.62L181.62 204.913L101.595 247.838L71.2731 231.545Z" fill="#FCFEFE"/>
<path d="M110.348 311.756V208.673L279.463 118.436V221.206L110.348 311.756Z" fill="#9FEDEB"/>
<path d="M110.348 289.197V208.673L279.463 118.436V198.646L110.348 289.197Z" fill="#CCFFFE"/>
<path d="M217.255 168.254L225.069 164.181V174.521L217.255 178.594V168.254Z" fill="#9FEDEB"/>
<path d="M221.008 232.485L309.786 184.86V177.967L221.008 225.592V232.485Z" fill="#CCFFFE"/>
<path d="M221.006 225.592L190.372 209.299L279.462 161.674L309.784 177.967L221.006 225.592Z" fill="#FCFEFE"/>
<path d="M271.021 183.92C271.021 183.92 272.584 185.487 274.147 186.114C276.023 186.74 279.149 187.367 280.086 185.487C281.337 183.92 280.399 182.354 278.211 181.1C276.023 179.847 271.959 180.787 270.708 181.727C270.083 182.667 271.021 183.92 271.021 183.92Z" fill="#33B3C4"/>
<path d="M274.459 185.487C272.584 184.86 271.333 183.294 271.333 183.294C271.333 183.294 270.708 182.667 271.021 181.727C270.083 182.667 271.021 183.607 271.021 183.607C271.021 183.607 272.584 185.174 274.147 185.8C276.022 186.427 279.148 187.053 280.086 185.174C280.086 184.86 280.399 184.86 280.399 184.86C279.148 186.74 276.335 186.113 274.459 185.487Z" fill="#168CA8"/>
<path d="M270.709 189.247L267.27 187.367C266.645 187.053 265.707 187.053 264.77 187.367L248.202 196.453L245.076 197.393V198.646C245.076 198.96 245.076 198.96 245.389 199.273L249.452 201.466C250.077 201.78 251.015 201.78 251.953 201.466L271.647 191.127C271.959 191.127 271.959 190.813 271.959 190.5V189.247H270.709Z" fill="#168CA8"/>
<path d="M245.078 196.766L264.771 186.427C265.396 186.113 266.334 186.113 267.272 186.427L271.336 188.62C271.648 188.933 271.648 189.56 271.336 189.873L251.642 200.213C251.017 200.526 250.079 200.526 249.141 200.213L245.078 198.02C244.765 197.706 244.765 197.08 245.078 196.766Z" fill="#33B3C4"/>
<path d="M268.523 141.308L266.022 140.055C265.397 139.742 264.459 139.428 263.834 140.055L229.135 158.541C227.885 159.168 227.26 160.421 227.26 161.361V187.367C227.26 187.993 227.572 188.62 228.197 188.933L230.698 190.187L232.574 187.68L265.084 170.447C266.334 169.821 266.96 168.567 266.96 167.627V143.502L268.523 141.308Z" fill="#9FEDEB"/>
<path d="M243.201 178.594V186.74C243.201 187.68 243.514 188.307 244.452 188.62L247.578 190.187C248.203 190.5 249.141 190.5 249.766 190.187L257.268 185.8V186.74C257.268 187.367 256.956 188.307 256.018 188.62L250.079 191.753C249.141 192.38 247.89 192.38 246.953 191.753L243.827 190.187C242.264 189.56 241.638 187.993 241.638 186.427V177.341L243.201 178.594Z" fill="#9FEDEB"/>
<path d="M256.644 185.174L253.518 183.607C252.893 183.294 252.268 182.354 252.268 181.727V173.581L242.89 178.594V186.74C242.89 187.68 243.202 188.307 244.14 188.62L247.266 190.187C247.891 190.5 248.829 190.5 249.454 190.187L256.644 186.427C257.269 186.114 257.269 185.487 256.644 185.174Z" fill="#9FEDEB"/>
<path d="M229.762 162.614V186.74L269.462 165.434V142.875C269.462 141.308 267.586 140.368 266.336 141.308L231.637 159.794C230.387 160.421 229.762 161.361 229.762 162.614Z" fill="#33B3C4"/>
<path d="M231.637 162.928V182.04L266.647 163.554V144.128L231.637 162.928Z" fill="#FCFEFE"/>
<path d="M229.762 188.62C229.762 190.187 231.637 191.127 232.888 190.187L267.586 171.701C268.836 171.074 269.462 169.821 269.462 168.881V164.494L229.762 185.8V188.62Z" fill="#CCFFFE"/>
<path d="M239.452 174.521L236.013 176.401V168.254L239.452 166.374V174.521Z" fill="#CCFFFE"/>
<path d="M244.768 171.701L241.642 173.581V167.628L244.768 165.748V171.701Z" fill="#CCFFFE"/>
<path d="M250.392 168.881L246.954 170.447V160.734L250.392 158.854V168.881Z" fill="#CCFFFE"/>
<path d="M262.585 151.648L254.77 155.721V154.155L262.585 149.768V151.648Z" fill="#CCFFFE"/>
<path d="M264.46 156.975L254.77 161.988V161.361L264.46 156.035V156.975Z" fill="#CCFFFE"/>
<path d="M264.46 154.781L254.77 160.108V159.168L264.46 154.155V154.781Z" fill="#CCFFFE"/>
<path d="M264.46 158.854L254.77 164.181V163.241L264.46 158.228V158.854Z" fill="#CCFFFE"/>
<path d="M264.46 160.734L254.77 166.061V165.434L264.46 160.108V160.734Z" fill="#CCFFFE"/>
<path d="M264.46 152.901L254.77 157.914V157.288L264.46 151.961V152.901Z" fill="#CCFFFE"/>
<path d="M264.46 162.928L254.77 167.941V167.314L264.46 161.988V162.928Z" fill="#CCFFFE"/>
<path opacity="0.3" d="M299.156 253.791C297.28 252.851 295.092 252.851 293.216 253.791L271.96 266.951V273.217C271.96 274.47 272.585 275.724 273.835 276.35L294.779 287.003C296.655 287.943 298.843 287.943 300.719 287.003L320.1 277.604C321.35 276.977 321.975 275.724 321.975 274.47V268.204L299.156 253.791Z" fill="#1D99B3"/>
<path d="M276.964 143.502L277.276 151.648L279.152 161.988L283.841 162.614L286.967 166.374L297.283 163.868C297.283 163.868 293.844 146.322 291.031 144.128C286.342 140.368 276.964 143.502 276.964 143.502Z" fill="#F9A873"/>
<path d="M281.34 155.721L280.403 155.095C280.403 155.095 280.403 149.141 279.777 147.888C279.152 146.635 276.339 144.755 276.339 144.755L275.401 140.055L278.527 137.235L287.905 135.355L299.159 140.995L296.033 159.481L285.404 161.988L282.903 157.914C282.903 157.914 284.779 158.228 284.779 155.408C284.779 152.588 283.216 150.708 281.966 151.021C281.34 150.708 281.34 155.721 281.34 155.721Z" fill="#002B6A"/>
<path d="M281.653 266.951C281.028 266.637 280.402 266.637 279.777 267.264C278.214 268.204 276.964 270.711 276.964 272.904C276.964 274.157 277.276 275.41 277.902 275.724L282.278 277.917L286.029 270.084L281.653 266.951Z" fill="#002B6A"/>
<path d="M286.967 271.964C286.967 274.157 285.717 276.664 284.154 277.604C282.591 278.544 281.341 277.604 281.341 275.41C281.341 273.217 282.591 270.711 284.154 269.771C285.717 268.831 286.967 269.771 286.967 271.964Z" fill="#11487F"/>
<path d="M285.405 272.904C285.405 273.844 284.78 274.784 284.155 275.097C283.529 275.41 282.904 275.097 282.904 274.157C282.904 273.217 283.529 272.277 284.155 271.964C284.78 271.651 285.405 271.964 285.405 272.904Z" fill="#002B6A"/>
<path d="M312.912 266.951C313.538 266.637 314.163 266.637 314.788 267.264C316.351 268.204 317.601 270.711 317.601 272.904C317.601 274.157 317.289 275.41 316.664 275.724L311.975 277.917L308.224 269.457L312.912 266.951Z" fill="#002B6A"/>
<path d="M307.284 271.964C307.284 274.157 308.535 276.664 310.098 277.604C311.661 278.544 312.911 277.604 312.911 275.41C312.911 273.217 311.661 270.711 310.098 269.771C308.535 268.831 307.284 269.771 307.284 271.964Z" fill="#11487F"/>
<path d="M308.847 272.904C308.847 273.844 309.472 274.784 310.097 275.097C310.722 275.41 311.348 275.097 311.348 274.157C311.348 273.217 310.722 272.277 310.097 271.964C309.472 271.651 308.847 271.964 308.847 272.904Z" fill="#002B6A"/>
<path d="M286.653 251.285C286.966 250.971 287.591 250.971 288.216 251.598C289.779 252.538 290.717 254.731 290.717 256.611C290.717 257.551 290.404 258.804 289.779 259.118L285.715 260.998L282.277 253.791L286.653 251.285Z" fill="#002B6A"/>
<path d="M281.653 255.671C281.653 257.551 282.903 259.744 284.154 260.684C285.716 261.624 286.654 260.684 286.654 258.804C286.654 256.924 285.404 254.731 284.154 253.791C282.591 252.851 281.653 253.791 281.653 255.671Z" fill="#11487F"/>
<path d="M283.215 256.611C283.215 257.238 283.528 258.178 284.153 258.491C284.778 258.804 285.091 258.491 285.091 257.864C285.091 257.238 284.778 256.298 284.153 255.984C283.528 255.358 283.215 255.671 283.215 256.611Z" fill="#002B6A"/>
<path d="M308.538 251.285C308.225 250.971 307.6 250.971 306.975 251.598C305.412 252.538 304.474 254.731 304.474 256.611C304.474 257.551 304.787 258.804 305.412 259.118L309.476 260.998L312.914 253.791L308.538 251.285Z" fill="#002B6A"/>
<path d="M313.54 255.671C313.54 257.551 312.29 259.744 311.04 260.684C309.477 261.624 308.539 260.684 308.539 258.804C308.539 256.924 309.789 254.731 311.04 253.791C312.29 252.851 313.54 253.791 313.54 255.671Z" fill="#11487F"/>
<path d="M311.978 256.611C311.978 257.238 311.665 258.178 311.04 258.491C310.415 258.804 310.102 258.491 310.102 257.864C310.102 257.238 310.415 256.298 311.04 255.984C311.665 255.358 311.978 255.671 311.978 256.611Z" fill="#002B6A"/>
<path d="M281.65 251.285L282.275 253.478L291.653 259.744L292.903 256.611L281.65 251.285Z" fill="#168CA8"/>
<path d="M297.592 255.984L295.091 252.851L285.401 249.405L281.65 251.285L292.903 256.924L297.592 255.984Z" fill="#33B3C4"/>
<path d="M313.221 251.285L312.596 253.478L303.218 259.744L301.968 256.611L313.221 251.285Z" fill="#168CA8"/>
<path d="M297.279 255.984L300.092 252.851L309.158 249.405L313.221 251.285L301.968 256.924L297.279 255.984Z" fill="#33B3C4"/>
<path d="M276.649 268.831L277.586 271.024L281.963 273.217L297.28 263.191V258.491L276.649 268.831Z" fill="#168CA8"/>
<path d="M293.529 255.984L276.649 268.831L281.338 271.024L297.28 260.058V255.984H293.529Z" fill="#33B3C4"/>
<path d="M317.598 269.144L316.347 271.651L312.909 273.217L297.279 263.191V258.491L317.598 269.144Z" fill="#168CA8"/>
<path d="M301.343 255.984L317.598 269.144L313.534 271.024L297.279 260.058V255.984H301.343Z" fill="#33B3C4"/>
<path d="M297.278 260.058C294.778 260.058 292.902 258.178 292.902 255.984V236.558H301.655V255.984C301.967 258.178 299.779 260.058 297.278 260.058Z" fill="#33B3C4"/>
<path d="M315.41 223.086L300.093 213.999C298.218 213.059 296.029 213.059 294.154 213.999L280.399 221.832L273.522 223.086V229.352C273.522 230.605 274.148 231.859 275.398 232.485L296.342 243.138C298.218 244.078 300.406 244.078 302.281 243.138L321.662 233.739C322.913 233.112 323.538 231.859 323.538 230.605V224.339L315.41 223.086Z" fill="#B33939"/>
<path d="M275.398 220.266L294.466 208.046C296.342 207.106 298.53 207.106 300.406 208.046L321.662 221.206C324.163 222.772 324.163 226.219 321.662 227.472L302.281 236.872C300.406 237.812 298.218 237.812 296.342 236.872L275.398 226.219C272.897 225.279 272.897 221.519 275.398 220.266Z" fill="#FF5252"/>
<path d="M292.592 201.78L286.965 200.213L271.648 207.733C271.648 207.733 271.96 216.819 272.898 220.579L273.523 222.146C273.523 222.146 287.59 229.352 295.405 230.605C304.158 232.172 311.347 228.725 315.099 225.905C318.85 223.399 320.1 215.566 317.912 211.806C316.036 208.359 292.592 201.78 292.592 201.78Z" fill="#002B6A"/>
<path d="M263.208 189.873L258.519 183.92L252.892 182.98L247.891 185.8L253.518 192.067L258.832 193.947L263.208 189.873Z" fill="#F9A873"/>
<path d="M279.151 172.641L285.715 167.001L300.407 162.301C300.407 162.301 308.535 164.181 311.661 172.014C314.787 179.534 318.538 212.119 318.538 212.119C318.538 212.119 309.785 219.639 299.157 220.266C290.404 220.579 287.903 209.926 287.903 209.926C287.903 209.926 281.339 177.027 279.151 172.641Z" fill="#6ABFCE"/>
<path d="M273.836 195.2L278.213 173.581C286.34 164.181 286.34 182.667 286.34 182.667L280.088 205.853L276.65 206.166C276.65 206.166 258.206 195.2 257.894 194.573C257.581 193.633 262.583 188.307 262.583 188.307L273.836 195.2Z" fill="#6ABFCE"/>
<path d="M326.666 184.547L319.164 180.787C318.226 180.474 316.976 180.474 316.038 180.787L297.595 191.127C294.469 193.007 292.593 196.14 292.593 199.9V206.166C292.593 207.733 293.531 209.299 294.781 209.613L299.783 212.119L308.223 202.72L317.288 197.393C320.414 195.513 322.29 192.38 322.29 188.62V187.367L326.666 184.547Z" fill="#FF5252"/>
<path d="M303.223 212.433L322.917 202.719C326.043 200.84 327.918 197.706 327.918 193.946V187.68C327.918 185.173 325.105 183.294 322.917 184.86L303.223 194.26C300.097 196.14 298.222 199.273 298.222 203.033V209.299C298.222 212.119 301.035 213.686 303.223 212.433Z" fill="#B33939"/>
<path d="M319.787 232.799V193.007C319.787 191.127 319.162 189.873 317.599 188.933L312.285 191.44V238.125C312.285 238.125 315.099 238.125 316.662 237.498L317.599 236.872C318.85 236.245 319.787 234.365 319.787 232.799Z" fill="#33B3C4"/>
<path d="M301.658 162.928L300.72 161.048L285.09 164.494L283.84 168.567L301.658 162.928Z" fill="white"/>
<path d="M101.593 118.436L110.346 113.736L279.461 204.286L270.396 208.673L101.593 118.436Z" fill="#FCFEFE"/>
<path d="M270.396 311.756L279.461 307.056V204.286L270.396 208.673V311.756Z" fill="#AAA69D"/>
<path d="M270.396 311.756L279.461 307.056V204.286L270.396 208.673V311.756Z" fill="#CCFFFE"/>
<path d="M279.461 118.436L270.396 113.736L101.593 204.286L110.346 208.673L279.461 118.436Z" fill="#FCFEFE"/>
<path d="M190.372 166.061V268.831L270.397 311.756V208.673L190.372 166.061Z" fill="#9FEDEB"/>
<path d="M110.348 252.225V208.673L101.595 204.286V247.838L71.2731 231.545V290.763L101.595 307.056L110.348 311.756L140.982 328.049V268.517L110.348 252.225Z" fill="#9FEDEB"/>
<path d="M140.984 268.517L221.008 225.592V232.485L167.242 261.311V313.949L140.984 328.049V268.517Z" fill="#CCFFFE"/>
<path d="M110.348 252.224L190.373 209.299L221.007 225.592L140.982 268.517L110.348 252.224Z" fill="#FCFEFE"/>
<path d="M180.368 232.799C180.368 232.799 181.931 234.365 183.494 234.992C185.37 235.618 188.496 236.245 189.434 234.365C190.684 232.799 189.746 231.232 187.558 229.979C185.37 228.725 181.306 229.665 180.056 230.605C179.743 231.859 180.368 232.799 180.368 232.799Z" fill="#33B3C4"/>
<path d="M184.118 234.365C182.242 233.738 180.992 232.172 180.992 232.172C180.992 232.172 180.366 231.545 180.679 230.605C179.741 231.545 180.679 232.485 180.679 232.485C180.679 232.485 182.242 234.052 183.805 234.678C185.681 235.305 188.807 235.932 189.744 234.052C189.744 233.738 190.057 233.738 190.057 233.738C188.807 235.618 185.681 234.992 184.118 234.365Z" fill="#168CA8"/>
<path d="M178.493 237.498L175.055 235.618C174.429 235.305 173.492 235.305 172.554 235.618L155.986 244.705L152.86 245.645V246.898C152.86 247.211 152.86 247.211 153.173 247.525L157.237 249.718C157.862 250.031 158.8 250.031 159.737 249.718L179.431 239.378C179.744 239.378 179.744 239.065 179.744 238.752V237.498H178.493Z" fill="#168CA8"/>
<path d="M152.862 245.018L172.556 234.679C173.181 234.365 174.119 234.365 175.056 234.679L179.12 236.872C179.433 237.185 179.433 237.812 179.12 238.125L159.426 248.465C158.801 248.778 157.863 248.778 156.926 248.465L152.862 246.271C152.549 245.958 152.549 245.331 152.862 245.018Z" fill="#33B3C4"/>
<path d="M144.733 275.724L164.114 265.384V277.917L144.733 288.257V275.724Z" fill="#9FEDEB"/>
<path d="M157.552 273.844L151.925 276.977V274.47L157.552 271.337V273.844Z" fill="#CCFFFE"/>
<path d="M144.733 292.33L164.114 281.99V294.523L144.733 304.863V292.33Z" fill="#9FEDEB"/>
<path d="M157.552 290.45L151.925 293.583V291.077L157.552 287.943V290.45Z" fill="#CCFFFE"/>
<path d="M144.733 309.249L164.114 298.91V311.443L144.733 321.782V309.249Z" fill="#9FEDEB"/>
<path d="M157.552 307.056L151.925 310.189V307.683L157.552 304.549V307.056Z" fill="#CCFFFE"/>
<path d="M176.306 189.56L173.805 188.307C173.18 187.993 172.242 187.68 171.617 188.307L137.231 206.793C135.98 207.419 135.355 208.673 135.355 209.613V235.618C135.355 236.245 135.668 236.872 136.293 237.185L138.794 238.438L140.669 235.932L173.18 218.699C174.43 218.072 175.055 216.819 175.055 215.879V191.753L176.306 189.56Z" fill="#9FEDEB"/>
<path d="M154.111 225.279V233.425C154.111 234.365 154.424 234.992 155.362 235.305L158.488 236.872C159.113 237.185 160.051 237.185 160.676 236.872L168.178 232.485V233.425C168.178 234.052 167.865 234.992 166.928 235.305L160.988 238.438C160.051 239.065 158.8 239.065 157.862 238.438L154.736 236.872C153.173 236.245 152.548 234.679 152.548 233.112V224.026L154.111 225.279Z" fill="#33B3C4"/>
<path d="M167.554 231.859L164.428 230.292C163.803 229.979 163.178 229.039 163.178 228.412V220.266L153.8 225.279V233.425C153.8 234.365 154.112 234.992 155.05 235.305L158.176 236.872C158.801 237.185 159.739 237.185 160.364 236.872L167.554 233.112C168.179 232.799 168.179 232.172 167.554 231.859Z" fill="#9FEDEB"/>
<path d="M137.542 211.179V234.992L177.242 213.686V191.127C177.242 189.56 175.366 188.62 174.116 189.56L139.418 208.046C138.167 208.673 137.542 209.926 137.542 211.179Z" fill="#33B3C4"/>
<path d="M139.732 211.179V230.292L174.743 211.806V192.38L139.732 211.179Z" fill="#FCFEFE"/>
<path d="M137.542 236.872C137.542 238.438 139.418 239.378 140.668 238.438L175.366 219.952C176.617 219.326 177.242 218.072 177.242 217.132V212.746L137.542 234.052V236.872Z" fill="#CCFFFE"/>
<path d="M148.171 220.892C146.295 220.892 145.358 219.012 144.732 218.072C144.42 217.759 144.42 217.446 144.107 217.133C144.107 217.133 143.169 217.759 142.544 218.072C142.232 218.386 141.294 218.386 140.981 218.072C140.669 217.759 140.669 216.819 140.981 216.506C141.606 215.879 143.482 214.313 145.045 215.253C145.67 215.566 145.983 216.193 146.295 216.819C147.546 218.699 147.858 219.012 148.796 218.386C150.046 217.759 151.297 214.626 151.922 212.119C152.547 210.553 153.172 208.673 153.798 207.733C154.11 207.106 154.735 206.793 155.361 206.793C156.298 206.793 157.236 207.733 157.861 208.673C158.799 209.926 159.112 210.239 159.424 210.239C160.05 209.926 160.675 210.239 160.675 210.866C160.987 211.493 160.675 212.119 160.05 212.119C157.861 213.059 156.611 211.179 155.986 209.926C155.673 209.613 155.673 209.299 155.361 208.986C154.735 209.926 154.423 211.179 153.798 212.746C152.86 215.879 151.609 219.012 149.734 219.952C149.109 220.892 148.483 220.892 148.171 220.892Z" fill="#CCFFFE"/>
<path d="M159.737 216.819L159.424 204.6C159.424 204.6 159.424 204.286 159.737 204.286C159.737 204.286 160.049 204.286 160.049 204.6L159.737 216.819C160.049 216.819 160.049 216.819 159.737 216.819Z" fill="#CCFFFE"/>
<path d="M141.607 226.532C141.607 226.532 141.295 226.532 141.607 226.532L141.295 214.313C141.295 214.313 141.295 213.999 141.607 213.999C141.92 213.999 141.92 213.999 141.92 214.313L141.607 226.532C141.92 226.532 141.607 226.532 141.607 226.532Z" fill="#CCFFFE"/>
<path d="M146.608 223.712L146.296 211.493C146.296 211.493 146.296 211.179 146.608 211.179C146.921 211.179 146.921 211.179 146.921 211.493L146.608 223.712C146.921 223.712 146.921 223.712 146.608 223.712Z" fill="#CCFFFE"/>
<path d="M154.736 219.639C154.736 219.639 154.423 219.639 154.736 219.639L154.423 207.419C154.423 207.419 154.423 207.106 154.736 207.106C154.736 207.106 155.048 207.106 155.048 207.419L154.736 219.639C155.048 219.639 154.736 219.639 154.736 219.639Z" fill="#CCFFFE"/>
<path d="M144.732 213.999L143.482 214.626V213.686L144.732 213.059V213.999Z" fill="#CCFFFE"/>
<path d="M145.67 214.313L143.482 215.566V215.253L145.67 213.999V214.313Z" fill="#CCFFFE"/>
<path d="M151.297 212.119L150.046 212.746V211.806L151.297 211.179V212.119Z" fill="#CCFFFE"/>
<path d="M152.234 212.433L150.046 213.686V213.373L152.234 212.119V212.433Z" fill="#CCFFFE"/>
<path d="M157.548 205.853L156.61 206.48V205.54L157.548 204.913V205.853Z" fill="#CCFFFE"/>
<path d="M158.798 206.166L156.61 207.106V206.793L158.798 205.853V206.166Z" fill="#CCFFFE"/>
<path d="M170.676 199.273L162.861 203.346V201.78L170.676 197.706V199.273Z" fill="#CCFFFE"/>
<path d="M172.552 200.526L162.861 205.853V204.913L172.552 199.9V200.526Z" fill="#CCFFFE"/>
<path d="M172.552 202.406L162.861 207.733V207.106L172.552 201.78V202.406Z" fill="#CCFFFE"/>
<path d="M172.552 204.6L162.861 209.926V208.986L172.552 203.973V204.6Z" fill="#CCFFFE"/>
<path d="M172.552 206.479L162.861 211.806V211.179L172.552 205.853V206.479Z" fill="#CCFFFE"/>
<path d="M172.552 208.673L162.861 213.686V213.059L172.552 207.733V208.673Z" fill="#CCFFFE"/>
<path d="M172.552 210.553L162.861 215.879V214.939L172.552 209.926V210.553Z" fill="#CCFFFE"/>
<path d="M193.809 232.799L189.433 229.039L182.869 229.352L183.181 230.605L187.245 231.545C187.245 231.545 185.057 231.859 184.432 232.485C184.119 232.799 184.119 233.112 185.369 233.739C186.932 234.365 189.433 235.618 190.371 235.618C191.621 235.305 193.809 232.799 193.809 232.799Z" fill="#FFAD91"/>
<path d="M194.433 295.15L196.621 298.91C196.621 298.91 194.433 300.476 192.558 302.043C190.682 303.609 187.244 308.309 185.055 308.309C182.867 308.309 183.805 304.863 185.368 302.043C186.931 299.223 188.181 297.343 188.181 297.343L194.433 295.15Z" fill="#002B6A"/>
<path d="M188.495 254.731H180.68L177.242 256.924L176.929 265.384L188.495 298.283L194.122 296.09L190.996 281.677L188.495 254.731Z" fill="#E69C83"/>
<path d="M172.24 243.765L169.427 240.945L164.113 241.258L159.424 244.391L164.426 248.151L168.489 249.091L172.24 243.765Z" fill="#FFAD91"/>
<path d="M210.831 216.29L200.036 218.076L201.513 227.041L212.307 225.254L210.831 216.29Z" fill="#FFAD91"/>
<path d="M220.07 223.712C219.757 223.086 217.256 220.266 215.381 220.266C214.13 220.266 212.567 220.579 211.317 220.892C211.004 220.892 210.692 220.892 210.379 221.206C210.066 221.206 209.754 221.206 209.441 221.519C206.94 221.832 204.127 222.459 201.626 223.086C201.001 223.086 200.688 223.399 200.063 223.712C199.438 224.026 199.125 224.026 198.5 224.339C196.625 224.966 194.749 225.906 193.186 226.845L190.06 232.799C188.81 235.619 186.934 239.065 186.934 240.318C186.934 244.392 187.559 245.331 189.122 247.211C189.748 247.838 190.685 248.465 191.311 249.091C191.623 250.971 191.623 252.538 192.248 255.671C192.874 259.431 192.874 266.637 192.874 266.637C193.499 266.951 194.124 267.264 194.749 267.264C196.312 267.577 199.125 267.891 202.251 267.891C202.877 267.891 203.502 267.891 204.127 267.577C206.003 267.264 207.878 266.951 209.441 266.324C211.317 265.697 214.443 264.757 215.693 263.817C215.381 261.311 215.381 257.238 215.693 255.044C216.318 249.405 216.318 245.645 218.194 240.632C219.444 237.812 219.757 235.932 221.007 233.112C222.258 231.859 221.632 226.219 220.07 223.712Z" fill="#002B6A"/>
<path d="M184.431 245.018L193.809 226.845C196.935 228.099 198.811 230.605 196.935 236.872L189.746 253.478L187.557 253.791L167.551 249.091L172.24 243.452L184.431 245.018Z" fill="#002B6A"/>
<path opacity="0.3" d="M201 303.609C199.124 302.669 196.936 302.669 195.373 303.609L174.741 316.142V322.096C174.741 323.349 175.367 324.602 176.617 325.229L196.936 335.255C198.811 336.195 201 336.195 202.563 335.255L221.318 325.855C222.569 325.229 223.194 323.975 223.194 322.722V316.769L201 303.609Z" fill="#1D99B3"/>
<path d="M183.807 315.829C183.182 315.516 182.869 315.516 181.932 316.142C180.369 317.082 179.118 319.276 179.118 321.469C179.118 322.722 179.431 323.975 180.056 324.289L184.432 326.482L188.184 318.649L183.807 315.829Z" fill="#002B6A"/>
<path d="M189.122 320.842C189.122 323.035 187.871 325.229 186.308 326.169C184.746 327.109 183.495 326.169 183.495 323.975C183.495 321.782 184.746 319.589 186.308 318.649C187.871 317.709 189.122 318.649 189.122 320.842Z" fill="#11487F"/>
<path d="M187.558 321.782C187.558 322.722 186.932 323.349 186.62 323.975C185.995 324.289 185.682 323.975 185.682 323.035C185.682 322.095 186.307 321.469 186.62 320.842C186.932 320.529 187.558 321.155 187.558 321.782Z" fill="#002B6A"/>
<path d="M214.131 315.829C214.756 315.516 215.069 315.516 216.007 316.142C217.57 317.082 218.82 319.276 218.82 321.469C218.82 322.722 218.507 323.662 217.882 323.975L213.506 326.169L209.755 318.336L214.131 315.829Z" fill="#002B6A"/>
<path d="M208.815 320.842C208.815 323.035 210.066 325.229 211.629 326.169C213.192 327.109 214.442 326.169 214.442 323.975C214.442 321.782 213.192 319.589 211.629 318.649C210.066 317.709 208.815 318.649 208.815 320.842Z" fill="#11487F"/>
<path d="M210.378 321.782C210.378 322.722 211.003 323.349 211.316 323.975C211.941 324.289 212.254 323.975 212.254 323.035C212.254 322.095 211.628 321.469 211.316 320.842C211.003 320.529 210.378 321.155 210.378 321.782Z" fill="#002B6A"/>
<path d="M188.81 300.789C189.122 300.476 189.748 300.476 190.373 301.103C191.623 302.043 192.874 303.923 192.874 305.803C192.874 306.743 192.561 307.996 191.936 308.309L188.185 310.189L185.059 303.296L188.81 300.789Z" fill="#002B6A"/>
<path d="M183.807 305.176C183.807 307.056 185.058 309.249 186.308 309.876C187.558 310.816 188.809 309.876 188.809 307.996C188.809 306.116 187.558 303.923 186.308 303.296C185.058 302.356 183.807 303.296 183.807 305.176Z" fill="#11487F"/>
<path d="M185.37 306.116C185.37 306.743 185.682 307.683 186.308 307.996C186.933 308.309 187.245 307.996 187.245 307.369C187.245 306.743 186.933 305.803 186.308 305.489C185.995 304.863 185.37 305.176 185.37 306.116Z" fill="#002B6A"/>
<path d="M210.065 300.789C209.752 300.476 209.127 300.476 208.502 301.103C207.252 302.043 206.001 303.923 206.001 305.803C206.001 306.743 206.314 307.996 206.939 308.309L210.69 310.189L213.816 303.296L210.065 300.789Z" fill="#002B6A"/>
<path d="M214.752 305.176C214.752 307.056 213.502 309.249 212.251 309.876C211.001 310.816 209.751 309.876 209.751 307.996C209.751 306.116 211.001 303.923 212.251 303.296C213.814 302.356 214.752 303.296 214.752 305.176Z" fill="#11487F"/>
<path d="M213.19 306.116C213.19 306.743 212.877 307.683 212.252 307.996C211.627 308.309 211.314 307.996 211.314 307.369C211.314 306.743 211.627 305.803 212.252 305.489C212.877 304.863 213.19 305.176 213.19 306.116Z" fill="#002B6A"/>
<path d="M183.807 300.79L184.432 302.983L193.498 308.936L195.061 306.116L183.807 300.79Z" fill="#168CA8"/>
<path d="M199.124 305.489L196.936 302.356L187.558 298.91L183.807 300.79L195.061 306.429L199.124 305.489Z" fill="#33B3C4"/>
<path d="M214.443 300.79L214.131 302.983L204.753 308.936L203.502 306.116L214.443 300.79Z" fill="#168CA8"/>
<path d="M199.125 305.489L201.626 302.356L210.691 298.91L214.443 300.79L203.502 306.429L199.125 305.489Z" fill="#33B3C4"/>
<path d="M179.118 318.022L180.056 320.216L184.432 322.409L199.125 312.383V307.683L179.118 318.022Z" fill="#168CA8"/>
<path d="M195.373 305.489L179.118 318.022L183.495 320.216L199.125 309.563V305.489H195.373Z" fill="#33B3C4"/>
<path d="M218.819 318.022L217.569 320.529L214.13 322.409L199.125 312.383V307.683L218.819 318.022Z" fill="#168CA8"/>
<path d="M202.877 305.489L218.819 318.022L214.755 320.216L199.125 309.563V305.489H202.877Z" fill="#33B3C4"/>
<path d="M199.124 309.249C196.623 309.249 194.748 307.369 194.748 305.176V286.063H203.188V305.176C203.5 307.369 201.625 309.249 199.124 309.249Z" fill="#33B3C4"/>
<path d="M216.943 273.53L202.251 265.071C200.375 264.131 198.187 264.131 196.624 265.071L182.87 272.59L175.993 273.844V279.797C175.993 281.05 176.618 282.303 177.868 282.93L198.187 293.27C200.063 294.21 202.251 294.21 203.814 293.27L222.57 283.87C223.82 283.243 224.445 281.99 224.445 280.737V274.784L216.943 273.53Z" fill="#B33939"/>
<path d="M177.867 270.711L196.31 258.804C198.186 257.864 200.374 257.864 201.937 258.804L222.568 271.65C225.069 272.904 225.069 276.35 222.568 277.917L203.812 287.003C201.937 287.943 199.749 287.943 198.186 287.003L177.867 276.977C175.679 275.724 175.679 272.277 177.867 270.711Z" fill="#FF5252"/>
<path d="M194.436 255.671L188.497 254.731L179.744 260.058L172.867 265.071L175.055 272.904L199.75 283.244L204.752 283.557C204.752 283.557 214.129 279.484 216.318 277.917C219.756 275.724 221.007 268.517 219.131 265.071C217.568 261.624 194.436 255.671 194.436 255.671Z" fill="#002B6A"/>
<path d="M227.572 240.945L220.382 237.498C219.444 237.185 218.506 237.185 217.256 237.498L199.438 246.898C196.312 248.778 194.436 251.911 194.436 255.358V261.311C194.436 262.878 195.374 264.131 196.312 264.757L201.314 267.264L209.754 258.178L218.506 253.165C221.632 251.285 223.508 248.151 223.508 244.705V243.452L227.572 240.945Z" fill="#B33939"/>
<path d="M205.066 267.577L224.135 258.178C227.261 256.298 229.136 253.165 229.136 249.718V243.765C229.136 241.258 226.323 239.692 224.135 240.945L205.066 250.345C201.94 252.225 200.065 255.358 200.065 258.804V264.758C200.065 267.264 202.878 268.831 205.066 267.577Z" fill="#FF5252"/>
<path d="M221.006 282.93V250.345C221.006 248.465 220.381 247.211 218.818 246.271L213.816 248.778V288.257C213.816 288.257 216.63 288.257 217.88 287.63L218.818 287.317C220.068 286.063 221.006 284.497 221.006 282.93Z" fill="#168CA8"/>
<path d="M194.123 203.346L193.498 208.673L194.748 218.386L201.625 219.012C201.625 219.012 199.125 203.346 194.123 203.346Z" fill="#FFAD91"/>
<path d="M187.557 298.596L190.058 302.356L185.994 307.056L179.43 312.696L176.929 310.816L181.618 302.356L187.557 298.596Z" fill="#002B6A"/>
<path d="M181.619 258.804H173.179L170.053 261.311V269.457L181.619 302.356L187.246 300.476L184.433 285.75L181.619 258.804Z" fill="#FFAD91"/>
<path d="M116.912 216.819L124.727 212.746V223.086L116.912 227.159V216.819Z" fill="#FCFEFE"/>
<path d="M122.54 225.905L130.355 221.832V232.172L122.54 236.245V225.905Z" fill="#33B3C4"/>
<path d="M179.431 192.38L187.246 188.307V198.333L179.431 202.72V192.38Z" fill="#9FEDEB"/>
<path d="M124.727 251.285L138.168 244.078L154.424 252.851L140.982 260.058L124.727 251.285Z" fill="#CCFFFE"/>
<path d="M128.476 250.971L138.167 245.958L139.105 246.271L129.414 251.285L128.476 250.971Z" fill="#9FEDEB"/>
<path d="M130.663 252.224L138.791 247.838L139.416 248.465L131.601 252.538L130.663 252.224Z" fill="#9FEDEB"/>
<path d="M132.853 253.164L140.668 249.091L141.606 249.405L133.478 253.791L132.853 253.164Z" fill="#9FEDEB"/>
<path d="M134.728 254.418L142.855 250.031L143.481 250.345L135.666 254.731L134.728 254.418Z" fill="#9FEDEB"/>
<path d="M136.915 255.358L144.73 251.285L145.667 251.598L137.54 255.984L136.915 255.358Z" fill="#9FEDEB"/>
<path d="M138.794 256.611L146.921 252.224L147.546 252.538L139.731 256.924L138.794 256.611Z" fill="#9FEDEB"/>
<path d="M140.668 257.551L148.796 253.164L149.734 253.791L141.606 258.178L140.668 257.551Z" fill="#9FEDEB"/>
<path d="M192.872 204.599C192.56 202.72 192.872 199.9 194.123 198.646C194.748 198.02 195.373 197.393 195.998 196.766C197.561 195.2 199.124 194.573 201.312 194.26C204.751 193.32 209.127 193.32 211.628 196.14C212.253 196.14 202.25 196.766 198.812 199.586C198.186 200.213 198.499 201.153 197.561 202.093C196.623 203.033 196.936 203.973 195.998 204.286C195.373 204.286 192.872 204.599 192.872 204.599Z" fill="#003D75"/>
<path d="M196.938 218.386C196.313 218.699 195.688 219.012 195.375 219.012C196 220.579 197.876 221.206 200.377 221.206C203.503 221.206 209.755 220.579 212.255 219.639C214.131 218.386 217.569 215.252 218.507 212.746C218.82 212.119 218.82 211.806 219.132 211.179C219.132 210.866 219.445 210.239 219.445 209.926C220.07 207.419 221.321 195.826 212.568 194.573C207.254 194.26 201.94 194.573 198.188 197.706C197.563 198.333 196.625 199.9 195.688 200.84C195.688 200.84 194.437 202.72 194.437 203.973C194.75 203.973 194.75 203.973 195.062 203.973C196.625 206.793 197.251 208.359 197.876 211.806C198.814 213.999 198.501 217.759 196.938 218.386Z" fill="#002B6A"/>
</svg>
