<svg width="333" height="266" viewBox="0 0 333 266" fill="none" xmlns="http://www.w3.org/2000/svg">
<path d="M296.516 129.559L300.474 127.666L228.195 91.3622L188.786 110.977L192.744 113.041L188.786 114.934L192.744 116.999L188.786 118.891L192.744 120.784L188.786 122.849L192.055 124.397L188.786 126.118L192.572 128.01L188.786 129.903L192.572 131.968L188.786 133.86L192.572 135.925L188.786 137.818L193.432 140.226L193.088 141.087L212.018 149.517L245.92 166.551L300.474 139.366L296.516 137.301L300.474 135.409L296.516 133.516L300.474 131.451L296.516 129.559Z" fill="#EBFFFE"/>
<path d="M231.464 144.012L235.766 146.248L283.264 122.505L278.961 120.44L231.464 144.012Z" fill="#86E2DE"/>
<path d="M205.306 130.935L209.608 133L257.106 109.428L252.804 107.191L205.306 130.935Z" fill="#86E2DE"/>
<path d="M222.859 139.71L227.161 141.947L274.659 118.203L270.357 116.138L222.859 139.71Z" fill="#86E2DE"/>
<path d="M214.254 135.409L218.557 137.646L266.226 113.902L261.752 111.665L214.254 135.409Z" fill="#86E2DE"/>
<path d="M188.786 126.118V128.526L245.92 157.26V154.851L188.786 126.118Z" fill="#86E2DE"/>
<path d="M245.92 154.851V157.26L300.473 130.075V127.666L245.92 154.851Z" fill="#CCFFFE"/>
<path d="M188.786 110.977V126.118L203.758 118.547L188.786 110.977Z" fill="#CCFFFE"/>
<path d="M212.018 118.891L216.32 121.128L248.502 105.127L244.199 102.89L212.018 118.891Z" fill="#FA7564"/>
<path d="M306.497 145.56C305.637 146.42 304.948 147.281 304.088 148.141C304.26 147.969 304.26 147.797 304.26 147.625L306.497 145.56Z" fill="#0A3075"/>
<path d="M302.711 145.904C303.915 145.732 305.292 145.56 306.497 145.388L304.259 147.453C304.259 146.937 303.743 146.248 303.227 145.904C303.055 146.076 302.883 145.904 302.711 145.904Z" fill="#174C99"/>
<path d="M304.088 148.141C302.883 149.345 301.679 150.722 300.646 151.926C300.818 151.582 300.99 151.238 300.99 150.722L304.26 147.625C304.26 147.797 304.26 147.969 304.088 148.141Z" fill="#86E2DE"/>
<path d="M297.032 146.765C298.925 146.593 300.818 146.248 302.711 146.076C302.883 146.076 303.055 146.076 303.228 146.248C303.744 146.593 304.26 147.109 304.26 147.797L300.99 150.894C300.99 149.517 299.786 147.797 298.409 147.109C297.893 146.765 297.549 146.593 297.032 146.765Z" fill="#CCFFFE"/>
<path d="M300.302 152.27L263.474 170.68C263.99 170.508 264.162 169.992 264.162 169.304L300.99 150.894C300.99 151.41 300.646 151.926 300.302 152.27Z" fill="#168CA8"/>
<path d="M259.859 165.347L296.687 146.937C297.203 146.765 297.719 146.765 298.408 147.109C299.785 147.797 300.989 149.517 300.989 150.894L264.161 169.304C264.161 167.928 262.957 166.207 261.58 165.519C260.892 165.175 260.203 165.003 259.859 165.347Z" fill="#33B3C4"/>
<path d="M263.473 170.68L257.966 173.433C258.483 173.261 258.655 172.745 258.655 172.057L264.162 169.304C264.162 169.992 263.818 170.508 263.473 170.68Z" fill="#0A3075"/>
<path d="M254.353 168.1L259.86 165.347C260.376 165.175 260.892 165.175 261.581 165.519C262.957 166.207 264.162 167.928 264.162 169.304L258.655 172.057C258.655 170.68 257.45 168.96 256.074 168.272C255.385 167.755 254.869 167.755 254.353 168.1Z" fill="#174C99"/>
<path d="M258.655 171.885C258.655 173.261 257.622 173.95 256.074 173.261C254.697 172.573 253.492 170.853 253.492 169.476C253.492 168.1 254.525 167.411 256.074 168.1C257.622 168.788 258.655 170.508 258.655 171.885Z" fill="#0A3075"/>
<path d="M245.92 166.551V168.96L300.473 141.775V139.366L245.92 166.551Z" fill="#CCFFFE"/>
<path d="M188.786 137.818V140.226L245.92 168.96V166.551L188.786 137.818Z" fill="#86E2DE"/>
<path d="M188.786 133.86V136.441L245.92 165.003V162.594L188.786 133.86Z" fill="#86E2DE"/>
<path d="M245.92 162.594V165.003L300.473 137.99V135.409L245.92 162.594Z" fill="#CCFFFE"/>
<path d="M188.786 129.903V132.484L245.92 161.217V158.636L188.786 129.903Z" fill="#86E2DE"/>
<path d="M245.92 158.637V161.217L300.473 134.032V131.452L245.92 158.637Z" fill="#CCFFFE"/>
<path d="M157.465 188.402V195.457L125.456 214.211V206.984L157.465 188.402Z" fill="#FFC104"/>
<path d="M157.465 188.402L125.456 206.984L93.1021 188.402C101.879 183.241 113.581 180.66 125.283 180.66C136.986 180.66 148.516 183.241 157.465 188.402Z" fill="#FFE44A"/>
<path d="M125.456 206.984V215.071L93.1021 196.317V188.402L125.456 206.984Z" fill="#FFC104"/>
<path d="M74.1719 213.867V206.124C74.1719 209.393 75.2044 212.834 77.4417 215.931V223.674C75.2044 220.577 74.1719 217.136 74.1719 213.867Z" fill="#00ADBD"/>
<path d="M119.777 206.124L119.605 215.243L77.4419 223.674V215.931L119.777 206.124Z" fill="#008C99"/>
<path d="M87.4232 187.542L119.777 206.124L77.4418 215.931C70.9022 206.296 74.172 195.113 87.4232 187.542Z" fill="#63F2FF"/>
<path d="M172.265 208.705V216.448C172.265 223.158 167.79 229.868 159.013 235.03C150.237 240.191 138.534 242.772 126.832 242.772V235.03C138.534 235.03 150.065 232.449 159.013 227.287C167.79 222.125 172.265 215.415 172.265 208.705Z" fill="#D62222"/>
<path d="M158.842 189.951C163.316 192.532 166.758 195.629 168.995 198.898C175.535 208.361 172.265 219.545 159.014 227.287C150.237 232.449 138.535 235.03 126.832 235.03L126.66 208.705L158.842 189.951Z" fill="#FF5542"/>
<path d="M125.456 206.984L125.628 233.309C113.926 233.309 102.396 230.728 93.4468 225.567C88.9724 222.986 85.5305 219.889 83.2933 216.62L125.456 206.984Z" fill="#95D94C"/>
<path d="M125.628 233.309V241.052C113.926 241.052 102.396 238.471 93.4468 233.309C88.8003 230.728 85.5305 227.631 83.2933 224.362V216.62C85.5305 219.889 88.9724 222.986 93.4468 225.567C102.224 230.728 113.926 233.309 125.628 233.309Z" fill="#67A329"/>
<path d="M118.745 167.239L100.503 157.604L100.675 96.1798L118.917 105.987L118.745 167.239Z" fill="#008C99"/>
<path d="M118.916 105.987L100.674 96.1798L120.465 86.0284L138.707 95.8357L118.916 105.987Z" fill="#63F2FF"/>
<path d="M138.707 95.8357L138.535 157.088L118.744 167.239L118.916 105.987L138.707 95.8357Z" fill="#00ADBD"/>
<path d="M93.6178 180.144L75.376 170.336L75.5481 133L93.7899 142.635L93.6178 180.144Z" fill="#154902"/>
<path d="M93.7897 142.635L75.5479 133L95.3385 122.849L113.58 132.484L93.7897 142.635Z" fill="#95D94C"/>
<path d="M113.58 132.484L113.408 169.992L93.6176 180.144L93.7896 142.635L113.58 132.484Z" fill="#35C473"/>
<path d="M68.4925 192.876L50.2506 183.241L50.4227 135.753L68.6646 145.56L68.4925 192.876Z" fill="#A61D1D"/>
<path d="M68.6642 145.56L50.4224 135.753L70.2131 125.602L88.4549 135.409L68.6642 145.56Z" fill="#FA7564"/>
<path d="M88.455 135.409L88.2829 182.724L68.4922 192.876L68.6643 145.56L88.455 135.409Z" fill="#D43E3E"/>
<path d="M43.3672 205.436L25.1254 195.801V169.648L43.3672 179.283V205.436Z" fill="#E08910"/>
<path d="M43.3672 179.283L25.1254 169.648L45.0882 159.497L63.1579 169.304L43.3672 179.283Z" fill="#FFE44A"/>
<path d="M63.1576 169.304V195.457L43.3669 205.436V179.283L63.1576 169.304Z" fill="#FFCA00"/>
<path d="M98.6085 110.977L92.5852 107.708L114.097 74.6727L120.12 77.7698L98.6085 110.977Z" fill="#FA7564"/>
<path d="M113.581 74.5006L107.558 71.2316L131.307 52.4774L137.33 55.7464L113.581 74.5006Z" fill="#FA7564"/>
<path d="M69.3527 113.73L63.3295 110.461L92.5853 107.708L98.6085 110.977L69.3527 113.73Z" fill="#FF493B"/>
<path d="M28.7393 176.186L22.5439 172.917L63.33 110.461L69.3532 113.73L28.7393 176.186Z" fill="#FA7564"/>
<path d="M113.581 74.5007L137.33 55.7465L130.962 83.4476L124.423 80.0065L100.158 117.687L70.7297 120.44L33.0413 178.423L28.739 176.186L69.353 113.73L98.6088 110.977L120.12 77.7697L113.581 74.5007Z" fill="#D43E3E"/>
<path fill-rule="evenodd" clip-rule="evenodd" d="M182.247 165.347L186.721 163.11V162.078L182.247 164.486V165.347Z" fill="#33B3C4"/>
<path fill-rule="evenodd" clip-rule="evenodd" d="M182.247 164.486L186.721 162.078L172.093 154.335L167.619 156.744L182.247 164.486Z" fill="#6ABFCE"/>
<path fill-rule="evenodd" clip-rule="evenodd" d="M167.619 156.744V157.604L182.247 165.347V164.486L167.619 156.744Z" fill="#2CA4B7"/>
<path fill-rule="evenodd" clip-rule="evenodd" d="M155.227 179.455L159.702 177.047V176.014L155.227 178.423V179.455Z" fill="#33B3C4"/>
<path fill-rule="evenodd" clip-rule="evenodd" d="M155.228 178.423L159.702 176.014L145.074 168.444L140.428 170.68L155.228 178.423Z" fill="#6ABFCE"/>
<path fill-rule="evenodd" clip-rule="evenodd" d="M140.428 170.68V171.713L155.228 179.455V178.423L140.428 170.68Z" fill="#2CA4B7"/>
<path fill-rule="evenodd" clip-rule="evenodd" d="M150.753 137.818L149.204 155.712L150.753 175.154L153.506 173.605L153.334 136.441L150.753 137.818Z" fill="#33B3C4"/>
<path fill-rule="evenodd" clip-rule="evenodd" d="M150.753 137.818L148 136.441L148.172 173.605L150.753 175.154V137.818Z" fill="#2CA4B7"/>
<path fill-rule="evenodd" clip-rule="evenodd" d="M177.427 123.881L176.739 139.538L177.599 161.045L180.181 159.669V122.332L177.427 123.881Z" fill="#33B3C4"/>
<path fill-rule="evenodd" clip-rule="evenodd" d="M177.428 123.881L174.846 122.332V159.669L177.6 161.045L177.428 123.881Z" fill="#2CA4B7"/>
<path fill-rule="evenodd" clip-rule="evenodd" d="M146.795 137.473L143.181 135.581V139.022L146.795 140.915V137.473Z" fill="#2CA4B7"/>
<path fill-rule="evenodd" clip-rule="evenodd" d="M183.795 118.031L180.181 116.138L143.181 135.581L146.795 137.473L183.795 118.031Z" fill="#6ABFCE"/>
<path fill-rule="evenodd" clip-rule="evenodd" d="M146.794 137.473V140.915L183.794 121.644V118.031L146.794 137.473Z" fill="#33B3C4"/>
<path fill-rule="evenodd" clip-rule="evenodd" d="M181.902 66.2419L180.353 65.3817L144.902 83.9638L146.451 84.8241L181.902 66.2419Z" fill="#D1D2D2"/>
<path fill-rule="evenodd" clip-rule="evenodd" d="M146.451 84.8241L144.902 83.9638L145.074 135.581L146.623 136.441L146.451 84.8241Z" fill="#9FEDEB"/>
<path fill-rule="evenodd" clip-rule="evenodd" d="M146.451 84.8241L146.623 136.441L182.074 117.859L181.902 66.2419L146.451 84.8241Z" fill="#DCFFFF"/>
<path fill-rule="evenodd" clip-rule="evenodd" d="M146.795 82.5873L143.181 80.6947V84.1358L146.795 86.0284V82.5873Z" fill="#2CA4B7"/>
<path fill-rule="evenodd" clip-rule="evenodd" d="M183.795 63.1449L180.181 61.2523L143.181 80.6947L146.795 82.5873L183.795 63.1449Z" fill="#6ABFCE"/>
<path fill-rule="evenodd" clip-rule="evenodd" d="M146.794 82.5873V86.0284L183.794 66.586V63.1449L146.794 82.5873Z" fill="#33B3C4"/>
<path opacity="0.3" d="M175.19 174.982C169.855 177.735 168.478 181.348 172.092 183.069C175.706 184.789 183.106 184.273 188.441 181.52C193.776 178.767 195.153 175.154 191.539 173.433C187.925 171.541 180.525 172.229 175.19 174.982Z" fill="#1D99B3"/>
<path fill-rule="evenodd" clip-rule="evenodd" d="M189.819 97.5563C192.056 99.4489 191.54 110.805 191.712 113.558L190.507 125.257C189.474 125.774 187.409 125.774 186.721 125.085L187.409 113.386L186.033 106.675C185.861 102.202 188.614 97.0401 189.819 97.5563Z" fill="#002B6A"/>
<path fill-rule="evenodd" clip-rule="evenodd" d="M183.795 119.063H182.935L183.107 126.29C182.935 130.591 182.074 138.85 182.074 142.979C182.074 145.732 182.591 146.937 182.591 149.001C182.419 154.679 183.107 166.207 183.107 166.207C183.107 166.207 181.558 175.154 179.837 175.326L182.074 177.391L186.549 168.788C186.721 167.411 186.205 165.003 186.205 165.003L188.614 149.862C188.614 149.862 188.614 141.603 189.474 136.269C190.851 128.182 189.819 133.86 189.646 130.591C189.474 128.182 188.958 124.913 186.893 118.719L183.795 119.063Z" fill="#F9A873"/>
<path fill-rule="evenodd" clip-rule="evenodd" d="M182.418 173.777C183.106 172.229 183.622 170.853 184.311 169.648C184.655 169.132 184.999 167.411 186.892 167.411C188.097 168.616 188.441 170.164 187.925 171.885C187.236 174.122 187.236 176.014 187.064 178.595H186.548C186.548 175.842 186.892 175.498 186.204 172.745C184.999 173.605 184.999 175.67 184.827 176.875C184.827 177.391 184.655 177.735 183.966 177.907C183.278 177.907 182.418 178.079 181.385 178.079C179.664 177.907 179.148 176.875 179.492 176.014C179.664 175.326 180.18 175.326 180.18 175.326C180.18 175.67 180.869 175.842 181.041 175.67C181.385 175.326 182.073 174.466 182.418 173.777Z" fill="#002B6A"/>
<path fill-rule="evenodd" clip-rule="evenodd" d="M178.287 121.128H177.427L177.599 128.354C177.427 132.656 176.567 145.044 176.567 145.044L177.083 151.066L177.599 168.272C177.599 168.272 176.05 177.219 174.329 177.391L176.567 179.455L181.041 170.853C181.213 169.476 180.697 167.067 180.697 167.067L183.106 151.926C183.106 151.926 183.106 143.668 183.967 138.334C185.343 130.247 184.311 135.925 184.139 132.656C183.967 130.247 183.45 126.978 181.385 120.784L178.287 121.128Z" fill="#F9A873"/>
<path fill-rule="evenodd" clip-rule="evenodd" d="M180.181 90.674C180.353 91.7063 181.213 94.1151 180.181 96.868L183.967 99.793L186.376 97.5562C185.516 95.3195 185.86 93.5989 186.376 91.5342L180.181 90.674Z" fill="#F9A873"/>
<path fill-rule="evenodd" clip-rule="evenodd" d="M188.958 113.902C188.958 114.762 189.302 115.45 189.819 116.138C190.507 117.343 191.195 118.719 191.367 120.096C192.228 125.602 189.991 131.968 188.958 142.807C182.074 144.528 177.772 144.528 176.567 143.668C175.191 125.602 175.535 123.021 176.74 119.407C177.428 117.343 178.288 115.278 178.288 114.418C180.698 116.655 185.516 116.138 188.958 113.902Z" fill="#002B6A"/>
<path fill-rule="evenodd" clip-rule="evenodd" d="M176.911 175.842C177.6 174.294 178.116 172.917 178.804 171.713C179.148 171.197 179.493 169.476 181.386 169.476C182.59 170.68 182.935 172.229 182.418 173.95C181.73 176.186 181.73 178.079 181.558 180.66H181.041C181.041 177.907 181.386 177.563 180.697 174.81C179.493 175.67 179.493 177.735 179.321 178.939C179.321 179.455 179.148 179.799 178.46 179.972C177.772 179.972 176.911 180.144 175.879 180.144C174.158 179.972 173.641 178.939 173.986 178.079C174.158 177.391 174.674 177.391 174.674 177.391C174.674 177.735 175.362 177.907 175.535 177.735C175.879 177.563 176.567 176.702 176.911 175.842Z" fill="#003D75"/>
<path fill-rule="evenodd" clip-rule="evenodd" d="M181.213 96.1798C170.543 98.0724 176.223 104.439 177.771 114.762C177.943 115.794 176.567 119.235 176.222 120.784C183.622 120.956 184.139 121.472 191.022 118.719C190.678 116.655 188.441 115.278 188.957 110.977C189.646 105.471 191.539 102.546 190.162 98.0724C189.474 95.4916 186.548 95.4916 181.213 96.1798Z" fill="#003D75"/>
<path fill-rule="evenodd" clip-rule="evenodd" d="M178.804 82.4153C178.116 83.6197 177.428 83.7917 177.256 85.3402C177.256 86.5446 177.084 93.0828 179.321 94.6313C180.009 95.1475 181.558 94.6313 182.763 93.599C183.623 92.9107 183.795 91.0181 184.139 90.5019L182.246 82.9314L178.804 82.4153Z" fill="#F9A873"/>
<path fill-rule="evenodd" clip-rule="evenodd" d="M187.581 80.8668C190.506 82.9314 190.506 86.7167 188.958 89.6417C188.097 91.0181 186.376 92.9107 186.376 92.9107L183.967 93.4269C183.967 93.4269 181.73 88.0931 180.525 87.9211C180.009 87.9211 179.664 88.4373 179.664 90.3299C178.804 88.4373 176.739 86.0285 176.739 86.0285L177.255 82.5873L181.902 79.6624L185.344 79.3182C185.688 79.6624 187.064 80.1785 187.581 80.8668Z" fill="#002B6A"/>
<path fill-rule="evenodd" clip-rule="evenodd" d="M186.204 94.1151C186.376 96.1798 187.237 96.0077 188.097 96.696C183.279 98.0724 183.967 98.0724 179.149 97.2121L180.181 95.3195C182.418 95.3195 184.828 94.8033 186.204 94.1151Z" fill="#003D75"/>
<path fill-rule="evenodd" clip-rule="evenodd" d="M196.53 100.997L191.712 99.621L186.893 88.7814L188.098 82.5873C188.098 82.5873 186.893 82.9314 186.377 82.4153C185.86 82.0712 186.205 80.5226 186.205 80.5226L189.819 79.6624C189.819 79.6624 192.916 81.0388 193.605 81.8991C194.293 82.9314 194.809 86.7167 194.809 86.7167L193.605 97.7283L196.53 100.997Z" fill="#003D75"/>
<path fill-rule="evenodd" clip-rule="evenodd" d="M168.479 103.234L167.79 101.169L165.897 96.5239L164.521 94.9754L164.004 94.8033L163.488 95.4916L164.865 97.3842L162.8 99.2768L163.488 100.997L165.037 102.546L165.897 104.439L168.479 103.234Z" fill="#F9A873"/>
<path fill-rule="evenodd" clip-rule="evenodd" d="M176.739 97.7283C175.706 98.2445 174.846 99.2768 174.846 99.2768L171.92 108.396L168.478 101.514L164.864 103.062L170.715 115.794L172.953 115.45L174.329 113.558L179.492 103.406C179.492 103.234 179.836 96.1798 176.739 97.7283Z" fill="#003D75"/>
<path fill-rule="evenodd" clip-rule="evenodd" d="M187.237 80.0065C186.721 80.0065 186.205 80.0065 185.86 80.3506C185.344 80.8668 185.516 81.8991 185.86 82.4153C186.032 82.9314 187.237 82.7594 187.753 82.5873C187.065 82.0712 186.893 80.6947 187.237 80.0065Z" fill="white"/>
</svg>
