<svg width="402" height="372" viewBox="0 0 402 372" fill="none" xmlns="http://www.w3.org/2000/svg">
<path opacity="0.28" d="M322.186 247.273C323.991 216.761 290.278 189.943 246.886 187.372C203.494 184.802 166.854 207.453 165.05 237.964C163.245 268.476 196.958 295.295 240.35 297.866C283.742 300.436 320.382 277.785 322.186 247.273Z" fill="#33B3C4"/>
<path opacity="0.55" d="M297.447 245.808C298.683 224.918 275.584 206.556 245.855 204.794C216.126 203.033 191.024 218.54 189.788 239.43C188.553 260.32 211.651 278.682 241.38 280.443C271.11 282.205 296.212 266.698 297.447 245.808Z" fill="#33B3C4"/>
<path d="M279.58 244.749C280.404 230.823 264.971 218.579 245.109 217.402C225.247 216.226 208.478 226.561 207.655 240.488C206.831 254.415 222.264 266.658 242.126 267.835C261.987 269.012 278.756 258.676 279.58 244.749Z" fill="#33B3C4"/>
<path d="M350.373 157.526C350.373 165.104 349.455 172.222 347.849 179.341C345.784 187.607 342.801 195.644 338.671 202.993C332.246 214.933 323.298 225.267 312.513 233.993C312.284 234.222 312.054 234.452 311.595 234.681C307.006 238.126 302.188 241.341 296.911 244.326C281.078 252.822 262.952 257.874 243.219 257.874C224.633 257.874 206.965 253.281 191.821 245.474C191.133 245.015 190.215 244.556 189.527 244.326C161.993 228.941 142.26 202.304 137.671 170.844C136.982 166.481 136.753 162.119 136.753 157.526C136.753 149.948 137.671 142.83 139.277 135.711C139.277 135.481 139.506 135.252 139.506 134.793C140.424 131.348 141.342 128.133 142.489 124.919C142.719 124 143.178 123.311 143.407 122.393C146.161 115.274 150.061 108.385 154.421 102.185C155.798 100.348 156.945 98.5111 158.321 96.9037C162.681 91.6222 167.5 86.5704 173.006 82.2074C173.465 81.9778 173.695 81.5185 174.154 81.2889C175.53 80.1407 176.907 79.2222 178.284 78.3037C187.921 71.1852 198.934 65.6741 211.095 62.2296C211.554 62 211.784 62 212.243 62C222.109 59.0148 232.664 57.637 243.678 57.637C246.202 57.637 248.496 57.637 251.02 57.8667C253.774 58.0963 256.527 58.3259 259.28 58.7852C269.147 60.163 278.325 62.6889 287.044 66.363C287.503 66.5926 288.191 66.8222 288.65 67.0519C315.955 78.9926 336.835 101.496 345.784 128.822C347.161 132.956 348.078 137.319 348.996 141.452C348.996 141.911 349.226 142.141 349.226 142.6C349.914 147.193 350.373 152.474 350.373 157.526Z" fill="#33B3C4"/>
<path d="M196.182 230.548L190.446 218.837L196.182 207.126L196.87 199.089L201.23 191.281L210.867 188.296L218.668 178.422L209.261 161.659L203.983 158.215C203.983 158.215 203.754 153.852 203.295 151.785L189.528 148.341L178.973 139.844L173.007 140.533C172.778 141.222 172.089 142.37 172.089 142.37C171.172 142.6 159.47 141.222 159.47 141.222L157.863 131.807L159.24 127.444C158.781 126.526 152.815 123.77 152.815 123.77L153.733 117.111L160.846 119.178L172.319 117.57L178.055 109.533L187.692 103.793L193.887 99.6593L206.507 90.0148L199.394 83.5852L198.247 80.3704L188.151 77.8445L177.137 82.437C177.137 82.437 175.531 82.2074 174.613 81.9778C174.154 82.2074 173.925 82.6667 173.466 82.8963C168.189 87.2593 163.141 92.3111 158.781 97.5926C157.404 99.4296 156.028 101.037 154.88 102.874C150.521 109.074 146.62 115.963 143.867 123.081C143.637 123.77 143.178 124.689 142.949 125.607C141.802 128.822 140.654 132.267 139.966 135.481C139.966 135.711 139.737 135.941 139.737 136.4C141.802 137.089 146.391 135.711 146.391 135.711L152.127 144.896L166.583 150.178L170.942 176.815L174.613 183.015V195.415L179.432 207.356L182.185 216.541L188.61 227.333L196.182 230.548Z" fill="#E9FEFF"/>
<path d="M345.783 128.593C336.835 101.267 315.954 78.763 288.65 66.8222C284.978 66.5926 277.865 69.5778 277.865 69.5778L274.424 84.963L252.626 87.9481L249.413 93L244.824 97.8222L241.841 100.348L256.985 103.563L270.752 103.793L274.653 99.4296L279.013 103.563L286.814 107.467H294.615C296.451 107.696 298.975 109.304 298.975 109.304L295.074 114.585L282.913 117.111L276.259 111.37L267.54 107.007L243.677 109.533L239.547 116.193L225.321 122.852V138.467L232.204 151.326L251.478 154.77L259.968 158.215L260.198 163.956L266.622 171.993L269.376 180.489L272.359 195.415L273.965 203.222L268.917 214.244L263.181 226.185L278.095 224.807L295.763 217.689L305.629 195.644L310.907 189.904L312.513 180.718L311.595 164.874L316.413 158.215L319.855 147.422V143.748L312.283 143.978C310.907 143.519 306.547 139.156 306.547 139.156L302.187 122.163L316.413 136.859L327.198 123.77L319.855 117.111L327.886 120.326L333.163 122.852L337.523 133.874L340.276 136.4L349.225 146.044C349.454 146.044 348.766 142.83 348.537 141.222C348.078 136.859 347.16 132.726 345.783 128.593Z" fill="#E9FEFF"/>
<path d="M212.012 79.2222L224.173 81.9778L232.204 75.7778L245.512 73.7111L246.889 64.5259L254.92 62.9185C254.92 62.9185 258.132 59.2444 258.591 58.7852C258.591 58.7852 258.591 58.5556 258.821 58.5556C256.067 58.0963 253.314 57.8667 250.56 57.637C248.266 57.4074 245.742 57.4074 243.218 57.4074C232.204 57.4074 221.649 59.0148 211.783 61.7704C211.324 61.7704 211.095 62 210.636 62C211.324 63.1482 212.242 65.6741 212.242 65.6741L212.012 79.2222Z" fill="#E9FEFF"/>
<path d="M274.882 240.193L262.951 236.978L247.577 237.437L242.759 242.719L235.187 246.163C235.187 246.163 235.875 247.77 235.417 250.067C228.074 250.526 212.242 246.852 212.242 246.852L210.406 234.222L202.834 232.156L196.18 239.963L190.214 243.178C189.985 243.407 189.985 243.867 189.985 244.096C190.673 244.556 191.591 245.015 192.28 245.244C207.423 253.052 225.091 257.644 243.677 257.644C263.18 257.644 281.536 252.822 297.369 244.096C302.417 241.341 307.464 238.126 312.054 234.452C311.136 233.993 308.153 233.533 308.153 233.533L274.882 240.193Z" fill="#E9FEFF"/>
<path opacity="0.15" d="M249.185 169.007C287.962 169.007 319.397 144.23 319.397 113.667C319.397 83.1028 287.962 58.3259 249.185 58.3259C210.408 58.3259 178.973 83.1028 178.973 113.667C178.973 144.23 210.408 169.007 249.185 169.007Z" fill="white"/>
<path opacity="0.19" d="M249.185 146.963C277.318 146.963 300.124 128.971 300.124 106.778C300.124 84.5841 277.318 66.5926 249.185 66.5926C221.053 66.5926 198.247 84.5841 198.247 106.778C198.247 128.971 221.053 146.963 249.185 146.963Z" fill="white"/>
<path opacity="0.19" d="M250.79 126.526C270.559 126.526 286.585 113.88 286.585 98.2815C286.585 82.6825 270.559 70.037 250.79 70.037C231.022 70.037 214.996 82.6825 214.996 98.2815C214.996 113.88 231.022 126.526 250.79 126.526Z" fill="white"/>
<path d="M188.38 178.193C183.103 178.193 178.973 174.289 178.973 169.467C178.973 164.644 183.332 160.741 188.38 160.741C193.657 160.741 197.788 164.644 197.788 169.467C197.788 174.059 193.657 178.193 188.38 178.193ZM188.38 163.267C184.938 163.267 182.185 166.022 182.185 169.467C182.185 172.911 184.938 175.667 188.38 175.667C191.822 175.667 194.575 172.911 194.575 169.467C194.575 166.022 191.822 163.267 188.38 163.267Z" fill="#7DD2DB"/>
<path fill-rule="evenodd" clip-rule="evenodd" d="M192.511 169.237C192.511 171.304 190.676 173.141 188.381 173.141C186.087 173.141 184.251 171.304 184.251 169.237C184.251 167.17 186.087 165.333 188.381 165.333C190.676 165.333 192.511 167.17 192.511 169.237Z" fill="#7DD2DB"/>
<path d="M283.832 153.852C278.554 153.852 274.424 149.948 274.424 145.126C274.424 140.304 278.784 136.4 283.832 136.4C289.109 136.4 293.239 140.304 293.239 145.126C293.469 149.948 289.109 153.852 283.832 153.852ZM283.832 138.926C280.39 138.926 277.636 141.681 277.636 145.126C277.636 148.57 280.39 151.326 283.832 151.326C287.273 151.326 290.027 148.57 290.027 145.126C290.256 141.681 287.273 138.926 283.832 138.926Z" fill="#7DD2DB"/>
<path fill-rule="evenodd" clip-rule="evenodd" d="M287.733 144.896C287.733 146.963 285.897 148.57 283.832 148.57C281.767 148.57 279.931 146.963 279.931 144.896C279.931 142.83 281.767 141.222 283.832 141.222C286.127 141.452 287.733 143.059 287.733 144.896Z" fill="#7DD2DB"/>
<path fill-rule="evenodd" clip-rule="evenodd" d="M128.493 187.148L132.165 184.852C130.788 182.785 129.641 180.489 128.493 178.193L124.822 180.259C125.74 182.785 127.117 185.081 128.493 187.148Z" fill="#277293"/>
<path fill-rule="evenodd" clip-rule="evenodd" d="M136.753 198.859L139.966 196.104C138.359 194.037 136.753 192.2 135.376 190.133L131.935 192.659C133.541 194.726 135.147 196.793 136.753 198.859Z" fill="#277293"/>
<path fill-rule="evenodd" clip-rule="evenodd" d="M146.16 209.193L148.913 205.978C147.078 204.141 145.242 202.304 143.636 200.467L140.424 203.452C142.489 205.519 144.324 207.585 146.16 209.193Z" fill="#277293"/>
<path fill-rule="evenodd" clip-rule="evenodd" d="M115.873 146.963H120.003C120.233 144.437 120.003 142.141 120.462 139.615L116.332 139.156C115.873 141.681 116.103 144.437 115.873 146.963Z" fill="#277293"/>
<path fill-rule="evenodd" clip-rule="evenodd" d="M117.71 160.97L121.84 160.052C121.381 157.526 120.693 155.23 120.693 152.704L116.562 153.163C116.562 155.919 117.021 158.444 117.71 160.97Z" fill="#277293"/>
<path fill-rule="evenodd" clip-rule="evenodd" d="M122.068 174.519L125.969 172.911C125.051 170.615 124.133 168.319 123.445 165.793L119.315 167.17C120.003 169.696 120.921 171.993 122.068 174.519Z" fill="#277293"/>
<path fill-rule="evenodd" clip-rule="evenodd" d="M128.264 107.696L131.706 110.222C133.083 108.385 134.689 106.548 136.295 104.711L133.083 101.726C131.476 103.563 129.87 105.63 128.264 107.696Z" fill="#277293"/>
<path fill-rule="evenodd" clip-rule="evenodd" d="M121.61 119.637L125.51 121.474C126.428 119.178 127.575 117.111 128.723 115.044L125.051 112.748C123.904 115.044 122.527 117.341 121.61 119.637Z" fill="#277293"/>
<path fill-rule="evenodd" clip-rule="evenodd" d="M117.25 132.956L121.38 133.874C121.839 131.578 122.527 129.052 123.215 126.756L119.315 125.378C118.626 127.904 117.938 130.43 117.25 132.956Z" fill="#277293"/>
<path fill-rule="evenodd" clip-rule="evenodd" d="M159.469 82.6667L161.305 86.5704C163.599 85.6518 165.664 84.5037 167.959 83.8148L166.353 79.9111C164.058 80.6 161.764 81.7481 159.469 82.6667Z" fill="#277293"/>
<path fill-rule="evenodd" clip-rule="evenodd" d="M147.996 89.0963L150.291 92.5407C152.356 91.3926 154.192 90.0148 156.486 88.8667L154.421 85.1926C152.127 86.3407 150.062 87.9482 147.996 89.0963Z" fill="#277293"/>
<path fill-rule="evenodd" clip-rule="evenodd" d="M137.442 97.363L140.425 100.578C142.261 98.9704 143.867 97.363 145.932 95.9852L143.408 92.5407C141.113 93.9185 139.278 95.7556 137.442 97.363Z" fill="#277293"/>
<path fill-rule="evenodd" clip-rule="evenodd" d="M197.558 71.8741L198.246 76.0074C200.541 75.7778 203.065 75.3185 205.359 75.3185L204.9 71.1852C202.376 71.4148 200.082 71.6444 197.558 71.8741Z" fill="#277293"/>
<path fill-rule="evenodd" clip-rule="evenodd" d="M184.709 74.4L185.626 78.5333C187.921 78.0741 190.216 77.6148 192.74 77.1555L191.822 73.0222C189.527 73.2518 187.003 73.9407 184.709 74.4Z" fill="#277293"/>
<path fill-rule="evenodd" clip-rule="evenodd" d="M172.089 77.8444L173.466 81.7481C175.76 81.0592 178.055 80.1407 180.349 79.6815L178.972 75.7778C176.678 76.237 174.383 77.1556 172.089 77.8444Z" fill="#277293"/>
<path fill-rule="evenodd" clip-rule="evenodd" d="M237.023 71.1852L236.794 75.3185C239.088 75.5481 241.612 75.7778 243.907 76.0074L244.136 71.8741C241.841 71.6444 239.318 71.4148 237.023 71.1852Z" fill="#277293"/>
<path fill-rule="evenodd" clip-rule="evenodd" d="M223.945 70.4963V74.6296L231.058 74.8593V70.7259L223.945 70.4963Z" fill="#277293"/>
<path fill-rule="evenodd" clip-rule="evenodd" d="M210.867 70.7259L211.096 74.8593L218.439 74.6296L217.98 70.4963L210.867 70.7259Z" fill="#277293"/>
<path fill-rule="evenodd" clip-rule="evenodd" d="M275.572 80.1407L274.195 83.8148C276.26 84.7333 278.325 85.8815 280.39 87.0296L282.455 83.5852C280.161 82.2074 277.866 81.0593 275.572 80.1407Z" fill="#277293"/>
<path fill-rule="evenodd" clip-rule="evenodd" d="M262.951 75.7778L262.033 79.6815C264.328 80.1407 266.622 81.0592 268.917 81.7481L270.064 77.8444C267.769 77.1556 265.245 76.237 262.951 75.7778Z" fill="#277293"/>
<path fill-rule="evenodd" clip-rule="evenodd" d="M250.103 72.7926L249.645 76.9259C251.939 77.3852 254.234 77.8444 256.758 78.3037L257.446 74.1704C254.922 73.7111 252.627 73.2519 250.103 72.7926Z" fill="#277293"/>
<path fill-rule="evenodd" clip-rule="evenodd" d="M206.965 114.815L210.177 117.341C211.324 115.504 213.16 114.356 214.766 112.978L211.783 109.993C210.177 111.6 208.112 112.978 206.965 114.815Z" fill="#277293"/>
<path fill-rule="evenodd" clip-rule="evenodd" d="M199.623 124.459L203.294 126.526C204.442 124.689 205.589 122.852 206.966 121.244L203.524 118.948C201.918 120.556 200.77 122.393 199.623 124.459Z" fill="#277293"/>
<path fill-rule="evenodd" clip-rule="evenodd" d="M193.887 134.793L197.788 136.4L200.541 130.659L196.64 128.822L193.887 134.793Z" fill="#277293"/>
<path fill-rule="evenodd" clip-rule="evenodd" d="M189.756 146.044L193.886 147.193C194.345 145.126 195.263 143.289 195.951 141.222L191.821 139.844C191.133 141.911 190.215 143.978 189.756 146.044Z" fill="#277293"/>
<path fill-rule="evenodd" clip-rule="evenodd" d="M187.232 157.526L191.592 158.215C192.051 156.148 192.28 154.081 192.739 152.015L188.609 151.096C187.921 153.163 187.462 155.459 187.232 157.526Z" fill="#277293"/>
<path fill-rule="evenodd" clip-rule="evenodd" d="M186.085 169.237H190.445C190.445 167.17 190.674 165.104 190.904 163.037L186.544 162.578C186.315 164.874 186.085 166.941 186.085 169.237Z" fill="#277293"/>
<path fill-rule="evenodd" clip-rule="evenodd" d="M237.483 94.6074L239.089 98.2815L245.514 96.4444L244.137 92.5407L237.483 94.6074Z" fill="#277293"/>
<path fill-rule="evenodd" clip-rule="evenodd" d="M226.239 99.6593L228.304 103.104L234.27 100.348L232.434 96.6741L226.239 99.6593Z" fill="#277293"/>
<path fill-rule="evenodd" clip-rule="evenodd" d="M215.914 106.319L218.667 109.533C220.503 108.385 222.339 107.237 224.174 105.859L221.65 102.415C219.585 103.793 217.749 104.941 215.914 106.319Z" fill="#277293"/>
<path fill-rule="evenodd" clip-rule="evenodd" d="M274.195 88.1778L274.425 92.3111L281.308 92.0815V87.9482L274.195 88.1778Z" fill="#277293"/>
<path fill-rule="evenodd" clip-rule="evenodd" d="M261.804 89.0963L262.263 93C264.558 92.7704 266.623 92.3111 268.917 92.3111L268.688 88.1778C266.393 88.1778 264.099 88.637 261.804 89.0963Z" fill="#277293"/>
<path fill-rule="evenodd" clip-rule="evenodd" d="M249.643 90.9333L250.56 94.837C252.625 94.1482 254.92 94.1482 257.214 93.6889L256.526 89.7852C254.232 90.2444 251.708 90.4741 249.643 90.9333Z" fill="#277293"/>
<path fill-rule="evenodd" clip-rule="evenodd" d="M291.175 97.8222L294.846 95.7556C293.928 93.9185 292.551 92.5408 291.404 90.7037L287.962 93.2296C288.88 94.837 290.257 96.2148 291.175 97.8222Z" fill="#277293"/>
<path fill-rule="evenodd" clip-rule="evenodd" d="M294.847 106.778L298.977 105.859C298.518 103.793 297.6 101.956 297.141 100.119L293.241 101.726C293.7 103.333 294.388 104.941 294.847 106.778Z" fill="#277293"/>
<path fill-rule="evenodd" clip-rule="evenodd" d="M295.535 116.193L299.895 116.422C300.124 114.356 299.895 112.519 299.895 110.452L295.535 110.681C295.535 112.519 295.765 114.356 295.535 116.193Z" fill="#277293"/>
<path fill-rule="evenodd" clip-rule="evenodd" d="M293.241 125.607L297.371 126.985C298.059 125.148 298.518 123.311 298.977 121.244L294.847 120.326C294.388 122.163 293.929 124 293.241 125.607Z" fill="#277293"/>
<path fill-rule="evenodd" clip-rule="evenodd" d="M288.881 134.563L292.552 136.63C293.47 135.022 294.617 133.185 295.535 131.348L291.634 129.741C290.946 131.348 289.798 132.956 288.881 134.563Z" fill="#277293"/>
<path fill-rule="evenodd" clip-rule="evenodd" d="M282.915 142.37L286.128 144.896C287.504 143.519 288.652 141.911 290.028 140.304L286.587 138.007C285.21 139.615 284.063 140.993 282.915 142.37Z" fill="#277293"/>
<path fill-rule="evenodd" clip-rule="evenodd" d="M321.92 81.2889L322.608 86.1111C324.903 86.3407 327.197 86.5704 329.492 87.0296V82.437C326.968 81.9778 324.444 81.5185 321.92 81.2889Z" fill="#277293"/>
<path fill-rule="evenodd" clip-rule="evenodd" d="M307.466 81.0593L309.301 86.3407C311.825 86.1111 314.349 86.1111 316.644 86.1111L315.497 81.0593C312.973 80.8296 310.219 81.0593 307.466 81.0593Z" fill="#277293"/>
<path fill-rule="evenodd" clip-rule="evenodd" d="M292.78 82.8963L295.993 88.1778C298.517 87.7185 301.041 87.2592 303.565 87.0296L301.041 81.7481C298.287 81.9778 295.534 82.437 292.78 82.8963Z" fill="#277293"/>
<path fill-rule="evenodd" clip-rule="evenodd" d="M351.291 99.4296L348.538 100.578C348.997 102.185 348.997 103.793 348.997 105.4L351.521 104.941C351.75 103.333 351.75 101.267 351.291 99.4296Z" fill="#277293"/>
<path fill-rule="evenodd" clip-rule="evenodd" d="M345.785 90.0148L343.949 93.2296C344.637 93.6889 345.326 94.3778 345.785 95.0667C346.473 95.7556 346.932 96.4444 347.161 97.1333L349.685 95.0667C349.226 94.1482 348.768 93.2296 347.85 92.3111C347.161 91.3926 346.473 90.7037 345.785 90.0148Z" fill="#277293"/>
<path fill-rule="evenodd" clip-rule="evenodd" d="M334.999 84.0444L334.311 88.4074C336.376 89.0963 338.211 89.7852 340.047 90.7037L341.424 86.8C339.359 85.6518 337.294 84.7333 334.999 84.0444Z" fill="#277293"/>
<path fill-rule="evenodd" clip-rule="evenodd" d="M348.767 116.881L346.702 116.422C346.243 117.341 346.014 118.259 345.555 119.178C345.326 119.407 345.785 120.326 345.785 120.326L347.161 120.785C347.62 119.407 348.079 118.259 348.767 116.881Z" fill="#277293"/>
<path fill-rule="evenodd" clip-rule="evenodd" d="M351.291 109.074H348.767C348.537 110.452 348.078 112.059 347.849 113.437L350.143 113.667C350.373 112.289 351.061 110.681 351.291 109.074Z" fill="#277293"/>
<path fill-rule="evenodd" clip-rule="evenodd" d="M257.215 47.0741L254.921 50.7482C256.068 51.437 257.445 52.1259 258.592 52.8148L260.886 49.1407C259.969 48.4519 258.592 47.9926 257.215 47.0741Z" fill="#277293"/>
<path fill-rule="evenodd" clip-rule="evenodd" d="M248.956 45.0074L247.35 49.1407C248.956 49.1407 250.333 49.6 251.939 49.8296L253.775 45.9259C251.939 45.4667 250.562 45.0074 248.956 45.0074Z" fill="#277293"/>
<path fill-rule="evenodd" clip-rule="evenodd" d="M239.548 44.5481L238.401 48.6815C240.007 48.4519 241.613 48.4519 243.219 48.6815L244.825 44.5481C243.449 44.5481 241.613 44.3185 239.548 44.5481Z" fill="#277293"/>
<path fill-rule="evenodd" clip-rule="evenodd" d="M228.994 48.4519L229.453 51.8963C231.288 50.7482 232.895 50.0593 234.73 49.3704L235.189 45.4667C233.124 46.1556 231.059 47.3037 228.994 48.4519Z" fill="#277293"/>
<path fill-rule="evenodd" clip-rule="evenodd" d="M217.979 57.1778L220.274 59.2445C221.88 57.4074 223.486 55.8 225.092 54.1926L223.716 51.2074C221.65 53.0445 219.585 55.1111 217.979 57.1778Z" fill="#277293"/>
<path fill-rule="evenodd" clip-rule="evenodd" d="M274.883 62.4593L272.129 65.6741C273.047 66.8222 273.965 67.7407 274.653 69.1185L277.407 65.9037C276.718 64.7556 275.801 63.6074 274.883 62.4593Z" fill="#277293"/>
<path fill-rule="evenodd" clip-rule="evenodd" d="M269.836 56.7185L267.312 60.163L270.065 63.1481L272.818 59.9333L269.836 56.7185Z" fill="#277293"/>
<path fill-rule="evenodd" clip-rule="evenodd" d="M264.099 51.437L261.575 55.1111C262.722 55.8 263.64 56.9482 264.787 57.8667L267.311 54.4222C266.164 53.5037 265.246 52.3556 264.099 51.437Z" fill="#277293"/>
<path fill-rule="evenodd" clip-rule="evenodd" d="M286.816 82.437L284.062 85.4222L285.668 89.3259L288.422 86.5704L286.816 82.437Z" fill="#277293"/>
<path fill-rule="evenodd" clip-rule="evenodd" d="M283.374 75.5482L280.621 78.5333L282.456 82.2074L285.21 79.4519L283.374 75.5482Z" fill="#277293"/>
<path fill-rule="evenodd" clip-rule="evenodd" d="M279.472 68.8889L276.719 72.1037C277.636 73.2519 278.095 74.6296 279.013 75.7778L281.767 72.7926C280.849 71.1852 280.16 70.037 279.472 68.8889Z" fill="#277293"/>
<path fill-rule="evenodd" clip-rule="evenodd" d="M305.631 96.6741L302.19 100.119C303.796 101.726 305.173 103.563 306.779 105.17L310.45 101.956C308.614 100.119 307.238 98.2815 305.631 96.6741Z" fill="#277293"/>
<path fill-rule="evenodd" clip-rule="evenodd" d="M296.682 87.9482L293.47 91.6222C295.076 93 296.682 94.6074 298.288 96.2148L301.73 92.7704C300.124 90.9333 298.288 89.5556 296.682 87.9482Z" fill="#277293"/>
<path fill-rule="evenodd" clip-rule="evenodd" d="M327.658 128.822L323.069 130.889L325.593 137.319L330.412 135.711L327.658 128.822Z" fill="#277293"/>
<path fill-rule="evenodd" clip-rule="evenodd" d="M321.232 117.111L316.873 119.637C318.249 121.474 319.167 123.77 320.315 125.837L324.674 123.541C323.756 121.244 322.609 119.178 321.232 117.111Z" fill="#277293"/>
<path fill-rule="evenodd" clip-rule="evenodd" d="M313.89 106.319L309.989 109.533L314.119 115.044L318.249 112.289L313.89 106.319Z" fill="#277293"/>
<path fill-rule="evenodd" clip-rule="evenodd" d="M331.788 168.548L326.969 167.4C326.051 169.467 325.822 171.763 324.674 173.83L329.264 175.437C330.411 173.37 330.87 170.844 331.788 168.548Z" fill="#277293"/>
<path fill-rule="evenodd" clip-rule="evenodd" d="M333.623 155L328.575 155.23C328.575 157.526 328.575 159.822 328.116 162.119L332.935 162.578C333.623 160.052 333.623 157.526 333.623 155Z" fill="#277293"/>
<path fill-rule="evenodd" clip-rule="evenodd" d="M332.017 141.681L327.198 142.83C327.886 145.126 327.886 147.422 328.345 149.719L333.393 149.03C332.705 146.733 332.705 143.978 332.017 141.681Z" fill="#277293"/>
<path fill-rule="evenodd" clip-rule="evenodd" d="M308.154 198.63L305.4 195.185L299.664 198.4L301.958 202.074L308.154 198.63Z" fill="#277293"/>
<path fill-rule="evenodd" clip-rule="evenodd" d="M318.021 190.822L314.579 187.837L312.285 190.133C311.367 190.822 310.449 191.511 309.531 192.2L312.514 195.415C313.432 194.726 314.35 194.037 315.267 193.348L318.021 190.822Z" fill="#277293"/>
<path fill-rule="evenodd" clip-rule="evenodd" d="M326.511 180.948L322.381 178.652C321.234 180.489 319.628 182.326 318.48 184.163L322.151 186.919C323.528 184.852 325.134 183.015 326.511 180.948Z" fill="#277293"/>
<path d="M196.411 163.496L212.702 141.681C212.702 141.681 223.486 125.148 207.654 109.304C200.541 102.185 192.739 100.578 186.774 102.644L178.054 106.778C178.054 106.778 176.907 118.948 178.743 124C182.414 133.415 183.102 133.415 185.626 139.844C188.15 146.274 188.609 167.4 188.609 167.4L196.411 163.496Z" fill="#F15C24"/>
<path d="M216.143 126.526C215.913 123.311 214.766 119.867 212.701 116.193C212.242 115.504 211.783 114.815 211.324 114.126C210.177 112.519 209.03 110.911 207.424 109.304C200.311 102.185 192.509 100.578 186.544 102.644L177.824 106.778C177.824 106.778 177.365 112.289 177.595 117.57L208.112 131.119L216.143 126.526Z" fill="#FF815A"/>
<path d="M196.64 102.415L188.151 106.548L201.459 117.341L210.407 112.289C209.49 111.37 208.572 110.222 207.654 109.304C203.983 105.63 200.312 103.333 196.64 102.415Z" fill="#FFA188"/>
<path d="M188.609 167.4L204.901 145.585C204.901 145.585 215.685 129.052 199.853 113.207C181.496 95.0667 164.746 112.289 170.942 127.904C174.613 137.319 175.301 137.319 177.825 143.748C182.873 156.607 188.609 167.4 188.609 167.4Z" fill="#D3341A"/>
<path d="M199.165 123.77C202.377 131.348 200.541 139.156 195.035 141.222C189.757 143.059 182.874 138.467 179.661 130.889C176.449 123.311 178.285 115.504 183.791 113.437C189.298 111.37 196.182 115.963 199.165 123.77Z" fill="#F9C228"/>
<path d="M194.322 141.265C199.513 138.902 200.957 130.904 197.546 123.4C194.136 115.896 187.164 111.728 181.973 114.091C176.782 116.453 175.338 124.452 178.748 131.956C182.158 139.46 189.131 143.627 194.322 141.265Z" fill="#F4950C"/>
<path d="M298.518 92.5407C297.371 96.9037 290.717 99.2 283.833 97.5926C276.95 95.9852 272.131 91.163 273.278 86.5704C274.426 82.2074 281.08 79.9111 287.963 81.5185C295.076 83.1259 299.665 87.9481 298.518 92.5407Z" fill="#F4950C"/>
<path d="M298.528 88.7023C299.463 84.2335 294.59 79.4307 287.644 77.9748C280.698 76.5189 274.309 78.9613 273.374 83.43C272.439 87.8988 277.311 92.7017 284.257 94.1576C291.203 95.6135 297.593 93.1711 298.528 88.7023Z" fill="#F9C228"/>
<path d="M289.112 87.4889H284.523C283.835 87.4889 283.376 87.0296 283.376 86.3407V59.7037C283.376 59.0148 283.835 58.5556 284.523 58.5556H289.112C289.8 58.5556 290.259 59.0148 290.259 59.7037V86.3407C290.259 87.0296 289.571 87.4889 289.112 87.4889Z" fill="#F15C24"/>
<path d="M287.964 76.237C294.68 76.237 300.125 71.0966 300.125 64.7556C300.125 58.4145 294.68 53.2741 287.964 53.2741C281.247 53.2741 275.803 58.4145 275.803 64.7556C275.803 71.0966 281.247 76.237 287.964 76.237Z" fill="#D3341A"/>
<path d="M288.881 70.2667C293.443 70.2667 297.141 66.7712 297.141 62.4593C297.141 58.1474 293.443 54.6519 288.881 54.6519C284.319 54.6519 280.621 58.1474 280.621 62.4593C280.621 66.7712 284.319 70.2667 288.881 70.2667Z" fill="#F15C24"/>
<path d="M294.619 60.8519C294.619 63.3778 292.324 65.6741 289.571 65.6741C286.817 65.6741 284.523 63.6074 284.523 60.8519C284.523 58.3259 286.817 56.0296 289.571 56.0296C292.324 56.2593 294.619 58.3259 294.619 60.8519Z" fill="#FF815A"/>
<path opacity="0.28" d="M217.548 316.198C219.241 311.959 211.932 305.051 201.223 300.769C190.515 296.488 180.462 296.454 178.769 300.693C177.077 304.933 184.386 311.841 195.094 316.122C205.803 320.404 215.856 320.438 217.548 316.198Z" fill="#33B3C4"/>
<path d="M203.295 301.274C203.983 302.422 203.983 303.8 204.213 305.178C204.672 307.244 205.36 308.163 206.966 308.393C206.737 308.163 206.507 307.704 206.507 307.244C206.048 306.096 205.59 305.178 205.131 304.03C204.672 302.881 204.442 300.126 204.213 296.681C203.066 297.141 202.148 297.37 201.001 297.37C200.542 297.37 200.083 297.37 199.624 297.141C199.624 297.6 199.624 298.289 199.394 298.748C201.459 299.207 202.607 300.126 203.295 301.274Z" fill="#F89C69"/>
<path d="M198.935 298.978C197.1 302.652 199.394 307.244 198.247 310.918C198.935 311.378 200.083 311.148 200.083 311.148V310C200.083 310 200.312 307.015 200.312 305.407C201.918 306.326 204.672 309.541 204.901 311.378C204.901 311.378 205.131 311.378 205.131 311.607C207.196 311.837 209.031 312.067 210.637 311.378C210.867 310.459 210.637 309.311 210.408 308.393C209.261 308.163 207.196 307.933 206.278 307.474C206.507 307.933 206.737 308.163 206.737 308.622C205.13 308.393 204.442 307.244 203.983 305.407C203.754 304.03 203.754 302.652 203.065 301.504C202.148 300.126 201 299.437 199.165 299.207C199.165 298.978 199.165 298.978 198.935 298.978Z" fill="#002B6A"/>
<path d="M205.36 311.607C205.131 309.77 202.148 306.326 200.542 305.407C201.689 306.785 202.607 308.622 202.377 310.459C203.295 311.148 204.672 311.607 205.36 311.607Z" fill="black"/>
<path d="M186.774 301.044C186.315 300.356 186.086 300.126 185.856 299.667C186.315 301.274 186.545 302.422 186.545 304.259C186.774 304.259 187.003 304.489 187.233 304.719C187.003 303.341 187.003 302.193 186.774 301.044Z" fill="black"/>
<path d="M191.592 302.422C191.363 301.504 191.363 300.585 190.904 299.667C190.675 299.207 190.445 298.519 190.216 297.83C189.757 296.681 189.068 295.533 188.151 295.304C187.003 295.074 186.315 295.304 185.856 295.533C184.938 296.452 185.397 298.289 185.397 299.667C185.856 300.126 185.856 300.356 186.315 301.044C186.544 302.193 186.774 303.8 186.774 305.178C186.774 305.637 186.774 306.096 186.774 306.556C187.233 307.015 187.921 307.015 188.61 306.785C188.61 306.326 188.61 301.733 189.068 300.126C189.527 301.274 189.527 304.489 189.757 305.407L189.986 306.096C191.133 306.326 192.051 305.867 192.969 305.637C193.887 304.03 192.969 302.652 191.592 302.422Z" fill="#002B6A"/>
<path d="M190.217 306.096C189.987 305.178 189.758 301.504 189.299 300.126C188.84 301.733 188.84 303.57 188.84 305.407C189.069 305.637 190.217 305.867 190.217 306.096Z" fill="black"/>
<path d="M186.085 295.304C186.544 294.844 187.232 294.844 188.38 295.074C189.297 295.304 189.986 296.452 190.445 297.6C190.445 296.682 190.445 295.533 190.674 293.926C190.215 293.926 189.527 294.156 189.068 294.156C188.609 294.156 188.15 294.156 187.691 294.156C187.003 294.156 186.544 293.926 186.085 293.696C186.085 294.156 186.085 294.844 186.085 295.304Z" fill="#F89C69"/>
<path d="M197.789 235.6C197.789 234.911 197.789 234.222 197.789 233.533C197.33 233.533 196.871 233.533 196.412 233.304C195.036 233.074 193.888 232.615 192.512 232.156C191.135 231.696 188.382 230.319 187.923 230.319C187.693 230.778 187.464 232.385 187.464 232.385C187.923 233.074 195.265 235.141 197.789 235.6Z" fill="#277293"/>
<path d="M205.36 270.504C205.36 260.63 207.654 248.919 205.819 236.978C205.589 236.978 205.589 236.978 205.819 236.978C205.819 236.289 205.589 235.83 205.589 235.141V234.911C204.901 235.141 204.212 235.141 203.754 235.37C203.754 236.059 198.247 236.289 198.247 235.6C195.723 235.37 187.921 232.844 187.921 232.844C187.462 233.304 186.315 235.6 186.315 235.6C183.103 242.259 185.627 248.23 186.315 253.511C187.004 258.333 187.462 262.926 187.462 267.978C186.774 270.044 186.086 272.57 185.627 274.178C184.938 276.704 184.938 277.852 184.938 280.378C184.938 282.904 185.168 285.659 185.627 288.644C185.397 290.481 184.938 292.778 184.938 293.926C185.856 294.385 187.462 295.074 187.921 295.074C190.675 295.304 191.363 294.615 191.822 294.615C191.593 293.467 191.822 291.63 191.822 290.252C193.199 282.215 195.264 270.963 196.411 265.681C196.641 266.83 196.641 267.978 196.87 268.896C197.099 270.733 195.952 273.03 195.952 274.867C195.723 278.081 195.723 278.311 196.182 281.526C196.411 283.363 197.099 287.037 197.788 288.874C198.247 291.17 198.935 295.763 198.476 298.059C198.935 298.289 203.524 298.978 205.589 297.141C205.36 295.304 205.36 293.007 205.36 291.4C205.13 282.444 205.13 273.719 205.36 270.504Z" fill="#002B6A"/>
<path d="M207.196 217.919C206.738 218.607 206.508 219.296 206.049 219.756C205.82 221.133 204.902 224.348 204.672 226.644C206.508 225.037 212.015 220.215 214.539 217.459C214.768 217.23 214.998 217 214.998 217C214.998 216.77 214.768 214.474 212.933 213.785C212.933 213.785 209.032 216.77 207.196 217.919Z" fill="#1D99B3"/>
<path d="M198.707 198.4C196.412 198.4 193.429 197.941 191.135 197.481C191.135 197.711 190.905 198.4 190.905 198.4C192.053 198.4 193.888 198.4 194.806 198.63C195.724 198.859 197.101 199.319 198.477 199.778C198.477 199.319 198.707 198.859 198.707 198.4Z" fill="#F89C69"/>
<path d="M203.295 187.378C203.525 186 203.295 183.933 202.378 183.015C201.919 182.556 201.46 182.096 201.001 181.637C199.854 180.489 198.706 180.03 197.1 179.8C194.576 179.111 191.364 179.111 189.528 181.178C189.069 181.178 196.412 181.637 198.936 183.704C199.395 184.163 200.542 184.852 201.001 185.311C201.689 186 201.919 186.919 202.607 187.378C202.837 187.148 203.066 187.148 203.295 187.378Z" fill="#003D75"/>
<path d="M200.083 192.2C200.542 189.904 201.001 188.985 202.148 187.148C202.377 187.148 202.377 187.148 202.607 187.148C202.607 186.23 202.377 185.541 201.689 185.081V184.852C201.001 184.393 200.542 183.244 199.853 182.785C197.329 180.719 193.199 180.259 189.299 180.719C182.874 181.637 183.792 189.215 184.251 190.822C184.251 191.052 184.48 191.281 184.48 191.511C184.71 191.97 184.71 192.2 184.939 192.659C185.857 194.267 188.151 196.104 189.528 197.022C191.364 197.482 189.987 197.252 191.134 197.482C193.429 197.941 195.953 198.17 198.247 198.17C200.083 198.17 201.46 197.711 201.918 196.793C201.689 196.563 201.23 196.563 200.771 196.333C200.083 196.104 199.853 193.578 200.083 192.2Z" fill="#002B6A"/>
<path d="M202.376 187.148C201.229 188.985 200.77 190.133 200.311 192.2C200.082 193.578 200.311 195.874 201.229 196.333C202.376 194.267 202.835 191.052 202.835 188.526C202.835 188.296 202.835 188.067 202.835 187.837C202.835 187.607 202.835 187.148 202.835 186.919C202.606 187.148 202.376 187.148 202.376 187.148Z" fill="#F9A873"/>
<path d="M204.902 232.615C204.443 232.844 203.984 233.074 203.525 233.074C203.525 233.763 203.525 234.452 203.525 235.37C204.214 235.37 204.902 235.141 205.361 234.911C205.131 234.222 204.902 232.615 204.902 232.615Z" fill="#277293"/>
<path d="M198.476 200.007C197.099 199.548 195.723 199.089 194.805 198.859C193.658 198.63 191.592 198.4 190.445 198.4C189.527 198.4 189.298 198.859 189.298 198.859C190.216 199.089 192.51 199.548 192.74 199.548C194.575 199.778 196.64 200.237 198.476 200.696C198.935 200.696 200.312 201.385 200.771 201.385C200.082 200.696 199.394 200.237 198.476 200.007Z" fill="white"/>
<path d="M204.671 203.222C203.524 202.533 202.147 201.844 200.77 201.385C200.311 201.156 200.082 201.156 199.623 200.926C199.164 200.696 198.935 200.696 198.476 200.467C196.64 200.007 194.805 199.548 192.739 199.319C192.51 199.319 192.281 199.319 192.051 199.089C191.822 199.089 191.592 199.089 191.363 198.859C190.445 198.63 189.298 198.4 188.38 198.4C185.856 198.17 184.479 198.17 183.332 200.007C182.185 201.844 183.332 206.437 184.02 207.815C184.709 209.881 185.168 211.259 186.085 213.326C187.462 217.23 187.462 219.756 187.921 223.889C188.15 225.726 188.15 228.481 187.921 230.319C188.839 230.778 191.133 231.696 192.51 232.156C193.657 232.615 195.034 232.844 196.411 233.074C196.87 233.074 197.329 233.304 197.787 233.304C198.017 225.037 199.623 216.541 200.77 208.733C200.77 207.126 201 205.059 201.459 203.911C202.147 203.222 203.294 202.993 204.671 203.222Z" fill="#6ABFCE"/>
<path d="M206.735 207.585C206.965 210.8 206.276 215.393 205.359 219.756C204.67 223.43 203.752 227.104 203.752 229.17C203.752 229.17 203.523 230.778 203.523 233.074C203.982 232.844 204.441 232.844 204.9 232.615C204.9 232.615 204.9 227.333 205.359 224.578C205.817 222.281 205.817 221.133 206.047 219.756C206.506 219.067 207.194 218.837 207.653 218.378C208.8 217 209.259 216.081 209.259 213.326C209.259 212.178 207.653 209.652 206.735 207.585Z" fill="#33B3C4"/>
<path d="M232.664 202.993C230.599 202.533 229.91 202.074 228.534 201.615C226.01 203.681 218.667 209.881 216.602 212.407L215.455 214.015C214.996 214.704 213.619 216.541 213.619 216.541C213.849 216.541 217.061 217.689 218.667 218.148C220.732 218.837 222.797 219.756 224.633 220.444C228.075 215.852 238.4 207.126 241.383 204.141C238.859 203.911 234.958 203.452 232.664 202.993Z" fill="#E9FEFF"/>
<path d="M218.898 211.259L218.439 211.03C218.209 211.489 217.521 211.719 217.521 211.719H215.456C215.456 211.719 214.768 211.719 214.538 211.719L214.309 211.948C213.85 212.637 213.62 213.326 213.161 214.015C213.62 214.244 214.079 214.474 214.309 215.163C215.456 214.933 215.685 214.244 216.144 213.556C216.603 213.556 217.75 213.326 217.75 213.326L218.668 212.407C218.898 212.407 219.127 211.719 218.898 211.259Z" fill="#F9A873"/>
<path d="M203.295 246.393C202.606 247.311 200.541 247.311 199.394 247.311C199.394 248.23 199.394 249.607 199.394 250.756C199.394 250.985 199.624 251.444 199.624 251.674C199.624 251.904 199.624 251.904 199.624 252.133C199.394 253.052 199.624 255.807 199.624 255.807L200.312 256.267L201 256.956L202.606 256.496C202.836 256.267 203.065 256.037 203.065 255.578C203.524 254.659 203.983 253.511 204.442 252.593C204.442 252.363 204.442 251.904 204.442 251.444C204.213 249.837 203.524 247.77 203.295 246.393Z" fill="#F9A873"/>
<path d="M206.737 207.585C206.737 206.667 206.508 205.748 206.279 205.059C206.049 204.37 205.82 203.911 205.361 203.452C205.131 203.222 204.902 203.222 204.672 202.993C203.525 202.763 202.148 202.993 201.46 204.141C201.001 205.059 200.772 207.356 200.772 208.963C199.854 216.77 198.018 225.267 197.789 233.533C197.789 234.222 197.789 236.978 197.789 237.667C198.018 241.111 198.018 244.326 198.936 247.541L199.395 247.77C200.772 248 202.607 247.311 203.296 246.393C203.296 246.393 203.296 246.393 203.296 246.163C203.296 245.933 203.296 245.704 203.296 245.474C203.066 243.178 203.066 240.193 203.066 237.207C203.066 236.519 203.066 235.83 203.066 235.141C203.066 234.222 203.066 233.533 203.066 232.844C203.296 230.548 203.296 228.941 203.296 228.941C203.525 226.644 204.213 223.2 204.902 219.526C206.279 215.393 206.967 211.03 206.737 207.585Z" fill="#6ABFCE"/>
<path opacity="0.28" d="M329.725 308.622C334.314 311.607 346.016 309.541 355.882 304.259C365.749 298.978 369.879 292.319 365.29 289.333C360.701 286.348 348.999 288.415 339.132 293.696C329.266 299.207 325.136 305.867 329.725 308.622Z" fill="#33B3C4"/>
<path d="M356.799 292.548L354.275 291.859L350.374 291.17H348.309C348.309 291.17 346.703 291.63 346.474 292.089C345.785 293.467 347.621 296.681 347.621 296.681L359.323 299.667C359.323 299.667 362.076 298.748 363.683 298.059C363.683 298.059 363.912 293.467 363.224 292.778L356.799 292.548Z" fill="#002B6A"/>
<path d="M342.343 297.141L340.737 296.222L337.295 295.304L333.853 295.993L332.476 297.83L333.165 300.585L344.179 305.637C344.179 305.637 347.161 305.178 348.768 304.489C348.768 304.489 348.997 298.519 348.309 297.6L342.343 297.141Z" fill="#002B6A"/>
<path d="M361.848 245.933C362.077 239.274 360.242 232.615 360.242 232.615L352.899 231.007C352.899 230.319 341.197 236.289 341.197 236.289L338.673 299.437C344.639 301.733 349.457 299.437 349.457 299.437L351.981 252.593L353.358 296.222C360.242 297.6 363.913 294.156 363.913 294.156L361.848 245.933Z" fill="#002B6A"/>
<path d="M329.952 191.97C329.952 191.97 328.116 190.363 327.199 189.904C325.593 188.756 324.675 186.919 324.675 186C324.675 185.081 326.281 183.244 326.281 183.244L328.805 185.77C329.493 185.541 331.099 186.23 331.099 186.23L333.853 190.133L329.952 191.97Z" fill="#F9A873"/>
<path d="M359.553 197.252C359.553 197.252 344.409 199.778 333.625 188.526C333.625 188.526 330.183 188.526 329.495 191.97C329.495 191.97 341.885 208.044 360.012 204.6C359.783 204.6 365.29 199.319 359.553 197.252Z" fill="#1D99B3"/>
<path opacity="0.51" d="M327.888 201.844L305.86 213.326V169.696L327.888 158.215V201.844Z" fill="white"/>
<path d="M308.155 195.874L305.172 193.578L302.419 189.444L303.566 187.378L304.025 186.459L306.09 189.215L307.237 189.674L306.778 188.296L307.926 187.837C307.926 187.837 309.073 188.756 309.302 189.444C309.532 190.133 312.285 193.578 312.285 193.578L308.155 195.874Z" fill="#F9A873"/>
<path d="M354.504 177.963C352.439 177.733 349.456 177.504 347.391 178.193C343.949 179.111 341.884 181.178 341.196 184.393C340.278 187.607 340.048 192.889 342.113 195.874C343.261 197.711 344.179 197.482 346.014 197.022C348.309 196.333 346.702 194.726 348.538 193.348C351.292 191.511 359.322 187.837 359.322 184.852C359.322 182.326 357.946 178.422 354.504 177.963Z" fill="#F9A873"/>
<path d="M355.88 193.119C355.651 193.348 355.192 193.578 354.962 193.807C353.127 195.185 349.914 192.659 347.62 193.348C347.161 193.348 346.932 196.563 346.473 196.793L346.932 198.4C349.456 199.089 351.75 198.859 353.356 198.4C354.733 198.17 355.88 197.481 355.88 196.333V193.119Z" fill="#F9A873"/>
<path d="M345.785 189.215C345.785 189.215 344.867 193.119 343.49 194.037C341.884 194.726 341.196 194.267 341.196 194.267C341.196 194.267 340.967 195.415 341.196 196.104C341.425 196.793 342.573 198.4 343.261 198.4C343.949 198.4 346.473 197.481 346.473 196.104C346.473 194.726 346.703 189.904 346.703 189.904L346.473 189.444L345.785 189.215Z" fill="#002B6A"/>
<path d="M340.508 179.341C340.508 179.341 342.343 179.111 346.473 177.504C348.539 176.585 354.504 176.815 356.34 178.652C358.405 180.03 359.323 183.015 359.323 185.081C359.323 186.919 358.634 189.215 357.717 191.052C355.652 196.104 351.751 195.874 351.751 195.874C351.292 195.644 348.309 193.578 348.309 193.578C349.456 192.889 350.374 189.444 348.997 188.985C347.85 188.296 346.932 190.593 346.932 190.593C346.473 190.363 345.326 189.444 345.326 189.444L346.244 187.837L345.785 185.541C343.72 185.541 341.884 184.393 341.196 184.163C341.196 183.704 339.36 183.474 340.508 179.341Z" fill="#002B6A"/>
<path d="M340.279 238.356C340.279 233.074 339.591 223.889 339.591 218.607C339.591 214.244 338.903 209.881 339.132 205.519C339.132 204.6 339.132 203.682 339.132 202.763L346.704 198.4L355.882 196.333L359.324 197.252C360.701 197.252 361.848 198.4 362.307 199.778C362.766 202.304 363.224 206.437 362.536 209.881C362.077 212.178 361.618 216.311 361.159 220.444C361.159 220.904 360.93 232.844 361.159 236.289C361.159 236.289 361.159 236.978 360.471 237.667C354.505 243.178 341.656 241.57 341.656 241.57C340.05 240.881 340.279 239.504 340.279 238.356Z" fill="#6ABFCE"/>
<path d="M340.736 201.844C340.736 201.844 323.986 204.6 312.055 192.2C312.055 192.2 308.384 192.2 307.466 196.104C307.466 196.104 321.692 213.556 341.195 211.03C341.195 211.03 346.931 204.141 340.736 201.844Z" fill="#6ABFCE"/>
<path d="M355.881 194.496L356.799 196.333C356.799 196.333 352.898 201.385 346.015 198.63L346.932 197.481C346.703 197.481 353.128 198.4 355.881 194.496Z" fill="#ECF5FF"/>
<path d="M41.9902 243.178V183.933C41.9902 182.785 42.908 181.637 43.8258 181.178L116.562 144.896C117.021 144.667 117.48 144.667 117.939 144.667L114.726 143.059C114.268 142.83 113.809 142.83 113.35 143.059L40.6135 179.341C39.4662 179.8 38.7778 181.178 38.7778 182.096V241.341C38.7778 241.8 39.0073 242.259 39.2367 242.259L42.4491 243.867C42.2196 243.867 41.9902 243.637 41.9902 243.178Z" fill="#168CA8"/>
<path d="M118.398 145.815C118.398 145.356 118.169 144.896 117.939 144.896C117.48 144.667 117.021 144.667 116.563 144.896L43.8263 180.948C42.679 181.407 41.9907 182.785 41.9907 183.704V242.948C41.9907 243.407 42.2201 243.867 42.4496 244.096C42.679 244.326 43.1379 244.096 43.8263 243.867L116.563 207.585C117.71 207.126 118.398 205.748 118.398 204.83V145.815Z" fill="#33B3C4"/>
<path d="M45.203 235.141V194.726C45.203 193.807 45.8913 192.659 46.8092 192.2L120.004 155.689C120.463 155.459 120.922 155.459 121.152 155.689L117.939 154.081C117.71 153.852 117.251 153.852 116.792 154.081L43.5968 190.593C42.679 191.052 41.9907 192.2 41.9907 193.119V233.533C41.9907 233.993 42.2201 234.222 42.4496 234.452L45.6619 236.059C45.4324 235.83 45.203 235.6 45.203 235.141Z" fill="#9FEDEB"/>
<path d="M121.84 156.607C121.84 156.148 121.61 155.919 121.381 155.689C121.152 155.459 120.693 155.459 120.234 155.689L47.0385 192.2C46.1207 192.659 45.4324 193.807 45.4324 194.726V235.141C45.4324 235.6 45.6618 235.83 45.8913 236.059C46.1207 236.289 46.5796 236.289 47.0385 236.059L120.234 199.548C121.152 199.089 121.84 197.941 121.84 197.022V156.607Z" fill="#E1FEFF"/>
<path d="M81.2275 200.237L73.8851 203.911V196.563L81.2275 192.889V200.237Z" fill="#9FEDEB"/>
<path d="M92.7004 194.726L85.1285 198.4V191.052L92.7004 187.378V194.726Z" fill="#9FEDEB"/>
<path d="M58.5112 222.97L51.1688 226.644V219.296L58.5112 215.622V222.97Z" fill="#9FEDEB"/>
<path d="M69.9838 217.23L62.6414 220.904V213.556L69.9838 209.881V217.23Z" fill="#9FEDEB"/>
<path d="M81.2275 211.719L73.8851 215.393V207.815L81.2275 204.141V211.719Z" fill="#9FEDEB"/>
<path d="M69.9838 194.726L62.6414 198.4V191.052L69.9838 187.378V194.726Z" fill="#9FEDEB"/>
<path d="M81.2275 188.985L73.8851 192.659V185.311L81.2275 181.637V188.985Z" fill="#9FEDEB"/>
<path d="M92.7004 183.474L85.1285 187.148V179.57L92.7004 175.896V183.474Z" fill="#9FEDEB"/>
<path d="M58.5112 211.719L51.1688 215.393V207.815L58.5112 204.141V211.719Z" fill="#9FEDEB"/>
<path d="M69.9838 205.978L62.6414 209.652V202.304L69.9838 198.63V205.978Z" fill="#9FEDEB"/>
<path d="M58.5112 200.237L51.1688 203.911V196.563L58.5112 192.889V200.237Z" fill="#9FEDEB"/>
<path d="M103.944 177.733L96.6011 181.407V174.059L103.944 170.385V177.733Z" fill="#F15C24"/>
<path d="M103.944 188.985L96.6011 192.659V185.311L103.944 181.637V188.985Z" fill="#F15C24"/>
<path d="M115.417 183.474L107.845 187.148V179.57L115.417 175.896V183.474Z" fill="#F15C24"/>
<path d="M115.417 171.993L107.845 175.667V168.319L115.417 164.644V171.993Z" fill="#F15C24"/>
<path d="M61.2632 178.193C61.2632 180.489 59.4276 183.244 57.1331 184.393C54.8385 185.541 53.0029 184.622 53.0029 182.326C53.0029 180.03 54.8385 177.274 57.1331 176.126C59.4276 175.207 61.2632 176.126 61.2632 178.193Z" fill="#168CA8"/>
<path d="M83.9795 167.17C83.9795 169.467 82.1439 172.222 79.8494 173.37C77.5549 174.519 75.7192 173.6 75.7192 171.304C75.7192 169.007 77.5549 166.252 79.8494 165.104C82.1439 163.956 83.9795 164.874 83.9795 167.17Z" fill="#168CA8"/>
<path d="M106.925 155.919C106.925 158.215 105.089 160.97 102.795 162.119C100.5 163.267 98.6644 162.348 98.6644 160.052C98.6644 157.756 100.5 155 102.795 153.852C105.089 152.704 106.925 153.622 106.925 155.919Z" fill="#168CA8"/>
<path d="M60.8039 179.57C61.4923 179.341 61.9512 179.341 62.4101 179.341L59.1978 177.733C58.7389 177.504 58.28 177.504 57.5916 177.733C56.4444 178.422 55.5266 179.8 55.5266 180.948V184.622L58.7389 186.23V182.556C58.5094 181.637 59.6567 180.259 60.8039 179.57Z" fill="#55ACB7"/>
<path d="M62.8695 180.719C62.8695 180.03 62.6401 179.8 62.1812 179.57C61.7223 179.341 61.2633 179.341 60.8044 179.8C59.6572 180.489 58.7394 181.867 58.7394 183.015V187.148V188.296C58.7394 189.444 59.6572 189.904 60.8044 189.444C61.9517 188.756 62.8695 187.378 62.8695 186.23V180.719Z" fill="#69C2CC"/>
<path d="M83.5205 168.319C84.2089 168.089 84.6678 168.089 85.1267 168.089L81.9144 166.481C81.4555 166.252 80.9965 166.252 80.3082 166.481C78.9315 167.4 78.0137 168.778 78.0137 169.926V173.6L81.226 175.207V171.533C81.226 170.385 82.1438 169.007 83.5205 168.319Z" fill="#55ACB7"/>
<path d="M85.5855 169.467C85.5855 169.007 85.3561 168.548 84.8972 168.319C84.4383 168.089 83.9794 168.089 83.5205 168.548C82.3732 169.237 81.4554 170.615 81.4554 171.763V175.896V177.274C81.4554 178.422 82.3732 178.881 83.5205 178.422C84.6677 177.733 85.5855 176.356 85.5855 175.207V169.467Z" fill="#69C2CC"/>
<path d="M106.007 157.067C106.696 156.837 107.155 156.837 107.614 156.837L104.401 155.23C103.942 155 103.483 155 102.795 155.459C101.648 156.148 100.73 157.526 100.73 158.674V162.348L103.942 163.956V160.281C103.942 159.133 104.86 157.756 106.007 157.067Z" fill="#55ACB7"/>
<path d="M108.302 158.215C108.302 157.756 108.073 157.296 107.614 157.067C107.155 156.837 106.696 156.837 106.008 157.296C104.861 157.985 103.943 159.363 103.943 160.511V166.022C103.943 167.17 104.861 167.63 106.008 167.17C107.155 166.481 108.073 165.104 108.073 163.956V158.215H108.302Z" fill="#69C2CC"/>
</svg>
