<svg width="328" height="313" viewBox="0 0 328 313" fill="none" xmlns="http://www.w3.org/2000/svg">
<path d="M56.8889 224.65L158.667 275.484C163.333 277.704 170.889 277.704 175.556 275.484L252.222 237.303C254.667 236.193 255.778 234.639 255.778 233.085V239.079C255.778 240.633 254.667 242.187 252.222 243.296L175.556 281.478C170.889 283.698 163.111 283.698 158.667 281.478L56.8889 230.643C54.6667 229.533 53.3334 227.979 53.3334 226.426V220.432C53.5556 221.986 54.6667 223.54 56.8889 224.65Z" fill="#F15C24"/>
<path d="M172.222 276.816C173.556 276.594 174.667 276.15 175.778 275.706L252.445 237.525C254.889 236.415 256 234.861 256 233.307V239.301C256 240.855 254.889 242.409 252.445 243.518L175.778 281.7C174.667 282.144 173.556 282.588 172.222 282.81V276.816Z" fill="#D84021"/>
<path d="M57.1112 216.214C52.4445 218.434 52.4445 222.43 57.1112 224.65L158.889 275.484C163.556 277.704 171.111 277.704 175.778 275.484L252.445 237.303C257.111 235.083 257.111 231.087 252.445 228.867L150.667 178.033C146 175.813 138.445 175.813 133.778 178.033L57.1112 216.214Z" fill="#FF815A"/>
<path d="M86.2223 202.451C86.0001 202.229 86.0001 202.007 86.0001 201.785V196.014C86.0001 196.679 86.4446 197.345 87.3334 197.789C88.4446 198.455 89.3334 198.899 90.0001 199.121V204.893C89.7779 204.671 89.3334 204.671 88.889 204.449V209.777L86.2223 208.445C85.7779 208.223 85.5557 207.779 85.5557 207.557V201.785C85.5557 202.007 85.7779 202.229 86.2223 202.451Z" fill="#ED9718"/>
<path d="M91.7778 205.337C92.6667 205.781 94.4445 205.781 95.3334 205.337L117.556 194.238C118.445 193.794 118.445 192.906 117.556 192.462L114.889 191.13L141.778 177.811L246.889 230.421L189.556 258.835L167.778 247.958L145.778 258.835L62.2223 217.324L89.1112 204.005L91.7778 205.337Z" fill="#FDFDFD"/>
<path d="M90.0001 201.341C89.3334 201.119 88.4446 200.453 87.3334 200.009C85.3334 198.899 85.5557 197.345 87.7779 196.235L93.3334 192.24C95.5557 191.13 100.222 191.796 102.222 192.684C103.333 193.35 104.222 193.794 104.889 194.016L108.445 192.24C109.333 191.796 111.111 191.796 112 192.24L114.667 193.572L118 193.794V196.014C118 196.014 117.778 196.457 117.333 196.679L95.1112 207.779C94.2223 208.223 92.4446 208.223 91.5557 207.779L88.889 206.447L86.2223 205.115C85.3334 204.671 85.3334 203.783 86.2223 203.339L90.0001 201.341ZM96.889 197.345C98.0001 196.679 98.0001 195.792 96.889 195.126C95.7779 194.46 93.7779 194.46 92.4446 195.126C91.3334 195.792 91.3334 196.679 92.4446 197.345C93.7779 197.789 95.7779 197.789 96.889 197.345Z" fill="#ED9718"/>
<path d="M90.0001 199.121C89.3334 198.899 88.4446 198.233 87.3334 197.789C85.3334 196.679 85.5557 195.126 87.7779 194.016L94.6668 190.686C96.889 189.576 100.222 189.576 102.222 190.464C103.333 191.13 104.222 191.574 104.889 191.796L108.445 190.02C109.333 189.576 111.111 189.576 112 190.02L114.667 191.352L117.333 192.684C118.222 193.128 118.222 194.016 117.333 194.46L95.1112 205.559C94.2223 206.003 92.4446 206.003 91.5557 205.559L88.889 204.227L86.2223 202.895C85.3334 202.451 85.3334 201.563 86.2223 201.119L90.0001 199.121ZM96.889 195.126C98.0001 194.46 98.0001 193.572 96.889 192.906C95.7779 192.24 93.7779 192.24 92.4446 192.906C91.3334 193.572 91.3334 194.46 92.4446 195.126C93.7779 195.792 95.7779 195.792 96.889 195.126Z" fill="#FFBF00"/>
<path d="M87.1102 224.872L93.3324 227.979L162.666 193.572L156.221 190.464L87.1102 224.872Z" fill="#BFF7F3"/>
<path d="M111.998 237.303L118.443 240.411L187.554 206.003L181.332 202.895L111.998 237.303Z" fill="#BFF7F3"/>
<path d="M125.332 243.74L131.554 247.07L200.665 212.662L194.443 209.555L125.332 243.74Z" fill="#BFF7F3"/>
<path d="M137.778 250.178L144 253.286L213.111 218.878L206.889 215.77L137.778 250.178Z" fill="#BFF7F3"/>
<path d="M99.5542 231.087L105.776 234.195L175.11 199.787L168.888 196.679L99.5542 231.087Z" fill="#BFF7F3"/>
<path d="M189.112 236.193L182.889 248.624C182.889 248.624 149.556 243.296 148.667 244.184V248.624C148.667 248.624 187.334 254.396 187.334 253.286C187.334 252.176 189.112 240.633 189.112 240.633V236.193Z" fill="#028E51"/>
<path d="M183.556 236.193L182.889 244.184C182.889 244.184 154.667 239.301 153.778 240.189C152.889 241.077 148.667 244.184 148.667 244.184C148.667 244.184 187.334 249.956 187.334 248.846C187.334 247.736 189.112 236.193 189.112 236.193H183.556Z" fill="#2ECE6F"/>
<path d="M145.556 259.057H189.111L167.333 248.18L145.556 259.057Z" fill="#BFF7F3"/>
<path d="M145.556 259.057H189.111L246.445 230.421V236.193L189.111 264.829H145.556L62.2223 223.096V217.324L145.556 259.057Z" fill="#9FEDEB"/>
<path d="M157.333 195.348V200.009L154.444 195.569V191.13L157.333 195.348Z" fill="#028E51"/>
<path d="M163.333 192.462L157.333 195.348L154.444 191.13L163.333 192.462Z" fill="#2ECE6F"/>
<path d="M163.334 192.462L178.223 199.787L172.223 202.895L157.334 195.348L163.334 192.462Z" fill="#FFBF00"/>
<path d="M172.223 202.895V207.335L157.334 200.009V195.348L172.223 202.895Z" fill="#ED9718"/>
<path d="M212.443 215.992V220.654L211.555 220.876V216.436L212.443 215.992Z" fill="#731F00"/>
<path d="M179.556 199.787L172 203.561L172.223 202.895L178.223 199.787H179.556Z" fill="#E04419"/>
<path d="M199.334 216.88V221.542L172 208.001V203.561L199.334 216.88Z" fill="#E04419"/>
<path d="M172 203.561L179.556 199.787L206.667 213.328L199.334 216.88L172 203.561Z" fill="#FF815A"/>
<path d="M205.779 219.322V223.984L204.89 224.428V219.766L205.779 219.322Z" fill="#731F00"/>
<path d="M204.889 219.766V224.428L201.111 222.43V217.99L204.889 219.766Z" fill="#E04419"/>
<path d="M208.667 214.216L212.444 215.992L211.556 216.436L205.778 219.322L204.889 219.766L201.111 217.99L208.667 214.216Z" fill="#FF815A"/>
<path d="M208.666 214.216L201.111 217.99L199.555 218.878H199.333C198.888 219.1 198 219.1 197.555 218.878L195.999 217.99L187.999 213.994L187.111 213.55C186.666 213.328 186 213.328 185.333 213.106C184.666 213.106 184.222 213.106 183.777 212.884C183.555 212.884 183.555 212.662 183.555 212.44C183.333 211.552 186 211.552 187.555 211.996C188.666 212.218 189.555 212.662 189.555 212.662L190 212.884L198 216.88L198.666 217.102L199.333 216.658L206.888 212.884L208.666 214.216Z" fill="#18617C"/>
<path d="M199.555 218.656C199.332 218.878 199.11 218.878 199.11 218.878C199.11 218.878 199.11 218.878 198.888 218.878H198.666H198.443H198.221H197.999C197.777 218.878 197.777 218.878 197.777 218.878L196.221 217.99L188.221 213.994L187.332 213.55H187.11C186.888 213.55 186.666 213.55 186.443 213.328C186.443 213.328 186.443 213.328 186.221 213.328C185.999 213.328 185.777 213.328 185.555 213.328C185.332 213.328 185.11 213.328 184.888 213.328C184.888 213.328 184.888 213.328 184.666 213.328C184.443 213.328 184.221 213.328 184.221 213.328H183.999C183.777 213.328 183.777 213.106 183.777 212.884V217.324C183.777 217.546 183.999 217.546 183.999 217.768C183.999 217.768 183.999 217.768 184.221 217.768C184.443 217.768 184.666 217.768 184.666 217.768C184.888 217.768 185.11 217.768 185.332 217.768C185.555 217.768 185.777 217.768 185.999 217.768C185.999 217.768 185.999 217.768 186.221 217.768C186.443 217.768 186.666 217.768 186.888 217.99C186.888 217.99 187.11 217.99 187.11 218.212L187.999 218.656L195.999 222.652L197.555 223.54H197.777C197.777 223.54 197.777 223.54 197.999 223.54C197.999 223.54 197.999 223.54 198.221 223.54H198.443H198.666H198.888C198.888 223.54 198.888 223.54 199.11 223.54C199.332 223.54 199.332 223.54 199.555 223.318H199.777L201.332 222.43V217.99L199.555 218.656Z" fill="#1C4F66"/>
<path d="M213.11 217.324V221.764L207.332 224.65V220.21L213.11 217.324Z" fill="#184A5B"/>
<path d="M207.333 220.21V224.65L205.777 223.984V219.322L207.333 220.21Z" fill="#1C4F66"/>
<path d="M213.111 217.324L207.333 220.21L205.777 219.322L211.555 216.436L213.111 217.324Z" fill="#18617C"/>
<path opacity="0.44" d="M296.888 223.984L108.221 129.64V22.8645L296.888 117.209V223.984Z" fill="white"/>
<path d="M158.222 71.2575V71.9234L151.333 68.3716V67.9277L158.222 71.2575Z" fill="#9FEDEB"/>
<path d="M158.222 76.1411V76.5851L151.333 73.2553V72.8114L158.222 76.1411Z" fill="#9FEDEB"/>
<path d="M165.777 73.4773V74.1433L151.333 66.8177V66.3738L165.777 73.4773Z" fill="#9FEDEB"/>
<path d="M166 78.361V78.805L151.333 71.7014V71.0355L166 78.361Z" fill="#9FEDEB"/>
<path d="M167.11 74.1433L179.11 80.1369V80.8028L167.11 74.8092V74.1433Z" fill="#9FEDEB"/>
<path d="M159.332 72.3674V71.9234L179.11 81.9128L179.332 82.3567L159.332 72.3674Z" fill="#9FEDEB"/>
<path d="M151.333 76.5851V75.9192L171.777 86.1305V86.5745L151.333 76.5851Z" fill="#9FEDEB"/>
<path d="M151.333 70.1475V69.7036L179.333 83.6887V84.1326L151.333 70.1475Z" fill="#9FEDEB"/>
<path d="M167.11 79.027L179.332 85.0206V85.4645L167.11 79.4709V79.027Z" fill="#9FEDEB"/>
<path d="M159.332 77.2511V76.8071L179.332 86.7965V87.2404L159.332 77.2511Z" fill="#9FEDEB"/>
<path d="M151.333 75.0312V74.5872L179.333 88.3504V89.0163L151.333 75.0312Z" fill="#9FEDEB"/>
<path d="M173.333 87.4624V87.0184L179.333 89.9043V90.3482L173.333 87.4624Z" fill="#9FEDEB"/>
<path d="M165.333 99.4496V99.8936L151.111 92.7901V92.3461L165.333 99.4496Z" fill="#9FEDEB"/>
<path d="M151.333 99.8936V99.4497L165.555 106.553V106.775L151.333 99.8936Z" fill="#9FEDEB"/>
<path d="M165.556 103.001V103.445L151.111 96.3418V95.8979L165.556 103.001Z" fill="#9FEDEB"/>
<path d="M173.778 102.557V103.001L151.111 91.6801V91.2362L173.778 102.557Z" fill="#9FEDEB"/>
<path d="M151.112 115.211V115.433L136.445 108.329V107.885L151.112 115.211Z" fill="#9FEDEB"/>
<path d="M143.333 120.76V121.204L130.222 114.767V114.323L143.333 120.76Z" fill="#9FEDEB"/>
<path d="M173.778 106.109V106.331L151.111 95.0099V94.7879L173.778 106.109Z" fill="#9FEDEB"/>
<path d="M151.111 119.206V119.65L130.222 109.217V108.773L151.111 119.206Z" fill="#9FEDEB"/>
<path d="M180.222 112.769V112.991L151.333 98.5617V98.3397L180.222 112.769Z" fill="#9FEDEB"/>
<path d="M157.111 126.31V126.754L130.222 113.435V112.991L157.111 126.31Z" fill="#9FEDEB"/>
<path d="M143.555 134.967V135.411L130.444 128.752V128.53L143.555 134.967Z" fill="#9FEDEB"/>
<path d="M157.111 130.306V130.75L130.222 117.43V116.987L157.111 130.306Z" fill="#9FEDEB"/>
<path d="M170.666 124.978V125.422L152.444 116.099V115.655L170.666 124.978Z" fill="#9FEDEB"/>
<path d="M175.11 103.223L195.11 113.213V113.435L175.11 103.667V103.223Z" fill="#9FEDEB"/>
<path d="M170.667 126.31V126.754L144.444 113.657V113.213L170.667 126.31Z" fill="#9FEDEB"/>
<path d="M166.667 100.56V100.116L195.111 114.323V114.767L166.667 100.56Z" fill="#9FEDEB"/>
<path d="M170.888 127.864V128.308L130.222 108.107V107.663L170.888 127.864Z" fill="#9FEDEB"/>
<path d="M151.111 94.122V93.678L195.111 115.655V115.877L151.111 94.122Z" fill="#9FEDEB"/>
<path d="M160.666 133.857V134.301L130.222 119.206V118.762L160.666 133.857Z" fill="#9FEDEB"/>
<path d="M170.889 128.974V129.418L152.444 120.316V119.872L170.889 128.974Z" fill="#9FEDEB"/>
<path d="M175.334 106.997V106.775L195.112 116.765V116.987L175.334 106.997Z" fill="#9FEDEB"/>
<path d="M166.667 104.111V103.667L195.111 117.874V118.096L166.667 104.111Z" fill="#9FEDEB"/>
<path d="M143.333 112.547V112.991L130.222 106.553V106.109L143.333 112.547Z" fill="#9FEDEB"/>
<path d="M151.333 97.6738V97.2298L195.111 119.206V119.428L151.333 97.6738Z" fill="#9FEDEB"/>
<path d="M170.888 131.86V132.304L130.222 112.103V111.659L170.888 131.86Z" fill="#9FEDEB"/>
<path d="M181.776 113.879V113.435L195.11 120.094L195.332 120.538L181.776 113.879Z" fill="#9FEDEB"/>
<path d="M170.888 133.191V133.635L158.443 127.42V126.976L170.888 133.191Z" fill="#9FEDEB"/>
<path d="M157.11 140.295V140.739L130.444 127.42V126.976L157.11 140.295Z" fill="#9FEDEB"/>
<path d="M166.888 107.663V107.219L195.333 121.426V121.648L166.888 107.663Z" fill="#9FEDEB"/>
<path d="M170.888 134.523V134.967L144.666 121.87V121.426L170.888 134.523Z" fill="#9FEDEB"/>
<path d="M170.888 136.077V136.521L130.222 116.321V115.877L170.888 136.077Z" fill="#9FEDEB"/>
<path d="M170.888 137.187V137.631L158.443 131.638V131.194L170.888 137.187Z" fill="#9FEDEB"/>
<path d="M157.333 144.513V144.957L130.444 131.638V131.194L157.333 144.513Z" fill="#9FEDEB"/>
<path d="M170.888 130.528V130.75L130.222 110.549V110.327L170.888 130.528Z" fill="#9FEDEB"/>
<path d="M170.889 138.963V139.407L162 134.967V134.523L170.889 138.963Z" fill="#9FEDEB"/>
<path d="M130.222 120.094L170.888 140.517V140.739L130.444 120.538L130.222 120.094Z" fill="#9FEDEB"/>
<path d="M170.888 141.849V142.293L130.444 122.092V121.648L170.888 141.849Z" fill="#9FEDEB"/>
<path d="M130.444 122.98L170.888 143.181V143.625L130.444 123.424V122.98Z" fill="#9FEDEB"/>
<path d="M130.444 124.312L170.888 144.513V144.957L130.444 124.756V124.312Z" fill="#9FEDEB"/>
<path d="M170.888 146.067V146.511L130.444 126.31V125.866L170.888 146.067Z" fill="#9FEDEB"/>
<path d="M170.889 147.177V147.621L158.667 141.627V141.183L170.889 147.177Z" fill="#9FEDEB"/>
<path d="M167.778 149.84V150.284L158.667 145.623V145.179L167.778 149.84Z" fill="#9FEDEB"/>
<path d="M171.11 148.731V149.174L144.888 136.077V135.633L171.11 148.731Z" fill="#9FEDEB"/>
<path d="M171.11 150.062V150.506L130.444 130.306V129.862L171.11 150.062Z" fill="#9FEDEB"/>
<path d="M213.555 136.299V136.521L209.332 134.523V134.301L213.555 136.299Z" fill="#9FEDEB"/>
<path d="M218.221 137.631V137.853L209.332 133.635V133.192L218.221 137.631Z" fill="#9FEDEB"/>
<path d="M213.555 139.185V139.407L209.332 137.409V136.965L213.555 139.185Z" fill="#9FEDEB"/>
<path d="M218.221 140.517V140.739L209.332 136.299V136.077L218.221 140.517Z" fill="#9FEDEB"/>
<path d="M218.889 138.075L226.222 141.627V142.071L218.889 138.297V138.075Z" fill="#9FEDEB"/>
<path d="M214.22 136.965V136.743L226.22 142.737V142.959L214.22 136.965Z" fill="#9FEDEB"/>
<path d="M209.332 139.185V138.963L221.777 145.179V145.401L209.332 139.185Z" fill="#9FEDEB"/>
<path d="M209.332 135.633V135.189L226.221 143.625V144.069L209.332 135.633Z" fill="#9FEDEB"/>
<path d="M218.889 140.961L226.222 144.513V144.735L218.889 141.183V140.961Z" fill="#9FEDEB"/>
<path d="M214.22 139.851V139.407L226.22 145.401V145.845L214.22 139.851Z" fill="#9FEDEB"/>
<path d="M209.332 138.519V138.075L226.221 146.511V146.733L209.332 138.519Z" fill="#9FEDEB"/>
<path d="M222.666 145.845V145.623L226.221 147.399V147.621L222.666 145.845Z" fill="#9FEDEB"/>
<path d="M240.667 108.773V109.217L232 104.777V104.333L240.667 108.773Z" fill="#9FEDEB"/>
<path d="M236.223 112.103V112.547L232 110.549V110.105L236.223 112.103Z" fill="#9FEDEB"/>
<path d="M240.889 112.991V113.435L232 108.995V108.551L240.889 112.991Z" fill="#9FEDEB"/>
<path d="M241.557 109.217L248.89 112.769V113.213L241.557 109.661V109.217Z" fill="#9FEDEB"/>
<path d="M236.888 108.773V108.329L248.888 114.323V114.767L236.888 108.773Z" fill="#9FEDEB"/>
<path d="M232 107.885V107.441L248.889 115.877V116.321L232 107.885Z" fill="#9FEDEB"/>
<path d="M232 113.435V112.991L244.445 119.206V119.65L232 113.435Z" fill="#9FEDEB"/>
<path d="M241.557 113.435L248.89 116.987V117.431L241.557 113.879V113.435Z" fill="#9FEDEB"/>
<path d="M236.888 112.991V112.547L248.888 118.54V118.984L236.888 112.991Z" fill="#9FEDEB"/>
<path d="M232 112.103V111.659L248.889 120.094V120.538L232 112.103Z" fill="#9FEDEB"/>
<path d="M245.334 120.094V119.65L248.889 121.426V121.87L245.334 120.094Z" fill="#9FEDEB"/>
<path d="M235.334 176.257V176.479L224.223 170.929V170.707L235.334 176.257Z" fill="#9FEDEB"/>
<path d="M236.223 173.149L245.334 177.589V178.033L236.223 173.371V173.149Z" fill="#9FEDEB"/>
<path d="M230.222 171.817V171.373L245.333 178.921V179.143L230.222 171.817Z" fill="#9FEDEB"/>
<path d="M224.223 174.703V174.259L239.778 182.028V182.472L224.223 174.703Z" fill="#9FEDEB"/>
<path d="M224.223 170.041V169.597L245.334 180.252V180.474L224.223 170.041Z" fill="#9FEDEB"/>
<path d="M236.223 176.701L245.334 181.14V181.584L236.223 177.145V176.701Z" fill="#9FEDEB"/>
<path d="M230.222 175.369V174.925L245.333 182.472V182.916L230.222 175.369Z" fill="#9FEDEB"/>
<path d="M240.889 182.916V182.472L245.334 184.914V185.136L240.889 182.916Z" fill="#9FEDEB"/>
<path d="M224.223 173.593V173.149L245.334 183.804V184.026L224.223 173.593Z" fill="#9FEDEB"/>
<path d="M229.334 174.481V174.925L224.223 172.261V171.817L229.334 174.481Z" fill="#9FEDEB"/>
<path d="M229.334 170.929V171.151L224.223 168.709V168.265L229.334 170.929Z" fill="#9FEDEB"/>
<path d="M235.112 172.705V172.927L224.223 167.377V167.155L235.112 172.705Z" fill="#9FEDEB"/>
<path d="M156.444 82.3567C156.444 82.5787 156.444 82.5787 156.444 82.8007C156.444 83.0227 156.444 83.2447 156.444 83.2447L142.666 76.3631V75.2532L156.444 82.3567Z" fill="#9FEDEB"/>
<path d="M183.11 91.2362C183.777 91.6801 184.443 92.5681 184.443 93.2341C184.443 93.678 184.221 94.122 183.777 94.122V97.0078L165.999 88.1284V87.9064C165.999 87.6844 165.999 87.4624 165.999 87.4624L182.888 95.8979V93.9C182.443 93.456 181.999 92.7901 181.999 92.3461C181.777 91.0142 182.221 90.7922 183.11 91.2362Z" fill="#9FEDEB"/>
<path d="M142.444 62.378L142.666 75.6972V76.8071L142.888 93.9V94.566L141.777 94.122V93.456L141.333 63.044L138 61.2681C138 61.0461 138 60.3802 138 60.1582L142.444 62.378Z" fill="#9FEDEB"/>
<path d="M191.777 85.2426C192.443 85.6865 193.11 86.5745 193.11 87.2404C193.11 87.9064 192.443 88.3504 191.777 87.9064C191.332 87.6844 190.888 87.0184 190.666 86.5745L188.221 85.2426L188.443 98.3397L217.999 112.991V118.318C218.443 118.762 218.888 119.428 218.888 119.872C218.888 120.538 218.221 120.982 217.555 120.538C216.888 120.094 216.221 119.206 216.221 118.54C216.221 118.096 216.443 117.652 216.888 117.652V113.435L187.332 98.7837L187.11 83.6887L190.666 85.4645C190.888 85.0206 191.332 85.0206 191.777 85.2426Z" fill="#9FEDEB"/>
<path d="M188.887 119.872C189.554 120.316 190.22 121.204 190.22 121.87C190.22 122.314 189.998 122.758 189.554 122.758V125.644L176.442 119.206V127.42C176.22 127.42 176.22 127.198 175.998 127.198C175.776 127.198 175.554 126.976 175.554 126.976V118.762L162.665 112.325V109.439C162.442 109.217 162.22 108.773 161.998 108.329C161.998 108.107 161.998 107.885 161.998 107.885C161.998 107.663 161.998 107.441 161.998 107.441C162.22 106.997 162.665 106.997 163.109 107.219C163.776 107.663 164.442 108.551 164.442 109.217C164.442 109.661 164.22 110.105 163.776 110.105V112.103L188.665 124.534V122.536C188.22 122.092 187.776 121.426 187.776 120.982C187.554 119.872 188.22 119.65 188.887 119.872Z" fill="#9FEDEB"/>
<path d="M190.22 138.297L190.442 148.287L189.331 147.843L189.109 138.741L180.664 134.523L179.998 134.079V133.191L180.664 133.413L190.22 138.297Z" fill="#9FEDEB"/>
<path d="M161.777 107.219C161.777 107.441 161.777 107.441 161.777 107.663C161.777 107.885 161.777 108.107 161.777 108.107L147.11 100.782C147.11 100.56 147.11 100.56 147.11 100.338C147.11 100.116 147.11 99.8936 147.11 99.8936L161.777 107.219Z" fill="#9FEDEB"/>
<path d="M165.776 87.0185C165.776 87.2404 165.776 87.4624 165.776 87.4624V87.6844C165.554 89.9043 163.554 90.7922 161.109 89.6823C158.665 88.5724 156.665 85.6865 156.443 83.2447C156.443 83.0227 156.443 82.8007 156.443 82.8007C156.443 82.5787 156.443 82.3567 156.443 82.3567C156.665 80.1369 158.665 79.249 161.109 80.3589C163.332 81.6908 165.331 84.3546 165.776 87.0185ZM161.109 88.7943C163.109 89.9043 164.665 89.0163 164.665 87.0185C164.665 85.0206 162.887 82.5787 160.887 81.4688C158.887 80.5809 157.332 81.2468 157.332 83.2447C157.554 85.4646 159.109 87.9064 161.109 88.7943Z" fill="#9FEDEB"/>
<path d="M147.111 99.8936C147.111 100.116 147.111 100.338 147.111 100.338C147.111 100.56 147.111 100.782 147.111 100.782C146.888 103.001 144.888 103.889 142.666 102.557C140.222 101.226 138 98.1177 138 95.6759C138 93.234 139.777 92.1241 142 93.0121V93.678L143.111 94.122V93.456C145.111 95.0099 146.888 97.6738 147.111 99.8936ZM142.444 101.891C144.444 103.001 146.222 102.113 146.222 99.8936C146.222 97.8957 144.444 95.2319 142.444 94.344C140.444 93.234 138.666 94.122 138.666 96.3418C138.888 98.3397 140.444 100.782 142.444 101.891Z" fill="#9FEDEB"/>
<path d="M179.999 133.191V134.301L180.888 134.745C180.666 136.965 178.666 137.853 176.221 136.743C173.555 135.411 171.555 132.304 171.555 129.64C171.555 127.198 173.332 126.088 175.555 126.976C175.777 126.976 175.999 127.198 175.999 127.198C176.221 127.198 176.444 127.42 176.444 127.42C178.666 128.752 180.444 131.416 180.666 133.635L179.999 133.191ZM176.221 135.411C178.221 136.521 179.777 135.633 179.777 133.635C179.777 131.638 177.999 129.196 175.999 128.086C173.999 126.976 172.444 127.864 172.444 129.862C172.444 131.86 173.999 134.301 176.221 135.411Z" fill="#9FEDEB"/>
<path d="M123.11 51.9447C123.554 52.1667 123.999 52.8326 124.221 53.2766L128.665 55.4965C128.665 55.7184 128.665 55.7184 128.665 55.9404C128.665 56.1624 128.665 56.3844 128.665 56.3844L124.221 54.1645C123.999 54.6085 123.554 54.6085 123.11 54.3865C122.443 53.9426 121.776 53.0546 121.776 52.3887C121.776 51.9447 122.443 51.5007 123.11 51.9447Z" fill="#9FEDEB"/>
<path d="M137.998 60.1582C137.998 60.3801 137.998 60.6021 137.998 60.6021C137.998 60.8241 137.998 61.0461 137.998 61.0461C137.776 63.266 135.776 64.1539 133.331 63.044C130.887 61.934 128.887 59.0482 128.665 56.6064C128.665 56.3844 128.665 56.1624 128.665 56.1624C128.665 55.9404 128.665 55.7184 128.665 55.7184C128.887 53.4986 130.887 52.6106 133.331 53.7206C135.776 54.8305 137.776 57.4943 137.998 60.1582ZM133.554 61.934C135.554 63.044 137.109 62.156 137.109 60.1582C137.109 58.1603 135.331 55.7184 133.331 54.6085C131.331 53.4986 129.776 54.3865 129.776 56.3844C129.776 58.6043 131.554 61.0461 133.554 61.934Z" fill="#9FEDEB"/>
<path d="M233.11 156.278C233.554 156.5 233.999 157.166 234.221 157.61L238.665 159.83C238.665 160.052 238.665 160.052 238.665 160.274C238.665 160.496 238.665 160.718 238.665 160.718L234.221 158.498C233.999 158.942 233.554 158.942 233.11 158.72C232.443 158.276 231.776 157.388 231.776 156.722C231.999 156.278 232.443 156.056 233.11 156.278Z" fill="#9FEDEB"/>
<path d="M252.444 166.711V167.821L248 165.601C248 165.379 248 165.379 248 165.157C248 164.935 248 164.713 248 164.713L252.444 166.711Z" fill="#9FEDEB"/>
<path d="M247.998 164.491C247.998 164.713 247.998 164.935 247.998 164.935C247.998 165.157 247.998 165.379 247.998 165.379C247.776 167.599 245.776 168.487 243.331 167.377C240.887 166.267 238.887 163.382 238.665 160.94C238.665 160.718 238.665 160.496 238.665 160.496C238.665 160.274 238.665 160.052 238.665 160.052C238.887 157.832 240.887 156.944 243.331 158.054C245.776 159.164 247.776 162.05 247.998 164.491ZM243.554 166.489C245.554 167.599 247.109 166.711 247.109 164.713C247.109 162.716 245.331 160.274 243.331 159.164C241.331 158.054 239.776 158.942 239.776 160.94C239.776 162.938 241.554 165.379 243.554 166.489Z" fill="#9FEDEB"/>
<path d="M251.998 138.963C252.886 139.407 253.775 140.517 253.775 141.627V147.399C253.775 148.287 253.109 148.73 251.998 148.287L235.109 139.851C234.22 139.407 233.331 138.297 233.331 137.187V134.967V133.857V131.416C233.331 130.528 233.998 130.084 235.109 130.528L251.998 138.963ZM253.109 146.955V141.183C253.109 140.517 252.664 139.851 251.998 139.629L235.109 131.194C234.442 130.972 233.998 131.194 233.998 131.638V137.409C233.998 138.075 234.442 138.741 235.109 138.963L251.998 147.399C252.664 147.621 253.109 147.399 253.109 146.955Z" fill="#9FEDEB"/>
<path d="M285.998 183.36C285.998 183.582 285.998 183.804 285.998 183.804C285.998 184.026 285.998 184.248 285.998 184.248C285.775 186.468 283.775 187.356 281.331 186.246C278.887 185.136 276.887 182.25 276.664 179.809C276.664 179.587 276.664 179.365 276.664 179.365C276.664 179.143 276.664 179.143 276.664 178.921C276.887 176.701 278.887 175.813 281.331 176.923C283.775 178.033 285.775 180.918 285.998 183.36ZM285.109 183.36C285.109 183.138 285.109 182.916 285.109 182.916C284.887 180.918 283.331 178.921 281.553 178.033C279.775 177.145 278.22 177.811 277.998 179.365C277.998 179.587 277.998 179.587 277.998 179.809C277.998 180.03 277.998 180.252 277.998 180.252C278.22 182.25 279.775 184.248 281.553 185.136C283.331 186.024 284.887 185.358 285.109 183.804C285.109 183.804 285.109 183.582 285.109 183.36Z" fill="#9FEDEB"/>
<path d="M262.222 187.578C264.444 188.91 266.222 191.796 266.222 194.238C266.222 196.901 264.222 198.011 261.555 196.679C259.111 195.348 257.111 192.462 256.888 190.02C256.888 189.798 256.888 189.798 256.888 189.576C256.888 189.354 256.888 189.132 256.888 188.91C257.111 186.912 258.888 186.024 261.111 186.912C261.333 186.912 261.333 187.134 261.555 187.134C261.777 187.356 262 187.578 262.222 187.578ZM261.555 195.791C263.555 196.679 265.111 196.013 265.111 194.016C265.111 192.018 263.333 189.576 261.333 188.466C259.333 187.356 257.777 188.244 257.777 190.242C258 192.24 259.555 194.682 261.555 195.791Z" fill="#9FEDEB"/>
<path d="M252.22 186.024C252.665 186.246 253.109 186.912 253.331 187.356L256.887 189.132C256.887 189.354 256.887 189.576 256.887 189.798C256.887 190.02 256.887 190.02 256.887 190.242L253.331 188.466C253.109 188.91 252.665 188.91 252.22 188.688C251.554 188.244 250.887 187.356 250.887 186.69C250.887 185.802 251.554 185.58 252.22 186.024Z" fill="#9FEDEB"/>
<path d="M271.777 175.591C272.221 175.813 272.666 176.479 272.888 176.923L276.888 178.921C276.888 179.143 276.888 179.143 276.888 179.365C276.888 179.587 276.888 179.809 276.888 179.809L272.888 177.811C272.666 178.255 272.221 178.255 271.777 178.033C271.11 177.589 270.443 176.701 270.443 176.035C270.443 175.369 270.888 175.147 271.777 175.591Z" fill="#9FEDEB"/>
<path d="M222.221 128.308C222.221 128.53 222.221 128.752 222.221 128.752C222.221 128.974 222.221 129.196 222.221 129.196C221.999 131.416 219.999 132.304 217.554 131.194C215.11 130.084 213.11 127.198 212.887 124.756C212.887 124.534 212.887 124.312 212.887 124.312C212.887 124.09 212.887 123.868 212.887 123.868C213.11 121.648 215.11 120.76 217.554 121.87C219.999 122.98 221.999 125.644 222.221 128.308ZM221.11 128.752C221.11 128.53 221.11 128.53 221.11 128.308C221.11 128.086 221.11 127.864 221.11 127.864C220.887 125.866 219.332 123.868 217.554 122.98C215.776 122.092 214.221 122.758 213.999 124.312C213.999 124.534 213.999 124.534 213.999 124.756C213.999 124.978 213.999 125.2 213.999 125.2C214.221 127.198 215.776 129.196 217.554 130.084C219.554 130.972 220.887 130.306 221.11 128.752Z" fill="#9FEDEB"/>
<path d="M200.444 116.543C200.888 116.765 201.333 117.43 201.555 117.874L212.888 123.424C212.888 123.646 212.888 123.646 212.888 123.868C212.888 124.09 212.888 124.312 212.888 124.312L201.555 118.762C201.333 119.206 200.888 119.206 200.444 118.984C199.777 118.54 199.111 117.652 199.111 116.987C199.333 116.543 199.777 116.321 200.444 116.543Z" fill="#9FEDEB"/>
<path d="M243.998 129.862V131.194C244.442 131.638 244.887 132.304 244.887 132.748C244.887 133.413 244.22 133.857 243.553 133.413C242.887 132.97 242.22 132.082 242.22 131.416C242.22 130.972 242.442 130.528 242.887 130.528V129.196C243.109 129.196 243.331 129.418 243.331 129.418C243.553 129.64 243.775 129.862 243.998 129.862Z" fill="#9FEDEB"/>
<path d="M238.443 106.553V106.997L234.22 104.777V104.333L238.443 106.553Z" fill="#9FEDEB"/>
<path d="M227.777 150.284C228.666 150.728 229.555 151.838 229.555 152.948V158.72C229.555 159.608 228.888 160.052 227.777 159.608L210.888 150.95C209.999 150.506 209.111 149.396 209.111 148.287V142.515C209.111 141.627 209.777 141.183 210.888 141.627L227.777 150.284ZM228.666 158.276V152.504C228.666 151.838 228.222 151.172 227.555 150.95L210.666 142.515C209.999 142.293 209.555 142.515 209.555 142.959V148.731C209.555 149.396 209.999 150.062 210.666 150.284L227.555 158.72C228.222 158.942 228.888 158.72 228.666 158.276Z" fill="#9FEDEB"/>
<path d="M233.331 133.635V134.745L222.22 129.196C222.22 128.974 222.22 128.974 222.22 128.752C222.22 128.53 222.22 128.308 222.22 128.308L233.331 133.635Z" fill="#9FEDEB"/>
<path d="M256 117.209C256.444 117.43 256.888 118.096 257.111 118.54L261.555 120.76C261.555 120.982 261.555 120.982 261.555 121.204C261.555 121.426 261.555 121.648 261.555 121.648L257.111 119.428C256.888 119.872 256.444 119.872 256 119.65C255.333 119.206 254.666 118.318 254.666 117.652C254.666 116.987 255.333 116.765 256 117.209Z" fill="#9FEDEB"/>
<path d="M270.888 125.422C270.888 125.644 270.888 125.866 270.888 125.866C270.888 126.088 270.888 126.31 270.888 126.31C270.666 128.53 268.666 129.418 266.221 128.308C263.777 127.198 261.777 124.312 261.555 121.87C261.555 121.648 261.555 121.426 261.555 121.426C261.555 121.204 261.555 120.982 261.555 120.982C261.777 118.762 263.777 117.874 266.221 118.984C268.666 120.094 270.666 122.758 270.888 125.422ZM266.221 127.198C268.221 128.308 269.777 127.42 269.777 125.422C269.777 123.424 267.999 120.982 265.999 119.872C263.999 118.762 262.443 119.65 262.443 121.648C262.666 123.868 264.221 126.31 266.221 127.198Z" fill="#9FEDEB"/>
<path d="M261.998 176.701L262.22 187.8C261.998 187.578 261.776 187.578 261.554 187.578C261.331 187.578 261.331 187.356 261.109 187.356L260.887 176.257L261.998 176.701Z" fill="#9FEDEB"/>
<path d="M278.222 130.084L279.333 130.528V140.739V141.849L278.222 141.405L275.111 139.851C274.888 142.071 273.111 142.959 271.111 142.071V143.403C271.555 143.847 272 144.513 272 144.957C272 145.623 271.333 146.067 270.666 145.623C270 145.179 269.333 144.291 269.333 143.625C269.333 143.181 269.555 142.737 270 142.737V141.405C267.777 140.073 265.777 136.965 265.777 134.745C265.777 132.082 267.777 130.972 270.444 132.304C272.888 133.413 274.888 136.299 275.111 138.741L278.222 140.295V130.084ZM270.666 140.739C272.666 141.627 274.222 140.961 274.222 138.963C274.222 136.965 272.444 134.523 270.444 133.413C268.444 132.304 266.888 133.192 266.888 135.189C267.111 137.187 268.666 139.629 270.666 140.739Z" fill="#9FEDEB"/>
<path d="M218.888 170.041C218.888 170.263 218.888 170.485 218.888 170.485C218.888 170.707 218.888 170.929 218.888 170.929C218.665 173.149 216.665 174.037 214.221 172.927C211.776 171.817 209.776 168.931 209.554 166.489C209.554 166.267 209.554 166.045 209.554 166.045C209.554 165.823 209.554 165.601 209.554 165.601C209.776 163.382 211.776 162.494 214.221 163.604C216.443 164.713 218.443 167.599 218.888 170.041ZM217.776 170.041C217.776 169.819 217.776 169.597 217.776 169.375C217.554 167.377 215.999 165.379 214.221 164.491C212.443 163.604 210.888 164.269 210.665 165.823C210.665 166.045 210.665 166.045 210.665 166.267C210.665 166.489 210.665 166.489 210.665 166.711C210.888 168.709 212.443 170.707 214.221 171.595C215.999 172.483 217.554 171.817 217.776 170.263C217.776 170.485 217.776 170.263 217.776 170.041Z" fill="#9FEDEB"/>
<path d="M198.221 152.282C199.11 152.726 199.999 153.836 199.999 154.946L200.221 167.599C200.221 168.487 199.554 168.931 198.443 168.487L181.554 160.052C180.665 159.608 179.776 158.498 179.776 157.388L179.554 144.735C179.554 143.847 180.221 143.403 181.332 143.847L189.332 147.843L190.443 148.287L198.221 152.282ZM199.554 167.377L199.332 154.724C199.332 154.058 198.888 153.392 198.221 153.17L181.332 144.735C180.665 144.513 180.221 144.735 180.221 145.179L180.443 157.832C180.443 158.498 180.888 159.164 181.554 159.386L198.443 167.821C199.11 168.043 199.554 167.821 199.554 167.377Z" fill="#9FEDEB"/>
<path d="M231.776 105.887V106.997L227.332 104.777C227.332 104.555 227.332 104.555 227.332 104.333C227.332 104.111 227.332 103.889 227.332 103.889L231.776 105.887Z" fill="#9FEDEB"/>
<path d="M227.333 103.667C227.333 103.889 227.333 104.111 227.333 104.111C227.333 104.333 227.333 104.555 227.333 104.555C227.111 106.775 225.111 107.663 222.666 106.553C220.222 105.443 218.222 102.557 218 100.116C218 99.8936 218 99.6716 218 99.6716C218 99.4497 218 99.2277 218 99.2277C218.222 97.0078 220.222 96.1199 222.666 97.2298C224.888 98.3397 226.888 101.004 227.333 103.667ZM222.666 105.443C224.666 106.553 226.222 105.665 226.222 103.667C226.222 101.67 224.444 99.2277 222.444 98.1177C220.444 97.2298 218.888 97.8958 218.888 99.8936C218.888 102.113 220.666 104.555 222.666 105.443Z" fill="#9FEDEB"/>
<path d="M212.22 95.4539C212.664 95.6759 213.109 96.3419 213.331 96.7858L217.775 99.0057C217.775 99.2277 217.775 99.2277 217.775 99.4497C217.775 99.6716 217.775 99.8936 217.775 99.8936L213.331 97.6738C213.109 98.1177 212.664 98.1177 212.22 97.8958C211.553 97.6738 211.109 96.7858 211.109 96.1199C211.109 95.2319 211.553 95.0099 212.22 95.4539Z" fill="#9FEDEB"/>
<path d="M243.775 120.538C246.22 121.87 247.998 124.978 247.998 127.198C247.998 129.64 246.22 130.75 243.998 129.862C243.775 129.862 243.553 129.64 243.553 129.64C243.331 129.64 243.109 129.418 243.109 129.418C240.664 128.086 238.886 124.978 238.886 122.758C238.886 120.316 240.664 119.206 242.886 120.094C243.109 120.094 243.331 120.316 243.331 120.316C243.553 120.316 243.553 120.316 243.775 120.538ZM243.331 128.53C245.331 129.64 246.886 128.752 246.886 126.754C246.886 124.756 245.109 122.314 243.109 121.204C241.109 120.094 239.553 120.982 239.553 122.98C239.775 125.2 241.331 127.642 243.331 128.53Z" fill="#9FEDEB"/>
<path d="M279.332 151.172C280.221 151.616 281.11 152.726 281.11 153.836V163.16C281.11 164.048 280.443 164.491 279.332 164.048L262.443 155.612C261.554 155.168 260.665 154.058 260.665 152.948V143.625C260.665 142.737 261.332 142.293 262.443 142.737L279.332 151.172ZM280.443 162.716V153.392C280.443 152.726 279.999 152.06 279.332 151.838L262.443 143.403C261.776 143.181 261.332 143.403 261.332 143.847V153.17C261.332 153.836 261.776 154.502 262.443 154.724L279.332 163.16C279.999 163.604 280.443 163.382 280.443 162.716Z" fill="#9FEDEB"/>
<path d="M288.443 134.079L288.888 186.024L285.999 184.47C285.999 184.248 285.999 184.026 285.999 184.026C285.999 183.804 285.999 183.582 285.999 183.582L287.999 184.47L287.555 134.745L279.332 130.75L278.221 130.306L275.999 129.196V128.086L288.443 134.079Z" fill="#9FEDEB"/>
<path d="M273.554 126.754V127.864L270.887 126.532C270.887 126.31 270.887 126.31 270.887 126.088C270.887 125.866 270.887 125.644 270.887 125.644L273.554 126.754Z" fill="#9FEDEB"/>
<path d="M243.776 118.54V120.538C243.554 120.538 243.332 120.316 243.332 120.316C243.11 120.316 242.887 120.094 242.887 120.094V118.096L243.776 118.54Z" fill="#9FEDEB"/>
<path d="M203.777 161.828C204.222 162.05 204.666 162.716 204.888 163.16L209.333 165.379C209.333 165.601 209.333 165.601 209.333 165.823C209.333 166.045 209.333 166.267 209.333 166.267L204.888 164.048C204.666 164.492 204.222 164.492 203.777 164.27C203.111 163.826 202.444 162.938 202.444 162.272C202.666 161.828 203.111 161.606 203.777 161.828Z" fill="#9FEDEB"/>
<path d="M223.331 172.261V173.371L218.886 171.151C218.886 170.929 218.886 170.929 218.886 170.707C218.886 170.485 218.886 170.263 218.886 170.263L223.331 172.261Z" fill="#9FEDEB"/>
<path d="M206.887 87.4624C207.775 87.9064 208.664 89.0163 208.664 90.1262V99.8936C208.664 100.782 207.998 101.226 206.887 100.782L197.331 96.1199C196.442 95.4539 195.553 94.122 195.553 93.234V83.4667C195.553 82.5787 196.22 82.1348 197.331 82.5787L206.887 87.4624ZM207.998 99.4496V89.6823C207.998 89.0163 207.553 88.3504 206.887 88.1284L197.331 83.4667C196.664 83.2447 196.22 83.4667 196.22 83.9106V93.678C196.22 94.344 196.664 95.0099 197.331 95.2319L206.887 99.8936C207.553 100.116 207.998 99.8936 207.998 99.4496Z" fill="#9FEDEB"/>
<path d="M217.554 123.868C218.887 124.534 220.221 126.31 220.221 127.642C220.221 128.974 219.11 129.64 217.776 128.974C216.443 128.308 215.11 126.532 215.11 125.2C215.11 123.646 216.221 123.202 217.554 123.868Z" fill="#DC6651"/>
<path d="M214.22 165.601C215.553 166.267 216.886 168.043 216.886 169.375C216.886 170.707 215.775 171.373 214.442 170.707C213.108 170.041 211.775 168.265 211.775 166.933C211.553 165.601 212.664 164.935 214.22 165.601Z" fill="#35C473"/>
<path d="M222.665 99.2277C223.998 99.8936 225.332 101.67 225.332 103.001C225.332 104.333 224.221 104.999 222.887 104.333C221.554 103.667 220.221 101.891 220.221 100.56C219.998 99.0057 221.109 98.5617 222.665 99.2277Z" fill="#DC6651"/>
<path d="M243.331 122.314C244.665 122.98 245.998 124.756 245.998 126.088C245.998 127.42 244.887 128.086 243.554 127.42C242.22 126.754 240.887 124.978 240.887 123.646C240.887 122.092 241.998 121.648 243.331 122.314Z" fill="#35C473"/>
<path d="M161.108 82.5787C162.441 83.2447 163.775 85.0206 163.775 86.3525C163.775 87.6844 162.664 88.3504 161.33 87.6844C159.997 87.0185 158.664 85.2426 158.664 83.9107C158.441 82.5787 159.552 81.9128 161.108 82.5787Z" fill="#35C473"/>
<path d="M142.442 95.4539C143.775 96.1199 145.109 97.8958 145.109 99.2277C145.109 100.56 143.998 101.226 142.664 100.56C141.109 99.8936 139.998 98.3397 139.998 96.7858C139.998 95.4539 141.109 94.788 142.442 95.4539Z" fill="#DC6651"/>
<path d="M175.997 129.196C177.331 129.862 178.664 131.638 178.664 132.97C178.664 134.301 177.553 134.967 176.219 134.301C174.886 133.635 173.553 131.86 173.553 130.528C173.553 128.974 174.664 128.308 175.997 129.196Z" fill="#DC6651"/>
<path d="M133.331 55.7185C134.665 56.3844 135.998 58.1603 135.998 59.4922C135.998 60.8241 134.887 61.4901 133.554 60.8241C132.22 60.1582 130.887 58.3823 130.887 57.0504C130.887 55.7185 131.998 55.0525 133.331 55.7185Z" fill="#DC6651"/>
<path d="M243.331 160.052C244.665 160.718 245.998 162.494 245.998 163.826C245.998 165.157 244.887 165.823 243.554 165.157C242.22 164.492 240.887 162.716 240.887 161.384C240.887 160.052 241.998 159.386 243.331 160.052Z" fill="#DC6651"/>
<path d="M281.331 178.921C282.664 179.587 283.998 181.362 283.998 182.694C283.998 184.026 282.886 184.692 281.553 184.026C280.22 183.36 278.886 181.584 278.886 180.252C278.886 178.921 279.998 178.255 281.331 178.921Z" fill="#DC6651"/>
<path d="M261.554 189.354C262.887 190.02 264.221 191.796 264.221 193.35C264.221 194.682 263.109 195.348 261.776 194.682C260.443 194.016 259.109 192.24 259.109 190.686C258.887 189.354 259.998 188.688 261.554 189.354Z" fill="#35C473"/>
<path d="M266.443 120.982C267.776 121.648 269.11 123.424 269.11 124.756C269.11 126.088 267.999 126.754 266.665 126.088C265.332 125.422 263.999 123.646 263.999 122.314C263.999 120.76 265.11 120.316 266.443 120.982Z" fill="#DC6651"/>
<path d="M270.666 134.301C271.999 134.967 273.332 136.743 273.332 138.075C273.332 139.407 272.221 140.073 270.888 139.407C269.555 138.741 268.221 136.965 268.221 135.633C268.221 134.301 269.332 133.635 270.666 134.301Z" fill="#35C473"/>
<path d="M223.777 120.76C220.888 119.428 218.666 116.099 218.222 113.213L176.888 92.5681V90.3482V77.6951C174.444 75.9192 172.444 72.5894 172.444 69.9255C172.444 66.8177 174.888 65.4858 178.222 67.0397C181.333 68.5936 184 72.3674 184 75.4752C184 78.361 182 79.6929 179.333 78.805V91.4582L218.222 110.993C218.888 108.773 221.111 108.107 223.777 109.439C226.888 110.993 229.555 114.767 229.555 117.874C229.333 120.982 226.888 122.314 223.777 120.76Z" fill="white"/>
<path d="M237.332 146.289C234.443 144.957 232.221 141.627 231.777 138.741L207.332 126.532C206.888 128.974 204.443 129.862 201.777 128.53C198.666 126.976 195.999 123.202 195.999 120.094C195.999 116.987 198.443 115.655 201.777 117.209C204.443 118.54 206.666 121.426 207.332 124.312L231.999 136.743C232.666 134.523 234.888 133.857 237.555 135.189C240.666 136.743 243.332 140.517 243.332 143.625C243.11 146.511 240.666 147.843 237.332 146.289Z" fill="white"/>
<path d="M136.443 128.086C139.332 129.64 141.777 132.97 141.999 136.077L176.443 153.17V131.194L176.666 131.416L217.999 152.06C218.443 149.618 220.666 148.509 223.555 150.062C226.666 151.616 229.332 155.39 229.332 158.498C229.332 161.606 226.888 162.938 223.555 161.384C220.888 160.052 218.666 157.166 217.999 154.28L178.443 134.523V156.5L177.777 156.056L141.555 138.075C140.888 140.073 138.666 140.739 136.221 139.407C133.11 137.853 130.443 134.079 130.443 130.972C130.443 127.864 133.332 126.532 136.443 128.086Z" fill="white"/>
<path d="M299.11 191.574C295.999 190.02 293.554 190.908 292.887 193.794L247.776 171.373V173.815V187.578C245.11 186.912 242.887 188.244 242.887 191.13C242.887 194.46 245.554 198.677 249.11 200.453C252.443 202.229 255.332 200.675 255.332 197.345C255.332 194.238 253.11 190.686 250.221 188.688V174.925L292.887 196.235C293.554 199.343 295.999 202.451 298.887 204.005C302.221 205.781 305.11 204.227 305.11 200.897C305.11 197.567 302.443 193.35 299.11 191.574Z" fill="white"/>
<path d="M299.11 170.041C295.999 168.487 293.555 169.375 292.888 172.261L266.221 158.942C265.777 155.834 263.11 152.282 259.999 150.728C256.666 148.952 253.777 150.506 253.777 153.836C253.777 157.166 256.444 161.384 259.999 163.16C262.888 164.713 265.332 163.826 265.999 161.384L292.888 174.925C293.555 178.033 295.999 181.14 298.888 182.694C302.221 184.47 305.11 182.916 305.11 179.587C305.11 175.813 302.444 171.817 299.11 170.041Z" fill="white"/>
<path d="M204 88.7943C207.111 90.3482 209.777 89.2383 210.222 86.3525L247.555 104.999V128.974L247.777 129.196L292.888 151.616C293.333 154.724 296 158.498 299.111 160.052C302.444 161.828 305.333 160.274 305.333 156.944C305.333 153.614 302.666 149.396 299.111 147.621C296.222 146.067 293.777 146.955 293.111 149.396L250.222 127.864V103.667L249.555 103.223L210.222 83.4667C209.333 80.5809 207.111 77.4731 204.222 76.1412C200.888 74.3653 198 75.9192 198 79.249C198 82.5787 200.666 87.0185 204 88.7943Z" fill="white"/>
<path d="M266.222 156.5L266.445 140.739C266.667 124.312 256.222 105.443 243.111 98.7837C238.889 96.7858 235.111 96.1199 231.556 96.5638L220 102.113C216.222 105.443 219.111 108.773 218.889 116.543L218.667 132.304L210.667 128.308L202.222 132.748L210.889 184.47L266 221.32L274.445 216.88V160.718L266.222 156.5ZM234.667 183.582L239.111 170.041C236.889 167.377 235.333 163.826 235.333 160.496C235.333 155.612 238.667 153.17 242.667 155.168C246.667 157.166 250 162.716 250 167.599C250 170.929 248.444 173.149 246 173.593L250.444 191.352L234.667 183.582ZM256.667 151.838L228 137.187L228.222 121.426C228.445 111.659 234.667 107.219 242.889 110.771C245.111 111.659 257.111 136.521 256.889 140.073L256.667 151.838Z" fill="#70E2E5"/>
<g opacity="0.5">
<path opacity="0.5" d="M219.554 141.627L227.999 137.187L256.665 151.838L248.221 156.278L219.554 141.627Z" fill="#B6FFFF"/>
<path opacity="0.3" d="M201.555 200.231L209.999 195.791L274.666 227.979L265.999 232.419L201.555 200.231Z" fill="#1D99B3"/>
<path opacity="0.5" d="M201.998 132.748L210.665 128.308L218.665 132.304L209.998 136.743L201.998 132.748Z" fill="#B6FFFF"/>
<path opacity="0.5" d="M257.778 160.94L266.222 156.5L274.222 160.718L265.778 165.157L257.778 160.94Z" fill="#B6FFFF"/>
<path opacity="0.5" d="M226.221 188.022L234.665 183.582L239.332 185.802L241.999 195.791L226.221 188.022Z" fill="#B6FFFF"/>
<path opacity="0.5" d="M239.11 170.041C237.777 168.487 236.666 166.489 236.221 164.492L225.999 168.931L230.666 174.703L239.11 170.041Z" fill="#B6FFFF"/>
<path opacity="0.5" d="M220.887 104.555L234.887 109.883C237.109 109.217 239.998 109.439 242.887 110.771C243.332 110.993 244.22 112.103 245.109 113.657L255.109 109.217C251.554 104.777 247.554 101.004 243.109 98.7837C238.887 96.7858 235.109 96.1199 231.554 96.5638L221.109 101.67L220.887 104.555Z" fill="#B6FFFF"/>
</g>
<path d="M257.776 160.94L257.998 145.179C258.22 128.752 247.776 109.883 234.665 103.223C221.554 96.5638 210.443 104.333 210.22 120.76L209.998 136.521L201.998 132.526V188.688L265.554 221.098V164.935L257.776 160.94ZM226.22 188.022L230.665 174.481C228.443 171.817 226.887 168.265 226.887 164.935C226.887 160.052 230.22 157.61 234.22 159.608C238.22 161.606 241.554 167.155 241.554 172.039C241.554 175.369 239.998 177.589 237.554 178.033L241.998 195.791L226.22 188.022ZM248.22 156.278L219.554 141.627L219.776 125.866C219.998 116.099 226.443 111.215 234.443 115.211C242.22 119.206 248.665 130.528 248.443 140.295L248.22 156.278Z" fill="#33B3C4"/>
<path d="M134.888 98.3397L135.11 91.9021C135.332 85.2426 131.11 77.695 125.777 75.0312C120.444 72.3674 115.999 75.4752 115.999 82.1348L115.777 88.5723L112.666 87.0184V109.661L116.444 111.659L138.221 122.758V100.116L134.888 98.3397ZM122.221 109.217L123.999 103.889C123.11 102.779 122.444 101.448 122.444 100.116C122.444 98.1177 123.777 97.2298 125.332 97.8957C126.888 98.7837 128.221 101.004 128.221 103.001C128.221 104.333 127.555 105.221 126.666 105.443L128.444 112.547L122.221 109.217ZM131.11 96.3419L119.555 90.5702L119.777 84.1326C119.777 80.1369 122.444 78.361 125.777 79.9149C128.888 81.4688 131.555 86.1305 131.332 90.1262L131.11 96.3419Z" fill="white"/>
<path opacity="0.3" d="M157.726 232.699C170.974 230.103 180.947 224.097 180.002 219.285C179.057 214.472 167.551 212.676 154.303 215.272C141.056 217.868 131.082 223.873 132.027 228.686C132.972 233.498 144.478 235.295 157.726 232.699Z" fill="#1D99B3"/>
<path d="M137.113 225.316L143.557 218.878C143.557 218.878 150.668 218.878 152.001 219.322C152.001 220.654 151.779 221.764 151.779 223.096C150.89 223.762 147.113 226.426 147.113 226.426L139.779 229.089L137.113 227.314V225.316Z" fill="#002B6A"/>
<path d="M166.223 214.216C166.223 214.216 172.223 213.772 173.556 214.216C173.778 214.438 174.889 216.436 174.889 216.436L173.334 222.874L170.667 226.426L167.334 228.201L164.667 227.535L164.223 226.648L166.223 214.216Z" fill="#002B6A"/>
<path d="M141.779 197.567L146.89 171.151C146.89 171.151 148.446 165.823 148.89 164.048C152.224 164.048 154.89 164.048 158.224 163.826C158.446 164.492 158.446 165.157 158.668 165.823C162.446 164.491 168.001 166.711 168.001 166.711L169.113 172.705L168.668 196.679L174.668 214.438L172.446 217.768H164.224L158.668 202.007C158.668 202.007 156.001 182.916 155.779 182.694C155.557 183.138 152.446 198.455 152.446 198.455L152.224 219.544L146.668 221.32L141.557 219.1L141.779 197.567Z" fill="#002B6A"/>
<path d="M126.445 183.582C125.334 183.582 127.334 183.582 128.667 183.582L129.778 186.912L129.334 190.464L128.445 190.686L128.001 188.688L127.778 188.91L127.112 192.462L126.445 194.682H125.778L125.334 190.242L126.445 183.582Z" fill="#F9A873"/>
<path d="M128.666 169.597L130.222 165.157L131.555 160.274L133.777 151.838C133.777 151.838 135.777 147.399 137.111 147.177C139.111 146.955 141.777 154.058 141.777 154.058L139.111 161.162L136.222 166.933L134.666 172.705L130 185.802L125.777 185.358L128.666 169.597Z" fill="#33B3C4"/>
<path d="M152.224 141.849L157.113 143.403L161.557 145.179L165.113 155.612L168.668 167.599L162.224 172.705L149.113 170.041L147.113 167.821L147.557 162.716L142.002 156.5C142.002 156.5 136.002 151.172 136.446 148.065C136.89 143.625 152.224 141.849 152.224 141.849Z" fill="#33B3C4"/>
<path d="M178.667 166.489C179.111 166.045 180.444 165.601 180.444 165.601L183.333 168.931C183.333 168.931 183.333 169.597 183.333 171.151C183.333 174.481 183.333 176.257 183.333 176.257L182.444 176.035L182.222 173.815L180.444 171.817L180 172.261C179.555 172.927 180 174.481 180 174.481C179.778 174.703 179.555 174.481 179.555 174.481C179.333 174.481 178.889 174.259 178.444 172.261C178.444 172.039 178 169.597 178.444 167.155C178.444 167.155 178.444 166.933 178.667 166.489Z" fill="#F9A873"/>
<path d="M160.889 145.179C162.223 144.735 172.889 152.726 172.889 152.726L182 165.601L180.889 168.487L177.778 168.931L168.667 157.388L160.667 153.836C160.667 154.058 158.889 145.845 160.889 145.179Z" fill="#33B3C4"/>
<path d="M144.445 142.071C145.556 142.071 146.445 142.515 148.667 143.847C150.667 144.957 151.778 146.289 151.778 146.289L150.889 150.506L148.667 154.502C148.667 154.502 142.667 149.618 142.445 148.952C141.334 147.177 140.667 145.845 141.111 144.513C141.556 142.959 143.111 142.071 144.445 142.071Z" fill="#F9A873"/>
<path d="M139.999 142.293C141.555 141.627 141.999 142.293 144.221 141.627C146.221 141.183 146.443 140.517 147.11 140.739C148.666 141.183 149.11 146.955 149.11 146.955L147.999 149.84L146.221 153.392L143.777 153.836L136.888 148.952C136.888 148.952 135.555 146.955 135.777 145.623C136.443 143.625 138.888 142.737 139.999 142.293Z" fill="#F9A873"/>
<path d="M141.333 134.079L146.889 136.521C146.889 136.521 148.667 138.963 149.111 140.517C148.667 140.739 148 140.961 147.778 141.627C147.111 142.959 148.222 144.513 148.222 144.513L147.556 145.845L145.111 143.625L143.556 144.069L142 146.289L135.778 148.731L131.111 143.625L133.111 142.515L135.778 136.965L141.333 134.079Z" fill="#002B6A"/>
<path d="M149.556 140.073C150 140.295 150 140.739 150 141.627C150 142.293 150 142.959 149.556 143.625C149.556 143.625 148.889 144.513 148.445 144.291C147.778 144.069 147.778 142.515 147.778 141.849C147.778 141.183 147.778 140.517 148.222 140.295C148.444 140.073 149.111 139.851 149.556 140.073Z" fill="#F9A873"/>
</svg>
