<svg width="74" height="82" viewBox="0 0 74 82" fill="none" xmlns="http://www.w3.org/2000/svg">
<path d="M17.6001 78.2H70.9001" stroke="white" stroke-width="2" stroke-miterlimit="10" stroke-linejoin="round"/>
<path d="M1 81.9V67.2C1 63.1 3.79996 59.8 7.89996 59.8H15.3L24.5 70.8H37.4C37.4 70.8 38.5 78.2 30 78.2C25.1 78.2 19 78.2 19 78.2L11.9 70.8" stroke="white" stroke-width="2" stroke-miterlimit="10" stroke-linejoin="round"/>
<path d="M11.1 54.3C15.7 54.3 19.4 50.8 19.4 46.4V43.8C19.4 39.5 15.7 35.9 11.1 35.9C6.50004 35.9 2.80005 39.4 2.80005 43.8V46.4C2.90005 50.8 6.50004 54.3 11.1 54.3Z" stroke="white" stroke-width="2" stroke-miterlimit="10" stroke-linejoin="round"/>
<path d="M33.5 65.4L39.1 50.7H72.2L63.4 72.7H43.3" stroke="white" stroke-width="2" stroke-miterlimit="10" stroke-linejoin="round"/>
<path d="M35.8999 19.4H57.9999" stroke="white" stroke-width="2" stroke-miterlimit="10" stroke-linejoin="round"/>
<path d="M35.8999 12.1H57.9999" stroke="white" stroke-width="2" stroke-miterlimit="10" stroke-linejoin="round"/>
<path d="M35.8999 26.8H48.7999" stroke="white" stroke-width="2" stroke-miterlimit="10" stroke-linejoin="round"/>
<path d="M47.9001 1C34.2001 1 23.1001 9.20002 23.1001 19.4C23.1001 23.6 25.1001 27.6 28.3001 30.7C27.8001 34.1 26.8001 37.6 25.7001 40.9C25.3001 42.2 26.2001 43.6 27.3001 43.3C32.6001 41.7 36.4001 39.2 39.0001 36.6C41.7001 37.4 44.7001 37.8 47.8001 37.8C61.5001 37.8 72.6001 29.6 72.6001 19.4C72.7001 9.30002 61.6001 1 47.9001 1Z" stroke="white" stroke-width="2" stroke-miterlimit="10"/>
</svg>
