<svg width="250" height="244" viewBox="0 0 250 244" fill="none" xmlns="http://www.w3.org/2000/svg">
<path d="M97.9649 244V216.967C97.9649 199.044 66.2309 189.935 49.4824 189.935C32.734 189.935 1 199.044 1 216.967V244" stroke="#0B4275" stroke-width="2" stroke-miterlimit="10" stroke-linejoin="round"/>
<path d="M49.4825 173.774C62.1173 173.774 71.2261 164.959 71.2261 152.03V141.159C71.2261 128.524 62.1173 119.415 49.4825 119.415C36.8477 119.415 27.7389 128.23 27.7389 141.159V152.03C27.7389 164.959 36.8477 173.774 49.4825 173.774Z" stroke="#0B4275" stroke-width="2" stroke-miterlimit="10" stroke-linejoin="round"/>
<path d="M179.062 81.8042L130.286 124.998L108.836 92.6761" stroke="#0B4275" stroke-width="2" stroke-miterlimit="10" stroke-linejoin="round"/>
<path d="M130.286 33.3215V54.7714" stroke="#E5231E" stroke-width="2" stroke-miterlimit="10" stroke-linejoin="round"/>
<path d="M216.672 119.708H195.223" stroke="#0B4275" stroke-width="2" stroke-miterlimit="10" stroke-linejoin="round"/>
<path d="M130.286 206.095V184.351" stroke="#0B4275" stroke-width="2" stroke-miterlimit="10" stroke-linejoin="round"/>
<path d="M34.4963 103.548C42.1359 57.7098 82.0972 22.45 130.286 22.45C184.057 22.45 227.545 65.9372 227.545 119.709C227.545 173.48 184.057 216.967 130.286 216.967C124.703 216.967 119.414 216.38 114.125 215.498" stroke="#FFB800" stroke-width="2" stroke-miterlimit="10" stroke-linejoin="round"/>
<path d="M11.5775 119.709C11.5775 54.1838 64.7612 1 130.286 1C195.811 1 248.995 54.1838 248.995 119.709C248.995 185.233 195.811 238.417 130.286 238.417C124.703 238.417 119.414 238.123 114.125 237.242" stroke="#0B4275" stroke-width="2" stroke-miterlimit="10" stroke-linejoin="round"/>
</svg>
