<svg width="262" height="246" viewBox="0 0 262 246" fill="none" xmlns="http://www.w3.org/2000/svg">
<path d="M186.309 53.315V1H1V244.297H186.309V157.63" stroke="#0B4275" stroke-width="2" stroke-miterlimit="10"/>
<path d="M249.34 41.6547C242.407 34.7213 225.704 40.7092 212.152 54.2607L139.037 128.321C115.086 152.273 87.3525 191.036 93.9706 197.97C100.904 204.903 139.668 176.855 163.619 152.903L236.734 78.8426C249.97 65.6063 255.958 48.588 249.34 41.6547Z" stroke="#0B4275" stroke-width="2" stroke-miterlimit="10"/>
<path d="M81.0471 211.521L93.6532 198.285" stroke="#0B4275" stroke-width="2" stroke-miterlimit="10" stroke-linecap="round"/>
<path d="M211.836 54.5754L244.611 87.351C249.023 91.7631 249.023 99.3268 244.611 103.739L203.642 144.709" stroke="#E5231E" stroke-width="2" stroke-miterlimit="10"/>
<path d="M134.623 132.733L159.204 157.315" stroke="#E5231E" stroke-width="2" stroke-miterlimit="10"/>
<path d="M249.339 41.6546L261 29.9941" stroke="#FFB800" stroke-width="2" stroke-miterlimit="10"/>
<path d="M64.9763 209.63H29.9946" stroke="#0B4275" stroke-width="2" stroke-miterlimit="10"/>
<path d="M64.9763 41.6543H122.649" stroke="#0B4275" stroke-width="2" stroke-miterlimit="10"/>
<path d="M35.9817 70.6489H151.642" stroke="#0B4275" stroke-width="2" stroke-miterlimit="10"/>
<path d="M35.9817 93.9695H145.969" stroke="#0B4275" stroke-width="2" stroke-miterlimit="10"/>
<path d="M35.9817 116.976H122.648" stroke="#0B4275" stroke-width="2" stroke-miterlimit="10"/>
<path d="M35.9817 140.297H99.6422" stroke="#0B4275" stroke-width="2" stroke-miterlimit="10"/>
</svg>
