<svg width="126" height="122" viewBox="0 0 126 122" fill="none" xmlns="http://www.w3.org/2000/svg">
<path d="M76.9666 88.3006V79.8769C76.9666 76.6605 69.1555 71.4531 62.876 71.4531C56.5965 71.4531 48.7854 76.6605 48.7854 79.8769V88.3006" stroke="#E5231E" stroke-width="2" stroke-miterlimit="10"/>
<path d="M62.8761 99.6343C79.9627 99.6343 93.8142 85.7828 93.8142 68.6961C93.8142 51.6095 79.9627 37.7581 62.8761 37.7581C45.7894 37.7581 31.938 51.6095 31.938 68.6961C31.938 85.7828 45.7894 99.6343 62.8761 99.6343Z" stroke="#FFB800" stroke-width="2" stroke-miterlimit="10"/>
<path d="M62.8761 71.2998C57.8219 71.2998 54.4524 67.0113 54.4524 61.6508V58.4344C54.4524 53.0739 57.8219 48.7854 62.8761 48.7854C67.9304 48.7854 71.2999 53.0739 71.2999 58.4344V61.6508C71.2999 67.0113 67.9304 71.2998 62.8761 71.2998Z" stroke="#E5231E" stroke-width="2" stroke-miterlimit="10"/>
<path d="M54.4525 32.0912C54.4525 28.8749 46.6414 23.6675 40.3619 23.6675C34.0824 23.6675 26.2712 28.8749 26.2712 32.0912V40.515" stroke="#0B4275" stroke-width="2" stroke-miterlimit="10"/>
<path d="M40.3617 23.5143C35.3075 23.5143 31.938 19.2259 31.938 13.8653V10.649C31.938 5.28843 35.3075 1 40.3617 1C45.416 1 48.7855 5.28843 48.7855 10.649V13.8653C48.7855 19.2259 45.416 23.5143 40.3617 23.5143Z" stroke="#0B4275" stroke-width="2" stroke-miterlimit="10"/>
<path d="M71.2998 32.0912C71.2998 28.8749 79.1109 23.6675 85.3904 23.6675C91.67 23.6675 99.4811 28.8749 99.4811 32.0912V40.515" stroke="#0B4275" stroke-width="2" stroke-miterlimit="10"/>
<path d="M85.3908 23.5143C90.445 23.5143 93.8145 19.2259 93.8145 13.8653V10.649C93.8145 5.28843 90.445 1 85.3908 1C80.3365 1 76.967 5.28843 76.967 10.649V13.8653C76.967 19.2259 80.3365 23.5143 85.3908 23.5143Z" stroke="#0B4275" stroke-width="2" stroke-miterlimit="10"/>
<path d="M124.752 85.5438V77.12C124.752 73.9037 116.941 68.6963 110.662 68.6963C106.68 68.6963 102.238 70.6874 99.3279 72.9848" stroke="#0B4275" stroke-width="2" stroke-miterlimit="10"/>
<path d="M110.662 68.5429C105.608 68.5429 102.238 64.2545 102.238 58.8939V55.6776C102.238 50.317 105.608 46.0286 110.662 46.0286C115.716 46.0286 119.086 50.317 119.086 55.6776V58.8939C119.086 64.2545 115.869 68.5429 110.662 68.5429Z" stroke="#0B4275" stroke-width="2" stroke-miterlimit="10"/>
<path d="M1 85.5438V77.12C1 73.9037 8.81112 68.6963 15.0906 68.6963C19.0728 68.6963 23.5144 70.6874 26.4244 72.9848" stroke="#0B4275" stroke-width="2" stroke-miterlimit="10"/>
<path d="M15.0906 68.5429C20.1449 68.5429 23.5144 64.2545 23.5144 58.8939V55.6776C23.5144 50.317 20.1449 46.0286 15.0906 46.0286C10.0364 46.0286 6.66688 50.317 6.66688 55.6776V58.8939C6.51372 64.2545 9.88321 68.5429 15.0906 68.5429Z" stroke="#0B4275" stroke-width="2" stroke-miterlimit="10"/>
<path d="M89.0664 85.5437L112.959 109.437C115.103 111.581 115.103 115.257 112.959 117.401L110.968 119.392C108.824 121.536 105.148 121.536 103.004 119.392L79.1111 95.499" stroke="#FFB800" stroke-width="2" stroke-miterlimit="10"/>
</svg>
