<svg width="78" height="84" viewBox="0 0 78 84" fill="none" xmlns="http://www.w3.org/2000/svg">
<path d="M30.4 83.7V76.3C30.4 69.7 25.9 67.1 21.2 67.1H10.2C5.50001 67.1 1 69.7 1 76.3V83.7" stroke="white" stroke-width="2" stroke-miterlimit="10" stroke-linejoin="round"/>
<path d="M15.7 61.7C20 61.7 23.1 58.7 23.1 54.3V50.6C23.1 46.3 20 43.2 15.7 43.2C11.4 43.2 8.30005 46.2 8.30005 50.6V54.3C8.40005 58.7 11.5 61.7 15.7 61.7Z" stroke="white" stroke-width="2" stroke-miterlimit="10" stroke-linejoin="round"/>
<path d="M39.6001 81.9H34.1001" stroke="white" stroke-width="2" stroke-miterlimit="10" stroke-linejoin="round"/>
<path d="M21.3 39.6V19.4H39.6" stroke="white" stroke-width="2" stroke-miterlimit="10" stroke-linejoin="round"/>
<path d="M58.0001 1H39.6001V81.9H58.0001V1Z" stroke="white" stroke-width="2" stroke-miterlimit="10" stroke-linejoin="round"/>
<path d="M58 39.6H76.4V81.9H58" stroke="white" stroke-width="2" stroke-miterlimit="10" stroke-linejoin="round"/>
</svg>
