<svg width="349" height="196" viewBox="0 0 349 196" fill="none" xmlns="http://www.w3.org/2000/svg">
<path d="M68.9341 85.1596L25.7066 63.5923L11.197 63.6082C11.1335 63.8623 11.054 64.1323 10.9429 64.3705L25.0716 64.3546L68.2991 85.9219L95.9691 85.8902V85.1278L68.9341 85.1596ZM152.087 8.48297L153.182 7.91123L173.74 18.2025L172.629 18.7266L152.087 8.48297ZM279.833 58.9231L300.359 48.5842L301.47 49.1559L280.96 59.4472L279.833 58.9231ZM87.4284 95.3874L110.511 95.3556L123.496 101.835L129.037 99.0561C123.734 96.4038 115.638 92.3857 112.273 90.7341L85.5551 90.7658L77.9034 94.641L30.7231 94.6886C30.8342 94.4345 30.9453 94.1804 31.0406 93.9263L77.2684 93.8786L84.9201 90.0035L112.908 89.9717L113.13 90.0829C114.606 90.8135 124.068 95.4986 130.116 98.5161L134.815 96.1656C118.686 87.9389 95.604 76.2659 93.2545 75.4083L56.9802 75.4559L46.9314 70.4532C47.1537 70.1991 47.3124 69.9132 47.3918 69.5956L57.5994 74.6936L93.445 74.646C93.8419 74.646 94.7785 74.646 135.879 95.6415L140.26 93.4339L112.209 79.5375L112.193 73.7089L92.175 64.1641L65.394 64.1958L39.629 50.8076C39.883 50.6011 40.0735 50.3153 40.1846 49.9976L66.0448 63.4017L92.8259 63.37L113.749 73.3595V79.1881L141.356 92.8622L146.245 90.4164L125.782 80.2045L126.862 79.6646L147.325 89.8606L151.69 87.6689L116.067 69.8973L116.051 62.0518L65.902 37.0382L66.9814 36.4982L117.591 61.7342L117.607 69.5797L152.786 87.1289L158.31 84.3496L127.417 68.9444L127.401 58.8596L64.1081 27.3027C64.378 27.0963 64.6002 26.8422 64.7431 26.5404L128.925 58.542L128.941 68.6268L159.389 83.8097L163.041 81.9674L137.942 69.4526L137.927 45.1537L103.287 27.8745L103.256 12.0405C103.7 12.3422 104.256 12.3899 104.796 12.231L104.827 27.5568L139.466 44.8361L139.482 69.135L164.136 81.4274L168.375 79.2993L147.61 68.9444L147.547 31.6384L159.532 25.6193C160.009 25.7622 160.517 25.8734 161.056 25.9369L149.087 31.9402L149.15 68.6109L169.454 78.7434L175.137 75.8847L165.819 71.2314C165.47 71.0567 165.089 70.8661 165.549 48.6636L165.565 48.1553L216.92 22.3477L216.984 2.28912L218.063 2.32089L218.032 22.8559H218.047H218.032V22.8717H218.016L167.089 48.2824L167.073 48.6636C166.803 61.5595 166.803 69.7544 167.041 70.7549L176.201 75.3289L183.043 78.6322L237.955 106.711L248.877 100.628L328.886 100.708L329.759 116.399C329.569 116.653 329.378 116.923 329.204 117.209L328.251 101.47L248.877 101.391L235.351 110.332L231.636 112.19L246.924 119.655L289.262 119.591L334.681 142.238C334.442 142.477 334.268 142.778 334.188 143.08L288.627 120.353L246.289 120.417L233.716 114.144L228.953 116.526L243.209 123.641L264.831 123.831L325.473 154.07L324.394 154.61L264.228 124.626L242.606 124.435L224.127 115.192L219.698 117.415L281.881 148.464L303.566 148.432L320.901 157.088C320.742 157.373 320.647 157.707 320.615 158.025L302.915 149.194L281.23 149.226L217.889 117.606L212.761 120.179L279.753 153.625L297.549 153.61L312.821 161.233C312.678 161.55 312.63 161.916 312.71 162.265L296.914 154.388L279.118 154.404L212.126 120.973L206.998 123.546L245.813 142.905L245.829 149.591L277.991 165.632L303.74 165.584L330.156 178.385C329.902 178.623 329.664 178.861 329.41 179.1L303.105 166.363L277.34 166.394L244.273 149.909L244.257 143.223L206.125 124.197L201.252 126.642L237.081 144.525V150.528L285.96 174.907C285.722 175.034 285.5 175.209 285.31 175.479C285.278 175.526 285.246 175.574 285.214 175.622L235.557 150.862V144.859L199.855 127.04L195.045 129.454L227.826 145.812L227.556 160.391L265.625 179.37L264.545 179.91L226.032 160.709L226.302 146.129L193.917 129.946L189.774 132.026L206.681 140.618L206.57 172.175L216.301 177.114L216.349 178.814L247.384 194.187C247.162 194.425 246.987 194.711 246.908 195.029L214.809 179.131L214.761 177.432L205.03 172.493L205.141 140.936L192.886 134.71L122.401 102.391L109.876 96.1497L88.0634 96.1815L52.8687 113.715L0.306732 113.778V113.016L52.2336 112.952L87.4284 95.3874ZM30.8819 152.18C30.9453 152.545 31.6756 153.022 32.6757 153.514C34.6284 154.483 37.6287 155.531 38.8352 155.928L39.3749 156.103L39.8195 155.865C55.2181 147.813 78.7766 135.727 81.2213 134.996L114.511 134.949L114.733 134.837C115.559 134.424 136.672 123.958 141.784 121.29L146.547 123.673L106.351 143.858L89 143.874L61.6792 157.596L62.7587 158.136L89.635 144.652L106.986 144.636L147.642 124.228L152.23 126.515L93.3656 155.928V156.087L93.9054 184.023C94.4451 183.785 94.9848 183.816 95.4452 184.055L94.9055 156.23L153.325 127.04L158.04 129.39L129.037 143.953L129.243 160.121L110.034 168.475C110.399 168.284 111.209 169.364 111.574 168.904L130.783 160.772L130.576 144.255L159.135 129.93L164.041 132.376L138.069 145.415L137.879 178.02L168.025 193.52C168.025 193.52 167.406 192.361 167.692 192.138L139.435 177.686L139.609 145.716L165.136 132.9L169.47 135.06L154.405 142.508L154.484 161.042L201.093 184.341C201.236 184.039 201.426 183.785 201.601 183.515L155.976 160.756L155.897 142.858L170.518 135.647L175.947 132.662L123.607 107.076L118.035 109.474L100.747 118.146H69.9342L54.7737 125.817L31.6915 125.96L31.5962 126.738L55.7579 126.42L70.5692 118.924H101.382L119.115 110.03L125.639 113.286L104.542 123.958L71.2677 124.038V124.8L105.177 124.721L126.719 113.81L133.212 117.05L108.399 129.501L75.5698 129.549C74.8554 129.549 73.7918 129.549 34.0886 150.163C32.4852 150.989 31.4692 151.529 31.2628 151.624C30.9771 151.767 30.8501 151.974 30.8819 152.18ZM32.4217 152.133C32.7392 151.974 33.7235 151.466 35.184 150.703C66.1718 134.615 74.3792 130.708 75.7127 130.311L109.034 130.264L134.291 117.574L140.673 120.75C135.895 123.244 116.003 133.122 113.86 134.186L81.0626 134.234C79.4592 134.234 57.4883 145.526 39.1527 155.102C35.5808 153.88 32.5963 152.577 32.4217 152.133ZM209.745 62.6553C226.636 73.8677 245.527 81.5068 263.307 91.1946L268.942 88.3518L279.785 82.9044L278.706 82.3644L267.863 87.8118L262.704 85.239L275.356 78.8864L320.234 78.8228C320.076 78.5846 319.964 78.3305 319.917 78.0605L274.721 78.124L261.624 84.699L256.115 81.9515L273.689 73.1372L318.393 73.0737L340.269 62.0994L348.428 62.0836C348.619 61.8295 348.809 61.5753 349 61.3212L339.634 61.3371L317.758 72.3113L273.054 72.3749L255.036 81.4115L250.543 79.1722C252.417 78.2828 257.592 75.7418 270.339 69.2303L293.041 69.1827V68.4203L269.689 68.468L269.466 68.5792C263.497 71.6284 252.226 77.3299 249.48 78.6481L244.971 76.4088L269.133 64.2752L307.201 64.2276L342.967 46.2654L341.888 45.7255L306.566 63.4494L268.498 63.497L243.876 75.853L238.986 73.4072L280.404 52.6022L280.388 35.4977L295.565 27.668L294.453 27.1439L278.848 35.1959L278.864 52.3005L237.891 72.8831L234.002 70.9455C238.097 68.8809 247.527 64.1323 252.734 61.5753L252.956 61.4642L252.941 49.2988L269.466 41.0562L268.387 40.5163L251.417 48.9812L251.432 61.1307C246.416 63.5923 237.145 68.1821 232.89 70.3738L227.953 67.9121L241.272 61.1465L241.114 48.9018L290.945 23.9676L274.578 13.5492L232.748 34.5448L233.208 57.8908L220.556 64.2435L214.777 61.3689L223.858 56.8109L223.826 1.5268C223.699 1.49504 223.572 1.46328 223.445 1.43152C223.032 1.32034 222.651 1.16153 222.286 0.970947L222.318 56.4932L213.682 60.8289L209.745 62.6553ZM221.651 64.7834L234.764 58.2084L234.303 34.8624L274.451 14.7086L288.913 23.9199L239.59 48.6L239.748 60.8448L226.874 67.388L221.651 64.7834Z" fill="url(#paint0_radial)"/>
<path opacity="0.34" d="M282.823 90.7545L222.768 60.7064C216.482 57.5619 206.306 57.5619 200.035 60.7064L70.0515 125.726C63.765 128.87 63.765 133.968 70.0515 137.097L130.106 167.145C136.393 170.29 146.569 170.29 152.839 167.145L282.823 102.126C289.11 98.9812 289.11 93.8991 282.823 90.7545Z" fill="#1D96B0"/>
<path d="M282.617 76.334L222.562 46.2859C216.276 43.1413 206.1 43.1413 199.829 46.2859L69.8453 111.321C63.9875 114.402 63.5589 119.564 69.8453 122.693L129.9 152.741C136.187 155.885 146.363 155.885 152.633 152.741L282.617 87.7211C289.38 84.386 288.888 79.4785 282.617 76.334Z" fill="#B6F1FF"/>
<path d="M65.3364 110.654H71.3213V117.197H65.3364V110.654Z" fill="#B6F1FF"/>
<path d="M281.553 81.5114L287.538 82.1784V74.9522H281.553V81.5114Z" fill="#B6F1FF"/>
<path d="M282.823 69.7113L222.769 39.6632C216.482 36.5187 206.306 36.5187 200.036 39.6632L70.0517 104.699C63.7653 107.843 63.7653 112.941 70.0517 116.07L130.107 146.118C136.393 149.263 146.569 149.263 152.84 146.118L282.823 81.0826C289.11 77.938 289.11 72.8559 282.823 69.7113Z" fill="url(#paint1_linear)"/>
<path d="M274.727 69.3937L220.911 42.4743C215.292 39.6633 206.164 39.6633 200.544 42.4743L84.0853 100.744C78.4655 103.555 78.4655 108.129 84.0853 110.94L137.901 137.86C143.521 140.671 152.649 140.671 158.269 137.86L274.727 79.5897C280.347 76.7787 280.347 72.2048 274.727 69.3937Z" fill="url(#paint2_linear)"/>
<path opacity="0.56" d="M111.295 127.092L104.628 123.757C103.199 123.042 100.897 123.042 99.4842 123.757L97.3887 124.805C95.96 125.519 95.96 126.663 97.3887 127.378L104.056 130.713C105.485 131.427 107.787 131.427 109.2 130.713L111.295 129.665C112.724 128.95 112.724 127.791 111.295 127.092Z" fill="#16A0B7"/>
<path opacity="0.41" d="M86.1007 129.267L114.85 143.656V140.131L86.1007 125.742V129.267Z" fill="#16A0B7"/>
<path d="M254.63 56.6566L238.183 48.4299C237.755 48.2076 237.056 48.2076 236.627 48.4299C236.199 48.6523 236.199 48.9858 236.627 49.2081L253.074 57.4348C253.503 57.6572 254.201 57.6572 254.63 57.4348C255.058 57.2125 255.058 56.8631 254.63 56.6566Z" fill="#168CA8"/>
<path d="M257.439 57.8001C256.899 57.5301 256.026 57.5301 255.47 57.8001C254.931 58.0701 254.931 58.5148 255.47 58.7848C256.01 59.0547 256.883 59.0547 257.439 58.7848C257.979 58.4989 257.979 58.0701 257.439 57.8001Z" fill="#168CA8"/>
<g opacity="0.69">
<path opacity="0.69" d="M263.012 92.2951L247.74 99.9341C247.201 100.204 246.756 100.871 246.756 101.411V102.682C246.756 103.222 247.455 104.143 247.994 103.857L262.996 95.5349C263.536 95.2649 263.981 94.5979 263.981 94.0579L264.536 93.248C264.552 92.708 263.552 92.0251 263.012 92.2951Z" fill="#DCFAFF"/>
<path opacity="0.69" d="M263.71 92.8668L248.438 100.506C247.898 100.776 247.454 101.443 247.454 101.983V103.253C247.454 103.793 247.898 104.016 248.438 103.746L263.71 96.1066C264.25 95.8367 264.694 95.1696 264.694 94.6296V93.3591C264.694 92.8191 264.265 92.5968 263.71 92.8668Z" fill="#98E7F4"/>
<path opacity="0.69" d="M243.803 102.094L228.531 109.733C227.992 110.003 227.547 110.67 227.547 111.21V112.481C227.547 113.021 228.246 113.942 228.785 113.656L243.787 105.334C244.327 105.064 244.771 104.397 244.771 103.857L245.327 103.047C245.343 102.491 244.343 101.824 243.803 102.094Z" fill="#DCFAFF"/>
<path opacity="0.69" d="M244.517 102.666L229.245 110.305C228.705 110.575 228.261 111.242 228.261 111.782V113.052C228.261 113.592 228.705 113.815 229.245 113.545L244.517 105.906C245.056 105.636 245.501 104.969 245.501 104.429V103.158C245.501 102.618 245.056 102.396 244.517 102.666Z" fill="#98E7F4"/>
</g>
<path d="M252.788 76.1593L267.186 83.3696L267.964 82.9725L253.248 75.6034H233.135L232.976 75.6829C231.912 76.2069 225.118 79.5897 220.768 81.7655L217.387 80.0821C228.976 74.1423 245.549 65.7409 247.248 65.1215H266.17L265.075 64.5657H247.121C246.835 64.5657 246.168 64.5657 216.625 79.7009L213.466 78.1286L231.42 69.1396V64.9468L246.581 57.3713H250.661L249.565 56.8154H246.12L230.325 64.7245V68.9173L212.688 77.7475L209.179 75.9846L223.88 68.6314L223.102 68.2343L208.402 75.5876L205.258 74.0153L230.849 61.2147V55.5767L238.961 51.511L238.183 51.1139L229.737 55.3384V60.9764L204.465 73.6182L200.496 71.633L222.689 60.5317V53.2897L232.595 48.3346L231.817 47.9376L221.578 53.0515V60.2935L199.702 71.236L197.067 69.9178L215.101 60.897V51.7174L227.245 45.6347L226.467 45.2377L214.005 51.4792V60.6588L196.305 69.5208L193.257 67.9961L208.163 60.5317V40.4732C207.798 40.505 207.433 40.5526 207.068 40.6003V60.2935L192.479 67.5991L188.399 65.5503L196.749 61.4211L196.67 46.6353L194.844 45.333L194.114 45.6983C194.13 45.6983 195.749 46.8735 195.749 46.8735L195.86 61.1035L187.621 65.1851L180.986 61.8658L175.89 64.4069L169.683 61.2941V57.9113L168.587 58.4671V61.5164L175.112 64.788L170.968 66.8685L161.872 62.3105L161.888 61.8182L160.777 62.374V62.5328L170.206 67.2497L166.46 69.1237L156.887 64.3275L156.11 64.7245L165.682 69.5208L162.142 71.2995C159.967 70.1719 155.983 68.2026 152.554 66.5191L151.76 66.9162C155.252 68.6473 159.253 70.6642 161.348 71.7124L158.554 73.11L148.966 68.3296L148.188 68.7267L157.776 73.5071L154.252 75.2699L144.616 70.4578L143.838 70.8548L153.411 75.6511L150.172 77.271C148.807 76.6199 144.521 74.4758 140.584 72.4748L139.806 72.8718C145.664 75.8417 148.315 77.1281 149.41 77.6522L146.188 79.2721L136.615 74.4758L135.837 74.8729L145.41 79.6691L141.457 81.6544L132.027 76.9375H131.71L130.614 77.4934H131.567L140.663 82.0514L136.948 83.9095L129.154 80.0027L128.376 80.3997L136.171 84.3066L132.329 86.2283L142.06 91.1039L137.504 93.3909L120.55 93.4544C120.55 93.5021 120.566 93.5497 120.566 93.6132C120.566 93.7403 120.566 93.8832 120.534 94.0103L137.504 93.9468L142.806 91.4851L145.473 92.8192L136.758 97.1707H106.326L81.7513 109.463C81.9418 109.622 82.1323 109.781 82.3545 109.94L106.786 97.7107H137.218L146.251 93.1844L149.664 94.8997L139.425 100.029L123.883 100.188L93.1812 115.546L93.9591 115.943L124.36 100.744L139.901 100.585L150.458 95.2967L153.649 96.8849L111.691 117.88H97.8485L98.9439 118.436H112.136L154.411 97.2819L158.094 99.1242L113.2 121.597H105.246L106.342 122.153H113.644L158.872 99.5212L162.571 101.363L137.615 113.846V118.643L118.502 128.203L119.28 128.601L138.742 118.833V114.037L163.38 101.713L166.889 103.476L143.902 114.974V119.294L122.328 130.093L123.106 130.49L145.013 119.532V115.212L167.682 103.873L171.143 105.604L150.569 115.895V121.009L128.265 132.142L129.043 132.539L151.665 121.247V116.133L171.905 106.001L174.89 107.494L156.808 116.546V121.994L145.426 127.695V138.145H146.521V127.918L157.903 122.216V116.769L175.667 107.875L182.319 111.21L188.082 108.32L198.591 113.497V117.706L199.686 117.15V113.386V113.275L188.844 107.939L191.955 106.382L206.576 113.704L207.354 113.307L192.733 105.985L196.257 104.222L210.862 111.544L211.64 111.147L197.035 103.825L200.432 102.126L209.719 106.747C209.799 106.525 209.894 106.319 210.021 106.128L201.21 101.745L204.496 100.093L219.117 107.414L219.895 107.017L205.258 99.6959L208.687 97.9807C211.084 99.2195 218.371 102.84 223.308 105.302L224.086 104.905C219.133 102.443 211.799 98.7907 209.465 97.5837L214.053 95.2808L228.69 102.602L229.468 102.205L214.831 94.8838L219.498 92.5492L234.071 99.9024L234.849 99.5053L220.276 92.1521L224.959 89.8016L233.087 93.8832H246.152L247.248 93.3274H233.532L225.737 89.4046L230.88 86.8318L226.245 84.5131L235.246 80.0027H250.978L262.392 85.7201L263.17 85.323L251.423 79.4468H234.833L225.515 84.116L221.53 82.1149C225.34 80.2091 231.15 77.3028 233.563 76.1116H252.788V76.1593Z" fill="url(#paint3_linear)"/>
<path d="M257.963 61.0082H246.501V61.564H259.074L257.963 61.0082Z" fill="#3CACC6"/>
<path d="M88.022 112.894L103.23 105.286V104.508L87.2441 112.512L88.022 112.894Z" fill="#96DDE5"/>
<path d="M278.903 74.0311H264.425V74.587H278.934C278.934 74.3964 278.918 74.2058 278.903 74.0311Z" fill="#62B7C9"/>
<path d="M152.491 139.622L164.968 133.508L164.952 123.233C164.587 123.312 164.222 123.328 163.857 123.264L163.873 133.27L150.443 139.876C151.125 139.813 151.824 139.718 152.491 139.622Z" fill="#96DDE5"/>
<path d="M224.912 67.6944C224.118 67.2973 222.816 67.2973 222.023 67.6944C221.229 68.0914 221.229 68.7426 222.023 69.1396C222.816 69.5367 224.118 69.5367 224.912 69.1396C225.721 68.7426 225.721 68.0914 224.912 67.6944Z" fill="#B1E6EC"/>
<path d="M164.508 124.249C163.377 124.249 162.46 123.787 162.46 123.217C162.46 122.646 163.377 122.184 164.508 122.184C165.639 122.184 166.556 122.646 166.556 123.217C166.556 123.787 165.639 124.249 164.508 124.249Z" fill="white"/>
<path d="M265.806 75.2699C264.675 75.2699 263.758 74.8077 263.758 74.2376C263.758 73.6675 264.675 73.2053 265.806 73.2053C266.937 73.2053 267.854 73.6675 267.854 74.2376C267.854 74.8077 266.937 75.2699 265.806 75.2699Z" fill="#B1E6EC"/>
<path d="M129.948 131.761C129.155 131.364 127.853 131.364 127.059 131.761C126.265 132.158 126.265 132.809 127.059 133.206C127.853 133.603 129.155 133.603 129.948 133.206C130.758 132.809 130.758 132.158 129.948 131.761Z" fill="white"/>
<path d="M131.25 80.0979C130.456 79.7009 129.154 79.7009 128.361 80.0979C127.567 80.4949 127.567 81.1461 128.361 81.5431C129.154 81.9402 130.456 81.9402 131.25 81.5431C132.044 81.1461 132.044 80.4949 131.25 80.0979Z" fill="#B1E6EC"/>
<path d="M122.074 92.8985C121.28 92.5015 119.979 92.5015 119.185 92.8985C118.391 93.2956 118.391 93.9467 119.185 94.3438C119.979 94.7408 121.28 94.7408 122.074 94.3438C122.868 93.9467 122.868 93.2956 122.074 92.8985Z" fill="#B1E6EC"/>
<path d="M146.22 139.13C145.089 139.13 144.172 138.668 144.172 138.098C144.172 137.528 145.089 137.065 146.22 137.065C147.351 137.065 148.268 137.528 148.268 138.098C148.268 138.668 147.351 139.13 146.22 139.13Z" fill="white"/>
<path d="M104.342 105.54C103.211 105.54 102.294 105.078 102.294 104.508C102.294 103.938 103.211 103.476 104.342 103.476C105.473 103.476 106.39 103.938 106.39 104.508C106.39 105.078 105.473 105.54 104.342 105.54Z" fill="#B1E6EC"/>
<path d="M212.34 105.89C211.546 105.493 210.244 105.493 209.45 105.89C208.657 106.287 208.657 106.938 209.45 107.335C210.244 107.732 211.546 107.732 212.34 107.335C213.133 106.938 213.133 106.287 212.34 105.89Z" fill="#B1E6EC"/>
<path d="M247.947 60.5635C247.153 60.1665 245.851 60.1665 245.057 60.5635C244.264 60.9605 244.264 61.6117 245.057 62.0087C245.851 62.4057 247.153 62.4057 247.947 62.0087C248.756 61.6117 248.756 60.9605 247.947 60.5635Z" fill="#B1E6EC"/>
<g opacity="0.53">
<path opacity="0.54" d="M139.902 138.685C140.474 138.892 141.077 139.067 141.68 139.209C141.791 139.241 141.887 139.257 141.998 139.289C143.315 139.591 144.697 139.797 146.109 139.892C146.173 139.892 146.252 139.908 146.316 139.908C147.03 139.956 147.76 139.972 148.475 139.956C148.522 139.956 148.554 139.956 148.602 139.956C150.11 139.924 151.602 139.781 153.047 139.527H153.063C153.793 139.4 154.507 139.225 155.19 139.035L154.38 65.598L110.089 87.7529L110.486 124.154L137.902 137.875C138.426 138.145 138.998 138.368 139.585 138.59C139.68 138.606 139.791 138.654 139.902 138.685Z" fill="url(#paint4_linear)"/>
<path opacity="0.43" d="M168.239 132.873L225.611 104.175L224.944 44.4913L220.912 42.4743C215.292 39.6633 206.164 39.6633 200.544 42.4743L167.429 59.0389L168.239 132.873Z" fill="url(#paint5_linear)"/>
<path opacity="0.36" d="M249.883 92.0251L269.838 82.0355L269.679 66.8685L249.486 56.7678L249.883 92.0251Z" fill="url(#paint6_linear)"/>
</g>
<path opacity="0.72" d="M223.847 78.5892C216.509 78.5892 210.56 75.6099 210.56 71.9348C210.56 68.2596 216.509 65.2804 223.847 65.2804C231.186 65.2804 237.135 68.2596 237.135 71.9348C237.135 75.6099 231.186 78.5892 223.847 78.5892Z" fill="#00767F"/>
<path d="M227.61 25.0521L226.181 23.0034C226.181 23.0034 225.228 21.447 226.641 19.9541C227.276 19.2871 227.943 19.1283 228.483 19.3347L229.261 19.7159C229.261 19.7159 229.372 20.8594 229.197 21.3358C228.864 22.2252 228.816 22.2252 228.578 22.8287C228.34 23.4322 228.308 25.4174 228.308 25.4174L227.61 25.0521Z" fill="#E25C24"/>
<path d="M225.88 21.5582C225.911 21.2564 225.991 20.9229 226.181 20.5894C226.213 20.5258 226.261 20.4623 226.308 20.3829C226.403 20.24 226.515 20.0812 226.657 19.9382C227.292 19.2712 227.959 19.1124 228.499 19.3188L229.277 19.7C229.277 19.7 229.324 20.2241 229.309 20.7164L226.626 21.987L225.88 21.5582Z" fill="#FF805A"/>
<path d="M227.594 19.303L228.356 19.7L227.182 20.7005L226.404 20.2241C226.483 20.1288 226.563 20.0335 226.642 19.9382C226.944 19.6047 227.277 19.3983 227.594 19.303Z" fill="#FF9280"/>
<path d="M228.309 25.4174L226.88 23.3687C226.88 23.3687 225.927 21.8123 227.34 20.3194C228.96 18.6042 230.436 20.24 229.896 21.6852C229.563 22.5746 229.515 22.5746 229.277 23.1781C228.817 24.401 228.309 25.4174 228.309 25.4174Z" fill="#C4341A"/>
<path d="M227.356 21.304C227.086 22.0187 227.245 22.7651 227.721 22.9398C228.198 23.1145 228.801 22.6857 229.087 21.9552C229.357 21.2405 229.198 20.4941 228.722 20.3194C228.245 20.1447 227.642 20.5894 227.356 21.304Z" fill="#EAB328"/>
<path d="M227.483 21.3517C227.213 22.0664 227.372 22.8128 227.848 22.9875C228.324 23.1622 228.928 22.7334 229.213 22.0029C229.483 21.2882 229.324 20.5417 228.848 20.367C228.372 20.1923 227.769 20.637 227.483 21.3517Z" fill="#E5860C"/>
<path d="M197.909 44.523C197.909 46.3176 198.1 48.0646 198.481 49.7481C198.925 51.7492 199.624 53.655 200.529 55.4178C201.989 58.2606 203.989 60.7858 206.402 62.8346C206.466 62.8822 206.529 62.9299 206.593 62.9934C207.609 63.851 208.704 64.6133 209.863 65.2803C213.403 67.345 217.515 68.5202 221.912 68.5202C226.103 68.5202 230.04 67.4402 233.469 65.5662C233.644 65.4709 233.818 65.3756 233.977 65.2803C240.248 61.6276 244.709 55.2114 245.693 47.7152C245.836 46.667 245.899 45.6189 245.899 44.5389C245.899 42.7443 245.709 41.0132 245.328 39.3297C245.312 39.2662 245.296 39.1868 245.28 39.1233C245.09 38.3133 244.867 37.5192 244.597 36.741C244.534 36.5504 244.455 36.3598 244.391 36.1534C243.756 34.4223 242.915 32.8024 241.915 31.2936C241.629 30.8648 241.327 30.436 241.01 30.0231C240.041 28.7367 238.946 27.5614 237.739 26.4973C237.66 26.4179 237.565 26.3544 237.485 26.275C237.184 26.0209 236.882 25.7827 236.581 25.5444C234.406 23.8451 231.913 22.5269 229.23 21.6693C229.151 21.6376 229.056 21.6217 228.976 21.5899C226.738 20.907 224.357 20.5258 221.896 20.5258C221.341 20.5258 220.801 20.5417 220.261 20.5894C219.626 20.637 219.007 20.7005 218.388 20.7958C216.197 21.1135 214.086 21.7328 212.133 22.6063C212.006 22.6699 211.879 22.7175 211.752 22.781C205.64 25.6397 200.925 31.0077 198.925 37.5669C198.624 38.5515 198.386 39.5838 198.211 40.6161C198.195 40.6955 198.179 40.7908 198.179 40.8702C198.005 42.0455 197.909 43.2843 197.909 44.523Z" fill="#33A4B5"/>
<path opacity="0.8" d="M232.532 62.0246L233.802 59.2295L232.485 56.4343L232.342 54.5285L231.373 52.6544L229.214 51.9398L227.452 49.5734L229.548 45.5712L230.707 44.7771C230.707 44.7771 230.754 43.729 230.849 43.2366L233.945 42.379L236.326 40.3462L237.676 40.505C237.803 40.5526 237.961 40.8703 237.961 40.8703C238.168 40.9497 240.803 40.6161 240.803 40.6161L241.184 38.3768L240.882 37.3445C240.994 37.1063 242.359 36.4869 242.359 36.4869L242.073 34.8035L240.47 35.2799L237.898 34.867L236.628 32.9294L234.485 31.5318L233.12 30.563L230.262 28.2284L231.85 26.7038L232.135 25.9256L234.421 25.3062L236.898 26.3862C236.898 26.3862 237.279 26.3068 237.453 26.2591C237.533 26.3385 237.628 26.4021 237.707 26.4815C238.914 27.5455 240.009 28.7208 240.978 30.0072C241.295 30.4201 241.597 30.8489 241.883 31.2777C242.883 32.7865 243.724 34.4223 244.359 36.1375C244.423 36.3281 244.502 36.5187 244.565 36.7251C244.835 37.5033 245.058 38.2974 245.248 39.1074C245.264 39.1709 245.28 39.2503 245.296 39.3138C244.819 39.4885 243.803 39.155 243.803 39.155L242.518 41.3626L239.263 42.649L238.184 49.1287L237.374 50.6216V53.5756L236.295 56.4184L235.691 58.6259L234.263 61.2147L232.532 62.0246Z" fill="#E9FEFF"/>
<path opacity="0.8" d="M198.941 37.551C200.925 30.9919 205.64 25.6239 211.768 22.7652C212.609 22.7334 214.181 23.4481 214.181 23.4481L214.975 27.1485L219.88 27.8632L220.626 29.0702L221.658 30.2137L222.309 30.833L218.896 31.5795L215.784 31.6589L214.895 30.5948L213.911 31.5795L212.165 32.5006H210.419C210.006 32.5641 209.419 32.9294 209.419 32.9294L210.292 34.2158L213.006 34.8352L214.499 33.4376L216.467 32.4212L221.801 33.0247L222.706 34.597L225.928 36.201V39.9332L224.357 43.0302L220.055 43.8878L218.134 44.6977L218.054 46.0635L216.61 47.9693L216.007 49.9863L215.324 53.5756L214.943 55.4655L216.086 58.1018L217.356 60.9923L213.975 60.6429L210.006 58.9595L207.799 53.6232L206.609 52.2415L206.228 50.034L206.45 46.27L205.386 44.666L204.624 42.0773L204.64 41.2038L206.355 41.2832C206.688 41.172 207.656 40.1079 207.656 40.1079L208.641 36.0422L205.45 39.568L203.053 36.4234L204.704 34.8352L202.878 35.5817L201.687 36.201L200.703 38.8215L200.1 39.425L198.084 41.7596C198.052 41.7596 198.195 40.9814 198.243 40.5844C198.401 39.5521 198.639 38.5356 198.941 37.551Z" fill="#E9FEFF"/>
<path opacity="0.8" d="M228.976 25.735L226.23 26.4179L224.404 24.9568L221.388 24.4486L221.055 22.2728L219.229 21.8917C219.229 21.8917 218.483 21.0341 218.419 20.8752C218.403 20.8435 218.403 20.8276 218.388 20.7958C219.007 20.7005 219.626 20.637 220.261 20.5894C220.801 20.5576 221.356 20.5258 221.896 20.5258C224.357 20.5258 226.738 20.8911 228.976 21.5899C229.056 21.6217 229.151 21.6376 229.23 21.6693C229.087 21.9234 228.881 22.5428 228.881 22.5428L228.976 25.735Z" fill="#E9FEFF"/>
<path opacity="0.8" d="M214.848 64.3433L217.515 63.5651L220.991 63.6922L222.087 64.9786L223.817 65.8044C223.817 65.8044 223.658 66.1856 223.754 66.7256C225.389 66.805 228.945 65.9791 228.945 65.9791L229.357 62.9457L231.04 62.4375L232.548 64.3274L233.914 65.0739C233.945 65.1374 233.977 65.2168 233.993 65.2803C233.818 65.3756 233.66 65.4709 233.485 65.5662C230.056 67.4561 226.119 68.5202 221.928 68.5202C217.531 68.5202 213.419 67.345 209.879 65.2803C208.72 64.6133 207.625 63.8351 206.609 62.9934C206.831 62.8663 207.482 62.7869 207.482 62.7869L214.848 64.3433Z" fill="#E9FEFF"/>
<path opacity="0.15" d="M223.413 43.4313C215.454 39.8584 211.006 32.492 213.48 26.978C215.953 21.464 224.41 19.8906 232.369 23.4635C240.329 27.0365 244.776 34.4029 242.303 39.9169C239.83 45.4308 231.373 47.0043 223.413 43.4313Z" fill="white"/>
<path opacity="0.19" d="M226.062 37.5375C220.294 34.9484 216.899 29.9951 218.478 26.4738C220.058 22.9526 226.014 22.1969 231.781 24.7859C237.549 27.375 240.944 32.3284 239.365 35.8496C237.785 39.3709 231.83 40.1265 226.062 37.5375Z" fill="white"/>
<path opacity="0.19" d="M228.081 32.2213C224.033 30.4043 221.456 27.3613 222.325 25.4246C223.193 23.4879 227.179 23.3909 231.227 25.2079C235.274 27.0249 237.851 30.0679 236.983 32.0046C236.114 33.9413 232.129 34.0383 228.081 32.2213Z" fill="white"/>
<path d="M234.309 49.4463C235.484 49.4463 236.436 48.4934 236.436 47.3341C236.436 46.1747 235.484 45.2218 234.309 45.2218C233.134 45.2218 232.182 46.1747 232.182 47.3341C232.166 48.4934 233.134 49.4463 234.309 49.4463ZM234.309 45.8571C235.087 45.8571 235.706 46.5082 235.706 47.3182C235.706 48.1281 235.071 48.7793 234.309 48.7793C233.531 48.7793 232.912 48.1281 232.912 47.3182C232.896 46.5241 233.531 45.8571 234.309 45.8571Z" fill="white"/>
<path fill-rule="evenodd" clip-rule="evenodd" d="M233.372 47.334C233.372 47.8423 233.785 48.2552 234.308 48.2552C234.832 48.2552 235.245 47.8423 235.245 47.334C235.245 46.8258 234.832 46.4129 234.308 46.4129C233.785 46.4129 233.372 46.8099 233.372 47.334Z" fill="white"/>
<path d="M218.212 40.6479C219.386 40.6479 220.339 39.695 220.339 38.5357C220.339 37.3763 219.386 36.4234 218.212 36.4234C217.037 36.4234 216.084 37.3763 216.084 38.5357C216.084 39.7109 217.037 40.6479 218.212 40.6479ZM218.212 37.0745C218.989 37.0745 219.609 37.7257 219.609 38.5357C219.609 39.3456 218.974 39.9968 218.212 39.9968C217.434 39.9968 216.815 39.3456 216.815 38.5357C216.799 37.7257 217.434 37.0745 218.212 37.0745Z" fill="white"/>
<path fill-rule="evenodd" clip-rule="evenodd" d="M217.323 38.5356C217.323 39.0121 217.72 39.4091 218.212 39.4091C218.704 39.4091 219.101 39.0121 219.101 38.5356C219.101 38.0592 218.704 37.6621 218.212 37.6621C217.72 37.6621 217.323 38.0592 217.323 38.5356Z" fill="white"/>
<path fill-rule="evenodd" clip-rule="evenodd" d="M247.756 51.638L246.946 51.0821C247.232 50.558 247.533 50.0498 247.771 49.4939L248.613 49.9704C248.375 50.558 248.073 51.098 247.756 51.638Z" fill="white"/>
<path fill-rule="evenodd" clip-rule="evenodd" d="M245.914 54.4173L245.184 53.7502C245.533 53.2738 245.882 52.7973 246.216 52.2891L246.993 52.8926C246.66 53.4167 246.295 53.9249 245.914 54.4173Z" fill="white"/>
<path fill-rule="evenodd" clip-rule="evenodd" d="M243.771 56.9107L243.12 56.1325C243.533 55.7196 243.93 55.2749 244.295 54.8302L244.993 55.5449C244.612 56.0213 244.199 56.4819 243.771 56.9107Z" fill="white"/>
<path fill-rule="evenodd" clip-rule="evenodd" d="M250.581 41.9819H249.629C249.597 41.3943 249.644 40.8067 249.549 40.235L250.486 40.1079C250.597 40.7114 250.549 41.3467 250.581 41.9819Z" fill="white"/>
<path fill-rule="evenodd" clip-rule="evenodd" d="M250.216 45.3488L249.279 45.1265C249.39 44.5389 249.517 43.9671 249.549 43.3795L250.502 43.4748C250.47 44.1101 250.327 44.7294 250.216 45.3488Z" fill="white"/>
<path fill-rule="evenodd" clip-rule="evenodd" d="M249.231 48.5887L248.358 48.1757C248.581 47.6199 248.787 47.064 248.946 46.4923L249.851 46.794C249.692 47.4134 249.47 48.001 249.231 48.5887Z" fill="white"/>
<path fill-rule="evenodd" clip-rule="evenodd" d="M247.803 32.5641L247.041 33.1676C246.708 32.7229 246.39 32.2624 246.041 31.8336L246.739 31.1348C247.105 31.6112 247.454 32.0877 247.803 32.5641Z" fill="white"/>
<path fill-rule="evenodd" clip-rule="evenodd" d="M249.327 35.4387L248.454 35.8675C248.232 35.3434 247.977 34.8352 247.723 34.327L248.533 33.8029C248.803 34.3429 249.089 34.8828 249.327 35.4387Z" fill="white"/>
<path fill-rule="evenodd" clip-rule="evenodd" d="M250.279 38.5991L249.358 38.8374C249.231 38.2656 249.072 37.7098 248.929 37.1539L249.834 36.8045C249.977 37.3921 250.136 37.9956 250.279 38.5991Z" fill="white"/>
<path fill-rule="evenodd" clip-rule="evenodd" d="M240.787 26.5767L240.374 27.482C239.882 27.2596 239.406 26.9896 238.898 26.8149L239.247 25.8779C239.771 26.0685 240.279 26.3544 240.787 26.5767Z" fill="white"/>
<path fill-rule="evenodd" clip-rule="evenodd" d="M243.406 28.1331L242.882 28.9748C242.421 28.689 241.993 28.3555 241.501 28.1013L241.961 27.212C242.469 27.482 242.913 27.8314 243.406 28.1331Z" fill="white"/>
<path fill-rule="evenodd" clip-rule="evenodd" d="M245.771 30.1024L245.12 30.8489C244.707 30.4836 244.326 30.0866 243.898 29.7531L244.469 28.9431C244.946 29.2925 245.342 29.7213 245.771 30.1024Z" fill="white"/>
<path fill-rule="evenodd" clip-rule="evenodd" d="M232.23 24.0198L232.071 25.0044C231.531 24.9409 231.007 24.8615 230.468 24.8139L230.595 23.8292C231.15 23.861 231.69 23.9563 232.23 24.0198Z" fill="white"/>
<path fill-rule="evenodd" clip-rule="evenodd" d="M235.151 24.5598L234.913 25.5285C234.389 25.4174 233.865 25.2903 233.341 25.195L233.531 24.2104C234.071 24.3215 234.611 24.4486 235.151 24.5598Z" fill="white"/>
<path fill-rule="evenodd" clip-rule="evenodd" d="M237.992 25.4015L237.674 26.3544C237.166 26.1955 236.658 25.9891 236.134 25.862L236.404 24.8933C236.944 25.0362 237.468 25.2426 237.992 25.4015Z" fill="white"/>
<path fill-rule="evenodd" clip-rule="evenodd" d="M223.387 23.8133L223.419 24.798C222.879 24.8615 222.356 24.9092 221.816 24.9886L221.736 24.0039C222.292 23.9245 222.848 23.8769 223.387 23.8133Z" fill="white"/>
<path fill-rule="evenodd" clip-rule="evenodd" d="M226.34 23.6545L226.308 24.6392L224.705 24.7027L224.689 23.718L226.34 23.6545Z" fill="white"/>
<path fill-rule="evenodd" clip-rule="evenodd" d="M229.277 23.718L229.181 24.7027L227.578 24.6392L227.626 23.6545L229.277 23.718Z" fill="white"/>
<path fill-rule="evenodd" clip-rule="evenodd" d="M214.704 25.9573L215.021 26.8626C214.529 27.0849 214.069 27.3549 213.624 27.6408L213.18 26.8149C213.688 26.4814 214.196 26.1956 214.704 25.9573Z" fill="white"/>
<path fill-rule="evenodd" clip-rule="evenodd" d="M217.545 24.9092L217.736 25.8621C217.212 26.005 216.72 26.1956 216.212 26.3703L215.958 25.4333C216.481 25.2427 217.005 25.0521 217.545 24.9092Z" fill="white"/>
<path fill-rule="evenodd" clip-rule="evenodd" d="M220.434 24.2262L220.545 25.195C220.022 25.2903 219.482 25.4015 218.974 25.5285L218.815 24.5598C219.355 24.4327 219.895 24.3374 220.434 24.2262Z" fill="white"/>
<path fill-rule="evenodd" clip-rule="evenodd" d="M230.151 34.2634L229.42 34.8987C229.135 34.4858 228.738 34.184 228.388 33.8346L229.055 33.1358C229.42 33.5011 229.849 33.8346 230.151 34.2634Z" fill="white"/>
<path fill-rule="evenodd" clip-rule="evenodd" d="M231.801 36.5663L230.976 37.0745C230.722 36.6457 230.483 36.2169 230.15 35.8357L230.928 35.264C231.277 35.661 231.531 36.1057 231.801 36.5663Z" fill="white"/>
<path fill-rule="evenodd" clip-rule="evenodd" d="M233.087 39.0756L232.198 39.4409L231.579 38.075L232.436 37.6303L233.087 39.0756Z" fill="white"/>
<path fill-rule="evenodd" clip-rule="evenodd" d="M234.008 41.7596L233.071 42.0137C232.96 41.5214 232.77 41.0608 232.611 40.5844L233.516 40.2667C233.691 40.759 233.897 41.2355 234.008 41.7596Z" fill="white"/>
<path fill-rule="evenodd" clip-rule="evenodd" d="M234.595 44.5071L233.642 44.6501C233.547 44.1577 233.483 43.6495 233.372 43.173L234.325 42.9666C234.42 43.4748 234.499 43.9989 234.595 44.5071Z" fill="white"/>
<path fill-rule="evenodd" clip-rule="evenodd" d="M234.833 47.3182L233.865 47.3341C233.849 46.8417 233.833 46.3335 233.77 45.8412L234.738 45.7459C234.801 46.27 234.817 46.7941 234.833 47.3182Z" fill="white"/>
<path fill-rule="evenodd" clip-rule="evenodd" d="M223.277 29.4196L222.911 30.3089L221.483 29.8801L221.769 28.9431L223.277 29.4196Z" fill="white"/>
<path fill-rule="evenodd" clip-rule="evenodd" d="M225.816 30.6424L225.34 31.4842L223.991 30.8171L224.403 29.9436L225.816 30.6424Z" fill="white"/>
<path fill-rule="evenodd" clip-rule="evenodd" d="M228.134 32.2465L227.515 32.9929C227.118 32.6912 226.705 32.4212 226.293 32.1353L226.832 31.3412C227.277 31.643 227.721 31.9288 228.134 32.2465Z" fill="white"/>
<path fill-rule="evenodd" clip-rule="evenodd" d="M214.99 27.8949L214.958 28.8637L213.45 28.816L213.434 27.8473L214.99 27.8949Z" fill="white"/>
<path fill-rule="evenodd" clip-rule="evenodd" d="M217.799 28.1014L217.672 29.0543C217.18 28.9749 216.688 28.8796 216.164 28.8955L216.243 27.9267C216.767 27.9267 217.275 28.022 217.799 28.1014Z" fill="white"/>
<path fill-rule="evenodd" clip-rule="evenodd" d="M220.562 28.5778L220.339 29.5148C219.863 29.3719 219.355 29.3401 218.863 29.2448L219.037 28.2919C219.53 28.3872 220.054 28.419 220.562 28.5778Z" fill="white"/>
<path fill-rule="evenodd" clip-rule="evenodd" d="M211.401 28.8002L210.433 28.7049C210.433 28.2285 210.591 27.7679 210.671 27.3073L211.607 27.5297C211.544 27.9426 211.385 28.3555 211.401 28.8002Z" fill="white"/>
<path fill-rule="evenodd" clip-rule="evenodd" d="M211.496 31.0872L210.544 31.2777C210.449 30.8013 210.433 30.3248 210.385 29.8484L211.353 29.8166C211.401 30.2295 211.401 30.6742 211.496 31.0872Z" fill="white"/>
<path fill-rule="evenodd" clip-rule="evenodd" d="M212.274 33.2312L211.417 33.6917C211.163 33.2788 211.02 32.8183 210.829 32.3736L211.75 32.0559C211.925 32.453 212.052 32.8659 212.274 33.2312Z" fill="white"/>
<path fill-rule="evenodd" clip-rule="evenodd" d="M213.639 35.1052L212.941 35.7722C212.608 35.4387 212.322 35.0576 212.036 34.6764L212.83 34.1205C213.084 34.4541 213.338 34.8034 213.639 35.1052Z" fill="white"/>
<path fill-rule="evenodd" clip-rule="evenodd" d="M215.401 36.6298L214.846 37.4239C214.48 37.1381 214.084 36.8681 213.75 36.5504L214.385 35.8199C214.703 36.1216 215.052 36.3599 215.401 36.6298Z" fill="white"/>
<path fill-rule="evenodd" clip-rule="evenodd" d="M217.417 37.8051L217.005 38.6786C216.576 38.4721 216.163 38.2498 215.766 38.0115L216.259 37.1857C216.64 37.4239 217.021 37.6304 217.417 37.8051Z" fill="white"/>
<path fill-rule="evenodd" clip-rule="evenodd" d="M204.322 26.2432L204.163 27.4185C203.639 27.4661 203.131 27.5296 202.623 27.6249V26.5132C203.179 26.3861 203.734 26.3067 204.322 26.2432Z" fill="white"/>
<path fill-rule="evenodd" clip-rule="evenodd" d="M207.528 26.1956L207.099 27.4343C206.544 27.3867 205.988 27.3708 205.433 27.3708L205.718 26.1638C206.322 26.1479 206.925 26.1638 207.528 26.1956Z" fill="white"/>
<path fill-rule="evenodd" clip-rule="evenodd" d="M210.846 26.624L210.148 27.8628C209.592 27.7516 209.021 27.6563 208.449 27.5769L209.005 26.3222C209.608 26.4016 210.227 26.4969 210.846 26.624Z" fill="white"/>
<path fill-rule="evenodd" clip-rule="evenodd" d="M197.686 30.5948L198.29 30.8965C198.194 31.2618 198.163 31.643 198.163 32.0241L197.575 31.9288C197.575 31.5 197.591 31.0395 197.686 30.5948Z" fill="white"/>
<path fill-rule="evenodd" clip-rule="evenodd" d="M198.956 28.3078L199.384 29.0701C199.226 29.1972 199.083 29.356 198.956 29.5148C198.813 29.6578 198.717 29.8483 198.622 30.023L198.067 29.4989C198.178 29.2766 198.305 29.0543 198.448 28.8637C198.606 28.6731 198.765 28.4825 198.956 28.3078Z" fill="white"/>
<path fill-rule="evenodd" clip-rule="evenodd" d="M201.337 26.8785L201.464 27.9267C201.019 28.0696 200.59 28.2602 200.194 28.4825L199.892 27.5614C200.352 27.2755 200.845 27.0532 201.337 26.8785Z" fill="white"/>
<path fill-rule="evenodd" clip-rule="evenodd" d="M198.273 34.7717L198.749 34.6605C198.828 34.8828 198.923 35.0893 199.019 35.2957C199.05 35.3752 198.987 35.5499 198.987 35.5499L198.669 35.6451C198.527 35.3752 198.384 35.0893 198.273 34.7717Z" fill="white"/>
<path fill-rule="evenodd" clip-rule="evenodd" d="M197.702 32.9294H198.242C198.273 33.2788 198.4 33.6123 198.48 33.9458L197.972 34.0252C197.892 33.6599 197.765 33.3105 197.702 32.9294Z" fill="white"/>
<path fill-rule="evenodd" clip-rule="evenodd" d="M218.831 18.0642L219.355 18.9694C219.069 19.1441 218.767 19.287 218.513 19.4935L217.974 18.62C218.228 18.3977 218.529 18.2389 218.831 18.0642Z" fill="white"/>
<path fill-rule="evenodd" clip-rule="evenodd" d="M220.72 17.5401L221.085 18.5247C220.736 18.5406 220.403 18.6518 220.053 18.6994L219.641 17.7306C220.006 17.6671 220.339 17.5559 220.72 17.5401Z" fill="white"/>
<path fill-rule="evenodd" clip-rule="evenodd" d="M222.784 17.4607L223.038 18.4453C222.657 18.3818 222.292 18.3977 221.927 18.4294L221.546 17.4607C221.943 17.4289 222.355 17.3971 222.784 17.4607Z" fill="white"/>
<path fill-rule="evenodd" clip-rule="evenodd" d="M225.212 18.3818L225.085 19.2235C224.689 18.9694 224.292 18.763 223.895 18.62L223.784 17.6671C224.244 17.8418 224.736 18.0801 225.212 18.3818Z" fill="white"/>
<path fill-rule="evenodd" clip-rule="evenodd" d="M227.673 20.4623L227.165 20.9705C226.816 20.5258 226.451 20.1288 226.07 19.7635L226.387 19.0488C226.832 19.4776 227.276 19.9541 227.673 20.4623Z" fill="white"/>
<path fill-rule="evenodd" clip-rule="evenodd" d="M214.863 21.7487L215.45 22.5269C215.259 22.7969 215.053 23.0351 214.878 23.3369L214.275 22.5746C214.45 22.2728 214.656 22.0187 214.863 21.7487Z" fill="white"/>
<path fill-rule="evenodd" clip-rule="evenodd" d="M216.005 20.3511L216.577 21.1611L215.926 21.8916L215.338 21.0976L216.005 20.3511Z" fill="white"/>
<path fill-rule="evenodd" clip-rule="evenodd" d="M217.306 19.1123L217.862 19.9699C217.592 20.1446 217.37 20.4146 217.132 20.6211L216.56 19.7952C216.814 19.557 217.036 19.3029 217.306 19.1123Z" fill="white"/>
<path fill-rule="evenodd" clip-rule="evenodd" d="M212.211 26.5291L212.814 27.212L212.433 28.1649L211.814 27.4979L212.211 26.5291Z" fill="white"/>
<path fill-rule="evenodd" clip-rule="evenodd" d="M212.973 24.8456L213.576 25.5603L213.148 26.4814L212.529 25.7826L212.973 24.8456Z" fill="white"/>
<path fill-rule="evenodd" clip-rule="evenodd" d="M213.846 23.2575L214.449 24.0039C214.258 24.2739 214.116 24.5915 213.957 24.8774L213.354 24.1468C213.512 23.8451 213.655 23.5275 213.846 23.2575Z" fill="white"/>
<path fill-rule="evenodd" clip-rule="evenodd" d="M207.973 29.9119L208.766 30.7218C208.401 31.103 208.1 31.5477 207.75 31.9447L206.909 31.1665C207.274 30.7536 207.607 30.3089 207.973 29.9119Z" fill="white"/>
<path fill-rule="evenodd" clip-rule="evenodd" d="M209.972 27.8473L210.703 28.7208C210.338 29.0702 209.957 29.4354 209.623 29.8166L208.861 28.9749C209.21 28.5619 209.591 28.2125 209.972 27.8473Z" fill="white"/>
<path fill-rule="evenodd" clip-rule="evenodd" d="M203.019 37.6303L204.051 38.1227L203.48 39.695L202.416 39.2979L203.019 37.6303Z" fill="white"/>
<path fill-rule="evenodd" clip-rule="evenodd" d="M204.432 34.8193L205.385 35.4546C205.083 35.9151 204.845 36.4234 204.607 36.9157L203.606 36.3598C203.86 35.8199 204.114 35.2958 204.432 34.8193Z" fill="white"/>
<path fill-rule="evenodd" clip-rule="evenodd" d="M206.099 32.2465L206.972 32.9929L206.036 34.327L205.131 33.6441L206.099 32.2465Z" fill="white"/>
<path fill-rule="evenodd" clip-rule="evenodd" d="M202.067 47.1435L203.131 46.8894C203.306 47.3976 203.401 47.9375 203.655 48.414L202.655 48.8269C202.385 48.3028 202.274 47.6993 202.067 47.1435Z" fill="white"/>
<path fill-rule="evenodd" clip-rule="evenodd" d="M201.686 43.9195L202.797 43.9671C202.781 44.523 202.781 45.0788 202.893 45.6188L201.797 45.73C201.686 45.1265 201.67 44.523 201.686 43.9195Z" fill="white"/>
<path fill-rule="evenodd" clip-rule="evenodd" d="M202.051 40.7114L203.147 41.0131C202.972 41.5531 202.972 42.109 202.877 42.6648L201.766 42.506C201.861 41.9025 201.861 41.2831 202.051 40.7114Z" fill="white"/>
<path fill-rule="evenodd" clip-rule="evenodd" d="M207.417 54.3855L208.004 53.5597L209.274 54.322L208.766 55.1796L207.417 54.3855Z" fill="white"/>
<path fill-rule="evenodd" clip-rule="evenodd" d="M205.179 52.4956L205.941 51.7809L206.464 52.3368C206.655 52.5115 206.861 52.6544 207.068 52.8132L206.401 53.5914C206.194 53.4167 205.972 53.2579 205.766 53.0832L205.179 52.4956Z" fill="white"/>
<path fill-rule="evenodd" clip-rule="evenodd" d="M203.289 50.0975L204.226 49.5734C204.512 50.0181 204.829 50.4469 205.115 50.8757L204.274 51.5268C203.956 51.0504 203.591 50.5898 203.289 50.0975Z" fill="white"/>
<path d="M233.69 46.1112L232.261 44.0624C232.261 44.0624 231.309 42.506 232.722 41.0132C233.357 40.3461 234.023 40.1873 234.563 40.3938L235.341 40.7749C235.341 40.7749 235.452 41.9184 235.277 42.3949C234.944 43.2842 234.896 43.2842 234.658 43.8877C234.42 44.4912 234.388 46.4764 234.388 46.4764L233.69 46.1112Z" fill="#E25C24"/>
<path d="M231.943 42.6172C231.975 42.3155 232.055 41.982 232.245 41.6484C232.277 41.5849 232.324 41.5214 232.372 41.442C232.467 41.299 232.578 41.1402 232.721 40.9973C233.356 40.3303 234.023 40.1715 234.563 40.3779L235.341 40.7591C235.341 40.7591 235.388 41.2832 235.372 41.7755L232.69 43.046L231.943 42.6172Z" fill="#FF805A"/>
<path d="M233.674 40.362L234.436 40.7591L233.261 41.7596L232.483 41.2831C232.563 41.1878 232.642 41.0926 232.721 40.9973C233.023 40.6638 233.356 40.4573 233.674 40.362Z" fill="#FF9280"/>
<path d="M234.388 46.4606L232.959 44.4119C232.959 44.4119 232.007 42.8555 233.42 41.3626C235.039 39.6474 236.515 41.2832 235.976 42.7284C235.642 43.6178 235.595 43.6178 235.356 44.2213C234.88 45.46 234.388 46.4606 234.388 46.4606Z" fill="#C4341A"/>
<path d="M233.436 42.3631C233.166 43.0778 233.325 43.8242 233.801 43.9989C234.277 44.1736 234.88 43.7448 235.166 43.0143C235.436 42.2996 235.277 41.5532 234.801 41.3785C234.325 41.2038 233.722 41.6326 233.436 42.3631Z" fill="#EAB328"/>
<path d="M233.562 42.4108C233.293 43.1254 233.451 43.8719 233.927 44.0466C234.404 44.2213 235.007 43.7925 235.293 43.0619C235.563 42.3472 235.404 41.6008 234.928 41.4261C234.451 41.2514 233.832 41.6802 233.562 42.4108Z" fill="#E5860C"/>
<path d="M218.528 38.3806L219.956 36.3318C219.956 36.3318 220.909 34.7754 219.496 33.2826C218.861 32.6155 218.194 32.4567 217.654 32.6632L216.877 33.0443C216.877 33.0443 216.765 34.1878 216.94 34.6643C217.273 35.5536 217.321 35.5536 217.559 36.1571C217.797 36.7607 217.829 38.7459 217.829 38.7459L218.528 38.3806Z" fill="#C4341A"/>
<path d="M220.275 34.8828C220.243 34.5811 220.164 34.2476 219.974 33.9141C219.942 33.8505 219.894 33.787 219.847 33.7076C219.751 33.5647 219.64 33.4058 219.497 33.2629C218.862 32.5959 218.196 32.4371 217.656 32.6435L216.878 33.0247C216.878 33.0247 216.83 33.5488 216.846 34.0411L219.529 35.3116L220.275 34.8828Z" fill="#FF805A"/>
<path d="M218.561 32.6277L217.799 33.0247L218.973 34.0253L219.751 33.5488C219.672 33.4535 219.592 33.3582 219.513 33.2629C219.196 32.9294 218.862 32.7229 218.561 32.6277Z" fill="#FF9280"/>
<path d="M217.83 38.7262L219.259 36.6775C219.259 36.6775 220.212 35.1211 218.799 33.6282C217.179 31.913 215.703 33.5488 216.243 34.994C216.576 35.8834 216.624 35.8834 216.862 36.4869C217.338 37.7257 217.83 38.7262 217.83 38.7262Z" fill="#E25C24"/>
<path d="M218.783 34.6287C219.053 35.3434 218.894 36.0898 218.418 36.2645C217.942 36.4392 217.338 36.0104 217.053 35.2799C216.783 34.5652 216.942 33.8188 217.418 33.6441C217.894 33.4694 218.497 33.8982 218.783 34.6287Z" fill="#E5860C"/>
<path d="M218.656 34.6764C218.926 35.3911 218.767 36.1375 218.291 36.3122C217.815 36.4869 217.212 36.0581 216.926 35.3275C216.656 34.6129 216.815 33.8664 217.291 33.6917C217.767 33.517 218.386 33.9458 218.656 34.6764Z" fill="#EAB328"/>
<path d="M210.307 28.4031C210.482 29.1178 211.466 29.4831 212.498 29.2131C213.53 28.959 214.228 28.1808 214.054 27.4661C213.879 26.7514 212.895 26.3862 211.863 26.6562C210.831 26.9103 210.133 27.6885 210.307 28.4031Z" fill="#E5860C"/>
<path d="M210.212 27.9902C210.386 28.7049 211.371 29.0702 212.402 28.8002C213.434 28.5461 214.133 27.7679 213.958 27.0532C213.783 26.3385 212.799 25.9732 211.767 26.2432C210.736 26.4973 210.037 27.2755 210.212 27.9902Z" fill="#EAB328"/>
<path d="M211.688 27.752H212.228C212.355 27.752 212.45 27.6567 212.45 27.5296V23.3845C212.45 23.2575 212.355 23.1622 212.228 23.1622H211.688C211.561 23.1622 211.466 23.2575 211.466 23.3845V27.5296C211.466 27.6408 211.561 27.752 211.688 27.752Z" fill="#E25C24"/>
<path d="M210.692 25.5904C209.892 24.9773 209.739 23.831 210.352 23.03C210.965 22.229 212.111 22.0767 212.912 22.6897C213.712 23.3028 213.865 24.4492 213.252 25.2502C212.639 26.0512 211.493 26.2035 210.692 25.5904Z" fill="#C4341A"/>
<path d="M210.433 23.7657C210.433 24.4486 210.989 25.0045 211.672 25.0045C212.354 25.0045 212.91 24.4486 212.91 23.7657C212.91 23.0828 212.354 22.5269 211.672 22.5269C210.989 22.5269 210.433 23.0828 210.433 23.7657Z" fill="#E25C24"/>
<path d="M210.783 23.5275C210.783 23.9404 211.116 24.2739 211.529 24.2739C211.942 24.2739 212.275 23.9404 212.275 23.5275C212.275 23.1146 211.942 22.781 211.529 22.781C211.132 22.781 210.783 23.1146 210.783 23.5275Z" fill="#FF805A"/>
<path opacity="0.38" d="M170.047 72.046L179.381 76.1434L197.003 67.4085L217.989 77.5728L201.575 85.7201L215.687 92.6762L191.494 104.699L147.203 83.3855L170.047 72.046Z" fill="#2697B2"/>
<path d="M193.812 78.3827C194.066 78.2398 194.304 78.2239 194.494 78.3192L196.257 79.3515L194.828 82.3849L193.113 81.5273C192.859 81.4002 192.701 80.9238 192.701 80.4632C192.716 79.6691 193.193 78.7321 193.812 78.3827Z" fill="#002B6A"/>
<path d="M195.525 79.3991C196.129 79.0497 196.621 79.415 196.621 80.225C196.621 81.035 196.129 81.972 195.525 82.3214C194.922 82.6708 194.43 82.3055 194.43 81.4955C194.43 80.6856 194.922 79.7485 195.525 79.3991Z" fill="#11487F"/>
<path d="M195.526 80.3044C195.764 80.1773 195.939 80.3203 195.939 80.622C195.939 80.9238 195.748 81.2891 195.526 81.4161C195.288 81.5432 195.113 81.4002 195.113 81.0985C195.113 80.7967 195.304 80.4473 195.526 80.3044Z" fill="#002B6A"/>
<path d="M206.21 77.8745C206.401 77.7792 206.639 77.7951 206.893 77.938C207.496 78.2874 207.988 79.2244 207.988 80.0344C207.988 80.495 207.893 80.9397 207.639 81.0667L205.861 81.9402L204.432 78.9068L206.21 77.8745Z" fill="#002B6A"/>
<path d="M205.162 78.9545C205.765 79.3039 206.257 80.2409 206.257 81.0508C206.257 81.8608 205.765 82.2261 205.162 81.8767C204.559 81.5273 204.067 80.5903 204.067 79.7803C204.067 78.9703 204.559 78.6051 205.162 78.9545Z" fill="#11487F"/>
<path d="M205.161 79.8597C205.4 79.9867 205.574 80.352 205.574 80.6538C205.574 80.9555 205.384 81.0985 205.161 80.9714C204.923 80.8443 204.749 80.4791 204.749 80.1773C204.733 79.8597 204.923 79.7168 205.161 79.8597Z" fill="#002B6A"/>
<path d="M196.352 72.2206C196.511 72.1412 196.733 72.1412 196.955 72.2842C197.495 72.6018 197.924 73.4276 197.924 74.1423C197.924 74.5552 197.797 74.9523 197.574 75.0634L196.05 75.8258L194.78 73.1259L196.352 72.2206Z" fill="#002B6A"/>
<path d="M195.432 73.1894C195.972 73.507 196.4 74.3329 196.4 75.0476C196.4 75.7623 195.972 76.0958 195.432 75.7781C194.892 75.4605 194.463 74.6347 194.463 73.92C194.448 73.2053 194.892 72.8718 195.432 73.1894Z" fill="#11487F"/>
<path d="M195.432 73.9835C195.638 74.0947 195.797 74.4282 195.797 74.6981C195.797 74.9681 195.638 75.0952 195.432 74.984C195.226 74.8728 195.067 74.5393 195.067 74.2693C195.051 73.9994 195.226 73.8723 195.432 73.9835Z" fill="#002B6A"/>
<path d="M203.973 72.2842C204.195 72.1571 204.417 72.1412 204.576 72.2206L206.148 73.1418L204.878 75.8416L203.354 75.0793C203.131 74.9681 203.004 74.5552 203.004 74.1423C203.004 73.4276 203.433 72.6018 203.973 72.2842Z" fill="#002B6A"/>
<path d="M205.512 73.1894C206.052 72.8718 206.48 73.2053 206.48 73.92C206.48 74.6346 206.052 75.4764 205.512 75.7781C204.972 76.0958 204.543 75.7623 204.543 75.0476C204.543 74.3329 204.972 73.507 205.512 73.1894Z" fill="#11487F"/>
<path d="M205.512 73.9993C205.718 73.8882 205.877 73.9993 205.877 74.2852C205.877 74.5552 205.718 74.8728 205.512 74.9999C205.306 75.1111 205.147 74.9999 205.147 74.714C205.131 74.4281 205.306 74.1105 205.512 73.9993Z" fill="#002B6A"/>
<path d="M198.496 75.4446L194.575 73.2053L194.337 72.3477L199.052 74.3964L198.496 75.4446Z" fill="#16808E"/>
<path d="M199.877 72.9353L200.909 74.0947L199.067 74.4758L194.336 72.3477L195.924 71.6647L199.877 72.9353Z" fill="#3399AA"/>
<path d="M207.242 73.2053L203.321 75.4446L202.75 74.3964L207.48 72.3477L207.242 73.2053Z" fill="#16808E"/>
<path d="M205.813 71.633L207.48 72.3477L202.75 74.4758L200.892 74.0946L201.988 72.9353L205.813 71.633Z" fill="#3399AA"/>
<path d="M200.893 76.7628L194.48 80.4949L192.654 79.6691L192.225 78.8115L200.893 74.984V76.7628Z" fill="#16808E"/>
<path d="M200.893 74.0946V75.651L194.21 79.685L192.225 78.8115L199.274 74.0946H200.893Z" fill="#3399AA"/>
<path d="M208.814 79.8279L207.322 80.4949L200.892 76.7628V74.984L209.322 78.9227L208.814 79.8279Z" fill="#16808E"/>
<path d="M209.322 78.9226L207.592 79.685L200.892 75.651V74.0946H202.528L209.322 78.9226Z" fill="#3399AA"/>
<path d="M202.75 72.5065V74.0311C202.75 74.8729 201.924 75.5717 200.908 75.5717C199.892 75.5717 199.067 74.8887 199.067 74.0311V72.5065C199.765 71.093 202.638 71.1724 202.75 72.5065Z" fill="#16808E"/>
<path d="M202.75 72.3477C202.782 72.4588 202.734 72.5065 202.734 72.5065C202.734 73.3006 201.845 73.8882 200.892 73.8882C199.94 73.8882 199.051 73.3006 199.051 72.5065L199.162 72.0459C199.956 70.9501 202.448 70.9342 202.75 72.3477Z" fill="#3399AA"/>
<path d="M202.051 72.6812C202.051 73.2053 201.527 73.5229 200.892 73.5229C200.066 73.5229 199.654 73.0782 199.654 72.57V68.1073L202.051 68.2185V72.6812Z" fill="white"/>
<path opacity="0.19" d="M201.861 73.1417C201.734 73.2847 201.559 73.4117 201.337 73.4594V69.9336L201.861 69.9813V73.1417Z" fill="#16808E"/>
<path d="M202.591 69.3142C202.591 70.1083 201.813 70.7595 200.861 70.7595C199.908 70.7595 199.13 70.1083 199.13 69.3142V62.5645H202.591V69.3142Z" fill="#3399AA"/>
<path d="M197.05 56.2119L202.13 52.2733C202.13 50.701 198.94 40.8702 200.495 41.6643L211.258 46.9847C211.973 47.3341 211.957 47.8264 211.957 48.5411L211.798 49.8116L211.354 54.0838L212.068 59.2612L211.592 62.9616C211.243 63.6445 210.639 64.2481 209.607 64.7404L198.178 70.5848C197.527 70.2513 188.7 65.6298 188.7 64.9786L186.16 63.9781C186.16 63.3269 185.335 62.7869 185.843 61.8023L197.05 56.2119Z" fill="#AB2B39"/>
<path d="M196.987 43.5542C197.035 42.0296 197.813 40.7432 199.241 40.9814L211.275 46.9847C210.862 46.7782 209.64 46.5876 209.306 48.684L208.846 53.8932L209.83 58.9277L209.227 62.104C209.227 62.104 207.862 61.564 207.179 61.2305L197.035 56.196L197.559 53.0832L196.733 48.4458L196.987 43.5542Z" fill="#E54040"/>
<path d="M186.382 61.5482L198.273 67.5355C197.13 68.1073 196.638 69.8225 198.177 70.6007L186.366 64.7721C185.827 64.5022 185.287 63.9304 185.223 63.3428C185.192 63.1522 185.208 63.041 185.208 62.8346C185.192 61.9452 186.382 61.5482 186.382 61.5482Z" fill="#E54040"/>
<path d="M198.463 41.2355C198.812 41.0608 199.288 41.1879 199.622 41.3626L209.75 46.3494C210.655 46.7306 210.29 46.8418 210.29 46.8418C209.94 47.0165 209.385 47.0165 209.036 46.8418L198.907 41.8708C198.463 41.6643 198.002 41.4579 198.463 41.2355Z" fill="#FF6161"/>
<path d="M198.401 55.5449L208.053 59.8647C208.037 59.9283 209.227 62.104 209.227 62.104L197.115 68.0914L185.685 62.5487L186.383 61.5323L198.401 55.5449Z" fill="#E54040"/>
<path d="M187.43 61.2147L195.685 57.0854C196.653 56.609 197.78 56.609 198.749 57.0854L207.004 61.2147C207.448 61.437 207.448 62.0723 207.004 62.2946L199.162 66.2174C197.939 66.8209 196.495 66.8209 195.272 66.2174L187.43 62.2946C186.986 62.0723 186.986 61.437 187.43 61.2147Z" fill="#FF6161"/>
<path opacity="0.37" d="M209.829 58.9436L197.574 53.115L196.748 48.4617L208.861 53.925L209.829 58.9436Z" fill="#AB2B39"/>
<path d="M186.034 51.0186C185.748 52.2097 187.987 43.8083 187.987 43.8083L194.464 42.8554L188.669 53.7185L183.97 56.609L182.081 54.592C182.065 54.592 186.066 50.8757 186.034 51.0186Z" fill="#002756"/>
<path d="M179.398 76.6516L180.573 75.5081H180.589C180.589 75.5081 183.827 75.4605 184.637 76.3499C184.558 76.731 184.351 77.7951 184.288 78.0016C184.177 78.0651 181.351 79.0815 181.129 79.1927C180.954 79.288 178.779 80.1456 178.779 80.1456L177.255 78.748L177.462 77.938L179.398 76.6516Z" fill="#002B6A"/>
<path d="M192.765 82.4325C192.765 82.4325 192.765 82.4167 192.781 82.4008C192.892 82.0673 196.543 80.8603 197.353 81.4797C197.353 81.4955 197.591 82.3055 197.623 82.5437C197.464 82.7502 197.194 83.0837 196.845 83.4649C196.734 83.306 196.48 83.4172 196.353 83.5443C196.146 83.7507 196.13 84.0207 196.114 84.2748C195.083 85.3865 193.241 86.9747 193.241 86.9747C192.86 87.0541 191.114 86.2759 191.114 86.2759L190.955 85.3865L192.289 83.7507C192.273 83.7666 192.701 82.6231 192.765 82.4325Z" fill="#002B6A"/>
<path d="M193.859 56.9108C193.859 56.8631 203.829 58.2131 203.924 58.1495C203.988 58.4989 204.178 60.4683 204.242 60.8018C204.289 61.2782 204.353 62.3264 204.353 62.3264L198.939 69.362L197.939 81.3526L195.51 83.2108L192.066 82.1785L192.812 68.7585L195.622 63.184L189.002 66.9162L184.731 77.0169L180.969 76.064L179.635 75.5876L183.89 63.8193C183.906 63.8034 193.859 57.1172 193.859 56.9108Z" fill="#002B6A"/>
<path d="M196.098 41.8867L200.845 43.856L203.195 48.0805L204.512 60.3888L201.671 60.0394L192.082 59.0706L191.765 55.529C191.765 55.529 191.542 54.5126 190.971 53.2579C190.304 51.7968 188.637 48.5411 188.637 48.5411L187.939 43.5384L189.796 41.839L196.098 41.8867Z" fill="#002B6A"/>
<path d="M195.273 43.6496C195.177 44.0466 194.86 44.7136 194.86 44.7136L194.558 45.2536L193.463 47.5088C193.463 47.5088 192.939 49.9069 192.971 51.0663C192.971 51.114 192.701 52.0033 192.717 52.051C192.447 51.2887 191.78 50.431 191.209 49.224C191.177 49.1446 191.161 49.0652 191.129 48.9699C190.844 47.9059 190.574 45.7301 190.574 45.7301C190.574 45.7301 190.574 45.0472 190.637 44.666C190.907 44.3484 195.066 43.999 195.273 43.6496Z" fill="#DCFFFF"/>
<path d="M191.272 44.6024C191.383 44.4277 191.811 44.1895 191.811 44.1895C191.986 44.3801 192.177 44.6024 192.351 44.8407C192.367 44.8565 192.383 44.8883 192.415 44.9201C192.272 45.3012 192.05 45.73 191.796 46.0477C191.875 46.937 192.637 48.7634 192.637 48.7634L193.002 51.0822L193.288 52.8291C193.224 52.7021 191.367 49.7322 191.367 49.7322L191.113 48.6523L191.208 46.0635L191.224 45.9683L191.018 44.9995C191.034 45.0154 191.192 44.7295 191.272 44.6024Z" fill="#FF5252"/>
<path d="M191.447 42.7761L191.669 43.7607C192.05 44.6024 194.717 43.8084 195.003 42.3472C195.003 42.2996 195.019 42.252 195.019 42.2043H195.034C195.4 42.5537 195.4 43.1096 195.273 43.6337C195.066 43.9831 194.431 44.5707 194.431 44.5707L192.78 45.4918H192.764C192.764 45.4918 191.987 44.3801 191.812 44.1895L191.272 44.6024L191.018 45.0154L190.907 45.1742C190.907 45.1742 190.685 44.8565 190.637 44.6819C190.653 44.6024 190.669 44.523 190.685 44.4595C190.812 43.9513 191.415 43.0302 191.447 42.7761Z" fill="white"/>
<path d="M189.622 44.7295C189.622 44.7295 190.225 43.3796 190.415 43.1572C190.701 43.2366 191.082 43.2525 191.352 43.2207C191.034 43.4431 190.828 43.9036 190.701 44.396C190.685 44.4754 190.669 44.5389 190.653 44.6183C190.574 44.9995 190.558 45.3965 190.59 45.6824C190.653 46.7941 190.86 47.8582 191.146 48.9223C191.161 49.0017 191.225 49.1764 191.225 49.1764L192.717 51.5269L193.13 52.3686L193.559 53.8297L189.669 47.89L189.336 46.2859L190.034 45.873L189.622 44.7295Z" fill="#11487F"/>
<path d="M194.559 45.2377C194.654 45.063 194.749 44.8883 194.86 44.6977C195.003 44.4119 195.178 44.0307 195.273 43.6337C195.4 43.1096 195.4 42.5537 195.035 42.2043H195.019C195.019 42.252 195.003 42.2996 195.003 42.3473C194.924 42.0296 194.829 41.712 194.749 41.3785C194.702 41.2038 194.654 41.045 194.606 40.8861C195.051 41.0926 196.067 41.8549 196.114 41.8708C196.527 42.4267 196.48 44.4913 196.48 44.4913L196.432 45.7936L195.527 46.0635L196.003 47.1276L194.305 49.224L193.559 53.8138L192.638 51.3521L193.479 47.477C193.463 47.4929 194.13 45.9841 194.559 45.2377Z" fill="#11487F"/>
<path d="M194.161 40.362C194.272 40.3938 194.367 40.3779 194.447 40.3303C194.494 40.4891 194.987 42.0773 195.066 42.3949C194.78 44.1578 191.954 44.5389 191.812 44.1895C191.796 44.1419 191.367 43.0619 191.399 43.0461C191.621 42.9825 194.002 40.6479 194.161 40.362Z" fill="#F89C69"/>
<path d="M191.351 37.3922C191.986 37.551 193.685 38.0751 193.685 38.0751C193.701 38.4404 195.971 38.8056 195.796 39.3456C195.653 39.7744 195.209 41.1879 194.812 41.2991C194.733 41.3149 194.637 41.2991 194.526 41.2514C194.447 41.5214 193.875 42.0455 193.875 42.0455C193.875 42.0455 191.51 43.2684 191.288 43.2684C191.256 43.2684 190.113 42.9031 190.113 42.9031L189.541 39.2027C189.541 39.2027 189.621 37.0586 189.668 36.8839C189.986 37.2016 190.891 37.2651 191.351 37.3922Z" fill="#FBB686"/>
<path d="M196.923 35.407L196.955 37.4716C196.955 37.4716 196.13 39.7427 195.51 40.902L195.241 41.5532L195.082 41.9026C195.082 41.9026 194.812 41.4579 194.828 41.2991C195.225 41.1879 195.336 40.2509 195.479 39.8379C195.653 39.298 195.05 39.2186 194.844 39.425L194.463 40.3462L193.891 40.6797L193.844 39.5044L194.113 38.7262L193.685 38.091C194.891 37.5669 196.923 35.407 196.923 35.407Z" fill="#11487F"/>
<path d="M190.873 34.2635C191.064 34.2 192.048 33.8347 192.334 33.7235C192.984 33.5488 195.334 33.8823 195.747 34.1841C195.747 34.1841 196.62 34.9305 196.89 35.407C195.953 36.3757 194.874 37.5669 193.667 38.0751C193.619 38.1069 193.191 38.218 193.191 38.218C192.461 38.3292 189.778 37.2334 189.778 37.2334C189.778 37.2334 189.301 36.6299 189.19 36.471C188.841 35.9311 189.111 34.7082 189.111 34.7082C189.174 34.6764 190.984 34.2317 190.873 34.2635Z" fill="#002B6A"/>
<path d="M191.796 41.5849L192.098 41.4896L191.78 41.9979C191.78 41.9979 191.383 42.2678 190.828 42.2043C190.272 42.1408 190.209 41.4261 190.209 41.4261C190.209 41.4261 191.748 41.6326 191.796 41.5849Z" fill="white"/>
<path d="M208.402 72.5859L208.418 91.1833C208.418 91.3898 208.275 91.5962 207.973 91.7551C207.386 92.0727 206.449 92.0727 205.862 91.7551C205.576 91.5962 205.433 91.3898 205.433 91.1833L205.401 72.5859C205.417 72.7924 208.402 72.7924 208.402 72.5859Z" fill="#002B6A"/>
<path d="M187.557 78.4462C188.494 78.9544 190.113 78.5892 190.113 77.8745L190.129 101.205C190.129 101.919 188.526 102.3 187.573 101.776C187.288 101.618 187.145 101.411 187.145 101.205L187.113 77.8745C187.129 78.0968 187.272 78.2874 187.557 78.4462Z" fill="#002B6A"/>
<path d="M158.729 66.6462L158.745 85.2277C158.745 85.9424 157.141 86.3235 156.189 85.7994C155.903 85.6406 155.76 85.4342 155.76 85.2277L155.728 66.6303C155.744 66.8526 158.729 67.3608 158.729 66.6462Z" fill="#002B6A"/>
<path d="M173.398 56.9425L173.414 75.5399C173.414 75.7464 173.271 75.9528 172.969 76.1116C172.382 76.4293 171.445 76.4293 170.858 76.1116C170.572 75.9528 170.429 75.7464 170.429 75.5399L170.397 56.9425C170.413 57.1648 173.398 57.1489 173.398 56.9425Z" fill="#002B6A"/>
<path d="M213.909 71.7283L191.081 83.0519L151.282 63.4222L174.11 52.0986L213.909 71.7283Z" fill="white"/>
<path d="M191.081 83.0519V84.0207L151.283 64.391V63.4222L191.081 83.0519Z" fill="#C5FFFD"/>
<path d="M213.909 71.7283V72.6812L191.081 84.0207V83.0519L213.909 71.7283Z" fill="#9AF4F4"/>
<path d="M189.399 61.7546L183.494 63.8033L167.444 55.7513L173.064 54.0043L189.399 61.7546Z" fill="#BFF7F3"/>
<path d="M189.399 61.7546L189.352 62.247L183.494 64.8992V63.8033L189.399 61.7546Z" fill="#9FEDEB"/>
<path d="M180.858 66.3928C180.842 66.3928 180.842 66.3765 180.826 66.3765L180.858 66.3603V66.3928Z" fill="#838E93"/>
<path d="M174.953 64.0892V65.185L170.92 67.202L162.586 63.0251V61.9452L170.905 66.1062L174.953 64.0892Z" fill="#86E2DE"/>
<path d="M166.872 60.0076L174.953 64.0892L170.905 66.1062L162.586 61.9452L162.602 61.9293L166.872 60.0076Z" fill="#BFF7F3"/>
<path d="M187.762 67.3926C187.812 67.4261 187.829 67.4261 187.762 67.3926V67.3926Z" fill="#D6DDE0"/>
<path d="M183.494 63.8033V64.8992L167.445 56.8631C167.429 56.8631 167.413 56.8472 167.397 56.8472V55.7672H167.429C167.714 55.8943 183.494 63.8033 183.494 63.8033Z" fill="#86E2DE"/>
<path d="M181.208 57.2284C181.208 57.2284 181.224 57.2284 181.208 57.2284C181.43 57.5142 181.525 57.8319 181.525 57.8319L181.224 58.4671L180.065 58.6736L178.382 59.8965L177.493 59.3883L177.414 59.1977L177.271 57.4348L178.668 56.7519C178.668 56.736 180.62 56.8313 181.208 57.2284Z" fill="#FBB686"/>
<path d="M174.953 65.1851L170.92 67.202L170.905 66.1062L174.953 64.0892V65.1851Z" fill="#9FEDEB"/>
<path d="M189.764 63.438L191.129 63.0569C191.447 63.0728 192.542 63.978 192.748 64.0892C192.748 64.8515 191.288 64.8198 191.129 65.6138C190.939 65.725 190.716 65.8679 190.478 65.9791C190.462 65.9791 190.431 65.995 190.415 66.0109C190.145 66.1379 186.795 66.5191 186.795 66.5191L186.287 64.8833L188.494 63.2475L189.764 63.438Z" fill="#F9A873"/>
<path d="M193.462 64.5498C193.462 64.7245 192.78 65.2327 192.78 65.2327L191.176 63.8033L190.367 63.0252L191.002 62.2628L193.462 64.5498Z" fill="white"/>
<path d="M197.447 47.5723L198.59 45.2377L200.845 44.8248L202.289 47.0005L200.4 58.0383L193.447 65.1056L190.748 62.5169L196.13 56.7995L197.447 47.5723Z" fill="#11487F"/>
<path d="M182.192 57.9748L181.573 58.4671L179.509 56.6725L180.207 56.1325L182.192 57.9748Z" fill="white"/>
<path d="M188.653 53.7026L182.398 58.1177L179.858 56.1484L186.034 51.0186L188.653 53.7026Z" fill="#002756"/>
<path d="M178.779 63.1839C178.779 63.2157 170.889 55.6402 170.889 55.6402L169.794 52.972L178.525 49.6528C178.541 50.0498 178.779 62.9616 178.779 63.1839Z" fill="#86E2DE"/>
<path d="M179.573 49.3352C179.573 49.3352 179.763 62.7393 179.763 62.7552L178.795 63.1681C178.795 62.9457 178.541 49.6369 178.541 49.6369L162.761 41.9025L163.682 41.4102L179.573 49.3352Z" fill="white"/>
<path d="M170.905 55.6402L178.779 63.184L162.936 55.3861L166.587 53.8932L170.905 55.6402Z" fill="#7DDBD6"/>
<path d="M170.794 64.0575L170.667 53.9885C170.667 53.9885 171.905 63.3745 171.905 63.4063L170.794 64.0575Z" fill="#9FEDEB"/>
<path d="M167.729 51.7492C167.793 51.7651 167.856 51.7809 167.936 51.7968C168.158 51.8445 168.396 51.9239 168.634 52.0509C169.063 52.2733 169.476 52.6227 169.809 52.9562C170.333 53.4644 170.666 53.9567 170.666 53.9567L170.793 64.0257L167.094 62.4058V52.305C167.094 52.305 167.031 51.638 167.729 51.7492Z" fill="#86E2DE"/>
<path d="M169.809 52.9721C169.476 52.6385 167.793 51.7968 167.73 51.7809L166.777 49.9228C166.777 49.9228 162.745 41.9343 162.761 41.9184L178.541 49.6528L169.809 52.9721Z" fill="#BFF7F3"/>
<path d="M166.588 53.8932L162.936 55.3861L162.809 42.0296L167.731 51.781C167.032 51.6698 166.588 53.8932 166.588 53.8932Z" fill="#86E2DE"/>
<path d="M167.483 54.6857C166.377 53.2685 166.181 51.5726 167.045 50.8979C167.909 50.2231 169.505 50.8251 170.612 52.2423C171.718 53.6596 171.914 55.3555 171.05 56.0302C170.186 56.7049 168.589 56.103 167.483 54.6857Z" fill="white"/>
<path d="M166.915 54.9758C165.809 53.5586 165.612 51.8627 166.476 51.188C167.34 50.5132 168.937 51.1152 170.043 52.5324C171.149 53.9497 171.345 55.6456 170.482 56.3203C169.618 56.995 168.021 56.3931 166.915 54.9758Z" fill="#86E2DE"/>
<path d="M179.763 62.7551L178.779 63.1839L178.525 49.6369L179.572 49.3352L179.763 62.7551Z" fill="#9FEDEB"/>
<path d="M208.862 70.0925V70.3625L198.416 75.6034V75.3334L208.862 70.0925Z" fill="#057893"/>
<path d="M198.417 75.3334V75.6034L191.305 72.0459V71.7759L198.417 75.3334Z" fill="#006A82"/>
<path d="M208.862 70.0925L198.416 75.3334L191.304 71.7759L201.75 66.5509L208.862 70.0925Z" fill="#168CA8"/>
<path d="M208.226 69.1396V70.1878L198.399 75.1111L198.415 74.047L208.226 69.1396Z" fill="#DEFFFC"/>
<path d="M198.399 75.1111L191.858 71.8395V70.7913L198.415 74.047L198.399 75.1111Z" fill="#86E2DE"/>
<path d="M208.86 68.552V68.822L198.415 74.047V73.7929L208.86 68.552Z" fill="#057893"/>
<path d="M198.415 73.7929V74.047L191.303 70.5054V70.2354L198.415 73.7929Z" fill="#006A82"/>
<path d="M208.86 68.552L198.414 73.7929L191.302 70.2354L201.748 65.0104L208.86 68.552Z" fill="#168CA8"/>
<path d="M206.925 67.9326V68.1708L197.813 72.7289L197.828 72.4906L206.925 67.9326Z" fill="#53CAD3"/>
<path d="M197.828 72.4906L197.812 72.7288L191.621 69.6319V69.4096L197.828 72.4906Z" fill="#30B7C1"/>
<path d="M206.924 67.9326L197.828 72.4906L191.621 69.4096L200.733 64.8515L206.924 67.9326Z" fill="#9FEDEB"/>
<path d="M206.37 67.1067V68.012L197.813 72.3V71.3789L206.37 67.1067Z" fill="#DEFFFC"/>
<path d="M197.812 72.3L192.113 69.4572V68.5361L197.812 71.3789V72.3Z" fill="#86E2DE"/>
<path d="M206.924 66.5985V66.8209L197.812 71.3789L197.828 71.1566L206.924 66.5985Z" fill="#53CAD3"/>
<path d="M197.828 71.1566L197.812 71.3789L191.621 68.2979V68.0597L197.828 71.1566Z" fill="#30B7C1"/>
<path d="M206.925 66.5985L197.828 71.1566L191.621 68.0596L200.734 63.5016L206.925 66.5985Z" fill="#9FEDEB"/>
<path d="M189.683 64.788L190.731 74.8411L183.19 77.4616L183.222 68.012L189.683 64.788Z" fill="#9FEDEB"/>
<path d="M191.001 65.4862L184.715 68.6149L183.302 68.059L189.557 64.8986L191.001 65.4862Z" fill="white"/>
<path d="M191.318 65.471L191.302 75.127L184.825 78.351L184.857 68.6949L191.318 65.471Z" fill="#86E2DE"/>
<path d="M189.683 64.7881L183.428 67.9009L184.905 68.5202L191.159 65.3916L191.318 65.471L184.857 68.6949L183.079 67.9326L189.524 64.7086L189.683 64.7881Z" fill="#BFF7F3"/>
<path d="M184.857 68.6949L184.825 78.351L183.047 77.4616L183.079 67.9326L184.857 68.6949Z" fill="#9FEDEB"/>
<path opacity="0.5" d="M183.872 76.5564C184.142 76.6834 184.349 77.001 184.349 77.271C184.349 77.541 184.142 77.6363 183.872 77.5092C183.602 77.3822 183.396 77.0646 183.396 76.7946C183.396 76.5246 183.618 76.4134 183.872 76.5564Z" fill="#0F506C"/>
<path opacity="0.21" d="M184.396 69.219L184.38 76.2705L183.443 75.8576L183.459 68.8061L184.396 69.219Z" fill="#168CA8"/>
<path d="M192.526 66.8527L194.526 76.6358L186.033 78.9863L186.065 70.0608L192.526 66.8527Z" fill="#168CA8"/>
<path d="M194.797 68.0113L188.542 71.1559L186.176 70.1077L192.431 66.9632L194.797 68.0113Z" fill="#FDFDFD"/>
<path d="M195.114 68.012L195.082 76.9216L188.621 80.1456L188.652 71.236L195.114 68.012Z" fill="#02567D"/>
<path d="M192.525 66.8526L186.255 69.9655L188.7 71.0613L194.938 67.9326L195.113 68.012L188.652 71.236L188.557 71.1883L185.906 69.9813L192.351 66.7732L192.525 66.8526Z" fill="#29ACC1"/>
<path d="M188.652 71.236L188.62 80.1456L185.89 78.9069L185.906 69.9813L188.652 71.236Z" fill="#168CA8"/>
<path d="M187.255 77.0487C187.684 77.2551 188.017 77.7792 188.017 78.1921C188.017 78.6209 187.668 78.7797 187.255 78.5733C186.827 78.3668 186.493 77.8427 186.493 77.4298C186.493 77.0169 186.843 76.8422 187.255 77.0487Z" fill="#02567D"/>
<path opacity="0.58" d="M187.937 72.57L187.921 76.604L186.429 75.9528L186.445 71.9189L187.937 72.57Z" fill="#86E2DE"/>
<path d="M195.765 68.4884L196.812 77.7951L189.272 80.622L189.303 71.6965L195.765 68.4884Z" fill="#057893"/>
<path d="M197.098 69.1866L190.796 72.3153L189.383 71.7435L195.638 68.599L197.098 69.1866Z" fill="#FDFDFD"/>
<path d="M197.4 69.1714L197.368 78.081L190.907 81.305L190.939 72.3795L197.4 69.1714Z" fill="#006A82"/>
<path d="M196.574 70.7119L196.543 76.2069L191.749 78.6051L191.764 73.11L196.574 70.7119Z" fill="#057893"/>
<path d="M195.764 68.4885L189.493 71.6013L190.97 72.2048L197.224 69.092L197.399 69.1714L190.938 72.3795L190.843 72.3318L189.144 71.6172L195.589 68.409L195.764 68.4885Z" fill="#168CA8"/>
<path d="M190.938 72.3795L190.906 81.305L189.129 80.5427L189.144 71.6171L190.938 72.3795Z" fill="#057893"/>
<path opacity="0.22" d="M97.2942 95.1378L97.2466 58.6736L148.015 84.7036V120.707L97.2942 95.1378Z" fill="white"/>
<path opacity="0.22" d="M98.421 94.8674L98.3734 58.4031L149.141 84.4331V120.056L98.421 94.8674Z" fill="white"/>
<path opacity="0.22" d="M100.819 76.0322L100.898 71.3789L114.011 78.0174L113.931 82.6707L100.819 76.0322Z" fill="white"/>
<path opacity="0.22" d="M100.819 81.8131L100.898 77.1598L114.011 83.7983L113.931 88.4516L100.819 81.8131Z" fill="white"/>
<path opacity="0.22" d="M100.819 87.7052L100.898 83.0519L114.011 89.6904L113.931 94.3437L100.819 87.7052Z" fill="white"/>
<path opacity="0.31" d="M129.822 89.8651L129.695 79.6373L144.617 87.197L144.76 97.4248L129.822 89.8651Z" fill="white"/>
<path opacity="0.31" d="M117.026 99.7435L117.011 73.3006L125.869 77.8745V104.317L117.026 99.7435Z" fill="white"/>
<path opacity="0.31" d="M140.711 112.036V100.236L144.68 102.205V114.085L140.711 112.036Z" fill="white"/>
<path opacity="0.31" d="M135.235 109.415V97.6154L139.22 99.5847V111.48L135.235 109.415Z" fill="white"/>
<path opacity="0.31" d="M129.695 106.588V94.8043L133.679 96.7736V108.653L129.695 106.588Z" fill="white"/>
<path opacity="0.31" d="M129.758 93.7879L129.694 91.4692L144.617 99.0288L144.68 101.332L129.758 93.7879Z" fill="white"/>
<path opacity="0.22" d="M100.819 70.1877L100.898 65.5344L114.011 72.1729L113.931 76.8263L100.819 70.1877Z" fill="white"/>
<path opacity="0.22" d="M100.85 91.9456L100.898 88.9916L114.011 95.6301L113.963 98.5841L100.85 91.9456Z" fill="white"/>
<path opacity="0.64" d="M140.649 89.4363L140.697 86.0376L143.745 87.5464L143.697 90.9451L140.649 89.4363Z" fill="white"/>
<g opacity="0.54">
<path opacity="0.64" d="M101.326 67.9326L101.342 66.2967L109.74 70.6483L109.708 72.2841L101.326 67.9326Z" fill="white"/>
<path opacity="0.64" d="M101.103 73.8564L101.135 72.2047L109.533 76.5563L109.501 78.208L101.103 73.8564Z" fill="white"/>
<path opacity="0.64" d="M101.071 85.3706L101.103 83.7348L109.501 88.0864L109.469 89.7222L101.071 85.3706Z" fill="white"/>
<path opacity="0.64" d="M110.136 74.2376L110.2 70.8389L113.248 72.3635L113.185 75.7622L110.136 74.2376Z" fill="white"/>
<path opacity="0.45" d="M122.9 89.1187L122.916 80.7809L124.646 81.6385L124.63 89.9763L122.9 89.1187Z" fill="white"/>
<path opacity="0.54" d="M117.883 98.5206V94.4867L124.995 98.1553L124.979 102.173L117.883 98.5206Z" fill="white"/>
<path opacity="0.45" d="M120.614 88.0228L120.63 79.685L122.36 80.5426L122.344 88.8804L120.614 88.0228Z" fill="white"/>
<path opacity="0.45" d="M117.915 77.2392V75.3811L125.027 78.7797L125.011 80.622L117.915 77.2392Z" fill="white"/>
<path opacity="0.64" d="M130.932 83.3854L130.948 81.5272L139.203 85.4024V87.2605L130.932 83.3854Z" fill="white"/>
<path opacity="0.64" d="M110.136 80.2567L110.2 76.858L113.248 78.3668L113.185 81.7655L110.136 80.2567Z" fill="white"/>
<path opacity="0.64" d="M110.136 85.9265L110.2 82.5278L113.248 84.0366L113.185 87.4352L110.136 85.9265Z" fill="white"/>
<path opacity="0.64" d="M110.136 91.9615L110.2 88.5629L113.248 90.0716L113.185 93.4703L110.136 91.9615Z" fill="white"/>
</g>
<path d="M148.015 84.7036L149.142 84.4336L98.0087 58.213L97.2467 58.6735L148.015 84.7036Z" fill="white"/>
<path opacity="0.39" d="M148.014 120.707L149.141 120.056V84.4336L148.014 84.7036V120.707Z" fill="white"/>
<path opacity="0.29" d="M91.5308 77.0804L91.515 42.776L115.502 54.989L115.438 89.2298L91.5308 77.0804Z" fill="#E1FEFF"/>
<path opacity="0.29" d="M93.1183 53.5596L93.0072 46.1588L114.311 56.4342L114.28 63.7556L93.1183 53.5596Z" fill="#E1FEFF"/>
<path opacity="0.29" d="M93.0072 62.0722V54.7349L114.311 65.0103L114.184 72.2841L93.0072 62.0722Z" fill="#E1FEFF"/>
<path d="M115.499 54.989L116.483 54.6713L92.1948 42.4107L91.5122 42.776L115.499 54.989Z" fill="white"/>
<path opacity="0.46" d="M115.502 54.989L115.438 89.2298L116.502 88.8487L116.486 54.6714L115.502 54.989Z" fill="white"/>
<path opacity="0.29" d="M143.347 95.6778L143.331 75.4605L167.302 87.6735L167.239 107.843L143.347 95.6778Z" fill="#E1FEFF"/>
<path opacity="0.29" d="M145.046 86.0377L144.935 78.6368L165.413 88.8328L165.382 96.1543L145.046 86.0377Z" fill="#E1FEFF"/>
<path d="M167.299 87.6735L168.299 87.3558L144.01 75.0952L143.328 75.4605L167.299 87.6735Z" fill="white"/>
<path opacity="0.46" d="M167.302 87.6735L167.239 107.843L168.318 107.446L168.302 87.3558L167.302 87.6735Z" fill="white"/>
<defs>
<radialGradient id="paint0_radial" cx="0" cy="0" r="1" gradientUnits="userSpaceOnUse" gradientTransform="translate(174.648 97.9874) rotate(180) scale(141.063 141.123)">
<stop stop-color="white"/>
<stop offset="0.2161" stop-color="#FAFDFE"/>
<stop offset="0.4584" stop-color="#EDF9FA"/>
<stop offset="0.7134" stop-color="#D6F1F5"/>
<stop offset="0.9756" stop-color="#B7E6ED"/>
<stop offset="1" stop-color="#B4E5EC"/>
</radialGradient>
<linearGradient id="paint1_linear" x1="171.867" y1="40.6413" x2="181.013" y2="145.136" gradientUnits="userSpaceOnUse">
<stop stop-color="#A1F3FF"/>
<stop offset="0.187" stop-color="#C2F7FF"/>
<stop offset="0.382" stop-color="#DDFBFF"/>
<stop offset="0.581" stop-color="#F0FDFF"/>
<stop offset="0.7847" stop-color="#FBFFFF"/>
<stop offset="1" stop-color="white"/>
</linearGradient>
<linearGradient id="paint2_linear" x1="179.407" y1="139.967" x2="179.407" y2="40.3651" gradientUnits="userSpaceOnUse">
<stop stop-color="#6BCFDA"/>
<stop offset="0.3746" stop-color="#5BB9C8"/>
<stop offset="1" stop-color="#3A8BA3"/>
</linearGradient>
<linearGradient id="paint3_linear" x1="174.873" y1="175.236" x2="174.873" y2="-2.56432" gradientUnits="userSpaceOnUse">
<stop offset="0.062208" stop-color="white"/>
<stop offset="0.1595" stop-color="#D1F0F3"/>
<stop offset="0.2869" stop-color="#9ADEE6"/>
<stop offset="0.3822" stop-color="#78D3DD"/>
<stop offset="0.4338" stop-color="#6BCFDA"/>
<stop offset="0.6652" stop-color="#4BA6BC"/>
<stop offset="0.8746" stop-color="#3185A3"/>
<stop offset="0.991" stop-color="#27718E"/>
</linearGradient>
<linearGradient id="paint4_linear" x1="132.624" y1="65.5822" x2="132.624" y2="139.96" gradientUnits="userSpaceOnUse">
<stop stop-color="#6BCFDA"/>
<stop offset="0.1851" stop-color="#81D6E0"/>
<stop offset="0.5725" stop-color="#BBE9EE"/>
<stop offset="0.9819" stop-color="white"/>
</linearGradient>
<linearGradient id="paint5_linear" x1="196.513" y1="40.3651" x2="196.513" y2="132.867" gradientUnits="userSpaceOnUse">
<stop stop-color="#6BCFDA"/>
<stop offset="0.1851" stop-color="#81D6E0"/>
<stop offset="0.5725" stop-color="#BBE9EE"/>
<stop offset="0.9819" stop-color="white"/>
</linearGradient>
<linearGradient id="paint6_linear" x1="259.664" y1="56.7693" x2="259.664" y2="92.0237" gradientUnits="userSpaceOnUse">
<stop stop-color="#6BCFDA"/>
<stop offset="0.1851" stop-color="#81D6E0"/>
<stop offset="0.5725" stop-color="#BBE9EE"/>
<stop offset="0.9819" stop-color="white"/>
</linearGradient>
</defs>
</svg>
