<svg width="87" height="76" viewBox="0 0 87 76" fill="none" xmlns="http://www.w3.org/2000/svg">
<path d="M35.9 52.5V48.8C35.9 46.4 30.8 43.3 26.7 43.3C22.6 43.3 17.5 46.4 17.5 48.8V52.5" stroke="white" stroke-width="2" stroke-miterlimit="10"/>
<path d="M26.7 30.4C23.8 30.4 21.2 32.5 21.2 35V38.6C21.2 41.2 23.9 43.2 26.7 43.2C29.6 43.2 32.2 41.1 32.2 38.6V35C32.2 32.5 29.6 30.4 26.7 30.4Z" stroke="white" stroke-width="2" stroke-miterlimit="10"/>
<path d="M85.5 19.4H1V74.5H85.5V19.4Z" stroke="white" stroke-width="2" stroke-miterlimit="10"/>
<path d="M6.5 15.7V10.2H80V15.7" stroke="white" stroke-width="2" stroke-miterlimit="10"/>
<path d="M12 6.60001V1H74.5V6.60001" stroke="white" stroke-width="2" stroke-miterlimit="10"/>
<path d="M43.3 32.3H70.8" stroke="white" stroke-width="2" stroke-miterlimit="10"/>
<path d="M43.3 41.5H70.8" stroke="white" stroke-width="2" stroke-miterlimit="10"/>
<path d="M43.3 50.7H70.8" stroke="white" stroke-width="2" stroke-miterlimit="10"/>
<path d="M15.7 59.8H70.7999" stroke="white" stroke-width="2" stroke-miterlimit="10"/>
</svg>
