<svg width="130" height="122" viewBox="0 0 130 122" fill="none" xmlns="http://www.w3.org/2000/svg">
<path d="M92.399 26.8031V1H1V121H92.399V78.2539" stroke="#0B4275" stroke-width="2" stroke-miterlimit="10"/>
<path d="M123.487 21.0519C120.067 17.6322 111.829 20.5856 105.145 27.2695L69.083 63.798C57.2695 75.6115 43.5907 94.7307 46.855 98.1504C50.2747 101.57 69.3939 87.7359 81.2073 75.9225L117.27 39.394C123.798 32.8655 126.751 24.4716 123.487 21.0519Z" stroke="#0B4275" stroke-width="2" stroke-miterlimit="10"/>
<path d="M40.4817 104.834L46.6993 98.3058" stroke="#0B4275" stroke-width="2" stroke-miterlimit="10" stroke-linecap="round"/>
<path d="M104.99 27.4248L121.155 43.5905C123.332 45.7667 123.332 49.4973 121.155 51.6735L100.948 71.8807" stroke="#E5231E" stroke-width="2" stroke-miterlimit="10"/>
<path d="M66.9065 65.9741L79.0308 78.0985" stroke="#E5231E" stroke-width="2" stroke-miterlimit="10"/>
<path d="M123.487 21.0516L129.238 15.3004" stroke="#FFB800" stroke-width="2" stroke-miterlimit="10"/>
<path d="M32.5544 103.901H15.3005" stroke="#0B4275" stroke-width="2" stroke-miterlimit="10"/>
<path d="M32.5544 21.0516H61" stroke="#0B4275" stroke-width="2" stroke-miterlimit="10"/>
<path d="M18.2542 35.3525H75.3008" stroke="#0B4275" stroke-width="2" stroke-miterlimit="10"/>
<path d="M18.2542 46.8549H72.5028" stroke="#0B4275" stroke-width="2" stroke-miterlimit="10"/>
<path d="M18.2542 58.2021H61.0003" stroke="#0B4275" stroke-width="2" stroke-miterlimit="10"/>
<path d="M18.2542 69.7046H49.6531" stroke="#0B4275" stroke-width="2" stroke-miterlimit="10"/>
</svg>
