<svg width="131" height="122" viewBox="0 0 131 122" fill="none" xmlns="http://www.w3.org/2000/svg">
<path d="M66.2522 59.2495L75.483 81.3715L98.7191 82.8039L81.2124 98.8782L86.3053 121L66.2522 109.7L46.1992 121L51.292 98.8782L33.7854 82.8039L57.0215 81.3715L66.2522 59.2495Z" stroke="#E5231E" stroke-width="2" stroke-miterlimit="10" stroke-linejoin="round"/>
<path d="M86.9417 71.1857L94.5809 70.7082L102.22 52.5649L109.859 70.7082L129.117 71.9814L114.634 85.3501L118.772 103.493L102.22 94.2626L92.9894 99.5145" stroke="#FFB800" stroke-width="2" stroke-miterlimit="10" stroke-linejoin="round"/>
<path d="M43.0159 71.1857L35.3767 70.7082L27.7374 52.5649L20.0981 70.7082L1 71.9814L15.4828 85.3501L11.1857 103.493L27.7374 94.2626L37.1273 99.5145" stroke="#FFB800" stroke-width="2" stroke-miterlimit="10" stroke-linejoin="round"/>
<path d="M86.4641 62.4326V46.3583C86.4641 41.902 75.1644 36.1726 65.9336 36.1726C56.7028 36.1726 45.4031 41.902 45.4031 46.3583V62.4326" stroke="#0B4275" stroke-width="2" stroke-miterlimit="10"/>
<path d="M66.0929 1C60.0451 1 54.3157 5.29708 54.3157 10.5491V17.87C54.3157 23.122 60.0451 27.4191 66.0929 27.4191C72.1406 27.4191 77.8701 23.122 77.8701 17.87V10.5491C77.7109 5.29708 72.1406 1 66.0929 1Z" stroke="#0B4275" stroke-width="2" stroke-miterlimit="10"/>
</svg>
