<svg width="75" height="120" viewBox="0 0 75 120" fill="none" xmlns="http://www.w3.org/2000/svg">
<path d="M11.5089 83.503C5.82844 83.503 1 78.1066 1 72.9941V49.5622C1 40.8995 7.67457 36.4971 14.0651 36.4971C23.1539 36.4971 71.4379 36.4971 71.4379 36.4971C71.4379 36.4971 68.5977 49.5622 58.3728 49.5622H37.4971V120" stroke="#0B4275" stroke-width="2" stroke-miterlimit="10" stroke-linejoin="round"/>
<path d="M24.5741 28.6863C30.6806 28.6863 35.0829 24.4259 35.0829 18.1774V12.923C35.0829 6.81646 30.6806 2.41406 24.5741 2.41406C18.4676 2.41406 14.0652 6.67445 14.0652 12.923V18.1774C14.0652 24.4259 18.4676 28.6863 24.5741 28.6863Z" stroke="#0B4275" stroke-width="2" stroke-miterlimit="10" stroke-linejoin="round"/>
<path d="M11.5088 54.8167V120" stroke="#0B4275" stroke-width="2" stroke-miterlimit="10" stroke-linejoin="round"/>
<path d="M24.574 80.8047V120" stroke="#0B4275" stroke-width="2" stroke-miterlimit="10" stroke-linejoin="round"/>
<path d="M63.6272 0V36.4971" stroke="#E5231E" stroke-width="2" stroke-miterlimit="10" stroke-linejoin="round"/>
<path d="M63.6272 47.0061V59.9291" stroke="#E5231E" stroke-width="2" stroke-miterlimit="10" stroke-linejoin="round"/>
<path d="M63.6273 75.6923C67.941 75.6923 71.438 72.1954 71.438 67.8817C71.438 63.568 67.941 60.071 63.6273 60.071C59.3136 60.071 55.8167 63.568 55.8167 67.8817C55.8167 72.1954 59.3136 75.6923 63.6273 75.6923Z" stroke="#E5231E" stroke-width="2" stroke-miterlimit="10" stroke-linejoin="round"/>
<path d="M74.136 18.1775H63.6272" stroke="#E5231E" stroke-width="2" stroke-miterlimit="10" stroke-linejoin="round"/>
<path d="M63.6272 7.81055H74.136" stroke="#E5231E" stroke-width="2" stroke-miterlimit="10" stroke-linejoin="round"/>
</svg>
