<svg width="88" height="81" viewBox="0 0 88 81" fill="none" xmlns="http://www.w3.org/2000/svg">
<path d="M81.8 39.6V30.3C81.8 26.5 75.9 24.3 70.8 23.4" stroke="white" stroke-width="2" stroke-miterlimit="10"/>
<path d="M68.9 16.8C71.2 15.7 72.6 13.3 72.6 10.5V8.09998C72.6 4.19998 70 1 66.2 1C62.3 1 59.8 4.19998 59.8 8.09998V10.2" stroke="white" stroke-width="2" stroke-miterlimit="10"/>
<path d="M14.7 23C10.8 23 8.30005 19.8 8.30005 15.9V13.5C8.30005 9.6 10.9 6.39999 14.7 6.39999C18.6 6.39999 21.1 9.6 21.1 13.5V15.9C21.2 19.8 18.6 23 14.7 23Z" stroke="white" stroke-width="2" stroke-miterlimit="10"/>
<path d="M26.2 80L20.7 63.5H9.70001C4.60001 63.5 1 59.3 1 54.2V34C1 31 3 28.6 6 28.6H11.5L20.7 37.8H31.7C31.7 37.8 32.5 45.2 26.2 45.2C22.5 45.2 15.2 45.2 15.2 45.2L7.80005 37.8" stroke="white" stroke-width="2" stroke-miterlimit="10"/>
<path d="M13.8 43.3V52.5H21.3C24.2 52.5 27.1 53.4 28.1 56.1L35.7 80" stroke="white" stroke-width="2" stroke-miterlimit="10"/>
<path d="M19.3 45.1H87.3" stroke="white" stroke-width="2" stroke-miterlimit="10"/>
<path d="M62.9999 15.7H29.8999L39.0999 37.8H71.7999L62.9999 15.7Z" stroke="white" stroke-width="2" stroke-miterlimit="10" stroke-linejoin="round"/>
<path d="M81.8 62.6C81.8 72.2 81.8 80.1 81.8 80.1C81.8 80.1 81.8 72.2 81.8 62.6ZM81.8 62.6C81.8 53 81.8 45.1 81.8 45.1C81.8 45.1 81.8 52.9 81.8 62.6Z" stroke="white" stroke-width="2" stroke-miterlimit="10"/>
</svg>
