<svg width="125" height="122" viewBox="0 0 125 122" fill="none" xmlns="http://www.w3.org/2000/svg">
<path d="M107.667 19.6957H123.609V11.7247C123.609 5.78264 118.826 1 112.884 1" stroke="#0B4275" stroke-width="2" stroke-miterlimit="10"/>
<path d="M102.304 11.7247C102.304 5.78264 107.087 1 113.029 1H22.4493C16.5072 1 11.7247 5.78264 11.7247 11.7247V110.275C11.7247 116.217 6.94203 121 1 121H91.5797C97.5217 121 102.304 116.217 102.304 110.275V11.7247Z" stroke="#0B4275" stroke-width="2" stroke-miterlimit="10" stroke-linecap="round" stroke-linejoin="round"/>
<path d="M65.0579 38.3914H83.7535" stroke="#0B4275" stroke-width="2" stroke-miterlimit="10"/>
<path d="M65.0579 25.0581H83.7535" stroke="#0B4275" stroke-width="2" stroke-miterlimit="10"/>
<path d="M27.8118 59.6956H83.7537" stroke="#0B4275" stroke-width="2" stroke-miterlimit="10"/>
<path d="M27.8118 73.0289H83.7537" stroke="#0B4275" stroke-width="2" stroke-miterlimit="10"/>
<path d="M27.8118 86.2175H65.0582" stroke="#0B4275" stroke-width="2" stroke-miterlimit="10"/>
<path d="M57.0871 48.9709V43.6086C57.0871 40.1303 49.6958 35.6376 43.7538 35.6376C37.8117 35.6376 30.4204 40.1303 30.4204 43.6086V48.9709" stroke="#FFB800" stroke-width="2" stroke-miterlimit="10"/>
<path d="M43.7535 17.0872C39.5506 17.0872 35.7825 20.1306 35.7825 23.7538V28.9712C35.7825 32.7393 39.6955 35.6379 43.7535 35.6379C47.9564 35.6379 51.7245 32.5944 51.7245 28.9712V23.7538C51.7245 19.9857 47.9564 17.0872 43.7535 17.0872Z" stroke="#FFB800" stroke-width="2" stroke-miterlimit="10"/>
</svg>
