<svg width="367" height="280" viewBox="0 0 367 280" fill="none" xmlns="http://www.w3.org/2000/svg">
<g opacity="0.35">
<path opacity="0.15" d="M8.4697 172.801L214.359 275.806C225.541 281.398 243.626 281.398 254.75 275.806L355.042 225.644C366.224 220.052 366.224 211.036 355.042 205.443L149.152 102.439C137.971 96.8463 119.886 96.8463 108.762 102.439L8.4697 152.6C-2.7119 158.192 -2.7119 167.266 8.4697 172.801Z" fill="#00638E"/>
<path opacity="0.15" d="M11.7791 171.603L215.102 273.295C226.112 278.83 243.968 278.83 254.979 273.295L354.016 223.761C365.026 218.226 365.026 209.323 354.016 203.788L150.693 102.096C139.683 96.5608 121.827 96.5608 110.816 102.096L11.7791 151.63C0.768627 157.108 0.768627 166.067 11.7791 171.603Z" fill="#00638E"/>
<path opacity="0.35" d="M9.61105 171.661L215.501 274.665C226.682 280.258 244.767 280.258 255.891 274.665L356.184 224.504C367.365 218.912 367.365 209.895 356.184 204.303L150.294 101.298C139.112 95.7059 121.028 95.7059 109.903 101.298L9.61105 151.459C-1.57055 157.052 -1.57055 166.125 9.61105 171.661Z" fill="#9FEDEB"/>
<path opacity="0.35" d="M9.04099 169.492L214.931 272.496C226.112 278.089 244.197 278.089 255.321 272.496L355.614 222.335C366.795 216.742 366.795 207.726 355.614 202.134L149.667 99.0722C138.485 93.4797 120.401 93.4797 109.276 99.0722L9.04099 149.233C-2.14062 154.826 -2.14062 163.899 9.04099 169.492Z" fill="#86E2DE"/>
<g opacity="0.35">
<path opacity="0.35" d="M214.075 272.21L10.752 170.519C4.59075 167.437 1.22485 163.157 1.22485 158.478C1.22485 153.798 4.59075 149.518 10.752 146.437L109.789 96.9603C121.37 91.1967 140.139 91.1967 151.72 96.9603L355.043 198.652C361.204 201.734 364.57 206.014 364.57 210.693C364.57 215.373 361.204 219.652 355.043 222.734L256.063 272.267C250.301 275.178 242.713 276.604 235.069 276.604C227.481 276.547 219.894 275.121 214.075 272.21ZM111.786 101.012L12.8058 150.545C8.35598 152.771 5.78877 155.681 5.78877 158.478C5.78877 161.274 8.35598 164.184 12.8058 166.41L216.128 268.102C226.568 273.295 243.569 273.352 254.009 268.102L352.989 218.568C357.439 216.343 360.006 213.432 360.006 210.636C360.006 207.84 357.439 204.929 352.989 202.704L149.666 101.012C144.475 98.387 137.572 97.0745 130.726 97.0745C123.88 97.0745 117.034 98.387 111.786 101.012Z" fill="#CAFFFE"/>
</g>
</g>
<g opacity="0.31">
<path opacity="0.31" d="M245.394 204.416C248.702 207.897 255.263 209.096 262.28 209.096C269.297 209.096 275.458 206.813 278.881 203.446C279.109 202.761 279.224 202.019 279.224 201.335C279.224 195.628 271.636 191.006 262.28 191.006C252.924 191.006 243.967 194.772 243.967 200.479C243.967 201.163 243.967 202.933 245.394 204.416Z" fill="#1D99B3"/>
<path opacity="0.31" d="M140.196 190.721C141.851 189.75 143.847 189.75 145.445 190.721L164.499 202.362V207.84C164.499 208.982 163.929 210.066 162.845 210.694L144.019 220.052C142.364 221.023 140.367 221.023 138.77 220.052L121.598 211.55C120.514 210.922 119.944 209.781 119.944 208.696V203.218L140.196 190.721Z" fill="#1D99B3"/>
<path opacity="0.31" d="M184.181 140.73C183.439 140.388 181.157 140.273 181.043 140.273C179.959 140.331 178.818 140.616 177.905 141.072L110.074 174.913C108.192 175.883 107.849 177.252 109.447 178.051L196.446 221.593C197.188 221.992 198.272 222.106 199.356 222.106C199.413 222.106 199.47 222.106 199.527 222.106C199.584 222.106 199.641 222.106 199.641 222.106C200.725 222.049 201.809 221.764 202.665 221.307L270.496 187.467C272.379 186.497 272.721 185.127 271.123 184.328L184.181 140.73Z" fill="#1D99B3"/>
</g>
<path opacity="0.68" d="M259.774 74.7154C266.603 69.3817 265.05 55.9756 256.306 44.7721C247.561 33.5686 234.936 28.8102 228.106 34.1439C221.277 39.4777 222.83 52.8838 231.574 64.0873C240.319 75.2908 252.944 80.0492 259.774 74.7154Z" fill="#E6FFFE"/>
<path d="M239.687 59.6394L251.382 62.778L255.661 67.5145C255.661 67.5145 253.835 73.3923 253.835 73.6777L253.493 76.9304C250.641 77.0446 247.389 76.3027 243.966 74.5907C239.117 72.1939 234.724 68.2564 231.244 63.6911L232.043 61.865L239.687 59.6394Z" fill="#D63D1E"/>
<path d="M240.316 60.6093C240.031 59.6392 239.403 62.4354 239.403 62.5496L239.803 64.1474L240.715 64.6039L250.585 62.4354L248.189 59.9245C248.189 58.8973 248.189 57.8131 248.189 57.6419C248.018 57.699 246.763 56.9 246.763 56.9C246.763 56.9 240.772 60.6093 240.316 60.6093Z" fill="#EB8F69"/>
<path d="M251.385 62.6638L250.187 64.0905L244.196 66.2019L241.401 67.5144L239.747 64.0905L237.179 65.2888L238.035 61.123L239.747 60.0958V64.0905L248.304 61.9219L249.502 60.4953L251.385 62.6638Z" fill="#F1D037"/>
<path d="M236.723 47.427C237.408 48.1689 239.404 48.3971 240.374 48.7395C241.8 49.139 245.509 50.5086 245.509 50.5086C245.509 51.3075 245.737 51.9352 245.908 52.7912C246.079 53.8184 246.65 54.5032 246.307 56.6717C246.764 56.3864 247.22 56.044 247.619 55.7586C247.734 54.9027 247.905 54.0467 248.019 53.5901C248.475 53.1907 249.787 53.4189 249.388 54.5603C249.103 55.4163 248.817 57.4136 247.962 57.5848C247.791 57.6418 247.562 57.5848 247.334 57.4136C247.163 57.9842 245.908 59.0114 245.908 59.0114C245.908 59.0114 240.717 61.2941 240.26 61.237C240.203 61.237 237.693 60.3239 237.693 60.3239L236.495 52.3917C236.438 52.2776 236.666 47.7694 236.723 47.427Z" fill="#EEA980"/>
<path d="M245.508 50.4513L245.336 53.3616L246.249 54.0464L246.306 56.6144C246.363 56.6144 247.276 55.9867 247.618 55.7013C247.732 54.8453 247.904 53.9894 248.018 53.5328C248.474 53.1334 249.786 53.3616 249.387 54.5029C249.102 55.3589 248.816 57.3563 247.961 57.5275C247.961 57.8698 247.961 58.5546 247.961 58.5546L248.931 58.0981L249.558 56.7856C250.927 54.3888 252.753 49.7094 252.753 49.7094L252.696 45.3153L245.508 50.4513Z" fill="#11487F"/>
<path d="M252.639 50.5085L253.153 43.9459C253.153 43.9459 249.045 39.4377 247.619 39.2094C246.25 38.9811 241.23 38.7529 239.689 40.0654C238.149 41.435 236.438 44.5166 236.438 44.5166L235.924 47.3699L247.163 50.5085H252.639Z" fill="#F1D037"/>
<path d="M239.232 46.4C237.292 46.0576 235.809 47.0277 235.809 47.0277L231.873 49.9381V50.2805L232.614 50.0522C237.806 49.6527 236.665 50.7941 239.917 52.1066C243.168 53.4191 244.937 52.1066 245.108 52.1066C245.279 52.1066 248.189 50.5087 248.189 50.5087V50.1663C248.189 50.2234 245.565 47.5413 239.232 46.4Z" fill="#EC5B2C"/>
<path d="M255.661 67.5142L257.544 71.4517L257.829 75.9599C254.976 77.2725 251.325 77.3295 247.218 75.9599L247.047 75.161L249.386 69.112L255.661 67.5142Z" fill="#FF6835"/>
<path opacity="0.68" d="M225.167 92.7081C233.064 86.5404 231.261 71.0284 221.14 58.0612C211.018 45.0939 196.412 39.5818 188.514 45.7496C180.617 51.9173 182.42 67.4293 192.541 80.3965C202.663 93.3638 217.27 98.8759 225.167 92.7081Z" fill="#E6FFFE"/>
<path fill-rule="evenodd" clip-rule="evenodd" d="M210.366 74.7051C215.215 77.6155 217.84 80.6971 216.242 81.6672C214.702 82.6373 209.51 81.0395 204.661 78.1291C199.812 75.2187 197.188 72.1372 198.785 71.167C200.383 70.254 205.574 71.8518 210.366 74.7051Z" fill="#CB4B39"/>
<path fill-rule="evenodd" clip-rule="evenodd" d="M206.259 51.9357C203.235 51.7074 201.067 52.1069 200.04 53.5335C197.872 56.558 198.272 61.694 197.986 66.6587C197.701 71.9088 197.131 78.5285 195.248 81.8954L203.691 74.1344L210.024 61.4086L206.259 51.9357Z" fill="#542D21"/>
<path fill-rule="evenodd" clip-rule="evenodd" d="M215.501 79.3845L212.592 86.4036C211.679 88.6862 196.561 76.9877 198.158 73.6779C199.185 71.5664 201.524 72.0229 204.434 73.1643C207.172 74.2485 209.682 75.9605 212.249 77.4442C213.904 78.3573 215.273 79.0991 215.501 79.3845Z" fill="#CB4B39"/>
<path fill-rule="evenodd" clip-rule="evenodd" d="M196.562 80.3545C197.018 78.4142 197.76 75.7321 198.787 74.762C199.928 73.6777 200.27 74.0201 200.783 74.0201C202.666 74.1343 201.81 69.4548 201.639 68.5989L209.055 66.2592C208.827 67.6287 207.515 71.3951 208.599 74.8191C209.227 77.6153 210.71 77.387 213.905 78.5854C218.297 80.2403 215.331 89.3138 213.334 94.678C211.28 94.2215 209.17 93.4797 206.945 92.3954C203.008 90.4552 199.3 87.6019 196.048 84.235C196.048 83.0936 196.219 81.7811 196.562 80.3545Z" fill="#EB8F69"/>
<path fill-rule="evenodd" clip-rule="evenodd" d="M196.447 78.9849L198.386 73.3924C199.299 72.7076 200.326 73.3924 200.954 73.906C199.128 75.9604 206.031 79.3273 209.796 76.8734C210.595 77.3299 211.85 77.6723 213.676 78.3571C218.297 80.1832 214.988 90.1128 213.276 94.7351C211.223 94.2786 209.112 93.5367 206.887 92.4525C202.323 90.1698 198.101 86.7458 194.564 82.6942L196.447 78.9849Z" fill="#CB4B39"/>
<path fill-rule="evenodd" clip-rule="evenodd" d="M201.812 54.4476C199.53 58.1569 199.073 63.0076 199.073 63.0076L199.758 68.9424L200.271 71.168L202.896 72.4235L209.741 69.8555L213.393 57.7575L201.812 54.4476Z" fill="#FFB587"/>
<path fill-rule="evenodd" clip-rule="evenodd" d="M208.485 64.8326C208.656 62.7782 209.74 62.607 210.196 62.7212C212.136 63.2918 209.968 67.2865 208.998 68.599C207.287 70.0827 201.297 80.9823 200.213 82.7514C205.005 79.2703 210.025 77.6154 211.223 75.4469C212.649 72.8219 214.988 65.175 215.102 61.694C215.331 55.7591 212.421 50.1666 204.891 51.2509C203.236 51.365 200.897 52.164 199.985 54.789C198.102 60.0961 206.944 60.4956 208.485 64.8326Z" fill="#663F30"/>
<path fill-rule="evenodd" clip-rule="evenodd" d="M212.306 79.6697C213.39 78.8708 214.93 78.5855 216.414 80.1262C217.326 81.0964 218.753 86.1752 220.236 90.9688C220.578 92.1101 220.978 93.4226 221.377 94.621C219.551 95.1917 217.441 95.3058 215.216 95.0776C213.675 91.7107 211.907 87.7731 211.793 87.4307C211.108 84.9769 209.853 81.4388 212.306 79.6697Z" fill="#FFB587"/>
<path fill-rule="evenodd" clip-rule="evenodd" d="M212.306 79.3845C213.39 78.5856 215.045 78.3573 216.528 79.8981C217.555 80.9824 220.692 90.6836 221.833 94.507C219.78 95.1918 217.441 95.4201 214.873 95.0777L210.367 84.6917C210.138 82.7514 210.766 80.4688 212.306 79.3845Z" fill="#B73627"/>
<path d="M152.69 147.007L159.878 145.523L162.844 147.521L163.187 154.882L152.69 184.842L148.297 181.418L150.636 169.149L152.69 147.007Z" fill="#E69C83"/>
<path d="M158.908 149.233H166.495L169.176 151.401L169.062 158.592L158.908 187.467L154.001 185.698L156.512 172.858L158.908 149.233Z" fill="#FFAD91"/>
<path d="M192.339 209.494C194.564 209.494 196.39 207.668 196.39 205.443V146.836C196.39 144.61 194.564 142.784 192.339 142.784C190.114 142.784 188.289 144.61 188.289 146.836V205.5C188.289 207.668 190.114 209.494 192.339 209.494Z" fill="#33B3C4"/>
<path d="M131.638 179.364C133.749 179.364 135.46 177.652 135.46 175.541V116.477C135.46 114.366 133.749 112.654 131.638 112.654C129.527 112.654 127.816 114.366 127.816 116.477V175.484C127.816 177.652 129.527 179.364 131.638 179.364Z" fill="#33B3C4"/>
<path d="M243.968 181.646C246.193 181.646 248.018 179.82 248.018 177.595V141.129C248.018 138.904 246.193 137.078 243.968 137.078C241.743 137.078 239.917 138.904 239.917 141.129V177.595C239.975 179.877 241.8 181.646 243.968 181.646Z" fill="#33B3C4"/>
<path d="M167.009 95.3625C166.267 95.0201 163.986 94.906 163.871 94.906C162.788 94.9631 161.647 95.2484 160.734 95.7049L109.789 116.934C107.906 117.904 108.477 122.697 110.017 123.496L197.017 167.038C197.759 167.437 198.842 167.551 199.926 167.551C199.983 167.551 200.04 167.551 200.098 167.551C200.155 167.551 200.212 167.551 200.212 167.551C201.296 167.494 202.38 167.209 203.235 166.752L253.267 142.1C255.15 141.13 256.177 136.393 254.636 135.594L167.009 95.3625Z" fill="#33B3C4"/>
<path d="M167.067 91.4818C166.325 91.1394 161.704 91.3676 160.791 91.8242L110.645 116.02C108.763 116.99 108.421 118.36 110.018 119.159L197.018 162.7C197.759 163.1 198.843 163.214 199.927 163.214C199.984 163.214 200.041 163.214 200.098 163.214C200.155 163.214 200.212 163.214 200.212 163.214C201.296 163.157 202.38 162.871 203.236 162.415L253.382 138.219C255.265 137.249 255.607 135.879 254.01 135.08L167.067 91.4818Z" fill="#A4EAEA"/>
<path opacity="0.69" d="M183.497 133.083L207.115 145.866L227.253 135.766L203.692 122.983L183.497 133.083Z" fill="#DEFFFC"/>
<path opacity="0.69" d="M184.752 122.469L204.434 132.342L216.528 126.293L196.846 116.42L184.752 122.469Z" fill="#DEFFFC"/>
<path opacity="0.69" d="M132.722 110.713L156.341 132.17L176.479 122.127L152.861 100.67L132.722 110.713Z" fill="#DEFFFC"/>
<path d="M180.188 137.534C180.188 137.534 178.59 139.36 176.537 139.988C174.483 140.616 170.889 141.243 169.634 139.36C168.379 137.477 169.348 135.708 171.688 134.395C174.027 133.083 178.819 133.882 180.188 135.251C181.101 136.164 180.188 137.534 180.188 137.534Z" fill="#33B3C4"/>
<path d="M176.08 139.304C178.133 138.676 179.731 136.85 179.731 136.85C179.731 136.85 180.301 135.994 180.073 135.138C180.13 135.138 180.13 135.195 180.187 135.195C181.1 136.108 180.187 137.535 180.187 137.535C180.187 137.535 178.59 139.361 176.536 139.988C174.482 140.616 170.888 141.244 169.633 139.361C169.519 139.19 169.462 139.018 169.348 138.847C170.717 140.445 174.083 139.874 176.08 139.304Z" fill="#168CA8"/>
<path d="M143.221 116.078L147.329 113.91C148.185 113.453 149.211 113.453 150.067 113.91L169.122 124.067L172.773 125.209V126.464C172.773 126.692 172.659 126.921 172.373 127.092L167.695 129.603C166.84 130.059 165.813 130.059 164.957 129.603L142.651 117.676C142.366 117.562 142.251 117.276 142.251 117.048V115.793L143.221 116.078Z" fill="#168CA8"/>
<path d="M172.375 124.523L150.069 112.596C149.213 112.14 148.186 112.14 147.33 112.596L142.652 115.107C142.139 115.393 142.139 116.077 142.652 116.363L164.959 128.29C165.814 128.746 166.841 128.746 167.697 128.29L172.375 125.779C172.888 125.55 172.888 124.809 172.375 124.523Z" fill="#33B3C4"/>
<path d="M154.286 65.7452L157.024 64.3185C157.709 63.9191 158.678 63.8049 159.534 64.2615L198.841 84.3487C200.153 85.0335 200.952 86.2319 200.952 87.5444V115.564C200.952 116.306 200.495 116.933 199.868 117.333L197.015 118.817L194.847 116.077L158.051 97.3027C156.739 96.6179 155.94 95.4196 155.94 94.107V67.9137L154.286 65.7452Z" fill="#9FEDEB"/>
<path d="M179.729 104.323V113.054C179.729 113.91 179.216 114.709 178.36 115.165L174.937 116.934C174.138 117.334 173.168 117.334 172.37 116.934L163.698 112.084V113.111C163.698 113.967 164.212 114.709 165.01 115.165L171.799 118.646C172.94 119.217 174.309 119.217 175.45 118.646L178.987 116.82C180.642 115.964 181.612 114.424 181.612 112.769V103.125L179.729 104.323Z" fill="#33B3C4"/>
<path d="M164.213 111.341L167.579 109.629C168.434 109.173 168.948 108.374 168.948 107.518V98.7865L179.73 104.322V113.053C179.73 113.909 179.217 114.708 178.361 115.164L174.938 116.934C174.139 117.333 173.17 117.333 172.371 116.934L164.156 112.768C163.642 112.425 163.642 111.683 164.213 111.341Z" fill="#BDFFFA"/>
<path d="M198.328 88.8574V114.823L153.316 91.8819V67.4576C153.316 65.8598 155.313 64.8326 156.911 65.6315L196.217 85.7188C197.529 86.2895 198.328 87.5449 198.328 88.8574Z" fill="#33B3C4"/>
<path d="M196.046 88.9708V109.743L156.397 89.7127V68.7694L196.046 88.9708Z" fill="#FCFEFE"/>
<path d="M198.328 116.819C198.328 118.417 196.331 119.444 194.734 118.645L155.427 98.6151C154.115 97.9303 153.316 96.7319 153.316 95.4194V90.74L198.328 113.681V116.819Z" fill="#E1FFFD"/>
<path d="M186.463 99.5283C188.459 99.5283 189.771 97.588 190.513 96.5038C190.741 96.1614 191.026 95.7049 191.198 95.5907C191.369 95.6478 192.339 96.1614 193.023 96.732C193.537 97.1315 194.278 97.1315 194.735 96.6179C195.191 96.1614 195.134 95.4195 194.621 95.0201C193.993 94.4494 191.654 92.7374 190 93.5934C189.429 93.8787 189.03 94.5065 188.516 95.1912C187.147 97.1886 186.634 97.4168 185.835 96.9603C184.352 96.1614 183.154 92.9086 182.184 90.3406C181.499 88.5145 180.872 86.8025 180.073 85.6612C179.56 84.9194 178.932 84.5199 178.19 84.5199H178.133C176.935 84.5199 176.194 85.5471 175.395 86.5743C174.482 87.7727 173.969 88.4004 173.512 88.1721C172.942 87.9439 172.2 88.2292 171.972 88.7999C171.744 89.3705 172.029 90.0553 172.657 90.2836C174.939 91.1396 176.479 89.0852 177.392 87.8868C177.563 87.6015 177.848 87.2591 178.076 87.0308C178.761 88.058 179.274 89.5417 179.845 91.0825C181.043 94.3353 182.298 97.7022 184.523 98.9576C185.265 99.4141 185.892 99.5283 186.463 99.5283Z" fill="#CCFFFE"/>
<path d="M173.113 95.1341C173.227 95.1341 173.284 95.077 173.284 94.9629V81.8377C173.284 81.7236 173.17 81.6665 173.113 81.6665C172.999 81.6665 172.942 81.7236 172.942 81.8377V94.9629C172.942 95.077 172.999 95.1341 173.113 95.1341Z" fill="#CCFFFE"/>
<path d="M193.765 105.691C193.879 105.691 193.936 105.634 193.936 105.52V92.3948C193.936 92.2807 193.822 92.2236 193.765 92.2236C193.651 92.2236 193.594 92.2807 193.594 92.3948V105.52C193.594 105.577 193.651 105.691 193.765 105.691Z" fill="#CCFFFE"/>
<path d="M188.002 102.724C188.116 102.724 188.173 102.667 188.173 102.553V89.4274C188.173 89.3133 188.059 89.2562 188.002 89.2562C187.888 89.2562 187.831 89.3133 187.831 89.4274V102.553C187.774 102.667 187.888 102.724 188.002 102.724Z" fill="#CCFFFE"/>
<path d="M178.932 98.1014C179.046 98.1014 179.103 98.0443 179.103 97.9302V84.805C179.103 84.6909 178.989 84.6338 178.932 84.6338C178.818 84.6338 178.761 84.6909 178.761 84.805V97.9302C178.703 97.9873 178.818 98.1014 178.932 98.1014Z" fill="#CCFFFE"/>
<path d="M190.228 92.1099L191.541 92.7378V91.7675L190.228 91.0825V92.1099Z" fill="#CCFFFE"/>
<path d="M189.087 92.5099L191.541 93.7656V93.3661L189.087 92.1104V92.5099Z" fill="#CCFFFE"/>
<path d="M182.813 89.9412L184.125 90.6261V89.6558L182.813 88.9708V89.9412Z" fill="#CCFFFE"/>
<path d="M181.728 90.3982L184.125 91.5969V91.1973L181.728 89.9987V90.3982Z" fill="#CCFFFE"/>
<path d="M175.567 83.093L176.88 83.778V82.8076L175.567 82.1227V83.093Z" fill="#CCFFFE"/>
<path d="M174.483 83.5501L176.879 84.7487V84.3492L174.483 83.1505V83.5501Z" fill="#CCFFFE"/>
<path d="M160.734 76.131L169.691 80.6963V78.8702L160.734 74.3049V76.131Z" fill="#CCFFFE"/>
<path d="M158.68 77.5013L169.691 83.1508V82.4089L158.68 76.7594V77.5013Z" fill="#CCFFFE"/>
<path d="M158.68 79.6692L169.69 85.3188V84.5769L158.68 78.9274V79.6692Z" fill="#CCFFFE"/>
<path d="M158.68 81.8946L169.69 87.5441V86.8023L158.68 81.1527V81.8946Z" fill="#CCFFFE"/>
<path d="M158.68 84.0633L169.69 89.6558V88.971L158.68 83.3214V84.0633Z" fill="#CCFFFE"/>
<path d="M158.68 86.1745L169.69 91.767V91.0251L158.68 85.4326V86.1745Z" fill="#CCFFFE"/>
<path d="M158.68 88.3433L169.69 93.9358V93.1939L158.68 87.6014V88.3433Z" fill="#CCFFFE"/>
<path d="M190.8 132.455V133.026L214.532 144.953V144.325L190.8 132.455Z" fill="#006A82"/>
<path d="M214.532 144.325V144.953L230.734 136.849V136.279L214.532 144.325Z" fill="#057893"/>
<path d="M190.801 132.455L214.533 144.325L230.735 136.279L206.946 124.352L190.801 132.455Z" fill="#168CA8"/>
<path d="M192.226 130.23V132.627L214.589 143.811L214.532 141.415L192.226 130.23Z" fill="#86E2DE"/>
<path d="M229.422 133.996V136.393L214.59 143.811L214.532 141.415L229.422 133.996Z" fill="#DEFFFC"/>
<path d="M190.799 128.918V129.545L214.531 141.415V140.844L190.799 128.918Z" fill="#006A82"/>
<path d="M214.531 140.844V141.415L230.733 133.369V132.741L214.531 140.844Z" fill="#057893"/>
<path d="M190.801 128.918L214.533 140.845L230.735 132.742L206.946 120.872L190.801 128.918Z" fill="#168CA8"/>
<path d="M195.191 127.548V128.062L215.9 138.448V137.877L195.191 127.548Z" fill="#30B7C1"/>
<path d="M215.9 137.877V138.448L229.991 131.372V130.858L215.9 137.877Z" fill="#53CAD3"/>
<path d="M195.193 127.549L215.902 137.878L229.993 130.859L209.284 120.53L195.193 127.549Z" fill="#9FEDEB"/>
<path d="M196.447 125.608V127.719L215.901 137.42V135.366L196.447 125.608Z" fill="#86E2DE"/>
<path d="M228.852 128.918V130.972L215.902 137.421V135.366L228.852 128.918Z" fill="#DEFFFC"/>
<path d="M195.191 124.467V124.98L215.9 135.366V134.853L195.191 124.467Z" fill="#30B7C1"/>
<path d="M215.9 134.853V135.366L229.991 128.347V127.834L215.9 134.853Z" fill="#53CAD3"/>
<path d="M195.192 124.466L215.901 134.852L229.992 127.833L209.283 117.447L195.192 124.466Z" fill="#ADF7F3"/>
<path d="M191.769 138.219L177.164 143.526L189.772 155.795L204.319 150.488L191.769 138.219Z" fill="white"/>
<path d="M189.256 145.98L189.655 146.38L196.501 143.869L196.102 143.469L189.256 145.98Z" fill="#86E2DE"/>
<path d="M186.803 143.583L187.202 143.983L194.105 141.472L193.649 141.072L186.803 143.583Z" fill="#86E2DE"/>
<path d="M188.457 145.181L188.856 145.581L195.702 143.07L195.302 142.671L188.457 145.181Z" fill="#86E2DE"/>
<path d="M187.66 144.382L188.06 144.782L194.905 142.271L194.506 141.871L187.66 144.382Z" fill="#86E2DE"/>
<path d="M184.064 149.347L184.692 150.032L197.813 145.181L197.186 144.553L184.064 149.347Z" fill="#86E2DE"/>
<path d="M185.148 150.431L185.775 151.059L198.897 146.208L198.269 145.58L185.148 150.431Z" fill="#86E2DE"/>
<path d="M186.175 151.459L186.859 152.144L199.98 147.293L199.353 146.665L186.175 151.459Z" fill="#86E2DE"/>
<path d="M187.259 152.543L187.944 153.171L201.065 148.32L200.38 147.692L187.259 152.543Z" fill="#86E2DE"/>
<path d="M188.342 153.627L189.027 154.254L202.148 149.404L201.463 148.776L188.342 153.627Z" fill="#86E2DE"/>
<path d="M188.572 147.122L183.323 149.006L179.958 145.753L185.206 143.813L188.572 147.122Z" fill="#86E2DE"/>
<path d="M187.887 141.529L188.286 141.928L192.907 140.216L192.508 139.817L187.887 141.529Z" fill="#FA7564"/>
<path opacity="0.37" d="M188.858 149.861L206.258 141.13L221.262 145.467L221.376 149.29L220.521 149.518L205.745 157.108L203.577 157.165L188.858 149.861Z" fill="#00638E"/>
<path d="M190.969 146.836L210.708 136.907L221.49 142.271V149.29L205.859 157.108L190.969 149.689V146.836Z" fill="white"/>
<path d="M221.493 146.379V147.064L205.862 154.939V154.255L221.493 146.379Z" fill="#CCFFFE"/>
<path d="M205.861 154.254V154.939L190.971 147.521V146.836L205.861 154.254Z" fill="#86E2DE"/>
<path d="M205.861 156.481V157.165L190.971 149.747V149.062L205.861 156.481Z" fill="#86E2DE"/>
<path d="M221.493 148.605V149.29L205.862 157.165V156.48L221.493 148.605Z" fill="#CCFFFE"/>
<path d="M221.493 147.863V148.548L205.862 156.423V155.738L221.493 147.863Z" fill="#CCFFFE"/>
<path d="M205.861 155.739V156.423L190.971 149.005V148.32L205.861 155.739Z" fill="#86E2DE"/>
<path d="M221.493 147.121V147.806L205.862 155.681V154.996L221.493 147.121Z" fill="#CCFFFE"/>
<path d="M205.861 154.997V155.682L190.971 148.263V147.578L205.861 154.997Z" fill="#86E2DE"/>
<g opacity="0.58">
<path opacity="0.58" d="M218.126 147.236L213.562 149.518L208.998 147.236L213.562 144.953L218.126 147.236Z" fill="#9FEDEB"/>
<path opacity="0.58" d="M205.175 152.314L206.201 152.828L209.853 151.059L208.826 150.545L205.175 152.314Z" fill="#9FEDEB"/>
<path opacity="0.58" d="M203.805 151.63L204.889 152.2L208.483 150.374L207.457 149.861L203.805 151.63Z" fill="#9FEDEB"/>
<path opacity="0.58" d="M202.493 151.002L203.52 151.516L207.114 149.689L206.087 149.176L202.493 151.002Z" fill="#9FEDEB"/>
<path opacity="0.58" d="M209.111 150.26L210.138 150.774L212.82 149.461L211.736 148.948L209.111 150.26Z" fill="#9FEDEB"/>
<path opacity="0.58" d="M206.03 148.719L210.594 151.002L213.276 149.689L208.597 147.464L206.03 148.719Z" fill="#9FEDEB"/>
<path opacity="0.58" d="M193.707 146.208L202.093 150.317L218.695 141.985L210.366 137.877L193.707 146.208Z" fill="#86E2DE"/>
</g>
<path d="M213.446 147.35L212.933 147.579L214.644 148.435L215.158 148.206L213.446 147.35Z" fill="white"/>
<path d="M213.39 148.092L212.876 148.377L213.903 148.834L214.417 148.606L213.39 148.092Z" fill="white"/>
<path d="M213.219 146.494L212.705 146.779L215.33 148.092L215.844 147.864L213.219 146.494Z" fill="white"/>
<path d="M212.99 145.695L212.477 145.98L216.072 147.75L216.585 147.464L212.99 145.695Z" fill="white"/>
<g opacity="0.65">
<path opacity="0.65" d="M219.893 145.809C218.752 146.38 216.926 146.38 215.842 145.809C214.701 145.238 214.701 144.325 215.842 143.755C216.983 143.184 218.809 143.184 219.893 143.755C221.034 144.325 221.034 145.295 219.893 145.809ZM216.356 144.04C215.5 144.439 215.5 145.124 216.356 145.581C217.211 145.98 218.524 145.98 219.379 145.581C220.235 145.181 220.235 144.497 219.379 144.04C218.581 143.641 217.211 143.641 216.356 144.04Z" fill="#9FEDEB"/>
</g>
<path d="M219.893 145.809C219.608 145.98 219.208 146.094 218.809 146.151L218.581 145.809C218.866 145.752 219.151 145.695 219.379 145.581C220.235 145.181 220.235 144.497 219.379 144.04C218.524 143.641 217.211 143.641 216.356 144.04L215.842 143.755C216.983 143.184 218.809 143.184 219.893 143.755C221.034 144.325 221.034 145.295 219.893 145.809Z" fill="#9FEDEB"/>
<path d="M216.984 145.068C216.869 145.011 216.869 144.954 216.984 144.896C217.098 144.839 217.212 144.839 217.326 144.896L217.212 144.954C217.155 144.954 217.098 144.954 217.098 144.954C217.041 144.954 217.041 145.011 217.098 145.011L217.212 145.068C217.212 145.011 217.212 145.011 217.269 144.954C217.326 144.896 217.44 144.896 217.554 144.954L217.668 145.011C217.782 145.068 217.782 145.125 217.668 145.182C217.554 145.239 217.44 145.239 217.326 145.182L216.984 145.068ZM217.326 145.125L217.44 145.182C217.497 145.182 217.554 145.182 217.554 145.182C217.611 145.182 217.611 145.125 217.554 145.125L217.44 145.068C217.383 145.068 217.326 145.068 217.326 145.068C217.269 145.068 217.269 145.125 217.326 145.125Z" fill="#9FEDEB"/>
<path d="M217.384 144.839C217.27 144.782 217.27 144.725 217.384 144.668C217.498 144.611 217.612 144.611 217.726 144.668L218.126 144.839C218.24 144.896 218.24 144.953 218.126 145.01C218.011 145.068 217.897 145.068 217.783 145.01L217.384 144.839ZM217.897 145.01C217.954 145.01 218.011 145.01 218.011 145.01C218.068 145.01 218.068 144.953 218.011 144.953L217.612 144.782C217.555 144.782 217.498 144.782 217.498 144.782C217.441 144.782 217.441 144.839 217.498 144.839L217.897 145.01Z" fill="#9FEDEB"/>
<path d="M217.726 144.611C217.669 144.554 217.669 144.554 217.726 144.497C217.783 144.44 217.897 144.44 217.954 144.497L218.182 144.611C218.239 144.668 218.239 144.668 218.182 144.725C218.125 144.782 218.011 144.782 217.954 144.725L217.726 144.611ZM218.068 144.725C218.125 144.725 218.125 144.725 218.125 144.725C218.125 144.725 218.125 144.725 218.125 144.668L217.897 144.554C217.84 144.554 217.84 144.554 217.84 144.554C217.84 144.554 217.84 144.554 217.84 144.611L218.068 144.725ZM218.011 144.383L218.068 144.325L218.525 144.839L218.467 144.896L218.011 144.383ZM218.353 144.554C218.296 144.497 218.296 144.497 218.353 144.44C218.41 144.383 218.525 144.383 218.582 144.44L218.81 144.554C218.867 144.611 218.867 144.611 218.81 144.668C218.753 144.725 218.639 144.725 218.582 144.668L218.353 144.554ZM218.696 144.668C218.753 144.668 218.753 144.668 218.753 144.668C218.753 144.668 218.753 144.668 218.753 144.611L218.525 144.497C218.467 144.497 218.467 144.497 218.467 144.497C218.467 144.497 218.467 144.497 218.467 144.554L218.696 144.668Z" fill="#9FEDEB"/>
<g opacity="0.49">
<path opacity="0.49" d="M217.154 142.385L203.177 149.404H203.12L217.097 142.385H217.154Z" fill="white"/>
<path opacity="0.49" d="M215.901 141.758L201.924 148.777L215.901 141.758Z" fill="white"/>
<path opacity="0.49" d="M214.702 141.187L200.725 148.149H200.668L214.645 141.13L214.702 141.187Z" fill="white"/>
<path opacity="0.49" d="M213.448 140.559L199.471 147.579V147.522L213.448 140.559Z" fill="white"/>
<path opacity="0.49" d="M212.248 139.932L198.271 146.951H198.214L212.191 139.932H212.248Z" fill="white"/>
<path opacity="0.49" d="M210.994 139.304L197.017 146.323H196.96L210.994 139.304Z" fill="white"/>
<path opacity="0.49" d="M205.004 148.491H204.947L197.359 144.668L205.004 148.491Z" fill="white"/>
<path opacity="0.49" d="M205.802 148.092H205.745L198.158 144.268L205.802 148.092Z" fill="white"/>
<path opacity="0.49" d="M206.602 147.692H206.545L198.9 143.869H198.957L206.602 147.692Z" fill="white"/>
<path opacity="0.49" d="M207.4 147.293H207.343L199.698 143.469H199.756L207.4 147.293Z" fill="white"/>
<path opacity="0.49" d="M208.198 146.893H208.141L200.497 143.07H200.554L208.198 146.893Z" fill="white"/>
<path opacity="0.49" d="M208.997 146.494H208.94L201.296 142.67H201.353L208.997 146.494Z" fill="white"/>
<path opacity="0.49" d="M209.74 146.095L202.095 142.272H202.152L209.74 146.095Z" fill="white"/>
<path opacity="0.49" d="M210.538 145.695L202.893 141.871H202.95L210.538 145.695Z" fill="white"/>
<path opacity="0.49" d="M211.336 145.296L203.692 141.472L211.336 145.296Z" fill="white"/>
<path opacity="0.49" d="M212.135 144.896L204.49 141.073L212.135 144.896Z" fill="white"/>
<path opacity="0.49" d="M212.934 144.497H212.877L205.289 140.673L212.934 144.497Z" fill="white"/>
<path opacity="0.49" d="M213.732 144.097H213.675L206.031 140.273H206.088L213.732 144.097Z" fill="white"/>
<path opacity="0.49" d="M214.531 143.698H214.474L206.83 139.874H206.887L214.531 143.698Z" fill="white"/>
<path opacity="0.49" d="M215.33 143.298H215.273L207.628 139.475H207.685L215.33 143.298Z" fill="white"/>
<path opacity="0.49" d="M216.128 142.899H216.071L208.427 139.132L208.484 139.075L216.128 142.899Z" fill="white"/>
<path opacity="0.49" d="M216.927 142.499H216.87L209.226 138.733L209.283 138.676L216.927 142.499Z" fill="white"/>
<path opacity="0.49" d="M204.205 148.833V148.89L196.56 145.067L204.205 148.833Z" fill="white"/>
<path opacity="0.49" d="M203.407 149.233V149.29L195.762 145.467V145.41L203.407 149.233Z" fill="white"/>
<path opacity="0.49" d="M209.796 138.733L195.819 145.695H195.762L209.739 138.676L209.796 138.733Z" fill="white"/>
<path opacity="0.49" d="M217.154 142.385L203.177 149.404L203.12 149.347L217.097 142.385H217.154Z" fill="white"/>
</g>
<path d="M201.523 148.319H201.409L201.466 147.52L201.124 146.55L201.523 145.923L202.436 145.58L203.292 145.295L202.835 144.211L203.463 143.754L204.661 143.526L205.289 143.069L206.087 142.67L207 142.327L207.856 141.186L209.054 140.958L209.738 140.558H209.795L210.765 140.273L210.936 139.531L210.993 139.588L210.822 140.273L209.853 140.558L209.111 141.015L207.913 141.243L207.114 142.384L206.144 142.727L205.403 143.126L204.775 143.583L203.52 143.811L202.95 144.268L203.406 145.295L202.493 145.637L201.58 145.98L201.238 146.55L201.58 147.52L201.523 148.319Z" fill="white"/>
<path d="M202.721 148.947H202.607L202.379 147.977L201.922 146.95L202.379 146.379L202.322 145.58L202.664 144.953L204.033 144.781L205.516 144.724L206.486 144.439L207.057 143.982L206.772 143.012L207.456 142.556L208.825 142.442L209.738 142.156L210.309 141.643L210.594 140.958L210.309 140.045L209.909 139.075H210.023L210.423 140.045L210.708 141.015L210.423 141.643L209.852 142.156L208.882 142.499L207.513 142.613L206.886 143.069L207.114 143.982L206.543 144.496L205.516 144.781L204.033 144.838L202.778 144.953L202.379 145.58L202.493 146.436L202.036 146.95L202.493 147.977L202.721 148.947Z" fill="white"/>
<path d="M203.065 149.061H203.008L203.236 148.377L203.521 147.749L204.206 147.349L205.176 147.007L205.689 146.436L206.203 145.923L207.001 145.523L206.944 144.724L207.914 144.382L208.199 143.754L208.827 143.298L209.511 142.784L209.568 142.042L209.625 141.3L211.109 141.186L212.25 140.958L212.706 140.444H212.763L212.307 141.015L211.166 141.243L209.74 141.3L209.683 142.042L209.568 142.841L208.941 143.298L208.313 143.754L207.971 144.439L207.058 144.724L207.115 145.523L206.317 145.923L205.803 146.493L205.29 147.007L204.32 147.349L203.635 147.749L203.35 148.434L203.065 149.061Z" fill="white"/>
<path d="M202.552 149.518C202.609 149.518 202.666 149.518 202.723 149.575C202.78 149.575 202.837 149.632 202.837 149.632C202.837 149.632 202.837 149.689 202.78 149.689C202.723 149.689 202.666 149.747 202.666 149.689C202.609 149.689 202.552 149.689 202.495 149.632C202.438 149.632 202.381 149.575 202.381 149.575C202.381 149.575 202.381 149.518 202.438 149.518C202.438 149.518 202.495 149.518 202.552 149.518ZM202.438 149.575C202.495 149.632 202.495 149.632 202.495 149.632C202.495 149.632 202.552 149.632 202.552 149.689H202.609C202.609 149.689 202.609 149.689 202.666 149.689C202.666 149.689 202.609 149.689 202.609 149.632C202.552 149.632 202.552 149.632 202.552 149.575C202.495 149.575 202.495 149.575 202.438 149.575C202.495 149.575 202.438 149.575 202.438 149.575Z" fill="white"/>
<path d="M201.241 148.891L201.583 149.062L201.526 149.119L201.298 149.005V149.062H201.184L201.241 148.948V148.891Z" fill="white"/>
<path d="M199.985 148.32H200.042H200.099C200.099 148.32 200.156 148.32 200.156 148.377C200.156 148.377 200.156 148.377 200.156 148.434V148.491L200.271 148.434L200.328 148.491L200.099 148.606L200.042 148.548C200.042 148.491 200.042 148.491 200.042 148.491V148.434C200.042 148.377 199.985 148.377 199.985 148.32C199.985 148.377 199.985 148.377 199.985 148.377H199.871V148.32C199.871 148.32 199.871 148.263 199.928 148.263C199.928 148.32 199.928 148.32 199.985 148.32Z" fill="white"/>
<path d="M198.73 147.692H198.788H198.845C198.845 147.692 198.902 147.692 198.902 147.749C198.902 147.749 198.902 147.749 198.902 147.807H198.959H199.016C199.016 147.807 199.073 147.807 199.073 147.864C199.073 147.864 199.073 147.864 199.073 147.921C199.073 147.921 199.016 147.921 199.016 147.978C198.959 147.978 198.902 148.035 198.845 148.035V147.978H198.902H198.959H198.902H198.845L198.788 147.921C198.788 147.749 198.788 147.749 198.73 147.692C198.73 147.749 198.73 147.749 198.73 147.749C198.73 147.749 198.673 147.749 198.673 147.807H198.559C198.559 147.749 198.559 147.749 198.616 147.749C198.731 147.692 198.73 147.692 198.73 147.692Z" fill="white"/>
<path d="M197.817 147.122L197.874 147.179L197.817 147.122L197.931 147.179L197.874 147.236L197.817 147.179L197.703 147.236H197.646L197.531 147.065H197.646L197.76 147.179H197.817L197.76 147.122L197.817 147.065V147.122Z" fill="white"/>
<path d="M196.39 146.437L196.276 146.494L196.333 146.551C196.333 146.551 196.333 146.551 196.39 146.494C196.39 146.494 196.39 146.494 196.39 146.437C196.447 146.494 196.504 146.494 196.504 146.494H196.562C196.562 146.494 196.619 146.494 196.619 146.551V146.608L196.562 146.665C196.504 146.665 196.447 146.722 196.39 146.722V146.665C196.447 146.665 196.447 146.665 196.504 146.665C196.447 146.665 196.447 146.665 196.39 146.665L196.333 146.722L196.162 146.608L196.39 146.437Z" fill="white"/>
<path d="M195.248 145.866H195.305H195.362C195.362 145.866 195.419 145.866 195.419 145.923V145.98C195.419 145.98 195.419 145.98 195.362 146.037C195.305 146.037 195.248 146.094 195.248 146.037C195.191 146.037 195.134 146.037 195.077 145.98C195.02 145.98 195.02 145.923 195.02 145.923V145.866C195.02 145.866 195.02 145.809 195.077 145.809C195.134 145.809 195.134 145.809 195.191 145.809V145.866H195.134C195.134 145.866 195.134 145.866 195.134 145.923C195.134 145.923 195.134 145.923 195.191 145.98C195.191 145.98 195.191 145.923 195.248 145.923C195.191 145.866 195.191 145.866 195.248 145.866ZM195.305 145.98C195.248 145.923 195.248 145.923 195.248 145.923C195.248 145.923 195.248 145.923 195.191 145.923H195.248C195.248 145.98 195.248 145.98 195.305 145.98Z" fill="white"/>
<path d="M221.491 142.271V146.38L217.382 144.325L221.491 142.271Z" fill="#CCFFFE"/>
<path opacity="0.68" d="M149.61 90.625C158.402 83.7591 156.412 66.513 145.166 52.105C133.92 37.6969 117.677 31.5828 108.885 38.4488C100.094 45.3148 102.084 62.5608 113.33 76.9689C124.576 91.3769 140.819 97.491 149.61 90.625Z" fill="#E6FFFE"/>
<path d="M115.094 79.0982L115.551 76.8156L118.46 70.8236L123.423 69.2828L126.333 69.1687L118.403 82.6363C117.319 81.495 116.178 80.2966 115.094 79.0982Z" fill="#2D98D7"/>
<path d="M118.517 70.7667L125.191 68.7123L134.89 70.6525L141.279 76.1879C141.279 76.1879 137.97 87.2588 136.316 92.9083C134.091 92.3947 131.695 91.5958 129.242 90.3974C124.564 88.0577 120.171 84.5767 116.406 80.525L116.577 77.1581L118.517 70.7667Z" fill="#1880C0"/>
<path d="M125.192 66.2591C124.964 65.5743 124.793 69.5118 124.793 69.5118C124.793 69.5118 121.769 71.6804 121.769 71.7374L121.598 81.6099L129.984 77.2728L134.605 72.8217L135.004 70.7102L133.236 68.7129C133.236 67.6857 133.35 63.2916 133.35 63.1204C133.293 61.7509 129.3 62.6068 129.3 62.6068C129.3 62.6068 125.648 66.2591 125.192 66.2591Z" fill="#E58969"/>
<path d="M121.541 51.9921L126.104 51.022L132.779 52.1062L132.665 58.3835C132.665 58.3835 134.776 60.4949 134.377 61.5792C134.091 62.4352 134.148 63.9189 133.293 64.0901C133.121 64.1472 132.95 64.1472 132.779 64.033C132.608 64.6037 131.581 66.2015 131.581 66.2015C131.581 66.2015 125.762 68.2559 125.306 68.1989C125.249 68.1989 122.739 67.2858 122.739 67.2858L121.541 59.4107V51.9921Z" fill="#E8A380"/>
<path d="M141.28 76.1884L144.075 80.4683L146.699 92.281C143.733 93.5365 140.139 93.7647 136.145 92.8517L133.122 81.4955L136.83 76.2454L141.28 76.1884Z" fill="#2D98D7"/>
<path d="M130.498 58.3834L130.954 60.3237L130.327 65.3455L131.81 63.8618C131.81 63.8618 132.381 60.6661 132.78 60.2666C133.122 59.8101 134.434 59.8672 134.206 61.0085C134.035 61.8645 134.092 63.8047 133.236 64.0901L133.179 65.4026L134.206 64.5466L135.176 61.8074C135.747 60.3808 137.173 60.552 137.572 58.9541C137.857 57.7557 136.659 56.0437 136.659 56.0437L137.914 54.503L137.572 52.5627L135.804 51.4214L134.206 47.4268L130.783 45.087L127.703 45.03L124.565 43.5463L121.598 44.5735L119.83 43.318L118.29 44.8017L118.404 47.1985L117.833 47.7121L117.605 49.7094L119.773 50.7366L120.001 52.9622L122.283 53.647L124.907 52.9622L129.243 53.9323L130.954 57.2421L130.498 58.3834Z" fill="#083A75"/>
<path d="M129.869 64.5467L127.986 65.3456L126.389 63.12L122.395 62.3782L121.54 65.3456L120.456 66.7723L120.798 69.112L120.285 71.2234L122.624 72.4218L124.62 71.8511L126.389 72.6501L128.899 71.6229L129.07 69.6826L130.268 68.6554H130.896L131.923 67.457L131.58 66.2016L131.809 63.8619L129.869 64.5467Z" fill="#083A75"/>
<path d="M148.582 126.007L152.348 122.754L158.224 122.925L157.881 123.952L154.401 124.808C154.401 124.808 156.398 125.208 156.797 125.55C157.197 125.893 157.197 126.235 155.885 126.691C154.629 127.148 152.405 128.289 151.435 128.232C150.408 128.175 148.582 126.007 148.582 126.007Z" fill="#FFBE92"/>
<path d="M148.354 179.82L146.129 183.13L149.666 187.125C149.666 187.125 154.401 192.717 156.398 192.717C158.395 192.717 155.999 187.239 155.999 187.239L153.546 183.13L148.354 179.82Z" fill="#002B6A"/>
<path d="M167.752 135.593L170.262 133.026L174.769 133.425L178.876 136.05L174.541 139.474L171.003 140.387L167.752 135.593Z" fill="#FFBE92"/>
<path d="M159.65 137.249L148.867 123.211L146.015 132.113L156.854 145.067L171.801 140.33L167.751 135.423L159.65 137.249Z" fill="#002B6A"/>
<path d="M157.426 199.279C157.825 199.108 158.396 199.108 158.966 199.45C160.336 200.249 161.42 202.361 161.42 204.187C161.42 205.214 161.077 206.298 160.507 206.583L156.685 208.524L153.49 201.676L157.426 199.279Z" fill="#002B6A"/>
<path d="M152.577 203.56C152.577 205.386 153.661 207.497 155.03 208.296C156.399 209.095 157.483 208.239 157.483 206.413C157.483 204.587 156.399 202.475 155.03 201.676C153.718 200.935 152.577 201.791 152.577 203.56Z" fill="#11487F"/>
<path d="M154.118 204.472C154.118 205.157 154.518 205.956 155.088 206.299C155.602 206.584 156.058 206.299 156.058 205.614C156.058 204.929 155.659 204.13 155.088 203.787C154.575 203.445 154.118 203.787 154.118 204.472Z" fill="#002B6A"/>
<path d="M130.612 199.279C130.213 199.108 129.642 199.108 129.072 199.45C127.703 200.249 126.619 202.361 126.619 204.187C126.619 205.214 126.847 206.241 127.418 206.526L131.411 208.524L134.606 201.676L130.612 199.279Z" fill="#002B6A"/>
<path d="M135.404 203.56C135.404 205.386 134.32 207.497 132.951 208.296C131.582 209.095 130.498 208.239 130.498 206.413C130.498 204.587 131.582 202.476 132.951 201.677C134.32 200.935 135.404 201.791 135.404 203.56Z" fill="#11487F"/>
<path d="M133.865 204.472C133.865 205.157 133.465 205.956 132.895 206.299C132.381 206.584 131.925 206.299 131.925 205.614C131.925 204.929 132.324 204.13 132.895 203.787C133.465 203.445 133.865 203.787 133.865 204.472Z" fill="#002B6A"/>
<path d="M153.089 185.868C152.69 185.697 152.233 185.697 151.72 186.04C150.522 186.724 149.552 188.608 149.552 190.205C149.552 191.119 149.837 192.032 150.351 192.26L153.774 193.972L156.626 187.923L153.089 185.868Z" fill="#002B6A"/>
<path d="M157.367 189.692C157.367 191.289 156.397 193.173 155.199 193.857C154.001 194.542 153.031 193.8 153.031 192.202C153.031 190.605 154.001 188.721 155.199 188.037C156.34 187.352 157.367 188.094 157.367 189.692Z" fill="#11487F"/>
<path d="M155.998 190.491C155.998 191.118 155.599 191.803 155.142 192.089C154.686 192.374 154.286 192.089 154.286 191.461C154.286 190.833 154.686 190.148 155.142 189.863C155.599 189.577 155.998 189.863 155.998 190.491Z" fill="#002B6A"/>
<path d="M134.263 185.868C134.663 185.697 135.119 185.697 135.633 186.039C136.831 186.724 137.8 188.607 137.8 190.205C137.8 191.118 137.515 192.031 137.002 192.317L133.579 194.029L130.726 187.98L134.263 185.868Z" fill="#002B6A"/>
<path d="M129.985 189.692C129.985 191.29 130.955 193.173 132.153 193.858C133.351 194.543 134.321 193.801 134.321 192.203C134.321 190.605 133.351 188.722 132.153 188.037C130.955 187.352 129.985 188.094 129.985 189.692Z" fill="#11487F"/>
<path d="M131.354 190.492C131.354 191.119 131.753 191.804 132.21 192.09C132.666 192.375 133.066 192.09 133.066 191.462C133.066 190.834 132.666 190.149 132.21 189.864C131.696 189.578 131.354 189.864 131.354 190.492Z" fill="#002B6A"/>
<path d="M157.311 185.926L156.798 187.924L148.754 193.117L147.556 190.663L157.311 185.926Z" fill="#168CA8"/>
<path d="M143.733 189.977L145.901 187.295L154.059 184.328L157.311 185.926L147.556 190.89L143.733 189.977Z" fill="#33B3C4"/>
<path d="M130.213 185.926L130.727 187.924L138.77 193.117L139.968 190.663L130.213 185.926Z" fill="#168CA8"/>
<path d="M143.791 189.978L141.566 187.296L133.636 184.271L130.213 185.926L139.969 190.891L143.791 189.978Z" fill="#33B3C4"/>
<path d="M161.646 200.991L160.791 202.989L157.025 204.872L143.79 196.198V192.032L161.646 200.991Z" fill="#168CA8"/>
<path d="M147.156 189.978L161.646 200.991L157.539 202.989L143.79 193.63V189.978H147.156Z" fill="#33B3C4"/>
<path d="M126.447 201.22L127.474 203.331L130.555 204.872L143.79 196.198V192.032L126.447 201.22Z" fill="#168CA8"/>
<path d="M140.424 189.978L126.447 201.22L129.984 202.989L143.79 193.63V189.978H140.424Z" fill="#33B3C4"/>
<path d="M143.791 193.402C145.902 193.402 147.613 191.804 147.613 189.806V173.086H140.026V189.806C139.969 191.804 141.68 193.402 143.791 193.402Z" fill="#33B3C4"/>
<path d="M128.216 161.787L141.337 154.197C142.877 153.284 144.817 153.284 146.414 154.197L158.167 160.988L164.214 162.072V167.322C164.214 168.407 163.7 169.434 162.616 170.062L144.532 179.078C142.992 179.991 141.052 179.991 139.454 179.078L123.024 170.918C121.94 170.29 121.427 169.263 121.427 168.178V162.928L128.216 161.787Z" fill="#B33939"/>
<path d="M162.617 159.333L146.415 148.947C144.875 148.034 142.935 148.034 141.338 148.947L122.968 160.189C120.858 161.387 120.858 164.469 122.968 165.667L139.456 173.828C140.996 174.741 142.935 174.741 144.533 173.828L162.617 164.868C164.728 163.613 164.728 160.589 162.617 159.333Z" fill="#FF5252"/>
<path d="M148.013 146.037L153.262 145.067L160.906 150.031L166.897 154.311L164.957 161.102L142.993 170.176L138.657 170.461C138.657 170.461 130.442 166.923 128.331 165.553C125.137 163.499 124.053 157.336 125.821 154.311C127.59 151.287 148.013 146.037 148.013 146.037Z" fill="#002B6A"/>
<path d="M130.156 115.963L125.364 122.24C125.364 122.24 125.364 137.192 125.364 141.871C125.364 146.493 126.676 155.282 126.676 155.282L143.905 160.417L154.345 154.311L148.925 143.241L150.751 133.539L148.925 123.153L130.156 115.963Z" fill="#002B6A"/>
<path d="M118.746 133.082L125.193 130.001C125.991 129.658 126.961 129.601 127.817 130.115L143.676 138.504C146.358 140.045 148.012 142.898 148.012 145.979V151.287C148.012 152.542 147.271 153.855 146.244 154.311L141.851 156.537L134.492 148.547L126.733 144.096C124.052 142.555 122.397 139.702 122.397 136.621V135.422L118.746 133.082Z" fill="#FF5252"/>
<path d="M138.657 156.651L121.77 148.32C119.089 146.779 117.434 143.926 117.434 140.844V135.537C117.434 133.311 119.83 131.885 121.77 133.026L138.657 141.415C141.338 142.956 142.992 145.809 142.992 148.89V154.198C143.049 156.423 140.596 157.793 138.657 156.651Z" fill="#B33939"/>
<path d="M124.509 170.119V141.243C124.509 139.702 125.137 138.561 126.506 137.762L130.956 139.874V174.741C130.956 174.741 128.446 174.741 127.305 174.113L126.62 173.714C125.308 173.029 124.509 171.602 124.509 170.119Z" fill="#168CA8"/>
<path d="M149.894 100.441L150.579 105.12L148.867 113.509L144.303 115.906C144.36 115.963 145.501 100.441 149.894 100.441Z" fill="#FFBE92"/>
<path d="M147.442 92.1664L143.905 89.4272L135.461 91.3104L130.156 96.2752V111.797L126.334 117.447L126.048 126.292L140.311 133.539L143.163 131.428L146.244 124.409L146.472 109.686L148.868 101.982L152.348 100.612L150.979 94.1637L147.442 92.1664Z" fill="#002B6A"/>
<path d="M154.459 183.529L152.234 186.782L155.771 190.834L159.707 194.828L162.503 196.426L163.986 194.03L159.65 186.782L154.459 183.529Z" fill="#002B6A"/>
<path d="M270.213 167.438L250.245 174.114V199.223C250.245 204.302 257.034 208.411 265.363 208.411C273.693 208.411 280.481 204.302 280.481 199.223V174.114L270.213 167.438Z" fill="white"/>
<path d="M265.363 183.361C273.713 183.361 280.481 179.247 280.481 174.173C280.481 169.099 273.713 164.985 265.363 164.985C257.014 164.985 250.245 169.099 250.245 174.173C250.245 179.247 257.014 183.361 265.363 183.361Z" fill="#86E2DE"/>
<path d="M252.527 178.965C255.208 181.59 259.944 183.359 265.363 183.359C270.783 183.359 275.575 181.59 278.199 178.965C278.37 178.451 278.484 177.88 278.484 177.31C278.484 172.859 272.608 169.321 265.363 169.321C258.118 169.321 252.242 172.916 252.242 177.31C252.242 177.88 252.356 178.451 252.527 178.965Z" fill="#33B3C4"/>
<path d="M279.454 174.171C279.454 178.565 273.008 182.331 265.42 182.331C257.776 182.331 251.386 178.622 251.386 174.171C251.386 169.777 257.833 166.01 265.42 166.01C270.783 166.41 280.139 169.777 279.454 174.171ZM265.363 164.926C257.034 164.926 250.245 169.035 250.245 174.114C250.245 179.193 257.034 183.301 265.363 183.301C273.692 183.301 280.481 179.193 280.481 174.114C280.481 169.092 273.749 164.926 265.363 164.926Z" fill="#C0F6FB"/>
<path d="M258.516 129.089L255.664 138.79L255.606 148.776C255.606 148.776 255.606 156.423 257.147 160.075C258.687 163.728 262.053 167.209 267.187 168.921C269.755 169.777 272.949 170.062 275.345 169.092C276.429 168.635 273.292 167.437 273.976 166.752C279.795 160.76 276.315 154.54 272.151 148.719C267.359 142.1 258.516 129.089 258.516 129.089Z" fill="#006859"/>
<path d="M249.56 159.162C248.932 150.945 249.617 140.73 249.617 140.73L252.241 126.749L255.207 138.847L258.687 153.227L262.453 132.627L266.104 113.852L268.329 132.113C269.298 135.366 269.527 138.79 269.698 142.157C269.983 147.064 270.554 156.937 270.554 156.937L273.007 145.181L278.198 109.515L280.537 134.852L282.933 137.82C282.933 137.82 281.564 160.075 279.453 167.494C277 175.94 269.127 181.703 260.057 179.706C251.784 177.88 250.073 166.01 249.56 159.162Z" fill="#009681"/>
<path d="M276.03 169.149L276.543 153.969L275.459 145.01L272.892 124.523L262.795 165.782L262.68 173.486C262.68 173.486 268.271 179.478 271.01 178.507C273.177 177.823 276.03 169.149 276.03 169.149Z" fill="#00B09D"/>
<path d="M260.741 169.092L261.997 161.216L262.567 156.423L262.396 145.181L267.816 167.266L267.873 171.374C267.873 171.374 264.849 174.57 263.423 174.056C262.282 173.714 260.741 169.092 260.741 169.092Z" fill="#00B09D"/>
<path opacity="0.68" d="M188.006 58.1263C195.903 51.9585 194.1 36.4465 183.979 23.4793C173.857 10.512 159.25 4.99992 151.353 11.1677C143.456 17.3354 145.259 32.8474 155.38 45.8146C165.502 58.7819 180.109 64.294 188.006 58.1263Z" fill="#E6FFFE"/>
<path d="M157.309 40.0082L163.983 37.4402L175.735 41.8913L185.091 49.4241L187.031 54.9595C187.031 54.9595 187.145 56.3861 187.316 58.6688C183.038 61.465 176.762 61.465 169.688 57.984C163.983 55.1307 158.735 50.4513 154.684 44.9729L157.309 40.0082Z" fill="#002B6A"/>
<path d="M158.564 46.3425L161.017 45.2582L160.39 43.2038C160.39 43.2038 162.672 40.8641 163.242 40.5217C163.812 40.9212 164.611 41.3207 165.182 41.4919C164.326 41.663 163.584 42.462 162.957 43.4321C162.843 43.6033 162.786 43.7174 162.672 43.8886C162.215 44.6305 161.93 45.4294 161.759 46.1142C161.245 47.9403 160.96 49.7094 160.732 51.5925C159.876 50.7936 159.02 49.9376 158.222 49.0816L158.564 46.3425Z" fill="#11487F"/>
<path d="M167.463 56.6713C166.608 56.1577 165.752 55.587 164.953 55.0164C165.467 54.1033 166.037 53.1902 166.608 52.3913C167.806 50.7935 169.175 49.7663 170.601 48.5679C170.943 48.2826 171.286 47.9972 171.628 47.7119C172.141 47.2554 172.769 46.5706 173.282 45.8287C173.91 44.8015 174.309 43.6602 173.796 42.576C173.739 42.6901 173.682 42.7472 173.682 42.8613C173.739 42.1194 173.796 41.3205 173.853 40.5786C173.853 40.1792 173.91 39.7797 173.91 39.3802C174.708 40.2362 176.306 42.6901 176.42 42.8042C176.876 44.345 175.279 48.682 175.279 48.682L174.252 51.4212L172.141 51.1929L172.369 53.875L167.463 56.6713Z" fill="#11487F"/>
<path d="M161.702 46.1721C161.702 46.1721 162.215 44.6884 162.615 43.9465C163.413 43.49 172.598 46.4004 173.283 45.8297C172.769 46.5716 171.628 47.7129 171.628 47.7129L170.602 48.5689L166.608 52.3923C166.608 52.3923 165.866 53.5907 165.068 55.0744C163.584 54.0472 162.158 52.8488 160.789 51.5934C161.074 49.1395 161.702 46.1721 161.702 46.1721Z" fill="#87D8E0"/>
<path d="M162.844 47.4273L162.958 47.2561L163.243 45.0305C163.243 45.0305 163.814 44.574 164.099 44.4028C164.498 44.1174 165.525 44.0033 165.525 44.0033C165.754 44.574 165.982 45.2017 166.21 45.8865C166.21 45.9435 166.267 46.0006 166.267 46.1147C165.696 46.7995 164.898 47.5414 164.099 47.9409C163.7 49.5958 163.472 52.8485 163.415 53.9328C162.616 53.3051 161.874 52.6773 161.133 51.9925L162.844 47.4273Z" fill="#002B6A"/>
<path d="M173.627 42.8613C171.972 45.7146 165.697 45.0298 165.469 42.9184L165.697 40.6357C165.469 41.1493 163.529 42.576 162.901 43.489C162.787 43.6602 162.73 43.7744 162.616 43.9456C162.616 44.345 162.844 45.2581 162.844 45.2581L163.187 45.0298L164.042 44.4021L165.526 44.1738C165.754 44.7445 166.553 47.6549 166.553 47.6549L170.774 47.1413C170.774 47.1413 172.543 46.4565 173.227 45.8858C173.855 44.8586 174.254 43.7173 173.741 42.6331C173.741 42.6331 173.684 42.7472 173.627 42.8613Z" fill="#CFFFFF"/>
<path d="M165.468 41.1493C165.411 41.1493 165.525 43.8314 165.525 43.9455C165.582 44.8585 171.914 46.5135 173.797 42.9754C173.854 42.2335 173.968 38.4101 173.968 38.0106C173.797 38.0106 173.74 36.0704 173.454 35.8992C172.884 36.3557 165.924 41.2063 165.468 41.1493Z" fill="#EB8F69"/>
<path d="M162.158 26.1984C162.843 27.0544 164.954 27.3968 166.038 27.7962C167.521 28.3098 171.457 30.0218 171.457 30.0218C171.457 30.8778 171.628 31.6197 171.799 32.5898C171.971 33.7311 172.541 34.5871 172.085 36.9268C172.598 36.5844 173.055 36.2991 173.511 35.9567C173.682 35.0436 173.853 34.0735 174.024 33.5599C174.481 33.1034 175.907 33.4458 175.451 34.7012C175.108 35.6713 174.709 37.8399 173.796 38.0111C173.568 38.0111 173.397 38.0111 173.112 37.8399C172.883 38.4676 171.514 39.5518 171.514 39.5518C171.514 39.5518 165.866 41.8345 165.353 41.7774C165.296 41.7774 162.615 40.6361 162.615 40.6361L161.645 31.7338C161.645 31.6767 162.044 26.5978 162.158 26.1984Z" fill="#EEA980"/>
<path d="M171.4 30.0216C171.4 30.8776 171.571 31.6194 171.742 32.5895C171.914 33.7309 172.484 34.5868 172.028 36.9266C172.541 36.5842 172.998 36.2988 173.454 35.9564C173.625 35.0434 173.796 34.0733 173.967 33.5597C174.424 33.1031 175.85 33.4455 175.394 34.701C175.051 35.6711 174.652 37.8396 173.739 38.0108C173.739 38.4103 173.682 39.1521 173.682 39.1521L174.709 38.6956L175.394 37.2119C176.934 34.5868 179.102 29.4509 179.102 29.4509L179.216 24.5432C179.216 24.5432 174.31 29.1085 171.4 30.0216Z" fill="#BF802E"/>
<path d="M170.317 30.2499C170.317 30.2499 171.286 30.0787 171.458 30.0217C174.31 29.1086 176.991 26.5977 179.273 24.5433C178.703 23.345 176.706 21.3476 176.706 21.3476C175.793 20.5487 170.317 19.1221 168.776 19.4074C168.092 19.5786 165.753 20.2063 165.296 20.3205C165.524 20.2634 161.246 20.8911 161.189 20.8911C161.189 20.8911 160.447 23.6873 161.189 25.114C161.417 25.5135 162.501 27.0542 162.501 27.0542C162.501 27.0542 168.605 30.307 170.317 30.2499Z" fill="#FFBF66"/>
<path opacity="0.68" d="M272.653 135.116C280.177 129.239 278.465 114.466 268.829 102.12C259.192 89.7739 245.28 84.5294 237.755 90.4062C230.231 96.283 231.943 111.056 241.579 123.402C251.216 135.748 265.128 140.993 272.653 135.116Z" fill="#E6FFFE"/>
<path d="M238.321 118.588L241.459 114.822L245.966 113.338L246.878 115.05L242.885 125.037C241.174 123.039 239.633 120.871 238.321 118.588Z" fill="#4D5080"/>
<path d="M258.23 110.143C258.116 111.398 257.831 114.651 257.831 114.651L260.17 117.847L259.428 123.04L256.119 130.629L247.277 128.632L245.508 126.35L241.686 118.817L246.991 112.368C246.934 112.368 258.572 109.515 258.23 110.143Z" fill="#EB8F69"/>
<path d="M263.594 137.477C261.027 137.249 258.174 136.393 255.208 134.966C248.99 131.885 243.399 126.521 239.405 120.415L240.432 117.162L247.221 113.11L247.164 115.678L245.11 120.928L246.365 124.295L253.325 123.781L258.403 119.901L259.658 116.534L267.302 123.724L263.594 137.477Z" fill="#3E3F78"/>
<path d="M247.676 98.5584C246.478 99.3003 244.482 99.6998 244.482 99.6998L244.367 104.265L245.851 115.564L248.304 116.762L254.979 114.309L255.834 111.798C255.834 111.798 257.203 112.54 258.858 109.458C259.257 108.374 259.714 107.004 259.714 107.004L259.371 101.069L250.7 97.1888C250.7 97.1318 248.475 98.2731 247.676 98.5584Z" fill="#EEA980"/>
<path d="M267.36 123.667L268.957 125.665L270.497 131.599L271.011 136.165C268.329 137.534 265.021 137.877 261.255 137.078L260.457 132.455L260 127.034L262.91 123.097L267.36 123.667Z" fill="#4D5080"/>
<path d="M254.238 103.808L253.668 106.376L254.352 109.344L255.779 109.058C255.779 109.058 256.121 107.86 256.577 107.46C256.977 107.004 258.346 107.061 258.118 108.259C257.946 109.172 257.889 111.227 257.034 111.512C257.091 111.855 257.148 112.539 257.148 112.539L258.06 111.969L258.517 110.542C259.601 107.974 260.856 102.952 260.856 102.952L260.913 99.3L259.544 97.6451L258.802 95.1342L256.52 94.5065L249.788 94.963L245.966 96.1043L244.483 96.0472L243.171 97.8734L244.369 102.667L245.51 102.325L246.708 102.496L252.127 101.982L254.238 103.808Z" fill="#152A3F"/>
<path opacity="0.34" d="M357.723 237.8L322.467 256.004L285.841 237.686L321.383 219.596L357.723 237.8Z" fill="#33B3C4"/>
<path d="M353.902 232.72L319.901 249.726L285.843 232.72L319.901 215.715L353.902 232.72Z" fill="#FF5252"/>
<path d="M285.842 232.721V235.802L319.9 252.808V249.726L285.842 232.721Z" fill="#E52C2C"/>
<path d="M353.901 232.721V235.802L319.9 252.808V249.726L353.901 232.721Z" fill="#A61D1D"/>
<path d="M328.742 225.815C328.742 225.815 328.8 225.815 328.8 225.758C328.8 225.758 328.857 225.758 328.857 225.701C328.914 225.644 329.028 225.644 329.085 225.587C329.142 225.53 329.256 225.53 329.37 225.53C329.541 225.473 329.712 225.416 329.883 225.416H329.941C330.055 225.416 330.112 225.359 330.226 225.359H330.283C330.625 225.302 330.967 225.302 331.31 225.302C331.367 225.302 331.367 225.302 331.424 225.302C331.481 225.302 331.538 225.302 331.595 225.302C331.652 225.302 331.652 225.302 331.709 225.302C331.766 225.302 331.88 225.302 331.937 225.302C331.937 225.302 331.937 225.302 331.994 225.302C332.222 225.302 332.394 225.359 332.565 225.416C332.736 225.473 332.907 225.473 333.078 225.53C333.135 225.53 333.135 225.53 333.192 225.587C333.363 225.644 333.535 225.701 333.649 225.758C333.706 225.758 333.763 225.815 333.82 225.815C333.82 225.815 333.877 225.815 333.877 225.872C333.877 225.872 333.934 225.872 333.934 225.929C333.991 225.929 334.048 225.987 334.048 225.987C334.162 226.044 334.276 226.158 334.39 226.215L334.447 226.272C334.561 226.386 334.619 226.443 334.676 226.557C334.733 226.671 334.79 226.728 334.847 226.843C334.847 226.9 334.847 226.9 334.904 226.957V227.014V227.071V227.128C334.904 227.299 334.847 227.47 334.79 227.641C334.79 227.641 334.79 227.641 334.79 227.699C334.79 227.756 334.733 227.813 334.676 227.813C334.619 227.927 334.504 227.984 334.447 228.098C334.39 228.155 334.333 228.212 334.276 228.212C334.219 228.269 334.162 228.269 334.162 228.269H334.105H334.048L333.991 228.326C333.934 228.326 333.934 228.383 333.877 228.383C333.82 228.383 333.763 228.44 333.763 228.44C333.706 228.44 333.649 228.497 333.592 228.497C333.535 228.555 333.421 228.555 333.363 228.612C333.306 228.669 333.192 228.669 333.078 228.669C332.907 228.726 332.736 228.783 332.565 228.783H332.508C332.394 228.783 332.337 228.84 332.222 228.84H332.165C331.88 228.897 331.538 228.897 331.253 228.897C331.196 228.897 331.139 228.897 331.082 228.897C331.024 228.897 330.967 228.897 330.91 228.897C330.853 228.897 330.853 228.897 330.796 228.897C330.739 228.897 330.625 228.897 330.568 228.897C330.568 228.897 330.568 228.897 330.511 228.897C330.397 228.897 330.283 228.897 330.169 228.84C330.112 228.84 329.998 228.84 329.941 228.783C329.769 228.726 329.598 228.726 329.427 228.669C329.37 228.669 329.37 228.669 329.313 228.612C329.142 228.555 328.971 228.497 328.857 228.44C328.8 228.44 328.743 228.383 328.685 228.383C328.685 228.383 328.628 228.383 328.628 228.326C328.628 228.326 328.571 228.326 328.571 228.269C328.514 228.269 328.457 228.212 328.457 228.212C328.343 228.155 328.229 228.041 328.115 227.984L328.058 227.927C327.944 227.813 327.887 227.756 327.83 227.641C327.773 227.584 327.773 227.527 327.716 227.527C327.659 227.47 327.659 227.413 327.659 227.356C327.659 227.299 327.659 227.299 327.602 227.242V227.185V227.128V227.071C327.602 226.9 327.659 226.728 327.716 226.557C327.716 226.557 327.716 226.557 327.716 226.5C327.716 226.443 327.773 226.386 327.83 226.386C327.83 226.386 327.83 226.386 327.887 226.329C327.944 226.215 328.058 226.158 328.115 226.044C328.172 225.987 328.229 225.929 328.286 225.929C328.343 225.872 328.4 225.872 328.457 225.815C328.514 225.815 328.514 225.758 328.571 225.758C328.628 225.758 328.685 225.701 328.685 225.701C328.685 225.872 328.742 225.872 328.742 225.815ZM334.276 228.497C334.219 228.497 334.219 228.497 334.219 228.497C334.219 228.497 334.219 228.497 334.276 228.497ZM334.276 228.497H334.219C334.219 228.497 334.219 228.497 334.276 228.497ZM321.611 227.641L318.816 229.011C318.759 229.011 318.759 229.068 318.816 229.068L327.544 233.462C327.602 233.462 327.659 233.519 327.716 233.462L330.511 232.093C330.568 232.093 330.625 232.036 330.625 232.036C331.253 231.693 331.595 231.237 331.652 230.837C331.652 230.837 331.652 230.837 331.652 230.78C331.652 230.552 331.595 230.381 331.481 230.152C331.481 230.152 331.481 230.152 331.481 230.095C331.424 230.038 331.424 229.981 331.367 229.924C331.367 229.924 331.367 229.924 331.31 229.867C331.253 229.81 331.196 229.753 331.139 229.753C330.967 229.753 330.796 229.753 330.625 229.753C330.169 229.753 329.769 229.696 329.37 229.582C329.313 229.582 329.199 229.525 329.142 229.525C328.857 229.468 328.571 229.411 328.343 229.296C328.115 229.182 327.887 229.125 327.659 229.011C327.43 228.897 327.202 228.726 327.031 228.612L326.974 228.555C326.917 228.555 326.86 228.497 326.86 228.497C326.746 228.44 326.746 228.326 326.632 228.269C326.632 228.212 326.575 228.212 326.575 228.155C326.461 227.984 326.403 227.813 326.346 227.641V227.584C326.289 227.47 326.289 227.356 326.289 227.242C324.92 226.843 323.095 226.9 321.84 227.47C321.668 227.584 321.668 227.641 321.611 227.641ZM323.551 236.087C323.494 236.087 323.437 236.144 323.437 236.144C323.38 236.144 323.323 236.201 323.323 236.201C323.266 236.258 323.209 236.258 323.152 236.316C323.095 236.373 323.038 236.43 322.981 236.43C322.866 236.487 322.809 236.601 322.752 236.715C322.752 236.715 322.752 236.715 322.695 236.772C322.638 236.829 322.638 236.886 322.581 236.886C322.581 236.886 322.581 236.886 322.581 236.943C322.467 237.114 322.467 237.286 322.467 237.457V237.514V237.571V237.628C322.467 237.685 322.467 237.685 322.524 237.742C322.524 237.799 322.581 237.856 322.581 237.913C322.581 237.97 322.638 238.027 322.695 238.027C322.752 238.142 322.866 238.199 322.923 238.313L322.981 238.37C323.095 238.427 323.209 238.541 323.323 238.598C323.38 238.598 323.38 238.655 323.437 238.655C323.437 238.655 323.494 238.655 323.494 238.712C323.494 238.712 323.551 238.712 323.551 238.769C323.608 238.769 323.665 238.826 323.722 238.826C323.893 238.883 324.007 238.941 324.179 238.998C324.236 238.998 324.236 238.998 324.293 239.055C324.464 239.112 324.635 239.169 324.806 239.169C324.92 239.169 324.977 239.226 325.034 239.226C325.148 239.226 325.263 239.283 325.377 239.283C325.377 239.283 325.377 239.283 325.434 239.283C325.491 239.283 325.605 239.283 325.662 239.283C325.719 239.283 325.719 239.283 325.776 239.283C325.833 239.283 325.89 239.283 325.947 239.283C326.004 239.283 326.061 239.283 326.118 239.283C326.461 239.283 326.746 239.283 327.031 239.226H327.088C327.202 239.226 327.259 239.226 327.373 239.169H327.43C327.602 239.112 327.773 239.112 327.944 239.055C328.058 239.055 328.115 238.998 328.229 238.998C328.286 238.998 328.4 238.941 328.457 238.883C328.514 238.883 328.571 238.826 328.628 238.826C328.685 238.826 328.742 238.769 328.742 238.769C328.8 238.769 328.857 238.712 328.857 238.712L328.914 238.655C328.914 238.655 328.971 238.655 328.971 238.598C328.971 238.598 329.028 238.598 329.028 238.541C329.085 238.541 329.142 238.484 329.142 238.427C329.199 238.37 329.256 238.313 329.313 238.313C329.427 238.256 329.484 238.142 329.541 238.027C329.598 237.97 329.598 237.913 329.655 237.913C329.655 237.913 329.655 237.913 329.655 237.856C329.769 237.685 329.769 237.514 329.769 237.343V237.286V237.229V237.171C329.769 237.114 329.769 237.114 329.712 237.057C329.655 236.943 329.598 236.829 329.541 236.772C329.484 236.658 329.37 236.601 329.313 236.487L329.256 236.43C329.142 236.373 329.028 236.258 328.914 236.201C328.857 236.201 328.857 236.144 328.8 236.144C328.8 236.144 328.742 236.144 328.742 236.087C328.742 236.087 328.685 236.087 328.685 236.03C328.628 236.03 328.571 235.973 328.514 235.973C328.343 235.916 328.229 235.859 328.058 235.802C328.001 235.802 328.001 235.802 327.944 235.745C327.773 235.688 327.602 235.631 327.43 235.631C327.259 235.574 327.031 235.574 326.86 235.517C326.86 235.517 326.86 235.517 326.803 235.517C326.746 235.517 326.632 235.517 326.575 235.517C326.518 235.517 326.518 235.517 326.461 235.517C326.403 235.517 326.346 235.517 326.289 235.517C326.232 235.517 326.232 235.517 326.175 235.517C325.833 235.517 325.491 235.517 325.148 235.574H325.091C324.977 235.574 324.92 235.574 324.806 235.631H324.749C324.578 235.688 324.407 235.688 324.236 235.745C324.122 235.745 324.064 235.802 323.95 235.802C323.893 235.802 323.779 235.859 323.722 235.916C323.722 235.916 323.665 235.916 323.665 235.973C323.665 235.973 323.608 235.973 323.608 236.03C323.608 236.03 323.608 236.03 323.551 236.087ZM329.142 238.655C329.085 238.655 329.085 238.655 329.085 238.655C329.142 238.655 329.142 238.655 329.142 238.655ZM329.142 238.655H329.085C329.142 238.655 329.142 238.655 329.142 238.655ZM316.477 237.742L313.682 239.112C313.625 239.112 313.682 239.169 313.739 239.169L322.467 243.563C322.524 243.563 322.581 243.62 322.638 243.62L325.434 242.25C325.491 242.25 325.491 242.193 325.548 242.193C326.175 241.851 326.518 241.394 326.575 240.995C326.575 240.995 326.575 240.995 326.575 240.938C326.575 240.71 326.518 240.538 326.403 240.31C326.403 240.31 326.403 240.31 326.403 240.253C326.346 240.196 326.346 240.139 326.289 240.082C326.289 240.082 326.289 240.082 326.232 240.025C326.175 239.968 326.118 239.911 326.061 239.911C325.89 239.911 325.719 239.911 325.548 239.911C325.091 239.911 324.692 239.854 324.293 239.739C324.236 239.739 324.122 239.682 324.064 239.682C323.779 239.625 323.494 239.568 323.266 239.454C323.038 239.34 322.809 239.283 322.581 239.169C322.353 239.055 322.125 238.884 321.954 238.769L321.897 238.712C321.84 238.712 321.783 238.655 321.783 238.655C321.668 238.598 321.668 238.484 321.554 238.427C321.554 238.37 321.497 238.37 321.497 238.313C321.383 238.142 321.326 237.97 321.269 237.799C321.269 237.799 321.269 237.742 321.212 237.742C321.155 237.628 321.155 237.514 321.155 237.4C319.786 237 317.96 237.057 316.705 237.628C316.591 237.742 316.534 237.742 316.477 237.742ZM308.547 228.44C308.49 228.44 308.433 228.497 308.433 228.497C308.376 228.497 308.319 228.555 308.319 228.555C308.262 228.612 308.205 228.612 308.148 228.669C308.091 228.726 308.034 228.783 307.977 228.783C307.863 228.84 307.806 228.954 307.748 229.068C307.748 229.068 307.748 229.068 307.691 229.125C307.634 229.182 307.634 229.239 307.577 229.239C307.577 229.239 307.577 229.239 307.577 229.296C307.463 229.468 307.463 229.639 307.463 229.81V229.867V229.924V229.981C307.463 230.038 307.463 230.038 307.52 230.095C307.52 230.152 307.577 230.209 307.577 230.267C307.577 230.324 307.634 230.381 307.691 230.381C307.748 230.495 307.863 230.552 307.92 230.666L307.977 230.723C308.091 230.78 308.205 230.894 308.319 230.951C308.376 230.951 308.376 231.008 308.433 231.008C308.433 231.008 308.49 231.008 308.49 231.065C308.49 231.065 308.547 231.065 308.547 231.123C308.604 231.123 308.661 231.18 308.718 231.18C308.889 231.237 309.004 231.294 309.175 231.351C309.232 231.351 309.232 231.351 309.289 231.408C309.46 231.465 309.631 231.522 309.802 231.522C309.859 231.522 309.973 231.579 310.03 231.579C310.145 231.579 310.259 231.636 310.373 231.636C310.487 231.636 310.544 231.636 310.601 231.636C310.658 231.636 310.658 231.636 310.715 231.636C310.772 231.636 310.829 231.636 310.886 231.636C310.943 231.636 311 231.636 311.057 231.636C311.4 231.636 311.685 231.636 311.97 231.579H312.027C312.141 231.579 312.198 231.579 312.312 231.522H312.369C312.541 231.465 312.712 231.465 312.883 231.408C312.997 231.408 313.054 231.351 313.168 231.351C313.225 231.351 313.339 231.294 313.396 231.237C313.453 231.237 313.51 231.18 313.567 231.18C313.625 231.18 313.682 231.123 313.682 231.123C313.739 231.123 313.796 231.065 313.853 231.065C313.853 231.065 313.91 231.065 313.967 231.008V230.951C313.967 230.951 313.967 230.951 314.024 230.894C314.081 230.894 314.081 230.837 314.138 230.78C314.195 230.723 314.252 230.666 314.309 230.666C314.423 230.609 314.48 230.495 314.537 230.381C314.594 230.324 314.594 230.267 314.651 230.267C314.651 230.267 314.651 230.267 314.651 230.209C314.765 230.038 314.765 229.867 314.765 229.696V229.639V229.582V229.525C314.765 229.468 314.766 229.468 314.708 229.411C314.651 229.296 314.594 229.182 314.537 229.125C314.48 229.011 314.366 228.954 314.309 228.84L314.252 228.783C314.138 228.726 314.024 228.612 313.91 228.555C313.853 228.555 313.853 228.497 313.796 228.497C313.796 228.497 313.739 228.497 313.739 228.44C313.739 228.44 313.682 228.44 313.682 228.383C313.625 228.383 313.567 228.326 313.51 228.326C313.339 228.269 313.225 228.212 313.054 228.155C312.997 228.155 312.997 228.155 312.94 228.098C312.769 228.041 312.598 227.984 312.427 227.984C312.255 227.927 312.027 227.927 311.856 227.87C311.742 227.87 311.685 227.87 311.628 227.87C311.571 227.87 311.571 227.87 311.514 227.87C311.457 227.87 311.4 227.87 311.343 227.87C311.286 227.87 311.286 227.87 311.228 227.87C310.886 227.87 310.544 227.87 310.202 227.927H310.145C310.03 227.927 309.973 227.927 309.859 227.984H309.802C309.631 228.041 309.46 228.041 309.289 228.098C309.175 228.098 309.118 228.155 309.004 228.155C308.947 228.155 308.832 228.212 308.775 228.269C308.775 228.269 308.718 228.269 308.718 228.326C308.718 228.326 308.661 228.326 308.661 228.383C308.661 228.383 308.604 228.44 308.547 228.44ZM314.195 231.065C314.138 231.065 314.138 231.065 314.138 231.065C314.138 231.008 314.138 231.065 314.195 231.065ZM314.195 231.065H314.138C314.138 231.008 314.138 231.065 314.195 231.065ZM301.53 230.152L298.735 231.522C298.678 231.522 298.621 231.579 298.678 231.636L307.406 236.03C307.463 236.03 307.52 236.03 307.577 236.03L310.373 234.661C310.43 234.661 310.487 234.604 310.487 234.604C311.114 234.261 311.457 233.805 311.514 233.405C311.514 233.405 311.514 233.405 311.514 233.348C311.514 233.12 311.457 232.949 311.343 232.72C311.343 232.72 311.343 232.72 311.343 232.663C311.286 232.606 311.286 232.549 311.228 232.492C311.228 232.492 311.228 232.492 311.171 232.435C311.114 232.378 311.057 232.321 311 232.321C310.829 232.321 310.658 232.321 310.487 232.321C310.03 232.321 309.631 232.264 309.232 232.15C309.175 232.15 309.061 232.093 309.004 232.093C308.718 232.036 308.433 231.978 308.205 231.864C307.977 231.75 307.748 231.693 307.52 231.579C307.292 231.465 307.064 231.294 306.893 231.18C306.893 231.18 306.893 231.123 306.836 231.123C306.779 231.123 306.722 231.065 306.722 231.065C306.608 231.008 306.55 230.894 306.493 230.837C306.493 230.78 306.436 230.78 306.436 230.723C306.322 230.552 306.208 230.438 306.151 230.267V230.209C306.094 230.095 306.094 229.981 306.094 229.867C304.725 229.468 302.899 229.525 301.644 230.095C301.587 230.152 301.53 230.152 301.53 230.152ZM321.783 231.579L317.732 233.576C317.561 233.633 317.561 233.805 317.732 233.862L318.188 234.09C318.36 234.147 318.645 234.147 318.816 234.09L322.866 232.093C323.038 232.036 323.038 231.864 322.866 231.807L322.41 231.579C322.239 231.465 321.954 231.465 321.783 231.579ZM318.93 233.348L313.282 233.006C313.054 233.006 312.826 233.063 312.826 233.177L312.769 233.519C312.769 233.633 312.883 233.748 313.168 233.748L318.816 234.09C319.044 234.09 319.272 234.033 319.272 233.919L319.329 233.576C319.329 233.462 319.158 233.405 318.93 233.348ZM319.044 236.715L319.672 236.658C319.9 236.658 320.071 236.544 320.071 236.43L319.444 233.633C319.444 233.519 319.215 233.405 318.987 233.462L318.36 233.519C318.131 233.519 317.96 233.633 317.96 233.748L318.588 236.544C318.588 236.658 318.816 236.715 319.044 236.715Z" fill="white"/>
<path opacity="0.34" d="M110.874 159.562L73.7924 178.679L35.2273 159.448L72.6514 140.445L110.874 159.562Z" fill="#33B3C4"/>
<path d="M107.794 153.969L70.5984 172.516L33.4595 153.969L70.5984 135.366L107.794 153.969Z" fill="#95D94C"/>
<path d="M33.459 153.969V157.336L70.6549 175.883L70.5979 172.516L33.459 153.969Z" fill="#35C473"/>
<path d="M107.794 153.969V157.336L70.6547 175.883L70.5977 172.516L107.794 153.969Z" fill="#358C11"/>
<path d="M72.9925 148.263C72.5361 148.548 71.9656 148.833 71.5092 149.119C69.5125 150.545 69.7407 152.714 72.0797 154.14C72.3079 154.255 72.3649 154.426 72.6502 154.483C73.677 154.996 74.7039 155.453 76.0161 155.738C76.3583 155.852 76.7577 155.852 77.1 155.967C76.6436 156.366 76.0161 156.651 75.4456 156.937C75.3885 156.994 75.3885 157.051 75.3315 157.051C74.9892 158.82 74.6469 160.589 74.2475 162.358C73.1636 161.331 72.1367 160.361 70.9957 159.333C70.14 159.733 69.3984 160.189 68.5426 160.646C67.4587 161.274 66.0895 161.787 64.4922 162.016C61.2404 162.586 57.2469 162.244 54.4515 161.103C53.0253 160.475 51.5991 159.847 50.6863 159.048C50.0017 158.477 49.6024 157.793 49.3171 157.165C49.146 156.309 49.2601 155.453 49.8876 154.711C50.2299 154.198 50.8574 153.741 51.485 153.342C54.2233 151.858 56.9046 150.374 59.643 148.89C61.2404 147.977 63.5794 147.407 66.0325 147.293C66.2036 147.293 66.4318 147.293 66.603 147.235C66.603 147.235 66.66 147.235 66.7171 147.235C68.942 147.293 71.1669 147.635 72.9925 148.263ZM90.9629 148.206C91.6475 149.176 91.5334 150.26 90.5635 151.116C90.1642 151.515 89.4796 151.801 88.9091 152.143C89.8219 152.371 90.7917 152.543 91.7045 152.771C92.3891 152.942 92.218 153.513 91.4763 153.57C89.4226 153.798 87.4258 153.969 85.3721 154.14C85.0298 154.198 84.8586 154.369 84.6304 154.483C83.0331 155.339 80.5229 155.681 78.1839 155.453C76.7006 155.282 75.3315 154.882 74.3046 154.369C72.9925 153.798 72.0226 152.999 71.6803 152.2C71.2239 151.173 71.7944 150.032 73.1636 149.29C74.818 148.377 76.4724 147.464 78.1839 146.551C78.8685 146.151 79.7813 145.866 80.7511 145.638C82.8049 145.238 85.4862 145.409 87.4258 146.037C87.7681 146.151 87.9393 146.265 88.2245 146.379C89.4226 146.893 90.4494 147.464 90.9629 148.206ZM87.1977 147.064C85.1439 146.265 81.5498 146.094 79.7813 146.95C77.8987 147.977 76.0161 149.005 74.1905 150.032C72.9925 150.888 73.0495 152.086 74.2475 152.999C74.761 153.399 75.5597 153.741 76.3013 154.026C78.241 154.768 81.1505 154.768 82.919 154.026C83.5465 153.798 83.8888 153.342 84.7445 153.284C85.8855 153.17 87.0265 153.056 88.2245 152.942C87.8252 152.828 87.3688 152.771 86.9695 152.657C86.5131 152.543 86.399 152.257 86.6272 152.029C87.597 151.458 88.9091 150.945 89.3655 150.203C89.9931 149.233 89.4796 148.091 87.9393 147.35C87.7111 147.293 87.4258 147.178 87.1977 147.064Z" fill="white"/>
<path opacity="0.34" d="M244.083 229.697L213.106 245.733L180.873 229.64L212.136 213.776L244.083 229.697Z" fill="#33B3C4"/>
<path d="M242.486 225.53L211.68 240.938L180.874 225.53L211.68 210.18L242.486 225.53Z" fill="#FFD62C"/>
<path d="M180.873 225.53V228.384L211.679 243.734V240.938L180.873 225.53Z" fill="#FFB000"/>
<path d="M242.487 225.53V228.384L211.68 243.734V240.938L242.487 225.53Z" fill="#E08910"/>
<path d="M209.684 224.617C207.345 225.759 205.12 225.017 205.12 225.017L205.234 224.96L210.996 222.107C211.053 222.049 211.966 223.476 209.684 224.617ZM210.825 225.188C210.939 225.131 210.939 225.017 210.825 224.96C210.71 224.903 210.482 224.903 210.311 224.96C210.197 225.017 210.197 225.131 210.311 225.188C210.482 225.245 210.71 225.245 210.825 225.188ZM211.794 225.645C211.908 225.588 211.908 225.473 211.794 225.416C211.68 225.359 211.452 225.359 211.281 225.416C211.167 225.473 211.167 225.588 211.281 225.645C211.395 225.759 211.623 225.759 211.794 225.645ZM212.479 226.044C212.308 226.101 212.308 226.215 212.479 226.329C212.65 226.387 212.878 226.387 212.992 226.329C213.164 226.272 213.164 226.158 212.992 226.044C212.878 225.93 212.593 225.93 212.479 226.044ZM212.65 224.047L214.59 225.017C217.499 224.275 220.979 224.789 224.516 226.387L225.486 225.93L227.312 226.843L214.076 233.463L212.251 232.55L213.392 231.979C210.14 230.21 209.227 228.441 210.653 227.014L208.714 226.044C205.804 226.786 202.267 226.272 198.673 224.617L197.532 225.188L195.707 224.275L208.942 217.655L210.767 218.568L209.798 219.025C213.164 220.851 214.133 222.62 212.65 224.047ZM214.362 225.816L211.053 224.161L211.338 223.933C213.221 222.392 211.224 220.68 208.942 219.482L199.586 224.161C202.096 225.302 205.462 226.272 208.543 225.359L208.942 225.245L212.251 226.9L211.966 227.128C210.14 228.669 212.023 230.324 214.247 231.522L215.331 231.009L215.046 229.24L214.704 227.014L219.154 227.185L222.691 227.3L223.604 226.843C221.15 225.702 217.842 224.789 214.761 225.702L214.362 225.816Z" fill="white"/>
<path d="M340.896 105.063C353.332 112.482 363.145 130.172 362.916 144.553C362.802 151.686 360.178 156.651 356.128 158.991L348.369 162.757C345.631 162.472 343.12 159.048 339.983 157.165C327.546 149.746 317.734 132.056 317.962 117.675C318.019 113.11 316.878 108.944 318.703 106.319L327.261 102.267C331.083 101.183 335.818 102.039 340.896 105.063Z" fill="#33B3C4"/>
<path d="M350.247 161.871C359.178 156.86 359.421 140.318 350.79 124.925C342.158 109.531 327.921 101.114 318.99 106.125C310.059 111.136 309.816 127.677 318.447 143.071C327.079 158.464 341.316 166.881 350.247 161.871Z" fill="#74C8D6"/>
<path d="M335.076 154.712C325.207 148.834 317.391 134.796 317.619 123.326C317.733 116.535 320.7 112.255 325.093 111.057C319.673 111.399 315.908 115.964 315.794 123.611C315.565 135.024 323.381 149.063 333.251 154.998C337.244 157.394 340.952 158.022 343.976 157.223C341.295 157.451 338.271 156.652 335.076 154.712Z" fill="#BFF7F3"/>
<path d="M335.819 113.338C331.826 110.941 328.118 110.313 325.094 111.112C320.644 112.254 317.735 116.591 317.621 123.381C317.393 134.795 325.208 148.833 335.078 154.768C338.273 156.708 341.353 157.507 343.977 157.336C349.397 156.993 353.162 152.428 353.276 144.781C353.505 133.254 345.689 119.216 335.819 113.338Z" fill="white"/>
<path d="M334.677 116.363C335.418 116.819 335.989 117.847 335.989 118.76C335.989 119.616 335.361 119.959 334.62 119.502C333.878 119.045 333.307 118.018 333.307 117.162C333.364 116.248 333.935 115.906 334.677 116.363Z" fill="#0F6B93"/>
<path d="M334.106 148.548C334.848 149.004 335.418 150.032 335.418 150.945C335.418 151.801 334.791 152.144 334.049 151.687C333.307 151.231 332.736 150.203 332.736 149.347C332.736 148.434 333.364 148.091 334.106 148.548Z" fill="#0F6B93"/>
<path d="M320.529 124.124C321.271 124.58 321.841 125.608 321.841 126.521C321.841 127.377 321.214 127.72 320.472 127.263C319.73 126.806 319.159 125.779 319.159 124.866C319.159 124.009 319.787 123.724 320.529 124.124Z" fill="#0F6B93"/>
<path d="M348.311 140.73C349.053 141.186 349.624 142.214 349.624 143.127C349.624 143.983 348.996 144.326 348.254 143.869C347.512 143.412 346.942 142.385 346.942 141.472C346.942 140.672 347.569 140.33 348.311 140.73Z" fill="#0F6B93"/>
<path d="M345.459 146.322C345.231 146.665 344.717 146.551 344.261 146.037L333.25 134.395C333.022 134.167 333.307 133.825 333.25 133.482C333.25 133.482 338.727 125.607 338.955 125.664C339.412 125.779 340.381 126.806 340.096 127.319L335.076 134.338L345.059 144.782C345.459 145.352 345.63 145.98 345.459 146.322Z" fill="#0F6B93"/>
<path d="M334.448 131.77C335.532 132.398 336.388 133.939 336.33 135.194C336.33 136.45 335.418 136.906 334.334 136.279C333.25 135.651 332.394 134.11 332.451 132.855C332.508 131.599 333.364 131.143 334.448 131.77Z" fill="#3DBFC9"/>
<path d="M334.448 133.368C334.733 133.539 334.961 133.996 334.961 134.338C334.961 134.681 334.733 134.795 334.391 134.624C334.105 134.453 333.877 133.996 333.877 133.654C333.877 133.368 334.162 133.197 334.448 133.368Z" fill="white"/>
</svg>
