<svg width="251" height="245" viewBox="0 0 251 245" fill="none" xmlns="http://www.w3.org/2000/svg">
<path d="M217.001 38.8588H249.284V22.7175C249.284 10.6849 239.599 1 227.566 1" stroke="#0B4275" stroke-width="2" stroke-miterlimit="10"/>
<path d="M206.142 22.7175C206.142 10.6849 215.826 1 227.859 1H44.4351C32.4025 1 22.7178 10.6849 22.7178 22.7175V222.283C22.7178 234.315 13.033 244 1.00037 244H184.424C196.457 244 206.142 234.315 206.142 222.283V22.7175Z" stroke="#0B4275" stroke-width="2" stroke-miterlimit="10" stroke-linecap="round" stroke-linejoin="round"/>
<path d="M130.717 76.7175H168.576" stroke="#0B4275" stroke-width="2" stroke-miterlimit="10"/>
<path d="M130.717 49.7178H168.576" stroke="#0B4275" stroke-width="2" stroke-miterlimit="10"/>
<path d="M55.2937 119.858H168.576" stroke="#0B4275" stroke-width="2" stroke-miterlimit="10"/>
<path d="M55.2937 146.859H168.576" stroke="#0B4275" stroke-width="2" stroke-miterlimit="10"/>
<path d="M55.2937 173.565H130.718" stroke="#0B4275" stroke-width="2" stroke-miterlimit="10"/>
<path d="M114.576 98.1408V87.2822C114.576 80.2387 99.6083 71.1409 87.5757 71.1409C75.5431 71.1409 60.5757 80.2387 60.5757 87.2822V98.1408" stroke="#FFB800" stroke-width="2" stroke-miterlimit="10"/>
<path d="M87.5756 33.5764C79.0648 33.5764 71.4343 39.7395 71.4343 47.0764V57.6417C71.4343 65.2721 79.3582 71.1417 87.5756 71.1417C96.0865 71.1417 103.717 64.9786 103.717 57.6417V47.0764C103.717 39.446 96.0865 33.5764 87.5756 33.5764Z" stroke="#FFB800" stroke-width="2" stroke-miterlimit="10"/>
</svg>
