<svg width="373" height="262" viewBox="0 0 373 262" fill="none" xmlns="http://www.w3.org/2000/svg">
<g opacity="0.46">
<path opacity="0.15" d="M8.54855 151.664L218.939 256.947C230.338 262.65 248.846 262.65 260.245 256.947L362.713 205.685C374.112 199.983 374.112 190.724 362.713 185.021L152.323 79.7377C140.924 74.0351 122.416 74.0351 111.017 79.7377L8.54855 131C-2.8504 136.702 -2.8504 145.961 8.54855 151.664Z" fill="#00638E"/>
<path opacity="0.15" d="M11.9199 150.437L219.675 254.372C230.952 260.013 249.215 260.013 260.43 254.372L361.611 203.723C372.887 198.082 372.887 188.945 361.611 183.304L153.856 79.3695C142.579 73.7282 124.316 73.7282 113.101 79.3695L11.9199 130.018C0.643494 135.66 0.643494 144.796 11.9199 150.437Z" fill="#00638E"/>
<path opacity="0.46" d="M9.71384 150.499L220.105 255.782C231.504 261.485 250.012 261.485 261.411 255.782L363.879 204.52C375.278 198.818 375.278 189.558 363.879 183.856L153.488 78.5725C142.089 72.8699 123.581 72.8699 112.182 78.5725L9.71384 129.834C-1.68512 135.537 -1.68512 144.796 9.71384 150.499Z" fill="#9FEDEB"/>
<path opacity="0.46" d="M9.09979 148.23L219.491 253.513C230.89 259.216 249.398 259.216 260.797 253.513L363.265 202.251C374.664 196.549 374.664 187.29 363.265 181.587L152.874 76.3035C141.475 70.6009 122.967 70.6009 111.568 76.3035L9.09979 127.566C-2.29919 133.329 -2.29919 142.527 9.09979 148.23Z" fill="white"/>
<g opacity="0.46">
<path opacity="0.46" d="M113.714 119.349C113.714 119.349 16.9455 129.344 69.773 163.559C129.832 202.435 199.39 177.662 176.899 207.34C156.368 234.382 256.937 250.876 287.518 218.132C318.099 185.388 264.414 159.206 264.414 159.206C264.414 159.206 192.097 160.616 193.568 146.574C195.039 132.471 263.678 138.603 263.678 138.603C263.678 138.603 174.938 100.892 113.714 119.349Z" fill="#B0F7F0"/>
<path opacity="0.46" d="M143.083 154.055C106.157 154.004 76.2424 138.973 76.2679 120.483C76.2934 101.993 106.249 87.0445 143.176 87.0955C180.103 87.1465 210.017 102.177 209.991 120.668C209.966 139.158 180.01 154.106 143.083 154.055Z" fill="#93E5E1"/>
<path opacity="0.46" d="M322.249 204.581C308.033 204.562 296.517 198.781 296.527 191.669C296.537 184.557 308.069 178.808 322.285 178.828C336.5 178.847 348.016 184.628 348.006 191.74C347.997 198.852 336.465 204.601 322.249 204.581Z" fill="#B0F7F0"/>
<path opacity="0.46" d="M78.2305 156.692C55.4178 156.692 36.9245 147.44 36.9245 136.027C36.9245 124.615 55.4178 115.363 78.2305 115.363C101.043 115.363 119.536 124.615 119.536 136.027C119.536 147.44 101.043 156.692 78.2305 156.692Z" fill="#D4FFFB"/>
<path opacity="0.46" d="M147.237 197.284C134.782 197.284 124.684 192.233 124.684 186.002C124.684 179.771 134.782 174.719 147.237 174.719C159.693 174.719 169.79 179.771 169.79 186.002C169.79 192.233 159.693 197.284 147.237 197.284Z" fill="#D4FFFB"/>
<path opacity="0.46" d="M227.643 167.851C207.809 167.851 191.73 159.808 191.73 149.885C191.73 139.963 207.809 131.919 227.643 131.919C247.477 131.919 263.556 139.963 263.556 149.885C263.556 159.808 247.477 167.851 227.643 167.851Z" fill="#D4FFFB"/>
</g>
<path opacity="0.46" d="M240.083 257.683C247.866 257.683 255.588 256.211 261.533 253.268L362.714 202.619C368.965 199.492 372.458 195.138 372.458 190.356C372.458 185.573 369.027 181.219 362.714 178.092L154.959 74.1574C143.131 68.2709 123.887 68.2709 112.121 74.1574L10.8781 124.745C4.62701 127.872 0.520966 132.778 0.520966 137.561C0.520966 142.343 4.56573 146.206 10.8781 149.334L218.634 253.268C224.578 256.211 232.3 257.683 240.083 257.683ZM133.509 74.2801C140.495 74.2801 147.543 75.6291 152.875 78.2658L360.631 182.2C365.166 184.469 367.801 187.412 367.801 190.294C367.801 193.176 365.166 196.119 360.631 198.388L259.449 249.037C248.786 254.372 231.442 254.372 220.779 249.037L13.023 145.103C8.48798 142.834 5.85272 139.891 5.85272 137.009C5.85272 134.127 8.48798 131.183 13.023 128.915L114.204 78.2658C119.475 75.6291 126.461 74.2801 133.509 74.2801Z" fill="#CAFFFE"/>
</g>
<path opacity="0.37" d="M215.448 148.475L108.873 93.6566L56.475 115.241L99.8033 139.4L90.7945 146.084L85.6465 149.947L80.9889 148.352L70.2641 154.975L63.8291 158.961V164.663L65.5451 167.668L83.4403 176.559C85.1563 177.54 87.2399 177.54 89.2623 177.54L108.935 167.729C109.731 166.073 110.344 164.908 110.344 163.743L105.442 159.942L98.8228 155.895L114.205 150.008L125.482 155.588L140.435 151.97L173.345 169.507L215.448 148.475Z" fill="#33B3C4"/>
<path d="M169.913 114.137L169.974 163.743C169.974 164.172 170.28 164.602 170.955 164.97C173.1 166.073 176.777 165.276 176.777 163.743L176.715 114.137C176.715 115.67 173.038 116.467 170.893 115.363C170.28 115.057 169.913 114.566 169.913 114.137Z" fill="#33B3C4"/>
<path d="M200.923 97.5808L200.985 147.923C200.985 148.352 201.291 148.843 201.965 149.149C203.314 149.824 205.459 149.824 206.746 149.149C207.42 148.781 207.726 148.352 207.726 147.923L207.665 97.5808C207.665 98.01 207.358 98.5006 206.684 98.8071C205.336 99.4816 203.191 99.4816 201.904 98.8071C201.291 98.5006 200.923 98.0713 200.923 97.5808Z" fill="#33B3C4"/>
<path d="M168.135 127.872L220.043 102.118L106.299 45.951L54.3906 71.7659L168.135 127.872Z" fill="#DCFFFC"/>
<path d="M54.3909 71.7656L168.135 127.872L220.044 102.118V104.264L168.074 130.079L54.3909 73.9117V71.7656Z" fill="#63F2FF"/>
<path d="M115.799 123.764L109.119 125.235L100.723 126.462L99.7421 131.061L101.581 137.192L104.951 137.622L110.651 134.31C110.651 134.31 121.131 130.877 121.56 129.466C122.05 127.995 115.799 123.764 115.799 123.764Z" fill="#0A3075"/>
<path d="M74.9217 108.496L82.521 105L98.5777 98.5007C98.7615 98.3167 110.957 100.769 110.957 100.769L114.512 127.259L107.035 131.49L102.193 130.386L101.764 114.566C101.764 114.566 83.9918 121.004 78.7826 120.514C69.4061 119.594 74.9217 108.496 74.9217 108.496Z" fill="#0A3075"/>
<path d="M104.583 159.328C105.074 159.144 105.625 159.144 106.238 159.512C107.709 160.371 108.935 162.64 108.935 164.663C108.935 165.767 108.567 166.932 107.954 167.238L103.787 169.323L100.293 161.904L104.583 159.328Z" fill="#002B6A"/>
<path d="M99.376 163.989C99.376 165.951 100.602 168.281 102.072 169.139C103.543 169.998 104.769 169.078 104.769 167.116C104.769 165.154 103.543 162.823 102.072 161.965C100.54 161.107 99.376 162.026 99.376 163.989Z" fill="#11487F"/>
<path d="M101.029 164.97C101.029 165.706 101.458 166.625 102.071 166.932C102.622 167.239 103.113 166.932 103.113 166.135C103.113 165.399 102.684 164.479 102.071 164.173C101.458 163.866 101.029 164.173 101.029 164.97Z" fill="#002B6A"/>
<path d="M75.4114 159.328C74.9212 159.144 74.3696 159.144 73.7568 159.512C72.2859 160.371 71.0602 162.639 71.0602 164.663C71.0602 165.767 71.3054 166.87 71.9182 167.177L76.2694 169.323L79.7627 161.904L75.4114 159.328Z" fill="#002B6A"/>
<path d="M80.6211 163.988C80.6211 165.951 79.3954 168.281 77.9246 169.139C76.4537 169.998 75.228 169.078 75.228 167.116C75.228 165.154 76.4537 162.823 77.9246 161.965C79.4567 161.107 80.6211 162.026 80.6211 163.988Z" fill="#11487F"/>
<path d="M78.9658 164.97C78.9658 165.706 78.5368 166.625 77.924 166.932C77.3724 167.239 76.8821 166.932 76.8821 166.135C76.8821 165.399 77.3111 164.479 77.924 164.173C78.5368 163.866 78.9658 164.173 78.9658 164.97Z" fill="#002B6A"/>
<path d="M99.8654 144.735C99.4364 144.551 98.9461 144.551 98.3945 144.919C97.1076 145.655 96.0044 147.739 96.0044 149.456C96.0044 150.437 96.3108 151.419 96.8624 151.725L100.601 153.626L103.726 147.004L99.8654 144.735Z" fill="#002B6A"/>
<path d="M104.522 148.904C104.522 150.683 103.48 152.706 102.132 153.442C100.845 154.178 99.742 153.381 99.742 151.664C99.742 149.885 100.784 147.862 102.132 147.126C103.48 146.329 104.522 147.126 104.522 148.904Z" fill="#11487F"/>
<path d="M103.051 149.763C103.051 150.437 102.622 151.235 102.132 151.48C101.641 151.787 101.212 151.48 101.212 150.805C101.212 150.131 101.641 149.334 102.132 149.089C102.622 148.782 103.051 149.089 103.051 149.763Z" fill="#002B6A"/>
<path d="M79.3958 144.735C79.8248 144.551 80.3151 144.551 80.8667 144.919C82.1537 145.655 83.2568 147.739 83.2568 149.456C83.2568 150.437 82.9504 151.48 82.3988 151.725L78.6605 153.565L75.5349 146.942L79.3958 144.735Z" fill="#002B6A"/>
<path d="M74.7386 148.904C74.7386 150.683 75.7805 152.706 77.1287 153.442C78.4157 154.178 79.5188 153.381 79.5188 151.664C79.5188 149.885 78.477 147.862 77.1287 147.126C75.7805 146.329 74.7386 147.126 74.7386 148.904Z" fill="#11487F"/>
<path d="M76.209 149.763C76.209 150.438 76.638 151.235 77.1283 151.48C77.6186 151.787 78.0476 151.48 78.0476 150.806C78.0476 150.131 77.6186 149.334 77.1283 149.089C76.638 148.782 76.209 149.089 76.209 149.763Z" fill="#002B6A"/>
<path d="M104.46 144.796L103.97 146.942L95.1447 152.645L93.919 149.947L104.46 144.796Z" fill="#168CA8"/>
<path d="M89.7516 149.149L92.0804 146.267L100.905 143.018L104.46 144.796L93.8577 150.192L89.7516 149.149Z" fill="#33B3C4"/>
<path d="M75.0432 144.796L75.5335 146.942L84.3585 152.645L85.5842 149.947L75.0432 144.796Z" fill="#168CA8"/>
<path d="M89.752 149.15L87.3006 146.268L78.7207 142.957L75.0436 144.796L85.6459 150.192L89.752 149.15Z" fill="#33B3C4"/>
<path d="M109.24 161.168L108.26 163.314L104.154 165.399L89.7519 155.956V151.419L109.24 161.168Z" fill="#168CA8"/>
<path d="M93.429 149.15L109.24 161.168L104.767 163.375L89.7519 153.135V149.15H93.429Z" fill="#33B3C4"/>
<path d="M70.8762 161.414L72.0406 163.744L75.35 165.399L89.752 155.956V151.419L70.8762 161.414Z" fill="#168CA8"/>
<path d="M86.1361 149.15L70.8762 161.413L74.7372 163.375L89.752 153.135V149.15H86.1361Z" fill="#33B3C4"/>
<path d="M89.7511 152.951C92.0186 152.951 93.8572 151.234 93.8572 149.088V130.877H85.5837V149.088C85.645 151.173 87.4836 152.951 89.7511 152.951Z" fill="#33B3C4"/>
<path d="M72.8376 118.491L87.1169 110.274C88.8329 109.293 90.9166 109.293 92.6326 110.274L105.441 117.694L111.999 118.859V124.561C111.999 125.726 111.447 126.891 110.283 127.566L90.6102 137.377C88.8942 138.358 86.8105 138.358 85.0945 137.377L67.1994 128.486C66.035 127.811 65.4834 126.646 65.4834 125.481V119.778L72.8376 118.491Z" fill="#B33939"/>
<path d="M110.282 115.854L92.6322 104.51C90.9163 103.529 88.8326 103.529 87.1166 104.51L67.1377 116.774C64.8089 118.123 64.8089 121.434 67.1377 122.722L85.0329 131.551C86.7489 132.532 88.8326 132.532 90.5485 131.551L110.282 121.863C112.55 120.514 112.55 117.203 110.282 115.854Z" fill="#FF5252"/>
<path d="M74.9211 108.496L82.5204 105.001L98.577 98.5008L103.602 96.8452L110.895 100.77L101.641 114.566C101.641 114.566 83.8687 121.005 78.6595 120.514C69.4055 119.594 74.9211 108.496 74.9211 108.496Z" fill="#0A3075"/>
<path d="M144.847 141.239L141.353 139.155L134.122 139.4L130.506 137.99L121.865 138.541L120.455 143.079L120.884 146.942L121.804 149.517L125.726 151.234L139.699 147.984L145.214 144.612L144.847 141.239Z" fill="#0A3075"/>
<path d="M119.17 109.661L124.256 109.047L131.672 139.768L130.324 143.018L123.705 144.551L119.783 143.202L114.451 115.057L119.17 109.661Z" fill="#174C99"/>
<path d="M73.2661 122.721L69.0988 110.458L71.2438 93.534L88.2196 102.364L93.674 110.703L117.085 106.656L124.255 109.047L124.5 111.132L123.152 119.717L117.023 121.74L115.614 119.717L93.9191 127.443H87.4229L73.2661 122.721Z" fill="#174C99"/>
<path d="M176.348 87.8312C176.348 88.5057 175.919 89.2415 175 89.732C173.161 90.7745 170.219 90.7745 168.442 89.732C167.523 89.2415 167.094 88.5057 167.094 87.8312V87.7086L166.604 87.9538C166.175 88.1991 165.929 87.8925 166.052 88.0151L164.826 87.3406C164.704 87.2793 164.581 87.0954 164.581 86.8501V83.2936C164.581 82.8031 164.949 82.1899 165.378 81.9446L167.033 80.9635V78.1429C167.033 78.3268 167.216 76.9165 168.381 76.242C170.219 75.1996 173.161 75.1996 174.938 76.242C175.858 76.7939 176.287 78.1429 176.287 78.1429L176.348 87.8312ZM167.033 85.685V82.9257L166.726 83.1097C166.481 83.2323 166.358 83.5389 166.358 83.7842V86.0529L167.033 85.685Z" fill="#FF5252"/>
<path opacity="0.41" d="M175.734 77.8365C175.734 78.8789 173.956 79.7374 171.811 79.7374C169.666 79.7374 167.889 78.8789 167.889 77.8365C167.889 76.7941 169.666 75.9356 171.811 75.9356C174.018 75.9356 175.734 76.7941 175.734 77.8365Z" fill="#4F0900"/>
<path d="M102.619 66.6151C102.619 66.6151 101.332 68.148 99.6158 68.6386C97.9611 69.1291 95.0195 69.681 93.9776 68.148C92.9358 66.6151 93.7324 65.1435 95.6323 64.101C97.5321 62.9973 101.454 63.6718 102.558 64.7755C103.354 65.45 102.619 66.6151 102.619 66.6151Z" fill="#33B3C4"/>
<path d="M99.25 68.0255C100.905 67.5349 102.253 66.002 102.253 66.002C102.253 66.002 102.743 65.2661 102.559 64.653L102.621 64.7143C103.356 65.4501 102.621 66.6151 102.621 66.6151C102.621 66.6151 101.334 68.1481 99.6177 68.6386C97.963 69.1292 95.0214 69.681 93.9795 68.1481C93.8569 68.0255 93.7956 67.8415 93.7344 67.7189C94.8988 69.0065 97.6566 68.516 99.25 68.0255Z" fill="#168CA8"/>
<path d="M130.874 85.5624L135.409 83.171C136.328 82.6805 137.493 82.6805 138.412 83.171L159.371 94.3923L163.416 95.6186V97.0289C163.416 97.2742 163.294 97.5808 162.987 97.7034L157.839 100.463C156.92 100.953 155.756 100.953 154.836 100.463L130.261 87.3406C129.955 87.1567 129.832 86.9114 129.832 86.6661V85.2558L130.874 85.5624Z" fill="#168CA8"/>
<path d="M162.984 94.9443L138.409 81.8222C137.49 81.3316 136.325 81.3316 135.406 81.8222L130.258 84.5815C129.645 84.8881 129.645 85.6852 130.258 85.9918L154.833 99.114C155.752 99.6045 156.917 99.6045 157.836 99.114L162.984 96.3546C163.536 95.9867 163.536 95.2509 162.984 94.9443Z" fill="#33B3C4"/>
<path d="M132.283 80.2281L113.162 70.5398C112.243 70.0492 111.079 70.0492 110.159 70.5398L99.312 76.4876C98.6991 76.7942 98.6991 77.5914 99.312 77.898L118.433 88.1381C119.352 88.6287 120.517 88.6287 121.436 88.1381L132.283 82.1902C132.896 81.8837 132.896 80.5346 132.283 80.2281Z" fill="#168CA8"/>
<path d="M132.283 80.2279L113.162 69.9878C112.242 69.4972 111.078 69.4972 110.159 69.9878L99.3113 75.9356C98.6984 76.2422 98.6984 77.0393 99.3113 77.3459L118.432 87.5861C119.351 88.0766 120.516 88.0766 121.435 87.5861L132.283 81.6382C132.895 81.3316 132.895 80.5345 132.283 80.2279Z" fill="#33B3C4"/>
<path d="M127.626 78.6337L113.347 70.785C112.489 70.3558 111.447 70.3558 110.589 70.785L100.722 76.181C100.171 76.4876 100.171 77.1621 100.722 77.4687L115.002 85.3174C115.86 85.7467 116.902 85.7467 117.76 85.3174L127.626 79.9214C128.178 79.6148 128.178 78.9403 127.626 78.6337Z" fill="#168CA8"/>
<path d="M127.931 82.5583L126.828 81.9451C126.767 81.8838 126.705 81.8838 126.644 81.9451L125.909 82.3743C125.847 82.3743 125.847 82.4356 125.909 82.4969L127.012 83.1101C127.073 83.1714 127.134 83.1714 127.196 83.1101L127.931 82.6809C127.931 82.6196 127.931 82.5583 127.931 82.5583Z" fill="#168CA8"/>
<path d="M129.158 81.8223L128.055 81.2091C127.994 81.1478 127.932 81.1478 127.871 81.2091L127.136 81.6383C127.074 81.6383 127.074 81.6996 127.136 81.761L128.239 82.3741C128.3 82.4354 128.361 82.4354 128.423 82.3741L129.158 81.9449C129.219 81.8836 129.219 81.8223 129.158 81.8223Z" fill="#168CA8"/>
<path d="M130.445 81.1478L129.342 80.5346C129.281 80.4733 129.219 80.4733 129.158 80.5346L128.423 80.9639C128.361 80.9639 128.361 81.0252 128.423 81.0865L129.526 81.6997C129.587 81.761 129.648 81.761 129.71 81.6997L130.445 81.2705C130.506 81.2705 130.506 81.2091 130.445 81.1478Z" fill="#168CA8"/>
<path d="M120.149 86.6664L119.046 86.0533C118.985 85.9919 118.924 85.9919 118.862 86.0533L118.127 86.4825C118.066 86.4825 118.066 86.5438 118.127 86.6051L119.23 87.2183C119.291 87.2796 119.353 87.2796 119.414 87.2183L120.149 86.7891C120.211 86.7891 120.211 86.7278 120.149 86.6664Z" fill="#168CA8"/>
<path d="M121.435 85.9919L120.332 85.3787C120.271 85.3174 120.21 85.3174 120.148 85.3787L119.413 85.808C119.352 85.808 119.352 85.8693 119.413 85.9306L120.516 86.5438C120.577 86.6051 120.639 86.6051 120.7 86.5438L121.435 86.1145C121.497 86.0532 121.497 85.9919 121.435 85.9919Z" fill="#168CA8"/>
<path d="M122.722 85.3176L121.619 84.7044C121.558 84.6431 121.496 84.6431 121.435 84.7044L120.7 85.1336C120.638 85.1336 120.638 85.1949 120.7 85.2563L121.803 85.8694C121.864 85.9307 121.925 85.9307 121.987 85.8694L122.722 85.4402C122.783 85.3789 122.783 85.3176 122.722 85.3176Z" fill="#168CA8"/>
<path d="M122.969 83.2325C122.233 83.6004 122.233 84.2136 122.969 84.5815C123.704 84.9494 124.93 84.9494 125.727 84.5815C126.462 84.2136 126.462 83.6004 125.727 83.2325C124.93 82.8646 123.704 82.8646 122.969 83.2325Z" fill="#168CA8"/>
<path d="M124.318 84.459C123.675 84.459 123.153 84.2119 123.153 83.9071C123.153 83.6023 123.675 83.3553 124.318 83.3553C124.961 83.3553 125.482 83.6023 125.482 83.9071C125.482 84.2119 124.961 84.459 124.318 84.459Z" fill="#33B3C4"/>
<path d="M101.825 80.1053L107.708 76.4875L112.182 74.0348L115.859 75.5677L115.798 77.8978L114.572 79.0629L113.898 80.1053L111.753 80.8411L108.872 80.5345L107.708 80.6571L103.479 82.8033L101.825 80.1053Z" fill="#FFD6A4"/>
<path d="M76.4538 65.0209C76.4538 65.0209 70.9382 66.4312 70.9382 74.0346C70.9382 75.445 78.7214 77.959 81.0502 81.1476L89.1398 90.1613L108.628 83.4163L109.241 80.9023L105.687 77.4685L90.4268 80.2891L76.4538 65.0209Z" fill="#002B6A"/>
<path d="M74.4921 74.6478L77.9241 72.1337L80.927 73.4827L77.5563 75.9355L74.4921 74.6478Z" fill="#995710"/>
<path d="M90.8554 41.4749L97.4128 42.1494L95.0227 59.0119L90.8554 64.3465C90.8554 64.3465 84.543 62.2617 82.8883 61.0967C79.7015 58.9505 80.1305 53.2479 80.1305 52.8187L79.7628 41.4749H90.8554Z" fill="#FFD6A4"/>
<path d="M76.6975 66.37L80.252 54.8422L88.7706 56.6817L85.8289 68.9454C85.8902 70.3557 93.4282 79.9214 93.4895 84.275L77.3103 79.4308C77.3716 77.53 76.6975 66.37 76.6975 66.37Z" fill="#FFD6A4"/>
<path d="M97.2906 40.9841L96.6165 41.8425L99.4355 43.7434L96.6777 47.7291L92.2652 54.5354L92.0814 53.3091C92.0814 53.3091 90.3041 52.4506 88.8333 56.007L87.2399 60.2993C87.2399 60.2993 81.4791 61.0351 80.4373 60.8512L77.9246 59.073L77.1892 54.4741L74.1862 45.8895L77.6182 38.2861L89.2623 37.9182L94.2263 37.489C94.2263 37.489 93.9812 38.2861 93.0619 38.9606C92.7555 39.2059 96.2487 39.2672 96.2487 39.2672L95.3295 40.4322L97.2906 40.9841Z" fill="#D37A37"/>
<path d="M99.4361 74.4028C100.907 76.6715 94.6559 93.8407 94.6559 93.8407L94.2882 105.859C94.2882 107.024 93.5527 116.59 93.5527 116.59L82.3989 119.042L67.9357 112.297L66.9551 77.3461L68.1808 67.9643L74.4319 63.3655L83.2569 66.1861C83.2569 66.0635 97.475 71.3982 99.4361 74.4028Z" fill="#002B6A"/>
<path d="M142.764 91.8784L147.544 88.8738L152.386 90.4068L154.837 93.1661L154.592 94.3924L149.812 95.9867H144.051L142.764 91.8784Z" fill="#FFD6A4"/>
<path d="M144.724 93.2889L144.54 98.0717L119.352 98.6236L115.124 97.5812L95.5126 85.3788C91.8968 81.6384 89.139 78.7565 90.9775 74.4029C93.3676 72.5633 96.248 72.8086 99.4348 74.4029L120.149 89.3645L142.15 90.6522L144.724 93.2889Z" fill="#174C99"/>
<path d="M62.5422 82.8646L69.5287 79.4921C70.3867 79.1242 71.4286 79.0629 72.4091 79.6147L89.6302 88.7512C92.5106 90.4067 94.3491 93.534 94.3491 96.9065V102.732C94.3491 104.142 93.5524 105.552 92.4493 106.043L87.6691 108.434L79.6407 99.7271L71.1834 94.8217C68.303 93.1661 66.4645 90.0388 66.4645 86.6663V85.3787L62.5422 82.8646Z" fill="#FF5252"/>
<path d="M84.2379 108.557L65.8524 99.4203C62.972 97.7647 61.1335 94.6375 61.1335 91.265V85.5011C61.1335 83.0484 63.7687 81.5154 65.8524 82.7418L84.2379 91.8782C87.1182 93.5338 88.9568 96.661 88.9568 100.034V105.859C88.9568 108.25 86.3215 109.783 84.2379 108.557Z" fill="#B33939"/>
<path d="M68.7938 127.565V90.5904C68.7938 88.8735 69.4679 87.6471 70.9388 86.85L75.7803 89.1801V132.716C75.7803 132.716 73.0225 132.777 71.7968 132.042L71.0613 131.612C69.6518 130.693 68.7938 129.221 68.7938 127.565Z" fill="#33B3C4"/>
<path d="M108.995 18.5418L111.691 17.1314C112.549 16.6409 113.652 16.5183 114.694 17.0088L162.129 40.9229C163.661 41.7201 164.641 43.1304 164.641 44.6633V77.6525C164.641 78.5723 164.09 79.3081 163.354 79.7374L159.984 81.4543L157.348 78.2657L113.591 56.1298C112.059 55.3327 111.078 53.9224 111.078 52.3894V21.485L108.995 18.5418Z" fill="#9FEDEB"/>
<path d="M138.964 62.5069V71.4593C138.964 72.3178 138.413 73.1762 137.555 73.6055L134.062 75.3837C133.265 75.8129 132.223 75.8129 131.426 75.3837L122.54 70.4169V71.5207C122.54 72.3791 123.092 73.1762 123.888 73.6055L130.875 77.1619C132.039 77.7751 133.449 77.7751 134.613 77.1619L138.29 75.3224C139.945 74.4639 140.987 72.8696 140.987 71.2141V61.3418L138.964 62.5069Z" fill="#33B3C4"/>
<path d="M122.909 69.7425L126.402 67.9643C127.26 67.5351 127.811 66.6766 127.811 65.8182V56.8657L138.904 62.507V71.4594C138.904 72.3792 138.352 73.1764 137.494 73.6056L134.001 75.3838C133.205 75.813 132.163 75.813 131.366 75.3838L122.909 71.0915C122.296 70.7849 122.296 70.0491 122.909 69.7425Z" fill="#9FEDEB"/>
<path d="M161.454 46.3189V76.9167L107.952 49.8753V21.0558C107.952 18.2351 109.975 17.5606 112.181 18.9096L158.941 42.5785C160.473 43.3756 161.454 44.7859 161.454 46.3189Z" fill="#33B3C4"/>
<path d="M161.454 79.3694C161.454 81.2703 159.064 82.4967 157.225 81.5156L110.465 57.8467C108.933 57.0496 107.952 55.6393 107.952 54.1063V48.5877L161.454 75.629V79.3694Z" fill="white"/>
<path d="M109.056 48.5878L158.88 73.4216L159.064 44.1115L109.178 19.2776L109.056 48.5878Z" fill="#168CA8"/>
<path d="M119.29 52.6961L154.835 70.4171L154.957 45.0927L119.412 27.3717L119.29 52.6961Z" fill="#DCEDF4"/>
<path d="M109.974 27.3716L118.37 31.5413L118.432 26.6358L109.974 22.4662V27.3716Z" fill="#DCEDF4"/>
<path opacity="0.3" d="M109.975 33.5649L118.371 37.7959V32.8904L109.975 28.7208V33.5649Z" fill="#CFF6FF"/>
<path opacity="0.3" d="M109.914 48.0358L118.31 52.2055L118.371 39.1447L109.914 34.9751V48.0358Z" fill="#CFF6FF"/>
<path opacity="0.3" d="M155.51 63.9174L158.39 65.3277L158.512 46.8709L155.632 45.3993L155.51 63.9174Z" fill="#CFF6FF"/>
<path d="M123.702 41.8429L141.904 46.0125L140.249 39.2062L122.109 35.0365L123.702 41.8429Z" fill="#278787"/>
<path d="M131.24 41.2909C131.24 41.2909 149.503 55.3328 137.552 55.8847C121.251 56.6205 123.457 48.5878 123.457 48.5878L131.24 41.2909Z" fill="#1CB2C6"/>
<path d="M136.756 49.8754C136.756 54.3516 140.433 59.8089 144.968 62.0777C149.565 64.3465 153.242 62.5683 153.303 58.092C153.303 53.6158 149.626 48.1585 145.091 45.8897C140.495 43.6209 136.756 45.3991 136.756 49.8754Z" fill="#3095A6"/>
<path d="M121.802 44.7247L152.996 51.9602L152.383 49.2622L121.128 42.088L121.802 44.7247Z" fill="#9FFFFF"/>
<path d="M145.949 48.4038C146.01 48.7104 151.158 66.6767 151.158 66.6767L142.701 62.2618L145.949 48.4038Z" fill="#27C8D8"/>
<path d="M144.293 48.7718L141.107 61.1581L137.859 58.0922L144.293 48.7718Z" fill="#47BBD6"/>
<path d="M130.198 34.3618L130.565 50.2432L124.56 32.1544L130.198 34.3618Z" fill="#27C8D8"/>
<path d="M123.396 46.3189L131.669 53.1866L122.354 50.4273L123.396 46.3189Z" fill="#277987"/>
<path d="M165.438 102.977V103.529L187.746 114.689V114.137L165.438 102.977Z" fill="#006A82"/>
<path d="M187.745 114.137V114.689L202.944 107.147V106.534L187.745 114.137Z" fill="#057893"/>
<path d="M165.434 102.977L187.742 114.137L202.94 106.534L180.633 95.3738L165.434 102.977Z" fill="#168CA8"/>
<path d="M166.788 100.892V103.161L187.747 113.647V111.378L166.788 100.892Z" fill="#86E2DE"/>
<path d="M201.719 104.449V106.656L187.747 113.646V111.378L201.719 104.449Z" fill="#DEFFFC"/>
<path d="M165.439 99.6661V100.218L187.747 111.378V110.826L165.439 99.6661Z" fill="#006A82"/>
<path d="M187.746 110.826V111.378L202.945 103.836V103.223L187.746 110.826Z" fill="#057893"/>
<path d="M165.436 99.6659L187.744 110.826L202.942 103.222L180.634 92.0624L165.436 99.6659Z" fill="#168CA8"/>
<path d="M169.547 98.3168V98.8074L189.036 108.557L188.974 108.066L169.547 98.3168Z" fill="#30B7C1"/>
<path d="M188.975 108.066L189.036 108.557L202.212 101.996V101.444L188.975 108.066Z" fill="#53CAD3"/>
<path d="M169.546 98.3169L188.973 108.066L202.211 101.444L182.784 91.7559L169.546 98.3169Z" fill="#9FEDEB"/>
<path d="M170.71 96.5385L170.771 98.5007L189.034 107.637L188.973 105.675L170.71 96.5385Z" fill="#86E2DE"/>
<path d="M201.17 99.6046V101.567L189.036 107.637L188.975 105.675L201.17 99.6046Z" fill="#DEFFFC"/>
<path d="M169.547 95.4349V95.9868L189.035 105.675L188.974 105.184L169.547 95.4349Z" fill="#30B7C1"/>
<path d="M188.974 105.184L189.035 105.675L202.212 99.114V98.6234L188.974 105.184Z" fill="#53CAD3"/>
<path d="M169.545 95.4349L188.973 105.184L202.21 98.6234L182.783 88.8738L169.545 95.4349Z" fill="#9FEDEB"/>
<path d="M114.756 79.6759L115.552 80.0438L115.797 79.8598L115.552 79.0014L112.978 76.2421L106.176 69.9876L105.747 70.4168L112.059 77.1005L114.756 79.6759Z" fill="#002B6A"/>
<path d="M113.041 79.6148L113.899 80.1054L114.573 79.063L113.776 78.2045L113.225 78.3272L113.041 79.6148Z" fill="#FFD6A4"/>
<path d="M115.491 76.9782L115.797 77.898L114.572 79.063L113.959 78.4498L114.51 77.2235L115.491 76.9782Z" fill="#FFD6A4"/>
<path d="M30.3674 19.7685C17.0074 27.7398 6.46639 46.7485 6.71153 62.2007C6.8341 69.8655 9.65321 75.2002 14.0044 77.7142L22.3391 81.7612C25.2808 81.4546 27.9774 77.7755 31.348 75.752C44.7081 67.7807 55.2491 48.772 55.0039 33.3198C54.9426 28.4143 56.1683 23.9381 54.2072 21.1175L45.0145 16.7639C40.9084 15.5988 35.8218 16.4573 30.3674 19.7685Z" fill="#33B3C4"/>
<path d="M20.3175 80.8002C10.7232 75.416 10.4622 57.6422 19.7345 41.1014C29.0069 24.5606 44.3014 15.5164 53.8957 20.9006C63.4901 26.2848 63.7511 44.0586 54.4787 60.5994C45.2064 77.1402 29.9119 86.1844 20.3175 80.8002Z" fill="#74C8D6"/>
<path d="M36.6194 73.1166C47.2216 66.8008 55.6177 51.7165 55.3725 39.3916C55.25 32.0947 52.0631 27.4958 47.3442 26.2082C53.1663 26.5761 57.2111 31.4815 57.3336 39.6982C57.5788 51.9618 49.1828 67.0461 38.5805 73.4232C34.2905 75.9985 30.307 76.6731 27.0589 75.8146C29.9393 76.0599 33.1874 75.2014 36.6194 73.1166Z" fill="#BFF7F3"/>
<path d="M35.8213 28.6595C40.1113 26.0841 44.0948 25.4096 47.3429 26.2681C52.1231 27.4944 55.2487 32.1546 55.3712 39.4515C55.6164 51.7151 47.2203 66.7994 36.618 73.1765C33.1861 75.2613 29.8767 76.1198 27.0576 75.9358C21.2356 75.5679 17.1908 70.6625 17.0682 62.4458C16.8231 50.0596 25.2803 34.9753 35.8213 28.6595Z" fill="white"/>
<path d="M37.0474 31.8478C36.2507 32.3383 35.6379 33.442 35.6379 34.4231C35.6379 35.3429 36.312 35.7108 37.1087 35.2203C37.9054 34.7297 38.5183 33.626 38.5183 32.7062C38.5183 31.7864 37.8442 31.4185 37.0474 31.8478Z" fill="#0F6B93"/>
<path d="M37.6615 66.4928C36.8647 66.9833 36.2519 68.087 36.2519 69.0681C36.2519 69.9879 36.926 70.3558 37.7227 69.8653C38.5194 69.3747 39.1323 68.271 39.1323 67.3512C39.1323 66.3701 38.4582 66.0022 37.6615 66.4928Z" fill="#0F6B93"/>
<path d="M52.2452 40.2489C51.4485 40.7394 50.8356 41.8431 50.8356 42.8242C50.8356 43.744 51.5098 44.1119 52.3065 43.6214C53.1032 43.1308 53.7161 42.0271 53.7161 41.046C53.7161 40.1262 53.0419 39.7583 52.2452 40.2489Z" fill="#0F6B93"/>
<path d="M22.3988 58.0922C21.6021 58.5827 20.9893 59.6864 20.9893 60.6675C20.9893 61.5873 21.6634 61.9552 22.4601 61.4647C23.2568 60.9741 23.8696 59.8704 23.8696 58.8893C23.8696 57.9695 23.1955 57.6016 22.3988 58.0922Z" fill="#0F6B93"/>
<path d="M34.9003 67.2286C35.3906 67.0446 35.8809 66.3701 36.0035 65.757L39.129 50.3661C39.1903 50.0595 38.5774 50.3048 38.4549 50.1821C38.4549 50.1821 26.2592 55.0263 26.0141 55.3329C25.5851 55.8847 25.2786 57.295 26.0753 56.9885L37.1679 52.4509L34.2262 66.4315C34.1037 67.0446 34.4101 67.4125 34.9003 67.2286Z" fill="#0F6B93"/>
<path d="M37.2926 48.4652C36.1282 49.1397 35.2089 50.7953 35.2702 52.1443C35.2702 53.4933 36.2507 53.9839 37.4151 53.3094C38.5795 52.6349 39.4988 50.9793 39.4375 49.6303C39.3762 48.2813 38.457 47.7294 37.2926 48.4652Z" fill="#3DBFC9"/>
<path d="M37.2927 50.1823C36.9862 50.3663 36.7411 50.8568 36.7411 51.2248C36.7411 51.5927 36.9862 51.7153 37.3539 51.5313C37.6604 51.3474 37.9055 50.8568 37.9055 50.4889C37.9055 50.1823 37.6604 49.9984 37.2927 50.1823Z" fill="white"/>
<path opacity="0.59" d="M272.685 193.299L271.214 185.818V178.215L275.014 179.564V171.96L295.85 170.795V163.192L322.632 171.838L334.276 169.017V176.62L333.602 177.05L328.27 180.3C329.312 181.035 330.17 181.833 330.844 182.691L341.814 182.139V189.743L337.83 189.927L338.014 195.997L328.454 201.822L320.977 198.756C319.506 199.247 318.832 199.431 317.177 199.737V204.766L302.163 205.501L301.243 200.596C299.65 200.412 298.118 200.167 296.647 199.86L290.396 203.662L278.752 198.879L278.813 192.992L272.685 193.299ZM291.193 188.516C291.622 191.092 299.956 192.073 308.475 191.643C317.055 191.214 320.977 191.153 322.264 186.983C323.551 182.814 313.807 179.564 305.227 179.932C296.647 180.422 290.396 184.224 291.193 188.516Z" fill="#33B3C4"/>
<path d="M272.685 187.044L271.214 179.563V171.96L275.014 173.309V165.706L295.85 164.541V156.937L322.632 165.583L334.276 162.762V170.366L333.602 170.795L328.27 174.045C329.312 174.781 330.17 175.578 330.844 176.436L341.814 175.884V183.488L337.83 183.672L338.014 189.742L328.454 195.568L320.977 192.502C319.506 192.992 318.832 193.176 317.177 193.483V198.511L302.163 199.247L301.243 194.341C299.65 194.157 298.118 193.912 296.647 193.605L290.396 197.407L278.752 192.624L278.813 186.738L272.685 187.044ZM291.193 182.261C291.622 184.837 299.956 185.818 308.475 185.389C317.055 184.96 320.977 184.898 322.264 180.729C323.551 176.559 313.807 173.309 305.227 173.677C296.647 174.167 290.396 177.969 291.193 182.261Z" fill="#9FEDEB"/>
<path d="M289.046 186.921L290.394 189.803V197.407L296.646 193.605V186.002L289.046 186.921Z" fill="#CCFFFE"/>
<path d="M328.454 184.898V187.964V195.568L338.014 189.742V182.2L328.454 184.898Z" fill="#CCFFFE"/>
<path d="M273.787 179.379L272.684 179.441L272.562 178.889L271.336 172.512L271.213 171.96L272.316 171.899L281.019 171.469C281.387 170.55 281.877 169.691 282.612 168.833L275.871 166.073L275.013 165.705L275.687 165.276L283.838 160.309L284.512 159.88L285.37 160.248L292.111 163.069C293.582 162.578 295.114 162.149 296.708 161.842L295.911 157.55L295.789 156.998L296.892 156.937L309.7 156.324L310.803 156.262L310.926 156.814L311.723 161.107C313.316 161.291 314.909 161.475 316.442 161.842L321.896 158.531L322.57 158.102L323.428 158.47L333.356 162.578L334.214 162.946L333.54 163.375L328.208 166.625C329.25 167.361 330.108 168.158 330.782 169.017L339.24 168.587L340.343 168.526L340.465 169.078L341.691 175.455L341.813 176.007L340.71 176.068L332.376 176.497C332.008 177.417 331.456 178.337 330.66 179.257L337.156 181.955L338.014 182.323L337.34 182.752L329.189 187.719L328.515 188.148L327.657 187.78L321.038 185.021C319.567 185.511 317.974 185.94 316.319 186.247L317.116 190.478L317.238 191.03L316.135 191.091L303.327 191.704L302.223 191.766L302.101 191.214L301.243 186.86C299.65 186.676 298.117 186.431 296.647 186.124L291.07 189.497L290.396 189.926L289.538 189.558L279.609 185.45L278.751 185.082L279.426 184.653L285.002 181.28C284.022 180.544 283.225 179.809 282.551 179.012L273.787 179.379ZM291.192 174.658C291.989 178.95 299.65 182.077 308.229 181.71C316.809 181.28 323.122 177.479 322.264 173.186C321.467 168.894 313.806 165.767 305.226 166.135C296.647 166.564 290.334 170.366 291.192 174.658Z" fill="#FCFCFB"/>
<path opacity="0.59" d="M181.984 227.514L179.717 215.741L190.196 215.496L185.722 205.93V193.973L218.51 192.195V180.238L260.674 193.85L278.937 189.436V201.393L277.834 202.067L269.438 207.157C271.031 208.322 272.379 209.548 273.482 210.897L289.049 210.1L290.765 221.934L266.741 222.179L284.759 231.745L269.683 240.882L257.916 236.037C255.587 236.773 254.545 237.08 251.971 237.57V245.48L228.377 246.584L226.906 238.858C224.454 238.613 222.003 238.245 219.674 237.754L209.807 243.763L191.545 236.221L209.807 226.104L181.984 227.514ZM211.094 219.972C211.83 224.019 224.822 225.552 238.305 224.877C251.788 224.203 257.916 224.08 259.938 217.581C261.961 211.02 246.64 205.869 233.157 206.543C219.674 207.218 209.869 213.227 211.094 219.972Z" fill="#33B3C4"/>
<path d="M181.984 220.953L179.717 209.18V197.223L185.722 199.369V187.412L218.51 185.634V173.677L260.674 187.289L278.937 182.874V194.831L277.834 195.506L269.438 200.595C271.031 201.76 272.379 202.987 273.482 204.336L290.765 203.477V215.434L284.514 215.741L284.759 225.245L269.683 234.382L257.916 229.537C255.587 230.273 254.545 230.58 251.971 231.07V238.98L228.377 240.084L226.906 232.358C224.454 232.113 222.003 231.745 219.674 231.254L209.807 237.264L191.545 229.721L191.606 220.524L181.984 220.953ZM211.094 213.472C211.83 217.519 224.822 219.052 238.305 218.378C251.788 217.703 257.916 217.58 259.938 211.081C261.961 204.52 246.64 199.369 233.157 200.043C219.674 200.718 209.869 206.666 211.094 213.472Z" fill="#9FEDEB"/>
<path d="M207.662 220.708L209.807 225.307V237.264L219.674 231.255V219.359L207.662 220.708Z" fill="#CCFFFE"/>
<path d="M269.682 217.58V222.425V234.382L284.758 225.245V213.288L269.682 217.58Z" fill="#CCFFFE"/>
<path d="M183.699 208.935L181.983 208.996L181.8 208.138L179.838 198.081L179.655 197.223L181.371 197.162L195.037 196.487C195.589 195.077 196.447 193.666 197.55 192.379L186.947 188.025L185.599 187.473L186.702 186.799L199.572 179.011L200.675 178.337L202.024 178.889L212.687 183.304C214.955 182.568 217.406 181.893 219.919 181.403L218.632 174.658L218.448 173.799L220.164 173.738L240.265 172.757L242.043 172.573L242.226 173.431L243.513 180.176C246.026 180.422 248.539 180.79 250.929 181.28L259.509 176.068L260.612 175.394L261.96 175.945L277.588 182.384L278.936 182.936L277.833 183.61L269.437 188.7C271.03 189.865 272.378 191.091 273.482 192.44L286.78 191.827L288.496 191.766L288.68 192.624L290.641 202.68L290.825 203.539L289.109 203.6L275.994 204.213C275.443 205.685 274.523 207.156 273.298 208.567L283.471 212.798L284.819 213.35L283.716 214.024L270.846 221.811L269.743 222.486L268.395 221.934L257.977 217.642C255.648 218.378 253.135 219.052 250.561 219.543L251.848 226.226L252.032 227.085L250.316 227.146L230.215 228.127L228.499 228.189L228.315 227.33L227.028 220.524C224.576 220.279 222.125 219.911 219.796 219.42L211.032 224.755L209.929 225.429L208.581 224.877L193.015 218.439L191.666 217.887L192.77 217.213L201.533 211.939C200.001 210.836 198.775 209.609 197.734 208.383L183.699 208.935ZM211.094 201.515C212.381 208.26 224.392 213.227 237.875 212.552C251.358 211.878 261.225 205.869 259.938 199.124C258.651 192.379 246.639 187.412 233.156 188.086C219.674 188.761 209.807 194.77 211.094 201.515Z" fill="#FCFCFB"/>
<g opacity="0.79">
<path opacity="0.37" d="M233.523 106.349C233.523 106.349 242.348 124.929 246.7 126.094C253.196 120.882 258.344 126.584 259.263 134.126C259.263 134.126 267.965 132.532 266.924 143.447C271.765 141.914 275.565 147.984 272.01 152.583C272.01 152.583 282 156.324 278.445 163.007C278.445 163.007 284.88 162.823 283.532 169.568C282.184 176.313 276.055 174.719 276.055 174.719C276.055 174.719 285.003 178.521 279.181 182.261C273.359 186.002 270.785 182.813 270.785 182.813L233.523 178.766C233.523 178.766 219.673 177.846 215.935 169.2C212.135 160.493 218.999 158.531 218.999 158.531C218.999 158.531 217.283 150.376 224.453 148.414C224.453 148.414 224.392 147.126 226.843 140.136C224.208 136.886 226.782 134.985 228.437 131.183C230.643 125.91 223.902 110.519 223.902 110.519L233.523 106.349Z" fill="#33B3C4"/>
<path opacity="0.79" d="M237.753 163.314C237.753 163.314 225.312 155.097 222.37 165.153C222.37 165.153 204.843 167.974 216.609 182.445C216.609 182.445 206.375 182.2 207.294 192.256C208.213 202.312 217.1 198.878 217.1 198.878C217.1 198.878 216.732 202.006 223.841 202.006C230.95 202.006 232.666 192.501 232.666 192.501C232.666 192.501 234.443 202.864 242.349 200.105C250.255 197.407 247.068 197.1 247.068 197.1C247.068 197.1 252.154 203.661 259.754 195.751C259.754 195.751 260.122 198.327 266.985 194.709C266.985 194.709 266.618 206.482 275.504 204.765C284.452 203.048 283.103 196.303 283.103 196.303C283.103 196.303 294.625 198.817 296.096 189.19C297.567 179.563 291.377 182.139 291.377 182.139L292.112 180.728C292.112 180.728 298.486 184.653 302.714 179.134C306.943 173.615 299.834 167.606 299.834 167.606C299.834 167.606 289.661 149.456 277.894 163.682C277.894 163.682 272.807 152.706 265.331 162.026C265.331 162.026 263.86 158.531 259.754 161.965C255.586 165.399 259.202 167.545 259.202 167.545C259.202 167.545 258.16 162.885 251.235 166.748C244.31 170.611 247.558 169.446 247.558 169.446C247.558 169.446 247.558 157.427 237.753 163.314Z" fill="#E1FFFD"/>
</g>
<path d="M249.518 139.952C249.518 139.952 244.309 136.641 240.141 141.056C235.974 145.471 237.322 147.555 237.322 147.555C237.322 147.555 240.325 137.622 252.398 143.754C252.398 143.754 256.566 134.863 266.126 139.094C266.126 139.094 264.288 133.82 260.059 133.943C255.83 134.065 250.989 134.985 249.518 139.952Z" fill="white"/>
<path opacity="0.37" d="M233.28 106.043C233.28 106.043 238.98 116.835 240.267 118.797C241.554 120.698 246.456 125.787 246.456 125.787L237.018 120.391L235.854 123.212L238.305 128.853L236.222 131.428L231.258 119.226L229.051 131.858C228.5 124.99 226.906 117.632 223.965 111.193L233.28 106.043Z" fill="#33B3C4"/>
<path d="M246.395 152.767C245.23 152.215 242.473 153.258 242.473 153.258C242.473 153.258 240.573 151.97 245.782 149.211C250.991 146.452 253.749 150.253 253.749 150.253C257.303 148.72 260.552 150.253 260.552 150.253C260.552 150.253 260.552 150.253 264.903 148.046C269.254 145.838 271.705 149.272 271.705 149.272C271.705 149.272 270.97 149.088 269.131 150.253C267.293 151.418 269.867 152.767 269.867 152.767C273.36 151.848 278.631 156.63 276.792 155.711C275.015 154.852 267.783 156.385 267.783 156.385C267.783 156.385 266.986 152.645 263.493 152.277C259.939 151.909 259.019 156.385 259.019 156.385C259.019 156.385 258.897 154.362 251.481 153.81C244.005 153.258 242.595 160.739 242.595 160.739C240.511 154.546 247.498 153.319 246.395 152.767Z" fill="white"/>
<path d="M241.308 180.544C241.308 180.544 239.531 174.719 244.863 172.389C250.195 170.059 253.198 171.347 253.198 171.347C253.198 171.347 251.114 169.139 254.485 167.116C257.794 165.092 261.9 165.031 261.9 165.031C261.9 165.031 262.574 161.72 267.416 161.229C272.257 160.739 273.667 164.234 273.667 164.234C273.667 164.234 275.199 161.229 278.631 162.885C278.631 162.885 281.082 158.225 288.191 158.715C295.362 159.206 296.649 163.253 296.649 163.253C296.649 163.253 292.481 160.187 286.659 162.824L283.779 164.602C283.779 164.602 285.985 164.847 287.088 166.135C287.088 166.135 281.205 164.786 278.692 166.993C276.18 169.201 276.67 171.04 276.67 171.04C276.67 171.04 276.363 169.875 279.734 169.385C283.105 168.833 285.005 170.611 285.005 170.611C285.005 170.611 283.595 169.936 280.592 171.96C277.589 173.922 277.467 174.781 277.467 174.781C277.467 174.781 272.441 171.96 266.987 175.087C261.532 178.214 262.268 179.195 262.268 179.195C262.268 179.195 260.736 177.111 262.758 175.639C264.781 174.106 259.081 172.757 255.159 176.007C251.237 179.257 252.278 179.809 252.278 179.809C252.278 179.809 249.95 177.479 251.604 176.497C253.32 175.455 247.376 174.045 241.308 180.544Z" fill="white"/>
<path d="M200.37 90.468C200.064 88.3832 200.37 82.0674 200.37 82.0674C207.479 77.4072 233.525 69.6198 242.718 70.5396C242.718 70.5396 248.295 74.5252 250.93 78.6336C253.259 82.374 256.201 95.4348 256.201 95.4348C257.304 98.7459 256.323 102.486 252.952 106.165C245.66 114.137 228.868 119.226 216.672 116.467C209.869 114.934 206.621 110.703 205.518 106.656C205.457 106.717 200.983 94.6376 200.37 90.468Z" fill="#B33939"/>
<path d="M207.907 102.793L207.968 97.7036L205.149 94.0858L200.736 101.015C198.775 104.142 198.224 107.944 199.327 111.5L204.475 127.933C204.658 128.485 204.904 128.976 205.271 129.466L207.6 133.329L207.784 115.854L209.561 108.128L207.907 102.793Z" fill="#B33939"/>
<path d="M253.932 88.3833L250.991 84.2137L251.236 79.6148L258.774 82.8034C262.206 84.2137 264.78 87.0956 265.883 90.5908L271.031 107.024C271.215 107.576 271.276 108.128 271.215 108.68L271.031 112.42L261.409 98.93L255.526 93.5954L253.932 88.3833Z" fill="#FF5252"/>
<path d="M190.625 57.0496C185.477 40.6163 186.641 22.8954 193.812 7.19788L194.486 5.66492C196.937 0.330235 203.495 -1.63195 208.398 1.49528L209.93 2.47638C224.025 11.3062 235.608 24.7349 240.572 40.6163L249.887 77.8978C249.887 77.8978 251.42 85.3786 247.988 89.119C240.695 97.0291 225.067 101.873 212.933 99.1139C206.314 97.6423 202.147 93.7792 200.86 89.8549L190.625 57.0496Z" fill="white"/>
<path d="M206.375 55.8846C208.214 61.7099 214.403 64.9597 220.225 63.1815C226.048 61.342 229.296 55.1488 227.457 49.3236C225.619 43.4984 219.429 40.2485 213.607 42.088C207.785 43.8049 204.537 50.0594 206.375 55.8846Z" fill="#86E2DE"/>
<path d="M209.624 54.8424C210.911 58.8894 215.201 61.1581 219.246 59.8705C223.29 58.5828 225.558 54.2905 224.271 50.2435C222.984 46.1965 218.694 43.9277 214.649 45.2154C210.604 46.5031 208.337 50.7953 209.624 54.8424Z" fill="#2C2C54"/>
<path d="M250.99 84.2135L258.528 87.4021C261.96 88.8124 264.534 91.6943 265.637 95.1895L271.031 112.42L255.342 98.1327L250.99 84.2135Z" fill="#D62222"/>
<path d="M207.969 98.6232L203.557 105.552C201.596 108.679 201.044 112.481 202.147 116.038L207.54 133.268L212.321 112.604L207.969 98.6232Z" fill="#FF5252"/>
</svg>
