<svg width="196" height="192" viewBox="0 0 196 192" fill="none" xmlns="http://www.w3.org/2000/svg">
<path d="M76.853 191.092V169.946C76.853 155.924 52.0284 148.799 38.9265 148.799C25.8246 148.799 1 155.924 1 169.946V191.092" stroke="#0B4275" stroke-width="2" stroke-miterlimit="10" stroke-linejoin="round"/>
<path d="M38.9269 136.156C48.8108 136.156 55.9364 129.261 55.9364 119.147V110.642C55.9364 100.758 48.8108 93.6328 38.9269 93.6328C29.0431 93.6328 21.9175 100.529 21.9175 110.642V119.147C21.9175 129.261 29.0431 136.156 38.9269 136.156Z" stroke="#0B4275" stroke-width="2" stroke-miterlimit="10" stroke-linejoin="round"/>
<path d="M140.294 64.2109L102.137 98L85.3577 72.7157" stroke="#0B4275" stroke-width="2" stroke-miterlimit="10" stroke-linejoin="round"/>
<path d="M102.137 26.2845V43.0642" stroke="#E5231E" stroke-width="2" stroke-miterlimit="10" stroke-linejoin="round"/>
<path d="M169.716 93.8622H152.936" stroke="#0B4275" stroke-width="2" stroke-miterlimit="10" stroke-linejoin="round"/>
<path d="M102.137 161.44V144.431" stroke="#0B4275" stroke-width="2" stroke-miterlimit="10" stroke-linejoin="round"/>
<path d="M27.2034 81.2203C33.1797 45.3625 64.4402 17.7797 102.137 17.7797C144.201 17.7797 178.22 51.7985 178.22 93.8625C178.22 135.926 144.201 169.945 102.137 169.945C97.7696 169.945 93.6321 169.486 89.4947 168.796" stroke="#FFB800" stroke-width="2" stroke-miterlimit="10" stroke-linejoin="round"/>
<path d="M9.27515 93.8625C9.27515 42.6042 50.8793 1 102.138 1C153.396 1 195 42.6042 195 93.8625C195 145.121 153.396 186.725 102.138 186.725C97.7702 186.725 93.6328 186.495 89.4954 185.805" stroke="#0B4275" stroke-width="2" stroke-miterlimit="10" stroke-linejoin="round"/>
</svg>
