<svg width="160" height="205" viewBox="0 0 160 205" fill="none" xmlns="http://www.w3.org/2000/svg">
<path opacity="0.37" d="M39.3854 112.062C40.5659 112.936 55.6347 102.51 56.1208 102.323L68.3425 56.9346L17.1641 89.7114C17.1641 89.7114 38.1354 111.188 39.3854 112.062Z" fill="#00638E"/>
<path d="M96.0476 1.30761L46.5357 23.5334C41.3276 25.8434 37.1611 31.5247 37.1611 36.1447L37.5778 108.441C37.5778 110.314 38.2722 111.75 39.3833 112.624L43.5498 114.872L96.3948 90.4606C101.603 88.1507 105.769 82.4693 105.769 77.8493L106.672 2.93084L103.27 1.18274C101.533 -0.00347084 98.9641 -0.00346792 96.0476 1.30761Z" fill="#001D56"/>
<path d="M99.4513 3.05576L50.0089 25.344C44.8008 27.654 40.6343 33.3353 40.6343 37.9552L40.9815 110.251C40.9815 114.934 45.148 116.807 50.3561 114.434L99.8679 92.2086C107.298 89.5241 109.243 84.3422 109.243 79.5974L108.826 7.30114C108.826 2.61874 104.659 0.745776 99.4513 3.05576Z" fill="#083D7C"/>
<path d="M97.9249 10.9222L50.9129 32.0242C47.9964 33.3353 45.5659 36.5818 45.5659 39.2039V45.3847C45.5659 48.0068 47.9269 49.0682 50.9129 47.7571L97.9249 26.6551C100.841 25.344 103.272 22.0975 103.272 19.4754V13.2946C103.272 10.6725 100.841 9.61115 97.9249 10.9222Z" fill="#70E2E5"/>
<path d="M81.5353 22.1599C80.2159 22.7218 79.5215 23.7831 79.5215 24.9694V25.2191C79.5215 25.9683 79.7992 26.3429 80.3548 26.3429C79.7992 26.9048 79.5215 27.5291 79.5215 28.2783V28.8402C79.5215 30.0264 80.2159 30.401 81.5353 29.7767C82.8547 29.2148 83.5491 28.1534 83.5491 26.9672V26.4053C83.5491 25.7186 83.3408 25.2191 82.7158 25.2191C83.2713 24.7196 83.5491 24.0953 83.5491 23.3461V23.0964C83.5491 21.9726 82.8547 21.598 81.5353 22.1599ZM82.2297 27.5915C82.2297 28.2783 81.8825 28.5905 81.4659 28.7778C81.0492 28.9651 80.702 28.9026 80.702 28.2783V27.5915C80.702 27.0296 80.9798 26.655 81.4659 26.4053C81.9519 26.218 82.2297 26.3429 82.2297 26.9048V27.5915ZM82.2297 24.1577C82.2297 24.7821 81.8825 25.0942 81.4659 25.2815C81.0492 25.4688 80.702 25.4064 80.702 24.8445V24.4075C80.702 23.7207 81.0492 23.4085 81.4659 23.2212C81.8825 23.0339 82.2297 23.0964 82.2297 23.7207V24.1577Z" fill="white"/>
<path d="M86.1876 20.0997C84.9377 20.6615 84.1738 21.6605 84.1738 22.8467V26.7175C84.1738 27.9037 84.8682 28.2783 86.1876 27.7164C87.4376 27.1545 88.132 26.1556 88.132 24.9694V21.0361C88.2014 19.8499 87.507 19.4753 86.1876 20.0997ZM86.882 25.5937C86.882 26.1556 86.6043 26.4677 86.1876 26.655C85.771 26.8423 85.4932 26.7799 85.4932 26.218V22.2224C85.4932 21.6605 85.771 21.3483 86.1876 21.161C86.6043 20.9737 86.882 21.0361 86.882 21.598V25.5937Z" fill="white"/>
<path d="M91.1862 18.0395C89.9362 18.6014 89.1724 19.6003 89.1724 20.7865V24.6572C89.1724 25.8434 89.8668 26.218 91.1862 25.6561C92.4361 25.0943 93.1306 24.0954 93.1306 22.9091V19.0384C93.1306 17.8522 92.4361 17.4776 91.1862 18.0395ZM91.8112 23.5335C91.8112 24.0954 91.5334 24.4075 91.1167 24.5948C90.7001 24.7821 90.4223 24.7197 90.4223 24.1578V20.1621C90.4223 19.6003 90.7001 19.2881 91.1167 19.1008C91.5334 18.9135 91.8112 18.9759 91.8112 19.5378V23.5335Z" fill="white"/>
<path d="M95.9108 15.9167C94.6608 16.4786 93.897 17.4775 93.897 18.6637V22.5346C93.897 23.7208 94.5914 24.0954 95.9108 23.5335C97.1607 22.9716 97.8551 21.9727 97.8551 20.7864V16.9156C97.8551 15.7294 97.1607 15.3548 95.9108 15.9167ZM96.6052 21.4108C96.6052 21.9727 96.3274 22.2848 95.9108 22.4721C95.4941 22.6594 95.2164 22.597 95.2164 22.0351V18.0394C95.2164 17.4775 95.4941 17.1654 95.9108 16.9781C96.3274 16.7908 96.6052 16.8532 96.6052 17.4151V21.4108Z" fill="white"/>
<path opacity="0.45" d="M45.6357 39.2039V45.3847C45.6357 46.0714 45.8441 46.6333 46.1218 47.1328C56.1909 40.0155 84.3147 20.2245 97.3697 11.1719L50.9827 32.0242C47.9968 33.3977 45.6357 36.5817 45.6357 39.2039Z" fill="white"/>
<g opacity="0.57">
<g opacity="0.57">
<path opacity="0.57" d="M61.606 50.7538L61.6754 54.8119L62.717 55.2489L74.7999 45.6968L73.7582 45.2598L61.606 50.7538Z" fill="#33B3C4"/>
<path opacity="0.57" d="M61.6055 57.1219V66.1121L62.6471 66.5491L74.7299 52.0649L73.7577 51.6279L61.6055 57.1219Z" fill="#33B3C4"/>
<path opacity="0.57" d="M61.6055 68.1099V77.1626L62.6471 77.5996L74.8688 62.9905L73.8272 62.5535L61.6055 68.1099Z" fill="#33B3C4"/>
<path opacity="0.57" d="M61.6055 79.3476L61.7444 88.2754L62.786 88.65L74.8688 74.2906L73.8272 73.8536L61.6055 79.3476Z" fill="#33B3C4"/>
<path opacity="0.57" d="M61.6055 90.7727V99.8879L62.6471 100.262L74.8688 85.7157L73.8272 85.2787L61.6055 90.7727Z" fill="#33B3C4"/>
</g>
<g opacity="0.57">
<path opacity="0.57" d="M46.6064 57.4965V61.5546L47.6481 61.9916L59.7309 52.4395L58.7587 52.0024L46.6064 57.4965Z" fill="#33B3C4"/>
<path opacity="0.57" d="M46.5366 63.8645L46.6061 72.8548L47.6477 73.2918L58.4111 63.0529L59.7305 58.8075L58.6889 58.3705L46.5366 63.8645Z" fill="#33B3C4"/>
<path opacity="0.57" d="M46.5366 74.7902V83.8428L47.5782 84.2798L59.8 69.7332L58.7584 69.2962L46.5366 74.7902Z" fill="#33B3C4"/>
<path opacity="0.57" d="M46.6064 86.0904L46.6759 94.9557L47.7175 95.3928L59.8004 81.0333L58.7587 80.5963L46.6064 86.0904Z" fill="#33B3C4"/>
<path opacity="0.57" d="M46.6061 97.5154L46.5366 106.568L47.5782 107.005L59.8 92.4584L58.7584 92.0214L46.6061 97.5154Z" fill="#33B3C4"/>
</g>
<g opacity="0.57">
<path opacity="0.57" d="M76.813 43.8863L76.8824 48.0068L77.8546 48.4438L90.0069 38.8918L88.9653 38.4548L76.813 43.8863Z" fill="#33B3C4"/>
<path opacity="0.57" d="M76.7432 50.2544L76.8126 59.3071L77.8542 59.7441L89.937 45.2598L88.8954 44.8228L76.7432 50.2544Z" fill="#33B3C4"/>
<path opacity="0.57" d="M76.7432 61.2424V70.2951L77.7848 70.7321L90.0065 56.1854L88.9649 55.7484L76.7432 61.2424Z" fill="#33B3C4"/>
<path opacity="0.57" d="M76.813 72.5426L76.8824 81.408L77.9241 81.845L90.0069 67.4857L88.9653 67.0486L76.813 72.5426Z" fill="#33B3C4"/>
<path opacity="0.57" d="M76.8126 83.9677L76.7432 93.0203L77.7848 93.4573L90.0065 78.9107L88.9649 78.4737L76.8126 83.9677Z" fill="#33B3C4"/>
</g>
<g opacity="0.57">
<path opacity="0.57" d="M91.8818 37.1436V41.2017L92.9235 41.6387L105.006 32.0867L104.034 31.7121L91.8818 37.1436Z" fill="#FF5542"/>
<path opacity="0.57" d="M91.812 43.5117L91.8815 52.5644L92.9231 53.0014L105.006 38.4547L103.964 38.0177L91.812 43.5117Z" fill="#33B3C4"/>
<path opacity="0.57" d="M91.812 54.4997V63.5524L92.8536 63.9894L105.075 49.3803L104.034 49.0057L91.812 54.4997Z" fill="#33B3C4"/>
<path opacity="0.57" d="M91.8818 65.8L91.9513 86.2153L92.9929 86.6523L105.076 60.743L104.034 60.306L91.8818 65.8Z" fill="#33B3C4"/>
</g>
</g>
<path d="M62.646 51.1909L62.7154 55.249L74.8677 49.7549L74.7983 45.6968L62.646 51.1909Z" fill="#33B3C4"/>
<path d="M62.6455 57.5589V66.5492L74.8672 61.0551V54.0627L74.7283 52.0648L62.6455 57.5589Z" fill="#33B3C4"/>
<path d="M62.6455 77.5997L74.8672 72.0432V62.9905L62.6455 68.547V77.5997Z" fill="#33B3C4"/>
<path d="M62.7844 88.6501L74.8672 83.2185V74.2907L62.6455 79.7847L62.7844 88.6501Z" fill="#33B3C4"/>
<path d="M62.6455 100.263L74.8672 94.7685V85.7158L62.6455 91.2098V100.263Z" fill="#33B3C4"/>
<path d="M47.6475 57.9335V61.9916L59.7997 56.4976L59.7303 52.4395L47.6475 57.9335Z" fill="#33B3C4"/>
<path d="M47.5767 64.3016L47.6461 73.2918L59.7984 67.7978V60.8054L59.7289 58.8076L47.5767 64.3016Z" fill="#33B3C4"/>
<path d="M47.5767 84.2798L59.7984 78.7858V69.7332L47.5767 75.2272V84.2798Z" fill="#33B3C4"/>
<path d="M47.7159 95.3927L59.7987 89.9611V81.0334L47.6465 86.5274L47.7159 95.3927Z" fill="#33B3C4"/>
<path d="M47.5767 107.005L59.7984 101.511V92.4584L47.6461 97.9524L47.5767 107.005Z" fill="#33B3C4"/>
<path d="M77.853 44.3233V48.4438L90.0053 42.9498V38.8917L77.853 44.3233Z" fill="#33B3C4"/>
<path d="M77.7832 50.6915L77.8526 59.7441L90.0049 54.2501V47.2577L89.9355 45.2599L77.7832 50.6915Z" fill="#33B3C4"/>
<path d="M77.7832 70.7321L90.0049 65.2381V56.1855L77.7832 61.6795V70.7321Z" fill="#33B3C4"/>
<path d="M77.9225 81.845L90.0053 76.4134V67.4855L77.853 72.9796L77.9225 81.845Z" fill="#33B3C4"/>
<path d="M77.7832 93.4573L90.0049 87.9633V78.9106L77.8526 84.4047L77.7832 93.4573Z" fill="#33B3C4"/>
<path d="M92.9229 37.5807V41.6387L105.075 36.2072L105.006 32.0867L92.9229 37.5807Z" fill="#FF5542"/>
<path d="M92.8521 43.9488L92.9215 53.0014L105.074 47.5074V40.515L105.004 38.4548L92.8521 43.9488Z" fill="#33B3C4"/>
<path d="M92.8521 63.9894L105.074 58.433V49.3804L92.8521 54.9368V63.9894Z" fill="#33B3C4"/>
<path d="M92.9913 86.6523L105.074 81.1583V60.743L92.9219 66.237L92.9913 86.6523Z" fill="#33B3C4"/>
<g opacity="0.3">
<path opacity="0.3" d="M142.056 116.38L141.64 116.193C122.057 105.642 91.2252 104.955 72.7537 114.757C62.893 120.001 58.5182 127.181 59.4904 134.361C61.157 139.917 65.879 145.286 73.7953 149.781C73.7953 149.781 104.905 170.009 144.14 152.279C152.056 148.72 154.834 142.789 156.014 137.357C156.431 130.053 152.611 122.186 142.056 116.38Z" fill="#003D75"/>
</g>
<path d="M140.529 117.753C128.377 111.323 108.03 111.76 95.1143 118.752L94.8365 118.877C88.309 122.436 84.9758 127.056 84.7675 131.551C84.6981 132.8 84.6981 134.111 84.6286 135.359C84.5592 136.608 84.5592 137.919 84.4897 139.168C84.6981 134.673 88.0313 130.115 94.5588 126.494L94.8365 126.369C107.753 119.377 128.03 118.94 140.251 125.37C146.362 128.617 149.279 132.925 149.07 137.357C149.14 134.797 149.279 132.3 149.348 129.74C149.556 125.308 146.64 120.938 140.529 117.753Z" fill="#FDA014"/>
<path d="M140.529 117.753C128.377 111.323 108.03 111.76 95.1143 118.752L94.8365 118.877C88.309 122.436 84.9758 127.056 84.7675 131.551C84.6981 132.8 84.6981 134.111 84.6286 135.359C84.5592 136.608 84.5592 137.919 84.4897 139.168C84.6981 134.673 88.0313 130.115 94.5588 126.494L94.8365 126.369C107.753 119.377 128.03 118.94 140.251 125.37C146.362 128.617 149.279 132.925 149.07 137.357C149.14 134.797 149.279 132.3 149.348 129.74C149.556 125.308 146.64 120.938 140.529 117.753Z" fill="#EA7A00"/>
<path d="M144.904 145.036L144.626 145.161C128.585 153.964 103.308 154.588 88.1003 146.535C80.5312 142.539 76.9203 137.17 77.1286 131.676C77.0591 134.236 76.9202 136.733 76.8508 139.293C76.6425 144.787 80.2534 150.156 87.8226 154.151C103.03 162.205 128.307 161.581 144.348 152.778L144.626 152.653C152.542 148.22 156.639 142.602 156.847 137.108C156.917 134.548 157.056 132.051 157.125 129.491C156.847 135.047 152.75 140.604 144.904 145.036Z" fill="#EA7A00"/>
<path opacity="0.27" d="M144.904 145.099L144.626 145.224C139.21 148.22 124.905 150.967 118.099 152.029L117.544 159.708C128.932 159.396 138.863 155.9 144.348 152.84L144.626 152.715C150.043 149.656 153.654 146.098 155.459 142.352L156.084 134.111C154.279 138.044 150.598 141.852 144.904 145.099Z" fill="#FFC431"/>
<path opacity="0.69" d="M144.904 145.099L144.627 145.224C140.321 147.596 135.321 149.344 130.044 150.53L129.488 158.209C134.835 157.023 139.905 155.275 144.279 152.84L144.557 152.715C148.585 150.468 151.571 147.908 153.654 145.224L154.279 137.17C152.265 139.979 149.14 142.726 144.904 145.099Z" fill="#FFC431"/>
<path d="M146.083 114.694C130.944 106.703 105.876 107.265 89.8349 115.943L89.5571 116.068C73.5161 124.871 72.8911 138.543 88.0988 146.597C103.307 154.651 128.583 154.027 144.624 145.224L144.902 145.099C160.665 136.233 161.221 122.686 146.083 114.694ZM139.555 142.289L139.277 142.414C126.361 149.532 105.876 150.031 93.5847 143.538C81.2935 137.045 81.8491 125.995 94.7652 118.877L95.043 118.752C107.959 111.76 128.236 111.323 140.458 117.754C152.749 124.184 152.263 135.172 139.555 142.289Z" fill="url(#paint0_linear)"/>
<path d="M140.25 119.377C128.167 112.946 108.099 113.446 95.2519 120.313L94.9742 120.438C88.0995 124.247 84.8357 129.116 85.044 133.861C85.8079 137.42 88.4467 141.54 93.5853 143.85C119.209 155.462 139.556 142.227 139.556 142.227C144.694 139.355 147.819 135.796 148.93 132.175C149.555 127.493 146.708 122.811 140.25 119.377Z" fill="url(#paint1_linear)"/>
<path d="M135.113 132.8C135.113 131.364 134.002 130.115 131.849 128.991H131.71L125.461 132.238C126.641 132.862 127.197 133.486 127.266 134.048C127.266 134.61 126.78 135.172 125.808 135.672C124.766 136.233 123.794 136.483 122.891 136.421C121.988 136.358 121.086 136.171 120.252 135.734C119.489 135.297 119.072 134.86 119.072 134.361C119.072 133.861 119.419 133.112 120.252 132.051C122.266 130.053 123.377 128.367 123.586 126.931C123.794 125.495 122.752 124.184 120.53 123.06C118.447 121.999 116.155 121.5 113.517 121.562C110.878 121.624 108.239 122.249 105.6 123.435L102.059 121.562L99.0727 123.123L102.614 124.996C100.253 126.432 98.9338 127.93 98.5866 129.491C98.2394 131.052 99.4199 132.425 102.059 133.736L102.198 133.799L108.378 130.552C107.058 129.865 106.434 129.179 106.503 128.492C106.642 127.805 107.267 127.181 108.447 126.557C109.489 125.995 110.461 125.745 111.433 125.745C112.406 125.745 113.308 125.932 114.072 126.369C115.044 126.869 115.461 127.368 115.461 127.868C115.461 128.367 115.044 129.116 114.211 130.115C112.197 132.238 111.086 133.923 110.878 135.297C110.669 136.671 111.642 137.919 113.864 139.105C115.878 140.167 118.239 140.604 121.016 140.541C123.794 140.416 126.502 139.792 129.141 138.606L132.891 140.541L135.877 138.98L132.127 136.983C134.141 135.609 135.113 134.236 135.113 132.8Z" fill="white"/>
<path d="M142.892 102.333C130.74 95.9023 110.393 96.3394 97.4771 103.332L97.1993 103.457C90.6718 107.015 87.3386 111.635 87.1303 116.13C87.0609 117.379 87.0609 118.69 86.9914 119.939C86.922 121.187 86.922 122.498 86.8525 123.747C87.0609 119.252 90.394 114.694 96.9215 111.073L97.1993 110.948C110.115 103.956 130.392 103.519 142.614 109.95C148.725 113.196 151.641 117.504 151.433 121.936C151.503 119.377 151.641 116.879 151.711 114.32C151.919 109.95 149.003 105.579 142.892 102.333Z" fill="#FDA014"/>
<path d="M142.892 102.333C130.74 95.9023 110.393 96.3394 97.4771 103.332L97.1993 103.457C90.6718 107.015 87.3386 111.635 87.1303 116.13C87.0609 117.379 87.0609 118.69 86.9914 119.939C86.922 121.187 86.922 122.498 86.8525 123.747C87.0609 119.252 90.394 114.694 96.9215 111.073L97.1993 110.948C110.115 103.956 130.392 103.519 142.614 109.95C148.725 113.196 151.641 117.504 151.433 121.936C151.503 119.377 151.641 116.879 151.711 114.32C151.919 109.95 149.003 105.579 142.892 102.333Z" fill="#EA7A00"/>
<path d="M147.266 129.678L146.989 129.803C130.948 138.606 105.671 139.23 90.4631 131.176C82.894 127.181 79.283 121.812 79.4914 116.318C79.4219 118.877 79.283 121.375 79.2136 123.934C79.0053 129.428 82.6162 134.797 90.1854 138.793C105.393 146.847 130.67 146.223 146.711 137.42L146.989 137.295C154.905 132.862 159.002 127.243 159.21 121.749C159.28 119.189 159.419 116.692 159.488 114.132C159.21 119.626 155.113 125.245 147.266 129.678Z" fill="#EA7A00"/>
<path opacity="0.27" d="M147.267 129.678L146.989 129.803C141.573 132.8 127.268 135.547 120.462 136.608L119.907 144.287C131.295 143.975 141.225 140.479 146.711 137.42L146.989 137.295C152.405 134.236 156.016 130.677 157.822 126.931L158.447 118.69C156.641 122.686 152.961 126.494 147.267 129.678Z" fill="#FFC431"/>
<path opacity="0.69" d="M147.267 129.678L146.989 129.803C142.684 132.175 137.684 133.923 132.407 135.11L131.851 142.789C137.198 141.603 142.267 139.855 146.642 137.42L146.92 137.295C150.947 135.047 153.933 132.488 156.017 129.803L156.642 121.749C154.628 124.621 151.503 127.306 147.267 129.678Z" fill="#FFC431"/>
<path d="M148.446 99.2737C133.308 91.2824 108.239 91.8442 92.1981 100.522L91.9204 100.647C75.8794 109.45 75.2544 123.123 90.4621 131.176C105.67 139.23 130.947 138.606 146.988 129.803L147.265 129.678C163.029 120.875 163.584 107.327 148.446 99.2737ZM141.918 126.869L141.641 126.993C128.724 134.111 108.239 134.61 95.948 128.117C83.6568 121.624 84.2124 110.574 97.1285 103.457L97.4063 103.332C110.322 96.3394 130.599 95.9023 142.821 102.333C155.112 108.826 154.626 119.751 141.918 126.869Z" fill="url(#paint2_linear)"/>
<path d="M142.613 104.019C130.53 97.588 110.461 98.0875 97.6147 104.955L97.337 105.08C90.4623 108.888 87.1985 113.758 87.4068 118.503C88.1707 122.061 90.8095 126.182 95.9481 128.492C121.572 140.104 141.918 126.869 141.918 126.869C147.057 123.997 150.182 120.438 151.293 116.817C151.918 112.135 149.071 107.452 142.613 104.019Z" fill="url(#paint3_linear)"/>
<path d="M137.683 103.894L133.03 106.266C129.975 105.392 126.85 105.08 123.656 105.267C120.462 105.517 117.545 106.329 114.906 107.702L114.837 107.764L121.92 110.636C123.378 109.887 124.767 109.45 126.086 109.388C127.406 109.263 128.656 109.45 129.767 109.887C130.947 110.387 131.433 110.886 131.294 111.386C131.156 111.885 130.6 112.447 129.558 112.946C128.586 113.446 127.545 113.758 126.433 113.82C125.322 113.883 123.586 113.82 121.295 113.571C116.92 112.821 113.101 112.447 109.906 112.572C106.712 112.697 103.726 113.446 100.948 114.882C98.3791 116.193 97.1292 117.566 97.1986 118.94C97.2681 120.376 98.518 121.687 101.018 122.935L96.6431 125.183L100.046 126.557L104.421 124.309C107.545 125.37 110.809 125.807 114.351 125.745C117.823 125.682 121.086 124.808 124.211 123.185L124.281 123.123L117.267 120.251C115.601 121.125 114.003 121.562 112.476 121.562C110.948 121.624 109.559 121.375 108.17 120.813C106.99 120.313 106.434 119.814 106.504 119.314C106.573 118.815 107.129 118.253 108.101 117.754C109.281 117.192 110.392 116.817 111.573 116.755C112.754 116.692 114.42 116.755 116.573 117.067C121.225 117.816 125.045 118.128 128.1 118.066C131.156 117.941 134.072 117.192 136.78 115.818C139.28 114.57 140.461 113.196 140.391 111.698C140.322 110.199 139.002 108.826 136.433 107.577L141.016 105.205L137.683 103.894Z" fill="white"/>
<path d="M138.516 95.9024C126.364 89.4719 106.017 89.9089 93.1011 96.9013L92.8233 97.0262C86.2958 100.585 82.9626 105.205 82.7543 109.7C82.6849 110.948 82.6849 112.26 82.6154 113.508C82.546 114.757 82.546 116.068 82.4766 117.317C82.6849 112.821 86.0181 108.264 92.5456 104.643L92.8233 104.518C105.739 97.5256 126.016 97.0886 138.238 103.519C144.349 106.766 147.266 111.073 147.057 115.506C147.127 112.946 147.266 110.449 147.335 107.889C147.543 103.519 144.627 99.1489 138.516 95.9024Z" fill="#FDA014"/>
<path d="M138.516 95.9024C126.364 89.4719 106.017 89.9089 93.1011 96.9013L92.8233 97.0262C86.2958 100.585 82.9626 105.205 82.7543 109.7C82.6849 110.948 82.6849 112.26 82.6154 113.508C82.546 114.757 82.546 116.068 82.4766 117.317C82.6849 112.821 86.0181 108.264 92.5456 104.643L92.8233 104.518C105.739 97.5256 126.016 97.0886 138.238 103.519C144.349 106.766 147.266 111.073 147.057 115.506C147.127 112.946 147.266 110.449 147.335 107.889C147.543 103.519 144.627 99.1489 138.516 95.9024Z" fill="#EA7A00"/>
<path d="M142.89 123.248L142.613 123.372C126.572 132.175 101.295 132.8 86.0872 124.746C78.518 120.75 74.9071 115.381 75.1154 109.887C75.0459 112.447 74.9071 114.944 74.8376 117.504C74.6293 122.998 78.2403 128.367 85.8094 132.363C101.017 140.416 126.294 139.792 142.335 130.989L142.613 130.864C150.529 126.432 154.626 120.813 154.834 115.319C154.904 112.759 155.043 110.262 155.112 107.702C154.834 113.196 150.737 118.815 142.89 123.248Z" fill="#EA7A00"/>
<path opacity="0.27" d="M142.891 123.248L142.613 123.372C137.197 126.369 122.892 129.116 116.086 130.178L115.531 137.857C126.919 137.545 136.849 134.048 142.335 130.989L142.613 130.864C148.029 127.805 151.64 124.246 153.446 120.501L154.071 112.26C152.265 116.255 148.585 120.064 142.891 123.248Z" fill="#FFC431"/>
<path opacity="0.69" d="M142.891 123.248L142.613 123.372C138.308 125.745 133.308 127.493 128.031 128.679L127.475 136.358C132.822 135.172 137.891 133.424 142.266 130.989L142.544 130.864C146.572 128.617 149.558 126.057 151.641 123.372L152.266 115.319C150.182 118.191 147.127 120.875 142.891 123.248Z" fill="#FFC431"/>
<path d="M144.069 92.8432C128.931 84.8519 103.863 85.4138 87.8217 94.0918L87.5439 94.2167C71.5029 103.02 70.8779 116.692 86.0856 124.746C101.293 132.8 126.57 132.175 142.611 123.373L142.889 123.248C158.652 114.445 159.208 100.897 144.069 92.8432ZM137.542 120.438L137.264 120.563C124.348 127.68 103.863 128.18 91.5715 121.687C79.2804 115.194 79.8359 104.143 92.752 97.0261L93.0298 96.9013C105.946 89.9089 126.223 89.4718 138.445 95.9024C150.666 102.395 150.25 113.321 137.542 120.438Z" fill="url(#paint4_linear)"/>
<path d="M138.237 97.5881C126.154 91.1576 106.085 91.6571 93.2388 98.5246L92.961 98.6494C86.0863 102.458 82.8225 107.327 83.0309 112.072C83.7947 115.631 86.4335 119.751 91.5722 122.061C117.196 133.674 137.542 120.438 137.542 120.438C142.681 117.566 145.806 114.008 146.917 110.387C147.542 105.704 144.695 101.022 138.237 97.5881Z" fill="url(#paint5_linear)"/>
<path d="M133.307 97.4631L128.654 99.8355C125.599 98.9614 122.474 98.6493 119.28 98.8366C116.086 99.0863 113.169 99.8979 110.53 101.271L110.461 101.334L117.544 104.206C119.002 103.457 120.391 103.02 121.71 102.957C123.03 102.832 124.28 103.02 125.391 103.457C126.571 103.956 127.057 104.455 126.918 104.955C126.78 105.454 126.224 106.016 125.182 106.516C124.21 107.015 123.169 107.327 122.058 107.39C120.946 107.452 119.21 107.39 116.919 107.14C112.544 106.391 108.725 106.016 105.53 106.141C102.336 106.266 99.3501 107.015 96.5725 108.451C94.0031 109.762 92.7532 111.136 92.8226 112.509C92.8921 113.945 94.142 115.256 96.6419 116.505L92.2671 118.752L95.6697 120.126L100.045 117.878C103.169 118.94 106.433 119.377 109.975 119.314C113.447 119.252 116.71 118.378 119.835 116.755L119.905 116.692L112.891 113.82C111.225 114.694 109.627 115.131 108.1 115.131C106.572 115.194 105.183 114.944 103.794 114.382C102.614 113.883 102.058 113.383 102.128 112.884C102.197 112.384 102.753 111.822 103.725 111.323C104.905 110.761 106.017 110.387 107.197 110.324C108.378 110.262 110.044 110.324 112.197 110.636C116.849 111.385 120.669 111.698 123.724 111.635C126.78 111.51 129.696 110.761 132.404 109.388C134.904 108.139 136.085 106.765 136.015 105.267C135.946 103.769 134.626 102.395 132.057 101.147L136.64 98.7742L133.307 97.4631Z" fill="white"/>
<path d="M142.892 87.2243C130.74 80.7939 110.393 81.2309 97.4771 88.2233L97.1993 88.3481C90.6718 91.9067 87.3386 96.5267 87.1303 101.022C87.0609 102.27 87.0609 103.581 86.9914 104.83C86.922 106.079 86.922 107.39 86.8525 108.638C87.0609 104.143 90.394 99.5858 96.9215 95.9648L97.1993 95.8399C110.115 88.8476 130.392 88.4105 142.614 94.841C148.725 98.0875 151.641 102.395 151.433 106.828C151.503 104.268 151.641 101.771 151.711 99.2112C151.919 94.841 149.003 90.4708 142.892 87.2243Z" fill="#FDA014"/>
<path d="M142.892 87.2243C130.74 80.7939 110.393 81.2309 97.4771 88.2233L97.1993 88.3481C90.6718 91.9067 87.3386 96.5267 87.1303 101.022C87.0609 102.27 87.0609 103.581 86.9914 104.83C86.922 106.079 86.922 107.39 86.8525 108.638C87.0609 104.143 90.394 99.5858 96.9215 95.9648L97.1993 95.8399C110.115 88.8476 130.392 88.4105 142.614 94.841C148.725 98.0875 151.641 102.395 151.433 106.828C151.503 104.268 151.641 101.771 151.711 99.2112C151.919 94.841 149.003 90.4708 142.892 87.2243Z" fill="#EA7A00"/>
<path d="M147.266 114.57L146.989 114.694C130.948 123.497 105.671 124.122 90.4631 116.068C82.894 112.072 79.283 106.703 79.4914 101.209C79.4219 103.769 79.283 106.266 79.2136 108.826C79.0053 114.32 82.6162 119.689 90.1854 123.685C105.393 131.738 130.67 131.114 146.711 122.311L146.989 122.186C154.905 117.754 159.002 112.135 159.21 106.641C159.28 104.081 159.419 101.584 159.488 99.024C159.21 104.518 155.113 110.137 147.266 114.57Z" fill="#EA7A00"/>
<path opacity="0.27" d="M147.267 114.57L146.989 114.694C141.573 117.691 127.268 120.438 120.462 121.499L119.907 129.179C131.295 128.866 141.225 125.37 146.711 122.311L146.989 122.186C152.405 119.127 156.016 115.568 157.822 111.823L158.447 103.582C156.641 107.515 152.961 111.386 147.267 114.57Z" fill="#FFC431"/>
<path opacity="0.69" d="M147.267 114.57L146.989 114.694C142.684 117.067 137.684 118.815 132.407 120.001L131.851 127.68C137.198 126.494 142.267 124.746 146.642 122.311L146.92 122.186C150.947 119.939 153.933 117.379 156.017 114.694L156.642 106.641C154.558 109.513 151.503 112.197 147.267 114.57Z" fill="#FFC431"/>
<path d="M148.446 84.1651C133.308 76.1738 108.239 76.7357 92.1981 85.4138L91.9204 85.5386C75.8794 94.3415 75.2544 108.014 90.4621 116.068C105.67 124.122 130.947 123.497 146.988 114.694L147.265 114.569C163.029 105.767 163.584 92.1564 148.446 84.1651ZM141.918 111.76L141.641 111.885C128.724 119.002 108.239 119.502 95.948 113.009C83.6568 106.516 84.2124 95.4653 97.1285 88.3481L97.4063 88.2232C110.322 81.2308 130.599 80.7938 142.821 87.2243C155.043 93.7172 154.626 104.643 141.918 111.76Z" fill="url(#paint6_linear)"/>
<path d="M142.613 88.9099C130.53 82.4794 110.461 82.9788 97.6147 89.8464L97.337 89.9712C90.4623 93.7796 87.1985 98.6493 87.4068 103.394C88.1707 106.953 90.8095 111.073 95.9481 113.383C121.572 124.996 141.918 111.76 141.918 111.76C147.057 108.888 150.182 105.33 151.293 101.708C151.918 97.0261 149.071 92.2812 142.613 88.9099Z" fill="url(#paint7_linear)"/>
<path d="M141.851 103.956C141.921 102.52 140.671 101.147 138.102 99.8979C135.324 98.5244 132.407 97.7128 129.144 97.5879C125.949 97.4631 122.13 97.7752 117.755 98.5869C115.394 98.8366 113.658 98.899 112.617 98.8366C111.505 98.7742 110.464 98.462 109.492 97.9625C108.45 97.4631 107.895 96.9012 107.756 96.4017C107.617 95.9023 108.103 95.4028 109.283 94.9034C110.394 94.4664 111.644 94.2791 112.964 94.4039C114.283 94.5288 115.672 94.9034 117.13 95.6526L124.213 92.7807L124.144 92.7183C121.505 91.3448 118.589 90.5331 115.394 90.2834C112.2 90.0337 109.075 90.3458 106.02 91.2823L101.367 88.9099L97.9644 90.2834L102.548 92.6558C99.9782 93.9045 98.6588 95.278 98.5893 96.7763C98.5199 98.2747 99.7698 99.6482 102.2 100.897C104.978 102.333 107.895 103.082 110.88 103.144C113.936 103.269 117.755 102.895 122.408 102.145C124.63 101.833 126.297 101.771 127.408 101.833C128.519 101.896 129.699 102.27 130.88 102.832C131.852 103.332 132.407 103.894 132.477 104.393C132.546 104.892 131.991 105.392 130.81 105.891C129.491 106.453 128.033 106.703 126.505 106.641C124.977 106.578 123.449 106.141 121.713 105.33L114.7 108.201L114.769 108.264C117.894 109.887 121.158 110.761 124.63 110.824C128.102 110.886 131.435 110.386 134.56 109.388L138.935 111.635L142.338 110.262L137.963 108.014C140.532 106.703 141.782 105.33 141.851 103.956Z" fill="white"/>
<g opacity="0.3">
<path opacity="0.3" d="M80.8793 161.706L80.4626 161.518C61.2968 151.155 31.1591 150.53 13.1043 160.082C3.45195 165.202 -0.783986 172.257 0.118754 179.311C1.71591 184.743 6.3685 190.05 14.1459 194.358C14.1459 194.358 44.5613 214.211 82.9625 196.792C90.6705 193.296 94.6287 187.178 95.8092 181.809C96.087 174.691 91.1566 167.387 80.8793 161.706Z" fill="#003D75"/>
</g>
<path d="M79.351 163.017C67.4071 156.711 47.6162 157.148 34.9084 163.953L34.6307 164.078C28.242 167.574 24.9783 172.069 24.7699 176.44C24.7005 177.688 24.7005 178.937 24.6311 180.186C24.5616 181.434 24.5616 182.683 24.4922 183.932C24.6311 179.561 27.9643 175.066 34.3529 171.57L34.6307 171.445C47.269 164.64 67.1293 164.203 79.0733 170.509C85.0452 173.693 87.8923 177.938 87.7535 182.246C87.8229 179.749 87.9618 177.251 88.0312 174.754C88.1701 170.446 85.323 166.201 79.351 163.017Z" fill="#FDA014"/>
<path d="M79.351 163.017C67.4071 156.711 47.6162 157.148 34.9084 163.953L34.6307 164.078C28.242 167.574 24.9783 172.069 24.7699 176.44C24.7005 177.688 24.7005 178.937 24.6311 180.186C24.5616 181.434 24.5616 182.683 24.4922 183.932C24.6311 179.561 27.9643 175.066 34.3529 171.57L34.6307 171.445C47.269 164.64 67.1293 164.203 79.0733 170.509C85.0452 173.693 87.8923 177.938 87.7535 182.246C87.8229 179.749 87.9618 177.251 88.0312 174.754C88.1701 170.446 85.323 166.201 79.351 163.017Z" fill="#EA7A00"/>
<path d="M83.5872 189.738L83.3094 189.863C67.6156 198.478 42.8944 199.103 27.9644 191.174C20.6036 187.24 16.9927 181.996 17.201 176.627C17.1315 179.124 16.9927 181.622 16.9232 184.119C16.7149 189.488 20.2564 194.795 27.6867 198.666C42.5472 206.532 67.3378 205.97 83.0316 197.354L83.3094 197.23C91.0174 192.922 95.045 187.428 95.2533 182.059C95.3228 179.561 95.4617 177.064 95.5311 174.567C95.3228 179.936 91.3646 185.43 83.5872 189.738Z" fill="#EA7A00"/>
<path opacity="0.27" d="M83.5876 189.8L83.3099 189.925C78.0323 192.859 64.0051 195.544 57.3387 196.605L56.7832 204.097C67.9633 203.785 77.6157 200.351 83.0321 197.417L83.3099 197.292C88.5874 194.358 92.129 190.799 93.865 187.178L94.49 179.062C92.8234 182.933 89.2124 186.678 83.5876 189.8Z" fill="#FFC431"/>
<path opacity="0.69" d="M83.5874 189.8L83.3096 189.925C79.0737 192.235 74.2128 193.983 69.0741 195.107L68.5186 202.599C73.7961 201.475 78.7265 199.727 83.0318 197.354L83.3096 197.23C87.2678 195.044 90.1843 192.547 92.1981 189.863L92.7536 181.996C90.8093 184.806 87.7539 187.49 83.5874 189.8Z" fill="#FFC431"/>
<path d="M84.8372 160.02C70.0462 152.154 45.4639 152.715 29.7701 161.206L29.4923 161.331C13.7985 169.947 13.1735 183.307 28.034 191.236C42.8945 199.103 67.6851 198.541 83.3789 189.925L83.6567 189.8C99.0727 181.184 99.6283 167.886 84.8372 160.02ZM78.4486 187.053L78.2403 187.178C65.6019 194.108 45.5333 194.607 33.5894 188.239C21.576 181.871 22.1315 171.071 34.7699 164.078L35.0476 163.953C47.686 157.148 67.5463 156.711 79.4902 163.017C91.2953 169.385 90.8092 180.061 78.4486 187.053Z" fill="url(#paint8_linear)"/>
<path d="M79.0722 164.64C67.2671 158.397 47.6152 158.834 35.0463 165.577L34.7685 165.701C28.0327 169.385 24.8383 174.192 25.0467 178.812C25.8105 182.308 28.3799 186.304 33.4491 188.614C58.5175 199.977 78.3778 186.991 78.3778 186.991C83.447 184.181 86.433 180.685 87.5441 177.126C88.1691 172.631 85.3914 168.011 79.0722 164.64Z" fill="url(#paint9_linear)"/>
<path d="M74.0747 177.751C74.0747 176.377 72.9637 175.129 70.8804 174.067H70.7415L64.6307 177.251C65.8112 177.876 66.3667 178.437 66.3667 178.999C66.3667 179.561 65.8806 180.123 64.9084 180.623C63.8668 181.184 62.9641 181.372 62.0613 181.372C61.1586 181.309 60.2558 181.122 59.492 180.685C58.7281 180.31 58.3115 179.873 58.3115 179.374C58.3115 178.874 58.6587 178.125 59.4226 177.126C61.4364 175.191 62.478 173.505 62.6863 172.132C62.8946 170.758 61.853 169.447 59.7003 168.323C57.6865 167.262 55.3949 166.763 52.8256 166.888C50.2563 166.95 47.6869 167.574 45.1176 168.698L41.6455 166.888L38.729 168.448L42.201 170.259C39.9095 171.632 38.5901 173.131 38.3123 174.629C37.9651 176.127 39.1456 177.501 41.715 178.812L41.8538 178.874L47.8953 175.69C46.5759 175.004 45.9509 174.317 46.0898 173.693C46.2287 173.068 46.8536 172.382 48.0341 171.82C49.0758 171.258 50.0479 171.008 50.9507 171.008C51.9229 171.008 52.7562 171.195 53.5895 171.632C54.4922 172.132 54.9783 172.631 54.9783 173.068C54.9783 173.568 54.5616 174.317 53.7978 175.253C51.784 177.314 50.7424 178.999 50.534 180.31C50.3257 181.621 51.2979 182.87 53.4506 183.994C55.3949 184.993 57.756 185.492 60.3947 185.367C63.103 185.243 65.7417 184.618 68.3805 183.432L71.9915 185.305L74.908 183.744L71.2276 181.809C73.1025 180.498 74.0747 179.187 74.0747 177.751Z" fill="white"/>
<path d="M79.2124 151.717C67.2684 145.411 47.4776 145.848 34.7698 152.653L34.492 152.778C28.1034 156.274 24.8396 160.769 24.6313 165.14C24.5618 166.388 24.5618 167.637 24.4924 168.885C24.423 170.134 24.423 171.383 24.3535 172.631C24.4924 168.261 27.8256 163.766 34.2142 160.27L34.492 160.145C47.1303 153.34 66.9906 152.903 78.9346 159.208C84.9066 162.393 87.7537 166.638 87.6148 170.946C87.6842 168.448 87.8231 165.951 87.8926 163.454C88.0314 159.146 85.1843 154.901 79.2124 151.717Z" fill="#FDA014"/>
<path d="M79.2124 151.717C67.2684 145.411 47.4776 145.848 34.7698 152.653L34.492 152.778C28.1034 156.274 24.8396 160.769 24.6313 165.14C24.5618 166.388 24.5618 167.637 24.4924 168.885C24.423 170.134 24.423 171.383 24.3535 172.631C24.4924 168.261 27.8256 163.766 34.2142 160.27L34.492 160.145C47.1303 153.34 66.9906 152.903 78.9346 159.208C84.9066 162.393 87.7537 166.638 87.6148 170.946C87.6842 168.448 87.8231 165.951 87.8926 163.454C88.0314 159.146 85.1843 154.901 79.2124 151.717Z" fill="#EA7A00"/>
<path d="M83.4484 178.438L83.1707 178.562C67.4769 187.178 42.7557 187.802 27.8258 179.873C20.465 175.94 16.854 170.696 17.0623 165.327C16.9929 167.824 16.854 170.321 16.7846 172.819C16.5762 178.188 20.1178 183.495 27.548 187.365C42.4085 195.232 67.1991 194.67 82.8929 186.054L83.1707 185.929C90.8787 181.622 94.9063 176.128 95.1146 170.758C95.1841 168.261 95.323 165.764 95.3924 163.266C95.1841 168.636 91.2259 174.13 83.4484 178.438Z" fill="#EA7A00"/>
<path opacity="0.27" d="M83.4489 178.5L83.1712 178.625C77.8936 181.559 63.8664 184.244 57.2001 185.305L56.6445 192.797C67.8246 192.485 77.477 189.051 82.8934 186.117L83.1712 185.992C88.4487 183.058 91.9902 179.499 93.7263 175.878L94.3513 167.762C92.6847 171.632 89.0737 175.378 83.4489 178.5Z" fill="#FFC431"/>
<path opacity="0.69" d="M83.4487 178.5L83.1709 178.625C78.935 180.935 74.0741 182.683 68.9354 183.807L68.3799 191.298C73.6574 190.175 78.5878 188.427 82.8932 186.054L83.1709 185.929C87.1291 183.744 90.0456 181.247 92.0594 178.562L92.615 170.696C90.6706 173.505 87.6152 176.19 83.4487 178.5Z" fill="#FFC431"/>
<path d="M84.6986 148.72C69.9075 140.853 45.3252 141.415 29.6314 149.906L29.3536 150.031C13.6598 158.647 13.0349 172.007 27.8954 179.936C42.7559 187.802 67.5465 187.24 83.2403 178.625L83.5181 178.5C98.9341 169.884 99.4896 156.586 84.6986 148.72ZM78.31 175.753L78.1016 175.878C65.4633 182.808 45.3946 183.307 33.4507 176.939C21.4373 170.571 21.9928 159.77 34.6312 152.778L34.909 152.653C47.5473 145.848 67.4076 145.411 79.3516 151.717C91.1567 158.022 90.6706 168.761 78.31 175.753Z" fill="url(#paint10_linear)"/>
<path d="M78.9335 153.34C67.1284 147.097 47.4765 147.534 34.9076 154.276L34.6298 154.401C27.894 158.085 24.6997 162.892 24.908 167.512C25.6719 171.008 28.2412 175.004 33.3104 177.314C58.3788 188.676 78.2391 175.69 78.2391 175.69C83.3083 172.881 86.2943 169.385 87.4054 165.826C88.0304 161.269 85.2527 156.711 78.9335 153.34Z" fill="url(#paint11_linear)"/>
<path d="M74.1437 153.277L69.5605 155.587C66.5745 154.713 63.5191 154.401 60.3942 154.651C57.2694 154.901 54.4223 155.65 51.8529 157.023L51.7835 157.086L58.6582 159.895C60.047 159.146 61.4359 158.771 62.7553 158.647C64.0052 158.522 65.2552 158.709 66.3662 159.146C67.5467 159.583 68.0328 160.083 67.8939 160.582C67.755 161.081 67.1995 161.581 66.1579 162.08C65.1857 162.58 64.2135 162.83 63.1025 162.954C62.0608 163.017 60.3248 162.954 58.0332 162.705C53.7279 161.955 50.0475 161.643 46.9226 161.768C43.7977 161.893 40.8812 162.642 38.1729 164.016C35.673 165.264 34.4231 166.638 34.4925 168.011C34.562 169.385 35.7425 170.696 38.2424 171.945L33.937 174.13L37.2702 175.503L41.5756 173.318C44.631 174.317 47.8253 174.816 51.228 174.754C54.6306 174.692 57.8249 173.818 60.8803 172.257L60.9498 172.194L54.0751 169.385C52.4085 170.196 50.8807 170.633 49.4225 170.696C47.9642 170.758 46.5754 170.509 45.256 169.947C44.0755 169.51 43.5894 169.01 43.6588 168.448C43.7283 167.949 44.2144 167.449 45.1865 166.95C46.2976 166.388 47.4781 166.014 48.5892 165.951C49.7002 165.889 51.3668 165.951 53.5195 166.263C58.0332 167.012 61.7831 167.325 64.7691 167.262C67.755 167.2 70.6022 166.451 73.3104 165.077C75.7408 163.828 76.9213 162.517 76.8519 161.081C76.7824 159.646 75.4631 158.272 72.9632 157.086L77.4769 154.776L74.1437 153.277Z" fill="white"/>
<path d="M85.8798 143.913C73.9359 137.607 54.145 138.044 41.4372 144.849L41.1595 144.974C34.7708 148.47 31.5071 152.965 31.2988 157.336C31.2293 158.584 31.2293 159.833 31.1599 161.081C31.0904 162.33 31.0904 163.579 31.021 164.827C31.1599 160.457 34.4931 155.962 40.8817 152.466L41.1595 152.341C53.7978 145.536 73.6581 145.099 85.6021 151.404C91.574 154.589 94.4211 158.834 94.2822 163.142C94.3517 160.644 94.4906 158.147 94.56 155.65C94.6989 151.342 91.8518 147.034 85.8798 143.913Z" fill="#FDA014"/>
<path d="M85.8798 143.913C73.9359 137.607 54.145 138.044 41.4372 144.849L41.1595 144.974C34.7708 148.47 31.5071 152.965 31.2988 157.336C31.2293 158.584 31.2293 159.833 31.1599 161.081C31.0904 162.33 31.0904 163.579 31.021 164.827C31.1599 160.457 34.4931 155.962 40.8817 152.466L41.1595 152.341C53.7978 145.536 73.6581 145.099 85.6021 151.404C91.574 154.589 94.4211 158.834 94.2822 163.142C94.3517 160.644 94.4906 158.147 94.56 155.65C94.6989 151.342 91.8518 147.034 85.8798 143.913Z" fill="#EA7A00"/>
<path d="M90.1159 170.633L89.8381 170.758C74.1444 179.374 49.4232 179.998 34.4932 172.069C27.1324 168.136 23.5215 162.892 23.7298 157.523C23.6604 160.02 23.5215 162.517 23.452 165.015C23.2437 170.384 26.7852 175.69 34.2155 179.561C49.076 187.428 73.8666 186.866 89.5604 178.25L89.8381 178.125C97.5461 173.818 101.574 168.324 101.782 162.954C101.852 160.457 101.99 157.96 102.06 155.463C101.852 160.832 97.8239 166.326 90.1159 170.633Z" fill="#EA7A00"/>
<path opacity="0.27" d="M90.1164 170.634L89.8387 170.758C84.5611 173.693 70.5339 176.377 63.8675 177.439L63.312 184.93C74.4921 184.618 84.1445 181.185 89.5609 178.25L89.8387 178.125C95.1162 175.191 98.6577 171.632 100.394 168.011L101.019 159.895C99.3522 163.766 95.7412 167.512 90.1164 170.634Z" fill="#FFC431"/>
<path opacity="0.69" d="M90.1162 170.633L89.8384 170.758C85.6025 173.068 80.7416 174.816 75.6029 175.94L75.0474 183.432C80.3249 182.308 85.2553 180.56 89.5607 178.188L89.8384 178.063C93.7966 175.878 96.7131 173.38 98.7269 170.696L99.2825 162.829C97.3381 165.701 94.2827 168.323 90.1162 170.633Z" fill="#FFC431"/>
<path d="M91.2967 140.916C76.5057 133.049 51.9233 133.611 36.2295 142.102L35.9518 142.227C20.258 150.843 19.633 164.203 34.4935 172.132C49.354 179.998 74.1446 179.436 89.8384 170.821L90.1162 170.696C105.532 162.018 106.088 148.72 91.2967 140.916ZM84.9081 167.886L84.6997 168.011C72.0614 174.941 51.9928 175.441 40.0488 169.073C28.0354 162.705 28.591 151.904 41.2293 144.912L41.5071 144.787C54.1455 137.982 74.0058 137.545 85.9497 143.85C97.7548 150.218 97.3381 160.957 84.9081 167.886Z" fill="url(#paint12_linear)"/>
<path d="M85.601 145.536C73.7959 139.292 54.144 139.729 41.5751 146.472L41.2973 146.597C34.5615 150.281 31.3672 155.088 31.5755 159.708C32.3393 163.204 34.9087 167.2 39.9779 169.51C65.0463 180.872 84.9066 167.886 84.9066 167.886C89.9758 165.077 92.9618 161.581 94.0729 158.022C94.6978 153.465 91.9202 148.845 85.601 145.536Z" fill="url(#paint13_linear)"/>
<path d="M80.8112 145.411L76.228 147.721C73.242 146.847 70.1866 146.535 67.0617 146.785C63.9369 147.034 61.0898 147.783 58.5204 149.157L58.451 149.219L65.3257 152.029C66.7145 151.28 68.1034 150.905 69.4227 150.78C70.6727 150.655 71.9226 150.843 73.0337 151.28C74.2142 151.717 74.7003 152.216 74.5614 152.716C74.4225 153.215 73.867 153.714 72.8254 154.214C71.8532 154.713 70.881 154.963 69.7699 155.088C68.7283 155.15 66.9923 155.088 64.7007 154.838C60.3953 154.089 56.7149 153.777 53.5901 153.902C50.4652 154.027 47.5487 154.776 44.8404 156.149C42.3405 157.398 41.0906 158.771 41.16 160.145C41.2295 161.518 42.41 162.829 44.9099 164.078L40.6045 166.263L43.9377 167.637L48.2431 165.452C51.2985 166.451 54.4928 166.95 57.8954 166.888C61.2981 166.825 64.4924 165.951 67.5478 164.39L67.6173 164.328L60.7425 161.518C59.0759 162.33 57.5482 162.767 56.09 162.829C54.6317 162.892 53.2429 162.642 51.9235 162.08C50.743 161.643 50.2569 161.144 50.3263 160.582C50.3958 160.082 50.8818 159.583 51.854 159.084C52.9651 158.522 54.1456 158.147 55.2567 158.085C56.3677 158.022 58.0343 158.085 60.187 158.397C64.7007 159.146 68.4506 159.458 71.4366 159.396C74.4225 159.333 77.2696 158.584 79.9779 157.211C82.4083 155.962 83.5888 154.651 83.5194 153.215C83.4499 151.779 82.1305 150.406 79.6306 149.219L84.1443 146.909L80.8112 145.411Z" fill="white"/>
<path d="M81.6425 133.174C69.6986 126.869 49.9077 127.306 37.1999 134.111L36.9221 134.236C30.5335 137.732 27.2698 142.227 27.0615 146.597C26.992 147.846 26.992 149.094 26.9226 150.343C26.8531 151.592 26.8531 152.84 26.7837 154.089C26.9226 149.719 30.2558 145.224 36.6444 141.727L36.9221 141.603C49.5605 134.798 69.4208 134.36 81.3647 140.666C87.3367 143.85 90.1838 148.096 90.0449 152.403C90.1144 149.906 90.2532 147.409 90.3227 144.911C90.4616 140.604 87.6145 136.358 81.6425 133.174Z" fill="#FDA014"/>
<path d="M81.6425 133.174C69.6986 126.869 49.9077 127.306 37.1999 134.111L36.9221 134.236C30.5335 137.732 27.2698 142.227 27.0615 146.597C26.992 147.846 26.992 149.094 26.9226 150.343C26.8531 151.592 26.8531 152.84 26.7837 154.089C26.9226 149.719 30.2558 145.224 36.6444 141.727L36.9221 141.603C49.5605 134.798 69.4208 134.36 81.3647 140.666C87.3367 143.85 90.1838 148.096 90.0449 152.403C90.1144 149.906 90.2532 147.409 90.3227 144.911C90.4616 140.604 87.6145 136.358 81.6425 133.174Z" fill="#EA7A00"/>
<path d="M85.8786 159.895L85.6009 160.02C69.9071 168.636 45.1859 169.26 30.2559 161.331C22.8951 157.398 19.2842 152.154 19.4925 146.784C19.4231 149.282 19.2842 151.779 19.2147 154.276C19.0064 159.645 22.5479 164.952 29.9782 168.823C44.8387 176.689 69.6293 176.127 85.3231 167.512L85.6009 167.387C93.3089 163.079 97.3365 157.585 97.5448 152.216C97.6143 149.719 97.7531 147.222 97.8226 144.724C97.6142 150.093 93.6561 155.587 85.8786 159.895Z" fill="#EA7A00"/>
<path opacity="0.27" d="M85.949 159.958L85.6712 160.082C80.3937 163.017 66.3665 165.701 59.7001 166.763L59.1445 174.254C70.3246 173.942 79.977 170.509 85.3934 167.574L85.6712 167.449C90.9488 164.515 94.4903 160.956 96.2263 157.335L96.8513 149.219C95.1153 153.09 91.5043 156.836 85.949 159.958Z" fill="#FFC431"/>
<path opacity="0.69" d="M85.9487 159.958L85.6709 160.083C81.435 162.393 76.5741 164.141 71.4354 165.264L70.8799 172.756C76.1574 171.632 81.0878 169.884 85.3931 167.512L85.6709 167.387C89.6291 165.202 92.5456 162.705 94.5594 160.02L95.115 152.154C93.1012 154.963 90.0457 157.648 85.9487 159.958Z" fill="#FFC431"/>
<path d="M87.1283 130.177C72.3372 122.311 47.7549 122.873 32.0611 131.364L31.7833 131.489C16.0895 140.104 15.4645 153.465 30.325 161.393C45.1855 169.26 69.9762 168.698 85.67 160.082L85.9477 159.957C101.364 151.342 101.919 138.044 87.1283 130.177ZM80.7396 157.21L80.5313 157.335C67.8929 164.265 47.8243 164.765 35.8804 158.397C23.867 152.029 24.4225 141.228 37.0609 134.236L37.3386 134.111C49.977 127.306 69.8373 126.869 81.7812 133.174C93.5863 139.48 93.1002 150.218 80.7396 157.21Z" fill="url(#paint14_linear)"/>
<path d="M81.3637 134.798C69.5586 128.554 49.9067 128.991 37.3378 135.734L37.06 135.859C30.3242 139.542 27.1299 144.35 27.3382 148.97C28.102 152.466 30.6714 156.461 35.7406 158.771C60.809 170.134 80.6693 157.148 80.6693 157.148C85.7385 154.339 88.7245 150.843 89.8356 147.284C90.4605 142.726 87.6829 138.169 81.3637 134.798Z" fill="url(#paint15_linear)"/>
<path d="M80.6005 149.531C80.6699 148.158 79.42 146.784 76.9201 145.536C74.2119 144.162 71.2953 143.413 68.1705 143.288C65.0456 143.163 61.2958 143.476 57.0598 144.225C54.7683 144.474 53.1017 144.537 51.9906 144.474C50.949 144.412 49.9074 144.1 48.9352 143.6C47.963 143.101 47.338 142.602 47.1991 142.102C47.0603 141.603 47.5463 141.103 48.7269 140.666C49.8379 140.229 51.0184 140.042 52.3378 140.167C53.6572 140.292 54.9766 140.666 56.4349 141.415L63.3096 138.606L63.2401 138.543C60.6708 137.232 57.8237 136.421 54.6988 136.171C51.574 135.921 48.5185 136.233 45.5325 137.107L40.9494 134.797L37.6162 136.109L42.1299 138.419C39.63 139.667 38.3106 140.978 38.2412 142.414C38.1717 143.85 39.3522 145.224 41.7827 146.41C44.4909 147.783 47.338 148.533 50.324 148.595C53.31 148.72 57.0598 148.345 61.5735 147.596C63.7262 147.284 65.3234 147.222 66.5039 147.284C67.6149 147.346 68.726 147.721 69.9065 148.283C70.8787 148.782 71.4342 149.282 71.4342 149.781C71.5037 150.281 70.9481 150.78 69.8371 151.28C68.5177 151.841 67.1289 152.029 65.6706 152.029C64.2123 151.966 62.6152 151.529 61.018 150.718L54.1433 153.527L54.2127 153.59C57.2682 155.213 60.4625 156.024 63.8651 156.087C67.2677 156.149 70.5315 155.712 73.5175 154.651L77.8228 156.836L81.156 155.463L76.8507 153.277C79.3506 152.216 80.6005 150.905 80.6005 149.531Z" fill="white"/>
<path d="M87.6121 117.254C75.4598 110.824 55.1135 111.261 42.1973 118.253L41.9196 118.378C35.392 121.937 32.0589 126.556 31.8505 131.052C31.7811 132.3 31.7811 133.611 31.7116 134.86C31.6422 136.109 31.6422 137.42 31.5728 138.668C31.7811 134.173 35.1143 129.616 41.6418 125.995L41.9196 125.87C54.8357 118.877 75.1126 118.44 87.3344 124.871C93.4452 128.117 96.3618 132.425 96.1534 136.858C96.2229 134.298 96.3618 131.801 96.4312 129.241C96.5701 124.871 93.6535 120.501 87.6121 117.254Z" fill="#FDA014"/>
<path d="M87.6121 117.254C75.4598 110.824 55.1135 111.261 42.1973 118.253L41.9196 118.378C35.392 121.937 32.0589 126.556 31.8505 131.052C31.7811 132.3 31.7811 133.611 31.7116 134.86C31.6422 136.109 31.6422 137.42 31.5728 138.668C31.7811 134.173 35.1143 129.616 41.6418 125.995L41.9196 125.87C54.8357 118.877 75.1126 118.44 87.3344 124.871C93.4452 128.117 96.3618 132.425 96.1534 136.858C96.2229 134.298 96.3618 131.801 96.4312 129.241C96.5701 124.871 93.6535 120.501 87.6121 117.254Z" fill="#EA7A00"/>
<path d="M91.9167 144.599L91.6389 144.724C75.5979 153.527 50.3212 154.151 35.1135 146.098C27.5444 142.102 23.9334 136.733 24.1418 131.239C24.0723 133.799 23.9334 136.296 23.864 138.856C23.6557 144.35 27.2666 149.719 34.8357 153.714C50.0434 161.768 75.3202 161.144 91.3612 152.341L91.6389 152.216C99.5553 147.783 103.652 142.165 103.861 136.671C103.93 134.111 104.069 131.614 104.138 129.054C103.93 134.548 99.833 140.167 91.9167 144.599Z" fill="#EA7A00"/>
<path opacity="0.27" d="M91.9171 144.599L91.6393 144.724C86.2229 147.721 71.9179 150.468 65.1127 151.529L64.5571 159.208C75.9455 158.896 85.8757 155.4 91.3616 152.341L91.6393 152.216C97.0558 149.157 100.667 145.598 102.472 141.852L103.097 133.611C101.361 137.607 97.6808 141.415 91.9171 144.599Z" fill="#FFC431"/>
<path opacity="0.69" d="M91.9175 144.599L91.6397 144.724C87.3344 147.097 82.3346 148.845 77.057 150.031L76.5015 157.71C81.8485 156.524 86.9177 154.776 91.2925 152.341L91.5703 152.216C95.5979 149.969 98.5839 147.409 100.667 144.724L101.292 136.671C99.2783 139.542 96.1534 142.227 91.9175 144.599Z" fill="#FFC431"/>
<path d="M93.1655 114.195C78.0273 106.203 52.9589 106.765 36.9179 115.443L36.6401 115.568C20.5991 124.371 19.9741 138.044 35.1818 146.098C50.3895 154.151 75.6663 153.527 91.7073 144.724L91.985 144.599C107.679 135.796 108.304 122.249 93.1655 114.195ZM86.638 141.79L86.3603 141.915C73.4441 149.032 52.9589 149.531 40.6677 143.039C28.3766 136.546 28.9321 125.495 41.8482 118.378L42.126 118.253C55.0421 111.261 75.3191 110.823 87.5408 117.254C99.7625 123.747 99.2764 134.673 86.638 141.79Z" fill="url(#paint16_linear)"/>
<path d="M87.3331 118.94C75.2502 112.509 55.1816 113.009 42.335 119.876L42.0572 120.001C35.1825 123.809 31.9187 128.679 32.127 133.424C32.8909 136.983 35.5297 141.103 40.6684 143.413C66.2923 155.026 86.6387 141.79 86.6387 141.79C91.7773 138.918 94.9022 135.359 96.0133 131.738C96.6382 127.056 93.7911 122.374 87.3331 118.94Z" fill="url(#paint17_linear)"/>
<path d="M82.1959 132.3C82.1959 130.864 81.0848 129.616 78.9321 128.492H78.7933L72.5435 131.738C73.724 132.363 74.2796 132.987 74.349 133.549C74.349 134.111 73.8629 134.673 72.8907 135.172C71.8491 135.734 70.8769 135.984 69.9742 135.921C69.0714 135.859 68.1687 135.672 67.3354 135.235C66.5715 134.797 66.1549 134.36 66.1549 133.861C66.1549 133.362 66.5021 132.612 67.3354 131.551C69.3492 129.553 70.4603 127.868 70.6686 126.432C70.8769 124.996 69.8353 123.685 67.6132 122.561C65.5299 121.499 63.2383 121 60.5996 121.062C57.9608 121.125 55.322 121.749 52.6832 122.935L49.1417 121.062L46.1557 122.623L49.6972 124.496C47.3362 125.932 46.0168 127.431 45.6696 128.991C45.3224 130.552 46.5029 131.926 49.1417 133.237L49.2806 133.299L55.4609 130.053C54.1415 129.366 53.5165 128.679 53.586 127.992C53.7249 127.306 54.3498 126.681 55.5303 126.057C56.572 125.495 57.5441 125.245 58.5163 125.245C59.4885 125.245 60.3912 125.433 61.1551 125.87C62.1273 126.369 62.5439 126.869 62.5439 127.368C62.5439 127.868 62.1273 128.617 61.294 129.616C59.2802 131.738 58.1691 133.424 57.9608 134.798C57.7525 136.171 58.7246 137.42 60.9468 138.606C62.9606 139.667 65.3216 140.104 68.0993 140.042C70.8769 139.917 73.5851 139.293 76.2239 138.106L79.9738 140.042L82.9597 138.481L79.2099 136.483C81.1543 135.172 82.1959 133.736 82.1959 132.3Z" fill="white"/>
<path d="M89.9724 101.896C77.8201 95.4652 57.4738 95.9023 44.5577 102.895L44.2799 103.02C37.7524 106.578 34.4192 111.198 34.2109 115.693C34.1414 116.942 34.1414 118.253 34.072 119.502C34.0025 120.75 34.0025 122.061 33.9331 123.31C34.1414 118.815 37.4746 114.257 44.0021 110.636L44.2799 110.511C57.196 103.519 77.4729 103.082 89.6947 109.513C95.8055 112.759 98.7221 117.067 98.5137 121.5C98.5832 118.94 98.7221 116.443 98.7915 113.883C98.9304 109.45 96.0138 105.142 89.9724 101.896Z" fill="#FDA014"/>
<path d="M89.9724 101.896C77.8201 95.4652 57.4738 95.9023 44.5577 102.895L44.2799 103.02C37.7524 106.578 34.4192 111.198 34.2109 115.693C34.1414 116.942 34.1414 118.253 34.072 119.502C34.0025 120.75 34.0025 122.061 33.9331 123.31C34.1414 118.815 37.4746 114.257 44.0021 110.636L44.2799 110.511C57.196 103.519 77.4729 103.082 89.6947 109.513C95.8055 112.759 98.7221 117.067 98.5137 121.5C98.5832 118.94 98.7221 116.443 98.7915 113.883C98.9304 109.45 96.0138 105.142 89.9724 101.896Z" fill="#EA7A00"/>
<path d="M94.2771 129.179L93.9993 129.304C77.9583 138.106 52.6816 138.731 37.4739 130.677C29.9047 126.681 26.2938 121.312 26.5021 115.818C26.4327 118.378 26.2938 120.875 26.2243 123.435C26.016 128.929 29.627 134.298 37.1961 138.294C52.4038 146.347 77.6805 145.723 93.7215 136.92L93.9993 136.795C101.916 132.363 106.013 126.744 106.221 121.25C106.29 118.69 106.429 116.193 106.499 113.633C106.29 119.19 102.193 124.808 94.2771 129.179Z" fill="#EA7A00"/>
<path opacity="0.27" d="M94.2775 129.241L93.9997 129.366C88.5833 132.363 74.2783 135.11 67.473 136.171L66.9175 143.85C78.3059 143.538 88.236 140.042 93.7219 136.983L93.9997 136.858C99.4161 133.799 103.027 130.24 104.833 126.494L105.458 118.253C103.722 122.186 100.041 126.057 94.2775 129.241Z" fill="#FFC431"/>
<path opacity="0.69" d="M94.2778 129.241L94.0001 129.366C89.6947 131.738 84.6949 133.486 79.4174 134.673L78.8618 142.352C84.2088 141.166 89.278 139.417 93.6529 136.983L93.9306 136.858C97.9582 134.61 100.944 132.05 103.027 129.366L103.652 121.312C101.639 124.122 98.5138 126.869 94.2778 129.241Z" fill="#FFC431"/>
<path d="M95.5259 98.8367C80.3876 90.8454 55.3192 91.4073 39.2782 100.085L39.0005 100.21C22.9595 109.013 22.3345 122.686 37.5422 130.739C52.7499 138.793 78.0266 138.169 94.0676 129.366L94.3454 129.241C110.039 120.438 110.664 106.828 95.5259 98.8367ZM88.9984 126.432L88.7206 126.556C75.8045 133.674 55.3192 134.173 43.0281 127.68C30.7369 121.187 31.2924 110.137 44.2086 103.02L44.4863 102.895C57.4025 95.9024 77.6794 95.4654 89.9011 101.896C102.123 108.326 101.637 119.314 88.9984 126.432Z" fill="url(#paint18_linear)"/>
<path d="M89.6934 103.581C77.6106 97.151 57.542 97.6505 44.6953 104.518L44.4175 104.643C37.5428 108.451 34.2791 113.321 34.4874 118.066C35.2513 121.624 37.89 125.745 43.0287 128.055C68.6526 139.667 88.999 126.432 88.999 126.432C94.1377 123.56 97.2626 120.001 98.3736 116.38C98.9986 111.698 96.1515 106.953 89.6934 103.581Z" fill="url(#paint19_linear)"/>
<path d="M84.7636 103.457L80.111 105.829C77.0556 104.955 73.9307 104.643 70.7364 104.83C67.5421 105.08 64.6255 105.892 61.9868 107.265L61.9173 107.327L69.0004 110.199C70.4586 109.45 71.8475 109.013 73.1669 108.951C74.4863 108.826 75.7362 109.013 76.8473 109.45C78.0278 109.95 78.5139 110.449 78.375 110.948C78.2361 111.448 77.6806 112.01 76.6389 112.509C75.6668 113.009 74.6251 113.321 73.5141 113.383C72.403 113.446 70.667 113.383 68.3754 113.134C64.0006 112.384 60.1813 112.01 56.987 112.135C53.7927 112.26 50.8067 113.009 48.029 114.445C45.4597 115.756 44.2097 117.129 44.2792 118.503C44.3486 119.939 45.5986 121.25 48.0985 122.498L43.7236 124.746L47.1263 126.119L51.5011 123.872C54.626 124.933 57.8897 125.37 61.4312 125.308C64.9033 125.245 68.1671 124.371 71.2919 122.748L71.3614 122.686L64.3478 119.814C62.6812 120.688 61.084 121.125 59.5563 121.125C58.0286 121.187 56.6398 120.938 55.2509 120.376C54.0704 119.876 53.5149 119.377 53.5843 118.877C53.6538 118.378 54.2093 117.816 55.1815 117.317C56.362 116.755 57.4731 116.38 58.6536 116.318C59.8341 116.255 61.5007 116.318 63.6534 116.63C68.3059 117.379 72.1252 117.691 75.1807 117.629C78.2361 117.504 81.1526 116.755 83.8609 115.381C86.3608 114.132 87.5413 112.759 87.4718 111.261C87.4024 109.762 86.083 108.389 83.5137 107.14L88.0968 104.768L84.7636 103.457Z" fill="white"/>
<path d="M83.1682 92.9057C71.016 86.4752 50.6696 86.9122 37.7535 93.9046L37.4757 94.0295C30.9482 97.5881 27.615 102.208 27.4067 106.703C27.3372 107.952 27.3372 109.263 27.2678 110.511C27.1983 111.76 27.1983 113.071 27.1289 114.32C27.3372 109.825 30.6704 105.267 37.1979 101.646L37.4757 101.521C50.3918 94.5289 70.6688 94.0919 82.8905 100.522C89.0013 103.769 91.9178 108.077 91.7095 112.509C91.779 109.95 91.9179 107.452 91.9873 104.893C92.1956 100.522 89.2096 96.1521 83.1682 92.9057Z" fill="#FDA014"/>
<path d="M83.1682 92.9057C71.016 86.4752 50.6696 86.9122 37.7535 93.9046L37.4757 94.0295C30.9482 97.5881 27.615 102.208 27.4067 106.703C27.3372 107.952 27.3372 109.263 27.2678 110.511C27.1983 111.76 27.1983 113.071 27.1289 114.32C27.3372 109.825 30.6704 105.267 37.1979 101.646L37.4757 101.521C50.3918 94.5289 70.6688 94.0919 82.8905 100.522C89.0013 103.769 91.9178 108.077 91.7095 112.509C91.779 109.95 91.9179 107.452 91.9873 104.893C92.1956 100.522 89.2096 96.1521 83.1682 92.9057Z" fill="#EA7A00"/>
<path d="M87.4728 120.251L87.1951 120.376C71.1541 129.179 45.8774 129.803 30.6697 121.749C23.1005 117.754 19.4896 112.384 19.6979 106.89C19.6285 109.45 19.4896 111.947 19.4201 114.507C19.2118 120.001 22.8228 125.37 30.3919 129.366C45.5996 137.42 70.8763 136.795 86.9173 127.992L87.1951 127.868C95.1114 123.435 99.2084 117.816 99.4168 112.322C99.4862 109.762 99.6251 107.265 99.6945 104.705C99.4862 110.199 95.3892 115.818 87.4728 120.251Z" fill="#EA7A00"/>
<path opacity="0.27" d="M87.4732 120.251L87.1955 120.376C81.779 123.373 67.4741 126.12 60.6688 127.181L60.1133 134.86C71.5017 134.548 81.4318 131.052 86.9177 127.993L87.1955 127.868C92.6119 124.808 96.2228 121.25 98.0283 117.504L98.6533 109.263C96.9173 113.196 93.2369 117.067 87.4732 120.251Z" fill="#FFC431"/>
<path opacity="0.69" d="M87.4736 120.251L87.1959 120.376C82.8905 122.748 77.8907 124.496 72.6132 125.682L72.0576 133.362C77.4046 132.175 82.4739 130.427 86.8487 127.992L87.1264 127.868C91.154 125.62 94.14 123.06 96.2233 120.376L96.8483 112.322C94.8345 115.194 91.7096 117.878 87.4736 120.251Z" fill="#FFC431"/>
<path d="M88.7217 89.8465C73.5834 81.8552 48.515 82.4171 32.474 91.0951L32.1963 91.22C16.1553 100.023 15.5303 113.695 30.738 121.749C45.9457 129.803 71.2224 129.179 87.2634 120.376L87.5412 120.251C103.235 111.448 103.86 97.8378 88.7217 89.8465ZM82.1942 117.441L81.9164 117.566C69.0003 124.684 48.515 125.183 36.2239 118.69C23.9327 112.197 24.4882 101.147 37.4044 94.0294L37.6821 93.9045C50.5983 86.9122 70.8752 86.4751 83.0969 92.9056C95.3186 99.3986 94.8325 110.324 82.1942 117.441Z" fill="url(#paint20_linear)"/>
<path d="M82.8892 94.5913C70.8064 88.1608 50.7378 88.6602 37.8911 95.5278L37.6133 95.6526C30.7386 99.461 27.4749 104.331 27.6832 109.076C28.4471 112.634 31.0858 116.755 36.2245 119.065C61.8484 130.677 82.1948 117.441 82.1948 117.441C87.3335 114.57 90.4583 111.011 91.5694 107.39C92.1944 102.707 89.3473 97.9626 82.8892 94.5913Z" fill="url(#paint21_linear)"/>
<path d="M77.9594 94.4664L73.3068 96.8388C70.2514 95.9648 67.1265 95.6526 63.9322 95.8399C60.7379 96.0896 57.8213 96.9012 55.1826 98.2748L55.1131 98.3372L62.1962 101.209C63.6544 100.46 65.0433 100.023 66.3627 99.9604C67.6821 99.8356 68.932 100.023 70.0431 100.46C71.2236 100.959 71.7097 101.459 71.5708 101.958C71.4319 102.458 70.8764 103.02 69.8347 103.519C68.8626 104.019 67.8209 104.331 66.7099 104.393C65.5988 104.456 63.8628 104.393 61.5712 104.143C57.1964 103.394 53.3771 103.02 50.1828 103.144C46.9885 103.269 44.0025 104.019 41.2248 105.455C38.6555 106.766 37.4055 108.139 37.475 109.513C37.5444 110.949 38.7944 112.26 41.2943 113.508L36.9194 115.756L40.3221 117.129L44.6969 114.882C47.8218 115.943 51.0855 116.38 54.627 116.318C58.0991 116.255 61.3629 115.381 64.4877 113.758L64.5572 113.696L57.5436 110.824C55.877 111.698 54.2798 112.135 52.7521 112.135C51.2244 112.197 49.8356 111.947 48.4467 111.386C47.2662 110.886 46.7107 110.387 46.7801 109.887C46.8496 109.388 47.4051 108.826 48.3773 108.326C49.5578 107.765 50.6689 107.39 51.8494 107.327C53.0299 107.265 54.6965 107.327 56.8492 107.64C61.5018 108.389 65.321 108.701 68.3765 108.639C71.4319 108.514 74.3484 107.765 77.0567 106.391C79.5566 105.142 80.7371 103.769 80.6676 102.27C80.5982 100.772 79.2788 99.3985 76.7095 98.1499L81.2926 95.7775L77.9594 94.4664Z" fill="white"/>
<path d="M87.5442 84.2275C75.392 77.797 55.0456 78.234 42.1294 85.2264L41.8517 85.3513C35.3242 88.9099 31.991 93.5299 31.7826 98.025C31.7132 99.2736 31.7132 100.585 31.6438 101.833C31.5743 103.082 31.5743 104.393 31.5049 105.642C31.7132 101.147 35.0464 96.5891 41.5739 92.968L41.8517 92.8431C54.7678 85.8507 75.0447 85.4137 87.2665 91.8442C93.3773 95.0907 96.2939 99.3985 96.0855 103.831C96.155 101.271 96.2939 98.7742 96.3633 96.2145C96.5716 91.7818 93.5856 87.474 87.5442 84.2275Z" fill="#FDA014"/>
<path d="M87.5442 84.2275C75.392 77.797 55.0456 78.234 42.1294 85.2264L41.8517 85.3513C35.3242 88.9099 31.991 93.5299 31.7826 98.025C31.7132 99.2736 31.7132 100.585 31.6438 101.833C31.5743 103.082 31.5743 104.393 31.5049 105.642C31.7132 101.147 35.0464 96.5891 41.5739 92.968L41.8517 92.8431C54.7678 85.8507 75.0447 85.4137 87.2665 91.8442C93.3773 95.0907 96.2939 99.3985 96.0855 103.831C96.155 101.271 96.2939 98.7742 96.3633 96.2145C96.5716 91.7818 93.5856 87.474 87.5442 84.2275Z" fill="#EA7A00"/>
<path d="M91.8488 111.51L91.5711 111.635C75.5301 120.438 50.2533 121.062 35.0456 113.009C27.4765 109.013 23.8656 103.644 24.0739 98.15C24.0044 100.71 23.8656 103.207 23.7961 105.767C23.5878 111.261 27.1988 116.63 34.7679 120.625C49.9756 128.679 75.2523 128.055 91.2933 119.252L91.5711 119.127C99.4874 114.757 103.584 109.138 103.793 103.644C103.862 101.084 104.001 98.587 104.071 96.0273C103.862 101.521 99.7652 107.14 91.8488 111.51Z" fill="#EA7A00"/>
<path opacity="0.27" d="M91.8492 111.573L91.5715 111.698C86.155 114.694 71.8501 117.441 65.0448 118.503L64.4893 126.182C75.8777 125.87 85.8078 122.374 91.2937 119.314L91.5715 119.19C96.9879 116.13 100.599 112.572 102.404 108.826L103.029 100.585C101.293 104.518 97.6129 108.389 91.8492 111.573Z" fill="#FFC431"/>
<path opacity="0.69" d="M91.8496 111.573L91.5718 111.698C87.2665 114.07 82.2667 115.818 76.9891 117.004L76.4336 124.684C81.7806 123.497 86.8498 121.749 91.2246 119.314L91.5024 119.19C95.53 116.942 98.516 114.382 100.599 111.698L101.224 103.644C99.2104 106.453 96.155 109.2 91.8496 111.573Z" fill="#FFC431"/>
<path d="M93.0976 81.1684C77.9594 73.1771 52.891 73.739 36.85 82.4171L36.5722 82.5419C20.5312 91.3448 19.9063 105.017 35.114 113.071C50.3217 121.125 75.5984 120.501 91.6394 111.698L91.9171 111.573C107.68 102.77 108.236 89.1597 93.0976 81.1684ZM86.5701 108.763L86.2924 108.888C73.4457 116.005 52.9604 116.505 40.6693 110.012C28.3781 103.519 28.9337 92.4062 41.8498 85.3514L42.1275 85.2265C55.0437 78.2341 75.3206 77.7971 87.5423 84.2276C99.6946 90.6581 99.2779 101.646 86.5701 108.763Z" fill="url(#paint22_linear)"/>
<path d="M87.2652 85.9132C75.1824 79.4827 55.1138 79.9821 42.2671 86.8497L41.9893 86.9745C35.1146 90.7829 31.8509 95.6526 32.0592 100.397C32.823 103.956 35.4618 108.077 40.6005 110.387C66.2244 121.999 86.5708 108.763 86.5708 108.763C91.7095 105.891 94.8343 102.333 95.9454 98.7118C96.5704 93.9669 93.7233 89.2845 87.2652 85.9132Z" fill="url(#paint23_linear)"/>
<path d="M86.641 101.209C86.7104 99.7732 85.4605 98.3997 82.8911 97.151C80.1135 95.7775 77.1969 94.9659 73.9332 94.8411C70.7388 94.7162 66.9196 95.0284 62.5447 95.84C60.1837 96.0897 58.4477 96.1521 57.4061 96.0897C56.295 96.0273 55.2534 95.7151 54.2812 95.2156C53.2396 94.7162 52.684 94.1543 52.5452 93.6549C52.4063 93.1554 52.8924 92.6559 54.0729 92.1565C55.1839 91.7195 56.4339 91.5322 57.7533 91.657C59.0727 91.7819 60.4615 92.1565 61.9198 92.9057L69.0028 90.0338L68.9334 89.9714C66.2946 88.5979 63.378 87.7863 60.1837 87.5365C56.9894 87.2868 53.8645 87.599 50.8091 88.5354L46.1565 86.163L42.7539 87.5365L47.337 89.9089C44.7677 91.1576 43.4483 92.5311 43.3789 94.0294C43.3094 95.5278 44.5594 96.9013 46.9898 98.15C49.7675 99.5859 52.684 100.335 55.67 100.397C58.7255 100.522 62.5447 100.148 67.1973 99.3986C69.4195 99.0864 71.0861 99.024 72.1971 99.0864C73.3082 99.1489 74.4887 99.5235 75.6692 100.085C76.6414 100.585 77.1969 101.147 77.2664 101.646C77.3358 102.146 76.7803 102.645 75.5998 103.145C74.2804 103.706 72.8221 103.956 71.2944 103.894C69.7667 103.831 68.239 103.394 66.5029 102.583L59.6282 105.392L59.6976 105.454C62.8225 107.078 66.0863 107.952 69.5583 108.014C73.0304 108.077 76.3636 107.577 79.4885 106.578L83.8633 108.826L87.2659 107.452L82.8911 105.205C85.391 103.956 86.641 102.645 86.641 101.209Z" fill="white"/>
<defs>
<linearGradient id="paint0_linear" x1="117.112" y1="152.248" x2="117.112" y2="109" gradientUnits="userSpaceOnUse">
<stop stop-color="#FFFF00"/>
<stop offset="1" stop-color="#FBB03B"/>
</linearGradient>
<linearGradient id="paint1_linear" x1="117.047" y1="148.67" x2="117.047" y2="114.865" gradientUnits="userSpaceOnUse">
<stop stop-color="#FD9114"/>
<stop offset="0.9974" stop-color="#FBBF3B"/>
</linearGradient>
<linearGradient id="paint2_linear" x1="133.392" y1="136.918" x2="109.762" y2="91.3952" gradientUnits="userSpaceOnUse">
<stop stop-color="#FFFF00"/>
<stop offset="1" stop-color="#FBB03B"/>
</linearGradient>
<linearGradient id="paint3_linear" x1="119.408" y1="133.291" x2="119.408" y2="99.4856" gradientUnits="userSpaceOnUse">
<stop stop-color="#FD9114"/>
<stop offset="0.9974" stop-color="#FBBF3B"/>
</linearGradient>
<linearGradient id="paint4_linear" x1="75.0992" y1="108.805" x2="155.068" y2="108.805" gradientUnits="userSpaceOnUse">
<stop stop-color="#FFFF00"/>
<stop offset="1" stop-color="#FBB03B"/>
</linearGradient>
<linearGradient id="paint5_linear" x1="115.018" y1="126.851" x2="115.018" y2="93.0457" gradientUnits="userSpaceOnUse">
<stop stop-color="#FD9114"/>
<stop offset="0.9974" stop-color="#FBBF3B"/>
</linearGradient>
<linearGradient id="paint6_linear" x1="119.468" y1="121.74" x2="119.468" y2="78.4922" gradientUnits="userSpaceOnUse">
<stop stop-color="#FFFF00"/>
<stop offset="1" stop-color="#FBB03B"/>
</linearGradient>
<linearGradient id="paint7_linear" x1="119.402" y1="118.163" x2="119.402" y2="84.357" gradientUnits="userSpaceOnUse">
<stop stop-color="#FD9114"/>
<stop offset="0.9974" stop-color="#FBBF3B"/>
</linearGradient>
<linearGradient id="paint8_linear" x1="17.3066" y1="175.652" x2="95.5561" y2="175.652" gradientUnits="userSpaceOnUse">
<stop stop-color="#FFFF00"/>
<stop offset="1" stop-color="#FBB03B"/>
</linearGradient>
<linearGradient id="paint9_linear" x1="56.3652" y1="193.31" x2="56.3652" y2="160.231" gradientUnits="userSpaceOnUse">
<stop stop-color="#FD9114"/>
<stop offset="0.9974" stop-color="#FBBF3B"/>
</linearGradient>
<linearGradient id="paint10_linear" x1="17.165" y1="164.343" x2="95.4145" y2="164.343" gradientUnits="userSpaceOnUse">
<stop stop-color="#FFFF00"/>
<stop offset="1" stop-color="#FBB03B"/>
</linearGradient>
<linearGradient id="paint11_linear" x1="56.2236" y1="182.001" x2="56.2236" y2="148.922" gradientUnits="userSpaceOnUse">
<stop stop-color="#FD9114"/>
<stop offset="0.9974" stop-color="#FBBF3B"/>
</linearGradient>
<linearGradient id="paint12_linear" x1="62.9424" y1="177.675" x2="62.9424" y2="135.357" gradientUnits="userSpaceOnUse">
<stop stop-color="#FFFF00"/>
<stop offset="1" stop-color="#FBB03B"/>
</linearGradient>
<linearGradient id="paint13_linear" x1="62.876" y1="174.174" x2="62.876" y2="141.095" gradientUnits="userSpaceOnUse">
<stop stop-color="#FD9114"/>
<stop offset="0.9974" stop-color="#FBBF3B"/>
</linearGradient>
<linearGradient id="paint14_linear" x1="58.7335" y1="166.959" x2="58.7335" y2="124.641" gradientUnits="userSpaceOnUse">
<stop stop-color="#FFFF00"/>
<stop offset="1" stop-color="#FBB03B"/>
</linearGradient>
<linearGradient id="paint15_linear" x1="58.6678" y1="163.459" x2="58.6678" y2="130.38" gradientUnits="userSpaceOnUse">
<stop stop-color="#FD9114"/>
<stop offset="0.9974" stop-color="#FBBF3B"/>
</linearGradient>
<linearGradient id="paint16_linear" x1="64.1558" y1="151.788" x2="64.1558" y2="108.539" gradientUnits="userSpaceOnUse">
<stop stop-color="#FFFF00"/>
<stop offset="1" stop-color="#FBB03B"/>
</linearGradient>
<linearGradient id="paint17_linear" x1="64.0902" y1="148.21" x2="64.0902" y2="114.404" gradientUnits="userSpaceOnUse">
<stop stop-color="#FD9114"/>
<stop offset="0.9974" stop-color="#FBBF3B"/>
</linearGradient>
<linearGradient id="paint18_linear" x1="66.514" y1="136.409" x2="66.514" y2="93.1604" gradientUnits="userSpaceOnUse">
<stop stop-color="#FFFF00"/>
<stop offset="1" stop-color="#FBB03B"/>
</linearGradient>
<linearGradient id="paint19_linear" x1="66.4484" y1="132.831" x2="66.4484" y2="99.0253" gradientUnits="userSpaceOnUse">
<stop stop-color="#FD9114"/>
<stop offset="0.9974" stop-color="#FBBF3B"/>
</linearGradient>
<linearGradient id="paint20_linear" x1="59.7175" y1="127.424" x2="59.7175" y2="84.1761" gradientUnits="userSpaceOnUse">
<stop stop-color="#FFFF00"/>
<stop offset="1" stop-color="#FBB03B"/>
</linearGradient>
<linearGradient id="paint21_linear" x1="59.6518" y1="123.847" x2="59.6518" y2="90.041" gradientUnits="userSpaceOnUse">
<stop stop-color="#FD9114"/>
<stop offset="0.9974" stop-color="#FBBF3B"/>
</linearGradient>
<linearGradient id="paint22_linear" x1="86.6986" y1="117.428" x2="46.2945" y2="72.4877" gradientUnits="userSpaceOnUse">
<stop stop-color="#FFFF00"/>
<stop offset="1" stop-color="#FBB03B"/>
</linearGradient>
<linearGradient id="paint23_linear" x1="64.0357" y1="115.158" x2="64.0357" y2="81.3524" gradientUnits="userSpaceOnUse">
<stop stop-color="#FBBA37"/>
<stop offset="1" stop-color="#FD9114"/>
</linearGradient>
</defs>
</svg>
