<svg width="238" height="196" viewBox="0 0 238 196" fill="none" xmlns="http://www.w3.org/2000/svg">
<path d="M231.457 97.8672V178.381C231.457 187.133 224.164 194.426 215.413 194.426H22.295C13.5434 194.426 6.25049 187.133 6.25049 178.381V97.8672" stroke="#E5231E" stroke-width="2" stroke-miterlimit="10"/>
<path d="M86.7659 108.661H59.9277V135.499H86.7659V108.661Z" stroke="#FFB800" stroke-width="2" stroke-miterlimit="10"/>
<path d="M178.073 108.661H151.235V135.499H178.073V108.661Z" stroke="#FFB800" stroke-width="2" stroke-miterlimit="10"/>
<path d="M151.235 28.1462V12.1017C151.235 6.26735 146.568 1.30811 140.442 1.30811H92.3083C86.4739 1.30811 81.5146 5.97563 81.5146 12.1017V28.1462" stroke="#E5231E" stroke-width="2" stroke-miterlimit="10"/>
<path d="M151.234 113.912H86.7646" stroke="#E5231E" stroke-width="2" stroke-miterlimit="10"/>
<path d="M59.927 113.911H49.1335C31.3387 113.911 1 104.284 1 87.073V38.9395C1 33.1052 5.66735 28.146 11.7934 28.146H226.206C232.041 28.146 237 32.8134 237 38.9395V87.073C237 104.284 206.661 113.911 188.866 113.911H178.073" stroke="#E5231E" stroke-width="2" stroke-miterlimit="10"/>
</svg>
