<svg width="299" height="316" viewBox="0 0 299 316" fill="none" xmlns="http://www.w3.org/2000/svg">
<g opacity="0.59">
<path opacity="0.59" d="M298.868 190.144L84 92.6342V0L298.868 97.2388V190.144Z" fill="#86E2DE"/>
<g opacity="0.52">
<path opacity="0.52" d="M151.998 103.198L93.9746 77.1952V15.981L151.998 41.9835V103.198Z" fill="white"/>
<path opacity="0.52" d="M219.391 134.076L161.367 108.073V46.8589L219.391 72.8614V134.076Z" fill="white"/>
<path opacity="0.52" d="M288.898 166.037L230.875 140.034V78.8202L288.898 104.823V166.037Z" fill="white"/>
<path opacity="0.52" d="M130.241 66.3607C130.241 66.3607 134.472 62.5687 134.472 58.5058C134.472 55.5264 134.774 48.2132 134.774 48.2132L129.637 39.004L116.642 33.8576C114.224 33.0451 111.202 39.5457 111.202 39.5457C111.202 39.5457 111.504 44.692 111.504 47.9423C111.504 52.0052 116.037 59.8601 116.037 59.8601L105.46 59.5893C105.46 59.5893 100.927 63.923 100.927 67.715V79.9037L145.351 99.9473V87.7586C145.351 83.6957 140.818 75.5699 140.818 75.5699L130.241 66.3607Z" fill="#002B6A"/>
<path opacity="0.52" d="M263.815 130.013C263.815 130.013 267.743 126.492 267.743 122.7C267.743 119.991 268.952 116.741 268.046 114.574C267.441 112.949 264.721 108.615 263.21 107.531C260.793 105.906 252.633 102.656 252.633 102.656C250.518 101.843 246.287 105.635 246.287 105.635C246.287 105.635 246.589 110.24 246.589 113.49C246.589 117.282 250.82 124.325 250.82 124.325H241.149C241.149 124.325 236.918 128.117 236.918 131.909V143.014L277.716 161.433V150.327C277.716 146.806 273.485 139.222 273.485 139.222L263.815 130.013Z" fill="#002B6A"/>
<path opacity="0.52" d="M198.84 95.8844C198.84 95.8844 201.862 92.0923 201.862 89.3837C201.862 86.4043 202.165 78.8202 202.165 78.8202C202.165 78.8202 199.445 74.4864 197.934 73.403C195.214 70.9652 190.379 70.4235 186.45 70.1527C182.521 69.0692 179.801 75.299 179.801 75.299C179.197 81.7997 181.615 85.05 181.312 86.946C180.708 91.0089 178.29 93.7175 178.29 93.7175H172.851C172.851 93.7175 170.433 95.6135 170.433 99.6764V111.865L209.418 129.471V117.282C209.418 113.219 207.907 109.698 207.907 109.698L198.236 101.302L198.84 95.8844Z" fill="#002B6A"/>
</g>
<path opacity="0.59" d="M149.278 110.782L93.9746 86.1335V82.3414L149.278 106.99V110.782Z" fill="white"/>
<path opacity="0.59" d="M130.239 108.344L93.9746 91.8216V88.0295L130.239 104.552V108.344Z" fill="white"/>
<path opacity="0.59" d="M192.189 130.013L161.364 116.199V112.136L192.189 126.221V130.013Z" fill="white"/>
<path opacity="0.59" d="M201.86 140.035L161.364 121.887V118.095L201.86 136.242V140.035Z" fill="white"/>
<path opacity="0.59" d="M282.245 170.642L230.87 147.619V143.556L282.245 166.85V170.642Z" fill="white"/>
<path opacity="0.59" d="M257.464 165.224L230.87 153.307V149.515L257.464 161.432V165.224Z" fill="white"/>
</g>
<path d="M80.7086 22.9357L76.4731 21.0067C75.1825 20.4131 73.3957 20.5021 71.4434 21.3925L75.6789 23.3215C77.6312 22.4312 79.4181 22.3422 80.7086 22.9357Z" fill="#63F2FF"/>
<path d="M26.9358 75.7343L22.7002 73.8052C22.7002 75.5562 23.4944 76.8027 24.7849 77.3666L29.0204 79.2958C27.7299 78.7319 26.9689 77.4854 26.9358 75.7343Z" fill="#B3FFFB"/>
<path d="M26.8703 51.9913L22.6348 50.0621L22.7009 73.8052L26.9365 75.7344L26.8703 51.9913Z" fill="#63F2FF"/>
<path d="M75.6786 23.3216L71.443 21.3925L29.6831 40.4165L33.9187 42.3456L75.6786 23.3216Z" fill="#DCFFFC"/>
<path d="M33.9185 42.3457L29.683 40.4166C25.7783 42.1974 22.6348 46.5304 22.6348 50.0622L26.8703 51.9913C26.8372 48.4596 30.0139 44.1265 33.9185 42.3457Z" fill="#8F2A1F"/>
<path d="M33.9193 42.3457C30.0147 44.1265 26.8711 48.4596 26.8711 51.9914L26.9704 75.7344C26.9704 79.2662 30.1801 80.6908 34.0517 78.9397L63.5682 65.5843C63.6674 65.6436 74.3887 70.0064 74.5872 69.9174C75.0505 69.7096 75.2159 69.2348 74.9512 68.6709L74.0247 60.806L75.8116 59.8859C79.7162 58.1052 82.8598 53.7721 82.8598 50.2403L82.7605 26.4973C82.7605 22.9655 79.5508 21.5409 75.6792 23.292L33.9193 42.3457Z" fill="#B3FFFB"/>
<path d="M57.2459 46.9757C53.7053 46.1744 49.7344 51.5759 52.3817 53.5941C55.9885 54.4844 60.0255 48.9642 57.2459 46.9757Z" fill="white"/>
<path d="M47.0882 51.6352C43.5476 50.8339 39.5767 56.2355 42.224 58.2537C45.7977 59.1144 49.8347 53.5941 47.0882 51.6352Z" fill="white"/>
<path d="M67.4722 42.3457C63.9647 41.5147 59.9277 46.9163 62.608 48.9642C66.1486 49.8545 70.2187 44.3342 67.4722 42.3457Z" fill="white"/>
<path d="M12.9712 77.6042L15.7177 68.8193L11.4821 66.8901L8.73563 75.6751C8.60327 76.0906 8.63636 76.328 8.76872 76.3874L13.0043 78.3165C12.8388 78.2572 12.8388 78.0197 12.9712 77.6042Z" fill="#DCFFFC"/>
<path d="M40.1382 30.7116C43.017 29.4057 45.3664 30.4445 45.3664 33.0562L45.4326 50.5371C45.4326 53.1489 43.1163 56.3245 40.2374 57.6303L28.7551 62.8538C28.6559 62.9726 28.5566 63.1209 28.3911 63.2693L13.7983 77.812C13.5667 78.0494 13.3682 78.1978 13.2358 78.2571C12.9049 78.4055 12.7725 78.1681 12.9711 77.5746L15.7176 68.7896L9.49659 71.6685C6.61774 72.9743 4.26833 71.9059 4.26833 69.3238L4.20215 51.843C4.20215 49.2312 6.51847 46.0556 9.39732 44.7497L40.1382 30.7116ZM35.0423 50.2997C36.8622 49.4687 38.3513 47.4505 38.3513 45.7885C38.3513 44.1265 36.8622 43.4438 35.0092 44.2748C33.1892 45.1058 31.7002 47.124 31.7002 48.8157C31.7002 50.4777 33.1892 51.1307 35.0423 50.2997ZM24.8505 54.9296C26.6704 54.0986 28.1595 52.0804 28.1595 50.4184C28.1595 48.7564 26.6704 48.0738 24.8174 48.9048C22.9974 49.7358 21.5084 51.7539 21.5084 53.4456C21.5084 55.1076 22.9974 55.7903 24.8505 54.9296ZM14.6587 59.5892C16.4786 58.7582 17.9677 56.74 17.9677 55.078C17.9677 53.4159 16.4786 52.7333 14.6256 53.5643C12.8056 54.3953 11.3166 56.4135 11.3166 58.1052C11.3166 59.7376 12.8387 60.4202 14.6587 59.5892Z" fill="white"/>
<path d="M43.8445 30.4446L39.609 28.5154C38.6493 28.0702 37.3588 28.1296 35.9028 28.7825L40.1384 30.7117C41.5944 30.0587 42.918 29.9994 43.8445 30.4446Z" fill="#DCFFFC"/>
<path d="M4.26828 69.2941L0.0327148 67.365C0.0327148 68.6708 0.628343 69.5612 1.55487 70.0063L5.79044 71.9354C4.86391 71.5199 4.26828 70.5999 4.26828 69.2941Z" fill="#63F2FF"/>
<path d="M4.20247 51.8133L0 49.8842L0.0330873 67.3649L4.26865 69.2941L4.20247 51.8133Z" fill="#DCFFFC"/>
<path d="M40.1376 30.7116L35.9021 28.7825L5.19434 42.791L9.42989 44.7201L40.1376 30.7116Z" fill="#B3FFFB"/>
<path d="M9.43073 44.72L5.19517 42.7909C2.31632 44.0968 0 47.3021 0 49.8841L4.23555 51.8132C4.20246 49.2312 6.55187 46.0259 9.43073 44.72Z" fill="#63F2FF"/>
<path d="M17.0409 53.2677C13.5002 52.4664 9.52937 57.8679 12.1766 59.8861C15.7503 60.7467 19.8204 55.2265 17.0409 53.2677Z" fill="#B3FFFB"/>
<path d="M27.2328 48.608C23.6921 47.8067 19.7213 53.2082 22.3685 55.2264C25.9423 56.1167 30.0124 50.5965 27.2328 48.608Z" fill="#B3FFFB"/>
<path d="M37.4249 43.978C33.9173 43.147 29.8803 48.5486 32.5606 50.5965C36.1344 51.4869 40.1714 45.9665 37.4249 43.978Z" fill="#B3FFFB"/>
<path d="M81.498 140.235L81.6635 142.491L83.0533 157.775L87.5867 159.823L86.9579 152.017L86.1969 143.025V142.936L86.0976 141.808V141.778L85.6675 141.63L85.6343 141.6L81.8621 140.354L81.498 140.235Z" fill="#0C5C7F"/>
<path d="M86.9575 152.017L106.084 141.036L105.29 131.035H105.256L86.1303 141.778L86.0972 141.808L86.9575 152.017Z" fill="#2782A3"/>
<path d="M86.9575 152.017L87.5862 159.823L106.679 148.04L106.084 141.036L87.0237 151.988L86.9575 152.017Z" fill="#0E6E8C"/>
<path d="M92.0207 148.159L90.0684 149.287L90.2669 151.75L92.2192 150.533L92.0207 148.159Z" fill="#CFEEF0"/>
<path d="M86.1314 141.778L105.225 131.005L100.724 129.521C100.261 129.788 81.565 139.968 81.4326 140.027V140.176L86.1314 141.778Z" fill="#2F9EB5"/>
<path d="M101.683 145.132L103.635 143.915L103.47 141.541L101.484 142.669L101.683 145.132Z" fill="#CFEEF0"/>
<path d="M88.9102 132.756L89.3073 137.148L90.0352 137.326L90.5647 137C90.5316 136.822 90.2999 133.884 90.2669 133.409C90.2999 133.409 90.7301 133.142 90.9287 132.993C90.9287 132.964 90.9618 132.964 90.9618 132.964C91.2596 132.637 90.9949 131.984 90.9949 131.984C90.9618 131.925 90.4985 131.806 90.4985 131.806C90.2669 131.954 88.9102 132.756 88.9102 132.756Z" fill="#147999"/>
<path d="M95.8263 133.943L96.3226 134.002L96.8852 133.706L96.7528 132.133L96.3888 130.085L95.3299 129.996H94.999V130.352V131.717C95.0652 131.658 95.363 131.598 95.363 131.598L95.5947 131.687L95.8263 133.943Z" fill="#147999"/>
<path d="M104.828 156.469L102.909 171.991L102.942 173.564C102.942 173.564 104.729 175.018 104.596 175.315C104.497 175.612 101.386 180.361 101.386 180.361L98.6068 184.13C98.6068 184.13 95 184.664 95 184.189C95 183.685 95.9265 180.657 95.9265 180.657L98.3752 176.413L99.0039 174.247C99.0039 174.247 98.7061 170.448 98.7061 170.478C98.7061 170.507 96.3898 156.024 96.3898 156.024L94.4706 151.721L92.8491 140.561L100.791 138.098L104.828 156.469Z" fill="#F89C69"/>
<path d="M104.232 174.751C104.232 174.751 103.802 176.206 103.272 176.799C102.743 177.393 100.857 180.153 100.857 180.153C100.857 180.153 99.1359 182.913 98.1101 183.091C97.4814 183.21 95.4628 183.447 95.4628 182.26C95.4628 181.815 95.893 180.657 95.893 180.657C95.2974 181.043 94.8672 181.577 94.8672 181.577L92.7163 184.427L91.7236 185.584C91.7236 185.584 92.0215 186.445 92.2862 186.563C92.5509 186.712 94.1723 186.563 94.1723 186.563L97.5806 185.703L99.5991 184.397C99.5991 184.397 100.989 181.815 101.022 181.666C101.055 181.518 102.511 179.975 102.511 179.975L102.544 182.587C102.544 182.587 103.371 182.527 103.371 182.379C103.371 182.23 105.092 174.692 105.092 174.692L104.232 174.751Z" fill="#00255B"/>
<path d="M111.281 144.627L109.461 153.383L111.546 160.209C112.009 162.257 108.27 174.573 108.27 174.573L108.534 176.295L109.097 178.847L107.178 187.038C107.178 187.038 102.909 187.009 102.81 187.098C102.711 187.187 101.784 185.436 101.784 185.436L102.644 183.566C102.677 183.477 103.736 177.482 103.736 177.482L104.431 174.128C104.431 174.128 103.041 157.36 103.041 157.063C103.041 156.766 101.222 153.264 101.222 153.264L100.891 133.646L111.48 132.192L111.281 144.627Z" fill="#FBB686"/>
<path d="M101.915 185.228L100.757 187.098L100.327 190.184C100.327 190.184 100.459 191.015 101.716 190.956C102.974 190.897 106.614 188.968 106.614 188.968L107.706 188.107L108.5 185.287L108.963 185.169V182.498C109.062 182.141 109.923 180.361 109.956 180.212C110.022 180.064 110.254 177.868 110.254 177.868L109.228 176.473L108.566 176.295L108.732 177.066L108.864 178.491L107.507 184.1C107.507 184.1 105.687 185.792 105.026 186C104.364 186.207 102.676 186.118 102.676 186.118L102.114 185.525L101.915 185.228Z" fill="#00255B"/>
<path d="M95.4628 87.1395C95.3966 87.1989 93.1134 88.5047 93.1134 88.5047C92.6171 88.9499 91.856 92.3036 91.856 92.3036C91.7898 92.5114 91.128 109.042 91.128 109.191C91.128 109.339 90.0029 114.83 90.0029 114.83L90.2676 130.114L96.6541 130.292C96.6541 130.292 95.7275 117.649 95.6283 117.501C95.529 117.353 95.4959 109.992 95.4959 109.992L97.9446 94.1734L95.4628 87.1395Z" fill="#FBB686"/>
<path d="M90.995 122.428L90.2339 130.085L92.8811 152.047L103.47 156.41C103.47 156.41 108.07 155.965 108.5 155.846C108.93 155.727 112.636 154.125 112.636 154.125L114.555 130.619L113.331 122.101L90.995 122.428Z" fill="#00255B"/>
<path fill-rule="evenodd" clip-rule="evenodd" d="M107.209 64.8507C111.842 64.821 112.537 66.2159 113.133 68.7387C115.151 77.0192 104.165 71.3504 103.834 70.6678C103.47 69.9852 102.577 64.8804 107.209 64.8507Z" fill="#002B6A"/>
<path d="M89.8036 103.047L89.7705 100.406L93.2781 93.758L93.6421 89.3358L95.4621 87.1396L101.518 86.3086L103.007 86.8428L103.933 86.9022C103.933 86.9022 106.812 86.6944 107.143 86.8725C107.474 87.0506 114.919 93.3425 114.919 93.3425L117.202 97.1117L108.103 111.476C108.103 111.476 107.904 113.257 108.235 113.435C108.566 113.613 112.404 121.537 112.404 121.537L114.026 126.612L111.643 127.918L103.007 128.809L97.6129 127.325L95.9584 124.772L95.9253 125.069L93.4436 126.761L90.4654 124.654L90.3992 121.033L93.1788 110.111L92.1199 106.104L89.8036 103.047Z" fill="#002B6A"/>
<path fill-rule="evenodd" clip-rule="evenodd" d="M112.802 133.142L113.133 136.852L111.511 140.472L109.46 141.541L108.235 140.977L108.07 139.671L107.474 138.187L107.706 136.258L109.426 133.765L112.802 133.142Z" fill="#FBB686"/>
<path d="M111.975 94.6779C110.916 95.2715 109.625 98.6252 109.625 98.6252L111.247 115.512L109.36 133.913C109.36 133.913 111.644 135.635 112.272 135.16C112.901 134.655 117.434 117.768 117.434 117.768L117.236 97.1413L115.747 94.6483C115.714 94.6186 112.769 94.2327 111.975 94.6779Z" fill="#FBB686"/>
<path fill-rule="evenodd" clip-rule="evenodd" d="M106.482 80.2244C106.382 81.4412 105.522 84.5872 106.614 87.4067L99.6319 92.1849L99.6981 89.2171C100.095 86.6053 100.128 85.062 99.3672 82.7768L106.482 80.2244Z" fill="#F9A873"/>
<path fill-rule="evenodd" clip-rule="evenodd" d="M103.932 67.0174C100.822 66.9283 98.5718 68.0561 97.8107 69.4807C95.3621 74.0216 96.3879 74.8526 101.318 81.0257C103.767 80.5212 103.072 85.151 108.267 75.7132L103.932 67.0174Z" fill="#002B6A"/>
<path fill-rule="evenodd" clip-rule="evenodd" d="M98.7376 69.3323C95.594 73.1609 96.2559 79.0966 96.2559 79.0966L97.8442 84.9137L99.8627 85.4182L104.959 83.964L105.687 82.4503C105.687 82.4503 108.698 81.9755 108.83 81.4709L111.544 71.6175L98.7376 69.3323Z" fill="#FBB686"/>
<path fill-rule="evenodd" clip-rule="evenodd" d="M102.873 67.1064C110.65 66.3051 113.892 71.3802 113.131 76.6333C112.9 78.1469 111.278 79.6012 110.253 80.8477C108.631 81.56 107.771 82.0941 106.116 82.7471C106.05 82.7471 105.984 82.7471 105.918 82.7471C105.918 82.6877 105.951 82.6284 105.951 82.569C105.951 82.5393 105.951 82.5393 105.984 82.5097C106.017 82.4503 106.017 82.3612 106.05 82.3019C106.249 82.1535 106.513 82.0348 106.844 81.9754C107.341 81.8567 108.697 79.8386 108.697 79.8386L108.73 78.7108C108.73 78.7108 108.399 78.414 108.035 78.2953L107.01 78.4734C107.01 78.4734 106.447 79.0669 106.249 79.8386L105.752 79.4824C105.554 78.4733 105.653 76.9894 105.653 76.9894L106.215 73.9325C106.414 71.7363 103.568 70.4898 100.259 71.4692C99.9946 70.8756 98.704 70.104 97.6782 70.6085C98.6378 68.353 101.153 67.1658 102.873 67.1064Z" fill="#002B6A"/>
<path fill-rule="evenodd" clip-rule="evenodd" d="M100.723 70.4304C100.723 70.4304 102.709 69.7478 104.065 70.6678C105.422 71.5879 105.19 73.1015 104.893 74.3183C104.595 75.5352 104.529 77.8798 104.727 78.7405C104.926 79.6012 105.323 81.4413 105.323 81.4413C105.323 81.4413 103.47 78.414 103.966 74.8822C104.628 70.282 100.094 71.4098 100.094 71.4098C100.094 71.4098 99.6973 71.4395 99.6311 71.3505C99.565 71.0833 100.723 70.4304 100.723 70.4304Z" fill="#002B6A"/>
<path opacity="0.3" d="M40.6316 210.396C45.7606 213.156 58.5003 211.078 69.0892 205.736C79.6781 200.394 84.1453 193.835 79.0163 191.075C73.8873 188.315 61.1475 190.392 50.5587 195.734C39.9698 201.077 35.5026 207.636 40.6316 210.396Z" fill="#1D99B3"/>
<path d="M96.3229 116.67L91.1939 117.59L90.6314 116.165L90.5652 116.136L88.7121 116.878L86.9252 117.026C86.9252 117.026 85.8663 118.362 85.5685 119.044V119.074C85.5024 120.528 85.734 124.119 85.734 124.119L94.172 123.14L94.2051 123.17L94.5029 122.814L97.084 117.471L96.3229 116.67Z" fill="#FBB686"/>
<path d="M86.2967 124.921L83.8149 125.277V119.044L85.5357 118.837C85.5357 120.291 86.2967 124.921 86.2967 124.921Z" fill="#B9E5FB"/>
<path d="M85.4033 126.227L69.3214 128.393C69.3214 128.393 67.4021 125.959 66.7072 124.505C66.8065 121.181 65.0527 99.1595 65.0527 99.1595L66.9389 102.038C66.9389 102.038 67.9978 104.146 68.3618 105.125C69.1228 106.935 69.7185 108.954 70.3803 110.883C70.8435 112.307 72.6635 118.243 73.2922 119.549C75.8402 119.519 83.0207 118.51 83.8149 118.421C83.848 118.569 85.1385 125.959 85.4033 126.227Z" fill="#0A5B89"/>
<path d="M77.6933 197.159L74.1857 193.627L72.2996 190.778H72.2665C72.2665 190.778 64.9866 189.175 62.5379 190.6C62.4718 191.401 62.2401 193.657 62.207 194.132C62.4056 194.31 68.1302 197.723 68.5273 198.019C68.8582 198.287 73.193 201.047 73.193 201.047L77.594 198.91L77.6933 197.159Z" fill="#002B6A"/>
<path d="M51.4199 164.393C51.4861 164.423 51.5523 164.453 51.6185 164.482L51.4199 164.572V164.393Z" fill="#020009"/>
<path d="M46.5878 166.53V166.59L46.5547 166.56L46.5878 166.53Z" fill="#060115"/>
<path d="M60.4871 204.549L56.8472 201.759C56.8472 201.759 55.4905 199.592 55.292 199.236C55.292 199.236 55.292 199.207 55.2589 199.177C54.8618 198.554 45.9605 197.574 44.2729 199.177C44.2729 199.207 44.0082 200.958 43.9751 201.462C44.4053 201.818 45.1332 202.382 46.0598 203.035C46.2583 202.649 46.887 202.768 47.251 203.006C47.8135 203.362 47.9128 203.896 48.0452 204.4C50.8248 206.27 55.6229 208.734 55.6229 208.734C56.5494 208.734 60.3879 206.419 60.3879 206.419L60.4871 204.549Z" fill="#002B6A"/>
<path d="M68.9912 153.353C68.8919 152.314 68.7926 151.305 68.6934 150.296C68.5941 149.168 68.4617 148.07 68.3624 147.031C68.2963 146.349 67.9984 143.292 67.8992 142.431C67.7999 141.392 67.7007 140.413 67.6345 139.493C67.6345 139.404 41.8571 147.922 41.6255 147.833C41.5593 148.575 41.5263 149.317 41.4932 150.029C41.5593 151.038 42.0557 155.727 42.0557 155.727C42.0557 155.727 43.8756 189.324 44.1073 192.737L43.644 198.91L47.9126 200.928L55.4572 199.147L57.0787 162.553C57.0787 162.553 61.8106 188.493 62.34 190.392C62.4393 190.481 65.9468 191.817 65.9468 191.817L72.3333 190.837H72.3664C72.234 185.733 70.4802 168.252 68.9912 153.353Z" fill="#0A5B89"/>
<path d="M41.062 153.828C41.1943 154.362 41.2936 154.926 41.4259 155.43C41.1281 155.282 40.7641 155.163 40.3671 155.074L40.334 155.045C40.5325 154.689 40.5987 154.303 40.6318 153.887C40.731 153.858 40.8965 153.828 41.062 153.828Z" fill="#F89C69"/>
<path d="M41.5923 157.33C41.2614 157.122 40.9967 157.004 40.6658 156.826C40.6327 156.796 40.8312 156.944 40.8312 156.915C40.3349 156.499 40.1694 156.084 40.4341 155.46L40.401 155.371C40.4672 155.312 40.5003 155.223 40.5665 155.134C40.7981 154.362 40.8974 152.967 40.8312 153.501C38.6473 153.798 36.331 153.561 34.2132 153.472C34.0477 154.095 34.0808 154.748 34.147 155.342C34.147 155.401 34.147 155.431 34.147 155.49C34.2463 156.054 34.3786 156.558 34.4779 157.004C36.1655 157.716 38.2171 158.369 39.9378 158.755C40.3018 158.398 41.2283 157.627 41.6916 157.271C41.6916 157.33 41.6254 157.36 41.5923 157.33Z" fill="#F9A873"/>
<path d="M51.4205 164.542L51.4536 166.916L51.586 182.765L46.9203 185.287L46.7879 177.185L46.6225 167.836V167.747L46.5894 166.59V166.53L47.0857 166.352L51.0234 164.72H51.0565L51.4205 164.542Z" fill="#6ABFCE"/>
<path d="M46.7874 177.185L24.9809 167.539L24.8154 157.152H24.8485L46.5557 166.56L46.5888 166.59L46.7874 177.185Z" fill="#33B3C4"/>
<path d="M46.7879 177.185L46.9203 185.287L25.1138 174.811L24.9814 167.539L46.6886 177.155L46.7879 177.185Z" fill="#168CA8"/>
<path d="M40.9302 173.653L43.1472 174.633L43.1803 177.185L40.9633 176.117L40.9302 173.653Z" fill="#DCFFFF"/>
<path d="M46.5554 166.56L24.8481 157.152L29.5139 155.253C30.0433 155.49 51.2542 164.364 51.3865 164.394V164.542L46.5554 166.56Z" fill="#7CD0D8"/>
<path d="M30.1768 171.398L27.9267 170.3L27.8936 167.836L30.1106 168.816L30.1768 171.398Z" fill="#DCFFFF"/>
<path d="M43.6771 156.173C43.6771 156.173 43.7102 161.96 43.7102 162.494C44.0742 162.286 43.1145 162.85 42.6513 162.85C42.4858 162.821 41.824 162.465 41.824 162.465C41.824 162.197 41.7578 157.983 41.7247 157.33C41.6585 157.33 40.9968 157.004 40.6659 156.826C40.6328 156.796 40.5996 156.766 40.5996 156.766C40.1033 156.351 40.4011 155.401 40.4011 155.401C40.4673 155.342 40.5004 155.253 40.5666 155.164C40.9636 155.253 43.6771 156.173 43.6771 156.173Z" fill="#168CA8"/>
<path d="M33.5847 158.725L32.8567 158.873L31.9633 158.547L31.9302 156.291L32.1618 153.323L33.7171 153.056L34.412 153.116C34.412 153.116 34.3127 153.412 34.2796 153.561C34.1141 154.184 34.1472 154.837 34.2134 155.431C34.0811 155.371 33.9156 155.401 33.9156 155.401L33.5516 155.579L33.5847 158.725Z" fill="#168CA8"/>
<path d="M41.0955 153.828L35.768 154.065L34.0142 153.412L34.1465 151.928L41.0955 151.899C41.294 152.195 41.0955 153.828 41.0955 153.828Z" fill="#6ABFCE"/>
<path d="M66.84 132.222C66.84 132.222 66.6084 127.384 66.7076 124.476C66.8069 121.151 68.296 106.698 68.296 106.698L65.0531 99.1299L57.5747 97.5865L43.9747 103.641L34.1138 112.189C34.1138 112.189 33.1872 139.434 33.3196 143.5C33.3858 145.31 33.6174 150.801 33.6174 151.75L35.0734 152.878C35.0734 152.878 41.2943 152.611 41.3936 152.522C41.3936 152.403 41.3936 152.314 41.3605 152.195C41.3605 151.513 41.4929 148.545 41.526 147.803C41.7576 147.892 48.2433 148.693 48.2433 148.693L68.0974 140.472L66.84 132.222Z" fill="#0A5B89"/>
<path d="M60.3867 118.48C60.5191 116.551 61.7103 114.622 61.4456 112.693C61.4456 112.515 61.4125 112.337 61.3794 112.159C61.0154 109.903 60.486 107.737 59.5925 105.6C59.3609 105.036 58.9638 104.324 58.4675 103.671C58.3682 103.522 58.2689 103.433 58.1366 103.285C57.4086 102.484 56.5482 101.831 55.6548 101.712C56.2835 101.504 57.0777 101.118 57.6402 100.703C58.2358 100.94 60.8169 102.899 60.8169 102.899L60.3205 104.769L62.9346 105.541L63.6957 108.835C63.6957 108.835 61.1147 122.606 60.7507 123.555C61.0485 122.724 60.0889 121.3 60.3205 120.439C60.4198 119.816 60.3536 119.074 60.3867 118.48Z" fill="#1E7B9B"/>
<path d="M47.4159 106.134C47.9785 106.787 48.7065 107.321 49.3021 107.737C49.6992 107.974 50.0632 108.212 50.4603 108.449C52.0817 109.428 53.5707 110.259 54.9274 111.625C56.7474 113.376 58.3026 115.572 59.2953 117.798C59.3284 117.887 59.3615 117.976 59.4277 118.065C59.7917 119.044 59.924 120.142 59.9902 121.27C60.0233 121.982 60.3873 123.407 60.3873 123.407L59.6593 121.508C58.5343 118.866 54.762 115.661 54.762 115.661L49.1036 113.346L49.1366 110.912L46.9196 111.268L45.6291 108.864C45.6291 108.864 43.6106 105.095 43.9746 103.641C44.0738 103.552 45.5298 101.207 46.324 100.406C46.3571 100.762 46.4232 101.089 46.4894 101.445C46.5887 102.127 46.7211 102.81 46.8203 103.493C46.7541 103.404 46.688 103.315 46.6549 103.255H46.6218C46.1585 104.264 46.6549 105.273 47.4159 106.134Z" fill="#1E7B9B"/>
<path d="M61.4122 112.693C61.4122 112.515 61.3792 112.337 61.3461 112.159C60.9821 109.903 59.5592 105.6 59.5592 105.6C59.5592 105.6 58.9305 104.324 58.4341 103.671C57.5738 103.344 48.2092 106.579 47.415 106.134C47.9776 106.787 49.3012 107.737 49.3012 107.737L50.4594 108.449L54.9266 111.625C54.9266 111.625 58.3017 115.572 59.2944 117.798C59.3275 117.887 60.7504 119.311 60.7835 119.4C60.6511 117.679 61.2799 115.483 61.4122 112.693Z" fill="#94E5ED"/>
<path d="M61.0806 111.565L58.4665 106.846L58.3341 106.668L57.8709 104.68C57.8709 104.68 57.2421 104.294 56.9443 104.175C56.5141 103.967 55.3891 103.908 55.3891 103.908C55.1906 104.442 54.992 105.036 54.8265 105.659C54.8265 105.718 54.7935 105.778 54.7935 105.867C55.4553 106.46 56.3487 107.024 57.1759 107.38C57.8377 109.102 58.9628 112.901 58.9628 112.901L59.2275 117.887L60.5842 124.683C60.5842 124.386 61.5108 113.85 61.5108 113.85L61.0806 111.565Z" fill="#FF5252"/>
<path d="M46.82 103.493C48.7723 105.956 55.3242 104.888 55.3572 102.988L54.9271 100.94C55.1918 101.385 57.3758 102.513 58.1037 103.315C58.203 103.433 58.3023 103.552 58.4346 103.7C58.5008 104.086 58.3023 104.888 58.3023 104.888L57.9383 104.709L57.0118 104.205L55.4565 103.938C55.258 104.472 54.5962 107.262 54.5962 107.262H54.5631L50.0959 107.113C50.0959 107.113 48.1767 106.609 47.4156 106.164C46.6545 105.303 46.1582 104.264 46.6215 103.285H46.6545C46.6876 103.315 46.7538 103.404 46.82 103.493Z" fill="#DCFFFF"/>
<path d="M55.2594 101.386C55.3256 101.386 55.4248 103.79 55.4248 103.908C55.4248 104.71 48.9391 106.668 46.689 103.641C46.5897 102.958 46.1926 99.5454 46.1265 99.219C46.325 99.219 46.5566 99.1596 46.7883 99.0112C47.3839 99.3674 54.7299 101.445 55.2594 101.386Z" fill="#F89C69"/>
<path d="M56.9793 88.2081C56.3506 88.9798 54.1997 89.4546 53.1739 89.8701C51.718 90.434 47.8795 92.1554 47.8795 92.1554C47.9457 92.8974 47.8133 93.5503 47.7471 94.411C47.6809 95.3904 47.1184 96.162 47.7802 98.2098C47.2508 97.9724 46.7213 97.7053 46.2581 97.4382C45.9933 96.6368 45.7617 95.8355 45.5963 95.3904C45.0668 95.0342 43.677 95.4497 44.2396 96.4588C44.6697 97.2601 45.1992 99.1595 46.1588 99.2189C46.3574 99.2189 46.589 99.1595 46.8206 99.0111C47.0853 99.5454 48.5744 100.376 48.5744 100.376C48.5744 100.376 54.4644 101.979 54.9939 101.92C55.0601 101.92 57.6411 100.733 57.6411 100.733L57.9389 92.927C57.9058 92.927 57.0786 88.5346 56.9793 88.2081Z" fill="#FBB686"/>
<path d="M47.8797 92.1554C47.9459 92.8974 47.8135 93.5503 47.7474 94.4109C47.6812 95.3903 47.1187 96.162 47.8136 98.2098C47.2841 97.9724 46.7547 97.7052 46.2914 97.4381C46.0267 96.6368 45.7951 95.8355 45.6296 95.3904C45.1002 95.0342 43.7104 95.4497 44.2729 96.4588C44.7031 97.2601 45.2325 99.1595 46.1921 99.2188C46.2583 99.5453 46.3576 100.228 46.3576 100.228L45.2987 99.9015L44.4715 98.6846C42.6846 96.5478 40.1366 92.1851 40.1366 92.1851L39.6403 87.9114C39.5741 87.9114 44.9016 91.5915 47.8797 92.1554Z" fill="#11487F"/>
<path d="M49.0038 92.274C49.0038 92.274 47.978 92.2147 47.8457 92.185C44.8676 91.6211 42.0218 89.5732 39.54 87.9409C40.0364 86.8725 41.8894 85.0027 41.8894 85.0027C42.7829 84.2311 48.2097 82.6284 49.798 82.7471C50.4929 82.8361 52.9085 83.2516 53.3717 83.2813C53.107 83.2813 57.475 83.4891 57.5742 83.4891C57.5742 83.4891 58.5338 85.8931 57.872 87.1396C57.6735 87.4957 56.7139 88.9203 56.7139 88.9203C56.7139 88.9203 50.7576 92.2147 49.0038 92.274Z" fill="#002B6A"/>
<path opacity="0.54" d="M107.743 236.583C119.482 233.461 127.81 227.337 126.345 222.906C124.88 218.475 114.176 217.413 102.437 220.536C90.6982 223.658 82.3699 229.781 83.8351 234.212C85.3002 238.644 96.0041 239.705 107.743 236.583Z" fill="#1D99B3"/>
<path fill-rule="evenodd" clip-rule="evenodd" d="M124.517 125.514C128.885 128.601 128.289 147.565 128.752 152.166L126.8 172.555C124.881 173.356 120.612 173.594 119.156 172.496L120.248 152.106L117.138 140.413C116.41 132.845 121.903 124.594 124.517 125.514Z" fill="#002B6A"/>
<path fill-rule="evenodd" clip-rule="evenodd" d="M127.726 227.402L127.229 229.271L122.828 230.755L108.434 224.998L107.541 222.297C107.541 222.297 110.122 221.258 111.114 221.169C112.901 221.021 115.052 221.199 118.03 220.961L127.031 221.228L127.726 227.402Z" fill="#002B6A"/>
<path fill-rule="evenodd" clip-rule="evenodd" d="M113.498 232.595L113.002 234.465L109.362 235.415L94.339 230.162C93.4786 229.627 93.0815 228.322 93.0815 228.322L93.7433 227.253L97.648 225.532L103.207 225.888L103.836 226.185L112.836 226.452L113.498 232.595Z" fill="#002B6A"/>
<path fill-rule="evenodd" clip-rule="evenodd" d="M116.875 112.723C116.147 119.015 116.015 117.709 117.802 124.001L108.768 127.948C109.397 119.044 108.305 118.184 105.393 109.755L116.875 112.723Z" fill="#FBB686"/>
<path fill-rule="evenodd" clip-rule="evenodd" d="M102.514 105.511C101.819 107.054 101.422 108.3 101.587 110.23C101.753 111.803 102.216 114.058 102.58 115.601C102.878 116.878 104.83 121.982 104.83 121.982L110.985 120.587C110.985 120.587 110.886 115.453 111.316 114.83L107.643 105.54L102.514 105.511Z" fill="#FBB686"/>
<path fill-rule="evenodd" clip-rule="evenodd" d="M115.154 101.682L118.099 105.807L118.992 113.524L116.742 119.103L111.414 119.608L109.76 117.709L107.973 116.106L107.907 112.396L105.921 112.366L105.127 115.601C105.127 115.601 103.142 110.2 101.223 108.419C100.329 107.588 100.462 104.887 100.462 104.887L104.135 102.662L111.315 101.712L115.154 101.682Z" fill="#593327"/>
<path fill-rule="evenodd" clip-rule="evenodd" d="M123.194 161.811C123.591 164.957 125.278 167.272 125.212 170.448C125.014 180.064 126.073 189.027 125.675 198.643L127.76 221.822L117.634 222.267L114.127 174.692L114.623 163.444L123.194 161.811Z" fill="#002B6A"/>
<path fill-rule="evenodd" clip-rule="evenodd" d="M114.293 162.702C114.723 165.848 115.55 172.169 115.55 172.169L113.896 200.958L113.697 226.303L107.079 227.817L102.248 226.749L101.156 175.998L102.546 165.729L114.293 162.702Z" fill="#002B6A"/>
<path fill-rule="evenodd" clip-rule="evenodd" d="M117.039 120.528C115.418 121.834 111.215 122.428 108.833 121.597L107.84 123.941C110.123 126.672 117.999 126.078 117.767 122.695L117.039 120.528Z" fill="#33B3C4"/>
<path fill-rule="evenodd" clip-rule="evenodd" d="M117.535 122.784C123.623 123.555 124.947 124.98 126.105 128.987C126.899 131.747 127.032 137.682 127.032 137.682L124.914 149.198C124.914 149.198 125.509 168.726 126.171 175.196L110.553 179.322L99.5998 178.609C100.626 166.827 95.7282 137.801 97.5481 133.676C98.2099 132.192 99.302 129.61 102.214 127.74C104.762 126.108 107.839 123.971 107.839 123.971L117.535 122.784Z" fill="#003D75"/>
<path fill-rule="evenodd" clip-rule="evenodd" d="M87.3231 148.842L86.2973 146.319L84.9737 146.408L78.8189 147.387L78.5542 149.495L79.0506 151.81L80.5396 153.145L82.4257 152.581L87.3231 148.842Z" fill="#FBB686"/>
<path fill-rule="evenodd" clip-rule="evenodd" d="M103.735 128.245L100.36 129.194L97.5476 133.646L95.86 150.415L86.3631 145.636L81.4326 150.949L97.5145 160.031L102.445 159.378L104.993 142.045L105.787 133.053L103.735 128.245Z" fill="#04487C"/>
<path opacity="0.3" d="M234.444 312.568C240 316.5 254.623 315.714 267.198 310.995C279.774 306.277 285.33 299.2 279.774 295.268C274.217 291.336 259.595 292.123 247.019 296.841C234.444 301.559 228.887 308.636 234.444 312.568Z" fill="#1D99B3"/>
<path d="M289.716 249.922V252.543L288.546 271.154L282.989 273.251L283.574 263.814L284.159 253.067V251.494H284.744L289.423 249.922H289.716Z" fill="#6ABFCE"/>
<path d="M284.159 251.494L260.178 237.864L259.593 249.922L283.574 263.814L284.159 251.494Z" fill="#33B3C4"/>
<path d="M259.595 249.922L259.01 258.31L282.991 273.25L283.576 263.814H283.283L259.595 249.922Z" fill="#33B3C4"/>
<path d="M284.161 251.495L260.18 237.602L265.737 236.03C266.322 236.292 289.718 249.398 290.01 249.66V249.922L284.161 251.495Z" fill="#7CD0D8"/>
<path d="M281.527 239.175C281.527 239.175 280.942 245.99 280.942 246.514C281.235 246.252 280.357 246.776 279.773 246.776C279.48 246.776 278.895 246.252 278.895 246.252C278.895 245.99 279.188 241.01 279.188 240.223C279.188 240.223 278.31 239.699 278.018 239.437C277.433 238.913 278.018 237.864 278.018 237.864C278.018 237.864 278.018 237.602 278.31 237.602C278.603 237.602 281.527 239.175 281.527 239.175Z" fill="#168CA8"/>
<path fill-rule="evenodd" clip-rule="evenodd" d="M279.481 181.508C284.453 185.178 283.575 207.983 283.868 213.225L281.236 236.816C278.896 237.602 274.217 237.864 272.462 236.554L274.217 212.963L270.707 199.333C270.122 190.945 276.556 180.46 279.481 181.508Z" fill="#002756"/>
<path fill-rule="evenodd" clip-rule="evenodd" d="M275.385 303.132L274.8 305.229L269.536 307.326L265.442 306.015L265.149 304.967L262.225 305.229L253.159 299.986L252.281 296.841C252.281 296.841 255.206 295.793 256.376 295.53C258.423 295.268 261.055 295.53 264.272 295.268L274.8 295.793L275.385 303.132Z" fill="#002756"/>
<path fill-rule="evenodd" clip-rule="evenodd" d="M264.861 305.753L264.276 307.85L259.596 309.947C259.596 309.947 255.795 308.637 254.332 308.112L254.625 306.802L252.87 307.064L242.634 302.346C241.757 301.821 241.172 300.249 241.172 300.249L242.049 298.938L246.436 297.103L252.285 298.414L253.455 297.89L263.983 298.414L264.861 305.753Z" fill="#002756"/>
<path fill-rule="evenodd" clip-rule="evenodd" d="M270.999 167.616C270.122 174.956 269.829 173.383 271.877 180.722L261.348 185.178C262.226 174.956 261.056 173.907 257.839 164.209L270.999 167.616Z" fill="#FBB686"/>
<path fill-rule="evenodd" clip-rule="evenodd" d="M254.623 159.228C253.745 161.063 253.161 162.374 253.453 164.733C253.453 166.568 254.038 169.189 254.623 171.024C254.915 172.596 256.962 178.363 256.962 178.363L264.274 175.218C264.274 175.218 264.274 170.762 264.566 170.237L260.472 159.491L254.623 159.228Z" fill="#FBB686"/>
<path fill-rule="evenodd" clip-rule="evenodd" d="M269.246 155.035L272.463 159.753L273.34 168.665L270.708 174.956L264.567 175.48L262.812 173.383L260.765 171.548V167.354H258.425L257.548 171.024C257.548 171.024 255.208 164.733 253.161 162.636C252.284 161.588 251.406 158.966 251.406 158.966L256.67 155.821L264.859 154.772H269.246V155.035Z" fill="#002B6A"/>
<path fill-rule="evenodd" clip-rule="evenodd" d="M278.896 223.186C279.188 226.855 280.065 230.525 280.065 234.195C279.773 245.204 278.018 256.213 277.433 267.484L275.679 296.579L263.98 296.841L264.565 239.437L265.443 226.593L278.896 223.186Z" fill="#002756"/>
<path fill-rule="evenodd" clip-rule="evenodd" d="M267.199 225.283C267.492 228.952 268.369 236.292 268.369 236.292L266.029 269.581L265.444 298.676L257.841 300.249L252.284 298.938L251.699 240.486L253.454 228.69L267.199 225.283Z" fill="#002B6A"/>
<path fill-rule="evenodd" clip-rule="evenodd" d="M271 176.528C269.245 178.101 264.273 178.625 261.641 177.577L260.764 179.936C263.396 183.081 272.169 182.819 271.877 178.887L271 176.528Z" fill="#F7FCFC"/>
<path fill-rule="evenodd" clip-rule="evenodd" d="M271.585 179.15C278.604 180.198 280.066 181.771 281.236 186.489C283.283 193.566 280.066 204.313 279.481 214.536C279.189 221.875 279.774 232.36 280.358 239.699L273.34 242.583L271.292 235.767L268.953 243.107H249.651C251.113 229.477 245.849 195.925 248.189 191.207C249.066 189.372 250.236 186.489 253.745 184.392C256.67 182.557 260.179 180.198 260.179 180.198L271.585 179.15Z" fill="#11487F"/>
<path fill-rule="evenodd" clip-rule="evenodd" d="M227.133 197.498L224.501 194.876L224.208 192.517L222.454 189.896L221.284 187.013H219.822V188.324C219.822 188.324 218.067 187.537 216.897 186.751L212.803 187.799L212.51 190.158L213.095 192.78L214.85 194.352L217.482 196.711C217.482 196.711 220.991 198.022 221.869 198.546L224.208 200.643L227.133 197.498H226.84H227.133Z" fill="#FBB686"/>
<path fill-rule="evenodd" clip-rule="evenodd" d="M214.265 184.13C215.728 185.178 216.605 185.965 217.775 186.751C219.237 187.799 219.237 187.799 219.529 189.634C219.822 191.207 219.822 193.566 219.822 193.566C219.529 194.876 218.36 196.711 217.775 196.973C216.02 196.187 216.605 195.401 216.897 193.042C216.897 192.255 214.558 191.731 213.68 190.683C212.511 189.11 212.218 188.061 210.756 186.489L214.265 184.13Z" fill="#FBB686"/>
<path fill-rule="evenodd" clip-rule="evenodd" d="M255.501 185.44C255.501 185.44 251.699 186.489 250.529 187.537C246.727 190.42 237.954 204.313 237.954 204.313L226.256 194.09L219.529 199.595L239.124 216.632L242.926 215.846L256.671 201.167L255.501 185.44Z" fill="#11487F"/>
<path opacity="0.3" d="M161.625 275.085C167.182 279.017 181.805 278.23 194.38 273.512C206.955 268.794 212.512 261.717 206.955 257.785C201.399 253.854 186.776 254.64 174.201 259.358C161.625 264.338 156.069 271.415 161.625 275.085Z" fill="#1D99B3"/>
<path d="M214.557 184.13L213.972 182.819H211.925C211.925 182.819 210.755 184.13 210.17 184.916C209.878 186.489 209.293 189.372 209.293 189.372L215.727 193.042L219.821 190.683L220.114 190.421L220.991 189.634L214.557 184.13Z" fill="#FBB686"/>
<path d="M211.924 187.799L210.169 190.683L208.414 189.11L213.093 181.771L213.971 182.819L216.018 184.13L211.924 187.799Z" fill="white"/>
<path d="M208.998 190.159L199.64 182.819C199.64 182.819 199.055 180.722 198.178 178.887C198.47 174.956 198.47 149.268 198.47 149.268L200.225 152.938C200.225 152.938 201.102 155.559 201.687 156.607C202.565 158.704 202.857 161.325 203.442 163.422C203.734 165.257 206.074 173.907 206.074 173.907L214.263 182.295L211.046 185.44C211.338 185.44 208.998 189.896 208.998 190.159Z" fill="#002756"/>
<path d="M204.905 264.601L201.103 260.145L199.348 256.475C199.348 256.475 191.16 253.592 188.235 254.902C188.235 255.951 187.65 258.31 187.65 258.834C187.943 259.096 194.084 263.814 194.669 264.076C194.962 264.338 199.641 268.27 199.641 268.27L204.905 266.435V264.601Z" fill="#002B6A"/>
<path d="M184.729 270.891L180.927 267.222C180.927 267.222 179.465 264.6 179.465 264.076C179.173 263.29 168.937 260.931 166.89 262.503C166.89 262.503 166.305 264.6 166.305 265.125C166.89 265.649 167.474 266.435 168.644 267.222C168.937 266.697 169.522 266.959 170.107 267.222C170.691 267.746 170.691 268.27 170.984 269.056C173.908 271.678 179.173 275.085 179.173 275.085C180.342 275.085 184.729 272.988 184.729 272.988V270.891Z" fill="#002B6A"/>
<path d="M198.766 212.701C198.766 211.39 198.766 210.342 198.766 209.031C198.766 207.721 198.766 206.41 198.766 205.099C198.766 204.313 198.766 200.643 198.766 199.595C198.766 198.284 198.766 197.236 198.766 196.187C198.766 196.187 168.643 202.478 168.35 202.478C168.35 203.265 168.058 204.051 168.058 205.099C168.058 206.148 168.35 211.652 168.35 211.652C168.35 211.652 167.766 250.97 167.766 254.902L166.596 261.979L171.275 264.863L180.049 263.814L184.435 221.875C184.435 221.875 187.652 252.543 188.237 254.902L192.332 256.999L199.643 256.737C199.643 250.708 199.058 230.263 198.766 212.701Z" fill="#002B6A"/>
<path d="M177.706 223.448V226.069L176.536 244.68L170.979 246.776L171.564 237.34L172.149 226.593V225.02H172.734L177.413 223.448H177.706Z" fill="#6ABFCE"/>
<path d="M171.565 237.34L147.583 223.448L148.168 211.39L172.15 225.02L171.565 237.34Z" fill="#33B3C4"/>
<path d="M171.566 237.34L170.981 246.776L147 231.836L147.585 223.448L171.274 237.34H171.566Z" fill="#168CA8"/>
<path d="M165.131 232.622L167.471 233.932V237.078L164.839 235.505L165.131 232.622Z" fill="#DCFFFF"/>
<path d="M172.152 225.02L148.17 211.128L153.727 209.555C154.312 209.817 177.708 222.923 178.001 223.186V223.448L172.152 225.02Z" fill="#7CD0D8"/>
<path d="M153.14 228.428L150.508 226.855L150.8 224.234L153.14 225.545V228.428Z" fill="#DCFFFF"/>
<path d="M169.812 212.701C169.812 212.701 169.227 219.516 169.227 220.04C169.52 219.778 168.643 220.302 168.058 220.302C167.765 220.302 167.18 219.778 167.18 219.778C167.18 219.516 167.473 214.536 167.473 213.749C167.473 213.749 166.595 213.225 166.303 212.963C165.718 212.439 166.303 211.39 166.303 211.39C166.303 211.39 166.303 211.128 166.595 211.128L169.812 212.701Z" fill="#168CA8"/>
<path d="M158.112 214.274H157.235L156.357 213.749V211.128L156.942 207.72H158.697L159.574 207.983C159.574 207.983 159.574 208.245 159.282 208.507C158.99 209.293 158.99 210.08 158.99 210.604H158.697H158.112V214.274Z" fill="#168CA8"/>
<path d="M197.887 187.8C197.887 187.8 197.887 182.033 198.472 178.887C198.764 174.956 201.689 158.442 201.689 158.442L198.472 149.268L189.991 146.385L173.906 151.627L161.915 160.277C161.915 160.277 158.698 191.731 158.406 196.449C158.406 198.546 158.113 204.837 158.113 206.148L159.576 207.721C159.576 207.721 166.594 208.245 166.887 208.245C166.887 207.983 166.887 207.983 166.887 207.983C166.887 207.196 167.472 203.789 167.472 203.002C167.764 203.265 175.076 204.837 175.076 204.837L198.472 198.022L197.887 187.8Z" fill="#002B6A"/>
<path d="M191.745 171.024C192.038 168.927 193.5 166.83 193.5 164.471C193.5 164.209 193.5 163.947 193.5 163.947C193.208 161.325 192.915 158.704 192.038 156.083C191.745 155.297 191.453 154.51 190.868 153.724C190.868 153.462 190.575 153.462 190.575 153.2C189.698 152.151 188.821 151.365 187.943 151.103C188.528 150.841 189.698 150.579 190.283 150.054C190.868 150.316 193.792 152.938 193.792 152.938L192.915 155.035L195.84 156.345L196.425 160.277C196.425 160.277 192.33 176.004 191.745 177.052C192.038 176.004 191.16 174.431 191.453 173.383C191.745 172.596 191.745 171.81 191.745 171.024Z" fill="#11487F"/>
<path d="M178.001 155.034C178.586 155.821 179.464 156.607 180.048 157.131C180.341 157.394 180.926 157.918 181.218 158.18C182.973 159.491 184.728 160.801 186.19 162.374C188.237 164.733 189.699 167.354 190.577 170.237V170.5C190.869 171.548 190.869 172.859 190.869 174.169C190.869 174.956 191.162 176.79 191.162 176.79L190.577 174.431C189.407 171.286 185.605 167.092 185.605 167.092L179.464 163.684L179.756 160.801H177.124L175.954 157.918C175.954 157.918 173.907 153.2 174.492 151.627C174.492 151.627 176.539 149.006 177.416 148.219C177.416 148.744 177.416 149.006 177.416 149.53C177.416 150.316 177.416 151.103 177.709 151.889C177.709 151.889 177.709 151.627 177.416 151.627C176.831 152.675 177.416 153.986 178.001 155.034Z" fill="#11487F"/>
<path d="M193.501 164.471C193.501 164.209 193.501 163.947 193.501 163.947C193.209 161.325 192.039 156.083 192.039 156.083C192.039 156.083 191.454 154.51 190.869 153.724C189.992 153.2 178.879 155.821 178.294 155.034C178.879 155.821 180.341 157.131 180.341 157.131L181.511 158.18L186.483 162.374C186.483 162.374 189.992 167.354 190.869 170.237C190.869 170.237 192.332 172.072 192.332 172.334C192.332 170.237 193.209 167.878 193.501 164.471Z" fill="#DCFFFF"/>
<path d="M193.21 163.16L190.578 157.394V157.132L190.285 154.773C190.285 154.773 189.7 154.248 189.408 153.986C188.823 153.724 187.653 153.462 187.653 153.462C187.361 153.986 187.068 154.773 186.776 155.297V155.559C187.361 156.345 188.531 157.132 189.408 157.656C189.993 159.753 190.87 164.209 190.87 164.209V169.975L191.748 178.101C191.748 177.839 193.795 165.782 193.795 165.782L193.21 163.16Z" fill="#FF5252"/>
<path d="M177.71 151.889C179.757 155.035 187.361 154.51 187.361 152.413L187.068 150.054C187.361 150.579 189.7 152.151 190.578 153.2C190.578 153.462 190.87 153.462 190.87 153.724C190.87 154.248 190.578 155.035 190.578 155.035L190.285 154.773L189.408 153.986L187.653 153.462C187.361 153.986 186.483 157.132 186.483 157.132L181.512 156.345C181.512 156.345 179.465 155.559 178.587 154.773C177.71 153.724 177.417 152.413 178.002 151.365C177.417 151.627 177.71 151.889 177.71 151.889Z" fill="white"/>
<path d="M187.358 150.578V153.462C187.358 154.51 179.754 155.821 177.415 151.889C177.415 151.103 177.122 147.171 177.122 146.647C177.415 146.647 177.707 146.647 177.999 146.385C178.584 147.171 186.773 150.578 187.358 150.578Z" fill="#F89C69"/>
<path d="M190.574 135.638C189.697 136.424 187.357 136.686 186.188 136.948C184.433 137.473 180.046 138.783 180.046 138.783C180.046 139.569 179.754 140.356 179.754 141.404C179.461 142.453 178.876 143.239 179.461 145.86C178.876 145.598 178.291 145.074 177.706 144.812C177.414 143.763 177.414 142.977 177.121 142.453C176.537 141.929 174.782 142.191 175.367 143.501C175.659 144.55 176.244 146.647 177.414 146.909C177.706 146.909 177.999 146.909 178.291 146.647C178.584 147.433 180.046 148.482 180.046 148.482C180.046 148.482 186.48 151.103 187.065 151.103L190.282 150.054L191.159 141.142C191.159 141.142 190.574 135.9 190.574 135.638Z" fill="#FBB686"/>
<path d="M179.753 138.783C179.753 139.569 179.461 140.356 179.461 141.404C179.168 142.453 178.583 143.239 179.168 145.86C178.583 145.598 177.998 145.074 177.413 144.812C177.121 143.763 177.121 142.977 176.829 142.453C176.244 141.929 174.489 142.191 175.074 143.501C175.366 144.55 175.951 146.647 177.121 146.909C177.121 147.433 177.121 148.219 177.121 148.219L175.951 147.695L175.074 146.123C173.319 143.501 170.687 137.997 170.687 137.997L170.395 133.016C170.687 133.016 176.536 137.735 179.753 138.783Z" fill="#11487F"/>
<path d="M181.214 139.307L180.044 139.045C176.827 137.997 173.61 135.113 170.978 133.016C171.563 131.706 173.903 129.871 173.903 129.871C175.072 129.085 181.214 128.036 182.969 128.298C183.846 128.56 186.478 129.347 187.063 129.347C186.77 129.347 191.742 130.133 191.742 130.133C191.742 130.133 192.62 133.016 191.742 134.327C191.45 134.589 190.28 136.162 190.28 136.162C190.28 136.162 182.969 139.307 181.214 139.307Z" fill="#002B6A"/>
</svg>
