<svg width="223" height="210" viewBox="0 0 223 210" fill="none" xmlns="http://www.w3.org/2000/svg">
<path d="M55.4324 178.813H25.6694" stroke="#0B4275" stroke-width="2" stroke-miterlimit="10"/>
<path d="M158.663 45.8184V1.30811H1V208.308H158.663V134.571" stroke="#FFB800" stroke-width="2" stroke-miterlimit="10"/>
<path d="M212.29 35.8978C206.391 29.9988 192.179 35.0934 180.65 46.6232L118.442 109.635C98.0642 130.013 74.4683 162.994 80.0991 168.893C85.9981 174.792 118.979 150.928 139.357 130.549L201.564 67.5378C212.826 56.2761 217.92 41.7967 212.29 35.8978Z" stroke="#0B4275" stroke-width="2" stroke-miterlimit="10"/>
<path d="M69.1069 180.422L79.8323 169.16" stroke="#FFB800" stroke-width="2" stroke-miterlimit="10" stroke-linecap="round"/>
<path d="M180.381 46.8909L208.267 74.7768C212.021 78.5307 212.021 84.9659 208.267 88.7198L173.41 123.577" stroke="#E5231E" stroke-width="2" stroke-miterlimit="10"/>
<path d="M114.69 113.388L135.604 134.303" stroke="#E5231E" stroke-width="2" stroke-miterlimit="10"/>
<path d="M212.29 35.8972L222.21 25.9763" stroke="#E5231E" stroke-width="2" stroke-miterlimit="10"/>
<path d="M55.4312 35.897H104.5" stroke="#0B4275" stroke-width="2" stroke-miterlimit="10"/>
<path d="M30.7612 60.5652H129.167" stroke="#0B4275" stroke-width="2" stroke-miterlimit="10"/>
<path d="M30.7612 80.408H124.34" stroke="#0B4275" stroke-width="2" stroke-miterlimit="10"/>
<path d="M30.7612 99.9817H104.498" stroke="#0B4275" stroke-width="2" stroke-miterlimit="10"/>
<path d="M30.7612 119.824H84.9245" stroke="#0B4275" stroke-width="2" stroke-miterlimit="10"/>
</svg>
