<svg width="213" height="209" viewBox="0 0 213 209" fill="none" xmlns="http://www.w3.org/2000/svg">
<path d="M184.564 33.4821H212V19.7645C212 9.53871 203.769 1.30811 193.543 1.30811" stroke="#FFB800" stroke-width="2" stroke-miterlimit="10"/>
<path d="M175.338 19.7645C175.338 9.53871 183.568 1.30811 193.794 1.30811H37.9127C27.6869 1.30811 19.4564 9.53871 19.4564 19.7645V189.364C19.4564 199.589 11.2258 207.82 1 207.82H156.881C167.107 207.82 175.338 199.589 175.338 189.364V19.7645Z" stroke="#FFB800" stroke-width="2" stroke-miterlimit="10" stroke-linecap="round" stroke-linejoin="round"/>
<path d="M111.239 65.6562H143.413" stroke="#FFB800" stroke-width="2" stroke-miterlimit="10"/>
<path d="M111.239 42.7104H143.413" stroke="#0B4275" stroke-width="2" stroke-miterlimit="10"/>
<path d="M47.1411 102.319H143.413" stroke="#0B4275" stroke-width="2" stroke-miterlimit="10"/>
<path d="M47.1411 125.265H143.413" stroke="#0B4275" stroke-width="2" stroke-miterlimit="10"/>
<path d="M47.1411 147.962H111.24" stroke="#0B4275" stroke-width="2" stroke-miterlimit="10"/>
<path d="M97.5215 83.8632V74.6351C97.5215 68.6492 84.8015 60.9175 74.5757 60.9175C64.3498 60.9175 51.6299 68.6492 51.6299 74.6351V83.8632" stroke="#E5231E" stroke-width="2" stroke-miterlimit="10"/>
<path d="M74.5755 28.9927C67.3426 28.9927 60.8579 34.2303 60.8579 40.4656V49.4444C60.8579 55.929 67.592 60.9173 74.5755 60.9173C81.8084 60.9173 88.2931 55.6796 88.2931 49.4444V40.4656C88.2931 33.9809 81.8084 28.9927 74.5755 28.9927Z" stroke="#E5231E" stroke-width="2" stroke-miterlimit="10"/>
</svg>
