<svg width="377" height="298" viewBox="0 0 377 298" fill="none" xmlns="http://www.w3.org/2000/svg">
<g opacity="0.3">
<path opacity="0.3" d="M332.3 99.5998L331.7 99.2998C303.5 82.3998 259.1 81.2998 232.5 96.9998C218.3 105.4 212 116.9 213.4 128.4C215.8 137.3 222.6 145.9 234 153.1C234 153.1 278.8 185.5 335.3 157.1C346.7 151.4 350.7 141.9 352.4 133.2C353 121.5 347.5 108.9 332.3 99.5998Z" fill="#003D75"/>
</g>
<path d="M330.1 101.8C312.6 91.4997 283.3 92.1997 264.7 103.4L264.3 103.6C254.9 109.3 250.1 116.7 249.8 123.9C249.7 125.9 249.7 128 249.6 130C249.5 132 249.5 134.1 249.4 136.1C249.7 128.9 254.5 121.6 263.9 115.8L264.3 115.6C282.9 104.4 312.1 103.7 329.7 114C338.5 119.2 342.7 126.1 342.4 133.2C342.5 129.1 342.7 125.1 342.8 121C343.1 113.9 338.9 106.9 330.1 101.8Z" fill="#FDA014"/>
<path d="M330.1 101.8C312.6 91.4997 283.3 92.1997 264.7 103.4L264.3 103.6C254.9 109.3 250.1 116.7 249.8 123.9C249.7 125.9 249.7 128 249.6 130C249.5 132 249.5 134.1 249.4 136.1C249.7 128.9 254.5 121.6 263.9 115.8L264.3 115.6C282.9 104.4 312.1 103.7 329.7 114C338.5 119.2 342.7 126.1 342.4 133.2C342.5 129.1 342.7 125.1 342.8 121C343.1 113.9 338.9 106.9 330.1 101.8Z" fill="#EA7A00"/>
<path d="M336.4 145.5L336 145.7C312.9 159.8 276.5 160.8 254.6 147.9C243.7 141.5 238.5 132.9 238.8 124.1C238.7 128.2 238.5 132.2 238.4 136.3C238.1 145.1 243.3 153.7 254.2 160.1C276.1 173 312.5 172 335.6 157.9L336 157.7C347.4 150.6 353.3 141.6 353.6 132.8C353.7 128.7 353.9 124.7 354 120.6C353.6 129.5 347.7 138.4 336.4 145.5Z" fill="#EA7A00"/>
<path opacity="0.27" d="M336.4 145.6L336 145.8C328.2 150.6 307.6 155 297.8 156.7L297 169C313.4 168.5 327.7 162.9 335.6 158L336 157.8C343.8 152.9 349 147.2 351.6 141.2L352.5 128C349.9 134.3 344.6 140.4 336.4 145.6Z" fill="#FFC431"/>
<path opacity="0.69" d="M336.4 145.6L336 145.8C329.8 149.6 322.6 152.4 315 154.3L314.2 166.6C321.9 164.7 329.2 161.9 335.5 158L335.9 157.8C341.7 154.2 346 150.1 349 145.8L349.9 132.9C347 137.4 342.5 141.8 336.4 145.6Z" fill="#FFC431"/>
<path d="M338.1 96.8999C316.3 84.0999 280.2 84.9999 257.1 98.8999L256.7 99.0999C233.6 113.2 232.7 135.1 254.6 148C276.5 160.9 312.9 159.9 336 145.8L336.4 145.6C359.1 131.4 359.9 109.7 338.1 96.8999ZM328.7 141.1L328.3 141.3C309.7 152.7 280.2 153.5 262.5 143.1C244.8 132.7 245.6 115 264.2 103.6L264.6 103.4C283.2 92.1999 312.4 91.4999 330 101.8C347.7 112.1 347 129.7 328.7 141.1Z" fill="url(#paint0_linear)"/>
<path d="M329.7 104.4C312.3 94.0999 283.4 94.8999 264.9 105.9L264.5 106.1C254.6 112.2 249.9 120 250.2 127.6C251.3 133.3 255.1 139.9 262.5 143.6C299.4 162.2 328.7 141 328.7 141C336.1 136.4 340.6 130.7 342.2 124.9C343.1 117.4 339 109.9 329.7 104.4Z" fill="url(#paint1_linear)"/>
<path d="M322.3 125.9C322.3 123.6 320.7 121.6 317.6 119.8H317.4L308.4 125C310.1 126 310.9 127 311 127.9C311 128.8 310.3 129.7 308.9 130.5C307.4 131.4 306 131.8 304.7 131.7C303.4 131.6 302.1 131.3 300.9 130.6C299.8 129.9 299.2 129.2 299.2 128.4C299.2 127.6 299.7 126.4 300.9 124.7C303.8 121.5 305.4 118.8 305.7 116.5C306 114.2 304.5 112.1 301.3 110.3C298.3 108.6 295 107.8 291.2 107.9C287.4 108 283.6 109 279.8 110.9L274.7 107.9L270.4 110.4L275.5 113.4C272.1 115.7 270.2 118.1 269.7 120.6C269.2 123.1 270.9 125.3 274.7 127.4L274.9 127.5L283.8 122.3C281.9 121.2 281 120.1 281.1 119C281.3 117.9 282.2 116.9 283.9 115.9C285.4 115 286.8 114.6 288.2 114.6C289.6 114.6 290.9 114.9 292 115.6C293.4 116.4 294 117.2 294 118C294 118.8 293.4 120 292.2 121.6C289.3 125 287.7 127.7 287.4 129.9C287.1 132.1 288.5 134.1 291.7 136C294.6 137.7 298 138.4 302 138.3C306 138.1 309.9 137.1 313.7 135.2L319.1 138.3L323.4 135.8L318 132.6C320.9 130.4 322.3 128.2 322.3 125.9Z" fill="white"/>
<path d="M333.5 77.1C316 66.8 286.7 67.5 268.1 78.7L267.7 78.9C258.3 84.6 253.5 92 253.2 99.2C253.1 101.2 253.1 103.3 253 105.3C252.9 107.3 252.9 109.4 252.8 111.4C253.1 104.2 257.9 96.9 267.3 91.1L267.7 90.9C286.3 79.7 315.5 79 333.1 89.3C341.9 94.5 346.1 101.4 345.8 108.5C345.9 104.4 346.1 100.4 346.2 96.3C346.5 89.3 342.3 82.3 333.5 77.1Z" fill="#FDA014"/>
<path d="M333.5 77.1C316 66.8 286.7 67.5 268.1 78.7L267.7 78.9C258.3 84.6 253.5 92 253.2 99.2C253.1 101.2 253.1 103.3 253 105.3C252.9 107.3 252.9 109.4 252.8 111.4C253.1 104.2 257.9 96.9 267.3 91.1L267.7 90.9C286.3 79.7 315.5 79 333.1 89.3C341.9 94.5 346.1 101.4 345.8 108.5C345.9 104.4 346.1 100.4 346.2 96.3C346.5 89.3 342.3 82.3 333.5 77.1Z" fill="#EA7A00"/>
<path d="M339.8 120.9L339.4 121.1C316.3 135.2 279.9 136.2 258 123.3C247.1 116.9 241.9 108.3 242.2 99.5C242.1 103.6 241.9 107.6 241.8 111.7C241.5 120.5 246.7 129.1 257.6 135.5C279.5 148.4 315.9 147.4 339 133.3L339.4 133.1C350.8 126 356.7 117 357 108.2C357.1 104.1 357.3 100.1 357.4 96C357 104.8 351.1 113.8 339.8 120.9Z" fill="#EA7A00"/>
<path opacity="0.27" d="M339.8 120.9L339.4 121.1C331.6 125.9 311 130.3 301.2 132L300.4 144.3C316.8 143.8 331.1 138.2 339 133.3L339.4 133.1C347.2 128.2 352.4 122.5 355 116.5L355.9 103.3C353.3 109.7 348 115.8 339.8 120.9Z" fill="#FFC431"/>
<path opacity="0.69" d="M339.8 120.9L339.4 121.1C333.2 124.9 326 127.7 318.4 129.6L317.6 141.9C325.3 140 332.6 137.2 338.9 133.3L339.3 133.1C345.1 129.5 349.4 125.4 352.4 121.1L353.3 108.2C350.4 112.8 345.9 117.1 339.8 120.9Z" fill="#FFC431"/>
<path d="M341.5 72.2002C319.7 59.4002 283.6 60.3002 260.5 74.2002L260.1 74.4002C237 88.5002 236.1 110.4 258 123.3C279.9 136.2 316.3 135.2 339.4 121.1L339.8 120.9C362.5 106.8 363.3 85.1002 341.5 72.2002ZM332.1 116.4L331.7 116.6C313.1 128 283.6 128.8 265.9 118.4C248.2 108 249 90.3002 267.6 78.9002L268 78.7002C286.6 67.5002 315.8 66.8002 333.4 77.1002C351.1 87.5002 350.4 105 332.1 116.4Z" fill="url(#paint2_linear)"/>
<path d="M333.1 79.8003C315.7 69.5003 286.8 70.3003 268.3 81.3003L267.9 81.5003C258 87.6003 253.3 95.4003 253.6 103C254.7 108.7 258.5 115.3 265.9 119C302.8 137.6 332.1 116.4 332.1 116.4C339.5 111.8 344 106.1 345.6 100.3C346.5 92.8003 342.4 85.3003 333.1 79.8003Z" fill="url(#paint3_linear)"/>
<path d="M326 79.6001L319.3 83.4001C314.9 82.0001 310.4 81.5001 305.8 81.8001C301.2 82.2001 297 83.5001 293.2 85.7001L293.1 85.8001L303.3 90.4001C305.4 89.2001 307.4 88.5001 309.3 88.4001C311.2 88.2001 313 88.5001 314.6 89.2001C316.3 90.0001 317 90.8001 316.8 91.6001C316.6 92.4001 315.8 93.3001 314.3 94.1001C312.9 94.9001 311.4 95.4001 309.8 95.5001C308.2 95.6001 305.7 95.5001 302.4 95.1001C296.1 93.9001 290.6 93.3001 286 93.5001C281.4 93.7001 277.1 94.9001 273.1 97.2001C269.4 99.3001 267.6 101.5 267.7 103.7C267.8 106 269.6 108.1 273.2 110.1L266.9 113.7L271.8 115.9L278.1 112.3C282.6 114 287.3 114.7 292.4 114.6C297.4 114.5 302.1 113.1 306.6 110.5L306.7 110.4L296.6 105.8C294.2 107.2 291.9 107.9 289.7 107.9C287.5 108 285.5 107.6 283.5 106.7C281.8 105.9 281 105.1 281.1 104.3C281.2 103.5 282 102.6 283.4 101.8C285.1 100.9 286.7 100.3 288.4 100.2C290.1 100.1 292.5 100.2 295.6 100.7C302.3 101.9 307.8 102.4 312.2 102.3C316.6 102.1 320.8 100.9 324.7 98.7001C328.3 96.7001 330 94.5001 329.9 92.1001C329.8 89.7001 327.9 87.5001 324.2 85.5001L330.8 81.7001L326 79.6001Z" fill="white"/>
<path d="M327.2 66.7997C309.7 56.4997 280.4 57.1997 261.8 68.3997L261.4 68.5997C252 74.2997 247.2 81.6997 246.9 88.8997C246.8 90.8997 246.8 92.9997 246.7 94.9997C246.6 96.9997 246.6 99.0997 246.5 101.1C246.8 93.8997 251.6 86.5997 261 80.7997L261.4 80.5997C280 69.3997 309.2 68.6997 326.8 78.9997C335.6 84.1997 339.8 91.0997 339.5 98.1997C339.6 94.0997 339.8 90.0997 339.9 85.9997C340.2 78.9997 336 71.9997 327.2 66.7997Z" fill="#FDA014"/>
<path d="M327.2 66.7997C309.7 56.4997 280.4 57.1997 261.8 68.3997L261.4 68.5997C252 74.2997 247.2 81.6997 246.9 88.8997C246.8 90.8997 246.8 92.9997 246.7 94.9997C246.6 96.9997 246.6 99.0997 246.5 101.1C246.8 93.8997 251.6 86.5997 261 80.7997L261.4 80.5997C280 69.3997 309.2 68.6997 326.8 78.9997C335.6 84.1997 339.8 91.0997 339.5 98.1997C339.6 94.0997 339.8 90.0997 339.9 85.9997C340.2 78.9997 336 71.9997 327.2 66.7997Z" fill="#EA7A00"/>
<path d="M333.5 110.6L333.1 110.8C310 124.9 273.6 125.9 251.7 113C240.8 106.6 235.6 97.9997 235.9 89.1997C235.8 93.2997 235.6 97.2997 235.5 101.4C235.2 110.2 240.4 118.8 251.3 125.2C273.2 138.1 309.6 137.1 332.7 123L333.1 122.8C344.5 115.7 350.4 106.7 350.7 97.8997C350.8 93.7997 351 89.7997 351.1 85.6997C350.7 94.4997 344.8 103.5 333.5 110.6Z" fill="#EA7A00"/>
<path opacity="0.27" d="M333.5 110.6L333.1 110.8C325.3 115.6 304.7 120 294.9 121.7L294.1 134C310.5 133.5 324.8 127.9 332.7 123L333.1 122.8C340.9 117.9 346.1 112.2 348.7 106.2L349.6 93C347 99.4 341.7 105.5 333.5 110.6Z" fill="#FFC431"/>
<path opacity="0.69" d="M333.5 110.6L333.1 110.8C326.9 114.6 319.7 117.4 312.1 119.3L311.3 131.6C319 129.7 326.3 126.9 332.6 123L333 122.8C338.8 119.2 343.1 115.1 346.1 110.8L347 97.8999C344 102.5 339.6 106.8 333.5 110.6Z" fill="#FFC431"/>
<path d="M335.2 61.8999C313.4 49.0999 277.3 49.9999 254.2 63.8999L253.8 64.0999C230.7 78.1999 229.8 100.1 251.7 113C273.6 125.9 310 124.9 333.1 110.8L333.5 110.6C356.2 96.4999 357 74.7999 335.2 61.8999ZM325.8 106.1L325.4 106.3C306.8 117.7 277.3 118.5 259.6 108.1C241.9 97.6999 242.7 79.9999 261.3 68.5999L261.7 68.3999C280.3 57.1999 309.5 56.4999 327.1 66.7999C344.7 77.1999 344.1 94.6999 325.8 106.1Z" fill="url(#paint4_linear)"/>
<path d="M326.8 69.5C309.4 59.2 280.5 60 262 71L261.6 71.2C251.7 77.3 247 85.1 247.3 92.7C248.4 98.4 252.2 105 259.6 108.7C296.5 127.3 325.8 106.1 325.8 106.1C333.2 101.5 337.7 95.8 339.3 90C340.2 82.5 336.1 75 326.8 69.5Z" fill="url(#paint5_linear)"/>
<path d="M319.7 69.2998L313 73.0998C308.6 71.6998 304.1 71.1998 299.5 71.4998C294.9 71.8998 290.7 73.1998 286.9 75.3998L286.8 75.4998L297 80.0998C299.1 78.8998 301.1 78.1998 303 78.0998C304.9 77.8998 306.7 78.1998 308.3 78.8998C310 79.6998 310.7 80.4998 310.5 81.2998C310.3 82.0998 309.5 82.9998 308 83.7998C306.6 84.5998 305.1 85.0998 303.5 85.1998C301.9 85.2998 299.4 85.1998 296.1 84.7998C289.8 83.5998 284.3 82.9998 279.7 83.1998C275.1 83.3998 270.8 84.5998 266.8 86.8998C263.1 88.9998 261.3 91.1998 261.4 93.3998C261.5 95.6998 263.3 97.7998 266.9 99.7998L260.6 103.4L265.5 105.6L271.8 102C276.3 103.7 281 104.4 286.1 104.3C291.1 104.2 295.8 102.8 300.3 100.2L300.4 100.1L290.3 95.4998C287.9 96.8998 285.6 97.5998 283.4 97.5998C281.2 97.6998 279.2 97.2998 277.2 96.3998C275.5 95.5998 274.7 94.7998 274.8 93.9998C274.9 93.1998 275.7 92.2998 277.1 91.4998C278.8 90.5998 280.4 89.9998 282.1 89.8998C283.8 89.7998 286.2 89.8998 289.3 90.3998C296 91.5998 301.5 92.0998 305.9 91.9998C310.3 91.7998 314.5 90.5998 318.4 88.3998C322 86.3998 323.7 84.1998 323.6 81.7998C323.5 79.3998 321.6 77.1998 317.9 75.1998L324.5 71.3998L319.7 69.2998Z" fill="white"/>
<path d="M333.5 52.8998C316 42.5998 286.7 43.2998 268.1 54.4998L267.7 54.6998C258.3 60.3998 253.5 67.7998 253.2 74.9998C253.1 76.9998 253.1 79.0998 253 81.0998C252.9 83.0998 252.9 85.1998 252.8 87.1998C253.1 79.9998 257.9 72.6998 267.3 66.8998L267.7 66.6998C286.3 55.4998 315.5 54.7998 333.1 65.0998C341.9 70.2998 346.1 77.1998 345.8 84.2998C345.9 80.1998 346.1 76.1998 346.2 72.0998C346.5 65.0998 342.3 58.0998 333.5 52.8998Z" fill="#FDA014"/>
<path d="M333.5 52.8998C316 42.5998 286.7 43.2998 268.1 54.4998L267.7 54.6998C258.3 60.3998 253.5 67.7998 253.2 74.9998C253.1 76.9998 253.1 79.0998 253 81.0998C252.9 83.0998 252.9 85.1998 252.8 87.1998C253.1 79.9998 257.9 72.6998 267.3 66.8998L267.7 66.6998C286.3 55.4998 315.5 54.7998 333.1 65.0998C341.9 70.2998 346.1 77.1998 345.8 84.2998C345.9 80.1998 346.1 76.1998 346.2 72.0998C346.5 65.0998 342.3 58.0998 333.5 52.8998Z" fill="#EA7A00"/>
<path d="M339.8 96.6998L339.4 96.8998C316.3 111 279.9 112 258 99.0998C247.1 92.6998 241.9 84.0998 242.2 75.2998C242.1 79.3998 241.9 83.3998 241.8 87.4998C241.5 96.2998 246.7 104.9 257.6 111.3C279.5 124.2 315.9 123.2 339 109.1L339.4 108.9C350.8 101.8 356.7 92.7998 357 83.9998C357.1 79.8998 357.3 75.8998 357.4 71.7998C357 80.5998 351.1 89.5998 339.8 96.6998Z" fill="#EA7A00"/>
<path opacity="0.27" d="M339.8 96.7001L339.4 96.9001C331.6 101.7 311 106.1 301.2 107.8L300.4 120.1C316.8 119.6 331.1 114 339 109.1L339.4 108.9C347.2 104 352.4 98.3001 355 92.3001L355.9 79.1001C353.3 85.4001 348 91.6001 339.8 96.7001Z" fill="#FFC431"/>
<path opacity="0.69" d="M339.8 96.7L339.4 96.9C333.2 100.7 326 103.5 318.4 105.4L317.6 117.7C325.3 115.8 332.6 113 338.9 109.1L339.3 108.9C345.1 105.3 349.4 101.2 352.4 96.9L353.3 84C350.3 88.6 345.9 92.9 339.8 96.7Z" fill="#FFC431"/>
<path d="M341.5 48C319.7 35.2 283.6 36.1 260.5 50L260.1 50.2C237 64.3 236.1 86.2 258 99.1C279.9 112 316.3 111 339.4 96.9L339.8 96.7C362.5 82.6 363.3 60.8 341.5 48ZM332.1 92.2L331.7 92.4C313.1 103.8 283.6 104.6 265.9 94.2C248.2 83.8 249 66.1 267.6 54.7L268 54.5C286.6 43.3 315.8 42.6 333.4 52.9C351 63.3 350.4 80.8 332.1 92.2Z" fill="url(#paint6_linear)"/>
<path d="M333.1 55.6001C315.7 45.3001 286.8 46.1001 268.3 57.1001L267.9 57.3001C258 63.4001 253.3 71.2001 253.6 78.8001C254.7 84.5001 258.5 91.1001 265.9 94.8001C302.8 113.4 332.1 92.2001 332.1 92.2001C339.5 87.6001 344 81.9001 345.6 76.1001C346.5 68.6001 342.4 61.0001 333.1 55.6001Z" fill="url(#paint7_linear)"/>
<path d="M332 79.7001C332.1 77.4001 330.3 75.2001 326.6 73.2001C322.6 71.0001 318.4 69.7001 313.7 69.5001C309.1 69.3001 303.6 69.8001 297.3 71.1001C293.9 71.5001 291.4 71.6001 289.9 71.5001C288.3 71.4001 286.8 70.9001 285.4 70.1001C283.9 69.3001 283.1 68.4001 282.9 67.6001C282.7 66.8001 283.4 66.0001 285.1 65.2001C286.7 64.5001 288.5 64.2001 290.4 64.4001C292.3 64.6001 294.3 65.2001 296.4 66.4001L306.6 61.8001L306.5 61.7001C302.7 59.5001 298.5 58.2001 293.9 57.8001C289.3 57.4001 284.8 57.9001 280.4 59.4001L273.7 55.6001L268.8 57.8001L275.4 61.6001C271.7 63.6001 269.8 65.8001 269.7 68.2001C269.6 70.6001 271.4 72.8001 274.9 74.8001C278.9 77.1001 283.1 78.3001 287.4 78.4001C291.8 78.6001 297.3 78.0001 304 76.8001C307.2 76.3001 309.6 76.2001 311.2 76.3001C312.8 76.4001 314.5 77.0001 316.2 77.9001C317.6 78.7001 318.4 79.6001 318.5 80.4001C318.6 81.2001 317.8 82.0001 316.1 82.8001C314.2 83.7001 312.1 84.1001 309.9 84.0001C307.7 83.9001 305.5 83.2001 303 81.9001L292.9 86.5001L293 86.6001C297.5 89.2001 302.2 90.6001 307.2 90.7001C312.2 90.8001 317 90.0001 321.5 88.4001L327.8 92.0001L332.7 89.8001L326.4 86.2001C330.1 84.1001 331.9 81.9001 332 79.7001Z" fill="white"/>
<g opacity="0.3">
<path opacity="0.3" d="M244.2 172.2L243.6 171.9C216 155.3 172.6 154.3 146.6 169.6C132.7 177.8 126.6 189.1 127.9 200.4C130.2 209.1 136.9 217.6 148.1 224.5C148.1 224.5 191.9 256.3 247.2 228.4C258.3 222.8 264 213 265.7 204.4C266.1 193 259 181.3 244.2 172.2Z" fill="#003D75"/>
</g>
<path d="M242 174.3C224.8 164.2 196.3 164.9 178 175.8L177.6 176C168.4 181.6 163.7 188.8 163.4 195.8C163.3 197.8 163.3 199.8 163.2 201.8C163.1 203.8 163.1 205.8 163 207.8C163.2 200.8 168 193.6 177.2 188L177.6 187.8C195.8 176.9 224.4 176.2 241.6 186.3C250.2 191.4 254.3 198.2 254.1 205.1C254.2 201.1 254.4 197.1 254.5 193.1C254.7 186.2 250.6 179.4 242 174.3Z" fill="#FDA014"/>
<path d="M242 174.3C224.8 164.2 196.3 164.9 178 175.8L177.6 176C168.4 181.6 163.7 188.8 163.4 195.8C163.3 197.8 163.3 199.8 163.2 201.8C163.1 203.8 163.1 205.8 163 207.8C163.2 200.8 168 193.6 177.2 188L177.6 187.8C195.8 176.9 224.4 176.2 241.6 186.3C250.2 191.4 254.3 198.2 254.1 205.1C254.2 201.1 254.4 197.1 254.5 193.1C254.7 186.2 250.6 179.4 242 174.3Z" fill="#EA7A00"/>
<path d="M248.1 217.1L247.7 217.3C225.1 231.1 189.5 232.1 168 219.4C157.4 213.1 152.2 204.7 152.5 196.1C152.4 200.1 152.2 204.1 152.1 208.1C151.8 216.7 156.9 225.2 167.6 231.4C189 244 224.7 243.1 247.3 229.3L247.7 229.1C258.8 222.2 264.6 213.4 264.9 204.8C265 200.8 265.2 196.8 265.3 192.8C265 201.4 259.3 210.2 248.1 217.1Z" fill="#EA7A00"/>
<path opacity="0.27" d="M248.1 217.2L247.7 217.4C240.1 222.1 219.9 226.4 210.3 228.1L209.5 240.1C225.6 239.6 239.5 234.1 247.3 229.4L247.7 229.2C255.3 224.5 260.4 218.8 262.9 213L263.8 200C261.4 206.2 256.2 212.2 248.1 217.2Z" fill="#FFC431"/>
<path opacity="0.69" d="M248.1 217.2L247.7 217.4C241.6 221.1 234.6 223.9 227.2 225.7L226.4 237.7C234 235.9 241.1 233.1 247.3 229.3L247.7 229.1C253.4 225.6 257.6 221.6 260.5 217.3L261.3 204.7C258.5 209.2 254.1 213.5 248.1 217.2Z" fill="#FFC431"/>
<path d="M249.9 169.5C228.6 156.9 193.2 157.8 170.6 171.4L170.2 171.6C147.6 185.4 146.7 206.8 168.1 219.5C189.5 232.1 225.2 231.2 247.8 217.4L248.2 217.2C270.4 203.4 271.2 182.1 249.9 169.5ZM240.7 212.8L240.4 213C222.2 224.1 193.3 224.9 176.1 214.7C158.8 204.5 159.6 187.2 177.8 176L178.2 175.8C196.4 164.9 225 164.2 242.2 174.3C259.2 184.5 258.5 201.6 240.7 212.8Z" fill="url(#paint8_linear)"/>
<path d="M241.6 176.9C224.6 166.9 196.3 167.6 178.2 178.4L177.8 178.6C168.1 184.5 163.5 192.2 163.8 199.6C164.9 205.2 168.6 211.6 175.9 215.3C212 233.5 240.6 212.7 240.6 212.7C247.9 208.2 252.2 202.6 253.8 196.9C254.7 189.7 250.7 182.3 241.6 176.9Z" fill="url(#paint9_linear)"/>
<path d="M234.4 197.9C234.4 195.7 232.8 193.7 229.8 192H229.6L220.8 197.1C222.5 198.1 223.3 199 223.3 199.9C223.3 200.8 222.6 201.7 221.2 202.5C219.7 203.4 218.4 203.7 217.1 203.7C215.8 203.6 214.5 203.3 213.4 202.6C212.3 202 211.7 201.3 211.7 200.5C211.7 199.7 212.2 198.5 213.3 196.9C216.2 193.8 217.7 191.1 218 188.9C218.3 186.7 216.8 184.6 213.7 182.8C210.8 181.1 207.5 180.3 203.8 180.5C200.1 180.6 196.4 181.6 192.7 183.4L187.7 180.5L183.5 183L188.5 185.9C185.2 188.1 183.3 190.5 182.9 192.9C182.4 195.3 184.1 197.5 187.8 199.6L188 199.7L196.7 194.6C194.8 193.5 193.9 192.4 194.1 191.4C194.3 190.4 195.2 189.3 196.9 188.4C198.4 187.5 199.8 187.1 201.1 187.1C202.5 187.1 203.7 187.4 204.9 188.1C206.2 188.9 206.9 189.7 206.9 190.4C206.9 191.2 206.3 192.4 205.2 193.9C202.3 197.2 200.8 199.9 200.5 202C200.2 204.1 201.6 206.1 204.7 207.9C207.5 209.5 210.9 210.3 214.7 210.1C218.6 209.9 222.4 208.9 226.2 207L231.4 210L235.6 207.5L230.3 204.4C233 202.3 234.4 200.2 234.4 197.9Z" fill="white"/>
<path d="M241.8 156.2C224.6 146.1 196.1 146.8 177.8 157.7L177.4 157.9C168.2 163.5 163.5 170.7 163.2 177.7C163.1 179.7 163.1 181.7 163 183.7C162.9 185.7 162.9 187.7 162.8 189.7C163 182.7 167.8 175.5 177 169.9L177.4 169.7C195.6 158.8 224.2 158.1 241.4 168.2C250 173.3 254.1 180.1 253.9 187C254 183 254.2 179 254.3 175C254.5 168.1 250.4 161.3 241.8 156.2Z" fill="#FDA014"/>
<path d="M241.8 156.2C224.6 146.1 196.1 146.8 177.8 157.7L177.4 157.9C168.2 163.5 163.5 170.7 163.2 177.7C163.1 179.7 163.1 181.7 163 183.7C162.9 185.7 162.9 187.7 162.8 189.7C163 182.7 167.8 175.5 177 169.9L177.4 169.7C195.6 158.8 224.2 158.1 241.4 168.2C250 173.3 254.1 180.1 253.9 187C254 183 254.2 179 254.3 175C254.5 168.1 250.4 161.3 241.8 156.2Z" fill="#EA7A00"/>
<path d="M247.9 199L247.5 199.2C224.9 213 189.3 214 167.8 201.3C157.2 195 152 186.6 152.3 178C152.2 182 152 186 151.9 190C151.6 198.6 156.7 207.1 167.4 213.3C188.8 225.9 224.5 225 247.1 211.2L247.5 211C258.6 204.1 264.4 195.3 264.7 186.7C264.8 182.7 265 178.7 265.1 174.7C264.8 183.3 259.1 192.1 247.9 199Z" fill="#EA7A00"/>
<path opacity="0.27" d="M247.9 199.1L247.5 199.3C239.9 204 219.7 208.3 210.1 210L209.3 222C225.4 221.5 239.3 216 247.1 211.3L247.5 211.1C255.1 206.4 260.2 200.7 262.7 194.9L263.6 181.9C261.2 188.1 256 194.1 247.9 199.1Z" fill="#FFC431"/>
<path opacity="0.69" d="M247.9 199.1L247.5 199.3C241.4 203 234.4 205.8 227 207.6L226.2 219.6C233.8 217.8 240.9 215 247.1 211.2L247.5 211C253.2 207.5 257.4 203.5 260.3 199.2L261.1 186.6C258.3 191.1 253.9 195.4 247.9 199.1Z" fill="#FFC431"/>
<path d="M249.7 151.4C228.4 138.8 193 139.7 170.4 153.3L170 153.5C147.4 167.3 146.5 188.7 167.9 201.4C189.3 214 225 213.1 247.6 199.3L248 199.1C270.2 185.3 271 164 249.7 151.4ZM240.5 194.7L240.2 194.9C222 206 193.1 206.8 175.9 196.6C158.6 186.4 159.4 169.1 177.6 157.9L178 157.7C196.2 146.8 224.8 146.1 242 156.2C259 166.3 258.3 183.5 240.5 194.7Z" fill="url(#paint10_linear)"/>
<path d="M241.4 158.8C224.4 148.8 196.1 149.5 178 160.3L177.6 160.5C167.9 166.4 163.3 174.1 163.6 181.5C164.7 187.1 168.4 193.5 175.7 197.2C211.8 215.4 240.4 194.6 240.4 194.6C247.7 190.1 252 184.5 253.6 178.8C254.5 171.5 250.5 164.2 241.4 158.8Z" fill="url(#paint11_linear)"/>
<path d="M234.5 158.7L227.9 162.4C223.6 161 219.2 160.5 214.7 160.9C210.2 161.3 206.1 162.5 202.4 164.7L202.3 164.8L212.2 169.3C214.2 168.1 216.2 167.5 218.1 167.3C219.9 167.1 221.7 167.4 223.3 168.1C225 168.8 225.7 169.6 225.5 170.4C225.3 171.2 224.5 172 223 172.8C221.6 173.6 220.2 174 218.6 174.2C217.1 174.3 214.6 174.2 211.3 173.8C205.1 172.6 199.8 172.1 195.3 172.3C190.8 172.5 186.6 173.7 182.7 175.9C179.1 177.9 177.3 180.1 177.4 182.3C177.5 184.5 179.2 186.6 182.8 188.6L176.6 192.1L181.4 194.3L187.6 190.8C192 192.4 196.6 193.2 201.5 193.1C206.4 193 211 191.6 215.4 189.1L215.5 189L205.6 184.5C203.2 185.8 201 186.5 198.9 186.6C196.8 186.7 194.8 186.3 192.9 185.4C191.2 184.7 190.5 183.9 190.6 183C190.7 182.2 191.4 181.4 192.8 180.6C194.4 179.7 196.1 179.1 197.7 179C199.3 178.9 201.7 179 204.8 179.5C211.3 180.7 216.7 181.2 221 181.1C225.3 181 229.4 179.8 233.3 177.6C236.8 175.6 238.5 173.5 238.4 171.2C238.3 168.9 236.4 166.7 232.8 164.8L239.3 161.1L234.5 158.7Z" fill="white"/>
<path d="M251.4 143.7C234.2 133.6 205.7 134.3 187.4 145.2L187 145.4C177.8 151 173.1 158.2 172.8 165.2C172.7 167.2 172.7 169.2 172.6 171.2C172.5 173.2 172.5 175.2 172.4 177.2C172.6 170.2 177.4 163 186.6 157.4L187 157.2C205.2 146.3 233.8 145.6 251 155.7C259.6 160.8 263.7 167.6 263.5 174.5C263.6 170.5 263.8 166.5 263.9 162.5C264.1 155.6 260 148.7 251.4 143.7Z" fill="#FDA014"/>
<path d="M251.4 143.7C234.2 133.6 205.7 134.3 187.4 145.2L187 145.4C177.8 151 173.1 158.2 172.8 165.2C172.7 167.2 172.7 169.2 172.6 171.2C172.5 173.2 172.5 175.2 172.4 177.2C172.6 170.2 177.4 163 186.6 157.4L187 157.2C205.2 146.3 233.8 145.6 251 155.7C259.6 160.8 263.7 167.6 263.5 174.5C263.6 170.5 263.8 166.5 263.9 162.5C264.1 155.6 260 148.7 251.4 143.7Z" fill="#EA7A00"/>
<path d="M257.5 186.5L257.1 186.7C234.5 200.5 198.9 201.5 177.4 188.8C166.8 182.5 161.6 174.1 161.9 165.5C161.8 169.5 161.6 173.5 161.5 177.5C161.2 186.1 166.3 194.6 177 200.8C198.4 213.4 234.1 212.5 256.7 198.7L257.1 198.5C268.2 191.6 274 182.8 274.3 174.2C274.4 170.2 274.6 166.2 274.7 162.2C274.4 170.8 268.6 179.6 257.5 186.5Z" fill="#EA7A00"/>
<path opacity="0.27" d="M257.5 186.5L257.1 186.7C249.5 191.4 229.3 195.7 219.7 197.4L218.9 209.4C235 208.9 248.9 203.4 256.7 198.7L257.1 198.5C264.7 193.8 269.8 188.1 272.3 182.3L273.2 169.3C270.8 175.5 265.6 181.5 257.5 186.5Z" fill="#FFC431"/>
<path opacity="0.69" d="M257.5 186.5L257.1 186.7C251 190.4 244 193.2 236.6 195L235.8 207C243.4 205.2 250.5 202.4 256.7 198.6L257.1 198.4C262.8 194.9 267 190.9 269.9 186.6L270.7 174C267.9 178.6 263.5 182.8 257.5 186.5Z" fill="#FFC431"/>
<path d="M259.2 138.9C237.9 126.3 202.5 127.2 179.9 140.8L179.5 141C156.9 154.8 156 176.2 177.4 188.9C198.8 201.5 234.5 200.6 257.1 186.8L257.5 186.6C279.7 172.7 280.5 151.4 259.2 138.9ZM250 182.1L249.7 182.3C231.5 193.4 202.6 194.2 185.4 184C168.1 173.8 168.9 156.5 187.1 145.3L187.5 145.1C205.7 134.2 234.3 133.5 251.5 143.6C268.5 153.8 267.9 171 250 182.1Z" fill="url(#paint12_linear)"/>
<path d="M251 146.3C234 136.3 205.7 137 187.6 147.8L187.2 148C177.5 153.9 172.9 161.6 173.2 169C174.3 174.6 178 181 185.3 184.7C221.4 202.9 250 182.1 250 182.1C257.3 177.6 261.6 172 263.2 166.3C264.1 159 260.1 151.6 251 146.3Z" fill="url(#paint13_linear)"/>
<path d="M244.1 146.1L237.5 149.8C233.2 148.4 228.8 147.9 224.3 148.3C219.8 148.7 215.7 149.9 212 152.1L211.9 152.2L221.8 156.7C223.8 155.5 225.8 154.9 227.7 154.7C229.5 154.5 231.3 154.8 232.9 155.5C234.6 156.2 235.3 157 235.1 157.8C234.9 158.6 234.1 159.4 232.6 160.2C231.2 161 229.8 161.4 228.2 161.6C226.7 161.7 224.2 161.6 220.9 161.2C214.7 160 209.4 159.5 204.9 159.7C200.4 159.9 196.2 161.1 192.3 163.3C188.7 165.3 186.9 167.5 187 169.7C187.1 171.9 188.8 174 192.4 176L186.2 179.5L191 181.7L197.2 178.2C201.6 179.8 206.2 180.6 211.1 180.5C216 180.4 220.6 179 225 176.5L225.1 176.4L215.2 171.9C212.8 173.2 210.6 173.9 208.5 174C206.4 174.1 204.4 173.7 202.5 172.8C200.8 172.1 200.1 171.3 200.2 170.4C200.3 169.6 201 168.8 202.4 168C204 167.1 205.7 166.5 207.3 166.4C208.9 166.3 211.3 166.4 214.4 166.9C220.9 168.1 226.3 168.6 230.6 168.5C234.9 168.4 239 167.2 242.9 165C246.4 163 248.1 160.9 248 158.6C247.9 156.3 246 154.1 242.4 152.2L248.9 148.5L244.1 146.1Z" fill="white"/>
<path d="M245.3 126.5C228.1 116.4 199.6 117.1 181.3 128L180.9 128.2C171.7 133.8 167 141 166.7 148C166.6 150 166.6 152 166.5 154C166.4 156 166.4 158 166.3 160C166.5 153 171.3 145.8 180.5 140.2L180.9 140C199.1 129.1 227.7 128.4 244.9 138.5C253.5 143.6 257.6 150.4 257.4 157.3C257.5 153.3 257.7 149.3 257.8 145.3C258 138.4 253.9 131.6 245.3 126.5Z" fill="#FDA014"/>
<path d="M245.3 126.5C228.1 116.4 199.6 117.1 181.3 128L180.9 128.2C171.7 133.8 167 141 166.7 148C166.6 150 166.6 152 166.5 154C166.4 156 166.4 158 166.3 160C166.5 153 171.3 145.8 180.5 140.2L180.9 140C199.1 129.1 227.7 128.4 244.9 138.5C253.5 143.6 257.6 150.4 257.4 157.3C257.5 153.3 257.7 149.3 257.8 145.3C258 138.4 253.9 131.6 245.3 126.5Z" fill="#EA7A00"/>
<path d="M251.4 169.3L251 169.5C228.4 183.3 192.8 184.3 171.3 171.6C160.7 165.3 155.5 156.9 155.8 148.3C155.7 152.3 155.5 156.3 155.4 160.3C155.1 168.9 160.2 177.4 170.9 183.6C192.3 196.2 228 195.3 250.6 181.5L251 181.3C262.1 174.4 267.9 165.6 268.2 157C268.3 153 268.5 149 268.6 145C268.3 153.6 262.6 162.4 251.4 169.3Z" fill="#EA7A00"/>
<path opacity="0.27" d="M251.5 169.4L251.1 169.6C243.5 174.3 223.3 178.6 213.7 180.3L212.9 192.3C229 191.8 242.9 186.3 250.7 181.6L251.1 181.4C258.7 176.7 263.8 171 266.3 165.2L267.2 152.2C264.7 158.4 259.5 164.4 251.5 169.4Z" fill="#FFC431"/>
<path opacity="0.69" d="M251.5 169.4L251.1 169.6C245 173.3 238 176.1 230.6 177.9L229.8 189.9C237.4 188.1 244.5 185.3 250.7 181.5L251.1 181.3C256.8 177.8 261 173.8 263.9 169.5L264.7 156.9C261.8 161.4 257.4 165.7 251.5 169.4Z" fill="#FFC431"/>
<path d="M253.2 121.7C231.9 109.1 196.5 110 173.9 123.6L173.5 123.8C150.9 137.6 150 159 171.4 171.7C192.8 184.3 228.5 183.4 251.1 169.6L251.5 169.4C273.7 155.6 274.5 134.3 253.2 121.7ZM244 165L243.7 165.2C225.5 176.3 196.6 177.1 179.4 166.9C162.1 156.7 162.9 139.4 181.1 128.2L181.5 128C199.7 117.1 228.3 116.4 245.5 126.5C262.5 136.6 261.8 153.8 244 165Z" fill="url(#paint14_linear)"/>
<path d="M244.9 129.1C227.9 119.1 199.6 119.8 181.5 130.6L181.1 130.8C171.4 136.7 166.8 144.4 167.1 151.8C168.2 157.4 171.9 163.8 179.2 167.5C215.3 185.7 243.9 164.9 243.9 164.9C251.2 160.4 255.5 154.8 257.1 149.1C258 141.8 254 134.5 244.9 129.1Z" fill="url(#paint15_linear)"/>
<path d="M243.8 152.7C243.9 150.5 242.1 148.3 238.5 146.3C234.6 144.1 230.4 142.9 225.9 142.7C221.4 142.5 216 143 209.9 144.2C206.6 144.6 204.2 144.7 202.6 144.6C201.1 144.5 199.6 144 198.2 143.2C196.8 142.4 195.9 141.6 195.7 140.8C195.5 140 196.2 139.2 197.9 138.5C199.5 137.8 201.2 137.5 203.1 137.7C205 137.9 206.9 138.5 209 139.7L218.9 135.2L218.8 135.1C215.1 133 211 131.7 206.5 131.3C202 130.9 197.6 131.4 193.3 132.8L186.7 129.1L181.9 131.2L188.4 134.9C184.8 136.9 182.9 139 182.8 141.3C182.7 143.6 184.4 145.8 187.9 147.7C191.8 149.9 195.9 151.1 200.2 151.2C204.5 151.4 209.9 150.8 216.4 149.6C219.5 149.1 221.8 149 223.5 149.1C225.1 149.2 226.7 149.8 228.4 150.7C229.8 151.5 230.6 152.3 230.6 153.1C230.7 153.9 229.9 154.7 228.3 155.5C226.4 156.4 224.4 156.7 222.3 156.7C220.2 156.6 217.9 155.9 215.6 154.6L205.7 159.1L205.8 159.2C210.2 161.8 214.8 163.1 219.7 163.2C224.6 163.3 229.3 162.6 233.6 160.9L239.8 164.4L244.6 162.2L238.4 158.7C242 157 243.8 154.9 243.8 152.7Z" fill="white"/>
<path d="M253.9 101C236.4 90.6999 207.1 91.3999 188.5 102.6L188.1 102.8C178.7 108.5 173.9 115.9 173.6 123.1C173.5 125.1 173.5 127.2 173.4 129.2C173.3 131.2 173.3 133.3 173.2 135.3C173.5 128.1 178.3 120.8 187.7 115L188.1 114.8C206.7 103.6 235.9 102.9 253.5 113.2C262.3 118.4 266.5 125.3 266.2 132.4C266.3 128.3 266.5 124.3 266.6 120.2C266.8 113.2 262.6 106.2 253.9 101Z" fill="#FDA014"/>
<path d="M253.9 101C236.4 90.6999 207.1 91.3999 188.5 102.6L188.1 102.8C178.7 108.5 173.9 115.9 173.6 123.1C173.5 125.1 173.5 127.2 173.4 129.2C173.3 131.2 173.3 133.3 173.2 135.3C173.5 128.1 178.3 120.8 187.7 115L188.1 114.8C206.7 103.6 235.9 102.9 253.5 113.2C262.3 118.4 266.5 125.3 266.2 132.4C266.3 128.3 266.5 124.3 266.6 120.2C266.8 113.2 262.6 106.2 253.9 101Z" fill="#EA7A00"/>
<path d="M260.1 144.8L259.7 145C236.6 159.1 200.2 160.1 178.3 147.2C167.4 140.8 162.2 132.2 162.5 123.4C162.4 127.5 162.2 131.5 162.1 135.6C161.8 144.4 167 153 177.9 159.4C199.8 172.3 236.2 171.3 259.3 157.2L259.7 157C271.1 149.9 277 140.9 277.3 132.1C277.4 128 277.6 124 277.7 119.9C277.4 128.7 271.5 137.7 260.1 144.8Z" fill="#EA7A00"/>
<path opacity="0.27" d="M260.1 144.8L259.7 145C251.9 149.8 231.3 154.2 221.5 155.9L220.7 168.2C237.1 167.7 251.4 162.1 259.3 157.2L259.7 157C267.5 152.1 272.7 146.4 275.3 140.4L276.2 127.2C273.7 133.6 268.4 139.7 260.1 144.8Z" fill="#FFC431"/>
<path opacity="0.69" d="M260.1 144.8L259.7 145C253.5 148.8 246.3 151.6 238.7 153.5L237.9 165.8C245.6 163.9 252.9 161.1 259.2 157.2L259.6 157C265.4 153.4 269.7 149.3 272.7 145L273.6 132.1C270.7 136.7 266.2 141 260.1 144.8Z" fill="#FFC431"/>
<path d="M261.9 96.1001C240.1 83.3001 204 84.2001 180.9 98.1001L180.5 98.3001C157.4 112.4 156.5 134.3 178.4 147.2C200.3 160.1 236.7 159.1 259.8 145L260.2 144.8C282.8 130.7 283.7 109 261.9 96.1001ZM252.5 140.3L252.1 140.5C233.5 151.9 204 152.7 186.3 142.3C168.6 131.9 169.4 114.2 188 102.8L188.4 102.6C207 91.4001 236.2 90.7001 253.8 101C271.4 111.4 270.7 128.9 252.5 140.3Z" fill="url(#paint16_linear)"/>
<path d="M253.5 103.7C236.1 93.4002 207.2 94.2002 188.7 105.2L188.3 105.4C178.4 111.5 173.7 119.3 174 126.9C175.1 132.6 178.9 139.2 186.3 142.9C223.2 161.5 252.5 140.3 252.5 140.3C259.9 135.7 264.4 130 266 124.2C266.9 116.7 262.8 109.2 253.5 103.7Z" fill="url(#paint17_linear)"/>
<path d="M246.1 125.1C246.1 122.8 244.5 120.8 241.4 119H241.2L232.2 124.2C233.9 125.2 234.7 126.2 234.8 127.1C234.8 128 234.1 128.9 232.7 129.7C231.2 130.6 229.8 131 228.5 130.9C227.2 130.8 225.9 130.5 224.7 129.8C223.6 129.1 223 128.4 223 127.6C223 126.8 223.5 125.6 224.7 123.9C227.6 120.7 229.2 118 229.5 115.7C229.8 113.4 228.3 111.3 225.1 109.5C222.1 107.8 218.8 107 215 107.1C211.2 107.2 207.4 108.2 203.6 110.1L198.5 107.1L194.2 109.6L199.3 112.6C195.9 114.9 194 117.3 193.5 119.8C193 122.3 194.7 124.5 198.5 126.6L198.7 126.7L207.6 121.5C205.7 120.4 204.8 119.3 204.9 118.2C205.1 117.1 206 116.1 207.7 115.1C209.2 114.2 210.6 113.8 212 113.8C213.4 113.8 214.7 114.1 215.8 114.8C217.2 115.6 217.8 116.4 217.8 117.2C217.8 118 217.2 119.2 216 120.8C213.1 124.2 211.5 126.9 211.2 129.1C210.9 131.3 212.3 133.3 215.5 135.2C218.4 136.9 221.8 137.6 225.8 137.5C229.8 137.3 233.7 136.3 237.5 134.4L242.9 137.5L247.2 135L241.8 131.8C244.6 129.7 246.1 127.4 246.1 125.1Z" fill="white"/>
<path d="M257.3 76.3998C239.8 66.0998 210.5 66.7998 191.9 77.9998L191.5 78.1998C182.1 83.8998 177.3 91.2998 177 98.4998C176.9 100.5 176.9 102.6 176.8 104.6C176.7 106.6 176.7 108.7 176.6 110.7C176.9 103.5 181.7 96.1998 191.1 90.3998L191.5 90.1998C210.1 78.9998 239.3 78.2998 256.9 88.5998C265.7 93.7998 269.9 100.7 269.6 107.8C269.7 103.7 269.9 99.6998 270 95.5998C270.2 88.4998 266 81.5998 257.3 76.3998Z" fill="#FDA014"/>
<path d="M257.3 76.3998C239.8 66.0998 210.5 66.7998 191.9 77.9998L191.5 78.1998C182.1 83.8998 177.3 91.2998 177 98.4998C176.9 100.5 176.9 102.6 176.8 104.6C176.7 106.6 176.7 108.7 176.6 110.7C176.9 103.5 181.7 96.1998 191.1 90.3998L191.5 90.1998C210.1 78.9998 239.3 78.2998 256.9 88.5998C265.7 93.7998 269.9 100.7 269.6 107.8C269.7 103.7 269.9 99.6998 270 95.5998C270.2 88.4998 266 81.5998 257.3 76.3998Z" fill="#EA7A00"/>
<path d="M263.5 120.1L263.1 120.3C240 134.4 203.6 135.4 181.7 122.5C170.8 116.1 165.6 107.5 165.9 98.7002C165.8 102.8 165.6 106.8 165.5 110.9C165.2 119.7 170.4 128.3 181.3 134.7C203.2 147.6 239.6 146.6 262.7 132.5L263.1 132.3C274.5 125.2 280.4 116.2 280.7 107.4C280.8 103.3 281 99.3002 281.1 95.2002C280.8 104.1 274.9 113.1 263.5 120.1Z" fill="#EA7A00"/>
<path opacity="0.27" d="M263.5 120.2L263.1 120.4C255.3 125.2 234.7 129.6 224.9 131.3L224.1 143.6C240.5 143.1 254.8 137.5 262.7 132.6L263.1 132.4C270.9 127.5 276.1 121.8 278.7 115.8L279.6 102.6C277.1 108.9 271.8 115.1 263.5 120.2Z" fill="#FFC431"/>
<path opacity="0.69" d="M263.5 120.2L263.1 120.4C256.9 124.2 249.7 127 242.1 128.9L241.3 141.2C249 139.3 256.3 136.5 262.6 132.6L263 132.4C268.8 128.8 273.1 124.7 276.1 120.4L277 107.5C274.1 112 269.6 116.4 263.5 120.2Z" fill="#FFC431"/>
<path d="M265.3 71.5C243.5 58.7 207.4 59.6 184.3 73.5L183.9 73.7C160.8 87.8 159.9 109.7 181.8 122.6C203.7 135.5 240.1 134.5 263.2 120.4L263.6 120.2C286.2 106.1 287.1 84.3 265.3 71.5ZM255.9 115.7L255.5 115.9C236.9 127.3 207.4 128.1 189.7 117.7C172 107.3 172.8 89.6 191.4 78.2L191.8 78C210.4 66.8 239.6 66.1 257.2 76.4C274.8 86.7 274.1 104.3 255.9 115.7Z" fill="url(#paint18_linear)"/>
<path d="M256.9 79.1001C239.5 68.8001 210.6 69.6001 192.1 80.6001L191.7 80.8001C181.8 86.9001 177.1 94.7001 177.4 102.3C178.5 108 182.3 114.6 189.7 118.3C226.6 136.9 255.9 115.7 255.9 115.7C263.3 111.1 267.8 105.4 269.4 99.6001C270.3 92.1001 266.2 84.5001 256.9 79.1001Z" fill="url(#paint19_linear)"/>
<path d="M249.8 78.8999L243.1 82.6999C238.7 81.2999 234.2 80.7999 229.6 81.0999C225 81.4999 220.8 82.7999 217 84.9999L216.9 85.0999L227.1 89.6999C229.2 88.4999 231.2 87.7999 233.1 87.6999C235 87.4999 236.8 87.7999 238.4 88.4999C240.1 89.2999 240.8 90.0999 240.6 90.8999C240.4 91.6999 239.6 92.5999 238.1 93.3999C236.7 94.1999 235.2 94.6999 233.6 94.7999C232 94.8999 229.5 94.7999 226.2 94.3999C219.9 93.1999 214.4 92.5999 209.8 92.7999C205.2 92.9999 200.9 94.1999 196.9 96.4999C193.2 98.5999 191.4 100.8 191.5 103C191.6 105.3 193.4 107.4 197 109.4L190.7 113L195.6 115.2L201.9 111.6C206.4 113.3 211.1 114 216.2 113.9C221.2 113.8 225.9 112.4 230.4 109.8L230.5 109.7L220.4 105.1C218 106.5 215.7 107.2 213.5 107.2C211.3 107.3 209.3 106.9 207.3 106C205.6 105.2 204.8 104.4 204.9 103.6C205 102.8 205.8 101.9 207.2 101.1C208.9 100.2 210.5 99.5999 212.2 99.4999C213.9 99.3999 216.3 99.4999 219.4 99.9999C226.1 101.2 231.6 101.7 236 101.6C240.4 101.4 244.6 100.2 248.5 97.9999C252.1 95.9999 253.8 93.7999 253.7 91.3999C253.6 88.9999 251.7 86.7999 248 84.7999L254.6 80.9999L249.8 78.8999Z" fill="white"/>
<path d="M247.5 61.9999C230 51.6999 200.7 52.3999 182.1 63.5999L181.7 63.7999C172.3 69.4999 167.5 76.8999 167.2 84.0999C167.1 86.0999 167.1 88.1999 167 90.1999C166.9 92.1999 166.9 94.2999 166.8 96.2999C167.1 89.0999 171.9 81.7999 181.3 75.9999L181.7 75.7999C200.3 64.5999 229.5 63.8999 247.1 74.1999C255.9 79.3999 260.1 86.2999 259.8 93.3999C259.9 89.2999 260.1 85.2999 260.2 81.1999C260.5 74.1999 256.2 67.1999 247.5 61.9999Z" fill="#FDA014"/>
<path d="M247.5 61.9999C230 51.6999 200.7 52.3999 182.1 63.5999L181.7 63.7999C172.3 69.4999 167.5 76.8999 167.2 84.0999C167.1 86.0999 167.1 88.1999 167 90.1999C166.9 92.1999 166.9 94.2999 166.8 96.2999C167.1 89.0999 171.9 81.7999 181.3 75.9999L181.7 75.7999C200.3 64.5999 229.5 63.8999 247.1 74.1999C255.9 79.3999 260.1 86.2999 259.8 93.3999C259.9 89.2999 260.1 85.2999 260.2 81.1999C260.5 74.1999 256.2 67.1999 247.5 61.9999Z" fill="#EA7A00"/>
<path d="M253.7 105.8L253.3 106C230.2 120.1 193.8 121.1 171.9 108.2C161 101.8 155.8 93.1999 156.1 84.3999C156 88.4999 155.8 92.4999 155.7 96.5999C155.4 105.4 160.6 114 171.5 120.4C193.4 133.3 229.8 132.3 252.9 118.2L253.3 118C264.7 110.9 270.6 101.9 270.9 93.0999C271 88.9999 271.2 84.9999 271.3 80.8999C271 89.6999 265.1 98.6999 253.7 105.8Z" fill="#EA7A00"/>
<path opacity="0.27" d="M253.7 105.8L253.3 106C245.5 110.8 224.9 115.2 215.1 116.9L214.3 129.2C230.7 128.7 245 123.1 252.9 118.2L253.3 118C261.1 113.1 266.3 107.4 268.9 101.4L269.8 88.2002C267.3 94.5002 262 100.7 253.7 105.8Z" fill="#FFC431"/>
<path opacity="0.69" d="M253.7 105.8L253.3 106C247.1 109.8 239.9 112.6 232.3 114.5L231.5 126.8C239.2 124.9 246.5 122.1 252.8 118.2L253.2 118C259 114.4 263.3 110.3 266.3 106L267.2 93.1001C264.3 97.7001 259.8 102 253.7 105.8Z" fill="#FFC431"/>
<path d="M255.5 57.1001C233.7 44.3001 197.6 45.2001 174.5 59.1001L174.1 59.3001C151 73.4001 150.1 95.3001 172 108.2C193.9 121.1 230.3 120.1 253.4 106L253.8 105.8C276.4 91.7001 277.3 69.9001 255.5 57.1001ZM246.1 101.3L245.7 101.5C227.1 112.9 197.6 113.7 179.9 103.3C162.2 92.9001 163 75.2001 181.6 63.8001L182 63.6001C200.6 52.4001 229.8 51.7001 247.4 62.0001C265 72.4001 264.3 89.9001 246.1 101.3Z" fill="url(#paint20_linear)"/>
<path d="M247.1 64.7002C229.7 54.4002 200.8 55.2002 182.3 66.2002L181.9 66.4002C172 72.5002 167.3 80.3002 167.6 87.9002C168.7 93.6002 172.5 100.2 179.9 103.9C216.8 122.5 246.1 101.3 246.1 101.3C253.5 96.7002 258 91.0002 259.6 85.2002C260.5 77.7002 256.4 70.1002 247.1 64.7002Z" fill="url(#paint21_linear)"/>
<path d="M240 64.5L233.3 68.3C228.9 66.9 224.4 66.4 219.8 66.7C215.2 67.1 211 68.4 207.2 70.6L207.1 70.7L217.3 75.3C219.4 74.1 221.4 73.4 223.3 73.3C225.2 73.1 227 73.4 228.6 74.1C230.3 74.9 231 75.7 230.8 76.5C230.6 77.3 229.8 78.2 228.3 79C226.9 79.8 225.4 80.3 223.8 80.4C222.2 80.5 219.7 80.4 216.4 80C210.1 78.8 204.6 78.2 200 78.4C195.4 78.6 191.1 79.8 187.1 82.1C183.4 84.2 181.6 86.4 181.7 88.6C181.8 90.9 183.6 93 187.2 95L180.9 98.6L185.8 100.8L192.1 97.2C196.6 98.9 201.3 99.6 206.4 99.5C211.4 99.4 216.1 98 220.6 95.4L220.7 95.3L210.6 90.7C208.2 92.1 205.9 92.8 203.7 92.8C201.5 92.9 199.5 92.5 197.5 91.6C195.8 90.8 195 90 195.1 89.2C195.2 88.4 196 87.5 197.4 86.7C199.1 85.8 200.7 85.2 202.4 85.1C204.1 85 206.5 85.1 209.6 85.6C216.3 86.8 221.8 87.3 226.2 87.2C230.6 87 234.8 85.8 238.7 83.6C242.3 81.6 244 79.4 243.9 77C243.8 74.6 241.9 72.4 238.2 70.4L244.8 66.6L240 64.5Z" fill="white"/>
<path d="M253.8 48.1C236.3 37.8 207 38.5 188.4 49.7L188 49.9C178.6 55.6 173.8 63 173.5 70.2C173.4 72.2 173.4 74.3 173.3 76.3C173.2 78.3 173.2 80.4 173.1 82.4C173.4 75.2 178.2 67.9 187.6 62.1L188 61.9C206.6 50.7 235.8 50 253.4 60.3C262.2 65.5 266.4 72.4 266.1 79.5C266.2 75.4 266.4 71.4 266.5 67.3C266.8 60.2 262.5 53.3 253.8 48.1Z" fill="#FDA014"/>
<path d="M253.8 48.1C236.3 37.8 207 38.5 188.4 49.7L188 49.9C178.6 55.6 173.8 63 173.5 70.2C173.4 72.2 173.4 74.3 173.3 76.3C173.2 78.3 173.2 80.4 173.1 82.4C173.4 75.2 178.2 67.9 187.6 62.1L188 61.9C206.6 50.7 235.8 50 253.4 60.3C262.2 65.5 266.4 72.4 266.1 79.5C266.2 75.4 266.4 71.4 266.5 67.3C266.8 60.2 262.5 53.3 253.8 48.1Z" fill="#EA7A00"/>
<path d="M260 91.8L259.6 92C236.5 106.1 200.1 107.1 178.2 94.2C167.3 87.8 162.1 79.2 162.4 70.4C162.3 74.5 162.1 78.5 162 82.6C161.7 91.4 166.9 100 177.8 106.4C199.7 119.3 236.1 118.3 259.2 104.2L259.6 104C271 97 276.9 88 277.2 79.2C277.3 75.1 277.5 71.1 277.6 67C277.3 75.8 271.4 84.8 260 91.8Z" fill="#EA7A00"/>
<path opacity="0.27" d="M260 91.9003L259.6 92.1003C251.8 96.9003 231.2 101.3 221.4 103L220.6 115.3C237 114.8 251.3 109.2 259.2 104.3L259.6 104.1C267.4 99.2003 272.6 93.5003 275.2 87.5003L276.1 74.3003C273.6 80.6003 268.3 86.8003 260 91.9003Z" fill="#FFC431"/>
<path opacity="0.69" d="M260 91.9002L259.6 92.1002C253.4 95.9002 246.2 98.7002 238.6 100.6L237.8 112.9C245.5 111 252.8 108.2 259.1 104.3L259.5 104.1C265.3 100.5 269.6 96.4002 272.6 92.1002L273.5 79.2002C270.6 83.7002 266.2 88.1002 260 91.9002Z" fill="#FFC431"/>
<path d="M261.8 43.2002C240 30.4002 203.9 31.3002 180.8 45.2002L180.4 45.4002C157.3 59.5002 156.4 81.4002 178.3 94.3002C200.2 107.2 236.6 106.2 259.7 92.1002L260.1 91.9002C282.8 77.8002 283.6 56.0002 261.8 43.2002ZM252.4 87.4002L252 87.6002C233.5 99.0002 204 99.8002 186.3 89.4002C168.6 79.0002 169.4 61.2002 188 49.9002L188.4 49.7002C207 38.5002 236.2 37.8002 253.8 48.1002C271.3 58.4002 270.7 76.0002 252.4 87.4002Z" fill="url(#paint22_linear)"/>
<path d="M253.4 50.8003C236 40.5003 207.1 41.3003 188.6 52.3003L188.2 52.5003C178.3 58.6003 173.6 66.4003 173.9 74.0003C175 79.7003 178.8 86.3003 186.2 90.0003C223.1 108.6 252.4 87.4003 252.4 87.4003C259.8 82.8003 264.3 77.1003 265.9 71.3003C266.8 63.7003 262.7 56.2003 253.4 50.8003Z" fill="url(#paint23_linear)"/>
<path d="M252.5 75.3002C252.6 73.0002 250.8 70.8002 247.1 68.8002C243.1 66.6002 238.9 65.3002 234.2 65.1002C229.6 64.9002 224.1 65.4002 217.8 66.7002C214.4 67.1002 211.9 67.2002 210.4 67.1002C208.8 67.0002 207.3 66.5002 205.9 65.7002C204.4 64.9002 203.6 64.0002 203.4 63.2002C203.2 62.4002 203.9 61.6002 205.6 60.8002C207.2 60.1002 209 59.8002 210.9 60.0002C212.8 60.2002 214.8 60.8002 216.9 62.0002L227.1 57.4002L227 57.3002C223.2 55.1002 219 53.8002 214.4 53.4002C209.8 53.0002 205.3 53.5002 200.9 55.0002L194.2 51.2002L189.3 53.4002L195.9 57.2002C192.2 59.2002 190.3 61.4002 190.2 63.8002C190.1 66.2002 191.9 68.4002 195.4 70.4002C199.4 72.7002 203.6 73.9002 207.9 74.0002C212.3 74.2002 217.8 73.6002 224.5 72.4002C227.7 71.9002 230.1 71.8002 231.7 71.9002C233.3 72.0002 235 72.6002 236.7 73.5002C238.1 74.3002 238.9 75.2002 239 76.0002C239.1 76.8002 238.3 77.6002 236.6 78.4002C234.7 79.3002 232.6 79.7002 230.4 79.6002C228.2 79.5002 226 78.8002 223.5 77.5002L213.6 82.0002L213.7 82.1002C218.2 84.7002 222.9 86.1002 227.9 86.2002C232.9 86.3002 237.7 85.5002 242.2 83.9002L248.5 87.5002L253.4 85.3002L247.1 81.7002C250.7 79.7002 252.5 77.6002 252.5 75.3002Z" fill="white"/>
<path opacity="0.37" d="M43.7 248.8C45.4 250.2 67.1 233.5 67.8 233.2L85.4 160.5L11.7 213C11.7 213 41.9 247.4 43.7 248.8Z" fill="#00638E"/>
<path d="M125.3 71.3998L54 107C46.5 110.7 40.5 119.8 40.5 127.2L41.1 243C41.1 246 42.1 248.3 43.7 249.7L49.7 253.3L125.8 214.2C133.3 210.5 139.3 201.4 139.3 194L140.6 73.9998L135.7 71.1998C133.2 69.2998 129.5 69.2998 125.3 71.3998Z" fill="#001D56"/>
<path d="M130.2 74.1999L59 109.9C51.5 113.6 45.5 122.7 45.5 130.1L46 245.9C46 253.4 52 256.4 59.5 252.6L130.8 217C141.5 212.7 144.3 204.4 144.3 196.8L143.7 80.9999C143.7 73.4999 137.7 70.4999 130.2 74.1999Z" fill="#083D7C"/>
<path d="M128 86.7999L60.3 120.6C56.1 122.7 52.6 127.9 52.6 132.1V142C52.6 146.2 56 147.9 60.3 145.8L128 112C132.2 109.9 135.7 104.7 135.7 100.5V90.5999C135.7 86.3999 132.2 84.6999 128 86.7999Z" fill="#70E2E5"/>
<path d="M104.4 104.8C102.5 105.7 101.5 107.4 101.5 109.3V109.7C101.5 110.9 101.9 111.5 102.7 111.5C101.9 112.4 101.5 113.4 101.5 114.6V115.5C101.5 117.4 102.5 118 104.4 117C106.3 116.1 107.3 114.4 107.3 112.5V111.6C107.3 110.5 107 109.7 106.1 109.7C106.9 108.9 107.3 107.9 107.3 106.7V106.3C107.3 104.5 106.3 103.9 104.4 104.8ZM105.4 113.5C105.4 114.6 104.9 115.1 104.3 115.4C103.7 115.7 103.2 115.6 103.2 114.6V113.5C103.2 112.6 103.6 112 104.3 111.6C105 111.3 105.4 111.5 105.4 112.4V113.5ZM105.4 108C105.4 109 104.9 109.5 104.3 109.8C103.7 110.1 103.2 110 103.2 109.1V108.4C103.2 107.3 103.7 106.8 104.3 106.5C104.9 106.2 105.4 106.3 105.4 107.3V108Z" fill="white"/>
<path d="M111.1 101.5C109.3 102.4 108.2 104 108.2 105.9V112.1C108.2 114 109.2 114.6 111.1 113.7C112.9 112.8 113.9 111.2 113.9 109.3V103C114 101.1 113 100.5 111.1 101.5ZM112.1 110.3C112.1 111.2 111.7 111.7 111.1 112C110.5 112.3 110.1 112.2 110.1 111.3V104.9C110.1 104 110.5 103.5 111.1 103.2C111.7 102.9 112.1 103 112.1 103.9V110.3Z" fill="white"/>
<path d="M118.3 98.1996C116.5 99.0996 115.4 100.7 115.4 102.6V108.8C115.4 110.7 116.4 111.3 118.3 110.4C120.1 109.5 121.1 107.9 121.1 106V99.7996C121.1 97.8996 120.1 97.2996 118.3 98.1996ZM119.2 107C119.2 107.9 118.8 108.4 118.2 108.7C117.6 109 117.2 108.9 117.2 108V101.6C117.2 100.7 117.6 100.2 118.2 99.8996C118.8 99.5996 119.2 99.6996 119.2 100.6V107Z" fill="white"/>
<path d="M125.1 94.7997C123.3 95.6997 122.2 97.2997 122.2 99.1997V105.4C122.2 107.3 123.2 107.9 125.1 107C126.9 106.1 127.9 104.5 127.9 102.6V96.3997C127.9 94.4997 126.9 93.8997 125.1 94.7997ZM126.1 103.6C126.1 104.5 125.7 105 125.1 105.3C124.5 105.6 124.1 105.5 124.1 104.6V98.1997C124.1 97.2997 124.5 96.7997 125.1 96.4997C125.7 96.1997 126.1 96.2997 126.1 97.1997V103.6Z" fill="white"/>
<path opacity="0.45" d="M52.7 132.1V142C52.7 143.1 53 144 53.4 144.8C67.9 133.4 108.4 101.7 127.2 87.1997L60.4 120.6C56.1 122.8 52.7 127.9 52.7 132.1Z" fill="white"/>
<g opacity="0.57">
<g opacity="0.57">
<path opacity="0.57" d="M75.7 150.6L75.8 157.1L77.3 157.8L94.7 142.5L93.2 141.8L75.7 150.6Z" fill="#33B3C4"/>
<path opacity="0.57" d="M75.7 160.8V175.2L77.2 175.9L94.6 152.7L93.2 152L75.7 160.8Z" fill="#33B3C4"/>
<path opacity="0.57" d="M75.7 178.4V192.9L77.2 193.6L94.8 170.2L93.3 169.5L75.7 178.4Z" fill="#33B3C4"/>
<path opacity="0.57" d="M75.7 196.4L75.9 210.7L77.4 211.3L94.8 188.3L93.3 187.6L75.7 196.4Z" fill="#33B3C4"/>
<path opacity="0.57" d="M75.7 214.7V229.3L77.2 229.9L94.8 206.6L93.3 205.9L75.7 214.7Z" fill="#33B3C4"/>
</g>
<g opacity="0.57">
<path opacity="0.57" d="M54.1 161.4V167.9L55.6 168.6L73 153.3L71.6 152.6L54.1 161.4Z" fill="#33B3C4"/>
<path opacity="0.57" d="M54 171.6L54.1 186L55.6 186.7L71.1 170.3L73 163.5L71.5 162.8L54 171.6Z" fill="#33B3C4"/>
<path opacity="0.57" d="M54 189.1V203.6L55.5 204.3L73.1 181L71.6 180.3L54 189.1Z" fill="#33B3C4"/>
<path opacity="0.57" d="M54.1 207.199L54.2 221.399L55.7 222.099L73.1 199.099L71.6 198.399L54.1 207.199Z" fill="#33B3C4"/>
<path opacity="0.57" d="M54.1 225.5L54 240L55.5 240.7L73.1 217.4L71.6 216.7L54.1 225.5Z" fill="#33B3C4"/>
</g>
<g opacity="0.57">
<path opacity="0.57" d="M97.6 139.599L97.7 146.199L99.1 146.899L116.6 131.599L115.1 130.899L97.6 139.599Z" fill="#33B3C4"/>
<path opacity="0.57" d="M97.5 149.8L97.6 164.3L99.1 165L116.5 141.8L115 141.1L97.5 149.8Z" fill="#33B3C4"/>
<path opacity="0.57" d="M97.5 167.4V181.9L99 182.6L116.6 159.3L115.1 158.6L97.5 167.4Z" fill="#33B3C4"/>
<path opacity="0.57" d="M97.6 185.499L97.7 199.699L99.2 200.399L116.6 177.399L115.1 176.699L97.6 185.499Z" fill="#33B3C4"/>
<path opacity="0.57" d="M97.6 203.8L97.5 218.3L99 219L116.6 195.7L115.1 195L97.6 203.8Z" fill="#33B3C4"/>
</g>
<g opacity="0.57">
<path opacity="0.57" d="M119.3 128.8V135.3L120.8 136L138.2 120.7L136.8 120.1L119.3 128.8Z" fill="#FF5542"/>
<path opacity="0.57" d="M119.2 139L119.3 153.5L120.8 154.2L138.2 130.9L136.7 130.2L119.2 139Z" fill="#33B3C4"/>
<path opacity="0.57" d="M119.2 156.6V171.1L120.7 171.8L138.3 148.4L136.8 147.8L119.2 156.6Z" fill="#33B3C4"/>
<path opacity="0.57" d="M119.3 174.699L119.4 207.399L120.9 208.099L138.3 166.599L136.8 165.899L119.3 174.699Z" fill="#33B3C4"/>
</g>
</g>
<path d="M77.2 151.3L77.3 157.8L94.8 149L94.7 142.5L77.2 151.3Z" fill="#33B3C4"/>
<path d="M77.2 161.5V175.9L94.8 167.1V155.9L94.6 152.7L77.2 161.5Z" fill="#33B3C4"/>
<path d="M77.2 193.6L94.8 184.7V170.2L77.2 179.1V193.6Z" fill="#33B3C4"/>
<path d="M77.4 211.299L94.8 202.599V188.299L77.2 197.099L77.4 211.299Z" fill="#33B3C4"/>
<path d="M77.2 229.9L94.8 221.1V206.6L77.2 215.4V229.9Z" fill="#33B3C4"/>
<path d="M55.6 162.1V168.6L73.1 159.8L73 153.3L55.6 162.1Z" fill="#33B3C4"/>
<path d="M55.5 172.3L55.6 186.7L73.1 177.9V166.7L73 163.5L55.5 172.3Z" fill="#33B3C4"/>
<path d="M55.5 204.3L73.1 195.5V181L55.5 189.8V204.3Z" fill="#33B3C4"/>
<path d="M55.7 222.1L73.1 213.4V199.1L55.6 207.9L55.7 222.1Z" fill="#33B3C4"/>
<path d="M55.5 240.7L73.1 231.9V217.4L55.6 226.2L55.5 240.7Z" fill="#33B3C4"/>
<path d="M99.1 140.3V146.9L116.6 138.1V131.6L99.1 140.3Z" fill="#33B3C4"/>
<path d="M99 150.5L99.1 165L116.6 156.2V145L116.5 141.8L99 150.5Z" fill="#33B3C4"/>
<path d="M99 182.6L116.6 173.8V159.3L99 168.1V182.6Z" fill="#33B3C4"/>
<path d="M99.2 200.399L116.6 191.699V177.399L99.1 186.199L99.2 200.399Z" fill="#33B3C4"/>
<path d="M99 219L116.6 210.2V195.7L99.1 204.5L99 219Z" fill="#33B3C4"/>
<path d="M120.8 129.5V136L138.3 127.3L138.2 120.7L120.8 129.5Z" fill="#FF5542"/>
<path d="M120.7 139.7L120.8 154.2L138.3 145.4V134.2L138.2 130.9L120.7 139.7Z" fill="#33B3C4"/>
<path d="M120.7 171.8L138.3 162.9V148.4L120.7 157.3V171.8Z" fill="#33B3C4"/>
<path d="M120.9 208.1L138.3 199.3V166.6L120.8 175.4L120.9 208.1Z" fill="#33B3C4"/>
<defs>
<linearGradient id="paint0_linear" x1="296.381" y1="157.051" x2="296.381" y2="87.7783" gradientUnits="userSpaceOnUse">
<stop stop-color="#FFFF00"/>
<stop offset="1" stop-color="#FBB03B"/>
</linearGradient>
<linearGradient id="paint1_linear" x1="296.286" y1="151.32" x2="296.286" y2="97.1724" gradientUnits="userSpaceOnUse">
<stop stop-color="#FD9114"/>
<stop offset="0.9974" stop-color="#FBBF3B"/>
</linearGradient>
<linearGradient id="paint2_linear" x1="319.821" y1="132.497" x2="279.74" y2="63.0753" gradientUnits="userSpaceOnUse">
<stop stop-color="#FFFF00"/>
<stop offset="1" stop-color="#FBB03B"/>
</linearGradient>
<linearGradient id="paint3_linear" x1="299.683" y1="126.688" x2="299.683" y2="72.5397" gradientUnits="userSpaceOnUse">
<stop stop-color="#FD9114"/>
<stop offset="0.9974" stop-color="#FBBF3B"/>
</linearGradient>
<linearGradient id="paint4_linear" x1="235.879" y1="87.4664" x2="351.039" y2="87.4664" gradientUnits="userSpaceOnUse">
<stop stop-color="#FFFF00"/>
<stop offset="1" stop-color="#FBB03B"/>
</linearGradient>
<linearGradient id="paint5_linear" x1="293.364" y1="116.372" x2="293.364" y2="62.2243" gradientUnits="userSpaceOnUse">
<stop stop-color="#FD9114"/>
<stop offset="0.9974" stop-color="#FBBF3B"/>
</linearGradient>
<linearGradient id="paint6_linear" x1="299.77" y1="108.186" x2="299.77" y2="38.9134" gradientUnits="userSpaceOnUse">
<stop stop-color="#FFFF00"/>
<stop offset="1" stop-color="#FBB03B"/>
</linearGradient>
<linearGradient id="paint7_linear" x1="299.675" y1="102.456" x2="299.675" y2="48.3076" gradientUnits="userSpaceOnUse">
<stop stop-color="#FD9114"/>
<stop offset="0.9974" stop-color="#FBBF3B"/>
</linearGradient>
<linearGradient id="paint8_linear" x1="152.652" y1="194.537" x2="265.336" y2="194.537" gradientUnits="userSpaceOnUse">
<stop stop-color="#FFFF00"/>
<stop offset="1" stop-color="#FBB03B"/>
</linearGradient>
<linearGradient id="paint9_linear" x1="208.901" y1="222.822" x2="208.901" y2="169.838" gradientUnits="userSpaceOnUse">
<stop stop-color="#FD9114"/>
<stop offset="0.9974" stop-color="#FBBF3B"/>
</linearGradient>
<linearGradient id="paint10_linear" x1="152.448" y1="176.424" x2="265.132" y2="176.424" gradientUnits="userSpaceOnUse">
<stop stop-color="#FFFF00"/>
<stop offset="1" stop-color="#FBB03B"/>
</linearGradient>
<linearGradient id="paint11_linear" x1="208.696" y1="204.708" x2="208.696" y2="151.725" gradientUnits="userSpaceOnUse">
<stop stop-color="#FD9114"/>
<stop offset="0.9974" stop-color="#FBBF3B"/>
</linearGradient>
<linearGradient id="paint12_linear" x1="218.368" y1="197.778" x2="218.368" y2="129.995" gradientUnits="userSpaceOnUse">
<stop stop-color="#FFFF00"/>
<stop offset="1" stop-color="#FBB03B"/>
</linearGradient>
<linearGradient id="paint13_linear" x1="218.275" y1="192.171" x2="218.275" y2="139.188" gradientUnits="userSpaceOnUse">
<stop stop-color="#FD9114"/>
<stop offset="0.9974" stop-color="#FBBF3B"/>
</linearGradient>
<linearGradient id="paint14_linear" x1="212.31" y1="180.615" x2="212.31" y2="112.832" gradientUnits="userSpaceOnUse">
<stop stop-color="#FFFF00"/>
<stop offset="1" stop-color="#FBB03B"/>
</linearGradient>
<linearGradient id="paint15_linear" x1="212.217" y1="175.008" x2="212.217" y2="122.024" gradientUnits="userSpaceOnUse">
<stop stop-color="#FD9114"/>
<stop offset="0.9974" stop-color="#FBBF3B"/>
</linearGradient>
<linearGradient id="paint16_linear" x1="220.124" y1="156.314" x2="220.124" y2="87.0413" gradientUnits="userSpaceOnUse">
<stop stop-color="#FFFF00"/>
<stop offset="1" stop-color="#FBB03B"/>
</linearGradient>
<linearGradient id="paint17_linear" x1="220.029" y1="150.584" x2="220.029" y2="96.4354" gradientUnits="userSpaceOnUse">
<stop stop-color="#FD9114"/>
<stop offset="0.9974" stop-color="#FBBF3B"/>
</linearGradient>
<linearGradient id="paint18_linear" x1="223.521" y1="131.681" x2="223.521" y2="62.4081" gradientUnits="userSpaceOnUse">
<stop stop-color="#FFFF00"/>
<stop offset="1" stop-color="#FBB03B"/>
</linearGradient>
<linearGradient id="paint19_linear" x1="223.426" y1="125.95" x2="223.426" y2="71.8023" gradientUnits="userSpaceOnUse">
<stop stop-color="#FD9114"/>
<stop offset="0.9974" stop-color="#FBBF3B"/>
</linearGradient>
<linearGradient id="paint20_linear" x1="213.732" y1="117.29" x2="213.732" y2="48.0176" gradientUnits="userSpaceOnUse">
<stop stop-color="#FFFF00"/>
<stop offset="1" stop-color="#FBB03B"/>
</linearGradient>
<linearGradient id="paint21_linear" x1="213.637" y1="111.56" x2="213.637" y2="57.4118" gradientUnits="userSpaceOnUse">
<stop stop-color="#FD9114"/>
<stop offset="0.9974" stop-color="#FBBF3B"/>
</linearGradient>
<linearGradient id="paint22_linear" x1="252.585" y1="101.279" x2="187.501" y2="36.1953" gradientUnits="userSpaceOnUse">
<stop stop-color="#FFFF00"/>
<stop offset="1" stop-color="#FBB03B"/>
</linearGradient>
<linearGradient id="paint23_linear" x1="219.948" y1="97.6431" x2="219.948" y2="43.4951" gradientUnits="userSpaceOnUse">
<stop stop-color="#FBBA37"/>
<stop offset="1" stop-color="#FD9114"/>
</linearGradient>
</defs>
</svg>
