<svg width="26" height="25" viewBox="0 0 26 25" fill="none" xmlns="http://www.w3.org/2000/svg">
<g clip-path="url(#clip0)">
<path d="M3.79297 25H21.957C23.8447 25 25.375 23.4697 25.375 21.582V3.41797C25.375 1.53028 23.8447 0 21.957 0H3.79297C1.90528 0 0.375 1.53028 0.375 3.41797V21.582C0.375 23.4697 1.90528 25 3.79297 25Z" fill="#3C599B"/>
<path d="M16.8456 9.48885H14.1412V7.71513C14.1412 7.04901 14.5826 6.89371 14.8936 6.89371C15.2038 6.89371 16.8021 6.89371 16.8021 6.89371V3.96534L14.1737 3.95508C11.2559 3.95508 10.592 6.13915 10.592 7.53683V9.48885H8.90454V12.5064H10.592C10.592 16.3789 10.592 21.0449 10.592 21.0449H14.1412C14.1412 21.0449 14.1412 16.3329 14.1412 12.5064H16.5361L16.8456 9.48885Z" fill="white"/>
</g>
<defs>
<clipPath id="clip0">
<rect width="25" height="25" fill="white" transform="translate(0.375)"/>
</clipPath>
</defs>
</svg>
