<svg width="26" height="25" viewBox="0 0 26 25" fill="none" xmlns="http://www.w3.org/2000/svg">
<path d="M19.5191 4.54022C18.7194 4.54022 18.0745 5.18514 18.0745 5.98484C18.0745 6.78453 18.7194 7.42945 19.5191 7.42945C20.3188 7.42945 20.9637 6.78453 20.9637 5.98484C20.9637 5.18514 20.3188 4.54022 19.5191 4.54022ZM13.0699 6.39758C9.71635 6.39758 6.9819 9.13204 6.9819 12.4856C6.9819 15.8392 9.71635 18.5736 13.0699 18.5736C16.4235 18.5736 19.1579 15.8392 19.1579 12.4856C19.1579 9.13204 16.4235 6.39758 13.0699 6.39758ZM13.0699 16.4067C10.903 16.4067 9.17462 14.6525 9.17462 12.5114C9.17462 10.3445 10.9288 8.6161 13.0699 8.6161C15.2368 8.6161 16.9652 10.3703 16.9652 12.5114C16.9652 14.6525 15.211 16.4067 13.0699 16.4067ZM25.3749 7.42945C25.3749 3.32778 22.0472 0 17.9455 0H8.11695C4.01528 0 0.6875 3.32778 0.6875 7.42945V17.258C0.6875 21.3597 4.01528 24.6874 8.11695 24.6874H17.9197C22.0214 24.6874 25.3492 21.3597 25.3492 17.258V7.42945H25.3749ZM23.0274 17.2322C23.0274 20.044 20.7315 22.3399 17.9197 22.3399H8.11695C5.30511 22.3399 3.0092 20.044 3.0092 17.2322V7.42945C3.0092 4.59181 5.27931 2.3217 8.11695 2.3217H17.9197C20.7315 2.3217 23.0274 4.61761 23.0274 7.42945V17.2322Z" fill="#E30D74"/>
</svg>
