<svg width="223" height="98" viewBox="0 0 223 98" fill="none" xmlns="http://www.w3.org/2000/svg">
<path opacity="0.37" d="M179.59 44.0758L109.306 9.14166L70.3275 97.0892L73.5111 97.13L179.59 44.0758Z" fill="#00638E"/>
<path d="M176.406 41.3823L106.123 6.44812L0.00311279 59.5023L70.3277 94.4365L176.406 41.3823Z" fill="#DCFFFC"/>
<path d="M70.3276 94.4367L176.406 41.3825L78.2457 46.4839L70.3276 94.4367Z" fill="#B3FFFB"/>
<path d="M70.3271 94.4366V97.0894L0.574043 62.196L0.369965 59.4616L70.3271 94.4366Z" fill="#B3FFFB"/>
<path d="M176.406 41.3825L70.3276 94.4368V97.0895L176.325 44.076L176.406 41.3825Z" fill="#6BE8E8"/>
<path opacity="0.58" d="M0.000656128 59.5023L98.1204 59.4615L106.12 6.44812L0.000656128 59.5023Z" fill="#51E0E0"/>
<path d="M0.000656128 59.5023L96.6919 54.6458L106.12 6.44812L0.000656128 59.5023Z" fill="#E6FFFD"/>
<path opacity="0.37" d="M222.002 37.5869L151.677 2.6936L112.699 90.6411L115.883 90.6819L222.002 37.5869Z" fill="#00638E"/>
<path d="M218.818 34.9342L148.494 0L42.4152 53.0543L112.699 87.9885L218.818 34.9342Z" fill="#DCFFFC"/>
<path d="M112.699 87.9882L218.818 34.9338L120.617 40.0352L112.699 87.9882Z" fill="#B3FFFB"/>
<path d="M112.701 87.9885V90.6412L42.9479 55.7479L42.7439 53.0135L112.701 87.9885Z" fill="#B3FFFB"/>
<path d="M218.818 34.9338L112.699 87.9881V90.6408L218.737 37.6273L218.818 34.9338Z" fill="#6BE8E8"/>
<path opacity="0.58" d="M42.4145 53.0543L140.493 53.0135L148.493 0L42.4145 53.0543Z" fill="#51E0E0"/>
<path d="M42.4145 53.0543L139.065 48.1978L148.493 0L42.4145 53.0543Z" fill="#F3FFFE"/>
</svg>
