<svg width="411" height="382" viewBox="0 0 411 382" fill="none" xmlns="http://www.w3.org/2000/svg">
<path d="M9.21969 131.6L181.024 45.8436C183.339 44.5559 185.397 44.5559 186.94 45.3285C189.769 46.8737 192.598 48.1613 195.427 49.7065C193.884 48.9339 10.5057 291.009 12.0488 291.782C10.7628 291.009 9.21969 290.237 7.93372 289.722C6.64776 288.949 5.10461 288.176 3.81864 287.661C2.27549 286.889 1.24672 285.344 1.24672 283.026L0.989519 144.476C0.732326 139.583 4.33303 133.918 9.21969 131.6Z" fill="#168CA8"/>
<path d="M9.21973 148.597L9.47693 287.146C9.47693 291.782 13.3348 293.584 17.9643 291.267L189.769 205.51C194.398 203.192 198.256 197.527 198.256 192.891L197.999 54.342C197.999 49.7065 194.141 47.9038 189.512 50.2215L17.4499 135.978C12.8204 138.296 9.21973 143.961 9.21973 148.597Z" fill="#33B3C4"/>
<path d="M21.0501 141.643L185.911 59.2349C188.74 57.9472 191.054 58.9773 191.054 61.8101L191.312 191.861C191.312 194.694 188.997 198.042 186.168 199.329L21.3073 281.738C18.4782 283.026 16.1634 281.996 16.1634 279.163L15.9062 149.112C15.9062 146.536 18.221 143.189 21.0501 141.643Z" fill="#BFF7F3"/>
<path d="M335.085 62.3253L329.17 59.235C327.369 58.2049 324.798 58.4624 322.226 59.75L328.141 62.8404C330.713 61.5527 333.285 61.2952 335.085 62.3253Z" fill="#FF6666"/>
<path d="M260.755 143.704L254.84 140.614C254.84 143.189 255.869 145.249 257.669 146.022L263.584 149.112C261.784 148.339 260.755 146.537 260.755 143.704Z" fill="#AB3529"/>
<path d="M260.498 107.135L254.84 104.044V140.871L260.755 143.704L260.498 107.135Z" fill="#AB3529"/>
<path d="M328.141 62.8403L322.225 59.75L264.614 89.3656L270.272 92.1984L328.141 62.8403Z" fill="#FF786E"/>
<path d="M270.272 92.1986L264.356 89.1083C258.955 91.9411 254.583 98.6368 254.583 104.045L260.498 107.135C260.498 101.727 264.871 95.0314 270.272 92.1986Z" fill="#8F2A1F"/>
<path d="M270.273 92.1983C264.872 95.0311 260.5 101.727 260.5 107.135V143.704C260.5 149.112 264.872 151.429 270.273 148.597L311.167 127.995C311.424 127.995 326.084 134.948 326.341 134.69C326.856 134.433 327.113 133.66 326.856 132.63L325.57 120.526L328.142 119.239C333.543 116.406 337.915 109.71 337.915 104.302V67.7332C337.915 62.3252 333.543 60.0074 328.142 62.8402L270.273 92.1983Z" fill="#ED604F"/>
<path d="M302.678 99.4091C297.792 98.1215 292.39 106.62 295.991 109.71C300.878 110.998 306.536 102.499 302.678 99.4091Z" fill="#EFEFEF"/>
<path d="M288.533 106.62C283.646 105.332 278.245 113.831 281.846 116.921C286.732 118.209 292.391 109.71 288.533 106.62Z" fill="#EFEFEF"/>
<path d="M316.824 92.1986C311.937 90.9109 306.536 99.1518 310.137 102.5C315.023 103.787 320.424 95.2889 316.824 92.1986Z" fill="#EFEFEF"/>
<path d="M241.467 146.794L245.325 133.145L239.409 130.055L235.551 143.703C235.294 144.218 235.294 144.734 235.551 144.734L241.467 147.824C241.21 147.566 241.21 147.309 241.467 146.794Z" fill="#EA8B00"/>
<path d="M279.018 74.1713C282.876 72.1111 286.219 73.6562 286.219 77.7767V104.817C286.219 108.937 282.876 113.83 279.018 115.891L263.072 123.874C263.072 124.132 262.815 124.389 262.558 124.647L242.239 147.051C241.982 147.309 241.725 147.566 241.468 147.824C240.954 148.081 240.954 147.824 241.211 146.794L245.069 133.145L236.581 137.523C232.723 139.583 229.38 137.78 229.38 133.918V106.877C229.38 102.757 232.723 97.8638 236.581 95.8035L279.018 74.1713ZM271.817 104.559C274.389 103.272 276.446 100.181 276.446 97.6062C276.446 95.031 274.389 94.0008 271.817 95.2885C269.245 96.5761 267.187 99.6664 267.187 102.242C267.187 104.817 269.502 105.847 271.817 104.559ZM257.928 111.77C260.5 110.483 262.558 107.392 262.558 104.817C262.558 102.242 260.5 101.212 257.928 102.499C255.356 103.787 253.299 106.877 253.299 109.452C253.299 112.028 255.356 113.058 257.928 111.77ZM243.783 118.723C246.355 117.436 248.412 114.345 248.412 111.77C248.412 109.195 246.355 108.165 243.783 109.452C241.211 110.74 239.153 113.83 239.153 116.406C239.153 118.981 241.211 120.011 243.783 118.723Z" fill="#FFB000"/>
<path d="M247.124 108.938C242.238 107.65 236.837 116.148 240.437 119.239C245.324 120.526 250.982 112.028 247.124 108.938Z" fill="#EFEFEF"/>
<path d="M261.013 101.984C256.126 100.696 250.725 109.195 254.326 112.285C259.47 113.573 264.871 104.817 261.013 101.984Z" fill="#EFEFEF"/>
<path d="M275.159 94.7735C270.272 93.4858 264.871 101.727 268.472 105.075C273.358 106.362 279.016 97.8638 275.159 94.7735Z" fill="#EFEFEF"/>
<path d="M284.162 73.9138L278.246 70.8235C276.96 70.0509 275.16 70.3084 273.103 71.3385L279.018 74.4289C281.076 73.1412 282.876 73.1412 284.162 73.9138Z" fill="#FFD939"/>
<path d="M229.378 133.917L223.463 130.827C223.463 132.887 224.234 134.175 225.52 134.948L231.436 138.038C230.15 137.265 229.378 135.72 229.378 133.917Z" fill="#ED9F19"/>
<path d="M229.378 106.877L223.463 103.787V130.827L229.378 133.917V106.877Z" fill="#ED9F19"/>
<path d="M279.018 74.1715L273.103 71.3387L230.666 92.9709L236.581 95.8037L279.018 74.1715Z" fill="#FFD939"/>
<path d="M236.58 95.8034L230.664 92.7131C226.806 94.7733 223.463 99.6663 223.463 103.787L229.378 106.877C229.378 102.757 232.465 97.8636 236.58 95.8034Z" fill="#FFBC27"/>
<path d="M100.009 238.216L25.6807 275.3V168.169L100.009 130.828V238.216Z" fill="#9FEDEB"/>
<path opacity="0.35" d="M142.446 216.841L105.41 235.383V128.252L142.446 109.453V216.841Z" fill="white"/>
<path d="M35.9667 281.223L33.9092 280.45V173.319L107.981 136.235L110.295 136.75L35.9667 281.223Z" fill="#BFF7F3"/>
<path opacity="0.35" d="M183.854 196.239L146.562 214.781V107.65L183.854 89.1083V196.239Z" fill="white"/>
<path d="M110.297 243.882L35.9688 281.223V173.835L110.297 136.751V243.882Z" fill="#E9FFFC"/>
<path d="M107.467 168.426L79.9473 182.333V160.185L107.467 146.021V168.426Z" fill="#BFF7F3"/>
<path d="M107.466 199.587L44.4541 231.263V208.858L107.466 177.44V199.587Z" fill="#BFF7F3"/>
<path d="M107.466 229.203L44.4541 260.621V238.474L107.466 206.798V229.203Z" fill="#BFF7F3"/>
<path d="M113.382 201.132L50.3701 232.808V210.403L113.382 178.727V201.132Z" fill="white"/>
<path d="M113.126 230.49L50.1143 262.166V239.761L113.126 208.343V230.49Z" fill="white"/>
<path d="M112.611 170.744L85.0918 184.651V162.246L112.611 148.339V170.744Z" fill="white"/>
<path d="M71.4601 186.711L43.9404 200.617V178.47L71.4601 164.306V186.711Z" fill="#BFF7F3"/>
<path d="M89.4631 189.544L62.2006 204.995L61.1719 203.965V182.075L89.4631 167.396L90.749 167.911L89.4631 189.544Z" fill="#9FEDEB"/>
<path d="M185.653 83.185L22.3359 164.306V146.537L185.653 65.6732V83.185Z" fill="#9FEDEB"/>
<path d="M90.7496 190.316L62.2012 204.995V182.59L90.7496 168.169V190.316Z" fill="white"/>
<path d="M39.0545 153.747L24.3945 161.216V149.37L39.0545 141.901V153.747Z" fill="#BFF7F3"/>
<path d="M56.0291 145.249L41.3691 152.717V140.871L56.0291 133.403V145.249Z" fill="#BFF7F3"/>
<path d="M73.0027 136.751L58.3428 144.219V132.373L73.0027 124.904V136.751Z" fill="#BFF7F3"/>
<path opacity="0.3" d="M228.646 298.821C240.649 294.019 248.841 286.272 246.944 281.517C245.047 276.763 233.779 276.801 221.775 281.603C209.772 286.404 201.58 294.151 203.477 298.906C205.374 303.661 216.643 303.622 228.646 298.821Z" fill="#1D99B3"/>
<path d="M264.096 194.694L258.695 195.724L258.181 194.179L256.381 194.952L254.58 195.209C254.58 195.209 253.551 196.754 253.037 197.527C253.037 199.329 253.037 203.192 253.037 203.192L261.782 202.162L262.039 201.647L264.868 195.467L264.096 194.694Z" fill="#FBB686"/>
<path d="M253.549 203.965L250.978 204.222V197.012L252.778 196.754C253.035 198.814 253.549 203.965 253.549 203.965Z" fill="#B9E5FB"/>
<path d="M252.779 205.51L236.319 207.828C236.319 207.828 234.518 204.995 233.747 203.45C234.004 199.587 232.461 174.349 232.461 174.349L234.261 177.697C234.261 177.697 235.29 180.015 235.547 181.303C236.319 183.363 236.833 185.681 237.605 187.998C238.119 189.544 239.92 196.497 240.434 198.042C243.006 198.042 250.464 197.012 251.236 197.012C251.236 196.754 252.522 205.253 252.779 205.51Z" fill="#002756"/>
<path d="M243.52 286.631L239.919 282.511L238.119 279.163C238.119 279.163 230.661 277.103 228.089 278.906C228.089 279.936 227.831 282.511 227.574 283.026C227.831 283.284 233.49 287.146 234.004 287.661C234.261 287.919 238.634 291.267 238.634 291.267L243.263 288.949L243.52 286.631Z" fill="#002B6A"/>
<path d="M225.775 294.615L222.174 291.267C222.174 291.267 220.888 288.691 220.631 288.434C220.374 287.661 211.115 286.374 209.315 288.176C209.315 288.176 209.058 290.237 209.058 290.752C209.572 291.267 210.344 291.782 211.115 292.554C211.372 292.039 211.887 292.297 212.401 292.554C212.916 293.069 213.173 293.584 213.173 294.1C216.002 296.16 220.888 299.25 220.888 299.25C221.917 299.25 225.775 296.675 225.775 296.675V294.615Z" fill="#002B6A"/>
<path d="M235.546 236.413C235.546 235.126 235.289 234.096 235.289 232.808C235.289 231.52 235.032 230.233 235.032 228.945C235.032 228.172 234.775 224.567 234.517 223.794C234.517 222.507 234.26 221.477 234.26 220.447C234.26 220.447 207.769 229.718 207.512 229.46C207.512 230.233 207.255 231.263 207.255 232.035C207.255 233.065 207.769 238.473 207.769 238.473C207.769 238.473 209.055 276.845 209.312 280.708L208.798 287.661L213.17 289.979L220.886 288.176L223.201 246.457C223.201 246.457 227.573 276.072 228.087 278.39L231.688 280.193L238.375 279.163C238.118 273.497 236.832 253.41 235.546 236.413Z" fill="#002B6A"/>
<path d="M206.74 236.414C206.998 236.929 206.997 237.701 206.997 238.216C206.74 237.959 206.226 237.959 205.969 237.701C206.226 237.186 206.226 236.929 206.226 236.414C206.483 236.414 206.74 236.414 206.74 236.414Z" fill="#F89C69"/>
<path d="M207.255 240.534C206.997 240.276 206.74 240.276 206.226 240.019C206.226 240.019 206.483 240.276 206.483 240.019C205.969 239.504 205.711 238.989 206.226 238.474C206.226 238.474 206.226 238.216 206.483 238.216C206.74 237.444 206.74 235.641 206.74 236.413C204.426 236.671 202.111 236.413 200.053 236.413C199.796 237.186 199.796 237.959 200.053 238.474C200.053 238.474 200.053 238.474 200.053 238.731C200.053 239.504 200.31 240.019 200.31 240.534C202.111 241.306 204.168 242.079 205.969 242.594C205.969 241.564 206.997 240.791 207.255 240.534C207.512 240.534 207.255 240.534 207.255 240.534Z" fill="#F9A873"/>
<path d="M217.285 248.775V251.607L217.028 269.634L212.398 272.467V263.196V252.637V252.38V251.092L212.656 250.835H212.913L216.771 249.032L217.285 248.775Z" fill="#6ABFCE"/>
<path d="M212.4 263.196L190.024 251.865V240.019L212.143 251.092H212.4V263.196Z" fill="#33B3C4"/>
<path d="M212.4 263.196V272.467L190.024 260.106V251.865L212.143 263.196H212.4Z" fill="#168CA8"/>
<path d="M206.229 259.076L208.543 260.363V263.196L206.229 261.908V259.076Z" fill="#DCFFFF"/>
<path d="M212.143 251.092L190.024 240.019L194.911 237.958C195.425 238.216 217.03 248.775 217.287 248.775V249.032L212.143 251.092Z" fill="#7CD0D8"/>
<path d="M195.424 256.243L193.109 254.955V252.122L195.424 253.41V256.243Z" fill="#DCFFFF"/>
<path d="M209.572 239.246C209.572 239.246 209.572 245.942 209.572 246.457C209.829 246.199 209.057 246.972 208.543 246.972C208.286 246.972 207.771 246.457 207.771 246.457C207.771 246.199 207.771 241.306 207.771 240.534C207.771 240.534 207 240.276 206.742 240.019C206.228 239.503 206.485 238.473 206.485 238.473C206.485 238.473 206.485 238.216 206.742 238.216C206.742 237.958 209.572 239.246 209.572 239.246Z" fill="#168CA8"/>
<path d="M199.027 241.821L198.255 242.079L197.227 241.564V238.989L197.484 235.641L199.027 235.383H199.798C199.798 235.383 199.798 235.641 199.541 235.898C199.284 236.671 199.284 237.443 199.541 237.959H199.284L199.027 238.216V241.821Z" fill="#168CA8"/>
<path d="M206.74 236.413L201.339 236.671L199.539 235.898L199.796 234.096H206.998C206.998 234.611 206.74 236.413 206.74 236.413Z" fill="#6ABFCE"/>
<path d="M233.49 212.206C233.49 212.206 233.233 206.54 233.49 203.45C233.747 199.587 235.548 183.105 235.548 183.105L232.461 174.349L224.746 172.547L210.6 179.243L200.312 188.771C200.312 188.771 199.026 219.932 199.026 224.567C199.026 226.627 199.284 232.808 199.284 234.096L200.827 235.383L207.257 235.126C207.257 234.868 207.257 234.868 207.257 234.868C207.257 234.096 207.514 230.748 207.514 229.718C207.771 229.718 214.458 230.748 214.458 230.748L235.033 221.734L233.49 212.206Z" fill="#002B6A"/>
<path d="M227.319 196.239C227.576 193.922 228.862 191.861 228.605 189.544C228.605 189.286 228.605 189.029 228.605 189.029C228.347 186.453 227.833 183.878 226.804 181.56C226.547 180.788 226.29 180.015 225.775 179.243C225.775 178.985 225.518 178.985 225.518 178.728C224.747 177.697 223.975 176.925 222.946 176.925C223.461 176.667 224.489 176.152 225.004 175.895C225.518 176.152 228.347 178.47 228.347 178.47L227.833 180.53L230.405 181.56L231.176 185.423C231.176 185.423 228.347 201.132 227.833 202.163C228.09 201.132 227.319 199.587 227.319 198.557C227.319 197.785 227.061 197.012 227.319 196.239Z" fill="#11487F"/>
<path d="M214.202 182.075C214.716 182.848 215.488 183.363 216.002 183.878C216.517 184.135 216.774 184.393 217.288 184.65C218.831 185.681 220.374 186.711 221.918 188.256C223.718 190.316 225.261 192.891 226.29 195.467V195.724C226.547 196.754 226.804 198.042 226.804 199.329C226.804 200.102 227.061 201.647 227.061 201.647L226.29 199.329C225.261 196.239 221.403 192.634 221.403 192.634L215.745 189.801V186.968L213.43 187.226L212.144 184.393C212.144 184.393 210.087 180.015 210.601 178.47C210.601 178.47 212.144 175.637 213.173 174.864C213.173 175.379 213.173 175.637 213.43 176.152C213.43 176.925 213.687 177.697 213.687 178.47L213.43 178.212C212.916 179.757 213.43 181.045 214.202 182.075Z" fill="#11487F"/>
<path d="M228.347 189.801C228.347 189.543 228.347 189.286 228.347 189.286C228.09 186.71 226.546 181.817 226.546 181.817C226.546 181.817 226.032 180.272 225.518 179.5C224.746 178.985 214.973 182.59 214.201 182.075C214.716 182.848 216.002 183.878 216.002 183.878L217.287 184.65L221.917 188.256C221.917 188.256 225.26 192.891 226.289 195.466L227.832 197.269C227.575 195.466 228.09 192.891 228.347 189.801Z" fill="#94E5ED"/>
<path d="M228.09 188.513L225.518 183.105V182.848L225.003 180.53C225.003 180.53 224.489 180.015 223.975 180.015C223.46 179.757 222.431 179.757 222.431 179.757C222.174 180.272 221.917 181.045 221.917 181.817V182.075C222.689 182.848 223.46 183.363 224.232 183.878C225.003 185.938 226.032 190.316 226.032 190.316L226.289 195.981L227.575 203.707C227.575 203.45 228.604 191.346 228.604 191.346L228.09 188.513Z" fill="#FF5252"/>
<path d="M213.688 178.985C215.745 181.818 222.432 180.788 222.432 178.47L221.918 176.152C222.175 176.667 224.49 177.955 225.004 178.985C225.004 179.242 225.261 179.242 225.261 179.5C225.261 180.015 225.004 180.788 225.004 180.788L224.747 180.53L223.718 180.015L222.175 179.757C221.918 180.272 221.146 183.62 221.146 183.62L216.517 183.363C216.517 183.363 214.459 182.848 213.688 182.333C212.916 181.303 212.402 180.272 212.916 178.985C213.43 178.727 213.43 178.727 213.688 178.985Z" fill="#DCFFFF"/>
<path d="M222.174 176.667C222.174 176.667 222.174 179.5 222.431 179.5C222.431 180.53 215.744 182.59 213.429 178.985C213.429 178.212 212.915 174.349 212.915 173.834C213.172 173.834 213.429 173.834 213.687 173.577C214.201 174.349 221.66 176.667 222.174 176.667Z" fill="#F89C69"/>
<path d="M224.232 161.731C223.461 162.503 221.403 163.018 220.375 163.533C218.831 164.049 214.974 166.109 214.974 166.109C214.974 166.881 214.973 167.654 214.716 168.684C214.716 169.714 213.945 170.744 214.716 173.062C214.202 172.804 213.688 172.547 213.173 172.289C212.916 171.259 212.659 170.487 212.402 169.972C211.887 169.457 210.344 169.972 210.858 171.259C211.373 172.289 211.887 174.35 212.659 174.35C212.916 174.35 213.173 174.35 213.43 174.092C213.688 174.607 215.231 175.637 215.231 175.637C215.231 175.637 221.146 177.44 221.661 177.44L224.49 176.152L225.004 167.139C225.004 167.139 224.49 161.988 224.232 161.731Z" fill="#FBB686"/>
<path d="M214.973 166.109C214.973 166.881 214.973 167.654 214.716 168.684C214.716 169.714 213.944 170.744 214.716 173.062C214.201 172.804 213.687 172.547 213.173 172.289C212.916 171.259 212.658 170.486 212.401 169.971C211.887 169.456 210.344 169.971 210.858 171.259C211.372 172.289 211.887 174.349 212.658 174.349C212.658 174.607 212.916 175.379 212.916 175.379L211.887 175.122L211.115 173.834C209.315 171.259 206.743 166.366 206.743 166.366L206.229 161.473C206.486 160.958 211.887 165.336 214.973 166.109Z" fill="#11487F"/>
<path d="M216.002 166.109C216.002 166.109 214.973 166.109 214.716 165.851C211.63 165.079 208.8 162.761 206.229 160.958C206.743 159.67 208.8 157.61 208.8 157.61C209.829 156.838 215.23 155.035 217.031 155.292C217.802 155.292 220.117 155.808 220.631 156.065C220.374 156.065 224.746 156.323 225.004 156.323C225.004 156.323 226.032 159.155 225.261 160.443C225.004 160.958 223.975 162.503 223.975 162.503C223.975 162.503 217.802 166.109 216.002 166.109Z" fill="#002B6A"/>
<path opacity="0.3" d="M309.876 277.618C309.361 277.36 308.332 277.102 307.561 277.102H307.304C306.275 277.102 305.503 277.36 304.732 277.875L191.824 334.273C190.281 335.046 190.024 336.334 191.31 336.849L266.41 374.448C267.182 374.705 267.953 374.963 268.982 374.963C268.982 374.963 268.982 374.963 269.239 374.963C270.268 374.963 271.039 374.705 271.811 374.19L384.719 317.792C386.262 317.019 386.519 315.731 385.233 315.216L309.876 277.618Z" fill="#1D99B3"/>
<path d="M260.496 363.889H264.611C265.383 363.889 266.155 363.117 266.155 362.344V307.748C266.155 306.976 265.383 306.203 264.611 306.203H260.496C259.725 306.203 258.953 306.976 258.953 307.748V362.344C258.953 363.374 259.725 363.889 260.496 363.889Z" fill="#33B3C4"/>
<path d="M208.284 337.879H211.885C212.657 337.879 213.428 337.106 213.428 336.334V281.738C213.428 280.965 212.657 280.193 211.885 280.193H208.284C207.513 280.193 206.741 280.965 206.741 281.738V336.591C206.741 337.364 207.513 337.879 208.284 337.879Z" fill="#33B3C4"/>
<path d="M364.143 312.126H368.258C369.029 312.126 369.801 311.354 369.801 310.581V264.226C369.801 263.454 369.029 262.681 368.258 262.681H364.143C363.371 262.681 362.6 263.454 362.6 264.226V310.581C362.6 311.611 363.371 312.126 364.143 312.126Z" fill="#33B3C4"/>
<path d="M310.132 287.661H313.733C314.504 287.661 315.276 286.888 315.276 286.116V231.52C315.276 230.748 314.504 229.975 313.733 229.975H310.132C309.36 229.975 308.589 230.748 308.589 231.52V286.116C308.589 286.888 309.36 287.661 310.132 287.661Z" fill="#33B3C4"/>
<path d="M310.391 230.49C309.876 230.233 308.848 229.975 308.076 229.975H307.819C306.79 229.975 306.019 230.233 305.247 230.748L191.568 284.056C190.025 284.828 190.539 288.949 191.825 289.721L266.925 327.32C267.697 327.578 268.468 327.835 269.497 327.835C269.497 327.835 269.497 327.835 269.754 327.835C270.783 327.835 271.555 327.578 272.326 327.063L385.234 270.664C386.777 269.892 387.806 265.771 386.52 264.999L310.391 230.49Z" fill="#33B3C4"/>
<path d="M310.388 226.885C309.874 226.627 308.845 226.37 308.073 226.37H307.816C306.787 226.37 306.016 226.627 305.244 227.142L192.337 283.541C190.794 284.313 190.536 285.601 191.822 286.116L266.923 323.715C267.694 323.972 268.466 324.23 269.495 324.23C269.495 324.23 269.495 324.23 269.752 324.23C270.781 324.23 271.552 323.972 272.324 323.457L385.231 267.059C386.774 266.286 387.032 264.999 385.746 264.484L310.388 226.885Z" fill="#BFF7F3"/>
<path opacity="0.56" d="M254.836 297.962L283.127 312.126L300.616 303.628L272.325 289.464L254.836 297.962Z" fill="white"/>
<path opacity="0.7" d="M240.69 296.417L268.982 310.581L286.471 301.825L258.18 287.661L240.69 296.417Z" fill="white"/>
<path opacity="0.7" d="M320.42 261.136L348.711 275.3L366.2 266.544L337.909 252.38L320.42 261.136Z" fill="white"/>
<path opacity="0.7" d="M315.275 261.136L343.567 275.3L361.056 266.544L332.765 252.38L315.275 261.136Z" fill="white"/>
<path opacity="0.7" d="M292.645 286.889L316.306 298.22L348.455 281.48L324.794 270.149L292.645 286.889Z" fill="white"/>
<path opacity="0.7" d="M209.57 279.42L229.889 297.962L247.378 289.206L227.059 270.922L209.57 279.42Z" fill="white"/>
<path opacity="0.56" d="M244.291 268.089L279.269 286.374L321.449 253.41L286.471 235.383L244.291 268.089Z" fill="white"/>
<path opacity="0.56" d="M271.04 285.343L287.243 301.31L323.25 284.571L307.047 268.862L271.04 285.343Z" fill="white"/>
<path opacity="0.3" d="M378.548 253.41L385.493 258.303L373.919 264.741L343.313 279.678L340.741 284.828L324.538 292.039L317.851 288.949L308.078 295.387L288.531 286.374L288.017 287.146L285.702 286.116L267.956 294.872L264.869 301.053L256.382 306.976L246.094 302.34L243.008 304.658L207.258 286.889L202.114 284.313L208.287 282.511L212.145 284.056L323.766 229.718L378.548 253.41Z" fill="#1D99B3"/>
<path d="M320.423 289.464L340.227 254.956L364.917 267.317L353.086 250.835C355.916 246.972 371.09 215.811 372.89 211.434L399.381 207.313L363.631 189.544C363.631 189.544 392.18 170.487 391.408 167.396L344.599 143.961L339.97 147.567L318.108 136.751L307.049 138.811L297.276 159.671C293.418 161.473 290.846 163.276 287.245 165.851L274.128 158.898L263.583 169.457L267.956 185.681C265.126 189.544 262.812 193.664 261.011 198.042L243.008 206.025L239.407 218.902L256.382 227.4L256.639 231.521L243.008 250.32L248.409 258.046L295.218 281.481L296.761 277.618L320.423 289.464Z" fill="#9FEDEB"/>
<path d="M363.889 207.056L341.513 201.132L327.11 212.979L321.452 236.929L327.882 249.805L342.542 250.32C342.542 250.32 342.799 257.273 350.001 243.624C357.202 229.975 357.202 229.975 357.202 229.975L365.947 217.099L363.889 207.056Z" fill="#168CA8"/>
<path opacity="0.31" d="M371.603 246.972L324.794 223.537L306.79 231.521L353.599 254.956L371.603 246.972Z" fill="#33B3C4"/>
<path d="M331.482 287.404L341.513 266.287C345.371 264.484 348.971 262.166 352.829 259.333L364.917 267.317L375.462 256.758L371.09 240.276C373.919 236.414 376.234 232.293 378.034 227.915L395.78 220.447L399.381 207.571L383.949 205.253C383.949 201.39 383.692 197.785 382.663 194.694L396.809 175.38L391.408 167.654L372.633 181.56C370.061 180.015 366.975 179.243 363.888 178.985L364.917 160.443L353.858 162.503L344.085 183.363C340.227 185.166 336.626 187.483 332.768 190.316L320.68 182.59L310.135 193.149L314.507 209.373C311.678 213.236 309.364 217.357 307.563 221.735L289.56 229.718L285.959 242.594L301.905 244.654C301.905 248.517 302.162 252.123 303.191 255.213L289.56 274.012L294.961 281.738L312.964 268.347C315.536 269.892 318.622 270.665 321.709 270.922L320.423 289.979L331.482 287.404ZM325.824 227.4C328.91 216.584 338.684 206.54 348.2 204.738C357.459 202.935 362.602 210.403 359.773 221.219C356.687 232.036 346.914 242.079 337.398 243.882C327.881 245.685 322.738 238.216 325.824 227.4Z" fill="#33B3C4"/>
<path d="M273.615 158.641L320.424 181.818L309.879 192.634L263.327 169.199L273.615 158.641Z" fill="#E6FFFE"/>
<path d="M307.305 220.962L260.496 197.784L242.492 205.768L289.301 228.945L307.305 220.962Z" fill="#E6FFFE"/>
<path d="M306.79 138.553L353.599 161.988L364.658 159.928L318.107 136.493L306.79 138.553Z" fill="#E6FFFE"/>
<path d="M302.675 254.44L289.301 273.497L242.492 250.062L256.123 231.263L302.675 254.44Z" fill="#E6FFFE"/>
<path d="M248.151 304.916L261.782 281.223L278.757 289.722L270.527 278.39C272.327 275.815 282.872 254.183 284.158 251.35L302.419 248.517L277.728 236.156C277.728 236.156 297.275 223.022 296.76 220.962L264.611 204.995L261.268 207.313L246.351 199.845L238.635 201.132L231.948 215.554C229.376 216.842 227.576 217.872 225.004 219.932L216.002 215.039L208.801 222.25L211.887 233.323C210.086 235.899 208.286 238.989 207 241.822L194.655 247.23L192.083 256.243L203.657 262.166V264.999L194.398 277.875L197.998 283.284L230.148 299.25L231.176 296.675L248.151 304.916Z" fill="#9FEDEB"/>
<path d="M279.528 246.715L265.639 241.049L252.78 253.668L248.922 270.15L254.837 279.421L264.096 278.39L270.012 274.528L274.898 264.999L279.528 246.715Z" fill="#168CA8"/>
<path opacity="0.31" d="M283.385 275.558L251.236 259.591L238.891 264.999L271.04 281.223L283.385 275.558Z" fill="#33B3C4"/>
<path d="M255.865 303.628L262.81 288.949C265.382 287.661 267.953 286.116 270.525 284.314L278.756 289.722L285.957 282.511L283.128 271.18C284.928 268.604 286.729 265.514 288.015 262.681L300.103 257.531L302.675 248.517L291.872 246.972C291.872 244.397 291.615 241.822 291.101 239.761L300.874 226.37L297.274 220.962L284.414 230.49C282.614 229.46 280.556 228.945 278.241 228.688L279.013 215.811L271.297 217.099L264.61 231.521C262.038 232.808 259.466 234.353 256.894 236.156L248.664 231.005L241.463 238.216L244.549 249.29C242.749 251.865 240.948 254.955 239.662 257.788L227.317 263.196L224.745 272.21L235.547 273.497C235.547 276.073 235.804 278.648 236.319 280.708L227.06 293.585L230.661 298.993L243.006 289.722C244.806 290.752 246.864 291.267 249.178 291.524L248.407 304.658L255.865 303.628ZM252.008 262.424C254.065 254.955 261.009 248.002 267.182 246.972C273.612 245.685 277.212 250.835 275.155 258.303C273.097 265.772 266.153 272.725 259.981 273.755C253.551 274.785 249.95 269.635 252.008 262.424Z" fill="#33B3C4"/>
<path d="M216.002 215.039L248.151 231.005L240.95 238.216L208.801 222.249L216.002 215.039Z" fill="#E6FFFE"/>
<path d="M239.15 257.788L207.001 241.822L194.655 247.23L226.804 263.454L239.15 257.788Z" fill="#E6FFFE"/>
<path d="M238.891 201.132L271.04 217.099L278.755 215.811L246.606 199.845L238.891 201.132Z" fill="#E6FFFE"/>
<path d="M236.063 280.966L226.804 293.842L194.655 277.875L203.914 264.999L236.063 280.966Z" fill="#E6FFFE"/>
<path d="M281.587 217.099L291.618 199.845L303.963 206.025L298.047 197.785C299.333 195.724 307.049 180.273 308.078 177.955L321.452 175.895L303.448 166.881C303.448 166.881 317.851 157.353 317.337 155.808L293.932 144.219L291.618 146.022L280.558 140.614L274.9 141.644L270.013 152.202C268.213 153.232 266.67 154.005 264.869 155.293L258.182 151.687L253.039 157.095L255.096 165.079C253.81 167.139 252.524 169.199 251.495 171.259L242.494 175.38L240.693 181.818L249.181 185.938V187.999L242.494 197.527L245.066 201.39L268.47 212.979L269.242 211.176L281.587 217.099Z" fill="#9FEDEB"/>
<path d="M291.875 169.972C291.875 169.972 291.36 170.487 290.846 171.002C288.531 173.834 282.873 180.788 282.873 180.788C282.873 180.788 273.614 188.513 281.587 193.922C289.56 199.33 282.359 201.905 288.531 199.845C294.447 197.784 294.447 197.784 294.447 197.784L299.076 193.664L302.677 186.968L303.706 180.015L302.677 173.062L291.875 169.972Z" fill="#168CA8"/>
<path opacity="0.31" d="M307.305 195.724L283.901 184.135L274.642 188.256L298.303 199.845L307.305 195.724Z" fill="#33B3C4"/>
<path d="M287.246 216.069L292.39 205.51C294.19 204.48 296.248 203.45 298.048 202.162L304.221 206.025L309.364 200.617L307.307 192.376C308.593 190.316 309.879 188.256 310.908 186.196L319.909 182.333L321.71 175.895L313.994 174.607C313.994 172.547 313.737 171.002 313.48 169.199L320.681 159.413L318.109 155.55L308.593 162.503C307.307 161.731 305.764 161.473 304.221 161.216L304.735 151.945L299.077 152.975L294.19 163.533C292.39 164.564 290.332 165.594 288.532 166.881L282.359 163.018L277.215 168.426L279.273 176.41C277.987 178.47 276.701 180.53 275.672 182.59L266.67 186.711L264.87 193.149L272.843 194.179C272.843 196.239 273.1 197.784 273.357 199.587L266.67 209.116L269.242 212.979L278.244 206.283C279.53 207.055 281.073 207.313 282.616 207.571L282.102 217.099L287.246 216.069ZM284.16 186.196C285.703 180.788 290.589 175.637 295.219 174.865C299.848 174.092 302.42 177.697 300.877 183.105C299.334 188.514 294.447 193.664 289.818 194.437C285.446 195.209 282.874 191.604 284.16 186.196Z" fill="#33B3C4"/>
<path d="M258.181 151.43L281.586 163.276L276.442 168.684L252.78 156.838L258.181 151.43Z" fill="#E6FFFE"/>
<path d="M274.898 182.848L251.494 171.259L242.492 175.122L265.897 186.968L274.898 182.848Z" fill="#E6FFFE"/>
<path d="M274.642 141.386L298.303 153.232L303.704 152.202L280.3 140.614L274.642 141.386Z" fill="#E6FFFE"/>
<path d="M272.841 199.587L265.897 209.116L242.492 197.527L249.179 187.998L272.841 199.587Z" fill="#E6FFFE"/>
<g opacity="0.21">
<path opacity="0.21" d="M292.132 246.715C292.132 245.427 292.132 243.882 291.875 242.594L295.476 243.109L364.918 164.821L365.175 159.928L354.116 161.988L344.342 182.848C340.484 184.651 336.884 186.968 333.026 189.801L320.938 182.075L310.393 192.634L314.765 208.858C311.936 212.721 309.621 216.842 307.821 221.219L300.105 224.567L297.533 220.962L284.674 230.49C282.873 229.46 280.816 228.945 278.501 228.688L279.273 215.811L271.557 217.099L264.87 231.521C262.298 232.808 259.726 234.353 257.154 236.156L248.924 231.006L241.722 238.216L244.809 249.29C243.008 251.865 241.208 254.956 239.922 257.788L227.577 263.196L225.005 272.21L235.807 273.497C235.807 276.073 236.064 278.648 236.579 280.708L227.32 293.585L230.92 298.993L243.266 289.722C245.066 290.752 247.123 291.267 249.438 291.524L249.181 295.387L292.132 246.715ZM275.415 258.046C273.357 265.514 266.413 272.467 259.983 273.497C253.553 274.785 249.953 269.635 252.01 262.166C254.068 254.698 261.012 247.745 267.442 246.715C273.871 245.685 277.472 250.578 275.415 258.046Z" fill="#C2FFFC"/>
<path opacity="0.21" d="M272.843 199.587L266.156 209.116L268.728 212.979L277.73 206.283C279.016 207.055 280.559 207.313 282.102 207.57L281.588 217.099L287.246 216.069L292.39 205.51C294.19 204.48 296.248 203.45 298.048 202.162L304.221 206.025L309.364 200.617L307.307 192.376C308.593 190.316 309.879 188.256 310.908 186.196L319.909 182.333L321.71 175.895L313.994 174.607C313.994 172.547 313.737 171.002 313.48 169.199L320.681 159.413L318.109 155.55L308.593 162.503C307.307 161.731 305.764 161.473 304.221 161.216L304.735 151.945L299.077 152.975L294.19 163.533C292.39 164.563 290.332 165.594 288.532 166.881L282.359 163.018L277.215 168.426L279.273 176.41C277.987 178.47 276.701 180.53 275.672 182.59L266.67 186.711L264.87 193.149L272.843 194.179C272.072 196.239 272.329 198.042 272.843 199.587ZM284.417 186.196C285.96 180.788 290.847 175.637 295.476 174.865C300.106 174.092 302.677 177.697 301.134 183.105C299.591 188.513 294.704 193.664 290.075 194.437C285.446 195.209 282.874 191.604 284.417 186.196Z" fill="#C2FFFC"/>
</g>
<path opacity="0.3" d="M369.033 355.391C374.177 358.739 387.294 356.421 398.353 350.498C409.413 344.575 414.042 337.106 408.898 333.758C403.754 330.411 390.638 332.728 379.578 338.651C368.519 344.575 363.89 352.043 369.033 355.391Z" fill="#1D99B3"/>
<path d="M383.176 336.591C382.404 337.879 382.404 339.424 382.147 340.969C381.632 343.287 380.861 344.317 379.061 344.575C379.318 344.317 379.575 343.802 379.575 343.287C380.089 341.999 380.604 340.969 381.118 339.682C381.632 338.394 381.89 335.304 382.147 331.441C383.433 331.956 384.462 332.213 385.748 332.213C386.262 332.213 386.776 332.213 387.291 331.956C387.291 332.471 387.291 333.243 387.548 333.759C385.49 334.274 384.204 335.304 383.176 336.591Z" fill="#F89C69"/>
<path d="M388.063 334.016C390.121 338.137 387.549 343.287 388.835 347.15C387.549 348.18 386.777 347.665 386.777 347.665V346.377C386.777 346.377 386.52 343.03 386.52 341.227C384.72 342.257 381.633 345.862 381.376 347.923C381.376 347.923 381.119 347.923 381.119 348.18C378.804 348.438 376.747 348.695 374.946 347.923C374.689 346.892 374.946 345.605 375.204 344.575C376.49 344.317 378.804 344.06 379.833 343.545C379.576 344.06 379.319 344.317 379.319 344.832C381.119 344.575 381.891 343.287 382.405 341.227C382.662 339.682 382.662 338.137 383.434 336.849C384.463 335.304 385.748 334.531 387.806 334.274C387.806 334.016 388.063 334.016 388.063 334.016Z" fill="#002B6A"/>
<path d="M381.119 347.922C381.376 345.862 384.72 341.999 386.52 340.969C385.234 342.514 384.205 344.575 384.463 346.635C383.434 347.665 381.891 347.922 381.119 347.922Z" fill="black"/>
<path d="M401.953 336.334C402.467 335.561 402.724 335.304 402.982 334.789C402.467 336.592 402.21 337.879 402.21 339.939C401.953 339.939 401.696 340.197 401.438 340.454C401.438 338.909 401.438 337.622 401.953 336.334Z" fill="black"/>
<path d="M396.296 337.621C396.553 336.591 396.553 335.561 397.068 334.531C397.325 334.016 397.582 333.243 397.839 332.471C398.354 331.183 399.125 329.896 400.154 329.638C401.44 329.381 402.212 329.638 402.726 329.896C403.755 330.926 403.24 332.986 403.24 334.531C402.726 335.046 402.726 335.304 402.212 336.076C401.954 337.364 401.697 339.167 401.697 340.712C401.697 341.227 401.697 341.742 401.697 342.257C401.183 342.772 400.411 342.772 399.64 342.514C399.64 341.999 399.64 336.849 399.125 335.046C398.611 336.334 398.611 339.939 398.354 340.969L398.096 341.742C396.81 341.999 395.782 341.484 394.753 341.227C393.981 339.682 394.753 338.136 396.296 337.621Z" fill="#002B6A"/>
<path d="M397.84 341.742C398.097 340.712 398.354 336.591 398.869 335.046C399.383 336.849 399.383 338.909 399.383 340.969C399.126 341.484 398.097 341.742 397.84 341.742Z" fill="black"/>
<path d="M402.468 329.896C401.954 329.381 401.182 329.381 399.896 329.638C398.867 329.896 398.096 331.183 397.581 332.471C397.581 331.441 397.581 330.153 397.324 328.35C397.839 328.35 398.61 328.608 399.125 328.608C399.639 328.608 400.153 328.608 400.668 328.608C401.439 328.608 401.954 328.35 402.468 328.093C402.725 328.608 402.468 329.381 402.468 329.896Z" fill="#F89C69"/>
<path d="M389.352 262.681C389.352 261.909 389.352 261.136 389.352 260.363C389.866 260.363 390.38 260.363 390.895 260.106C392.438 259.848 393.724 259.333 395.267 258.818C396.81 258.303 399.896 256.758 400.411 256.758C400.668 257.273 400.925 259.076 400.925 259.076C400.668 259.848 392.181 262.424 389.352 262.681Z" fill="#277293"/>
<path d="M381.12 301.825C381.12 290.752 378.548 277.618 380.605 264.226C380.863 264.226 380.863 264.226 380.605 264.226C380.605 263.454 380.863 262.939 380.863 262.166V261.909C381.634 262.166 382.406 262.166 382.92 262.424C382.92 263.196 389.093 263.454 389.093 262.681C391.922 262.424 400.667 259.591 400.667 259.591C401.181 260.106 402.467 262.681 402.467 262.681C406.068 270.15 403.238 276.845 402.467 282.768C401.695 288.176 401.181 293.327 401.181 298.993C401.952 301.31 402.724 304.143 403.238 305.946C404.01 308.779 404.01 310.066 404.01 312.899C404.01 315.732 403.753 318.822 403.238 322.17C403.496 324.23 404.01 326.805 404.01 328.093C402.981 328.608 401.181 329.381 400.667 329.381C397.58 329.638 396.809 328.866 396.294 328.866C396.551 327.578 396.294 325.518 396.294 323.973C394.751 314.959 392.436 302.34 391.15 296.417C390.893 297.705 390.893 298.993 390.636 300.023C390.379 302.083 391.665 304.658 391.665 306.718C391.922 310.324 391.922 310.581 391.408 314.187C391.15 316.247 390.379 320.367 389.607 322.428C389.093 325.003 388.321 330.153 388.836 332.729C388.321 332.986 383.177 333.759 380.863 331.699C381.12 329.638 381.12 327.063 381.12 325.26C381.12 315.217 381.12 305.688 381.12 301.825Z" fill="#002B6A"/>
<path d="M378.806 242.852C379.32 243.624 379.578 244.397 380.092 244.912C380.349 246.457 381.378 250.062 381.635 252.638C379.578 250.835 373.405 245.427 370.576 242.337C370.319 242.079 370.062 241.822 370.062 241.822C370.062 241.564 370.319 238.989 372.376 238.216C372.376 238.474 376.748 241.822 378.806 242.852Z" fill="#1D99B3"/>
<path d="M388.582 221.219C391.154 221.219 394.497 220.704 397.069 220.189C397.069 220.447 397.327 221.219 397.327 221.219C396.041 221.219 393.983 221.219 392.954 221.477C391.926 221.734 390.382 222.249 388.839 222.765C388.582 222.249 388.582 221.734 388.582 221.219Z" fill="#F89C69"/>
<path d="M383.18 208.6C382.922 207.055 383.18 204.738 384.208 203.707C384.723 203.192 385.237 202.677 385.752 202.162C387.038 200.875 388.324 200.36 390.124 200.102C392.953 199.329 396.554 199.329 398.611 201.647C399.126 201.647 390.895 202.162 388.066 204.48C387.552 204.995 386.266 205.768 385.752 206.283C384.98 207.055 384.723 208.085 383.951 208.6C383.694 208.6 383.437 208.6 383.18 208.6Z" fill="#003D75"/>
<path d="M385.752 218.902C385.238 219.159 384.723 219.417 384.466 219.417C384.98 220.447 386.523 220.962 388.581 220.962C391.153 220.962 393.982 220.704 396.554 220.189C397.84 219.932 396.297 220.447 398.354 219.674C399.898 218.644 402.727 216.584 403.498 214.781C403.755 214.266 403.755 214.009 404.013 213.493C404.013 213.236 404.27 212.978 404.27 212.721C404.784 210.918 405.813 202.162 398.612 201.39C394.239 201.132 389.867 201.39 386.781 203.707C386.266 204.223 385.495 205.253 384.723 206.025C384.723 206.025 384.723 206.025 384.723 206.283C383.952 206.54 383.694 207.57 383.694 208.6C383.952 208.6 383.952 208.6 384.209 208.6C385.495 210.661 386.009 211.948 386.523 214.266C387.038 215.811 386.781 218.387 385.752 218.902Z" fill="#002B6A"/>
<path d="M384.466 208.6C385.752 210.661 386.266 211.948 386.78 214.266C387.038 215.811 386.78 218.386 385.752 218.902C384.466 216.584 383.951 212.978 383.951 210.146C383.951 209.888 383.951 209.631 383.951 209.373C383.951 209.115 383.951 208.6 383.951 208.343C384.208 208.6 384.208 208.6 384.466 208.6Z" fill="#F9A873"/>
<path d="M381.634 259.591C382.148 259.848 382.662 260.106 383.177 260.106C383.177 260.878 383.177 261.651 383.177 262.681C382.405 262.681 381.634 262.424 381.119 262.166C381.119 261.136 381.634 259.333 381.634 259.591Z" fill="#277293"/>
<path d="M388.579 222.765C390.122 222.25 391.665 221.735 392.694 221.477C393.98 221.219 396.295 220.962 397.58 220.962C398.609 220.962 398.866 221.477 398.866 221.477C397.838 221.735 395.266 222.25 395.009 222.25C392.951 222.507 390.636 223.022 388.579 223.537C388.064 223.537 386.521 224.31 386.007 224.31C386.778 223.795 387.807 223.28 388.579 222.765Z" fill="white"/>
<path d="M403.496 222.764L399.896 221.219C399.896 221.219 397.581 221.477 396.552 221.734C396.295 221.734 396.038 221.734 395.781 221.992C395.523 221.992 395.266 221.992 395.009 222.249C392.952 222.507 390.637 223.022 388.579 223.537C388.065 223.537 387.808 223.795 387.293 224.052C386.779 224.31 386.522 224.31 386.007 224.567C384.464 225.082 381.635 226.627 381.635 226.627L379.063 231.52C379.063 231.52 376.491 236.671 376.491 237.701C376.491 241.049 377.006 241.821 378.292 243.367C378.806 243.882 379.578 244.397 380.092 244.912C380.349 246.457 380.349 247.745 380.863 250.32C381.378 253.41 381.378 259.333 381.378 259.333C381.892 259.591 382.921 259.848 382.921 259.848L389.094 260.363C389.094 260.363 390.122 260.363 390.637 260.106C392.18 259.848 393.723 259.591 395.009 259.076C396.552 258.561 399.124 257.788 400.153 257.015C399.896 254.955 399.896 251.607 400.153 249.805C400.667 245.169 402.21 237.958 402.21 237.958L403.754 232.035L403.496 222.764Z" fill="#33B3C4"/>
<path d="M350.515 226.37C352.829 225.855 353.601 225.34 355.144 224.825C357.973 227.143 366.203 234.096 368.518 236.929L369.804 238.731C370.318 239.504 371.862 241.564 371.862 241.564C371.604 241.564 368.004 242.852 366.203 243.367C363.889 244.139 361.574 245.169 359.516 245.942C355.658 240.792 344.085 231.005 340.741 227.658C343.313 227.4 347.685 226.885 350.515 226.37Z" fill="#DCFFFF"/>
<path d="M365.689 235.641L366.203 235.383C366.46 235.898 367.232 236.156 367.232 236.156H369.546C369.546 236.156 370.318 236.156 370.575 236.156L370.832 236.413C371.347 237.186 371.604 237.958 372.118 238.731C371.604 238.989 371.09 239.246 370.832 240.019C369.546 239.761 369.289 238.989 368.775 238.216C368.261 238.216 366.975 237.958 366.975 237.958L365.946 236.928C365.689 236.671 365.431 235.898 365.689 235.641Z" fill="#F9A873"/>
<path d="M383.434 275.043C384.206 276.073 386.521 276.073 387.807 276.073C387.807 277.103 387.807 278.648 387.807 279.936C387.807 280.193 387.549 280.708 387.549 280.966C387.549 281.223 387.549 281.223 387.549 281.481C387.807 282.511 387.549 285.601 387.549 285.601L386.778 286.116L386.006 286.889L384.206 286.374C383.949 286.116 383.692 285.859 383.692 285.344C383.177 284.314 382.663 283.026 382.148 281.996C382.148 281.738 382.148 281.223 382.148 280.708C382.148 278.906 382.92 276.588 383.434 275.043Z" fill="#F9A873"/>
<path d="M379.322 231.52C379.322 230.49 379.579 229.46 379.836 228.687C380.093 227.915 380.351 227.4 380.865 226.885C381.122 226.627 381.379 226.627 381.637 226.37C382.923 226.112 384.466 226.37 385.237 227.657C385.752 228.687 390.896 252.895 390.896 252.895L388.066 276.072L387.552 276.33C386.009 276.587 383.951 275.815 383.18 274.785V274.527V255.47C382.923 255.728 379.065 235.126 379.322 231.52Z" fill="#6ABFCE"/>
<path d="M212.146 296.417L215.746 293.327L221.147 293.584L220.89 294.614L217.547 295.387C217.547 295.387 219.347 295.644 219.861 296.16C220.118 296.417 220.118 296.675 219.09 297.19C217.804 297.705 215.746 298.735 214.975 298.735C213.946 298.477 212.146 296.417 212.146 296.417Z" fill="#FFAD91"/>
<path d="M211.888 346.635L209.83 349.725L213.174 353.588C213.174 353.588 217.546 358.739 219.346 358.739C221.147 358.739 219.089 353.588 219.089 353.588L216.774 349.725L211.888 346.635Z" fill="#002B6A"/>
<path d="M216.518 314.187H222.948L225.777 316.247L226.034 322.942L216.518 349.983L212.146 347.923L214.203 336.334L216.518 314.187Z" fill="#E69C83"/>
<path d="M221.918 317.792H229.12L231.691 319.852L231.434 326.548L221.918 353.588L217.546 352.043L219.861 339.939L221.918 317.792Z" fill="#FFAD91"/>
<path d="M229.889 305.43L232.203 302.855L236.576 303.37L240.176 305.688L236.318 309.036L232.975 309.808L229.889 305.43Z" fill="#FFAD91"/>
<path d="M222.433 306.976L212.402 293.842L209.573 302.083L219.861 314.186L233.749 309.808L229.891 305.173L222.433 306.976Z" fill="#002B6A"/>
<path opacity="0.3" d="M206.229 354.361C207.773 353.588 209.573 353.588 210.859 354.361L227.834 364.662V369.555C227.834 370.585 227.319 371.615 226.29 372.13L209.573 380.628C208.03 381.401 206.229 381.401 204.943 380.628L189.512 372.903C188.483 372.388 187.969 371.357 187.969 370.327V365.434L206.229 354.361Z" fill="#1D99B3"/>
<path d="M220.376 364.662C220.89 364.405 221.148 364.405 221.919 364.92C223.205 365.692 224.234 367.495 224.234 369.298C224.234 370.328 223.977 371.358 223.462 371.615L219.862 373.418L216.775 366.98L220.376 364.662Z" fill="#002B6A"/>
<path d="M215.746 368.783C215.746 370.585 216.775 372.388 218.061 373.16C219.347 373.933 220.376 373.16 220.376 371.358C220.376 369.555 219.347 367.752 218.061 366.98C216.775 366.207 215.746 366.98 215.746 368.783Z" fill="#11487F"/>
<path d="M217.289 369.555C217.289 370.328 217.803 370.843 218.061 371.358C218.575 371.615 218.832 371.358 218.832 370.585C218.832 369.813 218.318 369.298 218.061 368.782C217.546 368.525 217.289 368.782 217.289 369.555Z" fill="#002B6A"/>
<path d="M195.427 364.662C194.913 364.405 194.656 364.405 193.884 364.92C192.598 365.692 191.569 367.495 191.569 369.298C191.569 370.328 191.827 371.1 192.341 371.358L195.942 373.16L199.028 366.722L195.427 364.662Z" fill="#002B6A"/>
<path d="M199.8 368.783C199.8 370.585 198.772 372.388 197.486 373.16C196.2 373.933 195.171 373.16 195.171 371.358C195.171 369.555 196.2 367.752 197.486 366.98C198.772 366.207 199.8 366.98 199.8 368.783Z" fill="#11487F"/>
<path d="M198.513 369.555C198.513 370.328 197.998 370.843 197.741 371.358C197.227 371.615 196.97 371.358 196.97 370.585C196.97 369.813 197.484 369.298 197.741 368.782C197.998 368.525 198.513 368.782 198.513 369.555Z" fill="#002B6A"/>
<path d="M216.261 352.301C216.004 352.043 215.49 352.043 214.976 352.558C213.947 353.331 212.918 354.876 212.918 356.421C212.918 357.194 213.175 358.224 213.69 358.481L216.776 360.026L219.348 354.361L216.261 352.301Z" fill="#002B6A"/>
<path d="M220.378 355.649C220.378 357.194 219.349 358.996 218.32 359.512C217.291 360.284 216.263 359.512 216.263 357.966C216.263 356.421 217.291 354.619 218.32 354.103C219.349 353.588 220.378 354.361 220.378 355.649Z" fill="#11487F"/>
<path d="M219.092 356.421C219.092 356.936 218.835 357.709 218.32 357.966C217.806 358.224 217.549 357.966 217.549 357.451C217.549 356.936 217.806 356.164 218.32 355.906C218.578 355.649 219.092 355.906 219.092 356.421Z" fill="#002B6A"/>
<path d="M198.773 352.301C199.03 352.043 199.544 352.043 200.059 352.558C201.088 353.331 202.116 354.876 202.116 356.421C202.116 357.194 201.859 358.224 201.345 358.481L198.258 360.026L195.687 354.361L198.773 352.301Z" fill="#002B6A"/>
<path d="M194.914 355.649C194.914 357.194 195.943 358.996 196.972 359.512C198 360.284 199.029 359.512 199.029 357.966C199.029 356.421 198 354.619 196.972 354.103C195.686 353.588 194.914 354.361 194.914 355.649Z" fill="#11487F"/>
<path d="M195.943 356.421C195.943 356.936 196.201 357.709 196.715 357.966C197.229 358.224 197.487 357.966 197.487 357.451C197.487 356.936 197.229 356.164 196.715 355.906C196.458 355.649 195.943 355.906 195.943 356.421Z" fill="#002B6A"/>
<path d="M220.117 352.301L219.86 354.103L212.144 358.996L211.115 356.679L220.117 352.301Z" fill="#168CA8"/>
<path d="M207.514 355.906L209.571 353.589L217.287 350.756L220.116 352.301L211.114 356.936L207.514 355.906Z" fill="#33B3C4"/>
<path d="M194.914 352.301L195.428 354.103L202.887 358.996L204.173 356.679L194.914 352.301Z" fill="#168CA8"/>
<path d="M207.517 355.906L205.459 353.589L198.258 350.756L194.914 352.301L204.173 356.936L207.517 355.906Z" fill="#33B3C4"/>
<path d="M224.231 366.207L223.46 368.01L219.859 369.812L207.514 361.829V357.966L224.231 366.207Z" fill="#168CA8"/>
<path d="M210.857 355.906L224.231 366.207L220.373 368.268L207.514 359.512V355.906H210.857Z" fill="#33B3C4"/>
<path d="M191.569 366.465L192.341 368.525L195.427 369.812L207.515 361.829V357.966L191.569 366.465Z" fill="#168CA8"/>
<path d="M204.429 355.906L191.569 366.465L194.913 368.268L207.515 359.512V355.906H204.429Z" fill="#33B3C4"/>
<path d="M207.516 359.254C209.574 359.254 211.117 357.709 211.117 355.906V340.197H204.173V355.906C204.173 357.709 205.716 359.254 207.516 359.254Z" fill="#33B3C4"/>
<path d="M193.112 329.638L205.2 322.685C206.744 321.912 208.544 321.912 209.83 322.685L220.889 329.123L226.548 330.153V335.046C226.548 336.076 226.033 337.106 225.004 337.621L208.287 346.12C206.744 346.892 204.943 346.892 203.657 346.12L188.226 338.394C187.197 337.879 186.683 336.849 186.683 335.819V330.926L193.112 329.638Z" fill="#B33939"/>
<path d="M225.261 327.578L210.087 317.792C208.544 317.02 206.743 317.02 205.457 317.792L188.483 328.351C186.425 329.381 186.425 332.214 188.483 333.501L203.914 340.97C205.457 341.742 207.258 341.742 208.544 340.97L225.261 332.729C227.062 331.441 227.062 328.608 225.261 327.578Z" fill="#FF5252"/>
<path d="M211.631 315.217L216.517 314.444L223.719 319.08L229.377 323.2L227.577 329.638L207.258 338.137L203.143 338.394C203.143 338.394 195.428 335.046 193.627 333.759C190.798 331.956 189.769 326.033 191.313 323.2C192.598 320.11 211.631 315.217 211.631 315.217Z" fill="#002B6A"/>
<path d="M194.912 287.146L190.54 293.069C190.54 293.069 190.54 306.976 190.54 311.354C190.54 315.732 191.826 323.973 191.826 323.973L207.772 328.866L217.545 323.2L212.401 312.899L214.202 303.885L212.401 294.357L194.912 287.146Z" fill="#002B6A"/>
<path d="M184.367 303.113L190.283 300.28C191.054 300.022 191.826 300.022 192.855 300.28L207.515 308.006C210.086 309.551 211.63 312.126 211.63 314.959V319.852C211.63 321.14 210.858 322.17 210.086 322.685L205.971 324.745L199.027 317.277L191.826 313.156C189.254 311.611 187.711 309.036 187.711 306.203V305.173L184.367 303.113Z" fill="#FF5252"/>
<path d="M202.885 325.002L187.196 317.277C184.624 315.731 183.081 313.156 183.081 310.323V305.43C183.081 303.37 185.396 302.083 187.196 303.113L202.885 310.838C205.457 312.384 207 314.959 207 317.792V322.685C207 324.745 204.685 326.033 202.885 325.002Z" fill="#B33939"/>
<path d="M189.768 337.621V310.839C189.768 309.293 190.282 308.263 191.568 307.491L195.683 309.551V341.999C195.683 341.999 193.368 341.999 192.34 341.484L191.568 341.227C190.539 340.197 189.768 338.909 189.768 337.621Z" fill="#168CA8"/>
<path d="M213.429 272.725L213.944 277.103L212.4 284.828L208.285 287.146C208.028 287.146 209.314 272.725 213.429 272.725Z" fill="#FFAD91"/>
<path d="M211.115 264.999L207.771 262.424L199.798 264.226L194.912 268.862V283.283L191.311 288.434L191.054 296.675L204.428 303.37L207 301.568L209.829 294.872L210.086 281.223L212.401 274.012L215.744 272.725L214.201 266.801L211.115 264.999Z" fill="#002B6A"/>
<path d="M217.544 349.983L215.486 353.073L218.83 356.678L222.431 360.541L225.002 362.086L226.288 359.769L222.431 353.073L217.544 349.983Z" fill="#002B6A"/>
<path opacity="0.3" d="M137.045 329.381C130.615 335.819 114.155 340.97 100.266 340.97C86.378 340.97 79.9482 335.819 86.378 329.381C92.8078 322.943 109.268 317.792 123.157 317.792C137.045 317.792 143.475 323.2 137.045 329.381Z" fill="#1D99B3"/>
<path fill-rule="evenodd" clip-rule="evenodd" d="M126.244 320.367V323.2L121.614 325.775L109.783 320.367L109.012 312.126L118.528 313.929L126.244 320.367Z" fill="#002B6A"/>
<path fill-rule="evenodd" clip-rule="evenodd" d="M100.525 330.411C100.267 330.411 91.78 331.699 91.78 331.699L88.4365 336.076L89.7225 337.622L109.012 339.424L111.069 337.364L112.613 335.819L110.555 329.123L100.525 330.411Z" fill="#002B6A"/>
<path fill-rule="evenodd" clip-rule="evenodd" d="M117.755 251.35C117.755 251.865 118.527 254.441 118.527 254.441L120.07 265.772L122.642 288.434L127.014 309.036V321.398L122.385 322.943L115.698 318.307L108.239 279.421L117.755 251.35Z" fill="#002B6A"/>
<path fill-rule="evenodd" clip-rule="evenodd" d="M92.0381 260.106C92.0381 260.106 92.5525 291.782 92.8097 292.039C93.0669 292.297 99.7539 332.471 99.7539 332.471C99.7539 332.471 104.641 336.591 105.155 336.334C105.412 336.076 113.385 332.986 113.385 332.986L108.498 301.825C108.498 301.825 110.299 273.497 110.556 273.24C112.356 271.18 120.072 263.969 120.072 263.969L118.786 254.183L92.0381 260.106Z" fill="#003D75"/>
<path fill-rule="evenodd" clip-rule="evenodd" d="M61.9455 200.617C61.9455 200.36 57.5732 192.119 57.5732 192.119L59.6308 184.908L60.9168 185.681L61.1739 189.029L62.7171 189.801L64.7746 190.059L65.5462 198.557L61.9455 200.617Z" fill="#F9A873"/>
<path fill-rule="evenodd" clip-rule="evenodd" d="M89.4644 182.075L87.6641 177.697L90.236 174.092V169.457L91.0075 168.169L93.3223 173.319V181.303L89.4644 182.075Z" fill="#F9A873"/>
<path fill-rule="evenodd" clip-rule="evenodd" d="M60.6586 198.557L60.4014 200.875L63.7449 205.51L67.6028 198.042L66.0596 195.467L60.6586 198.557Z" fill="white"/>
<path fill-rule="evenodd" clip-rule="evenodd" d="M88.4364 185.681L87.1504 184.136L87.6648 182.591L93.0659 179.243L93.5802 180.53L88.4364 185.681Z" fill="white"/>
<path fill-rule="evenodd" clip-rule="evenodd" d="M101.295 224.825L79.6908 215.554L67.0884 195.982L61.1729 199.587L60.4014 201.648L73.261 223.795L96.4084 237.959H102.067C101.809 237.959 106.953 231.263 101.295 224.825Z" fill="#002B6A"/>
<path fill-rule="evenodd" clip-rule="evenodd" d="M88.1788 182.848L93.5799 179.5L102.067 195.724L121.357 209.888L115.698 216.841L95.123 203.708L87.4072 185.938L88.1788 182.848Z" fill="#002B6A"/>
<path fill-rule="evenodd" clip-rule="evenodd" d="M94.6085 221.734L116.727 209.888H121.357L124.186 221.734L117.241 243.882L120.328 254.44L100.524 265.772L91.0078 262.681L91.265 258.561L92.551 241.307L91.0078 228.688L94.6085 221.734Z" fill="#002B6A"/>
<path fill-rule="evenodd" clip-rule="evenodd" d="M101.039 218.902C101.039 218.644 101.039 211.434 101.039 211.434C101.039 211.434 108.755 208.858 109.269 209.116C109.526 209.373 112.87 213.751 112.87 213.751L107.726 218.387L101.039 218.902Z" fill="#F9A873"/>
<path fill-rule="evenodd" clip-rule="evenodd" d="M104.383 215.039C104.383 214.524 97.4385 208.343 97.4385 208.343V198.042L101.296 202.42L104.383 215.039Z" fill="#F9A873"/>
<path fill-rule="evenodd" clip-rule="evenodd" d="M95.8955 196.239L102.325 191.346L110.298 192.634L115.185 198.815L113.385 211.691L105.412 215.039L100.525 209.888L99.4962 202.163L95.8955 196.239Z" fill="#11487F"/>
<path fill-rule="evenodd" clip-rule="evenodd" d="M112.611 213.236L106.696 216.841L101.038 217.614L100.523 218.902H107.21L113.897 214.524L113.64 212.979L111.84 212.464L112.611 213.236Z" fill="white"/>
<path d="M152.731 18.288C152.731 18.288 155.046 18.288 156.332 19.5756C157.361 20.8632 159.676 33.7396 159.676 33.7396L168.163 51.7665L163.791 52.7966L156.332 40.9503L152.731 18.288Z" fill="#002B6A"/>
<path d="M166.876 102.757L163.019 105.075L164.047 110.998L164.819 116.663H166.105V113.831L167.648 116.663V119.239L170.22 120.526L176.907 121.041L178.193 120.526L177.936 117.178L172.02 112.028L166.876 102.757Z" fill="#002B6A"/>
<path d="M178.965 107.65L182.566 112.028V115.633C182.566 115.633 181.795 116.921 181.537 116.921C181.28 116.921 176.136 115.376 176.136 115.376L175.365 113.058L173.822 110.998L172.793 112.285L169.449 101.212L172.536 99.409L178.965 107.65Z" fill="#002B6A"/>
<path d="M175.364 116.148L173.307 113.315L172.278 107.135L169.963 99.6665L168.163 84.73C168.163 84.73 160.447 87.8203 160.447 88.3353C160.447 88.5929 165.848 102.499 165.848 102.499L164.82 105.847L169.706 115.891L172.021 116.921L175.364 116.148Z" fill="#F9A873"/>
<path d="M177.937 112.028L180.252 110.483L179.995 109.195L178.194 106.105L176.651 100.439L176.137 97.864L177.68 82.4124L170.479 86.2753L172.022 95.5463L171.764 100.954L174.594 108.423L177.937 112.028Z" fill="#F9A873"/>
<path d="M163.534 70.3086L170.221 73.1414L168.678 92.7134L178.452 89.8806L178.966 68.5059L157.362 50.7365L153.504 57.1747L163.534 70.3086Z" fill="#002B6A"/>
<path d="M136.787 65.6731C137.044 65.6731 160.448 79.0645 160.448 79.0645V89.108C160.448 89.108 161.22 98.379 161.992 98.1215C162.763 97.8639 170.222 95.8037 170.222 95.8037L169.193 74.6865L160.706 64.3854L153.504 57.1747H134.215L136.787 65.6731Z" fill="#002B6A"/>
<path d="M136.015 40.9504L139.102 48.4187L134.215 57.1746H153.504L157.362 50.7365L154.533 44.5558L156.848 37.3451L158.391 36.0574L158.134 30.3918L155.819 26.2714L153.504 19.0607L140.13 21.1209L136.015 24.2112V40.9504Z" fill="#002B6A"/>
<path d="M166.363 65.158L161.219 70.3086L150.932 63.3553L167.649 54.5994L170.221 63.0978L166.363 65.158Z" fill="#B33939"/>
<path d="M165.593 51.5092L167.65 52.0243L171.251 55.3721L169.708 60.0076L163.535 57.4323L164.564 52.5393L165.593 51.5092Z" fill="#F9A873"/>
<path d="M161.22 70.3085L168.678 55.6294L185.653 46.101L178.709 60.5224L161.22 70.3085Z" fill="#FF5252"/>
<path d="M149.131 58.72L150.931 60.0077L152.217 59.7501L157.361 61.2953V65.9308L154.532 66.9609L148.102 63.8706L146.302 62.3254L149.131 58.72Z" fill="#F9A873"/>
<path d="M149.387 17.5156C149.387 17.5156 148.358 19.5759 149.129 21.121L150.415 22.6662L149.387 25.499L140.385 21.6361C140.385 21.6361 142.957 22.1511 143.471 21.121C143.985 20.0909 143.985 14.1678 143.985 14.1678L149.387 17.5156Z" fill="#F9A873"/>
<path d="M155.559 8.50214L156.073 13.3952L152.73 20.8634L150.415 21.636L145.014 18.5457C145.014 18.5457 142.699 14.9403 142.699 12.6226C142.699 6.95698 149.129 4.38171 149.129 4.38171L154.787 7.72956L155.559 8.50214Z" fill="#F9A873"/>
<path d="M155.045 5.66933C155.045 5.66933 152.987 10.5623 147.843 11.3349C142.7 12.1075 140.642 10.8199 140.642 10.8199L137.556 9.53223C137.556 9.53223 140.385 1.5489 144.5 0.261269C148.615 -0.768838 155.302 2.83654 155.302 2.83654L155.045 5.66933Z" fill="#E3FFFE"/>
<path d="M156.33 14.6829C156.33 14.6829 159.416 11.0776 159.159 9.27486C158.902 7.7297 158.13 5.41196 156.587 4.12433C155.044 3.09422 153.758 4.38186 153.501 5.15444C153.244 5.92702 154.272 7.98723 155.301 10.305C156.33 12.8802 156.33 14.6829 156.33 14.6829Z" fill="#E3FFFE"/>
<path d="M146.558 7.98724C146.558 7.98724 145.014 10.5625 146.3 12.3652C147.329 13.9104 148.358 15.9706 147.072 18.0308C145.786 20.091 143.986 24.2114 140.642 23.1813C137.299 22.1512 135.755 23.9539 133.698 26.7867C131.64 29.6195 131.383 26.7867 132.412 24.2114C133.184 21.6362 134.984 16.4856 139.356 15.713C142.443 15.198 139.356 15.713 139.356 15.713C139.356 15.713 137.556 12.8803 137.813 9.5324C138.07 6.44208 147.072 0.776489 147.844 0.776489C154.531 1.29154 146.558 7.98724 146.558 7.98724Z" fill="#E3FFFE"/>
<path d="M136.014 24.2112C136.014 24.2112 132.928 26.7864 132.928 28.8467C132.928 30.9069 130.613 49.4488 130.613 49.4488V50.994L147.588 63.6128L150.932 59.4924L138.072 48.1612L139.358 32.9671C138.843 32.9671 140.644 26.7865 136.014 24.2112Z" fill="#11487F"/>
</svg>
