<svg width="104" height="51" viewBox="0 0 104 51" fill="none" xmlns="http://www.w3.org/2000/svg">
<path d="M99.8316 15.5333C97.2109 12.5542 93.4698 9.88809 88.7127 7.60154C79.0086 2.94305 66.1236 0.381348 52.4315 0.381348C38.7394 0.381348 25.8544 2.94305 16.1503 7.60154C11.3932 9.88809 7.65211 12.5542 5.03143 15.5333C2.26833 18.6738 0.863037 22.0229 0.863037 25.486C0.863037 28.949 2.26833 32.2982 5.03143 35.4387C7.65211 38.4178 11.3932 41.0839 16.1503 43.3704C25.8544 48.0289 38.7394 50.5906 52.4315 50.5906C66.1236 50.5906 79.0086 48.0289 88.7127 43.3704C93.4698 41.0839 97.2109 38.4178 99.8316 35.4387C102.595 32.2982 104 28.949 104 25.486C104 22.0229 102.595 18.6738 99.8316 15.5333ZM88.124 42.156C78.6003 46.7291 65.9242 49.2434 52.4315 49.2434C38.9388 49.2434 26.2627 46.7291 16.739 42.156C7.37675 37.6588 2.21136 31.7384 2.21136 25.486C2.21136 19.2335 7.36726 13.3132 16.739 8.81597C26.2627 4.24287 38.9388 1.72861 52.4315 1.72861C65.9242 1.72861 78.6003 4.24287 88.124 8.81597C97.4863 13.3132 102.652 19.2335 102.652 25.486C102.652 31.7384 97.4958 37.6588 88.124 42.156Z" fill="#5DCBE9"/>
<path d="M29.8328 25.1538C29.8328 25.1538 34.0866 20.4574 35.4065 18.8255C37.0681 16.7761 41.8632 10.666 41.8632 10.666L35.283 10.9791C35.283 10.9791 31.0387 16.4251 29.7094 18.0001C28.2471 19.7363 24.1357 24.0058 24.1357 24.0058L24.0122 12.7438L18.7614 14.3283L18.6379 35.7707L24.0787 37.412L24.2021 26.2165C24.2021 26.2165 28.6744 30.8655 30.0892 32.4784C31.6559 34.2716 36.0996 39.8789 36.0996 39.8789L43.0027 40.5715C43.0027 40.5715 37.296 33.8446 35.4065 31.4632C34.0772 29.8218 29.8328 25.1538 29.8328 25.1538Z" fill="#5DCBE9"/>
<path d="M51.5485 36.4159C48.4436 36.4159 46.6775 34.9643 46.6775 34.9643C46.6775 34.9643 42.6231 32.1843 42.8794 25.856C43.1358 19.5277 45.0728 17.744 46.744 16.1785C48.8329 14.2145 52.8209 14.4043 52.8209 14.4043L57.1222 14.594V10.2961C57.1222 10.2961 53.3241 10.1063 51.4916 10.1063C50.2857 10.1063 48.1398 9.91654 44.5316 12.0039C40.8569 14.1291 38.2648 19.5941 38.1413 26.1122C38.0179 32.6303 41.3032 36.9946 43.9619 38.8922C46.6205 40.7898 51.3681 40.9131 51.3681 40.9131L57.2552 40.8467L57.1317 36.4159C57.1127 36.4159 54.644 36.4159 51.5485 36.4159Z" fill="#5DCBE9"/>
<path d="M62.1166 35.2111L62.24 26.2261L58.6983 26.359L58.6318 40.7804L61.9931 40.4009L68.6398 30.9131L68.5068 39.509L71.9251 38.9397V26.0364L68.7632 26.1028L62.1166 35.2111Z" fill="#5DCBE9"/>
<path d="M65.155 10.5427V14.9071L73.3874 15.6661L73.5773 38.6929L78.2014 37.6208L78.078 16.1785L86.3103 17.0608V13.9583C86.3103 13.9583 82.9585 13.2657 75.7422 11.9944C68.5068 10.7325 65.155 10.5427 65.155 10.5427Z" fill="#5DCBE9"/>
</svg>
