<svg width="176" height="140" viewBox="0 0 176 140" fill="none" xmlns="http://www.w3.org/2000/svg">
<path d="M4.56253 5.45689L13.5488 0.893823C16.2868 -0.510196 20.0779 -0.299645 24.22 1.80638L15.2337 6.36945C11.0916 4.26342 7.30053 4.05287 4.56253 5.45689Z" fill="#63F2FF"/>
<path d="M118.644 130.34L127.631 125.777C127.631 129.919 125.946 132.867 123.208 134.201L114.221 138.764C116.959 137.43 118.574 134.481 118.644 130.34Z" fill="#B3FFFB"/>
<path d="M118.785 74.1805L127.771 69.6177L127.631 125.776L118.645 130.339L118.785 74.1805Z" fill="#63F2FF"/>
<path d="M15.2301 6.36952L24.2164 1.80664L112.816 46.8036L103.829 51.3665L15.2301 6.36952Z" fill="#DCFFFC"/>
<path d="M103.831 51.3661L112.817 46.8032C121.102 51.0151 127.771 61.2641 127.771 69.6177L118.785 74.1806C118.855 65.827 112.115 55.578 103.831 51.3661Z" fill="#8F2A1F"/>
<path d="M103.834 51.3658C112.118 55.5777 118.788 65.8266 118.788 74.1802L118.577 130.339C118.577 138.692 111.767 142.062 103.553 137.92L40.93 106.331C40.7194 106.471 17.9728 116.791 17.5515 116.58C16.5687 116.089 16.2177 114.965 16.7793 113.632L18.745 95.0291L14.9539 92.853C6.6697 88.6411 0.000167847 78.3922 0.000167847 70.0386L0.2108 13.8801C0.2108 5.52649 7.02073 2.15694 15.2348 6.29863L103.834 51.3658Z" fill="#B3FFFB"/>
<path d="M54.3304 62.3172C61.8424 60.4219 70.267 73.1978 64.6506 77.9712C56.9982 80.0772 48.4332 67.0205 54.3304 62.3172Z" fill="white"/>
<path d="M75.8883 73.3382C83.4002 71.4429 91.8249 84.2187 86.2085 88.992C78.6263 91.0277 70.0612 77.9712 75.8883 73.3382Z" fill="white"/>
<path d="M32.6452 51.366C40.087 49.4004 48.652 62.1765 42.9654 67.0202C35.4534 69.1261 26.8182 56.0692 32.6452 51.366Z" fill="white"/>
<path d="M148.281 134.762L142.454 113.983L151.44 109.42L157.268 130.199C157.548 131.182 157.478 131.744 157.197 131.884L148.211 136.447C148.562 136.307 148.562 135.745 148.281 134.762Z" fill="#DCFFFC"/>
<path d="M90.6314 23.8492C84.5235 20.7605 79.5389 23.2175 79.5389 29.3949L79.3985 70.7417C79.3985 76.9191 84.3129 84.4303 90.4208 87.519L114.782 99.8739C114.993 100.155 115.203 100.506 115.554 100.857L146.515 135.254C147.006 135.815 147.428 136.166 147.708 136.307C148.41 136.658 148.691 136.096 148.27 134.692L142.443 113.914L155.642 120.723C161.75 123.811 166.734 121.284 166.734 115.177L166.875 73.8303C166.875 67.6529 161.96 60.1417 155.852 57.053L90.6314 23.8492ZM101.443 70.18C97.5817 68.2145 94.4225 63.4411 94.4225 59.51C94.4225 55.5789 97.5817 53.9642 101.513 55.9298C105.375 57.8953 108.534 62.6688 108.534 66.6701C108.534 70.6012 105.375 72.1456 101.443 70.18ZM123.066 81.131C119.205 79.1654 116.046 74.392 116.046 70.4609C116.046 66.5298 119.205 64.9152 123.137 66.8808C126.998 68.8463 130.157 73.6197 130.157 77.621C130.157 81.5521 126.998 83.1667 123.066 81.131ZM144.69 92.1521C140.828 90.1866 137.669 85.413 137.669 81.4819C137.669 77.5508 140.828 75.9363 144.76 77.9019C148.621 79.8674 151.78 84.6409 151.78 88.6422C151.78 92.5031 148.551 94.1177 144.69 92.1521Z" fill="white"/>
<path d="M82.7735 23.2174L91.7598 18.6548C93.7957 17.6019 96.5338 17.7423 99.6228 19.2865L90.6365 23.8492C87.5474 22.3049 84.7392 22.1645 82.7735 23.2174Z" fill="#DCFFFC"/>
<path d="M166.736 115.106L175.723 110.543C175.723 113.632 174.459 115.738 172.493 116.791L163.507 121.354C165.473 120.372 166.736 118.195 166.736 115.106Z" fill="#63F2FF"/>
<path d="M166.88 73.7607L175.796 69.1978L175.726 110.545L166.739 115.108L166.88 73.7607Z" fill="#DCFFFC"/>
<path d="M90.6379 23.8486L99.6242 19.2856L164.775 52.4195L155.789 56.9824L90.6379 23.8486Z" fill="#B3FFFB"/>
<path d="M155.787 56.9828L164.774 52.4199C170.882 55.5087 175.796 63.0902 175.796 69.1975L166.81 73.7604C166.88 67.6531 161.895 60.0716 155.787 56.9828Z" fill="#63F2FF"/>
<path d="M139.646 77.2C147.158 75.3047 155.582 88.0807 149.966 92.8541C142.384 94.8899 133.748 81.8331 139.646 77.2Z" fill="#B3FFFB"/>
<path d="M118.02 66.179C125.532 64.2837 133.957 77.0596 128.34 81.8331C120.758 83.939 112.123 70.8823 118.02 66.179Z" fill="#B3FFFB"/>
<path d="M96.4026 55.2278C103.844 53.2622 112.409 66.0383 106.723 70.8819C99.1405 72.9878 90.5755 59.931 96.4026 55.2278Z" fill="#B3FFFB"/>
</svg>
