<svg width="187" height="181" viewBox="0 0 187 181" fill="none" xmlns="http://www.w3.org/2000/svg">
<path d="M3.06422 139.99L78.3101 175.257C81.7602 176.797 87.3461 176.797 90.7963 175.257L147.477 148.769C149.284 147.999 150.106 146.921 150.106 145.842V150.001C150.106 151.079 149.284 152.157 147.477 152.927L90.7963 179.416C87.3461 180.956 81.5959 180.956 78.3101 179.416L3.06422 144.148C1.4213 143.378 0.435547 142.3 0.435547 141.222V137.064C0.599839 138.142 1.4213 139.22 3.06422 139.99Z" fill="#F15C24"/>
<path d="M88.332 176.181C89.3178 176.027 90.1392 175.719 90.9607 175.411L147.641 148.923C149.449 148.153 150.27 147.075 150.27 145.997V150.155C150.27 151.233 149.449 152.311 147.641 153.081L90.9607 179.57C90.1392 179.878 89.3178 180.186 88.332 180.34V176.181Z" fill="#D84021"/>
<path d="M3.22945 134.138C-0.220688 135.678 -0.220688 138.45 3.22945 139.99L78.4753 175.257C81.9254 176.797 87.5113 176.797 90.9615 175.257L147.642 148.769C151.092 147.229 151.092 144.456 147.642 142.916L72.3965 107.649C68.9463 106.109 63.3604 106.109 59.9102 107.649L3.22945 134.138Z" fill="#FF815A"/>
<path d="M24.7512 124.59C24.5869 124.436 24.5869 124.282 24.5869 124.128V120.124C24.5869 120.586 24.9155 121.048 25.5727 121.356C26.3941 121.818 27.0513 122.126 27.5442 122.28V126.284C27.3799 126.13 27.0513 126.13 26.7227 125.976V129.672L24.7512 128.748C24.4226 128.594 24.2583 128.286 24.2583 128.132V124.128C24.2583 124.282 24.4226 124.436 24.7512 124.59Z" fill="#ED9718"/>
<path d="M28.8587 126.592C29.5159 126.9 30.8302 126.9 31.4874 126.592L47.9166 118.892C48.5738 118.584 48.5738 117.968 47.9166 117.66L45.9451 116.736L65.8244 107.495L143.535 143.994L101.147 163.707L85.0466 156.161L68.7817 163.707L7.00781 134.908L26.8872 125.668L28.8587 126.592Z" fill="#FDFDFD"/>
<path d="M27.5441 123.82C27.0513 123.666 26.3941 123.204 25.5726 122.896C24.094 122.126 24.2583 121.048 25.9012 120.278L30.0085 117.506C31.6514 116.736 35.1016 117.198 36.5802 117.814C37.4017 118.276 38.0588 118.584 38.5517 118.738L41.1804 117.506C41.8375 117.198 43.1519 117.198 43.8091 117.506L45.7806 118.43L48.2449 118.584V120.124C48.2449 120.124 48.0806 120.432 47.7521 120.586L31.3229 128.286C30.6657 128.594 29.3514 128.594 28.6942 128.286L26.7227 127.362L24.7512 126.438C24.094 126.13 24.094 125.514 24.7512 125.206L27.5441 123.82ZM32.6372 121.048C33.4587 120.586 33.4587 119.97 32.6372 119.508C31.8157 119.046 30.3371 119.046 29.3514 119.508C28.5299 119.97 28.5299 120.586 29.3514 121.048C30.3371 121.356 31.8157 121.356 32.6372 121.048Z" fill="#ED9718"/>
<path d="M27.5446 122.28C27.0518 122.126 26.3946 121.664 25.5731 121.356C24.0945 120.586 24.2588 119.508 25.9017 118.738L30.9948 116.428C32.6377 115.658 35.1021 115.658 36.5807 116.274C37.4022 116.736 38.0593 117.044 38.5522 117.198L41.1809 115.966C41.838 115.658 43.1524 115.658 43.8095 115.966L45.781 116.89L47.7525 117.814C48.4097 118.122 48.4097 118.738 47.7525 119.046L31.3233 126.746C30.6662 127.054 29.3518 127.054 28.6947 126.746L26.7232 125.822L24.7517 124.898C24.0945 124.59 24.0945 123.974 24.7517 123.666L27.5446 122.28ZM32.6377 119.508C33.4591 119.046 33.4591 118.43 32.6377 117.968C31.8162 117.506 30.3376 117.506 29.3518 117.968C28.5304 118.43 28.5304 119.046 29.3518 119.508C30.3376 119.97 31.8162 119.97 32.6377 119.508Z" fill="#FFBF00"/>
<path d="M25.4077 140.144L30.0079 142.3L81.2671 118.43L76.5026 116.274L25.4077 140.144Z" fill="#BFF7F3"/>
<path d="M43.8076 148.769L48.5721 150.925L99.6669 127.054L95.0667 124.898L43.8076 148.769Z" fill="#BFF7F3"/>
<path d="M53.6655 153.235L58.2657 155.545L109.361 131.674L104.76 129.518L53.6655 153.235Z" fill="#BFF7F3"/>
<path d="M62.8667 157.701L67.4669 159.857L118.562 135.986L113.962 133.83L62.8667 157.701Z" fill="#BFF7F3"/>
<path d="M34.6077 144.456L39.2078 146.613L90.467 122.742L85.8668 120.586L34.6077 144.456Z" fill="#BFF7F3"/>
<path d="M100.819 147.999L96.2185 156.623C96.2185 156.623 71.5746 152.927 70.9175 153.543V156.623C70.9175 156.623 99.5043 160.627 99.5043 159.857C99.5043 159.087 100.819 151.079 100.819 151.079V147.999Z" fill="#028E51"/>
<path d="M96.7114 147.999L96.2185 153.543C96.2185 153.543 75.3534 150.155 74.6962 150.771C74.039 151.387 70.9175 153.543 70.9175 153.543C70.9175 153.543 99.5043 157.547 99.5043 156.777C99.5043 156.007 100.819 147.999 100.819 147.999H96.7114Z" fill="#2ECE6F"/>
<path d="M68.6172 163.861H100.818L84.7178 156.315L68.6172 163.861Z" fill="#BFF7F3"/>
<path d="M68.6169 163.861H100.818L143.206 143.994V147.999L100.818 167.865H68.6169L7.00732 138.912V134.908L68.6169 163.861Z" fill="#9FEDEB"/>
<path d="M77.3243 119.662V122.896L75.1885 119.816V116.736L77.3243 119.662Z" fill="#028E51"/>
<path d="M81.7601 117.66L77.3243 119.662L75.1885 116.736L81.7601 117.66Z" fill="#2ECE6F"/>
<path d="M81.7608 117.66L92.7684 122.742L88.3325 124.898L77.325 119.662L81.7608 117.66Z" fill="#FFBF00"/>
<path d="M88.3325 124.898V127.978L77.325 122.896V119.662L88.3325 124.898Z" fill="#ED9718"/>
<path d="M118.068 133.984V137.218L117.411 137.372V134.292L118.068 133.984Z" fill="#731F00"/>
<path d="M93.754 122.742L88.168 125.36L88.3323 124.898L92.7682 122.742H93.754Z" fill="#E04419"/>
<path d="M108.376 134.6V137.834L88.1677 128.44V125.36L108.376 134.6Z" fill="#E04419"/>
<path d="M88.168 125.36L93.7539 122.742L113.798 132.136L108.376 134.6L88.168 125.36Z" fill="#FF815A"/>
<path d="M113.141 136.294V139.528L112.484 139.836V136.602L113.141 136.294Z" fill="#731F00"/>
<path d="M112.483 136.602V139.836L109.69 138.45V135.37L112.483 136.602Z" fill="#E04419"/>
<path d="M115.276 132.752L118.069 133.984L117.412 134.292L113.14 136.294L112.483 136.602L109.69 135.37L115.276 132.752Z" fill="#FF815A"/>
<path d="M115.276 132.752L109.69 135.37L108.54 135.986H108.375C108.047 136.14 107.39 136.14 107.061 135.986L105.911 135.37L99.9964 132.598L99.3392 132.29C99.0107 132.136 98.5178 132.136 98.0249 131.982C97.532 131.982 97.2035 131.982 96.8749 131.828C96.7106 131.828 96.7106 131.674 96.7106 131.52C96.5463 130.904 98.5178 130.904 99.6678 131.212C100.489 131.366 101.146 131.674 101.146 131.674L101.475 131.828L107.39 134.6L107.882 134.754L108.375 134.446L113.961 131.828L115.276 132.752Z" fill="#18617C"/>
<path d="M108.539 135.832C108.375 135.986 108.211 135.986 108.211 135.986C108.211 135.986 108.211 135.986 108.046 135.986H107.882H107.718H107.554H107.389C107.225 135.986 107.225 135.986 107.225 135.986L106.075 135.37L100.16 132.598L99.5032 132.29H99.3389C99.1746 132.29 99.0103 132.29 98.846 132.136C98.846 132.136 98.846 132.136 98.6817 132.136C98.5174 132.136 98.3532 132.136 98.1889 132.136C98.0246 132.136 97.8603 132.136 97.696 132.136C97.696 132.136 97.696 132.136 97.5317 132.136C97.3674 132.136 97.2031 132.136 97.2031 132.136H97.0388C96.8745 132.136 96.8745 131.982 96.8745 131.828V134.908C96.8745 135.062 97.0388 135.062 97.0388 135.216C97.0388 135.216 97.0388 135.216 97.2031 135.216C97.3674 135.216 97.5317 135.216 97.5317 135.216C97.696 135.216 97.8603 135.216 98.0246 135.216C98.1889 135.216 98.3531 135.216 98.5174 135.216C98.5174 135.216 98.5174 135.216 98.6817 135.216C98.846 135.216 99.0103 135.216 99.1746 135.37C99.1746 135.37 99.3389 135.37 99.3389 135.524L99.9961 135.832L105.911 138.604L107.061 139.22H107.225C107.225 139.22 107.225 139.22 107.389 139.22C107.389 139.22 107.389 139.22 107.554 139.22H107.718H107.882H108.046C108.046 139.22 108.046 139.22 108.211 139.22C108.375 139.22 108.375 139.22 108.539 139.066H108.704L109.854 138.45V135.37L108.539 135.832Z" fill="#1C4F66"/>
<path d="M118.561 134.908V137.988L114.289 139.99V136.91L118.561 134.908Z" fill="#184A5B"/>
<path d="M114.29 136.91V139.99L113.14 139.528V136.294L114.29 136.91Z" fill="#1C4F66"/>
<path d="M118.561 134.908L114.29 136.91L113.14 136.294L117.411 134.292L118.561 134.908Z" fill="#18617C"/>
<path opacity="0.44" d="M180.499 139.528L41.0151 74.0763V0L180.499 65.452V139.528Z" fill="white"/>
<path d="M77.9812 33.573V34.0351L72.8882 31.571V31.263L77.9812 33.573Z" fill="#9FEDEB"/>
<path d="M77.9812 36.9612V37.2692L72.8882 34.9591V34.6511L77.9812 36.9612Z" fill="#9FEDEB"/>
<path d="M83.5671 35.1131V35.5751L72.8882 30.4929V30.1849L83.5671 35.1131Z" fill="#9FEDEB"/>
<path d="M83.7316 38.5012V38.8092L72.8882 33.8811V33.419L83.7316 38.5012Z" fill="#9FEDEB"/>
<path d="M84.5527 35.5751L93.4246 39.7332V40.1952L84.5527 36.0371V35.5751Z" fill="#9FEDEB"/>
<path d="M78.8027 34.343V34.035L93.4248 40.9653L93.5891 41.2733L78.8027 34.343Z" fill="#9FEDEB"/>
<path d="M72.8882 37.2692V36.8072L88.0031 43.8914V44.1994L72.8882 37.2692Z" fill="#9FEDEB"/>
<path d="M72.8882 32.803V32.495L93.5891 42.1973V42.5053L72.8882 32.803Z" fill="#9FEDEB"/>
<path d="M84.5527 38.9631L93.5888 43.1213V43.4293L84.5527 39.2711V38.9631Z" fill="#9FEDEB"/>
<path d="M78.8027 37.7311V37.4231L93.5891 44.3534V44.6614L78.8027 37.7311Z" fill="#9FEDEB"/>
<path d="M72.8882 36.1911V35.8831L93.5891 45.4315V45.8935L72.8882 36.1911Z" fill="#9FEDEB"/>
<path d="M89.1538 44.8153V44.5073L93.5897 46.5095V46.8175L89.1538 44.8153Z" fill="#9FEDEB"/>
<path d="M83.2391 53.1316V53.4396L72.7244 48.5115V48.2035L83.2391 53.1316Z" fill="#9FEDEB"/>
<path d="M72.8882 53.4396V53.1316L83.4029 58.0597V58.2137L72.8882 53.4396Z" fill="#9FEDEB"/>
<path d="M83.4034 55.5957V55.9037L72.7244 50.9756V50.6676L83.4034 55.5957Z" fill="#9FEDEB"/>
<path d="M89.4822 55.2877V55.5957L72.7244 47.7415V47.4335L89.4822 55.2877Z" fill="#9FEDEB"/>
<path d="M72.7244 64.066V64.22L61.8811 59.2918V58.9838L72.7244 64.066Z" fill="#9FEDEB"/>
<path d="M66.9737 67.9161V68.2241L57.2805 63.758V63.45L66.9737 67.9161Z" fill="#9FEDEB"/>
<path d="M89.4822 57.7518V57.9058L72.7244 50.0516V49.8976L89.4822 57.7518Z" fill="#9FEDEB"/>
<path d="M72.724 66.8381V67.1461L57.2805 59.9079V59.5999L72.724 66.8381Z" fill="#9FEDEB"/>
<path d="M94.2462 62.3719V62.5259L72.8882 52.5156V52.3616L94.2462 62.3719Z" fill="#9FEDEB"/>
<path d="M77.1599 71.7662V72.0742L57.2805 62.834V62.526L77.1599 71.7662Z" fill="#9FEDEB"/>
<path d="M67.1376 77.7724V78.0804L57.4443 73.4603V73.3063L67.1376 77.7724Z" fill="#9FEDEB"/>
<path d="M77.1599 74.5383V74.8463L57.2805 65.606V65.298L77.1599 74.5383Z" fill="#9FEDEB"/>
<path d="M87.1815 70.8421V71.1501L73.7095 64.682V64.374L87.1815 70.8421Z" fill="#9FEDEB"/>
<path d="M90.4668 55.7498L105.253 62.68V62.834L90.4668 56.0578V55.7498Z" fill="#9FEDEB"/>
<path d="M87.1821 71.7662V72.0742L67.7957 62.9879V62.6799L87.1821 71.7662Z" fill="#9FEDEB"/>
<path d="M84.2249 53.9016V53.5936L105.254 63.4499V63.7579L84.2249 53.9016Z" fill="#9FEDEB"/>
<path d="M87.346 72.8442V73.1522L57.2805 59.1378V58.8298L87.346 72.8442Z" fill="#9FEDEB"/>
<path d="M72.7244 49.4356V49.1276L105.254 64.3739V64.528L72.7244 49.4356Z" fill="#9FEDEB"/>
<path d="M79.7885 77.0024V77.3104L57.2805 66.8381V66.53L79.7885 77.0024Z" fill="#9FEDEB"/>
<path d="M87.3457 73.6142V73.9222L73.7095 67.6081V67.3L87.3457 73.6142Z" fill="#9FEDEB"/>
<path d="M90.6323 58.3678V58.2137L105.254 65.144V65.298L90.6323 58.3678Z" fill="#9FEDEB"/>
<path d="M84.2249 56.3657V56.0577L105.254 65.914V66.068L84.2249 56.3657Z" fill="#9FEDEB"/>
<path d="M66.9737 62.2178V62.5258L57.2805 58.0598V57.7518L66.9737 62.2178Z" fill="#9FEDEB"/>
<path d="M72.8882 51.8996V51.5916L105.254 66.8381V66.9921L72.8882 51.8996Z" fill="#9FEDEB"/>
<path d="M87.346 75.6163V75.9243L57.2805 61.9099V61.6019L87.346 75.6163Z" fill="#9FEDEB"/>
<path d="M95.3955 63.1419V62.8339L105.253 67.4541L105.417 67.7621L95.3955 63.1419Z" fill="#9FEDEB"/>
<path d="M87.3453 76.5404V76.8484L78.145 72.5363V72.2283L87.3453 76.5404Z" fill="#9FEDEB"/>
<path d="M77.1594 81.4685V81.7765L57.4443 72.5363V72.2283L77.1594 81.4685Z" fill="#9FEDEB"/>
<path d="M84.3887 58.8299V58.5219L105.418 68.3781V68.5321L84.3887 58.8299Z" fill="#9FEDEB"/>
<path d="M87.3459 77.4643V77.7723L67.9595 68.6862V68.3782L87.3459 77.4643Z" fill="#9FEDEB"/>
<path d="M87.346 78.5425V78.8505L57.2805 64.836V64.528L87.346 78.5425Z" fill="#9FEDEB"/>
<path d="M87.3453 79.3125V79.6205L78.145 75.4623V75.1543L87.3453 79.3125Z" fill="#9FEDEB"/>
<path d="M77.3237 84.3946V84.7026L57.4443 75.4623V75.1543L77.3237 84.3946Z" fill="#9FEDEB"/>
<path d="M87.346 74.6923V74.8463L57.2805 60.8319V60.6779L87.346 74.6923Z" fill="#9FEDEB"/>
<path d="M87.3466 80.5445V80.8525L80.7749 77.7724V77.4644L87.3466 80.5445Z" fill="#9FEDEB"/>
<path d="M57.2805 67.4541L87.346 81.6225V81.7765L57.4448 67.7621L57.2805 67.4541Z" fill="#9FEDEB"/>
<path d="M87.3455 82.5465V82.8545L57.4443 68.8401V68.5321L87.3455 82.5465Z" fill="#9FEDEB"/>
<path d="M57.4443 69.4562L87.3455 83.4706V83.7786L57.4443 69.7642V69.4562Z" fill="#9FEDEB"/>
<path d="M57.4443 70.3801L87.3455 84.3946V84.7026L57.4443 70.6881V70.3801Z" fill="#9FEDEB"/>
<path d="M87.3455 85.4726V85.7806L57.4443 71.7663V71.4583L87.3455 85.4726Z" fill="#9FEDEB"/>
<path d="M87.3466 86.2427V86.5507L78.3105 82.3925V82.0845L87.3466 86.2427Z" fill="#9FEDEB"/>
<path d="M85.0465 88.0907V88.3987L78.3105 85.1647V84.8567L85.0465 88.0907Z" fill="#9FEDEB"/>
<path d="M87.51 87.3207V87.6287L68.1235 78.5424V78.2344L87.51 87.3207Z" fill="#9FEDEB"/>
<path d="M87.5098 88.2447V88.5527L57.4443 74.5384V74.2303L87.5098 88.2447Z" fill="#9FEDEB"/>
<path d="M118.89 78.6964V78.8504L115.768 77.4643V77.3103L118.89 78.6964Z" fill="#9FEDEB"/>
<path d="M122.34 79.6204V79.7744L115.768 76.8483V76.5403L122.34 79.6204Z" fill="#9FEDEB"/>
<path d="M118.89 80.6983V80.8523L115.768 79.4664V79.1584L118.89 80.6983Z" fill="#9FEDEB"/>
<path d="M122.34 81.6224V81.7764L115.768 78.6964V78.5424L122.34 81.6224Z" fill="#9FEDEB"/>
<path d="M122.833 79.9285L128.255 82.3925V82.7006L122.833 80.0825V79.9285Z" fill="#9FEDEB"/>
<path d="M119.382 79.1584V79.0044L128.254 83.1625V83.3165L119.382 79.1584Z" fill="#9FEDEB"/>
<path d="M115.768 80.6984V80.5444L124.969 84.8566V85.0106L115.768 80.6984Z" fill="#9FEDEB"/>
<path d="M115.768 78.2344V77.9264L128.255 83.7786V84.0866L115.768 78.2344Z" fill="#9FEDEB"/>
<path d="M122.833 81.9305L128.255 84.3946V84.5486L122.833 82.0845V81.9305Z" fill="#9FEDEB"/>
<path d="M119.382 81.1605V80.8525L128.254 85.0106V85.3186L119.382 81.1605Z" fill="#9FEDEB"/>
<path d="M115.768 80.2364V79.9284L128.255 85.7806V85.9346L115.768 80.2364Z" fill="#9FEDEB"/>
<path d="M125.625 85.3186V85.1646L128.254 86.3966V86.5507L125.625 85.3186Z" fill="#9FEDEB"/>
<path d="M138.934 59.5998V59.9078L132.527 56.8278V56.5198L138.934 59.5998Z" fill="#9FEDEB"/>
<path d="M135.648 61.91V62.218L132.527 60.8319V60.5239L135.648 61.91Z" fill="#9FEDEB"/>
<path d="M139.099 62.5259V62.8339L132.527 59.7539V59.4459L139.099 62.5259Z" fill="#9FEDEB"/>
<path d="M139.592 59.9078L145.013 62.3719V62.6799L139.592 60.2158V59.9078Z" fill="#9FEDEB"/>
<path d="M136.141 59.5998V59.2917L145.012 63.4499V63.7579L136.141 59.5998Z" fill="#9FEDEB"/>
<path d="M132.527 58.9839V58.6759L145.013 64.528V64.836L132.527 58.9839Z" fill="#9FEDEB"/>
<path d="M132.527 62.834V62.526L141.727 66.8381V67.1461L132.527 62.834Z" fill="#9FEDEB"/>
<path d="M139.592 62.8339L145.013 65.2979V65.606L139.592 63.1419V62.8339Z" fill="#9FEDEB"/>
<path d="M136.141 62.5259V62.2179L145.012 66.3761V66.6841L136.141 62.5259Z" fill="#9FEDEB"/>
<path d="M132.527 61.91V61.602L145.013 67.4541V67.7621L132.527 61.91Z" fill="#9FEDEB"/>
<path d="M142.384 67.454V67.146L145.013 68.3781V68.6862L142.384 67.454Z" fill="#9FEDEB"/>
<path d="M134.991 106.417V106.571L126.777 102.721V102.567L134.991 106.417Z" fill="#9FEDEB"/>
<path d="M135.649 104.261L142.385 107.341V107.649L135.649 104.415V104.261Z" fill="#9FEDEB"/>
<path d="M131.212 103.337V103.029L142.384 108.265V108.419L131.212 103.337Z" fill="#9FEDEB"/>
<path d="M126.777 105.339V105.031L138.277 110.421V110.729L126.777 105.339Z" fill="#9FEDEB"/>
<path d="M126.777 102.105V101.797L142.384 109.189V109.343L126.777 102.105Z" fill="#9FEDEB"/>
<path d="M135.649 106.725L142.385 109.805V110.113L135.649 107.033V106.725Z" fill="#9FEDEB"/>
<path d="M131.212 105.801V105.493L142.384 110.729V111.037L131.212 105.801Z" fill="#9FEDEB"/>
<path d="M139.099 111.037V110.729L142.384 112.423V112.577L139.099 111.037Z" fill="#9FEDEB"/>
<path d="M126.777 104.569V104.261L142.384 111.653V111.807L126.777 104.569Z" fill="#9FEDEB"/>
<path d="M130.555 105.185V105.493L126.777 103.645V103.337L130.555 105.185Z" fill="#9FEDEB"/>
<path d="M130.555 102.721V102.875L126.777 101.181V100.873L130.555 102.721Z" fill="#9FEDEB"/>
<path d="M134.827 103.953V104.107L126.777 100.257V100.103L134.827 103.953Z" fill="#9FEDEB"/>
<path d="M76.6666 41.2733C76.6666 41.4273 76.6666 41.4273 76.6666 41.5813C76.6666 41.7353 76.6666 41.8893 76.6666 41.8893L66.4805 37.1151V36.3451L76.6666 41.2733Z" fill="#9FEDEB"/>
<path d="M96.3814 47.4335C96.8743 47.7415 97.3672 48.3575 97.3672 48.8195C97.3672 49.1276 97.2029 49.4356 96.8743 49.4356V51.4376L83.731 45.2774V45.1234C83.731 44.9694 83.731 44.8154 83.731 44.8154L96.2171 50.6676V49.2816C95.8886 48.9735 95.56 48.5115 95.56 48.2035C95.3957 47.2795 95.7243 47.1255 96.3814 47.4335Z" fill="#9FEDEB"/>
<path d="M66.3164 27.4128L66.4807 36.6531V37.4232L66.645 49.2815V49.7435L65.8235 49.4355V48.9735L65.4949 27.8749L63.0305 26.6428C63.0305 26.4888 63.0305 26.0268 63.0305 25.8728L66.3164 27.4128Z" fill="#9FEDEB"/>
<path d="M102.789 43.2753C103.282 43.5833 103.775 44.1993 103.775 44.6613C103.775 45.1234 103.282 45.4314 102.789 45.1234C102.46 44.9694 102.132 44.5073 101.968 44.1993L100.16 43.2753L100.325 52.3616L122.176 62.526V66.2221C122.504 66.5301 122.833 66.9921 122.833 67.3001C122.833 67.7621 122.34 68.0701 121.847 67.7621C121.354 67.4541 120.861 66.8381 120.861 66.3761C120.861 66.0681 121.025 65.7601 121.354 65.7601V62.834L99.5032 52.6696L99.3389 42.1973L101.968 43.4293C102.132 43.1213 102.46 43.1213 102.789 43.2753Z" fill="#9FEDEB"/>
<path d="M100.653 67.3001C101.146 67.6081 101.639 68.2241 101.639 68.6861C101.639 68.9941 101.475 69.3022 101.146 69.3022V71.3042L91.4527 66.8381V72.5363C91.2884 72.5363 91.2884 72.3822 91.1241 72.3822C90.9598 72.3822 90.7955 72.2282 90.7955 72.2282V66.5301L81.2666 62.0639V60.0619C81.1023 59.9079 80.938 59.5998 80.7737 59.2918C80.7737 59.1378 80.7737 58.9838 80.7737 58.9838C80.7737 58.8298 80.7737 58.6758 80.7737 58.6758C80.938 58.3678 81.2666 58.3678 81.5951 58.5218C82.088 58.8298 82.5809 59.4458 82.5809 59.9079C82.5809 60.2159 82.4166 60.5239 82.088 60.5239V61.9099L100.489 70.5342V69.1481C100.16 68.8401 99.8316 68.3781 99.8316 68.0701C99.6673 67.3001 100.16 67.1461 100.653 67.3001Z" fill="#9FEDEB"/>
<path d="M101.638 80.0825L101.803 87.0127L100.981 86.7047L100.817 80.3905L94.5737 77.4644L94.0808 77.1564V76.5404L94.5737 76.6944L101.638 80.0825Z" fill="#9FEDEB"/>
<path d="M80.6099 58.5218C80.6099 58.6758 80.6099 58.6758 80.6099 58.8298C80.6099 58.9838 80.6099 59.1378 80.6099 59.1378L69.7666 54.0557C69.7666 53.9017 69.7666 53.9017 69.7666 53.7477C69.7666 53.5937 69.7666 53.4397 69.7666 53.4397L80.6099 58.5218Z" fill="#9FEDEB"/>
<path d="M83.5665 44.5073C83.5665 44.6613 83.5665 44.8153 83.5665 44.8153V44.9693C83.4022 46.5094 81.9236 47.1254 80.1164 46.3554C78.3092 45.5854 76.8306 43.5833 76.6663 41.8892C76.6663 41.7352 76.6663 41.5812 76.6663 41.5812C76.6663 41.4272 76.6663 41.2732 76.6663 41.2732C76.8306 39.7332 78.3092 39.1171 80.1164 39.8872C81.7593 40.8112 83.2379 42.6593 83.5665 44.5073ZM80.1164 45.7394C81.595 46.5094 82.7451 45.8934 82.7451 44.5073C82.7451 43.1213 81.4307 41.4272 79.9521 40.6572C78.4735 40.0412 77.3234 40.5032 77.3234 41.8892C77.4877 43.4293 78.6378 45.1233 80.1164 45.7394Z" fill="#9FEDEB"/>
<path d="M69.7665 53.4396C69.7665 53.5936 69.7665 53.7476 69.7665 53.7476C69.7665 53.9016 69.7665 54.0556 69.7665 54.0556C69.6022 55.5957 68.1236 56.2117 66.4806 55.2877C64.6734 54.3636 63.0305 52.2076 63.0305 50.5136C63.0305 48.8195 64.3449 48.0495 65.9878 48.6655V49.1276L66.8092 49.4356V48.9735C68.2879 50.0516 69.6022 51.8996 69.7665 53.4396ZM66.3164 54.8256C67.795 55.5957 69.1093 54.9796 69.1093 53.4396C69.1093 52.0536 67.795 50.2056 66.3164 49.5896C64.8377 48.8195 63.5234 49.4356 63.5234 50.9756C63.6877 52.3616 64.8377 54.0556 66.3164 54.8256Z" fill="#9FEDEB"/>
<path d="M94.0815 76.5404V77.3104L94.7386 77.6184C94.5744 79.1584 93.0957 79.7745 91.2885 79.0044C89.317 78.0804 87.8384 75.9244 87.8384 74.0763C87.8384 72.3823 89.1527 71.6123 90.7956 72.2283C90.9599 72.2283 91.1242 72.3823 91.1242 72.3823C91.2885 72.3823 91.4528 72.5363 91.4528 72.5363C93.0957 73.4603 94.4101 75.3084 94.5744 76.8484L94.0815 76.5404ZM91.2885 78.0804C92.7671 78.8504 93.9172 78.2344 93.9172 76.8484C93.9172 75.4624 92.6028 73.7683 91.1242 72.9983C89.6456 72.2283 88.4955 72.8443 88.4955 74.2303C88.4955 75.6164 89.6456 77.3104 91.2885 78.0804Z" fill="#9FEDEB"/>
<path d="M52.0224 20.1746C52.351 20.3286 52.6796 20.7906 52.8438 21.0986L56.1297 22.6387C56.1297 22.7927 56.1297 22.7927 56.1297 22.9467C56.1297 23.1008 56.1297 23.2548 56.1297 23.2548L52.8438 21.7147C52.6796 22.0227 52.351 22.0227 52.0224 21.8687C51.5295 21.5607 51.0366 20.9446 51.0366 20.4826C51.0366 20.1746 51.5295 19.8666 52.0224 20.1746Z" fill="#9FEDEB"/>
<path d="M63.0298 25.8728C63.0298 26.0269 63.0298 26.1809 63.0298 26.1809C63.0298 26.3349 63.0298 26.4889 63.0298 26.4889C62.8656 28.0289 61.3869 28.6449 59.5797 27.8749C57.7725 27.1049 56.2939 25.1028 56.1296 23.4088C56.1296 23.2548 56.1296 23.1008 56.1296 23.1008C56.1296 22.9468 56.1296 22.7927 56.1296 22.7927C56.2939 21.2527 57.7725 20.6367 59.5797 21.4067C61.3869 22.1767 62.8656 24.0248 63.0298 25.8728ZM59.744 27.1049C61.2226 27.8749 62.3727 27.2589 62.3727 25.8728C62.3727 24.4868 61.0584 22.7927 59.5797 22.0227C58.1011 21.2527 56.9511 21.8687 56.9511 23.2548C56.9511 24.7948 58.2654 26.4889 59.744 27.1049Z" fill="#9FEDEB"/>
<path d="M133.347 92.5569C133.676 92.7109 134.004 93.1729 134.169 93.4809L137.454 95.0209C137.454 95.1749 137.454 95.1749 137.454 95.3289C137.454 95.483 137.454 95.637 137.454 95.637L134.169 94.0969C134.004 94.4049 133.676 94.4049 133.347 94.2509C132.854 93.9429 132.361 93.3269 132.361 92.8649C132.526 92.5569 132.854 92.4029 133.347 92.5569Z" fill="#9FEDEB"/>
<path d="M147.641 99.7951V100.565L144.355 99.0251C144.355 98.8711 144.355 98.8711 144.355 98.7171C144.355 98.5631 144.355 98.4091 144.355 98.4091L147.641 99.7951Z" fill="#9FEDEB"/>
<path d="M144.354 98.255C144.354 98.4091 144.354 98.5631 144.354 98.5631C144.354 98.7171 144.354 98.8711 144.354 98.8711C144.19 100.411 142.712 101.027 140.904 100.257C139.097 99.4871 137.618 97.485 137.454 95.791C137.454 95.637 137.454 95.483 137.454 95.483C137.454 95.329 137.454 95.1749 137.454 95.1749C137.618 93.6349 139.097 93.0189 140.904 93.7889C142.712 94.5589 144.19 96.561 144.354 98.255ZM141.069 99.6411C142.547 100.411 143.697 99.7951 143.697 98.4091C143.697 97.023 142.383 95.329 140.904 94.5589C139.426 93.7889 138.276 94.4049 138.276 95.791C138.276 97.177 139.59 98.8711 141.069 99.6411Z" fill="#9FEDEB"/>
<path d="M147.311 80.5445C147.969 80.8525 148.626 81.6226 148.626 82.3926V86.3967C148.626 87.0127 148.133 87.3207 147.311 87.0127L134.825 81.1605C134.168 80.8525 133.511 80.0825 133.511 79.3125V77.7725V77.0024V75.3084C133.511 74.6924 134.004 74.3844 134.825 74.6924L147.311 80.5445ZM148.133 86.0887V82.0846C148.133 81.6226 147.804 81.1605 147.311 81.0065L134.825 75.1544C134.332 75.0004 134.004 75.1544 134.004 75.4624V79.4665C134.004 79.9285 134.332 80.3905 134.825 80.5445L147.311 86.3967C147.804 86.5507 148.133 86.3967 148.133 86.0887Z" fill="#9FEDEB"/>
<path d="M172.448 111.345C172.448 111.499 172.448 111.653 172.448 111.653C172.448 111.807 172.448 111.961 172.448 111.961C172.284 113.501 170.805 114.117 168.998 113.347C167.191 112.577 165.712 110.575 165.548 108.881C165.548 108.727 165.548 108.573 165.548 108.573C165.548 108.419 165.548 108.419 165.548 108.265C165.712 106.725 167.191 106.109 168.998 106.879C170.805 107.649 172.284 109.651 172.448 111.345ZM171.791 111.345C171.791 111.191 171.791 111.037 171.791 111.037C171.627 109.651 170.477 108.265 169.163 107.649C167.848 107.033 166.698 107.495 166.534 108.573C166.534 108.727 166.534 108.727 166.534 108.881C166.534 109.035 166.534 109.189 166.534 109.189C166.698 110.575 167.848 111.961 169.163 112.577C170.477 113.193 171.627 112.731 171.791 111.653C171.791 111.653 171.791 111.499 171.791 111.345Z" fill="#9FEDEB"/>
<path d="M154.87 114.271C156.513 115.196 157.828 117.198 157.828 118.892C157.828 120.74 156.349 121.51 154.377 120.586C152.57 119.662 151.092 117.66 150.927 115.966C150.927 115.812 150.927 115.812 150.927 115.658C150.927 115.504 150.927 115.35 150.927 115.196C151.092 113.809 152.406 113.193 154.049 113.809C154.213 113.809 154.213 113.963 154.377 113.963C154.542 114.117 154.706 114.271 154.87 114.271ZM154.377 119.97C155.856 120.586 157.006 120.124 157.006 118.738C157.006 117.352 155.692 115.658 154.213 114.888C152.734 114.117 151.584 114.734 151.584 116.12C151.749 117.506 152.899 119.2 154.377 119.97Z" fill="#9FEDEB"/>
<path d="M147.476 113.194C147.805 113.348 148.133 113.81 148.298 114.118L150.926 115.35C150.926 115.504 150.926 115.658 150.926 115.812C150.926 115.966 150.926 115.966 150.926 116.12L148.298 114.888C148.133 115.196 147.805 115.196 147.476 115.042C146.983 114.734 146.49 114.118 146.49 113.656C146.49 113.04 146.983 112.886 147.476 113.194Z" fill="#9FEDEB"/>
<path d="M161.935 105.955C162.263 106.109 162.592 106.571 162.756 106.879L165.713 108.265C165.713 108.419 165.713 108.419 165.713 108.573C165.713 108.727 165.713 108.881 165.713 108.881L162.756 107.495C162.592 107.803 162.263 107.803 161.935 107.649C161.442 107.341 160.949 106.725 160.949 106.263C160.949 105.801 161.277 105.647 161.935 105.955Z" fill="#9FEDEB"/>
<path d="M125.297 73.1523C125.297 73.3063 125.297 73.4603 125.297 73.4603C125.297 73.6143 125.297 73.7683 125.297 73.7683C125.133 75.3083 123.654 75.9244 121.847 75.1543C120.04 74.3843 118.561 72.3822 118.397 70.6882C118.397 70.5342 118.397 70.3802 118.397 70.3802C118.397 70.2262 118.397 70.0722 118.397 70.0722C118.561 68.5321 120.04 67.9161 121.847 68.6861C123.654 69.4561 125.133 71.3042 125.297 73.1523ZM124.476 73.4603C124.476 73.3063 124.476 73.3063 124.476 73.1523C124.476 72.9983 124.476 72.8443 124.476 72.8443C124.311 71.4582 123.161 70.0722 121.847 69.4561C120.533 68.8401 119.382 69.3021 119.218 70.3802C119.218 70.5342 119.218 70.5342 119.218 70.6882C119.218 70.8422 119.218 70.9962 119.218 70.9962C119.382 72.3822 120.533 73.7683 121.847 74.3843C123.326 75.0003 124.311 74.5383 124.476 73.4603Z" fill="#9FEDEB"/>
<path d="M109.197 64.99C109.525 65.144 109.854 65.606 110.018 65.914L118.397 69.7642C118.397 69.9182 118.397 69.9182 118.397 70.0722C118.397 70.2262 118.397 70.3802 118.397 70.3802L110.018 66.5301C109.854 66.8381 109.525 66.8381 109.197 66.6841C108.704 66.376 108.211 65.76 108.211 65.298C108.375 64.99 108.704 64.836 109.197 64.99Z" fill="#9FEDEB"/>
<path d="M141.397 74.2303V75.1543C141.726 75.4623 142.054 75.9244 142.054 76.2324C142.054 76.6944 141.561 77.0024 141.069 76.6944C140.576 76.3864 140.083 75.7704 140.083 75.3083C140.083 75.0003 140.247 74.6923 140.576 74.6923V73.7683C140.74 73.7683 140.904 73.9223 140.904 73.9223C141.069 74.0763 141.233 74.2303 141.397 74.2303Z" fill="#9FEDEB"/>
<path d="M137.29 58.0598V58.3678L134.168 56.8278V56.5198L137.29 58.0598Z" fill="#9FEDEB"/>
<path d="M129.405 88.3987C130.062 88.7068 130.719 89.4768 130.719 90.2468V94.2509C130.719 94.867 130.226 95.175 129.405 94.867L116.918 88.8608C116.261 88.5528 115.604 87.7827 115.604 87.0127V83.0086C115.604 82.3926 116.097 82.0846 116.918 82.3926L129.405 88.3987ZM130.062 93.9429V89.9388C130.062 89.4768 129.733 89.0148 129.24 88.8608L116.754 83.0086C116.261 82.8546 115.933 83.0086 115.933 83.3166V87.3207C115.933 87.7827 116.261 88.2447 116.754 88.3987L129.24 94.2509C129.733 94.4049 130.226 94.2509 130.062 93.9429Z" fill="#9FEDEB"/>
<path d="M133.511 76.8484V77.6184L125.296 73.7682C125.296 73.6142 125.296 73.6142 125.296 73.4602C125.296 73.3062 125.296 73.1522 125.296 73.1522L133.511 76.8484Z" fill="#9FEDEB"/>
<path d="M150.27 65.452C150.599 65.606 150.927 66.068 151.091 66.376L154.377 67.9161C154.377 68.0701 154.377 68.0701 154.377 68.2241C154.377 68.3781 154.377 68.5321 154.377 68.5321L151.091 66.992C150.927 67.3001 150.599 67.3001 150.27 67.1461C149.777 66.838 149.284 66.222 149.284 65.76C149.284 65.298 149.777 65.144 150.27 65.452Z" fill="#9FEDEB"/>
<path d="M161.277 71.1502C161.277 71.3042 161.277 71.4582 161.277 71.4582C161.277 71.6122 161.277 71.7662 161.277 71.7662C161.113 73.3063 159.634 73.9223 157.827 73.1523C156.02 72.3822 154.541 70.3802 154.377 68.6861C154.377 68.5321 154.377 68.3781 154.377 68.3781C154.377 68.2241 154.377 68.0701 154.377 68.0701C154.541 66.53 156.02 65.914 157.827 66.684C159.634 67.4541 161.113 69.3021 161.277 71.1502ZM157.827 72.3822C159.306 73.1523 160.456 72.5362 160.456 71.1502C160.456 69.7641 159.141 68.0701 157.663 67.3001C156.184 66.53 155.034 67.1461 155.034 68.5321C155.198 70.0722 156.348 71.7662 157.827 72.3822Z" fill="#9FEDEB"/>
<path d="M154.705 106.725L154.869 114.426C154.705 114.272 154.541 114.272 154.376 114.272C154.212 114.272 154.212 114.118 154.048 114.118L153.884 106.417L154.705 106.725Z" fill="#9FEDEB"/>
<path d="M166.699 74.3843L167.52 74.6923V81.7765V82.5465L166.699 82.2385L164.399 81.1605C164.235 82.7005 162.92 83.3165 161.442 82.7005V83.6245C161.77 83.9326 162.099 84.3946 162.099 84.7026C162.099 85.1646 161.606 85.4726 161.113 85.1646C160.62 84.8566 160.127 84.2406 160.127 83.7785C160.127 83.4705 160.292 83.1625 160.62 83.1625V82.2385C158.977 81.3145 157.499 79.1584 157.499 77.6184C157.499 75.7703 158.977 75.0003 160.949 75.9243C162.756 76.6943 164.235 78.6964 164.399 80.3905L166.699 81.4685V74.3843ZM161.113 81.7765C162.592 82.3925 163.742 81.9305 163.742 80.5445C163.742 79.1584 162.427 77.4644 160.949 76.6943C159.47 75.9243 158.32 76.5403 158.32 77.9264C158.484 79.3124 159.634 81.0065 161.113 81.7765Z" fill="#9FEDEB"/>
<path d="M122.832 102.105C122.832 102.259 122.832 102.413 122.832 102.413C122.832 102.567 122.832 102.721 122.832 102.721C122.668 104.261 121.189 104.877 119.382 104.107C117.575 103.337 116.096 101.335 115.932 99.6411C115.932 99.4871 115.932 99.3331 115.932 99.3331C115.932 99.1791 115.932 99.025 115.932 99.025C116.096 97.485 117.575 96.869 119.382 97.639C121.025 98.409 122.504 100.411 122.832 102.105ZM122.011 102.105C122.011 101.951 122.011 101.797 122.011 101.643C121.847 100.257 120.697 98.871 119.382 98.255C118.068 97.639 116.918 98.101 116.754 99.179C116.754 99.3331 116.754 99.3331 116.754 99.4871C116.754 99.6411 116.754 99.6411 116.754 99.7951C116.918 101.181 118.068 102.567 119.382 103.183C120.697 103.799 121.847 103.337 122.011 102.259C122.011 102.413 122.011 102.259 122.011 102.105Z" fill="#9FEDEB"/>
<path d="M107.553 89.7848C108.21 90.0928 108.868 90.8628 108.868 91.6328L109.032 100.411C109.032 101.027 108.539 101.335 107.718 101.027L95.2313 95.1749C94.5741 94.8669 93.917 94.0969 93.917 93.3269L93.7527 84.5486C93.7527 83.9326 94.2456 83.6246 95.067 83.9326L100.982 86.7047L101.803 87.0127L107.553 89.7848ZM108.539 100.257L108.375 91.4788C108.375 91.0168 108.046 90.5548 107.553 90.4008L95.067 84.5486C94.5741 84.3946 94.2456 84.5486 94.2456 84.8566L94.4098 93.6349C94.4098 94.0969 94.7384 94.5589 95.2313 94.7129L107.718 100.565C108.21 100.719 108.539 100.565 108.539 100.257Z" fill="#9FEDEB"/>
<path d="M132.361 57.5978V58.3678L129.075 56.8278C129.075 56.6738 129.075 56.6738 129.075 56.5198C129.075 56.3658 129.075 56.2118 129.075 56.2118L132.361 57.5978Z" fill="#9FEDEB"/>
<path d="M129.076 56.0578C129.076 56.2118 129.076 56.3658 129.076 56.3658C129.076 56.5198 129.076 56.6738 129.076 56.6738C128.912 58.2139 127.433 58.8299 125.626 58.0599C123.819 57.2898 122.34 55.2878 122.176 53.5937C122.176 53.4397 122.176 53.2857 122.176 53.2857C122.176 53.1317 122.176 52.9777 122.176 52.9777C122.34 51.4376 123.819 50.8216 125.626 51.5916C127.269 52.3617 128.747 54.2097 129.076 56.0578ZM125.626 57.2898C127.105 58.0599 128.255 57.4438 128.255 56.0578C128.255 54.6717 126.94 52.9777 125.462 52.2077C123.983 51.5916 122.833 52.0537 122.833 53.4397C122.833 54.9798 124.147 56.6738 125.626 57.2898Z" fill="#9FEDEB"/>
<path d="M117.903 50.3596C118.232 50.5136 118.56 50.9756 118.724 51.2836L122.01 52.8237C122.01 52.9777 122.01 52.9777 122.01 53.1317C122.01 53.2857 122.01 53.4397 122.01 53.4397L118.724 51.8996C118.56 52.2076 118.232 52.2076 117.903 52.0536C117.41 51.8996 117.082 51.2836 117.082 50.8216C117.082 50.2056 117.41 50.0516 117.903 50.3596Z" fill="#9FEDEB"/>
<path d="M141.233 67.7621C143.04 68.6862 144.354 70.8422 144.354 72.3823C144.354 74.0763 143.04 74.8463 141.397 74.2303C141.233 74.2303 141.068 74.0763 141.068 74.0763C140.904 74.0763 140.74 73.9223 140.74 73.9223C138.933 72.9983 137.618 70.8422 137.618 69.3022C137.618 67.6081 138.933 66.8381 140.575 67.4541C140.74 67.4541 140.904 67.6081 140.904 67.6081C141.068 67.6081 141.068 67.6081 141.233 67.7621ZM140.904 73.3063C142.383 74.0763 143.533 73.4603 143.533 72.0743C143.533 70.6882 142.218 68.9942 140.74 68.2241C139.261 67.4541 138.111 68.0701 138.111 69.4562C138.275 70.9962 139.425 72.6903 140.904 73.3063Z" fill="#9FEDEB"/>
<path d="M167.52 89.0148C168.177 89.3228 168.834 90.0928 168.834 90.8628V97.331C168.834 97.947 168.341 98.255 167.52 97.947L155.034 92.0949C154.377 91.7868 153.719 91.0168 153.719 90.2468V83.7786C153.719 83.1626 154.212 82.8546 155.034 83.1626L167.52 89.0148ZM168.341 97.023V90.5548C168.341 90.0928 168.013 89.6308 167.52 89.4768L155.034 83.6246C154.541 83.4706 154.212 83.6246 154.212 83.9326V90.4008C154.212 90.8628 154.541 91.3248 155.034 91.4788L167.52 97.331C168.013 97.639 168.341 97.485 168.341 97.023Z" fill="#9FEDEB"/>
<path d="M174.256 77.1564L174.585 113.193L172.449 112.115C172.449 111.961 172.449 111.807 172.449 111.807C172.449 111.653 172.449 111.499 172.449 111.499L173.927 112.115L173.599 77.6184L167.52 74.8463L166.699 74.5383L165.056 73.7683V72.9983L174.256 77.1564Z" fill="#9FEDEB"/>
<path d="M163.248 72.0742V72.8442L161.276 71.9202C161.276 71.7662 161.276 71.7662 161.276 71.6122C161.276 71.4582 161.276 71.3042 161.276 71.3042L163.248 72.0742Z" fill="#9FEDEB"/>
<path d="M141.233 66.3761V67.7621C141.069 67.7621 140.905 67.6081 140.905 67.6081C140.74 67.6081 140.576 67.4541 140.576 67.4541V66.0681L141.233 66.3761Z" fill="#9FEDEB"/>
<path d="M111.661 96.407C111.99 96.561 112.318 97.023 112.483 97.331L115.768 98.871C115.768 99.025 115.768 99.025 115.768 99.179C115.768 99.333 115.768 99.4871 115.768 99.4871L112.483 97.947C112.318 98.255 111.99 98.255 111.661 98.101C111.168 97.793 110.675 97.177 110.675 96.715C110.84 96.407 111.168 96.253 111.661 96.407Z" fill="#9FEDEB"/>
<path d="M126.118 103.645V104.415L122.832 102.875C122.832 102.721 122.832 102.721 122.832 102.567C122.832 102.413 122.832 102.259 122.832 102.259L126.118 103.645Z" fill="#9FEDEB"/>
<path d="M113.96 44.8154C114.617 45.1234 115.275 45.8934 115.275 46.6634V53.4397C115.275 54.0557 114.782 54.3637 113.96 54.0557L106.896 50.8216C106.238 50.3595 105.581 49.4355 105.581 48.8195V42.0432C105.581 41.4272 106.074 41.1192 106.896 41.4272L113.96 44.8154ZM114.782 53.1316V46.3554C114.782 45.8934 114.453 45.4314 113.96 45.2774L106.896 42.0432C106.403 41.8892 106.074 42.0433 106.074 42.3513V49.1275C106.074 49.5895 106.403 50.0515 106.896 50.2055L113.96 53.4397C114.453 53.5937 114.782 53.4397 114.782 53.1316Z" fill="#9FEDEB"/>
<path d="M121.847 70.0722C122.832 70.5342 123.818 71.7662 123.818 72.6903C123.818 73.6143 122.997 74.0763 122.011 73.6143C121.025 73.1523 120.039 71.9202 120.039 70.9962C120.039 69.9182 120.861 69.6101 121.847 70.0722Z" fill="#DC6651"/>
<path d="M119.381 99.0251C120.367 99.4871 121.353 100.719 121.353 101.643C121.353 102.567 120.531 103.029 119.546 102.567C118.56 102.105 117.574 100.873 117.574 99.9491C117.41 99.0251 118.231 98.5631 119.381 99.0251Z" fill="#35C473"/>
<path d="M125.625 52.9777C126.611 53.4397 127.597 54.6717 127.597 55.5958C127.597 56.5198 126.775 56.9818 125.79 56.5198C124.804 56.0578 123.818 54.8257 123.818 53.9017C123.654 52.8237 124.475 52.5157 125.625 52.9777Z" fill="#DC6651"/>
<path d="M140.904 68.9942C141.89 69.4562 142.876 70.6882 142.876 71.6122C142.876 72.5363 142.054 72.9983 141.068 72.5363C140.083 72.0743 139.097 70.8422 139.097 69.9182C139.097 68.8402 139.918 68.5321 140.904 68.9942Z" fill="#35C473"/>
<path d="M80.1152 41.4272C81.101 41.8892 82.0867 43.1213 82.0867 44.0453C82.0867 44.9694 81.2653 45.4314 80.2795 44.9694C79.2938 44.5074 78.308 43.2753 78.308 42.3513C78.1438 41.4272 78.9652 40.9652 80.1152 41.4272Z" fill="#35C473"/>
<path d="M66.3153 50.3596C67.301 50.8216 68.2868 52.0536 68.2868 52.9776C68.2868 53.9016 67.4653 54.3636 66.4796 53.9016C65.3295 53.4396 64.5081 52.3616 64.5081 51.2836C64.5081 50.3596 65.3295 49.8976 66.3153 50.3596Z" fill="#DC6651"/>
<path d="M91.1234 73.7683C92.1091 74.2304 93.0948 75.4624 93.0948 76.3864C93.0948 77.3105 92.2734 77.7725 91.2877 77.3104C90.3019 76.8484 89.3162 75.6164 89.3162 74.6924C89.3162 73.6143 90.1376 73.1523 91.1234 73.7683Z" fill="#DC6651"/>
<path d="M59.5797 22.7927C60.5655 23.2547 61.5513 24.4868 61.5513 25.4108C61.5513 26.3349 60.7298 26.7969 59.744 26.3349C58.7582 25.8728 57.7725 24.6408 57.7725 23.7167C57.7725 22.7927 58.5939 22.3307 59.5797 22.7927Z" fill="#DC6651"/>
<path d="M140.904 95.1749C141.89 95.6369 142.876 96.869 142.876 97.793C142.876 98.7171 142.054 99.1791 141.068 98.7171C140.083 98.255 139.097 97.023 139.097 96.0989C139.097 95.1749 139.918 94.7129 140.904 95.1749Z" fill="#DC6651"/>
<path d="M168.998 108.265C169.984 108.727 170.97 109.959 170.97 110.883C170.97 111.808 170.148 112.27 169.162 111.808C168.177 111.345 167.191 110.113 167.191 109.189C167.191 108.265 168.012 107.803 168.998 108.265Z" fill="#DC6651"/>
<path d="M154.377 115.504C155.362 115.966 156.348 117.198 156.348 118.276C156.348 119.2 155.527 119.662 154.541 119.2C153.555 118.738 152.569 117.506 152.569 116.428C152.405 115.504 153.226 115.042 154.377 115.504Z" fill="#35C473"/>
<path d="M157.991 68.0701C158.977 68.5321 159.962 69.7641 159.962 70.6882C159.962 71.6122 159.141 72.0742 158.155 71.6122C157.169 71.1502 156.184 69.9181 156.184 68.9941C156.184 67.9161 157.005 67.6081 157.991 68.0701Z" fill="#DC6651"/>
<path d="M161.113 77.3104C162.099 77.7724 163.084 79.0045 163.084 79.9285C163.084 80.8526 162.263 81.3146 161.277 80.8526C160.291 80.3905 159.306 79.1585 159.306 78.2344C159.306 77.3104 160.127 76.8484 161.113 77.3104Z" fill="#35C473"/>
<path d="M126.447 67.9161C124.311 66.9921 122.669 64.682 122.34 62.68L91.7817 48.3575V46.8175V38.0392C89.9745 36.8072 88.4958 34.4971 88.4958 32.6491C88.4958 30.493 90.3031 29.569 92.7674 30.647C95.0675 31.725 97.039 34.3431 97.039 36.4992C97.039 38.5012 95.5604 39.4253 93.5889 38.8092V47.5875L122.34 61.1399C122.833 59.5999 124.476 59.1378 126.447 60.0619C128.747 61.1399 130.719 63.758 130.719 65.914C130.555 68.0701 128.747 68.9941 126.447 67.9161Z" fill="white"/>
<path d="M136.469 85.6267C134.333 84.7027 132.69 82.3926 132.362 80.3905L114.29 71.9203C113.961 73.6143 112.154 74.2303 110.182 73.3063C107.882 72.2283 105.911 69.6102 105.911 67.4541C105.911 65.2981 107.718 64.374 110.182 65.4521C112.154 66.3761 113.797 68.3782 114.29 70.3802L132.526 79.0045C133.019 77.4644 134.662 77.0024 136.633 77.9265C138.933 79.0045 140.905 81.6226 140.905 83.7786C140.741 85.7807 138.933 86.7048 136.469 85.6267Z" fill="white"/>
<path d="M61.8802 72.9983C64.016 74.0763 65.8232 76.3864 65.9875 78.5425L91.4528 90.4009V75.1544L91.6171 75.3084L122.175 89.6309C122.504 87.9368 124.147 87.1668 126.283 88.2448C128.583 89.3229 130.554 91.9409 130.554 94.097C130.554 96.2531 128.747 97.1771 126.283 96.0991C124.311 95.175 122.668 93.173 122.175 91.1709L92.9314 77.4645V92.711L92.4386 92.403L65.6589 79.9285C65.1661 81.3146 63.5231 81.7766 61.7159 80.8526C59.4158 79.7745 57.4443 77.1564 57.4443 75.0004C57.4443 72.8443 59.5801 71.9203 61.8802 72.9983Z" fill="white"/>
<path d="M182.142 117.044C179.842 115.966 178.035 116.582 177.542 118.584L144.191 103.029V104.723V114.272C142.219 113.81 140.576 114.734 140.576 116.736C140.576 119.046 142.548 121.972 145.176 123.204C147.641 124.436 149.777 123.358 149.777 121.048C149.777 118.892 148.134 116.428 145.998 115.042V105.493L177.542 120.278C178.035 122.434 179.842 124.59 181.978 125.668C184.442 126.9 186.578 125.822 186.578 123.512C186.578 121.202 184.606 118.276 182.142 117.044Z" fill="white"/>
<path d="M182.142 102.105C179.842 101.027 178.035 101.643 177.542 103.645L157.827 94.4049C157.499 92.2488 155.527 89.7848 153.227 88.7067C150.763 87.4747 148.627 88.5527 148.627 90.8628C148.627 93.1729 150.598 96.0989 153.227 97.331C155.363 98.409 157.17 97.793 157.663 96.0989L177.542 105.493C178.035 107.649 179.842 109.805 181.978 110.883C184.442 112.115 186.578 111.037 186.578 108.727C186.578 106.109 184.607 103.337 182.142 102.105Z" fill="white"/>
<path d="M111.826 45.7394C114.126 46.8174 116.097 46.0474 116.426 44.0454L144.027 56.9818V73.6143L144.191 73.7683L177.542 89.3228C177.871 91.4789 179.843 94.097 182.143 95.175C184.607 96.407 186.743 95.329 186.743 93.0189C186.743 90.7088 184.771 87.7828 182.143 86.5507C180.007 85.4727 178.2 86.0887 177.707 87.7828L145.998 72.8443V56.0577L145.505 55.7497L116.426 42.0433C115.769 40.0412 114.126 37.8852 111.99 36.9611C109.525 35.7291 107.39 36.8071 107.39 39.1172C107.39 41.4273 109.361 44.5074 111.826 45.7394Z" fill="white"/>
<path d="M157.827 92.7109L157.992 81.7765C158.156 70.3802 150.434 57.2897 140.741 52.6696C137.619 51.2835 134.826 50.8215 132.198 51.1295L123.655 54.9797C120.862 57.2897 122.997 59.5998 122.833 64.99L122.669 75.9243L116.754 73.1522L110.511 76.2323L116.919 112.115L157.663 137.68L163.906 134.6V95.637L157.827 92.7109ZM134.498 111.499L137.784 102.105C136.141 100.257 134.991 97.793 134.991 95.483C134.991 92.0948 137.455 90.4008 140.412 91.7868C143.37 93.1729 145.834 97.023 145.834 100.411C145.834 102.721 144.684 104.261 142.877 104.569L146.163 116.89L134.498 111.499ZM150.763 89.4768L129.569 79.3124L129.733 68.3781C129.898 61.6019 134.498 58.5218 140.577 60.9859C142.22 61.6019 151.091 78.8504 150.927 81.3145L150.763 89.4768Z" fill="#70E2E5"/>
<g opacity="0.5">
<path opacity="0.5" d="M123.326 82.3925L129.569 79.3124L150.762 89.4768L144.519 92.5569L123.326 82.3925Z" fill="#B6FFFF"/>
<path opacity="0.3" d="M110.018 123.05L116.261 119.97L164.07 142.3L157.663 145.38L110.018 123.05Z" fill="#1D99B3"/>
<path opacity="0.5" d="M110.346 76.2323L116.754 73.1522L122.668 75.9243L116.261 79.0044L110.346 76.2323Z" fill="#B6FFFF"/>
<path opacity="0.5" d="M151.584 95.7909L157.828 92.7108L163.742 95.6369L157.499 98.717L151.584 95.7909Z" fill="#B6FFFF"/>
<path opacity="0.5" d="M128.254 114.58L134.497 111.499L137.948 113.039L139.919 119.97L128.254 114.58Z" fill="#B6FFFF"/>
<path opacity="0.5" d="M137.784 102.105C136.798 101.027 135.976 99.641 135.648 98.255L128.09 101.335L131.54 105.339L137.784 102.105Z" fill="#B6FFFF"/>
<path opacity="0.5" d="M124.311 56.6737L134.661 60.3698C136.304 59.9078 138.44 60.0618 140.576 60.9859C140.905 61.1399 141.562 61.9099 142.219 62.9879L149.612 59.9078C146.983 56.8277 144.026 54.2096 140.74 52.6696C137.619 51.2835 134.826 50.8215 132.197 51.1295L124.475 54.6716L124.311 56.6737Z" fill="#B6FFFF"/>
</g>
<path d="M151.584 95.791L151.748 84.8567C151.912 73.4603 144.19 60.3699 134.497 55.7498C124.804 51.1296 116.589 56.5198 116.425 67.9162L116.261 78.8505L110.346 76.0784V115.042L157.334 137.526V98.5631L151.584 95.791ZM128.254 114.58L131.54 105.185C129.897 103.337 128.747 100.873 128.747 98.5631C128.747 95.175 131.211 93.4809 134.169 94.867C137.126 96.253 139.59 100.103 139.59 103.491C139.59 105.801 138.44 107.341 136.633 107.649L139.919 119.97L128.254 114.58ZM144.519 92.5569L123.325 82.3926L123.49 71.4583C123.654 64.6821 128.418 61.294 134.333 64.066C140.083 66.8381 144.848 74.6924 144.683 81.4686L144.519 92.5569Z" fill="#33B3C4"/>
<path d="M60.7304 52.3616L60.8947 47.8955C61.059 43.2754 57.9375 38.0392 53.9945 36.1912C50.0515 34.3431 46.7656 36.4992 46.7656 41.1193L46.6014 45.5854L44.3013 44.5074V60.2159L47.0942 61.6019L63.1948 69.3021V53.5937L60.7304 52.3616ZM51.3658 59.9079L52.6801 56.2117C52.023 55.4417 51.5301 54.5177 51.5301 53.5937C51.5301 52.2076 52.5159 51.5916 53.6659 52.0536C54.8159 52.6696 55.8017 54.2097 55.8017 55.5957C55.8017 56.5198 55.3088 57.1358 54.6517 57.2898L55.966 62.2179L51.3658 59.9079ZM57.9375 50.9756L49.3943 46.9715L49.5586 42.5053C49.5586 39.7333 51.5301 38.5012 53.9945 39.5793C56.2946 40.6573 58.2661 43.8914 58.1018 46.6635L57.9375 50.9756Z" fill="white"/>
<path opacity="0.3" d="M77.6139 145.574C87.4082 143.773 94.7817 139.607 94.083 136.268C93.3844 132.93 84.8781 131.683 75.0838 133.484C65.2895 135.285 57.916 139.452 58.6147 142.79C59.3133 146.129 67.8196 147.375 77.6139 145.574Z" fill="#1D99B3"/>
<path d="M62.3745 140.452L67.139 135.986C67.139 135.986 72.3963 135.986 73.3821 136.294C73.3821 137.218 73.2178 137.988 73.2178 138.912C72.5606 139.374 69.7676 141.223 69.7676 141.223L64.346 143.071L62.3745 141.839V140.452Z" fill="#002B6A"/>
<path d="M83.8961 132.752C83.8961 132.752 88.332 132.444 89.3177 132.752C89.482 132.906 90.3035 134.292 90.3035 134.292L89.1534 138.758L87.1819 141.222L84.7176 142.454L82.7461 141.992L82.4175 141.376L83.8961 132.752Z" fill="#002B6A"/>
<path d="M65.8244 121.202L69.6032 102.875C69.6032 102.875 70.7532 99.1791 71.0818 97.9471C73.5462 97.9471 75.5177 97.9471 77.982 97.7931C78.1463 98.2551 78.1463 98.7171 78.3106 99.1791C81.1036 98.2551 85.2109 99.7951 85.2109 99.7951L86.0324 103.953L85.7038 120.586L90.1396 132.906L88.4967 135.216H82.4179L78.3106 124.282C78.3106 124.282 76.3391 111.037 76.1748 110.883C76.0105 111.191 73.7105 121.818 73.7105 121.818L73.5462 136.448L69.4389 137.68L65.6602 136.14L65.8244 121.202Z" fill="#002B6A"/>
<path d="M54.488 111.5C53.6665 111.5 55.1451 111.5 56.1309 111.5L56.9523 113.81L56.6237 116.274L55.9666 116.428L55.638 115.042L55.4737 115.196L54.9808 117.66L54.488 119.2H53.9951L53.6665 116.12L54.488 111.5Z" fill="#F9A873"/>
<path d="M56.1299 101.797L57.28 98.7171L58.2657 95.329L59.9087 89.4768C59.9087 89.4768 61.3873 86.3967 62.373 86.2427C63.8517 86.0887 65.8232 91.0168 65.8232 91.0168L63.8517 95.945L61.7159 99.9491L60.5658 103.953L57.1157 113.04L53.9941 112.732L56.1299 101.797Z" fill="#33B3C4"/>
<path d="M73.5464 82.5466L77.1609 83.6247L80.4467 84.8567L83.0754 92.095L85.7041 100.411L80.9396 103.953L71.2463 102.105L69.7677 100.565L70.0963 97.0231L65.989 92.711C65.989 92.711 61.5531 89.0148 61.8817 86.8588C62.2102 83.7787 73.5464 82.5466 73.5464 82.5466Z" fill="#33B3C4"/>
<path d="M93.0957 99.6412C93.4243 99.3332 94.4101 99.0251 94.4101 99.0251L96.5459 101.335C96.5459 101.335 96.5459 101.797 96.5459 102.875C96.5459 105.185 96.5459 106.417 96.5459 106.417L95.8887 106.263L95.7244 104.723L94.4101 103.337L94.0815 103.645C93.7529 104.107 94.0815 105.185 94.0815 105.185C93.9172 105.339 93.7529 105.185 93.7529 105.185C93.5886 105.185 93.26 105.031 92.9314 103.645C92.9314 103.491 92.6029 101.797 92.9314 100.103C92.9314 100.103 92.9314 99.9492 93.0957 99.6412Z" fill="#F9A873"/>
<path d="M79.9531 84.8567C80.9389 84.5487 88.8249 90.0929 88.8249 90.0929L95.5609 99.0251L94.7394 101.027L92.4393 101.335L85.7033 93.327L79.7888 90.8629C79.7888 91.0169 78.4745 85.3187 79.9531 84.8567Z" fill="#33B3C4"/>
<path d="M67.7956 82.7007C68.617 82.7007 69.2742 83.0087 70.9171 83.9327C72.3957 84.7027 73.2172 85.6267 73.2172 85.6267L72.56 88.5528L70.9171 91.3248C70.9171 91.3248 66.4812 87.9368 66.3169 87.4748C65.4955 86.2427 65.0026 85.3187 65.3312 84.3947C65.6598 83.3167 66.8098 82.7007 67.7956 82.7007Z" fill="#F9A873"/>
<path d="M64.5084 82.8546C65.6585 82.3926 65.9871 82.8546 67.63 82.3926C69.1086 82.0846 69.2729 81.6226 69.7658 81.7766C70.9158 82.0846 71.2444 86.0887 71.2444 86.0887L70.4229 88.0908L69.1086 90.5549L67.3014 90.8629L62.2083 87.4748C62.2083 87.4748 61.2226 86.0887 61.3869 85.1647C61.8798 83.7786 63.687 83.1626 64.5084 82.8546Z" fill="#F9A873"/>
<path d="M65.4952 77.1565L69.6024 78.8505C69.6024 78.8505 70.9168 80.5446 71.2454 81.6226C70.9168 81.7766 70.4239 81.9306 70.2596 82.3926C69.7667 83.3167 70.5882 84.3947 70.5882 84.3947L70.0953 85.3187L68.2881 83.7787L67.1381 84.0867L65.988 85.6268L61.3879 87.3208L57.9377 83.7787L59.4164 83.0087L61.3879 79.1586L65.4952 77.1565Z" fill="#002B6A"/>
<path d="M71.5738 81.3146C71.9024 81.4686 71.9024 81.7766 71.9024 82.3927C71.9024 82.8547 71.9024 83.3167 71.5738 83.7787C71.5738 83.7787 71.081 84.3947 70.7524 84.2407C70.2595 84.0867 70.2595 83.0087 70.2595 82.5467C70.2595 82.0847 70.2595 81.6226 70.5881 81.4686C70.7524 81.3146 71.2453 81.1606 71.5738 81.3146Z" fill="#F9A873"/>
</svg>
