<svg width="184" height="81" viewBox="0 0 184 81" fill="none" xmlns="http://www.w3.org/2000/svg">
<path opacity="0.37" d="M35.1459 36.6055L93.4022 7.59229L125.71 80.6337L123.072 80.6676L35.1459 36.6055Z" fill="#00638E"/>
<path d="M37.7841 34.3687L96.0404 5.35547L184 49.4175L125.71 78.4308L37.7841 34.3687Z" fill="#DCFFFC"/>
<path d="M125.71 78.4308L37.7841 34.3687L119.147 38.6054L125.71 78.4308Z" fill="#B3FFFB"/>
<path d="M125.712 78.4306V80.6337L183.528 51.6543L183.697 49.3834L125.712 78.4306Z" fill="#B3FFFB"/>
<path d="M37.7841 34.3687L125.71 78.4307V80.6338L37.8517 36.6056L37.7841 34.3687Z" fill="#6BE8E8"/>
<path opacity="0.58" d="M183.999 49.4175L102.67 49.3836L96.0393 5.35547L183.999 49.4175Z" fill="#51E0E0"/>
<path d="M183.999 49.4175L103.854 45.3842L96.0393 5.35547L183.999 49.4175Z" fill="#E6FFFD"/>
<path opacity="0.37" d="M0 31.2161L58.2901 2.23682L90.5983 75.2782L87.9595 75.3121L0 31.2161Z" fill="#00638E"/>
<path d="M2.63818 29.0132L60.9284 0L148.854 44.0621L90.5978 73.0754L2.63818 29.0132Z" fill="#DCFFFC"/>
<path d="M90.5979 73.0755L2.63818 29.0132L84.0348 33.2499L90.5979 73.0755Z" fill="#B3FFFB"/>
<path d="M90.5973 73.0754V75.2785L148.414 46.2992L148.583 44.0283L90.5973 73.0754Z" fill="#B3FFFB"/>
<path d="M2.63818 29.0132L90.5979 73.0754V75.2785L2.70583 31.2502L2.63818 29.0132Z" fill="#6BE8E8"/>
<path opacity="0.58" d="M148.856 44.0622L67.5607 44.0283L60.9298 0L148.856 44.0622Z" fill="#51E0E0"/>
<path d="M148.856 44.0622L68.7447 40.0288L60.9298 0L148.856 44.0622Z" fill="#F3FFFE"/>
</svg>
