<svg width="437" height="198" viewBox="0 0 437 198" fill="none" xmlns="http://www.w3.org/2000/svg">
<path d="M90.5536 81.3504C74.4183 71.8775 47.4032 72.5213 30.2537 82.8219L29.8849 83.0059C21.2179 88.2481 16.7922 95.0539 16.5156 101.676C16.4234 103.515 16.4234 105.446 16.3312 107.286C16.239 109.125 16.239 111.057 16.1468 112.896C16.4234 106.274 20.8491 99.5604 29.516 94.2262L29.8849 94.0422C47.0344 83.7416 73.9573 83.0978 90.1848 92.5707C98.2986 97.3531 102.171 103.699 101.894 110.229C101.987 106.458 102.171 102.779 102.263 99.0086C102.448 92.5707 98.5752 86.1328 90.5536 81.3504Z" fill="#FDA014"/>
<path d="M90.5536 81.3504C74.4183 71.8775 47.4032 72.5213 30.2537 82.8219L29.8849 83.0059C21.2179 88.2481 16.7922 95.0539 16.5156 101.676C16.4234 103.515 16.4234 105.446 16.3312 107.286C16.239 109.125 16.239 111.057 16.1468 112.896C16.4234 106.274 20.8491 99.5604 29.516 94.2262L29.8849 94.0422C47.0344 83.7416 73.9573 83.0978 90.1848 92.5707C98.2986 97.3531 102.171 103.699 101.894 110.229C101.987 106.458 102.171 102.779 102.263 99.0086C102.448 92.5707 98.5752 86.1328 90.5536 81.3504Z" fill="#EA7A00"/>
<path d="M96.2702 121.633L95.9014 121.817C74.6028 134.785 41.0413 135.704 20.8491 123.84C10.7991 117.954 6.00463 110.045 6.28124 101.952C6.18903 105.722 6.00464 109.401 5.91244 113.172C5.63583 121.265 10.4303 129.175 20.4803 135.061C40.6725 146.925 74.2339 146.005 95.5325 133.037L95.9014 132.853C106.412 126.324 111.852 118.046 112.129 109.953C112.221 106.182 112.405 102.503 112.498 98.7327C112.221 106.826 106.781 115.103 96.2702 121.633Z" fill="#EA7A00"/>
<path opacity="0.27" d="M96.2704 121.633L95.9016 121.817C88.7099 126.231 69.7163 130.278 60.6805 131.841L59.9429 143.154C75.064 142.694 88.2488 137.543 95.5328 133.037L95.9016 132.853C103.093 128.347 107.888 123.104 110.285 117.586L111.115 105.446C108.81 111.332 103.923 116.942 96.2704 121.633Z" fill="#FFC431"/>
<path opacity="0.69" d="M96.2708 121.633L95.902 121.817C90.1855 125.312 83.547 127.887 76.5396 129.634L75.802 140.946C82.9015 139.199 89.6323 136.624 95.441 133.037L95.8098 132.853C101.157 129.542 105.122 125.771 107.888 121.817L108.718 109.953C106.044 114.183 101.895 118.138 96.2708 121.633Z" fill="#FFC431"/>
<path d="M97.9303 76.8437C77.8303 65.0716 44.5455 65.8994 23.2469 78.6831L22.8781 78.8671C1.57946 91.8348 0.749644 111.976 20.9418 123.84C41.134 135.704 74.6954 134.785 95.994 121.817L96.3629 121.633C117.2 108.665 118.03 88.7078 97.9303 76.8437ZM89.2633 117.494L88.8945 117.678C71.745 128.163 44.5455 128.899 28.2258 119.334C11.9061 109.769 12.6437 93.4903 29.7932 83.0057L30.162 82.8218C47.3115 72.5212 74.2345 71.8774 90.462 81.3503C106.689 90.9151 106.044 107.01 89.2633 117.494Z" fill="url(#paint0_linear)"/>
<path d="M90.1848 83.8332C74.1417 74.3603 47.4954 75.0961 30.438 85.2128L30.0692 85.3967C20.9413 91.0069 16.6078 98.1805 16.8844 105.17C17.8986 110.412 21.4023 116.482 28.2252 119.885C62.2477 136.992 89.2628 117.494 89.2628 117.494C96.0857 113.264 100.235 108.021 101.71 102.687C102.54 95.7893 98.7596 88.8916 90.1848 83.8332Z" fill="url(#paint1_linear)"/>
<path d="M83.362 103.515C83.362 101.4 81.8868 99.5604 79.0285 97.9049H78.8441L70.546 102.687C72.1134 103.607 72.851 104.527 72.9432 105.354C72.9432 106.182 72.2978 107.01 71.007 107.746C69.6239 108.573 68.3331 108.941 67.1345 108.849C65.9359 108.757 64.7372 108.481 63.6308 107.838C62.6166 107.194 62.0634 106.55 62.0634 105.814C62.0634 105.079 62.5244 103.975 63.6308 102.411C66.3047 99.4684 67.7799 96.9852 68.0565 94.8699C68.3331 92.7546 66.9501 90.8233 63.9996 89.1678C61.2336 87.6043 58.1909 86.8686 54.6873 86.9605C51.1836 87.0525 47.6799 87.9722 44.1763 89.7196L39.474 86.9605L35.5093 89.2598L40.2116 92.0189C37.0767 94.1342 35.3249 96.3415 34.8639 98.6407C34.4029 100.94 35.9703 102.963 39.474 104.895L39.6584 104.987L47.8643 100.204C46.1125 99.1925 45.2827 98.1808 45.3749 97.1692C45.5593 96.1575 46.3891 95.2378 47.9565 94.3181C49.3396 93.4904 50.6304 93.1225 51.9212 93.1225C53.212 93.1225 54.4107 93.3984 55.4249 94.0422C56.7157 94.778 57.2689 95.5137 57.2689 96.2495C57.2689 96.9852 56.7157 98.0889 55.6093 99.5604C52.9354 102.687 51.4602 105.171 51.1836 107.194C50.907 109.217 52.1978 111.057 55.1483 112.804C57.8221 114.368 60.957 115.011 64.6451 114.919C68.3331 114.735 71.929 113.816 75.4327 112.068L80.4115 114.919L84.3762 112.62L79.3973 109.677C81.979 107.746 83.362 105.63 83.362 103.515Z" fill="white"/>
<path d="M93.688 58.7255C77.5527 49.2527 50.5376 49.8964 33.3881 60.197L33.0193 60.381C24.3523 65.6233 19.9267 72.429 19.6501 79.0508C19.5578 80.8902 19.5579 82.8216 19.4657 84.661C19.3734 86.5004 19.3735 88.4317 19.2812 90.2711C19.5579 83.6493 23.9835 76.9355 32.6505 71.6013L33.0193 71.4174C50.1688 61.1167 77.0917 60.473 93.3192 69.9458C101.433 74.7283 105.305 81.0742 105.029 87.604C105.121 83.8333 105.305 80.1545 105.398 76.3837C105.582 69.8539 101.71 63.508 93.688 58.7255Z" fill="#FDA014"/>
<path d="M93.688 58.7255C77.5527 49.2527 50.5376 49.8964 33.3881 60.197L33.0193 60.381C24.3523 65.6233 19.9267 72.429 19.6501 79.0508C19.5578 80.8902 19.5579 82.8216 19.4657 84.661C19.3734 86.5004 19.3735 88.4317 19.2812 90.2711C19.5579 83.6493 23.9835 76.9355 32.6505 71.6013L33.0193 71.4174C50.1688 61.1167 77.0917 60.473 93.3192 69.9458C101.433 74.7283 105.305 81.0742 105.029 87.604C105.121 83.8333 105.305 80.1545 105.398 76.3837C105.582 69.8539 101.71 63.508 93.688 58.7255Z" fill="#EA7A00"/>
<path d="M99.4047 98.9163L99.0359 99.1003C77.7373 112.068 44.1758 112.988 23.9836 101.124C13.9336 95.2375 9.13915 87.3281 9.41576 79.2348C9.32356 83.0056 9.13916 86.6844 9.04696 90.4551C8.77035 98.5485 13.5648 106.458 23.6148 112.344C43.807 124.208 77.3685 123.288 98.6671 110.321L99.0359 110.137C109.547 103.607 114.987 95.3295 115.263 87.2362C115.356 83.4654 115.54 79.7866 115.632 76.0159C115.356 84.2012 109.916 92.4784 99.4047 98.9163Z" fill="#EA7A00"/>
<path opacity="0.27" d="M99.4048 99.0077L99.036 99.1917C91.8443 103.606 72.8507 107.653 63.8149 109.216L63.0773 120.529C78.1984 120.069 91.3833 114.918 98.6672 110.412L99.036 110.228C106.228 105.721 111.022 100.479 113.42 94.961L114.249 82.821C111.944 88.6151 107.058 94.3173 99.4048 99.0077Z" fill="#FFC431"/>
<path opacity="0.69" d="M99.4042 99.0078L99.0354 99.1917C93.3189 102.687 86.6803 105.262 79.673 107.009L78.9354 118.321C86.0349 116.574 92.7657 113.999 98.5744 110.412L98.9432 110.228C104.291 106.917 108.256 103.146 111.022 99.1917L111.851 87.3276C109.178 91.4663 105.029 95.5129 99.4042 99.0078Z" fill="#FFC431"/>
<path d="M101.064 54.2187C80.9643 42.4466 47.6795 43.2744 26.3809 56.0581L26.012 56.2421C4.71343 69.2098 3.88362 89.3512 24.0758 101.215C44.268 113.079 77.8294 112.16 99.1281 99.1919L99.4968 99.008C120.334 86.0403 121.164 65.9909 101.064 54.2187ZM92.3973 94.8694L92.0285 95.0533C74.879 105.538 47.6795 106.274 31.3597 96.7087C15.04 87.1439 15.7776 70.8653 32.9272 60.3807L33.296 60.1968C50.4455 49.8962 77.3684 49.2524 93.5959 58.7253C109.823 68.1981 109.178 84.3848 92.3973 94.8694Z" fill="url(#paint2_linear)"/>
<path d="M93.3192 61.2083C77.2761 51.7355 50.6298 52.4712 33.5725 62.5879L33.2037 62.7718C24.0757 68.382 19.7422 75.5556 20.0189 82.5453C21.0331 87.7876 24.5367 93.8576 31.3597 97.2605C65.3821 114.367 92.3972 94.8693 92.3972 94.8693C99.2202 90.6386 103.369 85.3964 104.844 80.0621C105.674 73.1644 101.894 66.1747 93.3192 61.2083Z" fill="url(#paint3_linear)"/>
<path d="M86.7729 61.0249L80.5954 64.5197C76.5385 63.2322 72.3895 62.7723 68.1482 63.0482C63.9069 63.4161 60.0344 64.6117 56.5307 66.6351L56.4385 66.727L65.8431 70.9576C67.7794 69.854 69.6234 69.2102 71.3752 69.1182C73.1271 68.9343 74.7867 69.2102 76.2619 69.854C77.8293 70.5897 78.4748 71.3255 78.2904 72.0613C78.106 72.797 77.3684 73.6248 75.9853 74.3605C74.6945 75.0963 73.3115 75.5561 71.8362 75.6481C70.361 75.7401 68.056 75.6481 65.0133 75.2802C59.2046 74.1766 54.1335 73.6248 49.8922 73.8087C45.6509 73.9926 41.6863 75.0963 37.9982 77.2116C34.5867 79.1429 32.9271 81.1663 33.0193 83.1896C33.1115 85.3049 34.7711 87.2363 38.0904 89.0757L32.2817 92.3866L36.7996 94.4099L42.6083 91.099C46.7574 92.6625 51.0908 93.3063 55.7931 93.2143C60.4032 93.1223 64.7367 91.8348 68.8858 89.4435L68.978 89.3516L59.6656 85.121C57.4528 86.4085 55.3321 87.0523 53.3037 87.0523C51.2752 87.1443 49.4312 86.7764 47.5872 85.9487C46.0197 85.2129 45.2821 84.4772 45.3743 83.7414C45.4665 83.0057 46.2041 82.1779 47.495 81.4422C49.0624 80.6144 50.5376 80.0626 52.1051 79.9707C53.6725 79.8787 55.8853 79.9707 58.7436 80.4305C64.9211 81.5341 69.9922 81.994 74.0491 81.902C78.106 81.7181 81.9784 80.6144 85.5743 78.5911C88.8936 76.7517 90.461 74.7284 90.3688 72.5211C90.2766 70.3138 88.5248 68.2905 85.1133 66.4511L91.1986 62.9563L86.7729 61.0249Z" fill="white"/>
<path d="M84.6525 45.482C68.5171 36.0091 41.502 36.6529 24.3525 46.9535L23.9837 47.1375C15.3167 52.3797 10.891 59.1855 10.6144 65.8073C10.5222 67.6467 10.5222 69.5781 10.43 71.4174C10.3378 73.2568 10.3378 75.1882 10.2456 77.0276C10.5222 70.4058 14.9479 63.692 23.6149 58.3578L23.9837 58.1738C41.1332 47.8732 68.0561 47.2294 84.2837 56.7023C92.3974 61.4847 96.2699 67.8306 95.9933 74.3605C96.0855 70.5897 96.2699 66.9109 96.3621 63.1402C96.6387 56.7023 92.674 50.2644 84.6525 45.482Z" fill="#FDA014"/>
<path d="M84.6525 45.482C68.5171 36.0091 41.502 36.6529 24.3525 46.9535L23.9837 47.1375C15.3167 52.3797 10.891 59.1855 10.6144 65.8073C10.5222 67.6467 10.5222 69.5781 10.43 71.4174C10.3378 73.2568 10.3378 75.1882 10.2456 77.0276C10.5222 70.4058 14.9479 63.692 23.6149 58.3578L23.9837 58.1738C41.1332 47.8732 68.0561 47.2294 84.2837 56.7023C92.3974 61.4847 96.2699 67.8306 95.9933 74.3605C96.0855 70.5897 96.2699 66.9109 96.3621 63.1402C96.6387 56.7023 92.674 50.2644 84.6525 45.482Z" fill="#EA7A00"/>
<path d="M90.369 85.7647L90.0002 85.9487C68.7016 98.9164 35.1402 99.8361 14.948 87.972C4.898 82.0859 0.103522 74.1765 0.380127 66.0832C0.287926 69.854 0.103514 73.5327 0.0113119 77.3035C-0.265293 85.3968 4.5292 93.3062 14.5792 99.1923C34.7714 111.056 68.3328 110.137 89.6314 97.169L90.0002 96.985C100.511 90.4552 105.951 82.1779 106.228 74.0846C106.32 70.3138 106.504 66.635 106.597 62.8643C106.32 70.9576 100.88 79.2349 90.369 85.7647Z" fill="#EA7A00"/>
<path opacity="0.27" d="M90.3692 85.7643L90.0004 85.9482C82.8087 90.3628 63.8151 94.4095 54.7793 95.9729L54.0417 107.285C69.1628 106.825 82.3476 101.675 89.6316 97.1686L90.0004 96.9846C97.1921 92.4781 101.987 87.2358 104.384 81.7176L105.214 69.5776C102.909 75.3717 98.0219 81.0739 90.3692 85.7643Z" fill="#FFC431"/>
<path opacity="0.69" d="M90.3685 85.7644L89.9997 85.9483C84.2832 89.4432 77.6447 92.0183 70.6373 93.7658L69.8997 105.078C76.9993 103.331 83.73 100.755 89.5387 97.1686L89.9075 96.9847C95.2552 93.6738 99.2199 89.903 101.986 85.9483L102.816 74.0842C100.142 78.3148 95.9928 82.2695 90.3685 85.7644Z" fill="#FFC431"/>
<path d="M92.0286 40.9753C71.9286 29.2032 38.6438 30.0309 17.3452 42.8147L16.9764 42.9987C-4.32221 55.9664 -5.15203 76.1078 15.0402 87.9719C35.2323 99.836 68.7938 98.9163 90.0924 85.9485L90.4612 85.7646C111.299 72.7969 112.129 52.7475 92.0286 40.9753ZM83.3617 81.626L82.9929 81.8099C65.8433 92.2944 38.6438 93.0302 22.3241 83.4654C6.00438 73.9005 6.742 57.6219 23.8915 47.1373L24.2603 46.9534C41.4099 36.6528 68.3328 36.009 84.5603 45.4819C100.788 55.0467 100.142 71.1414 83.3617 81.626Z" fill="url(#paint4_linear)"/>
<path d="M84.2836 47.9648C68.2405 38.4919 41.5942 39.2277 24.5369 49.3444L24.168 49.5283C15.0401 55.1385 10.7066 62.3121 10.9832 69.3018C11.9974 74.5441 15.5011 80.6141 22.324 84.017C56.3465 101.123 83.3616 81.6257 83.3616 81.6257C90.1845 77.3951 94.3336 72.1529 95.8088 66.8186C96.6386 59.9209 92.8584 52.9312 84.2836 47.9648Z" fill="url(#paint5_linear)"/>
<path d="M77.7373 47.7809L71.5598 51.2757C67.5029 49.9882 63.3538 49.5283 59.1125 49.8042C54.8712 50.1721 50.9988 51.3677 47.4951 53.391L47.4029 53.483L56.8075 57.7136C58.7437 56.61 60.5878 55.9662 62.3396 55.8742C64.0914 55.6903 65.7511 55.9662 67.2263 56.61C68.7937 57.3457 69.4391 58.0815 69.2547 58.8172C69.0703 59.553 68.3327 60.3807 66.9497 61.1165C65.6589 61.8522 64.2758 62.3121 62.8006 62.4041C61.3254 62.496 59.0203 62.4041 55.9777 62.0362C50.1689 60.9326 45.0979 60.3807 40.8566 60.5647C36.6153 60.7486 32.6506 61.8522 28.9626 63.9676C25.5511 65.8989 23.8914 67.9222 23.9836 69.9456C24.0759 72.0609 25.7355 73.9923 29.0547 75.8316L23.246 79.1426L27.7639 81.1659L33.5726 77.855C37.7217 79.4185 42.0552 80.0622 46.7575 79.9703C51.3676 79.8783 55.7011 78.5907 59.8501 76.1995L59.9423 76.1076L50.63 71.8769C48.4171 73.1645 46.2965 73.8083 44.268 73.8083C42.2396 73.9003 40.3956 73.5324 38.5515 72.7047C36.9841 71.9689 36.2465 71.2332 36.3387 70.4974C36.4309 69.7616 37.1685 68.9339 38.4593 68.1982C40.0268 67.3704 41.502 66.8186 43.0694 66.7266C44.6368 66.6347 46.8497 66.7266 49.708 67.1865C55.8855 68.2901 60.9566 68.75 65.0134 68.658C69.0703 68.4741 72.9428 67.3704 76.5387 65.3471C79.8579 63.5077 81.4254 61.4844 81.3331 59.2771C81.2409 57.0698 79.4891 55.0465 76.0776 53.2071L82.163 49.7122L77.7373 47.7809Z" fill="white"/>
<path d="M90.4612 32.6981C74.3259 23.2252 47.3108 23.869 30.1612 34.1696L29.7924 34.3535C21.1255 39.5958 16.6998 46.4016 16.4232 53.0234C16.331 54.8628 16.331 56.7941 16.2388 58.6335C16.1466 60.4729 16.1466 62.4043 16.0544 64.2437C16.331 57.6219 20.7567 50.9081 29.4236 45.5738L29.7924 45.3899C46.942 35.0893 73.8649 34.4455 90.0924 43.9184C98.2062 48.7008 102.079 55.0467 101.802 61.5766C101.894 57.8058 102.079 54.127 102.171 50.3563C102.447 43.8264 98.4828 37.4805 90.4612 32.6981Z" fill="#FDA014"/>
<path d="M90.4612 32.6981C74.3259 23.2252 47.3108 23.869 30.1612 34.1696L29.7924 34.3535C21.1255 39.5958 16.6998 46.4016 16.4232 53.0234C16.331 54.8628 16.331 56.7941 16.2388 58.6335C16.1466 60.4729 16.1466 62.4043 16.0544 64.2437C16.331 57.6219 20.7567 50.9081 29.4236 45.5738L29.7924 45.3899C46.942 35.0893 73.8649 34.4455 90.0924 43.9184C98.2062 48.7008 102.079 55.0467 101.802 61.5766C101.894 57.8058 102.079 54.127 102.171 50.3563C102.447 43.8264 98.4828 37.4805 90.4612 32.6981Z" fill="#EA7A00"/>
<path d="M96.1778 72.8888L95.809 73.0728C74.5104 86.0405 40.9489 86.9602 20.7567 75.0961C10.7067 69.21 5.91222 61.3006 6.18883 53.2073C6.09663 56.9781 5.91223 60.6568 5.82003 64.4276C5.54342 72.5209 10.3379 80.4303 20.3879 86.3164C40.5801 98.1805 74.1415 97.2608 95.4402 84.2931L95.809 84.1091C106.32 77.6712 111.76 69.394 112.036 61.3006C112.129 57.5299 112.313 53.8511 112.405 50.0803C112.129 58.1737 106.689 66.4509 96.1778 72.8888Z" fill="#EA7A00"/>
<path opacity="0.27" d="M96.1779 72.9805L95.8091 73.1644C88.6174 77.579 69.6238 81.6256 60.588 83.1891L59.8504 94.5014C74.9715 94.0416 88.1564 88.8913 95.4403 84.3847L95.8091 84.2008C103.001 79.6943 107.795 74.452 110.193 68.9338L111.022 56.7938C108.717 62.5879 103.831 68.29 96.1779 72.9805Z" fill="#FFC431"/>
<path opacity="0.69" d="M96.1773 72.9805L95.8085 73.1644C90.092 76.6592 83.4534 79.2344 76.4461 80.9818L75.7085 92.2941C82.808 90.5467 89.5388 87.9715 95.3475 84.3847L95.7163 84.2008C101.064 80.8898 105.029 77.1191 107.795 73.1644L108.624 61.3003C105.951 65.4389 101.894 69.4856 96.1773 72.9805Z" fill="#FFC431"/>
<path d="M97.8374 28.1914C77.7374 16.4193 44.4525 17.247 23.1539 30.0308L22.7851 30.2147C1.4865 43.1825 0.656693 63.3238 20.8489 75.1879C41.0411 87.052 74.6025 86.1323 95.9012 73.1646L96.27 72.9807C117.2 60.0129 117.937 39.9635 97.8374 28.1914ZM89.1704 68.842L88.8016 69.026C71.7443 79.5105 44.5447 80.2463 28.225 70.6814C11.9053 61.1166 12.6429 44.746 29.7925 34.3534L30.1613 34.1694C47.3108 23.8688 74.2337 23.225 90.4612 32.6979C106.597 42.1708 106.043 58.3575 89.1704 68.842Z" fill="url(#paint6_linear)"/>
<path d="M90.0923 35.181C74.0492 25.7081 47.4029 26.4439 30.3456 36.5605L29.9768 36.7445C20.8488 42.3546 16.5153 49.5283 16.7919 56.518C17.8061 61.7603 21.3098 67.8303 28.1327 71.2331C62.1552 88.3395 89.1703 68.8419 89.1703 68.8419C95.9932 64.6113 100.142 59.369 101.618 54.0348C102.447 47.0451 98.6671 40.1474 90.0923 35.181Z" fill="url(#paint7_linear)"/>
<path d="M89.2624 57.7138C89.3546 55.5985 87.6949 53.5751 84.2835 51.7358C80.5954 49.7124 76.7229 48.5168 72.3894 48.3329C68.1482 48.1489 63.0771 48.6088 57.2683 49.8044C54.1335 50.1723 51.8284 50.2642 50.4454 50.1723C48.9702 50.0803 47.5872 49.6204 46.2963 48.8847C44.9133 48.1489 44.1757 47.3212 43.9913 46.5854C43.8069 45.8497 44.4523 45.1139 46.0197 44.3782C47.495 43.7344 49.1546 43.4585 50.9064 43.6424C52.6583 43.8263 54.5023 44.3782 56.4385 45.4818L65.8431 41.2512L65.7509 41.1592C62.2472 39.1359 58.3748 37.9403 54.1335 37.5724C49.8922 37.2045 45.7431 37.6644 41.6862 39.0439L35.5087 35.5491L30.9908 37.5724L37.0762 41.0673C33.6647 42.9067 31.9129 44.93 31.8207 47.1373C31.7285 49.3445 33.3881 51.3679 36.6151 53.2073C40.3032 55.3226 44.1757 56.4262 48.1404 56.5182C52.1972 56.7021 57.2683 56.1503 63.4459 55.0467C66.3963 54.5868 68.6092 54.4948 70.0844 54.5868C71.5596 54.6788 73.127 55.2306 74.6945 56.0583C75.9853 56.7941 76.7229 57.6218 76.8151 58.3576C76.9073 59.0933 76.1697 59.8291 74.6023 60.5648C72.8504 61.3926 70.9142 61.7604 68.8858 61.6685C66.8573 61.5765 64.8289 60.9327 62.5238 59.7371L53.3959 63.8758L53.4881 63.9677C57.6371 66.3589 61.9706 67.6465 66.5807 67.7385C71.1908 67.8304 75.6165 67.0947 79.7656 65.6232L85.5743 68.9341L90.0922 66.9108L84.2835 63.5998C87.6027 61.7604 89.2624 59.8291 89.2624 57.7138Z" fill="white"/>
<g opacity="0.3">
<path opacity="0.3" d="M413.341 55.7725L412.788 55.4965C386.787 39.9537 345.849 38.942 321.324 53.3812C308.231 61.1067 302.422 71.6832 303.713 82.2597C305.926 90.445 312.196 98.3544 322.707 104.976C322.707 104.976 364.013 134.774 416.107 108.655C426.618 103.413 430.306 94.6756 431.873 86.6743C432.427 75.9138 427.356 64.3256 413.341 55.7725Z" fill="#003D75"/>
</g>
<path d="M411.312 57.7958C395.177 48.323 368.162 48.9667 351.012 59.2674L350.643 59.4513C341.976 64.6936 337.551 71.4993 337.274 78.1212C337.182 79.9606 337.182 81.8919 337.09 83.7313C336.997 85.5707 336.997 87.5021 336.905 89.3415C337.182 82.7196 341.608 76.0059 350.275 70.6716L350.643 70.4877C367.793 60.1871 394.716 59.5433 410.943 69.0162C419.057 73.7986 422.93 80.1445 422.653 86.6743C422.745 82.9036 422.929 79.2248 423.022 75.454C423.298 68.9242 419.426 62.4863 411.312 57.7958Z" fill="#FDA014"/>
<path d="M411.312 57.7958C395.177 48.323 368.162 48.9667 351.012 59.2674L350.643 59.4513C341.976 64.6936 337.551 71.4993 337.274 78.1212C337.182 79.9606 337.182 81.8919 337.09 83.7313C336.997 85.5707 336.997 87.5021 336.905 89.3415C337.182 82.7196 341.608 76.0059 350.275 70.6716L350.643 70.4877C367.793 60.1871 394.716 59.5433 410.943 69.0162C419.057 73.7986 422.93 80.1445 422.653 86.6743C422.745 82.9036 422.929 79.2248 423.022 75.454C423.298 68.9242 419.426 62.4863 411.312 57.7958Z" fill="#EA7A00"/>
<path d="M417.121 97.9866L416.752 98.1706C395.453 111.138 361.892 112.058 341.7 100.194C331.65 94.3078 326.855 86.3985 327.132 78.3051C327.04 82.0759 326.855 85.7547 326.763 89.5254C326.486 97.6188 331.281 105.528 341.331 111.414C361.523 123.278 395.084 122.359 416.383 109.391L416.752 109.207C427.263 102.677 432.703 94.3998 432.979 86.3065C433.072 82.5357 433.256 78.8569 433.348 75.0862C432.979 83.2715 427.539 91.4568 417.121 97.9866Z" fill="#EA7A00"/>
<path opacity="0.27" d="M417.121 98.078L416.752 98.262C409.56 102.677 390.567 106.723 381.531 108.287L380.793 119.599C395.914 119.139 409.099 113.989 416.383 109.482L416.752 109.298C423.944 104.792 428.738 99.5495 431.135 94.0314L431.965 81.8914C429.568 87.6855 424.681 93.2956 417.121 98.078Z" fill="#FFC431"/>
<path opacity="0.69" d="M417.12 98.0781L416.751 98.262C411.035 101.757 404.396 104.332 397.389 106.079L396.651 117.392C403.751 115.644 410.482 113.069 416.29 109.482L416.659 109.298C422.007 105.988 425.972 102.217 428.738 98.262L429.567 86.3979C426.894 90.5366 422.744 94.5833 417.12 98.0781Z" fill="#FFC431"/>
<path d="M418.688 53.2891C398.588 41.5169 365.303 42.3447 344.004 55.1285L343.636 55.3124C322.337 68.2801 321.507 88.4215 341.699 100.286C361.891 112.15 395.453 111.23 416.752 98.2623L417.12 98.0783C438.05 85.0186 438.788 65.0612 418.688 53.2891ZM410.021 93.9397L409.652 94.1236C392.502 104.608 365.303 105.344 348.983 95.7791C332.663 86.2142 333.401 69.9356 350.551 59.451L350.919 59.2671C368.069 48.9665 394.992 48.3227 411.219 57.7956C427.539 67.2685 426.894 83.4551 410.021 93.9397Z" fill="url(#paint8_linear)"/>
<path d="M410.943 60.1867C394.9 50.7139 368.254 51.4496 351.196 61.5663L350.828 61.7502C341.7 67.3604 337.366 74.534 337.643 81.5237C338.657 86.766 342.161 92.836 348.984 96.2389C383.006 113.345 410.021 93.8476 410.021 93.8476C416.844 89.617 420.993 84.3748 422.468 79.0405C423.298 72.1428 419.518 65.2451 410.943 60.1867Z" fill="url(#paint9_linear)"/>
<path d="M404.12 79.9604C404.12 77.8451 402.645 76.0057 399.786 74.3503H399.602L391.304 79.1327C392.871 80.0524 393.609 80.9721 393.701 81.7998C393.701 82.6275 393.056 83.4553 391.765 84.191C390.382 85.0187 389.091 85.3866 387.892 85.2946C386.694 85.2027 385.495 84.9268 384.389 84.283C383.375 83.6392 382.821 82.9954 382.821 82.2596C382.821 81.5239 383.282 80.4202 384.389 78.8568C387.063 75.9137 388.538 73.4306 388.814 71.3153C389.091 69.1999 387.708 67.2686 384.758 65.6131C381.991 64.0496 378.949 63.3139 375.445 63.4059C371.942 63.4978 368.438 64.4175 364.934 66.1649L360.232 63.4059L356.267 65.7051L360.969 68.4642C357.835 70.5795 356.083 72.7868 355.622 75.086C355.161 77.3853 356.728 79.4086 360.232 81.34L360.416 81.4319L368.622 76.6495C366.87 75.6378 366.041 74.6262 366.133 73.6145C366.317 72.6028 367.147 71.6831 368.714 70.7634C370.097 69.9357 371.388 69.5678 372.679 69.5678C373.97 69.5678 375.169 69.8437 376.183 70.4875C377.474 71.2233 378.027 71.959 378.027 72.6948C378.027 73.4306 377.474 74.5342 376.367 76.0057C373.693 79.1327 372.218 81.6159 371.942 83.6392C371.665 85.6625 372.956 87.5019 375.906 89.2493C378.58 90.8128 381.715 91.4566 385.403 91.3647C389.091 91.1807 392.687 90.261 396.191 88.5136L401.169 91.3647L405.134 89.0654L400.155 86.1224C402.829 84.099 404.12 82.0757 404.12 79.9604Z" fill="white"/>
<path d="M414.447 35.079C398.312 25.6062 371.297 26.25 354.147 36.5506L353.778 36.7345C345.111 41.9768 340.686 48.7825 340.409 55.4043C340.317 57.2437 340.317 59.1751 340.225 61.0145C340.132 62.8539 340.132 64.7853 340.04 66.6247C340.317 60.0028 344.743 53.289 353.41 47.9548L353.778 47.7709C370.928 37.4703 397.851 36.8265 414.078 46.2994C422.192 51.0818 426.065 57.4277 425.788 63.9575C425.88 60.1868 426.065 56.508 426.157 52.7372C426.433 46.2994 422.561 39.8615 414.447 35.079Z" fill="#FDA014"/>
<path d="M414.447 35.079C398.312 25.6062 371.297 26.25 354.147 36.5506L353.778 36.7345C345.111 41.9768 340.686 48.7825 340.409 55.4043C340.317 57.2437 340.317 59.1751 340.225 61.0145C340.132 62.8539 340.132 64.7853 340.04 66.6247C340.317 60.0028 344.743 53.289 353.41 47.9548L353.778 47.7709C370.928 37.4703 397.851 36.8265 414.078 46.2994C422.192 51.0818 426.065 57.4277 425.788 63.9575C425.88 60.1868 426.065 56.508 426.157 52.7372C426.433 46.2994 422.561 39.8615 414.447 35.079Z" fill="#EA7A00"/>
<path d="M420.256 75.3618L419.887 75.5457C398.588 88.5134 365.027 89.4331 344.835 77.569C334.785 71.683 329.99 63.7736 330.267 55.6802C330.175 59.451 329.99 63.1298 329.898 66.9005C329.621 74.9939 334.416 82.9033 344.466 88.7893C364.658 100.653 398.219 99.7337 419.518 86.766L419.887 86.5821C430.398 80.0522 435.838 71.7749 436.114 63.6816C436.207 59.9108 436.391 56.2321 436.483 52.4613C436.114 60.5546 430.674 68.8319 420.256 75.3618Z" fill="#EA7A00"/>
<path opacity="0.27" d="M420.256 75.3614L419.887 75.5453C412.695 79.9598 393.702 84.0065 384.666 85.57L383.928 96.8823C399.049 96.4224 412.234 91.2721 419.518 86.7656L419.887 86.5817C427.079 82.0751 431.873 76.8329 434.271 71.3147L435.1 59.1747C432.703 65.0607 427.816 70.6709 420.256 75.3614Z" fill="#FFC431"/>
<path opacity="0.69" d="M420.255 75.3613L419.886 75.5452C414.17 79.0401 407.531 81.6153 400.524 83.3627L399.786 94.6749C406.886 92.9275 413.617 90.3524 419.425 86.7656L419.794 86.5816C425.142 83.2707 429.107 79.4999 431.873 75.5452L432.702 63.6812C430.029 67.9118 425.879 71.8665 420.255 75.3613Z" fill="#FFC431"/>
<path d="M421.823 30.5723C401.723 18.8001 368.438 19.6279 347.139 32.4117L346.771 32.5956C325.472 45.5633 324.642 65.7047 344.834 77.5688C365.026 89.4329 398.588 88.5132 419.887 75.5455L420.255 75.3615C441.185 62.3938 441.923 42.4364 421.823 30.5723ZM413.156 71.2229L412.787 71.4068C395.637 81.8914 368.438 82.6271 352.118 73.0623C335.799 63.4974 336.536 47.2188 353.686 36.7342L354.054 36.5503C371.204 26.2497 398.127 25.6059 414.354 35.0788C430.674 44.6436 430.029 60.7383 413.156 71.2229Z" fill="url(#paint10_linear)"/>
<path d="M414.078 37.5619C398.035 28.089 371.389 28.8247 354.332 38.9414L353.963 39.1253C344.835 44.7355 340.501 51.9091 340.778 58.8988C341.792 64.1411 345.296 70.2111 352.119 73.614C386.141 90.7203 413.156 71.2228 413.156 71.2228C419.979 66.9922 424.128 61.7499 425.604 56.4156C426.433 49.5179 422.653 42.6202 414.078 37.5619Z" fill="url(#paint11_linear)"/>
<path d="M407.532 37.3779L401.354 40.8728C397.298 39.5852 393.149 39.1254 388.907 39.4013C384.666 39.7691 380.794 40.9647 377.29 42.9881L377.198 43.0801L386.602 47.3107C388.538 46.207 390.382 45.5632 392.134 45.4713C393.886 45.2873 395.546 45.5632 397.021 46.207C398.588 46.9428 399.234 47.6785 399.049 48.4143C398.865 49.1501 398.127 49.9778 396.744 50.7135C395.454 51.4493 394.071 51.9091 392.595 52.0011C391.12 52.0931 388.815 52.0011 385.772 51.6332C379.964 50.5296 374.893 49.9778 370.651 50.1617C366.41 50.3457 362.445 51.4493 358.757 53.5646C355.346 55.496 353.686 57.5193 353.778 59.5426C353.871 61.6579 355.53 63.5893 358.849 65.4287L353.041 68.7396L357.559 70.7629L363.367 67.452C367.516 69.0155 371.85 69.6593 376.552 69.5673C381.162 69.4754 385.496 68.1878 389.645 65.7966L389.737 65.7046L380.425 61.474C378.212 62.7616 376.091 63.4054 374.063 63.4054C372.034 63.4973 370.19 63.1294 368.346 62.3017C366.779 61.566 366.041 60.8302 366.133 60.0944C366.226 59.3587 366.963 58.531 368.254 57.7952C369.821 56.9675 371.297 56.4157 372.864 56.3237C374.432 56.2317 376.644 56.3237 379.503 56.7835C385.68 57.8872 390.751 58.347 394.808 58.2551C398.865 58.0711 402.738 56.9675 406.333 54.9441C409.653 53.1047 411.22 51.0814 411.128 48.8741C411.036 46.6669 409.284 44.6435 405.872 42.8041L411.958 39.3093L407.532 37.3779Z" fill="white"/>
<path d="M408.639 25.6066C392.503 16.1338 365.488 16.7775 348.339 27.0781L347.97 27.2621C339.303 32.5044 334.877 39.3101 334.601 45.9319C334.509 47.7713 334.509 49.7027 334.416 51.5421C334.324 53.3815 334.324 55.3129 334.232 57.1522C334.509 50.5304 338.934 43.8166 347.601 38.4824L347.97 38.2985C365.12 27.9978 392.042 27.3541 408.27 36.8269C416.384 41.6094 420.256 47.9553 419.98 54.4851C420.072 50.7144 420.256 47.0356 420.348 43.2648C420.625 36.8269 416.753 30.3891 408.639 25.6066Z" fill="#FDA014"/>
<path d="M408.639 25.6066C392.503 16.1338 365.488 16.7775 348.339 27.0781L347.97 27.2621C339.303 32.5044 334.877 39.3101 334.601 45.9319C334.509 47.7713 334.509 49.7027 334.416 51.5421C334.324 53.3815 334.324 55.3129 334.232 57.1522C334.509 50.5304 338.934 43.8166 347.601 38.4824L347.97 38.2985C365.12 27.9978 392.042 27.3541 408.27 36.8269C416.384 41.6094 420.256 47.9553 419.98 54.4851C420.072 50.7144 420.256 47.0356 420.348 43.2648C420.625 36.8269 416.753 30.3891 408.639 25.6066Z" fill="#EA7A00"/>
<path d="M414.447 65.8892L414.078 66.0732C392.78 79.0409 359.218 79.9606 339.026 68.0965C328.976 62.2104 324.182 54.301 324.458 46.2077C324.366 49.9785 324.182 53.6573 324.09 57.428C323.813 65.5214 328.607 73.4308 338.657 79.3168C358.85 91.1809 392.411 90.2612 413.71 77.2935L414.078 77.1095C424.589 70.5797 430.029 62.3024 430.306 54.2091C430.398 50.4383 430.583 46.7595 430.675 42.9888C430.306 51.0821 424.866 59.3594 414.447 65.8892Z" fill="#EA7A00"/>
<path opacity="0.27" d="M414.447 65.8889L414.079 66.0729C406.887 70.4874 387.893 74.5341 378.858 76.0976L378.12 87.4099C393.241 86.95 406.426 81.7997 413.71 77.2932L414.079 77.1093C421.27 72.6027 426.065 67.3605 428.462 61.8423L429.292 49.7023C426.895 55.5883 422.008 61.1985 414.447 65.8889Z" fill="#FFC431"/>
<path opacity="0.69" d="M414.447 65.8889L414.078 66.0728C408.362 69.5677 401.723 72.1428 394.716 73.8903L393.978 85.2026C401.078 83.4551 407.808 80.88 413.617 77.2931L413.986 77.1092C419.334 73.7983 423.298 70.0275 426.064 66.0728L426.894 54.2087C424.128 58.4393 420.071 62.394 414.447 65.8889Z" fill="#FFC431"/>
<path d="M416.014 21.0999C395.914 9.32773 362.63 10.1555 341.331 22.9392L340.962 23.1232C319.664 36.0909 318.834 56.2323 339.026 68.0964C359.218 79.9605 392.78 79.0408 414.078 66.073L414.447 65.8891C435.377 52.9214 436.114 32.9639 416.014 21.0999ZM407.347 61.7505L406.979 61.9344C389.829 72.4189 362.63 73.1547 346.31 63.5899C329.99 54.025 330.728 37.7464 347.877 27.2618L348.246 27.0779C365.396 16.7773 392.319 16.1335 408.546 25.6064C424.774 35.1712 424.22 51.2659 407.347 61.7505Z" fill="url(#paint12_linear)"/>
<path d="M408.27 28.0894C392.227 18.6166 365.58 19.3523 348.523 29.469L348.154 29.6529C339.026 35.2631 334.693 42.4367 334.969 49.4264C335.984 54.6687 339.487 60.7387 346.31 64.1416C380.333 81.2479 407.348 61.7504 407.348 61.7504C414.171 57.5198 418.32 52.2775 419.795 46.9432C420.625 40.0455 416.845 33.1478 408.27 28.0894Z" fill="url(#paint13_linear)"/>
<path d="M401.724 27.906L395.546 31.4009C391.489 30.1133 387.34 29.6534 383.099 29.9293C378.858 30.2972 374.985 31.4928 371.481 33.5162L371.389 33.6081L380.794 37.8387C382.73 36.7351 384.574 36.0913 386.326 35.9993C388.078 35.8154 389.737 36.0913 391.213 36.7351C392.78 37.4709 393.425 38.2066 393.241 38.9424C393.057 39.6781 392.319 40.5059 390.936 41.2416C389.645 41.9774 388.262 42.4372 386.787 42.5292C385.312 42.6212 383.007 42.5292 379.964 42.1613C374.155 41.0577 369.084 40.5059 364.843 40.6898C360.602 40.8737 356.637 41.9774 352.949 44.0927C349.537 46.024 347.878 48.0474 347.97 50.0707C348.062 52.186 349.722 54.1174 353.041 55.9568L347.232 59.2677L351.75 61.291L357.559 57.9801C361.708 59.5436 366.042 60.1874 370.744 60.0954C375.354 60.0034 379.687 58.7159 383.836 56.3246L383.929 56.2327L374.616 52.0021C372.403 53.2896 370.283 53.9334 368.254 53.9334C366.226 54.0254 364.382 53.6575 362.538 52.8298C360.97 52.094 360.233 51.3583 360.325 50.6225C360.417 49.8868 361.155 49.059 362.446 48.3233C364.013 47.4956 365.488 46.9437 367.056 46.8518C368.623 46.7598 370.836 46.8518 373.694 47.3116C379.872 48.4153 384.943 48.8751 389 48.7831C393.057 48.5992 396.929 47.4956 400.525 45.4722C403.844 43.6328 405.412 41.6095 405.32 39.4022C405.227 37.1949 403.475 35.1716 400.064 33.3322L406.149 29.8374L401.724 27.906Z" fill="white"/>
<path d="M414.447 12.8227C398.312 3.34982 371.297 3.9936 354.147 14.2942L353.778 14.4782C345.111 19.7204 340.686 26.5262 340.409 33.148C340.317 34.9874 340.317 36.9188 340.225 38.7582C340.132 40.5976 340.132 42.5289 340.04 44.3683C340.317 37.7465 344.743 31.0327 353.41 25.6985L353.778 25.5145C370.928 15.2139 397.851 14.5701 414.078 24.043C422.192 28.8254 426.065 35.1713 425.788 41.7012C425.88 37.9304 426.065 34.2516 426.157 30.4809C426.433 24.043 422.561 17.6051 414.447 12.8227Z" fill="#FDA014"/>
<path d="M414.447 12.8227C398.312 3.34982 371.297 3.9936 354.147 14.2942L353.778 14.4782C345.111 19.7204 340.686 26.5262 340.409 33.148C340.317 34.9874 340.317 36.9188 340.225 38.7582C340.132 40.5976 340.132 42.5289 340.04 44.3683C340.317 37.7465 344.743 31.0327 353.41 25.6985L353.778 25.5145C370.928 15.2139 397.851 14.5701 414.078 24.043C422.192 28.8254 426.065 35.1713 425.788 41.7012C425.88 37.9304 426.065 34.2516 426.157 30.4809C426.433 24.043 422.561 17.6051 414.447 12.8227Z" fill="#EA7A00"/>
<path d="M420.256 53.1053L419.887 53.2892C398.588 66.257 365.027 67.1767 344.835 55.3126C334.785 49.4265 329.99 41.5171 330.267 33.4238C330.175 37.1945 329.99 40.8733 329.898 44.6441C329.621 52.7374 334.416 60.6468 344.466 66.5329C364.658 78.397 398.219 77.4773 419.518 64.5095L419.887 64.3256C430.398 57.7957 435.838 49.5185 436.114 41.4251C436.207 37.6544 436.391 33.9756 436.483 30.2048C436.114 38.2982 430.674 46.5754 420.256 53.1053Z" fill="#EA7A00"/>
<path opacity="0.27" d="M420.256 53.105L419.887 53.2889C412.695 57.7035 393.702 61.7502 384.666 63.3137L383.928 74.6259C399.049 74.1661 412.234 69.0158 419.518 64.5093L419.887 64.3253C427.079 59.8188 431.873 54.5765 434.271 49.0583L435.1 36.9183C432.703 42.7124 427.816 48.4145 420.256 53.105Z" fill="#FFC431"/>
<path opacity="0.69" d="M420.255 53.105L419.886 53.2889C414.17 56.7838 407.531 59.3589 400.524 61.1063L399.786 72.4186C406.886 70.6712 413.617 68.096 419.425 64.5092L419.794 64.3253C425.142 61.0144 429.107 57.2436 431.873 53.2889L432.702 41.4248C429.936 45.6554 425.879 49.6101 420.255 53.105Z" fill="#FFC431"/>
<path d="M421.823 8.31591C401.723 -3.45621 368.438 -2.62848 347.139 10.1553L346.771 10.3392C325.472 23.307 324.642 43.4483 344.834 55.3124C365.026 67.1765 398.588 66.2568 419.887 53.2891L420.255 53.1052C441.185 40.1374 441.923 20.088 421.823 8.31591ZM413.156 48.9665L412.787 49.1505C395.637 59.635 368.438 60.3708 352.118 50.8059C335.799 41.2411 336.536 24.9624 353.686 14.4779L354.054 14.2939C371.204 3.99334 398.127 3.34955 414.354 12.8224C430.582 22.3873 430.029 38.482 413.156 48.9665Z" fill="url(#paint14_linear)"/>
<path d="M414.078 15.3055C398.035 5.83263 371.389 6.56839 354.332 16.6851L353.963 16.869C344.835 22.4792 340.501 29.6528 340.778 36.6425C341.792 41.8848 345.296 47.9548 352.119 51.3576C386.141 68.464 413.156 48.9664 413.156 48.9664C419.979 44.7358 424.128 39.4936 425.604 34.1593C426.433 27.2616 422.653 20.2719 414.078 15.3055Z" fill="url(#paint15_linear)"/>
<path d="M413.064 37.47C413.156 35.3547 411.497 33.3314 408.085 31.492C404.397 29.4686 400.525 28.273 396.191 28.0891C391.95 27.9051 386.879 28.365 381.07 29.5606C377.935 29.9285 375.63 30.0204 374.247 29.9285C372.772 29.8365 371.389 29.3767 370.098 28.6409C368.715 27.9051 367.977 27.0774 367.793 26.3417C367.609 25.6059 368.254 24.8701 369.821 24.1344C371.297 23.4906 372.956 23.2147 374.708 23.3986C376.46 23.5826 378.304 24.1344 380.24 25.238L389.645 21.0074L389.553 20.9155C386.049 18.8921 382.176 17.6965 377.935 17.3286C373.694 16.9608 369.545 17.4206 365.488 18.8001L359.31 15.3053L354.792 17.3286L360.878 20.8235C357.466 22.6629 355.715 24.6862 355.622 26.8935C355.53 29.1007 357.19 31.1241 360.417 32.9635C364.105 35.0788 367.977 36.1824 371.942 36.2744C375.999 36.4583 381.07 35.9065 387.248 34.8029C390.198 34.343 392.411 34.2511 393.886 34.343C395.361 34.435 396.929 34.9868 398.496 35.8145C399.787 36.5503 400.525 37.378 400.617 38.1138C400.709 38.8495 399.971 39.5853 398.404 40.3211C396.652 41.1488 394.716 41.5167 392.687 41.4247C390.659 41.3327 388.631 40.6889 386.325 39.4933L377.013 43.7239L377.105 43.8159C381.254 46.2071 385.588 47.4947 390.198 47.5867C394.808 47.6786 399.234 46.9429 403.383 45.4714L409.192 48.7823L413.709 46.7589L407.901 43.448C411.312 41.5167 412.972 39.4933 413.064 37.47Z" fill="white"/>
<g opacity="0.3">
<path opacity="0.3" d="M332.111 122.542L331.557 122.266C306.11 106.999 266.094 106.08 242.122 120.151C229.306 127.692 223.681 138.085 224.88 148.478C227.001 156.479 233.178 164.296 243.505 170.642C243.505 170.642 283.889 199.889 334.877 174.229C345.111 169.079 350.367 160.066 351.934 152.156C352.303 141.672 345.757 130.911 332.111 122.542Z" fill="#003D75"/>
</g>
<path d="M330.082 124.474C314.223 115.185 287.946 115.828 271.073 125.853L270.704 126.037C262.221 131.187 257.888 137.809 257.611 144.247C257.519 146.086 257.519 147.926 257.427 149.765C257.335 151.605 257.335 153.444 257.242 155.283C257.427 148.846 261.852 142.224 270.335 137.073L270.704 136.89C287.485 126.865 313.854 126.221 329.713 135.51C337.642 140.2 341.423 146.454 341.238 152.8C341.33 149.121 341.515 145.443 341.607 141.764C341.791 135.418 338.011 129.164 330.082 124.474Z" fill="#FDA014"/>
<path d="M330.082 124.474C314.223 115.185 287.946 115.828 271.073 125.853L270.704 126.037C262.221 131.187 257.888 137.809 257.611 144.247C257.519 146.086 257.519 147.926 257.427 149.765C257.335 151.605 257.335 153.444 257.242 155.283C257.427 148.846 261.852 142.224 270.335 137.073L270.704 136.89C287.485 126.865 313.854 126.221 329.713 135.51C337.642 140.2 341.423 146.454 341.238 152.8C341.33 149.121 341.515 145.443 341.607 141.764C341.791 135.418 338.011 129.164 330.082 124.474Z" fill="#EA7A00"/>
<path d="M335.706 163.836L335.337 164.02C314.5 176.712 281.676 177.632 261.853 165.951C252.079 160.157 247.285 152.432 247.561 144.523C247.469 148.201 247.285 151.88 247.193 155.559C246.916 163.468 251.618 171.286 261.484 176.988C281.215 188.576 314.131 187.748 334.969 175.056L335.337 174.873C345.572 168.527 350.92 160.433 351.196 152.524C351.288 148.845 351.473 145.166 351.565 141.488C351.288 149.397 346.033 157.49 335.706 163.836Z" fill="#EA7A00"/>
<path opacity="0.27" d="M335.706 163.928L335.337 164.112C328.33 168.435 309.705 172.39 300.854 173.953L300.116 184.99C314.961 184.53 327.777 179.471 334.969 175.149L335.337 174.965C342.345 170.642 347.047 165.4 349.352 160.066L350.182 148.11C347.969 153.812 343.175 159.33 335.706 163.928Z" fill="#FFC431"/>
<path opacity="0.69" d="M335.706 163.928L335.338 164.112C329.713 167.515 323.259 170.09 316.436 171.746L315.699 182.782C322.706 181.127 329.252 178.552 334.969 175.057L335.338 174.873C340.593 171.654 344.466 167.975 347.139 164.02L347.877 152.432C345.295 156.571 341.238 160.525 335.706 163.928Z" fill="#FFC431"/>
<path d="M337.366 120.059C317.727 108.471 285.088 109.298 264.25 121.806L263.881 121.99C243.044 134.682 242.214 154.363 261.945 166.044C281.676 177.632 314.592 176.804 335.43 164.112L335.799 163.928C356.267 151.236 357.005 131.647 337.366 120.059ZM328.883 159.882L328.607 160.066C311.826 170.274 285.18 171.01 269.321 161.629C253.37 152.248 254.108 136.337 270.889 126.037L271.257 125.853C288.038 115.828 314.408 115.184 330.266 124.473C345.941 133.854 345.295 149.581 328.883 159.882Z" fill="url(#paint16_linear)"/>
<path d="M329.713 126.865C314.039 117.668 287.946 118.312 271.257 128.244L270.888 128.428C261.945 133.854 257.704 140.936 257.98 147.742C258.994 152.892 262.406 158.778 269.137 162.181C302.421 178.92 328.791 159.79 328.791 159.79C335.522 155.651 339.487 150.501 340.962 145.259C341.792 138.637 338.104 131.831 329.713 126.865Z" fill="url(#paint17_linear)"/>
<path d="M323.075 146.178C323.075 144.155 321.599 142.316 318.833 140.752H318.649L310.535 145.443C312.103 146.362 312.84 147.19 312.84 148.018C312.84 148.845 312.195 149.673 310.904 150.409C309.521 151.237 308.322 151.513 307.124 151.513C305.925 151.421 304.727 151.145 303.712 150.501C302.698 149.949 302.145 149.305 302.145 148.57C302.145 147.834 302.606 146.73 303.62 145.259C306.294 142.408 307.677 139.924 307.954 137.901C308.23 135.878 306.847 133.946 303.989 132.291C301.315 130.727 298.272 129.992 294.861 130.176C291.449 130.268 288.038 131.187 284.627 132.843L280.016 130.176L276.144 132.475L280.754 135.142C277.711 137.165 275.96 139.373 275.591 141.58C275.13 143.787 276.697 145.81 280.109 147.742L280.293 147.834L288.315 143.143C286.563 142.132 285.733 141.12 285.917 140.2C286.102 139.281 286.932 138.269 288.499 137.441C289.882 136.614 291.173 136.246 292.371 136.246C293.662 136.246 294.769 136.522 295.875 137.165C297.074 137.901 297.719 138.637 297.719 139.281C297.719 140.016 297.166 141.12 296.152 142.5C293.478 145.535 292.095 148.018 291.818 149.949C291.542 151.88 292.832 153.72 295.691 155.375C298.272 156.847 301.407 157.583 304.911 157.399C308.507 157.215 312.01 156.295 315.514 154.548L320.309 157.307L324.181 155.007L319.294 152.156C321.784 150.225 323.075 148.294 323.075 146.178Z" fill="white"/>
<path d="M329.897 107.827C314.039 98.5384 287.761 99.1822 270.888 109.207L270.519 109.391C262.037 114.541 257.703 121.163 257.427 127.601C257.335 129.44 257.335 131.28 257.242 133.119C257.15 134.958 257.15 136.798 257.058 138.637C257.242 132.199 261.668 125.577 270.151 120.427L270.519 120.243C287.3 110.219 313.67 109.575 329.529 118.864C337.458 123.554 341.238 129.808 341.054 136.154C341.146 132.475 341.33 128.796 341.423 125.118C341.607 118.772 337.827 112.518 329.897 107.827Z" fill="#FDA014"/>
<path d="M329.897 107.827C314.039 98.5384 287.761 99.1822 270.888 109.207L270.519 109.391C262.037 114.541 257.703 121.163 257.427 127.601C257.335 129.44 257.335 131.28 257.242 133.119C257.15 134.958 257.15 136.798 257.058 138.637C257.242 132.199 261.668 125.577 270.151 120.427L270.519 120.243C287.3 110.219 313.67 109.575 329.529 118.864C337.458 123.554 341.238 129.808 341.054 136.154C341.146 132.475 341.33 128.796 341.423 125.118C341.607 118.772 337.827 112.518 329.897 107.827Z" fill="#EA7A00"/>
<path d="M335.522 147.19L335.153 147.374C314.316 160.065 281.492 160.985 261.668 149.305C251.895 143.511 247.101 135.785 247.377 127.876C247.285 131.555 247.101 135.234 247.008 138.912C246.732 146.822 251.434 154.639 261.3 160.341C281.031 171.93 313.947 171.102 334.784 158.41L335.153 158.226C345.388 151.88 350.735 143.787 351.012 135.877C351.104 132.199 351.289 128.52 351.381 124.841C351.104 132.75 345.849 140.844 335.522 147.19Z" fill="#EA7A00"/>
<path opacity="0.27" d="M335.522 147.282L335.153 147.466C328.146 151.788 309.521 155.743 300.67 157.307L299.932 168.343C314.776 167.883 327.593 162.825 334.784 158.502L335.153 158.318C342.16 153.996 346.863 148.753 349.168 143.419L349.998 131.463C347.785 137.165 342.99 142.683 335.522 147.282Z" fill="#FFC431"/>
<path opacity="0.69" d="M335.522 147.282L335.153 147.466C329.529 150.869 323.075 153.444 316.252 155.1L315.514 166.136C322.522 164.48 329.068 161.905 334.784 158.41L335.153 158.227C340.409 155.008 344.281 151.329 346.955 147.374L347.693 135.786C345.111 139.925 341.054 143.879 335.522 147.282Z" fill="#FFC431"/>
<path d="M337.182 103.412C317.543 91.8243 284.903 92.652 264.066 105.16L263.697 105.344C242.859 118.036 242.03 137.717 261.761 149.397C281.492 160.985 314.408 160.158 335.246 147.466L335.614 147.282C356.083 134.59 356.821 115.001 337.182 103.412ZM328.699 143.235L328.423 143.419C311.642 153.628 284.996 154.364 269.137 144.983C253.186 135.602 253.924 119.691 270.704 109.39L271.073 109.207C287.854 99.1819 314.224 98.5381 330.082 107.827C345.757 117.116 345.111 132.935 328.699 143.235Z" fill="url(#paint18_linear)"/>
<path d="M329.529 110.219C313.855 101.022 287.761 101.665 271.073 111.598L270.704 111.782C261.761 117.208 257.519 124.29 257.796 131.096C258.81 136.246 262.222 142.132 268.952 145.535C302.237 162.273 328.607 143.144 328.607 143.144C335.338 139.005 339.302 133.855 340.777 128.612C341.607 121.899 337.919 115.185 329.529 110.219Z" fill="url(#paint19_linear)"/>
<path d="M323.167 110.126L317.082 113.529C313.117 112.241 309.06 111.781 304.911 112.149C300.762 112.517 296.982 113.621 293.57 115.644L293.478 115.736L302.606 119.875C304.45 118.771 306.294 118.219 308.046 118.035C309.705 117.851 311.365 118.127 312.84 118.771C314.408 119.415 315.053 120.151 314.869 120.886C314.684 121.622 313.947 122.358 312.564 123.094C311.273 123.829 309.982 124.197 308.507 124.381C307.124 124.473 304.819 124.381 301.776 124.013C296.06 122.91 291.173 122.45 287.024 122.634C282.875 122.818 279.002 123.921 275.406 125.945C272.087 127.784 270.428 129.808 270.52 131.831C270.612 133.854 272.179 135.786 275.499 137.625L269.782 140.844L274.208 142.867L279.924 139.648C283.981 141.12 288.222 141.856 292.74 141.764C297.258 141.672 301.5 140.384 305.556 138.085L305.649 137.993L296.521 133.854C294.308 135.05 292.279 135.694 290.343 135.786C288.407 135.878 286.563 135.51 284.811 134.682C283.244 134.038 282.598 133.302 282.69 132.475C282.783 131.739 283.428 131.003 284.719 130.267C286.194 129.44 287.761 128.888 289.237 128.796C290.712 128.704 292.925 128.796 295.783 129.256C301.776 130.359 306.755 130.819 310.72 130.727C314.684 130.635 318.465 129.532 322.061 127.508C325.288 125.669 326.855 123.738 326.763 121.622C326.671 119.507 324.919 117.484 321.6 115.736L327.593 112.333L323.167 110.126Z" fill="white"/>
<path d="M338.749 96.331C322.891 87.0421 296.613 87.6859 279.74 97.7106L279.371 97.8945C270.889 103.045 266.555 109.667 266.279 116.105C266.186 117.944 266.186 119.783 266.094 121.623C266.002 123.462 266.002 125.301 265.91 127.141C266.094 120.703 270.52 114.081 279.002 108.931L279.371 108.747C296.152 98.7222 322.522 98.0784 338.38 107.367C346.31 112.058 350.09 118.312 349.906 124.658C349.998 120.979 350.182 117.3 350.274 113.621C350.459 107.275 346.679 100.929 338.749 96.331Z" fill="#FDA014"/>
<path d="M338.749 96.331C322.891 87.0421 296.613 87.6859 279.74 97.7106L279.371 97.8945C270.889 103.045 266.555 109.667 266.279 116.105C266.186 117.944 266.186 119.783 266.094 121.623C266.002 123.462 266.002 125.301 265.91 127.141C266.094 120.703 270.52 114.081 279.002 108.931L279.371 108.747C296.152 98.7222 322.522 98.0784 338.38 107.367C346.31 112.058 350.09 118.312 349.906 124.658C349.998 120.979 350.182 117.3 350.274 113.621C350.459 107.275 346.679 100.929 338.749 96.331Z" fill="#EA7A00"/>
<path d="M344.374 135.694L344.005 135.878C323.167 148.569 290.344 149.489 270.52 137.809C260.747 132.015 255.952 124.289 256.229 116.38C256.137 120.059 255.952 123.738 255.86 127.416C255.583 135.326 260.286 143.143 270.151 148.845C289.883 160.433 322.799 159.606 343.636 146.914L344.005 146.73C354.239 140.384 359.587 132.291 359.864 124.381C359.956 120.703 360.14 117.024 360.233 113.345C359.956 121.254 354.608 129.348 344.374 135.694Z" fill="#EA7A00"/>
<path opacity="0.27" d="M344.374 135.694L344.005 135.878C336.998 140.2 318.373 144.155 309.521 145.718L308.784 156.755C323.628 156.295 336.444 151.237 343.636 146.914L344.005 146.73C351.012 142.408 355.714 137.165 358.02 131.831L358.849 119.875C356.637 125.577 351.842 131.095 344.374 135.694Z" fill="#FFC431"/>
<path opacity="0.69" d="M344.374 135.694L344.005 135.878C338.381 139.281 331.927 141.856 325.104 143.511L324.366 154.548C331.373 152.892 337.92 150.317 343.636 146.822L344.005 146.638C349.261 143.419 353.133 139.741 355.807 135.786L356.544 124.198C353.963 128.428 349.906 132.291 344.374 135.694Z" fill="#FFC431"/>
<path d="M345.941 91.9161C326.302 80.3279 293.663 81.1557 272.825 93.6636L272.456 93.8475C251.619 106.539 250.789 126.221 270.52 137.901C290.251 149.489 323.167 148.661 344.005 135.97L344.374 135.786C364.842 123.002 365.58 103.412 345.941 91.9161ZM337.458 131.647L337.182 131.831C320.401 142.04 293.755 142.775 277.896 133.394C261.945 124.014 262.683 108.103 279.464 97.8022L279.832 97.6183C296.613 87.5936 322.983 86.9498 338.841 96.2387C354.516 105.62 353.963 121.438 337.458 131.647Z" fill="url(#paint20_linear)"/>
<path d="M338.381 98.7222C322.706 89.5252 296.613 90.169 279.925 100.102L279.556 100.286C270.612 105.712 266.371 112.794 266.648 119.599C267.662 124.75 271.073 130.636 277.804 134.039C311.089 150.777 337.459 131.647 337.459 131.647C344.189 127.509 348.154 122.358 349.629 117.116C350.459 110.402 346.771 103.597 338.381 98.7222Z" fill="url(#paint21_linear)"/>
<path d="M332.019 98.5378L325.933 101.941C321.969 100.653 317.912 100.193 313.763 100.561C309.614 100.929 305.833 102.033 302.422 104.056L302.33 104.148L311.458 108.287C313.302 107.183 315.146 106.631 316.898 106.447C318.557 106.263 320.217 106.539 321.692 107.183C323.26 107.827 323.905 108.563 323.721 109.298C323.536 110.034 322.799 110.77 321.416 111.506C320.125 112.241 318.834 112.609 317.359 112.793C315.976 112.885 313.671 112.793 310.628 112.425C304.911 111.322 300.025 110.862 295.876 111.046C291.727 111.23 287.854 112.333 284.258 114.357C280.939 116.196 279.279 118.219 279.372 120.243C279.464 122.266 281.031 124.197 284.35 126.037L278.634 129.256L283.06 131.279L288.776 128.06C292.833 129.532 297.074 130.267 301.592 130.175C306.11 130.083 310.351 128.796 314.408 126.497L314.5 126.405L305.372 122.266C303.16 123.462 301.131 124.105 299.195 124.197C297.259 124.289 295.415 123.921 293.663 123.094C292.095 122.45 291.45 121.714 291.542 120.886C291.634 120.151 292.28 119.415 293.571 118.679C295.046 117.851 296.613 117.3 298.088 117.208C299.564 117.116 301.777 117.208 304.635 117.668C310.628 118.771 315.607 119.231 319.571 119.139C323.536 119.047 327.316 117.943 330.912 115.92C334.139 114.081 335.707 112.149 335.615 110.034C335.522 107.919 333.771 105.895 330.451 104.148L336.444 100.745L332.019 98.5378Z" fill="white"/>
<path d="M333.124 80.5122C317.266 71.2232 290.988 71.867 274.115 81.8917L273.746 82.0756C265.264 87.2259 260.93 93.8477 260.654 100.286C260.562 102.125 260.562 103.964 260.469 105.804C260.377 107.643 260.377 109.483 260.285 111.322C260.469 104.884 264.895 98.2623 273.378 93.112L273.746 92.9281C290.527 82.9034 316.897 82.2596 332.756 91.5485C340.685 96.239 344.465 102.493 344.281 108.839C344.373 105.16 344.557 101.481 344.65 97.8024C344.834 91.4565 341.054 85.2026 333.124 80.5122Z" fill="#FDA014"/>
<path d="M333.124 80.5122C317.266 71.2232 290.988 71.867 274.115 81.8917L273.746 82.0756C265.264 87.2259 260.93 93.8477 260.654 100.286C260.562 102.125 260.562 103.964 260.469 105.804C260.377 107.643 260.377 109.483 260.285 111.322C260.469 104.884 264.895 98.2623 273.378 93.112L273.746 92.9281C290.527 82.9034 316.897 82.2596 332.756 91.5485C340.685 96.239 344.465 102.493 344.281 108.839C344.373 105.16 344.557 101.481 344.65 97.8024C344.834 91.4565 341.054 85.2026 333.124 80.5122Z" fill="#EA7A00"/>
<path d="M338.749 119.875L338.38 120.059C317.543 132.751 284.719 133.67 264.895 121.99C255.122 116.196 250.328 108.471 250.604 100.561C250.512 104.24 250.328 107.919 250.235 111.597C249.959 119.507 254.661 127.324 264.527 133.026C284.258 144.615 317.174 143.787 338.011 131.095L338.38 130.911C348.615 124.565 353.962 116.472 354.239 108.562C354.331 104.884 354.516 101.205 354.608 97.5261C354.331 105.436 349.076 113.529 338.749 119.875Z" fill="#EA7A00"/>
<path opacity="0.27" d="M338.841 119.967L338.472 120.151C331.465 124.474 312.84 128.428 303.989 129.992L303.251 141.028C318.095 140.568 330.911 135.51 338.103 131.187L338.472 131.003C345.479 126.681 350.182 121.439 352.487 116.104L353.316 104.148C351.011 109.85 346.217 115.369 338.841 119.967Z" fill="#FFC431"/>
<path opacity="0.69" d="M338.841 119.967L338.472 120.151C332.848 123.554 326.394 126.129 319.571 127.784L318.833 138.821C325.841 137.165 332.387 134.59 338.103 131.095L338.472 130.911C343.728 127.692 347.6 124.014 350.274 120.059L351.012 108.471C348.338 112.609 344.281 116.564 338.841 119.967Z" fill="#FFC431"/>
<path d="M340.409 76.0973C320.77 64.5091 288.13 65.3368 267.293 77.8447L266.924 78.0286C246.086 90.7205 245.256 110.402 264.988 122.082C284.719 133.67 317.635 132.843 338.472 120.151L338.841 119.967C359.31 107.275 360.048 87.6855 340.409 76.0973ZM331.926 115.92L331.649 116.104C314.869 126.313 288.222 127.048 272.364 117.668C256.413 108.287 257.15 92.3759 273.931 82.0753L274.3 81.8914C291.081 71.8667 317.45 71.2229 333.309 80.5118C348.983 89.8008 348.338 105.62 331.926 115.92Z" fill="url(#paint22_linear)"/>
<path d="M332.756 82.9033C317.082 73.7064 290.988 74.3501 274.3 84.2829L273.931 84.4668C264.988 89.893 260.746 96.9747 261.023 103.78C262.037 108.931 265.449 114.817 272.179 118.22C305.464 134.958 331.834 115.828 331.834 115.828C338.565 111.69 342.529 106.54 344.004 101.297C344.834 94.5835 341.146 87.8697 332.756 82.9033Z" fill="url(#paint23_linear)"/>
<path d="M331.741 104.608C331.833 102.585 330.174 100.561 326.855 98.7221C323.259 96.6988 319.386 95.5951 315.237 95.4112C311.088 95.2272 306.109 95.6871 300.485 96.7907C297.442 97.1586 295.229 97.2506 293.754 97.1586C292.371 97.0666 290.988 96.6068 289.697 95.871C288.406 95.1353 287.577 94.3995 287.392 93.6638C287.208 92.928 287.853 92.1922 289.421 91.5485C290.896 90.9047 292.463 90.6288 294.215 90.8127C295.967 90.9966 297.719 91.5485 299.655 92.6521L308.783 88.5135L308.691 88.4215C305.279 86.4901 301.499 85.2945 297.35 84.9266C293.201 84.5588 289.144 85.0186 285.179 86.3062L279.094 82.9033L274.668 84.8347L280.661 88.2375C277.342 90.0769 275.59 92.0083 275.498 94.1236C275.406 96.2389 276.973 98.2622 280.2 100.01C283.796 102.033 287.577 103.137 291.541 103.229C295.506 103.413 300.485 102.861 306.478 101.757C309.336 101.297 311.457 101.205 313.024 101.297C314.499 101.389 315.975 101.941 317.542 102.769C318.833 103.505 319.571 104.24 319.571 104.976C319.663 105.712 318.925 106.448 317.45 107.183C315.698 108.011 313.854 108.287 311.918 108.287C309.982 108.195 307.861 107.551 305.74 106.356L296.612 110.494L296.705 110.586C300.761 112.977 305.003 114.173 309.521 114.265C314.038 114.357 318.372 113.713 322.337 112.15L328.053 115.369L332.479 113.345L326.762 110.126C330.082 108.563 331.741 106.631 331.741 104.608Z" fill="white"/>
<path opacity="0.37" d="M147.246 192.991C148.814 194.278 168.821 178.919 169.467 178.643L185.694 111.781L117.742 160.066C117.742 160.066 145.587 191.703 147.246 192.991Z" fill="#00638E"/>
<path d="M222.483 29.8364L156.743 62.5776C149.828 65.9805 144.296 74.3497 144.296 81.1555L144.849 187.656C144.849 190.416 145.771 192.531 147.246 193.818L152.778 197.129L222.944 161.169C229.859 157.766 235.391 149.397 235.391 142.591L236.59 32.2276L232.072 29.6525C229.767 27.905 226.355 27.905 222.483 29.8364Z" fill="#001D56"/>
<path d="M227 32.4119L161.353 65.245C154.438 68.6479 148.906 77.0172 148.906 83.8229L149.367 190.324C149.367 197.222 154.899 199.981 161.814 196.486L227.554 163.745C237.419 159.79 240.001 152.156 240.001 145.167L239.448 38.6658C239.448 31.7681 233.916 29.009 227 32.4119Z" fill="#083D7C"/>
<path d="M224.972 43.9998L162.552 75.0856C158.679 77.0169 155.452 81.7994 155.452 85.6621V94.7671C155.452 98.6298 158.587 100.193 162.552 98.262L224.972 67.1762C228.845 65.2448 232.072 60.4624 232.072 56.5997V47.4947C232.072 43.6319 228.845 42.0685 224.972 43.9998Z" fill="#70E2E5"/>
<path d="M203.213 60.5539C201.461 61.3816 200.539 62.9451 200.539 64.6925V65.0604C200.539 66.164 200.908 66.7158 201.645 66.7158C200.908 67.5436 200.539 68.4633 200.539 69.5669V70.3946C200.539 72.1421 201.461 72.6939 203.213 71.7742C204.965 70.9464 205.887 69.383 205.887 67.6355V66.8078C205.887 65.7961 205.61 65.0604 204.78 65.0604C205.518 64.3246 205.887 63.4049 205.887 62.3013V61.9334C205.887 60.278 204.965 59.7261 203.213 60.5539ZM204.135 68.5552C204.135 69.5669 203.674 70.0267 203.121 70.3027C202.567 70.5786 202.106 70.4866 202.106 69.5669V68.5552C202.106 67.7275 202.475 67.1757 203.121 66.8078C203.766 66.5319 204.135 66.7158 204.135 67.5436V68.5552ZM204.135 63.4969C204.135 64.4166 203.674 64.8764 203.121 65.1524C202.567 65.4283 202.106 65.3363 202.106 64.5086V63.8648C202.106 62.8531 202.567 62.3933 203.121 62.1174C203.674 61.8414 204.135 61.9334 204.135 62.8531V63.4969Z" fill="white"/>
<path d="M209.39 57.5188C207.73 58.3465 206.716 59.818 206.716 61.5654V67.2676C206.716 69.015 207.638 69.5668 209.39 68.7391C211.05 67.9114 211.972 66.4398 211.972 64.6924V58.8983C212.064 57.1509 211.142 56.5991 209.39 57.5188ZM210.312 65.6121C210.312 66.4398 209.943 66.8997 209.39 67.1756C208.837 67.4515 208.468 67.3595 208.468 66.5318V60.6458C208.468 59.818 208.837 59.3582 209.39 59.0823C209.943 58.8064 210.312 58.8983 210.312 59.7261V65.6121Z" fill="white"/>
<path d="M216.029 54.484C214.369 55.3118 213.355 56.7833 213.355 58.5307V64.2328C213.355 65.9802 214.277 66.5321 216.029 65.7043C217.688 64.8766 218.61 63.4051 218.61 61.6577V55.9556C218.61 54.2081 217.688 53.6563 216.029 54.484ZM216.859 62.5774C216.859 63.4051 216.49 63.8649 215.937 64.1408C215.383 64.4168 215.015 64.3248 215.015 63.4971V57.611C215.015 56.7833 215.383 56.3234 215.937 56.0475C216.49 55.7716 216.859 55.8636 216.859 56.6913V62.5774Z" fill="white"/>
<path d="M222.298 51.3571C220.639 52.1848 219.625 53.6563 219.625 55.4038V61.1059C219.625 62.8533 220.547 63.4051 222.298 62.5774C223.958 61.7497 224.88 60.2782 224.88 58.5307V52.8286C224.88 51.0812 223.958 50.5294 222.298 51.3571ZM223.22 59.4504C223.22 60.2782 222.852 60.738 222.298 61.0139C221.745 61.2898 221.376 61.1979 221.376 60.3701V54.4841C221.376 53.6563 221.745 53.1965 222.298 52.9206C222.852 52.6447 223.22 52.7366 223.22 53.5644V59.4504Z" fill="white"/>
<path opacity="0.45" d="M155.544 85.6622V94.7672C155.544 95.7789 155.821 96.6066 156.19 97.3424C169.559 86.8578 206.901 57.7034 224.235 44.3678L162.644 75.0857C158.679 77.109 155.544 81.7995 155.544 85.6622Z" fill="white"/>
<g opacity="0.57">
<g opacity="0.57">
<path opacity="0.57" d="M176.751 102.676L176.843 108.654L178.226 109.298L194.269 95.2268L192.886 94.583L176.751 102.676Z" fill="#33B3C4"/>
<path opacity="0.57" d="M176.751 112.058V125.301L178.134 125.945L194.177 104.608L192.886 103.964L176.751 112.058Z" fill="#33B3C4"/>
<path opacity="0.57" d="M176.751 128.244V141.58L178.134 142.224L194.361 120.703L192.978 120.059L176.751 128.244Z" fill="#33B3C4"/>
<path opacity="0.57" d="M176.751 144.799L176.935 157.95L178.318 158.502L194.361 137.349L192.978 136.705L176.751 144.799Z" fill="#33B3C4"/>
<path opacity="0.57" d="M176.751 161.629V175.056L178.134 175.608L194.361 154.179L192.978 153.535L176.751 161.629Z" fill="#33B3C4"/>
</g>
<g opacity="0.57">
<path opacity="0.57" d="M156.835 112.609V118.587L158.218 119.231L174.261 105.16L172.97 104.516L156.835 112.609Z" fill="#33B3C4"/>
<path opacity="0.57" d="M156.743 121.99L156.835 135.234L158.218 135.878L172.51 120.795L174.261 114.541L172.878 113.897L156.743 121.99Z" fill="#33B3C4"/>
<path opacity="0.57" d="M156.743 138.085V151.421L158.126 152.064L174.354 130.635L172.971 129.992L156.743 138.085Z" fill="#33B3C4"/>
<path opacity="0.57" d="M156.835 154.731L156.927 167.791L158.31 168.435L174.353 147.282L172.97 146.638L156.835 154.731Z" fill="#33B3C4"/>
<path opacity="0.57" d="M156.835 171.562L156.743 184.897L158.126 185.541L174.354 164.112L172.971 163.468L156.835 171.562Z" fill="#33B3C4"/>
</g>
<g opacity="0.57">
<path opacity="0.57" d="M196.943 92.5597L197.035 98.6297L198.326 99.2735L214.461 85.2021L213.078 84.5583L196.943 92.5597Z" fill="#33B3C4"/>
<path opacity="0.57" d="M196.851 101.941L196.943 115.276L198.326 115.92L214.369 94.5832L212.986 93.9395L196.851 101.941Z" fill="#33B3C4"/>
<path opacity="0.57" d="M196.851 118.128V131.463L198.234 132.107L214.461 110.678L213.078 110.034L196.851 118.128Z" fill="#33B3C4"/>
<path opacity="0.57" d="M196.943 134.774L197.035 147.833L198.418 148.477L214.461 127.324L213.078 126.68L196.943 134.774Z" fill="#33B3C4"/>
<path opacity="0.57" d="M196.943 151.604L196.851 164.939L198.234 165.583L214.461 144.154L213.078 143.51L196.943 151.604Z" fill="#33B3C4"/>
</g>
<g opacity="0.57">
<path opacity="0.57" d="M216.95 82.6269V88.6049L218.333 89.2487L234.376 75.1773L233.086 74.6255L216.95 82.6269Z" fill="#FF5542"/>
<path opacity="0.57" d="M216.858 92.0074L216.951 105.343L218.334 105.987L234.377 84.5578L232.994 83.9141L216.858 92.0074Z" fill="#33B3C4"/>
<path opacity="0.57" d="M216.858 108.195V121.53L218.241 122.174L234.469 100.653L233.086 100.101L216.858 108.195Z" fill="#33B3C4"/>
<path opacity="0.57" d="M216.95 124.841L217.043 154.915L218.426 155.559L234.469 117.391L233.086 116.748L216.95 124.841Z" fill="#33B3C4"/>
</g>
</g>
<path d="M178.133 103.321L178.225 109.299L194.361 101.205L194.269 95.2273L178.133 103.321Z" fill="#33B3C4"/>
<path d="M178.133 112.702V125.946L194.361 117.852V107.552L194.176 104.609L178.133 112.702Z" fill="#33B3C4"/>
<path d="M178.133 142.224L194.361 134.039V120.703L178.133 128.889V142.224Z" fill="#33B3C4"/>
<path d="M178.318 158.503L194.361 150.501V137.35L178.133 145.443L178.318 158.503Z" fill="#33B3C4"/>
<path d="M178.133 175.609L194.361 167.515V154.18L178.133 162.273V175.609Z" fill="#33B3C4"/>
<path d="M158.217 113.253V119.231L174.353 111.137L174.261 105.159L158.217 113.253Z" fill="#33B3C4"/>
<path d="M158.125 122.634L158.218 135.877L174.353 127.784V117.484L174.261 114.541L158.125 122.634Z" fill="#33B3C4"/>
<path d="M158.125 152.064L174.353 143.971V130.635L158.125 138.729V152.064Z" fill="#33B3C4"/>
<path d="M158.31 168.435L174.353 160.433V147.281L158.217 155.375L158.31 168.435Z" fill="#33B3C4"/>
<path d="M158.125 185.541L174.353 177.447V164.112L158.218 172.205L158.125 185.541Z" fill="#33B3C4"/>
<path d="M198.325 93.2038V99.2737L214.461 91.1804V85.2024L198.325 93.2038Z" fill="#33B3C4"/>
<path d="M198.233 102.585L198.326 115.92L214.461 107.827V97.5265L214.369 94.5835L198.233 102.585Z" fill="#33B3C4"/>
<path d="M198.233 132.107L214.461 124.014V110.678L198.233 118.772V132.107Z" fill="#33B3C4"/>
<path d="M198.418 148.478L214.461 140.476V127.324L198.325 135.418L198.418 148.478Z" fill="#33B3C4"/>
<path d="M198.233 165.584L214.461 157.49V144.155L198.326 152.248L198.233 165.584Z" fill="#33B3C4"/>
<path d="M218.333 83.2711V89.2491L234.468 81.2477L234.376 75.1777L218.333 83.2711Z" fill="#FF5542"/>
<path d="M218.241 92.6524L218.333 105.988L234.469 97.8947V87.5941L234.376 84.5591L218.241 92.6524Z" fill="#33B3C4"/>
<path d="M218.241 122.175L234.469 113.989V100.654L218.241 108.839V122.175Z" fill="#33B3C4"/>
<path d="M218.425 155.559L234.468 147.466V117.392L218.333 125.485L218.425 155.559Z" fill="#33B3C4"/>
<defs>
<linearGradient id="paint0_linear" x1="59.4124" y1="132.222" x2="59.4124" y2="68.5124" gradientUnits="userSpaceOnUse">
<stop stop-color="#FFFF00"/>
<stop offset="1" stop-color="#FBB03B"/>
</linearGradient>
<linearGradient id="paint1_linear" x1="59.3239" y1="126.952" x2="59.3239" y2="77.1518" gradientUnits="userSpaceOnUse">
<stop stop-color="#FD9114"/>
<stop offset="0.9974" stop-color="#FBBF3B"/>
</linearGradient>
<linearGradient id="paint2_linear" x1="62.5434" y1="109.567" x2="62.5434" y2="45.857" gradientUnits="userSpaceOnUse">
<stop stop-color="#FFFF00"/>
<stop offset="1" stop-color="#FBB03B"/>
</linearGradient>
<linearGradient id="paint3_linear" x1="62.4554" y1="104.296" x2="62.4554" y2="54.4966" gradientUnits="userSpaceOnUse">
<stop stop-color="#FD9114"/>
<stop offset="0.9974" stop-color="#FBBF3B"/>
</linearGradient>
<linearGradient id="paint4_linear" x1="53.518" y1="96.332" x2="53.518" y2="32.6222" gradientUnits="userSpaceOnUse">
<stop stop-color="#FFFF00"/>
<stop offset="1" stop-color="#FBB03B"/>
</linearGradient>
<linearGradient id="paint5_linear" x1="53.4299" y1="91.0615" x2="53.4299" y2="41.2617" gradientUnits="userSpaceOnUse">
<stop stop-color="#FD9114"/>
<stop offset="0.9974" stop-color="#FBBF3B"/>
</linearGradient>
<linearGradient id="paint6_linear" x1="89.341" y1="81.6064" x2="29.4838" y2="21.5982" gradientUnits="userSpaceOnUse">
<stop stop-color="#FFFF00"/>
<stop offset="1" stop-color="#FBB03B"/>
</linearGradient>
<linearGradient id="paint7_linear" x1="59.2491" y1="78.2622" x2="59.2491" y2="28.4624" gradientUnits="userSpaceOnUse">
<stop stop-color="#FBBA37"/>
<stop offset="1" stop-color="#FD9114"/>
</linearGradient>
<linearGradient id="paint8_linear" x1="380.222" y1="108.61" x2="380.222" y2="44.8999" gradientUnits="userSpaceOnUse">
<stop stop-color="#FFFF00"/>
<stop offset="1" stop-color="#FBB03B"/>
</linearGradient>
<linearGradient id="paint9_linear" x1="380.135" y1="103.339" x2="380.135" y2="53.5396" gradientUnits="userSpaceOnUse">
<stop stop-color="#FD9114"/>
<stop offset="0.9974" stop-color="#FBBF3B"/>
</linearGradient>
<linearGradient id="paint10_linear" x1="401.835" y1="86.0274" x2="365.019" y2="22.0998" gradientUnits="userSpaceOnUse">
<stop stop-color="#FFFF00"/>
<stop offset="1" stop-color="#FBB03B"/>
</linearGradient>
<linearGradient id="paint11_linear" x1="383.267" y1="80.6841" x2="383.267" y2="30.8843" gradientUnits="userSpaceOnUse">
<stop stop-color="#FD9114"/>
<stop offset="0.9974" stop-color="#FBBF3B"/>
</linearGradient>
<linearGradient id="paint12_linear" x1="324.439" y1="44.6133" x2="430.619" y2="44.6133" gradientUnits="userSpaceOnUse">
<stop stop-color="#FFFF00"/>
<stop offset="1" stop-color="#FBB03B"/>
</linearGradient>
<linearGradient id="paint13_linear" x1="377.441" y1="71.1978" x2="377.441" y2="21.398" gradientUnits="userSpaceOnUse">
<stop stop-color="#FD9114"/>
<stop offset="0.9974" stop-color="#FBBF3B"/>
</linearGradient>
<linearGradient id="paint14_linear" x1="383.347" y1="63.6688" x2="383.347" y2="-0.0410043" gradientUnits="userSpaceOnUse">
<stop stop-color="#FFFF00"/>
<stop offset="1" stop-color="#FBB03B"/>
</linearGradient>
<linearGradient id="paint15_linear" x1="383.26" y1="58.3984" x2="383.26" y2="8.59862" gradientUnits="userSpaceOnUse">
<stop stop-color="#FD9114"/>
<stop offset="0.9974" stop-color="#FBBF3B"/>
</linearGradient>
<linearGradient id="paint16_linear" x1="247.701" y1="143.086" x2="351.598" y2="143.086" gradientUnits="userSpaceOnUse">
<stop stop-color="#FFFF00"/>
<stop offset="1" stop-color="#FBB03B"/>
</linearGradient>
<linearGradient id="paint17_linear" x1="299.564" y1="169.099" x2="299.564" y2="120.37" gradientUnits="userSpaceOnUse">
<stop stop-color="#FD9114"/>
<stop offset="0.9974" stop-color="#FBBF3B"/>
</linearGradient>
<linearGradient id="paint18_linear" x1="247.513" y1="126.427" x2="351.41" y2="126.427" gradientUnits="userSpaceOnUse">
<stop stop-color="#FFFF00"/>
<stop offset="1" stop-color="#FBB03B"/>
</linearGradient>
<linearGradient id="paint19_linear" x1="299.375" y1="152.44" x2="299.375" y2="103.711" gradientUnits="userSpaceOnUse">
<stop stop-color="#FD9114"/>
<stop offset="0.9974" stop-color="#FBBF3B"/>
</linearGradient>
<linearGradient id="paint20_linear" x1="308.293" y1="146.066" x2="308.293" y2="83.7265" gradientUnits="userSpaceOnUse">
<stop stop-color="#FFFF00"/>
<stop offset="1" stop-color="#FBB03B"/>
</linearGradient>
<linearGradient id="paint21_linear" x1="308.207" y1="140.91" x2="308.207" y2="92.1807" gradientUnits="userSpaceOnUse">
<stop stop-color="#FD9114"/>
<stop offset="0.9974" stop-color="#FBBF3B"/>
</linearGradient>
<linearGradient id="paint22_linear" x1="302.707" y1="130.281" x2="302.707" y2="67.9412" gradientUnits="userSpaceOnUse">
<stop stop-color="#FFFF00"/>
<stop offset="1" stop-color="#FBB03B"/>
</linearGradient>
<linearGradient id="paint23_linear" x1="302.621" y1="125.124" x2="302.621" y2="76.3954" gradientUnits="userSpaceOnUse">
<stop stop-color="#FD9114"/>
<stop offset="0.9974" stop-color="#FBBF3B"/>
</linearGradient>
</defs>
</svg>
