<svg width="135" height="128" viewBox="0 0 135 128" fill="none" xmlns="http://www.w3.org/2000/svg">
<g opacity="0.27">
<g opacity="0.27">
<path opacity="0.27" d="M121.382 100.034L54.3169 65.8541C52.309 64.9151 46.0342 67.9199 44.0513 68.8589L1.78406 88.7189C-0.198782 89.6579 -0.198789 91.1838 1.80916 92.0993L75.2749 126.396C77.2828 127.335 80.5206 127.335 82.5035 126.396L124.771 106.536C132.627 101.982 123.39 100.973 121.382 100.034Z" fill="#00638E"/>
</g>
<g opacity="0.27">
<path opacity="0.27" d="M121.382 100.034L54.3169 65.8541C52.309 64.9151 46.0342 67.9199 44.0513 68.8589L1.78406 88.7189C-0.198782 89.6579 -0.198789 91.1838 1.80916 92.0993L75.2749 126.396C77.2828 127.335 80.5206 127.335 82.5035 126.396L124.771 106.536C132.627 101.982 123.39 100.973 121.382 100.034Z" fill="#00638E"/>
</g>
</g>
<path d="M126.678 102.217L84.4105 122.077C82.4277 123.016 79.1648 123.016 77.1819 122.077L3.64092 87.7798C2.63694 87.3103 2.13496 86.7 2.13496 86.0662C2.13496 87.193 2.13496 88.3198 2.10986 89.4466C2.10986 90.0569 2.61185 90.6908 3.61582 91.1603L77.1317 125.457C79.1146 126.396 82.3775 126.396 84.3603 125.457L126.628 105.597C127.606 105.128 128.108 104.518 128.108 103.907C128.108 102.78 128.108 101.654 128.108 100.527C128.134 101.161 127.657 101.771 126.678 102.217Z" fill="#168CA8"/>
<path d="M126.628 98.8602L53.1371 64.563C51.1292 63.624 47.8914 63.624 45.9085 64.563L3.64123 84.423C1.65839 85.362 1.6584 86.8879 3.66634 87.8034L77.1572 122.101C79.1651 123.04 82.5033 123.04 84.4862 122.101L126.653 102.241C128.636 101.325 128.636 99.7992 126.628 98.8602Z" fill="#3DBFC9"/>
<path opacity="0.57" d="M35.9949 85.8549L35.9698 86.3948L45.9844 91.0429L70.6822 102.522L71.1842 102.311V102.757L80.1195 106.912L80.5964 106.701L80.5713 107.123L92.1923 112.71L96.7855 110.527V109.353L97.7895 110.058L107.704 105.363V103.884L109.285 104.612L113.677 102.522L113.702 101.395L114.631 102.076L119.249 99.8226V98.3202L113.577 95.691L112.498 96.2074V95.198L106.825 92.5453L105.746 93.0618V92.0523L100.099 89.4231L98.9942 89.9865V88.9067L93.3469 86.2775L92.2676 86.8878V85.7845L86.5952 83.1318L85.4155 83.836L85.5159 82.6388L79.8434 80.0096L78.714 80.7373L78.7642 79.4931L73.0917 76.8639L72.0125 77.5212V76.3709L66.34 73.7183L65.2356 74.2347L65.2607 73.2253L59.5632 70.5961L58.6094 71.6055L58.509 70.1266L50.2764 66.2532L45.6581 68.4364V69.3988L44.6291 68.9293L40.0359 71.089V72.0515L39.0068 71.582L34.4137 73.7652V74.7277L33.3846 74.2347L28.7914 76.4179V77.4039L27.7372 76.9109L23.144 79.0941L23.1942 80.4556L35.3925 86.1366L35.9949 85.8549Z" fill="#168CA8"/>
<path d="M91.1639 90.5501L86.5708 92.7098L80.8984 90.0806L85.4916 87.8975L91.1639 90.5501Z" fill="#70E2E5"/>
<path d="M96.7355 108.978L92.1424 111.161L80.446 105.715L85.0392 103.555L96.7355 108.978Z" fill="#70E2E5"/>
<path d="M112.498 95.1978L107.905 97.3575L102.232 94.7283L106.825 92.5452L112.498 95.1978Z" fill="#70E2E5"/>
<path d="M100.476 100.151L95.8829 102.311L90.2104 99.6818L94.8036 97.4987L100.476 100.151Z" fill="#70E2E5"/>
<path d="M94.0745 97.1699L89.5064 99.353L83.8088 96.7238L88.4271 94.5406L94.0745 97.1699Z" fill="#70E2E5"/>
<path d="M104.064 96.5362L99.471 98.7194L93.7986 96.0902L98.3917 93.907L104.064 96.5362Z" fill="#70E2E5"/>
<path d="M119.25 98.3202L114.657 100.48L108.984 97.8507L113.577 95.6675L119.25 98.3202Z" fill="#70E2E5"/>
<path d="M87.6998 94.2121L83.1066 96.3953L77.4341 93.7426L82.0273 91.5829L87.6998 94.2121Z" fill="#70E2E5"/>
<path d="M85.6914 98.555L81.0982 100.738L75.4258 98.0855L80.019 95.9258L85.6914 98.555Z" fill="#70E2E5"/>
<path d="M92.0679 101.513L87.4747 103.696L81.8022 101.067L86.3954 98.8837L92.0679 101.513Z" fill="#70E2E5"/>
<path d="M79.3931 95.6205L74.7999 97.8037L69.1274 95.151L73.7206 92.9912L79.3931 95.6205Z" fill="#70E2E5"/>
<path d="M113.627 100.973L109.034 103.156L100.25 99.0713L104.843 96.9116L113.627 100.973Z" fill="#70E2E5"/>
<path d="M107.703 103.79L102.382 106.302L99.32 107.757L97.7889 108.485L88.2261 104.025L92.8193 101.865L95.7559 103.227L101.077 100.715L107.703 103.79Z" fill="#70E2E5"/>
<path d="M84.4618 103.297L79.8686 105.457L71.0085 101.349L75.6017 99.1654L84.4618 103.297Z" fill="#70E2E5"/>
<path d="M58.509 70.1265L53.9159 72.3097L45.6582 68.4363L50.2765 66.2532L58.509 70.1265Z" fill="#70E2E5"/>
<path d="M65.3364 78.5307L60.7432 80.7139L55.0708 78.0847L59.664 75.9015L65.3364 78.5307Z" fill="#70E2E5"/>
<path d="M92.2677 85.7845L87.6745 87.9442L82.002 85.3149L86.5952 83.1317L92.2677 85.7845Z" fill="#70E2E5"/>
<path d="M84.7127 87.5453L80.1195 89.705L74.447 87.0758L79.0402 84.9161L84.7127 87.5453Z" fill="#70E2E5"/>
<path d="M75.0249 98.9072L70.4317 101.067L45.5332 89.4936L50.1264 87.3339L75.0249 98.9072Z" fill="#70E2E5"/>
<path d="M65.2598 73.2253L60.6415 75.4084L54.9941 72.7558L59.5623 70.5961L65.2598 73.2253Z" fill="#70E2E5"/>
<path d="M47.3394 80.7371L42.7462 82.8969L28.791 76.4177L33.3842 74.2345L47.3394 80.7371Z" fill="#70E2E5"/>
<path d="M85.5168 82.639L80.8986 84.7987L75.2261 82.1695L79.8444 80.0098L85.5168 82.639Z" fill="#70E2E5"/>
<path d="M62.1988 82.3572L57.6056 84.517L51.9331 81.8877L56.5263 79.728L62.1988 82.3572Z" fill="#70E2E5"/>
<path d="M39.7347 82.498L35.1415 84.6812L23.144 79.0941L27.7372 76.9109L39.7347 82.498Z" fill="#70E2E5"/>
<path d="M78.3633 84.4933L73.7701 86.6765L68.0977 84.0473L72.6908 81.8641L78.3633 84.4933Z" fill="#70E2E5"/>
<path d="M53.7908 83.7187L49.1976 85.9019L43.5251 83.2727L48.1183 81.0895L53.7908 83.7187Z" fill="#70E2E5"/>
<path d="M68.5735 85.3151L63.9803 87.4983L58.3079 84.8456L62.901 82.6858L68.5735 85.3151Z" fill="#70E2E5"/>
<path d="M60.1161 86.6533L55.523 88.8364L49.8506 86.2072L54.4437 84.024L60.1161 86.6533Z" fill="#70E2E5"/>
<path d="M98.9946 88.9067L94.4015 91.09L88.729 88.4607L93.3473 86.2775L98.9946 88.9067Z" fill="#70E2E5"/>
<path d="M49.3234 86.9584L44.7302 89.1182L35.8701 85.01L40.4633 82.8268L49.3234 86.9584Z" fill="#70E2E5"/>
<path d="M74.9497 88.2729L70.3565 90.4561L64.6841 87.8269L69.2773 85.6437L74.9497 88.2729Z" fill="#70E2E5"/>
<path d="M66.4907 89.6344L61.8975 91.7942L56.2251 89.1649L60.8183 86.9817L66.4907 89.6344Z" fill="#70E2E5"/>
<path d="M105.747 92.0524L101.154 94.2122L95.4814 91.5829L100.1 89.4232L105.747 92.0524Z" fill="#70E2E5"/>
<path d="M81.3245 91.2543L76.7313 93.4141L71.0588 90.7848L75.652 88.6251L81.3245 91.2543Z" fill="#70E2E5"/>
<path d="M97.6133 93.5312L93.0201 95.7144L87.3477 93.0852L91.9408 90.902L97.6133 93.5312Z" fill="#70E2E5"/>
<path d="M72.791 92.5687L68.1978 94.7284L62.5254 92.0992L67.1185 89.916L72.791 92.5687Z" fill="#70E2E5"/>
<path d="M72.0122 76.3711L67.419 78.5308L61.7466 75.9016L66.3398 73.7184L72.0122 76.3711Z" fill="#70E2E5"/>
<path d="M58.6088 75.4082L54.0157 77.5914L40.0354 71.0888L44.6286 68.9291L58.6088 75.4082Z" fill="#70E2E5"/>
<path d="M49.3982 76.4179L44.805 78.5776L34.4138 73.7652L39.007 71.582L49.3982 76.4179Z" fill="#70E2E5"/>
<path d="M78.7646 79.4932L74.1463 81.6764L68.499 79.0472L73.0922 76.864L78.7646 79.4932Z" fill="#70E2E5"/>
<path d="M55.8239 79.3994L51.2056 81.5591L45.5332 78.9299L50.1515 76.7467L55.8239 79.3994Z" fill="#70E2E5"/>
<path d="M71.7871 81.5356L67.1939 83.7189L61.5215 81.0896L66.1147 78.9064L71.7871 81.5356Z" fill="#70E2E5"/>
<path opacity="0.57" d="M63.2266 100.621L51.5805 106.114L33.6094 97.7099L45.2555 92.2402L63.2266 100.621Z" fill="#168CA8"/>
<g opacity="0.64">
<path opacity="0.51" d="M87.071 122.617C87.071 123.063 87.4726 123.251 87.9495 123.016C88.4264 122.781 88.828 122.241 88.828 121.795C88.828 121.349 88.4264 121.161 87.9495 121.396C87.4475 121.607 87.071 122.147 87.071 122.617Z" fill="#00234C"/>
<path opacity="0.51" d="M98.6167 117.922L103.009 115.856V114.283L98.6167 116.326V117.922Z" fill="#00234C"/>
<path opacity="0.51" d="M119.097 108.321L124.694 105.715V104.377L119.097 106.983V108.321Z" fill="#00234C"/>
<path opacity="0.51" d="M92.0911 120.95L96.4834 118.908V117.312L92.0911 119.378V120.95Z" fill="#00234C"/>
</g>
<path d="M130.818 35.4774L57.3026 1.18025C56.2986 0.710751 55.395 0.663802 54.7173 0.968979C53.5126 1.53238 52.3078 2.09579 51.103 2.68267C51.7556 2.37749 130.266 99.189 129.614 99.4941C130.216 99.2124 130.818 98.9307 131.421 98.649C132.023 98.3673 132.626 98.0856 133.228 97.8039C133.881 97.4988 134.282 96.8415 134.282 95.9259L134.433 40.5715C134.433 38.6935 132.801 36.4164 130.818 35.4774Z" fill="#168CA8"/>
<path opacity="0.41" d="M117.441 37.4963L125.674 33.6464L132.802 36.9798C133.781 38.0362 134.434 39.3743 134.434 40.5481V40.7359L129.414 43.0834L117.441 37.4963Z" fill="#47C7D1"/>
<path d="M51.103 2.68267C52.3078 2.11927 53.5126 1.55586 54.7173 0.968979C55.3699 0.663802 56.2986 0.710751 57.3026 1.18025L130.793 35.4775C131.672 35.8766 132.45 36.5574 133.077 37.3086C130.542 38.6232 127.882 40.0552 127.882 40.0552L52.9102 4.65458C51.8058 3.36344 51.1532 2.63572 51.103 2.68267Z" fill="#47C7D1"/>
<path d="M127.18 37.1677L53.6894 2.8706C51.6815 1.9316 50.05 2.68279 50.05 4.53733L49.8994 59.9151C49.8994 61.7697 51.5309 64.0467 53.5137 64.9857L127.004 99.2829C129.012 100.222 130.644 99.4472 130.644 97.5927L130.769 42.2384C130.82 40.3838 129.188 38.1067 127.18 37.1677Z" fill="#33B3C4"/>
<path d="M125.725 39.5152L55.1456 6.57963C53.9408 6.01622 52.9619 6.48572 52.9619 7.58906L52.8364 59.61C52.8364 60.7133 53.8153 62.0748 54.995 62.6382L125.574 95.5739C126.779 96.1373 127.758 95.6912 127.758 94.5644L127.883 42.5435C127.883 41.4402 126.905 40.0552 125.725 39.5152Z" fill="#9FEDEB"/>
<path opacity="0.54" d="M115.259 34.6324L55.1456 6.57963C53.9408 6.01622 52.9619 6.48572 52.9619 7.58906L52.8364 42.121L115.259 34.6324Z" fill="#DEFFFC"/>
<path d="M94.3247 23.7634L82.8041 18.3641C82.5782 18.2468 82.3774 17.9885 82.3774 17.7538C82.3774 17.5425 82.5782 17.4486 82.8041 17.5425L94.3247 22.9418C94.5506 23.0592 94.7514 23.3174 94.7514 23.5522C94.7765 23.7869 94.5757 23.8808 94.3247 23.7634Z" fill="#168CA8"/>
<path d="M97.3566 25.1425C97.6079 24.959 97.5419 24.4871 97.2092 24.0886C96.8765 23.69 96.4031 23.5157 96.1518 23.6992C95.9005 23.8827 95.9665 24.3546 96.2992 24.7531C96.6319 25.1516 97.1053 25.326 97.3566 25.1425Z" fill="#168CA8"/>
<path d="M87.6995 59.2109L103.562 66.7229V65.1031L87.6995 57.5676V59.2109Z" fill="white"/>
<path d="M87.8513 56.1121L103.714 63.6477V62.0044L87.8513 54.4923V56.1121Z" fill="white"/>
<path d="M87.7502 62.1218L103.613 69.6573V68.0141L87.7502 60.502V62.1218Z" fill="white"/>
<path d="M87.6995 65.502L103.562 73.0141V71.3943L87.6995 63.8823V65.502Z" fill="white"/>
<path d="M87.6995 68.6244L103.562 76.1364V74.5166L87.6995 67.0046V68.6244Z" fill="white"/>
<path d="M87.6995 71.7468L103.562 79.2588V77.639L87.6995 70.1035V71.7468Z" fill="white"/>
<path d="M105.117 67.4506L120.98 74.9861V73.3428L105.117 65.8308V67.4506Z" fill="white"/>
<path d="M105.294 64.2581L121.156 71.7701V70.1504L105.294 62.6149V64.2581Z" fill="white"/>
<path d="M105.117 70.5963L120.98 78.1318V76.4886L105.117 68.9766V70.5963Z" fill="white"/>
<path d="M105.117 73.6245L120.98 81.16V79.5402L105.117 72.0047V73.6245Z" fill="white"/>
<path d="M105.117 76.7469L120.98 84.2823V82.6626L105.117 75.1271V76.7469Z" fill="white"/>
<path d="M105.117 79.8689L120.98 87.4044V85.7612L105.117 78.2491V79.8689Z" fill="white"/>
<path d="M87.9502 40.7126L103.788 48.2482V46.6284L87.9502 39.0928V40.7126Z" fill="white"/>
<path d="M88.1021 37.6372L103.965 45.1727V43.5295L88.1021 36.0175V37.6372Z" fill="white"/>
<path d="M88.001 43.647L103.839 51.1825V49.5392L88.001 42.0272V43.647Z" fill="white"/>
<path d="M87.9502 47.0274L103.788 54.5395V52.9197L87.9502 45.4077V47.0274Z" fill="white"/>
<path d="M87.9502 50.1495L103.788 57.6616V56.0418L87.9502 48.5297V50.1495Z" fill="white"/>
<path d="M87.9502 53.2719L103.788 60.7839V59.1641L87.9502 51.6286V53.2719Z" fill="white"/>
<path d="M105.37 48.9756L121.232 56.5111V54.8679L105.37 47.3558V48.9756Z" fill="white"/>
<path d="M105.521 45.783L121.384 53.295V51.6753L105.521 44.1398V45.783Z" fill="white"/>
<path d="M105.37 52.1212L121.232 59.6567V58.0134L105.37 50.5014V52.1212Z" fill="white"/>
<path d="M105.37 55.1495L121.232 62.685V61.0652L105.37 53.5297V55.1495Z" fill="white"/>
<path d="M105.37 58.2716L121.232 65.8071V64.1639L105.37 56.6519V58.2716Z" fill="white"/>
<path d="M105.37 61.3938L121.232 68.9293V67.2861L105.37 59.774V61.3938Z" fill="white"/>
<path d="M54.4421 8.99756V60.4081L54.7182 60.549L125.448 94.1184V51.2998L125.172 42.5435L54.4421 8.99756ZM55.5465 10.7113L124.319 43.3417V92.3578L55.5465 59.7273V10.7113Z" fill="white"/>
<path d="M59.7639 56.9336L84.4115 68.5538V70.9482L59.7639 59.3281V56.9336Z" fill="white"/>
<path d="M59.7639 53.6705L84.4115 65.2672V67.6617L59.7639 56.0649V53.6705Z" fill="white"/>
<path d="M59.7639 50.431L84.4115 62.0277V64.4222L59.7639 52.8254V50.431Z" fill="white"/>
<path d="M59.7639 47.1445L84.4115 58.7647V61.1592L59.7639 49.539V47.1445Z" fill="white"/>
<path d="M59.7639 43.9988L84.4366 55.5955V57.9899L59.7639 46.3933V43.9988Z" fill="white"/>
<path d="M59.7639 40.7122L84.4366 52.3324V54.7269L59.7639 43.1302V40.7122Z" fill="white"/>
<path d="M59.7639 37.4728L84.4115 49.093V51.4874L59.7639 39.8672V37.4728Z" fill="white"/>
<path d="M59.7639 34.2097L84.4115 45.8064V48.2009L59.7639 36.6041V34.2097Z" fill="white"/>
<path d="M59.7891 30.8292L84.4367 42.426V44.8204L59.7891 33.2237V30.8292Z" fill="white"/>
<path d="M59.7891 27.5427L84.4367 39.1629V41.5574L59.7891 29.9607V27.5427Z" fill="white"/>
<path d="M59.7639 24.3032L84.4115 35.9234V38.3179L59.7639 26.6977V24.3032Z" fill="white"/>
<path d="M59.7639 21.0402L84.4115 32.637V35.0314L59.7639 23.4347V21.0402Z" fill="white"/>
<path d="M59.7886 17.8945L84.4361 29.5147V31.9092L59.7886 20.289V17.8945Z" fill="white"/>
<path d="M93.5225 33.576L118.195 45.1962V47.5907L93.5225 35.994V33.576Z" fill="white"/>
<path opacity="0.21" d="M33.6099 101.795C33.7354 101.865 34.8146 103.227 34.8146 103.227L45.532 108.25L47.3643 108.18L33.6099 101.795Z" fill="#00234C"/>
</svg>
