<svg width="119" height="156" viewBox="0 0 119 156" fill="none" xmlns="http://www.w3.org/2000/svg">
<path d="M79.0865 1.79813L76.0099 0.306749C75.0735 -0.190377 73.7359 -0.0660949 72.3982 0.555313L75.4748 2.04669C76.8125 1.42528 78.1502 1.301 79.0865 1.79813Z" fill="#FF6666"/>
<path d="M40.4268 41.0716L37.3501 39.5802C37.3501 40.823 37.8852 41.8173 38.8215 42.1901L41.8982 43.6815C40.9618 43.3087 40.4268 42.4387 40.4268 41.0716Z" fill="#AB3529"/>
<path d="M40.2931 23.4234L37.3501 21.932V39.7045L40.4269 41.0716L40.2931 23.4234Z" fill="#AB3529"/>
<path d="M75.4744 2.0467L72.3978 0.555298L42.4338 14.8479L45.3767 16.215L75.4744 2.0467Z" fill="#FF786E"/>
<path d="M45.3766 16.215L42.2999 14.7236C39.4908 16.0907 37.2168 19.3221 37.2168 21.932L40.2934 23.4234C40.2934 20.8135 42.5675 17.5821 45.3766 16.215Z" fill="#8F2A1F"/>
<path d="M45.3771 16.215C42.568 17.5821 40.2939 20.8135 40.2939 23.4234V41.0716C40.2939 43.6815 42.568 44.8001 45.3771 43.4329L66.6461 33.4903C66.7799 33.4903 74.4047 36.8459 74.5384 36.7217C74.806 36.5974 74.9397 36.2245 74.806 35.7274L74.1371 29.8861L75.4748 29.2647C78.2839 27.8976 80.558 24.6662 80.558 22.0563V4.40811C80.558 1.79817 78.2839 0.679627 75.4748 2.04674L45.3771 16.215Z" fill="#ED604F"/>
<path d="M62.2312 19.6949C59.6896 19.0735 56.8805 23.1748 58.7533 24.6662C61.2948 25.2876 64.2377 21.1863 62.2312 19.6949Z" fill="#EFEFEF"/>
<path d="M54.874 23.1748C52.3325 22.5534 49.5234 26.6547 51.3961 28.1461C53.9377 28.7675 56.8806 24.6662 54.874 23.1748Z" fill="#EFEFEF"/>
<path d="M69.5884 16.215C67.0468 15.5936 64.2377 19.5706 66.1105 21.1863C68.652 21.8077 71.4611 17.7064 69.5884 16.215Z" fill="#EFEFEF"/>
<path d="M30.3947 42.563L32.4012 35.976L29.3246 34.4846L27.3181 41.0716C27.1843 41.3201 27.1843 41.5687 27.3181 41.5687L30.3947 43.0601C30.261 42.9358 30.261 42.8115 30.3947 42.563Z" fill="#EA8B00"/>
<path d="M49.9253 7.51514C51.9318 6.52088 53.6708 7.26658 53.6708 9.25511V22.3048C53.6708 24.2934 51.9318 26.6547 49.9253 27.649L41.6317 31.5018C41.6317 31.6261 41.4979 31.7503 41.3642 31.8746L30.7965 42.6873C30.6628 42.8115 30.529 42.9358 30.3952 43.0601C30.1277 43.1844 30.1277 43.0601 30.2615 42.563L32.268 35.976L27.8536 38.0888C25.8471 39.083 24.1082 38.2131 24.1082 36.3488V23.2991C24.1082 21.3106 25.8471 18.9492 27.8536 17.9549L49.9253 7.51514ZM46.1798 22.1805C47.5175 21.5591 48.5876 20.0677 48.5876 18.8249C48.5876 17.5821 47.5175 17.0849 46.1798 17.7064C44.8421 18.3278 43.772 19.8192 43.772 21.062C43.772 22.3048 44.9759 22.802 46.1798 22.1805ZM38.9563 25.6605C40.294 25.0391 41.3642 23.5477 41.3642 22.3048C41.3642 21.062 40.294 20.5649 38.9563 21.1863C37.6187 21.8077 36.5485 23.2991 36.5485 24.5419C36.5485 25.7848 37.6187 26.2819 38.9563 25.6605ZM31.5991 29.0161C32.9368 28.3947 34.007 26.9033 34.007 25.6605C34.007 24.4176 32.9368 23.9205 31.5991 24.5419C30.2615 25.1633 29.1913 26.6547 29.1913 27.8976C29.1913 29.1404 30.2615 29.6375 31.5991 29.0161Z" fill="#FFB000"/>
<path d="M33.3377 24.2933C30.7961 23.6719 27.987 27.7733 29.8597 29.2647C32.4013 29.8861 35.3442 25.7847 33.3377 24.2933Z" fill="#EFEFEF"/>
<path d="M40.5615 20.9377C38.0199 20.3163 35.2109 24.4177 37.0836 25.9091C39.7589 26.5305 42.568 22.3048 40.5615 20.9377Z" fill="#EFEFEF"/>
<path d="M47.9184 17.4578C45.3769 16.8364 42.5678 20.8135 44.4405 22.4291C46.9821 23.0506 49.9249 18.9492 47.9184 17.4578Z" fill="#EFEFEF"/>
<path d="M52.6006 7.39089L49.524 5.89947C48.8551 5.52662 47.9188 5.6509 46.8486 6.14804L49.9253 7.63947C50.9954 7.01804 51.9318 7.01804 52.6006 7.39089Z" fill="#FFD939"/>
<path d="M24.1077 36.3488L21.031 34.8574C21.031 35.8517 21.4323 36.4731 22.1012 36.8459L25.1779 38.3373C24.509 37.9645 24.1077 37.2188 24.1077 36.3488Z" fill="#ED9F19"/>
<path d="M24.1077 23.2991L21.031 21.8077V34.8574L24.1077 36.3488V23.2991Z" fill="#ED9F19"/>
<path d="M49.9254 7.51518L46.8488 6.14807L24.7771 16.5878L27.8537 17.955L49.9254 7.51518Z" fill="#FFD939"/>
<path d="M27.8531 17.9549L24.7765 16.4635C22.77 17.4578 21.031 19.8192 21.031 21.8077L24.1077 23.2991C24.1077 21.3106 25.7129 18.9492 27.8531 17.9549Z" fill="#FFBC27"/>
<path opacity="0.3" d="M23.7266 115.931C29.9694 113.614 34.2304 109.875 33.2437 107.581C32.257 105.286 26.3962 105.304 20.1533 107.622C13.9105 109.939 9.6495 113.678 10.6362 115.972C11.6229 118.267 17.4837 118.249 23.7266 115.931Z" fill="#1D99B3"/>
<path d="M42.1644 65.6796L39.3552 66.1767L39.0877 65.431L38.1513 65.8039L37.2149 65.9282C37.2149 65.9282 36.6799 66.6739 36.4124 67.0467C36.4124 67.9167 36.4124 69.7809 36.4124 69.7809L40.9605 69.2838L41.0942 69.0352L42.5657 66.0524L42.1644 65.6796Z" fill="#FBB686"/>
<path d="M36.6799 70.1539L35.3423 70.2781V66.7982L36.2786 66.6739C36.4123 67.6682 36.6799 70.1539 36.6799 70.1539Z" fill="#B9E5FB"/>
<path d="M36.2786 70.8995L27.7174 72.0181C27.7174 72.0181 26.7811 70.651 26.3798 69.9053C26.5135 68.041 25.7109 55.8613 25.7109 55.8613L26.6473 57.477C26.6473 57.477 27.1824 58.5955 27.3162 59.2169C27.7175 60.2112 27.985 61.3297 28.3863 62.4483C28.6538 63.194 29.5902 66.5496 29.8577 67.2953C31.1954 67.2953 35.0746 66.7982 35.476 66.7982C35.476 66.6739 36.1448 70.7752 36.2786 70.8995Z" fill="#002756"/>
<path d="M31.463 110.049L29.5903 108.06L28.6539 106.444C28.6539 106.444 24.7746 105.45 23.437 106.32C23.437 106.817 23.3032 108.06 23.1694 108.309C23.3032 108.433 26.2461 110.297 26.5136 110.546C26.6474 110.67 28.9214 112.286 28.9214 112.286L31.3293 111.167L31.463 110.049Z" fill="#002B6A"/>
<path d="M22.2334 113.901L20.3607 112.286C20.3607 112.286 19.6918 111.043 19.5581 110.919C19.4243 110.546 14.6087 109.924 13.6723 110.794C13.6723 110.794 13.5386 111.789 13.5386 112.037C13.8061 112.286 14.2074 112.534 14.6087 112.907C14.7425 112.659 15.01 112.783 15.2775 112.907C15.5451 113.156 15.6788 113.404 15.6788 113.653C17.1503 114.647 19.6918 116.139 19.6918 116.139C20.2269 116.139 22.2334 114.896 22.2334 114.896V113.901Z" fill="#002B6A"/>
<path d="M27.3158 85.8135C27.3158 85.1921 27.182 84.695 27.182 84.0735C27.182 83.4521 27.0482 82.8307 27.0482 82.2093C27.0482 81.8365 26.9145 80.0965 26.7807 79.7236C26.7807 79.1022 26.6469 78.6051 26.6469 78.108C26.6469 78.108 12.8689 82.5822 12.7351 82.4579C12.7351 82.8307 12.6013 83.3279 12.6013 83.7007C12.6013 84.1978 12.8689 86.8078 12.8689 86.8078C12.8689 86.8078 13.5377 105.326 13.6715 107.19L13.4039 110.546L15.678 111.664L19.691 110.794L20.8949 90.6606C20.8949 90.6606 23.169 104.953 23.4365 106.072L25.3093 106.942L28.7872 106.444C28.6535 103.71 27.9846 94.0162 27.3158 85.8135Z" fill="#002B6A"/>
<path d="M12.3339 85.8135C12.4677 86.0621 12.4677 86.4349 12.4677 86.6835C12.3339 86.5592 12.0664 86.5592 11.9326 86.4349C12.0664 86.1864 12.0664 86.0621 12.0664 85.8135C12.2001 85.8135 12.3339 85.8135 12.3339 85.8135Z" fill="#F89C69"/>
<path d="M12.6014 87.802C12.4677 87.6777 12.3339 87.6777 12.0664 87.5534C12.0664 87.5534 12.2001 87.6777 12.2001 87.5534C11.9326 87.3049 11.7988 87.0563 12.0664 86.8077C12.0664 86.8077 12.0664 86.6835 12.2001 86.6835C12.3339 86.3106 12.3339 85.4406 12.3339 85.8135C11.13 85.9378 9.92608 85.8135 8.85594 85.8135C8.72217 86.1863 8.72217 86.5592 8.85594 86.8077C8.85594 86.8077 8.85594 86.8077 8.85594 86.932C8.85594 87.3049 8.98971 87.5534 8.98971 87.802C9.92608 88.1748 10.9962 88.5477 11.9326 88.7963C11.9326 88.2991 12.4677 87.9263 12.6014 87.802C12.7352 87.802 12.6014 87.802 12.6014 87.802Z" fill="#F9A873"/>
<path d="M17.8184 91.7791V93.1462L17.6847 101.846L15.2769 103.213V98.7389V93.6433V93.519V92.8976L15.4106 92.7733H15.5444L17.5509 91.9033L17.8184 91.7791Z" fill="#6ABFCE"/>
<path d="M15.2772 98.7389L3.6394 93.2704V87.5534L15.1434 92.8976H15.2772V98.7389Z" fill="#33B3C4"/>
<path d="M15.2772 98.7389V103.213L3.6394 97.2475V93.2705L15.1434 98.7389H15.2772Z" fill="#168CA8"/>
<path d="M12.0671 96.7504L13.2711 97.3718V98.739L12.0671 98.1175V96.7504Z" fill="#DCFFFF"/>
<path d="M15.1434 92.8976L3.6394 87.5535L6.18099 86.5592C6.44853 86.6835 17.685 91.7791 17.8188 91.7791V91.9034L15.1434 92.8976Z" fill="#7CD0D8"/>
<path d="M6.44806 95.3833L5.24414 94.7619V93.3947L6.44806 94.0161V95.3833Z" fill="#DCFFFF"/>
<path d="M13.8059 87.1806C13.8059 87.1806 13.8059 90.412 13.8059 90.6606C13.9397 90.5363 13.5384 90.9091 13.2708 90.9091C13.1371 90.9091 12.8695 90.6606 12.8695 90.6606C12.8695 90.5363 12.8695 88.1749 12.8695 87.802C12.8695 87.802 12.4682 87.6778 12.3344 87.5535C12.0669 87.3049 12.2007 86.8078 12.2007 86.8078C12.2007 86.8078 12.2007 86.6835 12.3344 86.6835C12.3344 86.5592 13.8059 87.1806 13.8059 87.1806Z" fill="#168CA8"/>
<path d="M8.32165 88.4234L7.92034 88.5477L7.38525 88.2992V87.0563L7.51902 85.4406L8.32165 85.3163H8.72296C8.72296 85.3163 8.72296 85.4406 8.58919 85.5649C8.45542 85.9378 8.45542 86.3106 8.58919 86.5592H8.45541L8.32165 86.6835V88.4234Z" fill="#168CA8"/>
<path d="M12.3341 85.8135L9.52498 85.9377L8.58862 85.5649L8.72239 84.6949H12.4678C12.4678 84.9435 12.3341 85.8135 12.3341 85.8135Z" fill="#6ABFCE"/>
<path d="M26.2461 74.1309C26.2461 74.1309 26.1124 71.3967 26.2461 69.9053C26.3799 68.041 27.3163 60.0869 27.3163 60.0869L25.7111 55.8613L21.698 54.9913L14.3408 58.2227L8.99013 62.8211C8.99013 62.8211 8.32129 77.8594 8.32129 80.0965C8.32129 81.0907 8.45505 84.0735 8.45505 84.6949L9.25767 85.3163L12.6019 85.1921C12.6019 85.0678 12.6019 85.0678 12.6019 85.0678C12.6019 84.6949 12.7356 83.0793 12.7356 82.5821C12.8694 82.5821 16.3473 83.0793 16.3473 83.0793L27.0487 78.7294L26.2461 74.1309Z" fill="#002B6A"/>
<path d="M23.0363 66.4254C23.17 65.3068 23.8389 64.3125 23.7051 63.194C23.7051 63.0697 23.7051 62.9454 23.7051 62.9454C23.5713 61.7026 23.3038 60.4598 22.7687 59.3412C22.635 58.9684 22.5012 58.5955 22.2337 58.2227C22.2337 58.0984 22.0999 58.0984 22.0999 57.9741C21.6986 57.477 21.2973 57.1041 20.7622 57.1041C21.0297 56.9798 21.5648 56.7313 21.8323 56.607C22.0999 56.7313 23.5713 57.8498 23.5713 57.8498L23.3038 58.8441L24.6415 59.3412L25.0428 61.2055C25.0428 61.2055 23.5713 68.7867 23.3038 69.2839C23.4376 68.7867 23.0363 68.041 23.0363 67.5439C23.0363 67.1711 22.9025 66.7982 23.0363 66.4254Z" fill="#11487F"/>
<path d="M16.2138 59.5898C16.4813 59.9626 16.8826 60.2112 17.1502 60.4598C17.4177 60.584 17.5515 60.7083 17.819 60.8326C18.6216 61.3297 19.4242 61.8269 20.2268 62.5726C21.1632 63.5668 21.9658 64.8097 22.5009 66.0525V66.1768C22.6346 66.6739 22.7684 67.2953 22.7684 67.9167C22.7684 68.2896 22.9022 69.0353 22.9022 69.0353L22.5009 67.9167C21.9658 66.4253 19.9593 64.6854 19.9593 64.6854L17.0164 63.3183V61.9512L15.8125 62.0754L15.1436 60.7083C15.1436 60.7083 14.0735 58.5955 14.341 57.8498C14.341 57.8498 15.1436 56.4827 15.6787 56.1099C15.6787 56.3584 15.6787 56.4827 15.8125 56.7313C15.8125 57.1041 15.9463 57.477 15.9463 57.8498L15.8125 57.7255C15.5449 58.4712 15.8125 59.0927 16.2138 59.5898Z" fill="#11487F"/>
<path d="M23.571 63.3183C23.571 63.194 23.571 63.0697 23.571 63.0697C23.4373 61.8269 22.6347 59.4655 22.6347 59.4655C22.6347 59.4655 22.3671 58.7198 22.0996 58.3469C21.6983 58.0984 16.6152 59.8383 16.2139 59.5898C16.4814 59.9626 17.1502 60.4598 17.1502 60.4598L17.8191 60.8326L20.2269 62.5726C20.2269 62.5726 21.9658 64.8097 22.5009 66.0525L23.3035 66.9225C23.1697 66.0525 23.4373 64.8097 23.571 63.3183Z" fill="#94E5ED"/>
<path d="M23.4371 62.6968L22.0993 60.0869V59.9626L21.8318 58.844C21.8318 58.844 21.5643 58.5955 21.2967 58.5955C21.0292 58.4712 20.4941 58.4712 20.4941 58.4712C20.3603 58.7198 20.2266 59.0926 20.2266 59.4655V59.5897C20.6279 59.9626 21.0292 60.2112 21.4305 60.4597C21.8318 61.454 22.3669 63.5668 22.3669 63.5668L22.5007 66.301L23.1695 70.0295C23.1695 69.9053 23.7046 64.0639 23.7046 64.0639L23.4371 62.6968Z" fill="#FF5252"/>
<path d="M15.9465 58.0984C17.0166 59.4655 20.4946 58.9683 20.4946 57.8498L20.227 56.7313C20.3608 56.9798 21.5647 57.6012 21.8322 58.0984C21.8322 58.2227 21.966 58.2227 21.966 58.3469C21.966 58.5955 21.8322 58.9683 21.8322 58.9683L21.6985 58.8441L21.1634 58.5955L20.3608 58.4712C20.227 58.7198 19.8257 60.3354 19.8257 60.3354L17.4179 60.2112C17.4179 60.2112 16.3478 59.9626 15.9465 59.714C15.5452 59.2169 15.2777 58.7198 15.5452 58.0984C15.8127 57.9741 15.8127 57.9741 15.9465 58.0984Z" fill="#DCFFFF"/>
<path d="M20.3605 56.9798C20.3605 56.9798 20.3605 58.3469 20.4943 58.3469C20.4943 58.844 17.0163 59.8383 15.8124 58.0984C15.8124 57.7255 15.5449 55.8613 15.5449 55.6127C15.6787 55.6127 15.8125 55.6127 15.9462 55.4884C16.2138 55.8613 20.093 56.9798 20.3605 56.9798Z" fill="#F89C69"/>
<path d="M21.4311 49.7714C21.0298 50.1443 19.9597 50.3928 19.4246 50.6414C18.622 50.89 16.6155 51.8842 16.6155 51.8842C16.6155 52.2571 16.6155 52.6299 16.4817 53.1271C16.4817 53.6242 16.0804 54.1213 16.4817 55.2399C16.2142 55.1156 15.9467 54.9913 15.6791 54.867C15.5454 54.3699 15.4116 53.997 15.2778 53.7485C15.0103 53.4999 14.2077 53.7485 14.4752 54.3699C14.7428 54.867 15.0103 55.8613 15.4116 55.8613C15.5454 55.8613 15.6791 55.8613 15.8129 55.737C15.9467 55.9856 16.7493 56.4827 16.7493 56.4827C16.7493 56.4827 19.8259 57.3527 20.0934 57.3527L21.5649 56.7312L21.8324 52.3814C21.8324 52.3814 21.5649 49.8957 21.4311 49.7714Z" fill="#FBB686"/>
<path d="M16.6153 51.8842C16.6153 52.2571 16.6153 52.6299 16.4815 53.1271C16.4815 53.6242 16.0802 54.1213 16.4815 55.2399C16.214 55.1156 15.9464 54.9913 15.6789 54.867C15.5451 54.3699 15.4114 53.997 15.2776 53.7485C15.0101 53.4999 14.2074 53.7485 14.475 54.3699C14.7425 54.867 15.0101 55.8613 15.4114 55.8613C15.4114 55.9856 15.5451 56.3584 15.5451 56.3584L15.0101 56.2341L14.6088 55.6127C13.6724 54.3699 12.3347 52.0085 12.3347 52.0085L12.0671 49.6471C12.2009 49.3986 15.0101 51.5114 16.6153 51.8842Z" fill="#11487F"/>
<path d="M17.1503 51.8842C17.1503 51.8842 16.6153 51.8842 16.4815 51.7599C14.8763 51.3871 13.4048 50.2685 12.0671 49.3986C12.3347 48.7771 13.4048 47.7829 13.4048 47.7829C13.9399 47.41 16.749 46.54 17.6854 46.6643C18.0867 46.6643 19.2906 46.9129 19.5582 47.0372C19.4244 47.0372 21.6984 47.1615 21.8322 47.1615C21.8322 47.1615 22.3673 48.5286 21.966 49.15C21.8322 49.3986 21.2971 50.1443 21.2971 50.1443C21.2971 50.1443 18.0867 51.8842 17.1503 51.8842Z" fill="#002B6A"/>
<path opacity="0.3" d="M65.975 105.699C65.7075 105.574 65.1724 105.45 64.7711 105.45H64.6373C64.1023 105.45 63.701 105.574 63.2996 105.823L4.57566 133.041C3.77306 133.414 3.63928 134.035 4.30812 134.284L43.3683 152.429C43.7696 152.553 44.1709 152.678 44.706 152.678C44.706 152.678 44.7059 152.678 44.8397 152.678C45.3748 152.678 45.7761 152.553 46.1774 152.305L104.901 125.087C105.704 124.714 105.838 124.093 105.169 123.844L65.975 105.699Z" fill="#1D99B3"/>
<path d="M40.2921 147.334H42.4323C42.8336 147.334 43.2349 146.961 43.2349 146.588V120.24C43.2349 119.867 42.8336 119.494 42.4323 119.494H40.2921C39.8908 119.494 39.4895 119.867 39.4895 120.24V146.588C39.4895 147.085 39.8908 147.334 40.2921 147.334Z" fill="#33B3C4"/>
<path d="M13.1371 134.781H15.0099C15.4112 134.781 15.8125 134.408 15.8125 134.035V107.687C15.8125 107.314 15.4112 106.942 15.0099 106.942H13.1371C12.7358 106.942 12.3345 107.314 12.3345 107.687V134.16C12.3345 134.532 12.7358 134.781 13.1371 134.781Z" fill="#33B3C4"/>
<path d="M94.1998 122.353H96.3401C96.7414 122.353 97.1428 121.98 97.1428 121.607V99.2361C97.1428 98.8632 96.7414 98.4904 96.3401 98.4904H94.1998C93.7985 98.4904 93.3972 98.8632 93.3972 99.2361V121.607C93.3972 122.104 93.7985 122.353 94.1998 122.353Z" fill="#33B3C4"/>
<path d="M66.1088 110.546H67.9815C68.3828 110.546 68.7841 110.173 68.7841 109.8V83.4521C68.7841 83.0793 68.3828 82.7064 67.9815 82.7064H66.1088C65.7075 82.7064 65.3062 83.0793 65.3062 83.4521V109.8C65.3062 110.173 65.7075 110.546 66.1088 110.546Z" fill="#33B3C4"/>
<path d="M66.2429 82.955C65.9753 82.8307 65.4403 82.7064 65.039 82.7064H64.9052C64.3701 82.7064 63.9688 82.8307 63.5675 83.0793L4.44223 108.806C3.63962 109.179 3.90717 111.167 4.576 111.54L43.6361 129.685C44.0374 129.81 44.4388 129.934 44.9738 129.934C44.9738 129.934 44.9738 129.934 45.1076 129.934C45.6427 129.934 46.044 129.81 46.4453 129.561L105.169 102.343C105.972 101.97 106.507 99.9818 105.838 99.6089L66.2429 82.955Z" fill="#33B3C4"/>
<path d="M66.2423 81.215C65.9748 81.0907 65.4397 80.9664 65.0384 80.9664H64.9046C64.3696 80.9664 63.9683 81.0907 63.5669 81.3393L4.84299 108.557C4.04039 108.93 3.90662 109.552 4.57546 109.8L43.6356 127.945C44.0369 128.07 44.4382 128.194 44.9733 128.194C44.9733 128.194 44.9733 128.194 45.107 128.194C45.6421 128.194 46.0434 128.07 46.4447 127.821L105.169 100.603C105.971 100.23 106.105 99.6089 105.436 99.3603L66.2423 81.215Z" fill="#BFF7F3"/>
<path opacity="0.56" d="M37.3486 115.517L52.0631 122.353L61.1593 118.251L46.4448 111.416L37.3486 115.517Z" fill="white"/>
<path opacity="0.7" d="M29.9915 114.771L44.7059 121.607L53.8022 117.381L39.0877 110.546L29.9915 114.771Z" fill="white"/>
<path opacity="0.7" d="M71.4595 97.7447L86.1739 104.58L95.27 100.355L80.5556 93.519L71.4595 97.7447Z" fill="white"/>
<path opacity="0.7" d="M68.7842 97.7447L83.4986 104.58L92.5948 100.355L77.8804 93.519L68.7842 97.7447Z" fill="white"/>
<path opacity="0.7" d="M57.0129 110.173L69.3196 115.641L86.0406 107.563L73.7339 102.095L57.0129 110.173Z" fill="white"/>
<path opacity="0.7" d="M13.8057 106.569L24.3733 115.517L33.4695 111.292L22.9019 102.467L13.8057 106.569Z" fill="white"/>
<path opacity="0.56" d="M31.8643 101.1L50.0567 109.924L71.9946 94.0162L53.8022 85.3163L31.8643 101.1Z" fill="white"/>
<path opacity="0.56" d="M45.7764 109.427L54.2037 117.133L72.9312 109.054L64.5038 101.473L45.7764 109.427Z" fill="white"/>
<path opacity="0.3" d="M101.692 94.0162L105.303 96.3776L99.2838 99.4846L83.3654 106.693L82.0278 109.179L73.6004 112.659L70.1224 111.167L65.0393 114.274L54.8729 109.924L54.6054 110.297L53.4015 109.8L44.1715 114.026L42.5663 117.009L38.152 119.867L32.8013 117.63L31.1961 118.749L12.6024 110.173L9.927 108.93L13.1374 108.06L15.1439 108.806L73.1991 82.5822L101.692 94.0162Z" fill="#1D99B3"/>
<path d="M71.4601 111.416L81.7602 94.7618L94.6019 100.727L88.4486 92.7733C89.92 90.909 97.8123 75.8708 98.7487 73.758L112.527 71.7695L93.933 63.194C93.933 63.194 108.781 53.997 108.38 52.5056L84.0342 41.1959L81.6264 42.9358L70.2561 37.716L64.5041 38.7102L59.421 48.7771C57.4145 49.6471 56.0768 50.5171 54.204 51.7599L47.3819 48.4043L41.8974 53.4999L44.1714 61.3297C42.7 63.194 41.4961 65.1825 40.5597 67.2953L31.196 71.1481L29.3232 77.3622L38.1519 81.4635L38.2857 83.4521L31.196 92.5247L34.0051 96.2532L58.3508 107.563L59.1534 105.699L71.4601 111.416Z" fill="#9FEDEB"/>
<path d="M94.0668 71.6452L82.429 68.7867L74.938 74.5038L71.9951 86.0621L75.3393 92.2762L82.9641 92.5248C82.9641 92.5248 83.0978 95.8804 86.8433 89.2934C90.5888 82.7064 90.5888 82.7064 90.5888 82.7064L95.1369 76.4923L94.0668 71.6452Z" fill="#168CA8"/>
<path opacity="0.31" d="M98.0793 90.9091L73.7336 79.5994L64.3699 83.4521L88.7156 94.7619L98.0793 90.9091Z" fill="#33B3C4"/>
<path d="M77.2118 110.422L82.4288 100.23C84.4353 99.3604 86.308 98.2418 88.3146 96.8747L94.6017 100.727L100.086 95.6319L97.8121 87.6778C99.2835 85.8135 100.487 83.825 101.424 81.7122L110.654 78.108L112.527 71.8938L104.5 70.7753C104.5 68.911 104.367 67.1711 103.832 65.6797L111.189 56.3584L108.38 52.63L98.6147 59.3412C97.277 58.5955 95.6718 58.2227 94.0666 58.0984L94.6017 49.15L88.8496 50.1443L83.7665 60.2112C81.7599 61.0812 79.8872 62.1997 77.8807 63.5669L71.5936 59.8384L66.1091 64.934L68.3832 72.7638C66.9117 74.628 65.7078 76.6166 64.7714 78.7294L55.4077 82.5822L53.5349 88.7963L61.8285 89.7906C61.8285 91.6548 61.9623 93.3948 62.4974 94.8862L55.4077 103.959L58.2168 107.687L67.5805 101.225C68.9182 101.97 70.5234 102.343 72.1287 102.467L71.4598 111.664L77.2118 110.422ZM74.2689 81.4636C75.8741 76.2437 80.9573 71.3967 85.9068 70.5267C90.7224 69.6567 93.3978 73.2609 91.9263 78.4808C90.3211 83.7007 85.2379 88.5477 80.2885 89.4177C75.3391 90.2877 72.6637 86.6835 74.2689 81.4636Z" fill="#33B3C4"/>
<path d="M47.1146 48.28L71.4604 59.4655L65.9759 64.6854L41.7639 53.3756L47.1146 48.28Z" fill="#E6FFFE"/>
<path d="M64.6375 78.3565L40.2917 67.171L30.928 71.0238L55.2738 82.2093L64.6375 78.3565Z" fill="#E6FFFE"/>
<path d="M64.3699 38.5859L88.7156 49.8957L94.4676 48.9014L70.2556 37.5917L64.3699 38.5859Z" fill="#E6FFFE"/>
<path d="M62.2296 94.5133L55.2737 103.71L30.928 92.4005L38.0177 83.3278L62.2296 94.5133Z" fill="#E6FFFE"/>
<path d="M33.8713 118.873L40.961 107.439L49.7897 111.54L45.5091 106.072C46.4455 104.829 51.93 94.389 52.5988 93.0219L62.0963 91.6548L49.2546 85.6892C49.2546 85.6892 59.421 79.3507 59.1534 78.3565L42.4325 70.6509L40.6935 71.7695L32.9349 68.1653L28.9219 68.7867L25.444 75.7465C24.1063 76.368 23.1699 76.8651 21.8322 77.8594L17.1504 75.498L13.4049 78.9779L15.0101 84.3221C14.0737 85.5649 13.1373 87.0563 12.4685 88.4234L6.04764 91.0334L4.70996 95.3833L10.7295 98.2418V99.6089L5.91387 105.823L7.78661 108.433L24.5076 116.139L25.0426 114.896L33.8713 118.873Z" fill="#9FEDEB"/>
<path d="M50.1908 90.7848L42.9674 88.0506L36.279 94.1405L34.2725 102.095L37.3491 106.569L42.1647 106.072L45.2414 104.207L47.783 99.6089L50.1908 90.7848Z" fill="#168CA8"/>
<path opacity="0.31" d="M52.1972 104.705L35.4763 96.999L29.0554 99.6089L45.7764 107.439L52.1972 104.705Z" fill="#33B3C4"/>
<path d="M37.8841 118.251L41.4959 111.167C42.8335 110.546 44.1712 109.8 45.5089 108.93L49.7895 111.54L53.535 108.06L52.0635 102.592C52.9999 101.349 53.9363 99.8575 54.6051 98.4904L60.8922 96.0047L62.2299 91.6548L56.6116 90.9091C56.6116 89.6663 56.4778 88.4234 56.2103 87.4292L61.2935 80.9664L59.4207 78.3565L52.7324 82.955C51.796 82.4579 50.7258 82.2093 49.5219 82.085L49.9232 75.8708L45.9102 76.4923L42.4323 83.4521C41.0946 84.0735 39.7569 84.8192 38.4192 85.6892L34.1386 83.2035L30.3932 86.6835L31.9984 92.0276C31.062 93.2705 30.1256 94.7619 29.4568 96.129L23.0359 98.7389L21.6982 103.089L27.3165 103.71C27.3165 104.953 27.4503 106.196 27.7178 107.19L22.9022 113.404L24.7749 116.014L31.1957 111.54C32.1321 112.037 33.2023 112.286 34.4062 112.41L34.0049 118.748L37.8841 118.251ZM35.8776 98.3661C36.9478 94.7619 40.5595 91.4062 43.7699 90.9091C47.1141 90.2877 48.9869 92.7733 47.9167 96.3775C46.8466 99.9817 43.2349 103.337 40.0244 103.835C36.6802 104.332 34.8075 101.846 35.8776 98.3661Z" fill="#33B3C4"/>
<path d="M17.1503 75.498L33.8712 83.2035L30.1257 86.6835L13.4048 78.9779L17.1503 75.498Z" fill="#E6FFFE"/>
<path d="M29.1896 96.129L12.4687 88.4234L6.04785 91.0334L22.7688 98.8632L29.1896 96.129Z" fill="#E6FFFE"/>
<path d="M29.0554 68.7867L45.7764 76.4922L49.7895 75.8708L33.0685 68.1653L29.0554 68.7867Z" fill="#E6FFFE"/>
<path d="M27.5844 107.314L22.7688 113.529L6.04785 105.823L10.8635 99.6089L27.5844 107.314Z" fill="#E6FFFE"/>
<path d="M51.2612 76.4922L56.4782 68.1653L62.899 71.1481L59.8224 67.171C60.4912 66.1768 64.5043 58.7198 65.0393 57.6012L71.9952 56.607L62.6315 52.2571C62.6315 52.2571 70.1225 47.6586 69.855 46.9129L57.6821 41.3202L56.4782 42.1901L50.7262 39.5802L47.7833 40.0773L45.2417 45.1729C44.3053 45.6701 43.5027 46.0429 42.5663 46.6643L39.0884 44.9244L36.413 47.5343L37.4832 51.3871C36.8143 52.3813 36.1455 53.3756 35.6104 54.3699L30.9286 56.3584L29.9922 59.4655L34.4065 61.454V62.4483L30.9286 67.0467L32.2662 68.911L44.4391 74.5037L44.8404 73.6337L51.2612 76.4922Z" fill="#9FEDEB"/>
<path d="M56.6119 53.7485C56.6119 53.7485 56.3444 53.997 56.0768 54.2456C54.8729 55.6127 51.93 58.9683 51.93 58.9683C51.93 58.9683 47.1144 62.6968 51.2612 65.3067C55.408 67.9167 51.6625 69.1595 54.8729 68.1653C57.9496 67.171 57.9496 67.171 57.9496 67.171L60.3574 65.1825L62.2301 61.9511L62.7652 58.5955L62.2301 55.2399L56.6119 53.7485Z" fill="#168CA8"/>
<path opacity="0.31" d="M64.6379 66.1768L52.4651 60.584L47.6494 62.5726L59.956 68.1653L64.6379 66.1768Z" fill="#33B3C4"/>
<path d="M54.2044 75.9951L56.8797 70.8995C57.8161 70.4024 58.8863 69.9053 59.8226 69.2838L63.033 71.1481L65.7084 68.5381L64.6382 64.5611C65.3071 63.5668 65.9759 62.5725 66.511 61.5783L71.1928 59.714L72.1292 56.607L68.1162 55.9855C68.1162 54.9913 67.9824 54.2456 67.8487 53.3756L71.5941 48.6528L70.2565 46.7886L65.3071 50.1442C64.6382 49.7714 63.8356 49.6471 63.033 49.5228L63.3006 45.0486L60.3577 45.5458L57.8161 50.6414C56.8798 51.1385 55.8096 51.6356 54.8732 52.2571L51.6628 50.3928L48.9875 53.0028L50.0576 56.8555C49.3888 57.8498 48.7199 58.8441 48.1849 59.8383L43.503 61.8269L42.5667 64.9339L46.7134 65.4311C46.7134 66.4253 46.8472 67.171 46.981 68.041L43.503 72.6395L44.8407 74.5037L49.5225 71.2724C50.1914 71.6452 50.994 71.7695 51.7966 71.8938L51.529 76.4922L54.2044 75.9951ZM52.5992 61.5783C53.4018 58.9683 55.9434 56.4827 58.3512 56.1098C60.759 55.737 62.0967 57.4769 61.2941 60.0869C60.4915 62.6968 57.9499 65.1825 55.5421 65.5553C53.268 65.9282 51.9304 64.1882 52.5992 61.5783Z" fill="#33B3C4"/>
<path d="M39.0879 44.8L51.2608 50.5171L48.5854 53.127L36.2788 47.41L39.0879 44.8Z" fill="#E6FFFE"/>
<path d="M47.783 59.9626L35.6101 54.3699L30.9282 56.2341L43.1011 61.9511L47.783 59.9626Z" fill="#E6FFFE"/>
<path d="M47.6494 39.953L59.9561 45.67L62.7652 45.1729L50.5923 39.5802L47.6494 39.953Z" fill="#E6FFFE"/>
<path d="M46.7129 68.041L43.1012 72.6395L30.9282 67.0467L34.4062 62.4482L46.7129 68.041Z" fill="#E6FFFE"/>
<g opacity="0.21">
<path opacity="0.21" d="M56.7459 90.7848C56.7459 90.1634 56.7459 89.4177 56.6121 88.7962L58.4849 89.0448L94.6021 51.2628L94.7359 48.9014L88.9839 49.8957L83.9007 59.9626C81.8942 60.8326 80.0215 61.9511 78.0149 63.3182L71.7279 59.5897L66.2434 64.6853L68.5175 72.5152C67.046 74.3794 65.8421 76.3679 64.9057 78.4808L60.8927 80.0964L59.555 78.3565L52.8666 82.9549C51.9302 82.4578 50.8601 82.2092 49.6562 82.085L50.0575 75.8708L46.0445 76.4922L42.5665 83.4521C41.2288 84.0735 39.8912 84.8192 38.5535 85.6892L34.2729 83.2035L30.5274 86.6834L32.1326 92.0276C31.1963 93.2704 30.2599 94.7618 29.591 96.1289L23.1702 98.7389L21.8325 103.089L27.4508 103.71C27.4508 104.953 27.5845 106.196 27.8521 107.19L23.0364 113.404L24.9092 116.014L31.33 111.54C32.2664 112.037 33.3365 112.286 34.5404 112.41L34.4067 114.274L56.7459 90.7848ZM48.051 96.2532C46.9809 99.8574 43.3691 103.213 40.0249 103.71C36.6807 104.332 34.808 101.846 35.8781 98.2417C36.9483 94.6375 40.56 91.2819 43.9042 90.7848C47.2484 90.2876 49.1211 92.649 48.051 96.2532Z" fill="#C2FFFC"/>
<path opacity="0.21" d="M46.7135 68.041L43.2355 72.6395L44.5732 74.5037L49.255 71.2724C49.9239 71.6452 50.7265 71.7695 51.5291 71.8938L51.2615 76.4922L54.2044 75.9951L56.8798 70.8995C57.8161 70.4024 58.8863 69.9053 59.8227 69.2838L63.0331 71.1481L65.7084 68.5381L64.6383 64.5611C65.3071 63.5668 65.976 62.5725 66.511 61.5783L71.1929 59.714L72.1293 56.607L68.1162 55.9855C68.1162 54.9913 67.9825 54.2456 67.8487 53.3756L71.5942 48.6528L70.2565 46.7886L65.3071 50.1442C64.6383 49.7714 63.8357 49.6471 63.0331 49.5228L63.3006 45.0486L60.3577 45.5458L57.8162 50.6414C56.8798 51.1385 55.8096 51.6356 54.8733 52.2571L51.6628 50.3928L48.9875 53.0028L50.0576 56.8555C49.3888 57.8498 48.72 58.8441 48.1849 59.8383L43.503 61.8269L42.5667 64.9339L46.7135 65.4311C46.3121 66.4253 46.4459 67.2953 46.7135 68.041ZM52.733 61.5783C53.5356 58.9683 56.0772 56.4827 58.485 56.1098C60.8928 55.737 62.2305 57.4769 61.4279 60.0869C60.6253 62.6968 58.0837 65.1825 55.6759 65.5553C53.2681 65.9282 51.9304 64.1882 52.733 61.5783Z" fill="#C2FFFC"/>
</g>
<path opacity="0.3" d="M96.7427 143.232C99.418 144.848 106.24 143.729 111.992 140.871C117.744 138.012 120.152 134.408 117.477 132.792C114.801 131.177 107.979 132.295 102.227 135.154C96.4752 138.012 94.0673 141.617 96.7427 143.232Z" fill="#1D99B3"/>
<path d="M104.099 134.16C103.697 134.781 103.697 135.527 103.564 136.272C103.296 137.391 102.895 137.888 101.958 138.012C102.092 137.888 102.226 137.639 102.226 137.391C102.494 136.769 102.761 136.272 103.029 135.651C103.296 135.03 103.43 133.538 103.564 131.674C104.233 131.922 104.768 132.047 105.436 132.047C105.704 132.047 105.972 132.047 106.239 131.922C106.239 132.171 106.239 132.544 106.373 132.792C105.303 133.041 104.634 133.538 104.099 134.16Z" fill="#F89C69"/>
<path d="M106.641 132.917C107.711 134.905 106.373 137.391 107.042 139.255C106.373 139.752 105.972 139.504 105.972 139.504V138.882C105.972 138.882 105.838 137.267 105.838 136.397C104.902 136.894 103.297 138.634 103.163 139.628C103.163 139.628 103.029 139.628 103.029 139.752C101.825 139.877 100.755 140.001 99.8186 139.628C99.6848 139.131 99.8186 138.509 99.9524 138.012C100.621 137.888 101.825 137.764 102.36 137.515C102.226 137.764 102.093 137.888 102.093 138.137C103.029 138.012 103.43 137.391 103.698 136.397C103.832 135.651 103.832 134.905 104.233 134.284C104.768 133.538 105.437 133.165 106.507 133.041C106.507 132.917 106.641 132.917 106.641 132.917Z" fill="#002B6A"/>
<path d="M103.029 139.628C103.163 138.634 104.902 136.77 105.838 136.272C105.169 137.018 104.634 138.012 104.768 139.007C104.233 139.504 103.43 139.628 103.029 139.628Z" fill="black"/>
<path d="M113.865 134.035C114.132 133.662 114.266 133.538 114.4 133.29C114.132 134.16 113.998 134.781 113.998 135.775C113.865 135.775 113.731 135.9 113.597 136.024C113.597 135.278 113.597 134.657 113.865 134.035Z" fill="black"/>
<path d="M110.922 134.657C111.056 134.16 111.056 133.662 111.323 133.165C111.457 132.917 111.591 132.544 111.725 132.171C111.992 131.55 112.393 130.928 112.928 130.804C113.597 130.68 113.999 130.804 114.266 130.928C114.801 131.425 114.534 132.42 114.534 133.165C114.266 133.414 114.266 133.538 113.999 133.911C113.865 134.532 113.731 135.402 113.731 136.148C113.731 136.397 113.731 136.645 113.731 136.894C113.464 137.142 113.062 137.142 112.661 137.018C112.661 136.77 112.661 134.284 112.393 133.414C112.126 134.035 112.126 135.775 111.992 136.272L111.858 136.645C111.189 136.77 110.654 136.521 110.119 136.397C109.718 135.651 110.119 134.905 110.922 134.657Z" fill="#002B6A"/>
<path d="M111.725 136.645C111.859 136.148 111.993 134.16 112.26 133.414C112.528 134.284 112.528 135.278 112.528 136.272C112.394 136.521 111.859 136.645 111.725 136.645Z" fill="black"/>
<path d="M114.132 130.928C113.865 130.68 113.463 130.68 112.794 130.804C112.259 130.928 111.858 131.55 111.591 132.171C111.591 131.674 111.591 131.052 111.457 130.183C111.724 130.183 112.126 130.307 112.393 130.307C112.661 130.307 112.928 130.307 113.196 130.307C113.597 130.307 113.865 130.183 114.132 130.058C114.266 130.307 114.132 130.68 114.132 130.928Z" fill="#F89C69"/>
<path d="M107.31 98.4904C107.31 98.1175 107.31 97.7447 107.31 97.3718C107.578 97.3718 107.845 97.3718 108.113 97.2475C108.915 97.1232 109.584 96.8747 110.387 96.6261C111.189 96.3775 112.795 95.6318 113.062 95.6318C113.196 95.8804 113.33 96.7504 113.33 96.7504C113.196 97.1232 108.782 98.3661 107.31 98.4904Z" fill="#277293"/>
<path d="M103.029 117.381C103.029 112.037 101.691 105.699 102.762 99.2361C102.895 99.2361 102.895 99.2361 102.762 99.2361C102.762 98.8632 102.895 98.6146 102.895 98.2418V98.1175C103.297 98.2418 103.698 98.2418 103.966 98.3661C103.966 98.7389 107.176 98.8632 107.176 98.4904C108.647 98.3661 113.196 96.999 113.196 96.999C113.463 97.2475 114.132 98.4904 114.132 98.4904C116.005 102.095 114.533 105.326 114.132 108.184C113.731 110.794 113.463 113.28 113.463 116.014C113.864 117.133 114.266 118.5 114.533 119.37C114.935 120.737 114.935 121.358 114.935 122.726C114.935 124.093 114.801 125.584 114.533 127.2C114.667 128.194 114.935 129.437 114.935 130.058C114.399 130.307 113.463 130.68 113.196 130.68C111.59 130.804 111.189 130.431 110.921 130.431C111.055 129.81 110.921 128.815 110.921 128.07C110.119 123.72 108.915 117.63 108.246 114.771C108.112 115.393 108.112 116.014 107.979 116.511C107.845 117.506 108.514 118.748 108.514 119.743C108.647 121.483 108.647 121.607 108.38 123.347C108.246 124.341 107.845 126.33 107.444 127.324C107.176 128.567 106.775 131.052 107.042 132.295C106.775 132.42 104.099 132.792 102.895 131.798C103.029 130.804 103.029 129.561 103.029 128.691C103.029 123.844 103.029 119.246 103.029 117.381Z" fill="#002B6A"/>
<path d="M101.826 88.9206C102.093 89.2934 102.227 89.6663 102.495 89.9148C102.628 90.6605 103.163 92.4005 103.297 93.6433C102.227 92.7733 99.0166 90.1634 97.5451 88.672C97.4114 88.5477 97.2776 88.4234 97.2776 88.4234C97.2776 88.2991 97.4113 87.0563 98.4815 86.6835C98.4815 86.8078 100.756 88.4234 101.826 88.9206Z" fill="#1D99B3"/>
<path d="M106.909 78.4808C108.247 78.4808 109.986 78.2322 111.324 77.9836C111.324 78.1079 111.458 78.4808 111.458 78.4808C110.789 78.4808 109.719 78.4808 109.183 78.6051C108.648 78.7294 107.846 78.9779 107.043 79.2265C106.909 78.9779 106.909 78.7294 106.909 78.4808Z" fill="#F89C69"/>
<path d="M104.1 72.3909C103.966 71.6452 104.1 70.5267 104.635 70.0295C104.903 69.781 105.17 69.5324 105.438 69.2839C106.107 68.6624 106.775 68.4139 107.712 68.2896C109.183 67.9167 111.056 67.9167 112.126 69.0353C112.394 69.0353 108.113 69.2838 106.642 70.4024C106.374 70.651 105.705 71.0238 105.438 71.2724C105.036 71.6452 104.903 72.1424 104.501 72.3909C104.368 72.3909 104.234 72.3909 104.1 72.3909Z" fill="#003D75"/>
<path d="M105.438 77.3622C105.17 77.4865 104.903 77.6108 104.769 77.6108C105.036 78.1079 105.839 78.3565 106.909 78.3565C108.247 78.3565 109.718 78.2322 111.056 77.9837C111.725 77.8594 110.922 78.1079 111.992 77.7351C112.795 77.238 114.266 76.2437 114.668 75.3737C114.801 75.1252 114.801 75.0009 114.935 74.7523C114.935 74.628 115.069 74.5037 115.069 74.3795C115.336 73.5095 115.871 69.2839 112.126 68.911C109.852 68.7867 107.578 68.911 105.973 70.0296C105.705 70.2781 105.304 70.7753 104.903 71.1481C104.903 71.1481 104.903 71.1481 104.903 71.2724C104.501 71.3967 104.367 71.8938 104.367 72.3909C104.501 72.3909 104.501 72.3909 104.635 72.3909C105.304 73.3852 105.571 74.0066 105.839 75.1252C106.106 75.8709 105.973 77.1137 105.438 77.3622Z" fill="#002B6A"/>
<path d="M104.769 72.391C105.437 73.3852 105.705 74.0066 105.973 75.1252C106.106 75.8709 105.972 77.1137 105.437 77.3622C104.769 76.2437 104.501 74.5037 104.501 73.1366C104.501 73.0124 104.501 72.8881 104.501 72.7638C104.501 72.6395 104.501 72.3909 104.501 72.2667C104.635 72.3909 104.635 72.391 104.769 72.391Z" fill="#F9A873"/>
<path d="M103.297 96.9989C103.564 97.1232 103.832 97.2475 104.099 97.2475C104.099 97.6204 104.099 97.9932 104.099 98.4904C103.698 98.4904 103.297 98.3661 103.029 98.2418C103.029 97.7446 103.297 96.8747 103.297 96.9989Z" fill="#277293"/>
<path d="M106.908 79.2265C107.711 78.9779 108.514 78.7294 109.049 78.6051C109.718 78.4808 110.921 78.3565 111.59 78.3565C112.125 78.3565 112.259 78.6051 112.259 78.6051C111.724 78.7294 110.386 78.9779 110.253 78.9779C109.183 79.1022 107.979 79.3508 106.908 79.5993C106.641 79.5993 105.838 79.9722 105.571 79.9722C105.972 79.7236 106.507 79.475 106.908 79.2265Z" fill="white"/>
<path d="M114.667 79.2265L112.795 78.4808C112.795 78.4808 111.591 78.6051 111.056 78.7293C110.922 78.7293 110.788 78.7293 110.654 78.8536C110.521 78.8536 110.387 78.8536 110.253 78.9779C109.183 79.1022 107.979 79.3508 106.909 79.5993C106.641 79.5993 106.508 79.7236 106.24 79.8479C105.973 79.9722 105.839 79.9722 105.571 80.0965C104.769 80.345 103.297 81.0907 103.297 81.0907L101.96 83.4521C101.96 83.4521 100.622 85.9378 100.622 86.4349C100.622 88.0506 100.889 88.4234 101.558 89.1691C101.826 89.4177 102.227 89.6663 102.495 89.9148C102.628 90.6605 102.628 91.2819 102.896 92.5248C103.163 94.0162 103.163 96.8747 103.163 96.8747C103.431 96.999 103.966 97.1233 103.966 97.1233L107.176 97.3718C107.176 97.3718 107.712 97.3718 107.979 97.2475C108.782 97.1233 109.584 96.999 110.253 96.7504C111.056 96.5018 112.393 96.129 112.928 95.7561C112.795 94.7619 112.795 93.1462 112.928 92.2762C113.196 90.0391 113.999 86.5592 113.999 86.5592L114.801 83.7007L114.667 79.2265Z" fill="#33B3C4"/>
<path d="M87.111 80.9664C88.3149 80.7179 88.7162 80.4693 89.5188 80.2207C90.9902 81.3393 95.2708 84.6949 96.4747 86.0621L97.1435 86.932C97.4111 87.3049 98.2137 88.2992 98.2137 88.2992C98.0799 88.2992 96.2072 88.9206 95.2708 89.1691C94.0669 89.542 92.863 90.0391 91.7928 90.412C89.7863 87.9263 83.7668 83.2035 82.0278 81.5879C83.3655 81.4636 85.6396 81.215 87.111 80.9664Z" fill="#DCFFFF"/>
<path d="M95.0032 85.4406L95.2707 85.3163C95.4045 85.5649 95.8058 85.6892 95.8058 85.6892H97.0097C97.0097 85.6892 97.411 85.6892 97.5448 85.6892L97.6786 85.8135C97.9461 86.1863 98.0799 86.5592 98.3474 86.932C98.0799 87.0563 97.8123 87.1806 97.6786 87.5535C97.0097 87.4292 96.876 87.0563 96.6084 86.6835C96.3409 86.6835 95.672 86.5592 95.672 86.5592L95.1369 86.0621C95.0032 85.9378 94.8694 85.5649 95.0032 85.4406Z" fill="#F9A873"/>
<path d="M104.233 104.456C104.635 104.953 105.838 104.953 106.507 104.953C106.507 105.45 106.507 106.196 106.507 106.817C106.507 106.942 106.373 107.19 106.373 107.314C106.373 107.439 106.373 107.439 106.373 107.563C106.507 108.06 106.373 109.552 106.373 109.552L105.972 109.8L105.571 110.173L104.635 109.924C104.501 109.8 104.367 109.676 104.367 109.427C104.099 108.93 103.832 108.309 103.564 107.812C103.564 107.687 103.564 107.439 103.564 107.19C103.564 106.32 103.966 105.202 104.233 104.456Z" fill="#F9A873"/>
<path d="M102.094 83.4521C102.094 82.955 102.227 82.4579 102.361 82.085C102.495 81.7122 102.629 81.4636 102.896 81.215C103.03 81.0908 103.164 81.0907 103.297 80.9665C103.966 80.8422 104.769 80.9665 105.17 81.5879C105.438 82.085 108.113 93.7676 108.113 93.7676L106.642 104.953L106.374 105.077C105.572 105.202 104.501 104.829 104.1 104.332V104.207V95.0104C103.966 95.1347 101.96 85.1921 102.094 83.4521Z" fill="#6ABFCE"/>
<path d="M15.144 114.771L17.0168 113.28L19.8259 113.404L19.6921 113.901L17.9531 114.274C17.9531 114.274 18.8895 114.399 19.157 114.647C19.2908 114.771 19.2908 114.896 18.7557 115.144C18.0869 115.393 17.0168 115.89 16.6155 115.89C16.0804 115.766 15.144 114.771 15.144 114.771Z" fill="#FFAD91"/>
<path d="M15.0103 139.007L13.9402 140.498L15.6792 142.362C15.6792 142.362 17.9532 144.848 18.8896 144.848C19.8259 144.848 18.7558 142.362 18.7558 142.362L17.5519 140.498L15.0103 139.007Z" fill="#002B6A"/>
<path d="M17.4181 123.347H20.7623L22.2337 124.341L22.3675 127.573L17.4181 140.622L15.144 139.628L16.2142 134.035L17.4181 123.347Z" fill="#E69C83"/>
<path d="M20.2272 125.087H23.9726L25.3103 126.081L25.1765 129.313L20.2272 142.362L17.9531 141.617L19.157 135.775L20.2272 125.087Z" fill="#FFAD91"/>
<path d="M24.3735 119.121L25.5775 117.878L27.8515 118.127L29.7243 119.246L27.7178 120.861L25.9788 121.234L24.3735 119.121Z" fill="#FFAD91"/>
<path d="M20.4948 119.867L15.2778 113.529L13.8064 117.506L19.1571 123.347L26.3806 121.234L24.374 118.997L20.4948 119.867Z" fill="#002B6A"/>
<path opacity="0.3" d="M12.0673 142.735C12.8699 142.362 13.8063 142.362 14.4751 142.735L23.3038 147.706V150.068C23.3038 150.565 23.0362 151.062 22.5012 151.311L13.8063 155.412C13.0037 155.785 12.0673 155.785 11.3985 155.412L3.37243 151.684C2.83736 151.435 2.56982 150.938 2.56982 150.441V148.079L12.0673 142.735Z" fill="#1D99B3"/>
<path d="M19.425 147.706C19.6925 147.582 19.8263 147.582 20.2276 147.831C20.8964 148.204 21.4315 149.074 21.4315 149.944C21.4315 150.441 21.2977 150.938 21.0302 151.062L19.1575 151.932L17.5522 148.825L19.425 147.706Z" fill="#002B6A"/>
<path d="M17.0171 149.695C17.0171 150.565 17.5522 151.435 18.221 151.808C18.8899 152.181 19.425 151.808 19.425 150.938C19.425 150.068 18.8899 149.198 18.221 148.825C17.5522 148.452 17.0171 148.825 17.0171 149.695Z" fill="#11487F"/>
<path d="M17.8196 150.068C17.8196 150.441 18.0871 150.689 18.2209 150.938C18.4884 151.062 18.6222 150.938 18.6222 150.565C18.6222 150.192 18.3547 149.943 18.2209 149.695C17.9534 149.571 17.8196 149.695 17.8196 150.068Z" fill="#002B6A"/>
<path d="M6.44939 147.706C6.18185 147.582 6.04809 147.582 5.64678 147.831C4.97794 148.204 4.44287 149.074 4.44287 149.943C4.44287 150.441 4.57664 150.813 4.84418 150.938L6.71693 151.808L8.32214 148.701L6.44939 147.706Z" fill="#002B6A"/>
<path d="M8.72351 149.695C8.72351 150.565 8.18843 151.435 7.51959 151.808C6.85075 152.181 6.31567 151.808 6.31567 150.938C6.31567 150.068 6.85075 149.198 7.51959 148.825C8.18843 148.452 8.72351 148.825 8.72351 149.695Z" fill="#11487F"/>
<path d="M8.05438 150.068C8.05438 150.441 7.78682 150.689 7.65304 150.938C7.38548 151.062 7.25171 150.938 7.25171 150.565C7.25171 150.192 7.51926 149.944 7.65304 149.695C7.78682 149.571 8.05438 149.695 8.05438 150.068Z" fill="#002B6A"/>
<path d="M17.2849 141.741C17.1511 141.617 16.8836 141.617 16.616 141.865C16.081 142.238 15.5459 142.984 15.5459 143.729C15.5459 144.102 15.6797 144.599 15.9472 144.724L17.5524 145.469L18.8901 142.735L17.2849 141.741Z" fill="#002B6A"/>
<path d="M19.4257 143.357C19.4257 144.102 18.8906 144.972 18.3555 145.221C17.8205 145.594 17.2854 145.221 17.2854 144.475C17.2854 143.729 17.8205 142.859 18.3555 142.611C18.8906 142.362 19.4257 142.735 19.4257 143.357Z" fill="#11487F"/>
<path d="M18.757 143.729C18.757 143.978 18.6232 144.351 18.3556 144.475C18.0881 144.599 17.9543 144.475 17.9543 144.226C17.9543 143.978 18.0881 143.605 18.3556 143.481C18.4894 143.357 18.757 143.481 18.757 143.729Z" fill="#002B6A"/>
<path d="M8.18921 141.741C8.32298 141.617 8.59052 141.617 8.85806 141.865C9.39314 142.238 9.92822 142.984 9.92822 143.729C9.92822 144.102 9.79445 144.599 9.52691 144.724L7.92168 145.469L6.58398 142.735L8.18921 141.741Z" fill="#002B6A"/>
<path d="M6.18237 143.356C6.18237 144.102 6.71744 144.972 7.25251 145.221C7.78757 145.594 8.32263 145.221 8.32263 144.475C8.32263 143.729 7.78757 142.859 7.25251 142.611C6.58368 142.362 6.18237 142.735 6.18237 143.356Z" fill="#11487F"/>
<path d="M6.71777 143.729C6.71777 143.978 6.85154 144.351 7.11907 144.475C7.38661 144.599 7.52039 144.475 7.52039 144.226C7.52039 143.978 7.38661 143.605 7.11907 143.481C6.98531 143.357 6.71777 143.481 6.71777 143.729Z" fill="#002B6A"/>
<path d="M19.2908 141.741L19.157 142.611L15.144 144.972L14.6089 143.854L19.2908 141.741Z" fill="#168CA8"/>
<path d="M12.7361 143.481L13.8062 142.362L17.8193 140.995L19.2908 141.741L14.6089 143.978L12.7361 143.481Z" fill="#33B3C4"/>
<path d="M6.18237 141.741L6.4499 142.611L10.3291 144.972L10.9979 143.854L6.18237 141.741Z" fill="#168CA8"/>
<path d="M12.737 143.481L11.6669 142.362L7.92136 140.995L6.18237 141.741L10.998 143.978L12.737 143.481Z" fill="#33B3C4"/>
<path d="M21.431 148.452L21.0297 149.322L19.1569 150.192L12.7361 146.339V144.475L21.431 148.452Z" fill="#168CA8"/>
<path d="M14.4751 143.481L21.431 148.452L19.4245 149.446L12.7361 145.221V143.481H14.4751Z" fill="#33B3C4"/>
<path d="M4.44287 148.576L4.84418 149.571L6.4494 150.192L12.7365 146.339V144.475L4.44287 148.576Z" fill="#168CA8"/>
<path d="M11.1313 143.481L4.44287 148.576L6.18186 149.446L12.7365 145.221V143.481H11.1313Z" fill="#33B3C4"/>
<path d="M12.7368 145.096C13.8069 145.096 14.6096 144.351 14.6096 143.481V135.9H10.9978V143.481C10.9978 144.351 11.8004 145.096 12.7368 145.096Z" fill="#33B3C4"/>
<path d="M5.24506 130.804L11.5321 127.448C12.3347 127.075 13.2711 127.075 13.9399 127.448L19.6919 130.555L22.6348 131.052V133.414C22.6348 133.911 22.3673 134.408 21.8322 134.657L13.1373 138.758C12.3347 139.131 11.3984 139.131 10.7295 138.758L2.70348 135.03C2.16841 134.781 1.90088 134.284 1.90088 133.787V131.425L5.24506 130.804Z" fill="#B33939"/>
<path d="M21.9651 129.81L14.0728 125.087C13.2702 124.714 12.3338 124.714 11.665 125.087L2.8363 130.183C1.76616 130.68 1.76616 132.047 2.8363 132.668L10.8624 136.272C11.665 136.645 12.6014 136.645 13.2702 136.272L21.9651 132.295C22.9015 131.674 22.9015 130.307 21.9651 129.81Z" fill="#FF5252"/>
<path d="M14.8765 123.844L17.418 123.471L21.1635 125.708L24.1064 127.697L23.17 130.804L12.6024 134.905L10.4621 135.03C10.4621 135.03 6.44912 133.414 5.51275 132.792C4.04131 131.922 3.50624 129.064 4.30885 127.697C4.97768 126.205 14.8765 123.844 14.8765 123.844Z" fill="#002B6A"/>
<path d="M6.18152 110.297L3.90747 113.156C3.90747 113.156 3.90747 119.867 3.90747 121.98C3.90747 124.093 4.57631 128.07 4.57631 128.07L12.8699 130.431L17.9531 127.697L15.2778 122.726L16.2141 118.376L15.2778 113.777L6.18152 110.297Z" fill="#002B6A"/>
<path d="M0.696777 118.003L3.77342 116.636C4.17472 116.511 4.57602 116.511 5.11109 116.636L12.7358 120.364C14.0735 121.11 14.8761 122.353 14.8761 123.72V126.081C14.8761 126.703 14.4748 127.2 14.0735 127.448L11.9332 128.443L8.3215 124.838L4.57603 122.85C3.23836 122.104 2.43574 120.861 2.43574 119.494V118.997L0.696777 118.003Z" fill="#FF5252"/>
<path d="M10.3282 128.567L2.16835 124.838C0.830679 124.093 0.0280762 122.85 0.0280762 121.483V119.121C0.0280762 118.127 1.23198 117.506 2.16835 118.003L10.3282 121.731C11.6658 122.477 12.4684 123.72 12.4684 125.087V127.448C12.4684 128.443 11.2645 129.064 10.3282 128.567Z" fill="#B33939"/>
<path d="M3.50586 134.657V121.731C3.50586 120.986 3.77339 120.488 4.44223 120.116L6.58252 121.11V136.77C6.58252 136.77 5.37861 136.77 4.84354 136.521L4.44223 136.397C3.90716 135.9 3.50586 135.278 3.50586 134.657Z" fill="#168CA8"/>
<path d="M15.8123 103.337L16.0799 105.45L15.2773 109.179L13.137 110.297C13.0032 110.297 13.672 103.337 15.8123 103.337Z" fill="#FFAD91"/>
<path d="M14.6086 99.6089L12.8696 98.3661L8.72288 99.2361L6.18131 101.473V108.433L4.30857 110.919L4.1748 114.896L11.1307 118.127L12.4683 117.257L13.9398 114.026L14.0736 107.439L15.2775 103.959L17.0164 103.337L16.2138 100.479L14.6086 99.6089Z" fill="#002B6A"/>
<path d="M17.9527 140.622L16.8826 142.114L18.6216 143.854L20.4943 145.718L21.832 146.464L22.5009 145.345L20.4943 142.114L17.9527 140.622Z" fill="#002B6A"/>
</svg>
