<svg width="160" height="102" viewBox="0 0 160 102" fill="none" xmlns="http://www.w3.org/2000/svg">
<path opacity="0.34" d="M45.3215 72.62L19.8156 87.2362L45.6665 97.4577L59.4175 88.8163C62.7197 89.4583 66.1205 89.9521 69.5952 90.2483L71.8378 101.062L104.958 98.9637L104.811 87.8288C108.458 87.0634 109.887 86.6684 113.14 85.5573L129.774 92.1494L150.77 78.9652L125.215 65.8551L159.001 65.0404L156.34 48.3996L134.457 49.8069C132.904 48.0046 130.957 46.2763 128.665 44.6468L140.371 37.2894L141.899 36.3265L141.652 19.5376L116.048 26.105L56.5096 7.7854L56.756 24.5743L10.6976 27.8086L10.944 44.5974L17.4745 57.9545L2.73779 58.5223L6.16321 75.089L45.3215 72.62ZM77.7275 44.5974C96.6536 43.4123 118.364 50.3254 115.629 59.584C112.918 68.7685 104.244 69.0894 85.3177 70.2992C66.3916 71.4843 48.0569 69.6079 46.948 63.9293C45.1244 54.4239 58.8014 45.7825 77.7275 44.5974Z" fill="#1D99B3"/>
<path d="M17.2503 69.2871L17.3489 82.2737L43.1998 92.4952L56.9508 83.8539C60.253 84.4958 63.6538 84.9896 67.1285 85.2859L69.3711 96.0999L102.492 94.0013L102.344 82.8663C105.991 82.1009 107.42 81.7059 110.673 80.5949L127.308 87.187L148.304 74.0028L147.737 60.6211L156.51 60.0779L156.264 43.289L131.99 44.8691C130.437 43.0668 128.491 41.3385 126.199 39.709L137.904 32.3516L139.432 31.3887L139.186 14.5998L113.581 21.1672L54.0429 2.8476L54.2893 19.6365L8.23088 22.8708L8.47731 39.6597L0 36.7957L0.246434 53.5845L3.67185 70.1512L17.2503 69.2871ZM75.2608 39.635C94.1869 38.4499 115.898 45.3629 113.162 54.6215C110.452 63.806 101.777 64.127 82.851 65.3367C63.9249 66.5218 45.5902 64.6454 44.4813 58.9668C42.633 49.4861 56.3347 40.8448 75.2608 39.635Z" fill="#33B3C4"/>
<path opacity="0.24" d="M39.8475 69.3116L42.9526 75.7309L43.199 92.5198L56.9501 83.8784L56.7037 67.0895L39.8475 69.3116Z" fill="#CCFFFE"/>
<path opacity="0.24" d="M126.962 63.5836L127.085 70.3979L127.332 87.2114L148.328 74.0025L148.082 57.2137L126.962 63.5836Z" fill="#CCFFFE"/>
<path d="M5.89197 53.1894L25.3602 51.9549C26.8388 53.6832 28.6624 55.3127 30.8064 56.8681L18.6326 64.5219L17.1047 65.4848L19.0023 66.2254L41.0581 74.9655L42.9556 75.7062L44.4835 74.7433L56.7066 67.0649C60.0088 67.7068 63.4096 68.2006 66.8843 68.4969L68.8804 78.1011L69.1269 79.3109L71.5419 79.1627L99.8079 77.3851L102.223 77.237L101.976 76.0272L100.03 66.6699C103.677 65.9045 107.152 64.9416 110.429 63.8306L125.166 69.6573L127.063 70.398L128.591 69.4351L146.507 58.1767L148.035 57.2138L146.137 56.4731L131.721 50.7698C133.397 48.77 134.629 46.7208 135.393 44.6221L153.826 43.4618L156.241 43.3136L155.995 42.1038L153.062 27.9567L152.816 26.747L150.401 26.8951L131.746 28.0802C130.193 26.2779 128.246 24.5496 125.954 22.9201L137.66 15.5626L139.188 14.5997L137.29 13.859L115.235 5.11896L113.337 4.37828L111.809 5.34118L99.8325 12.8715C96.4564 12.2295 92.957 11.7605 89.3837 11.4642L87.4123 1.98341L87.1658 0.773621L84.7508 0.921751L56.4848 2.69941L54.0698 2.84754L54.3162 4.05733L56.2877 13.5381C52.7637 14.3281 49.3629 15.2664 46.1839 16.4021L31.1268 10.4519L29.2293 9.7112L27.7014 10.6741L9.78564 21.9325L8.25773 22.8954L10.1553 23.6361L25.1384 29.5616C23.5859 31.4626 22.4277 33.4378 21.6884 35.4377L2.4419 36.6475L0.0268555 36.7956L0.273289 38.0054L3.20586 52.1524L3.45229 53.3622L5.89197 53.1894ZM75.0166 22.846C93.9427 21.6609 110.947 28.3765 112.918 37.8325C114.89 47.2886 101.089 55.9793 82.1386 57.1644C63.2125 58.3495 46.2085 51.634 44.2371 42.1779C42.2656 32.7218 56.0659 24.0558 75.0166 22.846Z" fill="#63F2FF"/>
<path opacity="0.34" d="M44.6528 49.1899L44.7267 57.4609L61.1639 63.9789L69.9123 58.4732C72.007 58.8929 71.8098 64.3493 71.8098 64.3493L77.7981 66.2751L98.8682 64.9418L98.7697 57.8559C101.086 57.3622 101.998 57.1153 104.068 56.3993L108.652 58.646L119.519 57.5103L127.997 52.1774L127.627 43.6595L133.221 43.3139L133.073 32.6233L117.622 33.6109C116.636 32.4505 115.404 31.3641 113.95 30.3272L121.392 25.6362L122.378 25.0189L122.23 14.3284L105.941 18.5009L68.064 6.84747L68.2119 17.538L38.9109 19.5872L39.0587 30.2778L33.6619 28.4508L33.8097 39.1413L36.003 49.6837L44.6528 49.1899ZM81.5439 30.3272C93.5945 29.5618 107.395 33.9565 105.645 39.8573C103.92 45.7087 98.4 45.9062 86.374 46.6716C74.3234 47.437 62.6671 46.2272 61.9771 42.6225C60.7942 36.5983 69.4933 31.0925 81.5439 30.3272Z" fill="#1D99B3"/>
<path d="M38.6388 47.2641L38.7127 55.5351L55.1499 62.0531L63.8983 56.5474C65.9929 56.9671 68.1616 57.2634 70.3795 57.4609L71.8088 64.3493L92.8789 63.016L92.7803 55.9302C95.0968 55.4364 96.0086 55.1895 98.0786 54.4735L108.651 58.6707L122.007 50.2762L121.638 41.7584L127.232 41.4127L127.084 30.7222L111.632 31.7097C110.647 30.5493 109.415 29.463 107.961 28.426L115.403 23.735L116.389 23.1178L116.241 12.4272L99.9515 16.5997L62.0746 4.94629L62.2225 15.6368L32.9215 17.6861L33.0694 28.3767L27.6725 26.5496L27.8203 37.2402L30.0136 47.7826L38.6388 47.2641ZM75.5546 28.4013C87.6052 27.636 101.405 32.0307 99.6558 37.9315C97.9308 43.7829 92.4107 43.9804 80.3847 44.7458C68.3341 45.5112 56.6778 44.3014 55.9877 40.6967C54.8049 34.6725 63.504 29.1667 75.5546 28.4013Z" fill="#33B3C4"/>
<path d="M53.0297 47.2886L55.0011 51.3624L55.149 62.0529L63.922 56.5472L63.7495 45.8566L53.0297 47.2886Z" fill="#CCFFFE"/>
<path opacity="0.24" d="M108.453 43.6347L108.527 47.9801L108.674 58.6707L122.031 50.2762L121.883 39.5856L108.453 43.6347Z" fill="#CCFFFE"/>
<path d="M31.4188 37.018L43.8144 36.228C44.7509 37.3143 45.9091 38.3759 47.2891 39.3388L39.5511 44.2027L38.5654 44.8199L39.7729 45.289L53.8196 50.8442L55.0272 51.3133L56.0129 50.696L63.8002 45.8075C65.8949 46.2272 68.0635 46.5235 70.2814 46.721L71.5382 52.8193L71.6861 53.5847L73.2386 53.4859L91.2283 52.3502L92.7808 52.2515L92.6329 51.4861L91.4008 45.5359C93.7173 45.0421 95.9352 44.4496 98.0052 43.7336L107.394 47.437L108.602 47.9061L109.588 47.2889L120.997 40.1289L121.983 39.5117L120.776 39.0426L111.608 35.4132C112.668 34.1541 113.457 32.8455 113.949 31.4876L125.68 30.7469L127.232 30.6481L127.084 29.8828L125.212 20.8958L125.064 20.1304L123.511 20.2292L111.633 20.9698C110.647 19.8094 109.415 18.7231 107.961 17.6861L115.403 12.9951L116.389 12.3779L115.182 11.9088L101.135 6.35363L99.9274 5.88452L98.9417 6.50176L91.3269 11.2915C89.1829 10.8965 86.9403 10.5755 84.6732 10.4027L83.4163 4.37847L83.2685 3.6131L81.716 3.71186L63.7263 4.84757L62.1737 4.94634L62.3216 5.71171L63.5784 11.736C61.3359 12.2297 59.1672 12.847 57.1465 13.563L47.5602 9.78548L46.3527 9.31637L45.367 9.93361L33.9571 17.0936L32.9713 17.7108L34.1789 18.1799L43.7158 21.9574C42.7301 23.1672 41.9908 24.4264 41.5226 25.7102L29.2748 26.4756L27.7223 26.5744L27.8702 27.3397L29.7431 36.3267L29.8909 37.0921L31.4188 37.018ZM75.4072 17.7108C87.4578 16.9454 98.2763 21.2414 99.5085 27.241C100.765 33.2652 91.9676 38.771 79.917 39.5364C67.8664 40.3017 57.0479 36.0058 55.8157 30.0062C54.5589 24.0067 63.3566 18.4762 75.4072 17.7108Z" fill="#63F2FF"/>
<path opacity="0.37" d="M66.4148 44.5731C68.5379 44.5731 70.2591 43.6335 70.2591 42.4744C70.2591 41.3154 68.5379 40.3758 66.4148 40.3758C64.2916 40.3758 62.5704 41.3154 62.5704 42.4744C62.5704 43.6335 64.2916 44.5731 66.4148 44.5731Z" fill="#00638B"/>
<path d="M68.7802 40.3509C70.3821 41.2397 70.3821 42.6717 68.7802 43.5358C67.1784 44.4246 64.5661 44.4246 62.9397 43.5358C61.3378 42.647 61.3378 41.215 62.9397 40.3509C64.5661 39.4868 67.1784 39.4868 68.7802 40.3509Z" fill="#9CEAE8"/>
<path d="M65.8729 43.9804C68.1458 43.9804 69.9883 42.9745 69.9883 41.7337C69.9883 40.4928 68.1458 39.4869 65.8729 39.4869C63.6 39.4869 61.7574 40.4928 61.7574 41.7337C61.7574 42.9745 63.6 43.9804 65.8729 43.9804Z" fill="white"/>
<path opacity="0.63" d="M67.7208 40.6227C68.7558 41.1905 68.7558 42.1288 67.7208 42.6966C66.6858 43.2645 64.9854 43.2645 63.9257 42.6966C62.8907 42.1288 62.8907 41.1905 63.9257 40.6227C64.9854 40.0548 66.6611 40.0548 67.7208 40.6227Z" fill="#D6FFF8"/>
<path d="M67.7698 40.8447C68.6077 41.2891 68.6077 42.0298 67.7698 42.4989C66.9319 42.9433 65.6012 42.9433 64.7633 42.4989C63.9254 42.0545 63.9254 41.3138 64.7633 40.8447C65.6012 40.4003 66.9319 40.4003 67.7698 40.8447Z" fill="#9CEAE8"/>
<path d="M67.4248 39.8077C67.3263 39.8077 67.2277 39.7583 67.1784 39.6595C67.1045 39.5361 67.1784 39.3879 67.3016 39.3385C67.3016 39.3385 67.8191 39.1163 68.1641 38.7707C68.5091 38.4497 68.6323 38.1287 68.5584 37.8078C68.5091 37.6596 68.4352 37.6349 68.4106 37.6349C68.2873 37.6103 68.0163 37.709 67.7452 37.9806C67.6466 38.0793 67.4741 38.1041 67.3755 38.0053C67.277 37.9065 67.2523 37.7584 67.3509 37.6596C67.7205 37.2646 68.1641 37.0671 68.5338 37.1411C68.8048 37.1905 68.9773 37.388 69.0759 37.6843C69.1991 38.1781 69.0266 38.6472 68.5584 39.1163C68.1395 39.5114 67.5727 39.783 67.5481 39.783C67.4988 39.8077 67.4495 39.8077 67.4248 39.8077Z" fill="#D6FFF8"/>
<path d="M67.8935 37.808C69.0271 38.4252 69.0271 39.4128 67.8935 40.03C66.7598 40.6472 64.9609 40.6472 63.8273 40.03C62.6936 39.4128 62.6936 38.4252 63.8273 37.808C64.9362 37.1908 66.7598 37.1908 67.8935 37.808Z" fill="#9CEAE8"/>
<path d="M63.8273 37.808C62.6936 38.4252 62.6936 39.4128 63.8273 40.03C64.9609 40.6472 66.7598 40.6472 67.8935 40.03C69.0271 39.4128 69.0271 38.4252 67.8935 37.808C66.7598 37.1908 64.9362 37.1908 63.8273 37.808ZM67.6224 39.8819C66.6366 40.425 65.0594 40.425 64.0737 39.8819C63.0879 39.3387 63.0879 38.4746 64.0737 37.9315C65.0594 37.3883 66.6366 37.3883 67.6224 37.9315C68.6081 38.4746 68.6081 39.3387 67.6224 39.8819Z" fill="#FCDEA9"/>
<path d="M63.8273 37.808C62.6936 38.4252 62.6936 39.4128 63.8273 40.03C64.9609 40.6472 66.7598 40.6472 67.8935 40.03C69.0271 39.4128 69.0271 38.4252 67.8935 37.808C66.7598 37.1908 64.9362 37.1908 63.8273 37.808ZM67.6224 39.8819C66.6366 40.425 65.0594 40.425 64.0737 39.8819C63.0879 39.3387 63.0879 38.4746 64.0737 37.9315C65.0594 37.3883 66.6366 37.3883 67.6224 37.9315C68.6081 38.4746 68.6081 39.3387 67.6224 39.8819Z" fill="white"/>
<path opacity="0.5" d="M65.8461 40.3508C65.0822 40.3508 64.3922 40.2026 63.85 39.9063C63.3325 39.6348 63.0614 39.2644 63.0614 38.8694C63.0614 38.4743 63.3571 38.104 63.85 37.8324C64.3922 37.5361 65.0822 37.388 65.8461 37.388C66.61 37.388 67.3 37.5361 67.8422 37.8324C68.3597 38.104 68.6308 38.4743 68.6308 38.8694C68.6308 39.2644 68.3351 39.6348 67.8422 39.9063C67.3 40.2026 66.61 40.3508 65.8461 40.3508ZM65.8461 37.4127C65.1561 37.4127 64.4661 37.5361 63.9979 37.8077C63.505 38.0793 63.2093 38.4496 63.2093 38.8447C63.2093 39.2397 63.5543 39.6348 64.0471 39.9063C64.54 40.1779 65.1807 40.3261 65.8707 40.3261C66.5608 40.3261 67.2261 40.1779 67.719 39.9063C68.2119 39.6348 68.5569 39.2891 68.5569 38.8941C68.5569 38.499 68.2611 38.104 67.7683 37.8324C67.2261 37.5608 66.5361 37.4127 65.8461 37.4127Z" fill="#F3F5F6"/>
<path d="M67.8932 40.0298C66.7596 40.6471 64.9606 40.6471 63.827 40.0298C63.4081 39.8076 63.1617 39.5361 63.0385 39.2398C63.1617 40.2521 64.3199 42.0544 64.8621 42.2519C65.5028 42.4741 66.3407 42.5482 66.9567 42.2766C67.5975 42.005 68.6818 40.0792 68.7064 39.067C68.6325 39.4126 68.3614 39.7583 67.8932 40.0298Z" fill="#D6FFF8"/>
<path d="M64.0992 38.8942C63.9021 38.9929 63.6064 39.2645 63.4832 39.3879C63.631 39.5608 63.8774 39.783 64.0746 39.8817C65.0603 40.4249 66.7607 40.4002 67.6232 39.8817C68.0175 39.6348 68.1407 39.462 68.264 39.2892C68.1407 39.1657 67.8697 38.9682 67.6725 38.8695C66.6868 38.351 65.085 38.351 64.0992 38.8942Z" fill="#863E29"/>
<path opacity="0.3" d="M68.1892 39.3879C67.6963 38.9681 66.4395 38.499 65.9713 38.6965C65.8481 38.7706 65.6756 39.0669 65.9467 39.2644C66.0699 39.3632 66.2917 39.536 66.1438 39.7336C65.9713 39.9558 65.6017 39.9805 65.3306 40.0051C65.232 40.0051 64.6899 39.9805 64.5913 40.1039C65.6017 40.4249 66.8338 40.3014 67.6224 39.8817C67.7456 39.8076 67.8442 39.7335 67.9428 39.6595C68.1399 39.4866 68.1892 39.3879 68.1892 39.3879Z" fill="#E9ECEE"/>
<path d="M68.1658 37.2646C68.1658 37.2646 68.0426 37.2153 67.8454 37.3881C67.6236 37.561 67.8454 37.5857 67.8454 37.5857C67.8454 37.5857 68.0179 37.6104 68.2151 37.4622C68.4122 37.3634 68.1658 37.2646 68.1658 37.2646Z" fill="white"/>
<path opacity="0.3" d="M66.6352 37.4622C66.6352 37.4622 66.4134 36.2031 67.9906 35.1414C69.4939 34.1538 68.5081 31.2405 68.5081 31.2405C68.5081 31.2405 67.1774 32.6478 67.0788 33.0428C66.931 33.7094 67.6703 34.1785 66.4381 35.6352C65.7481 36.4747 66.1916 37.3882 66.1916 37.3882C66.1916 37.3882 65.7481 36.8697 65.5756 36.4006C65.4031 35.9068 65.3784 34.7958 65.8959 33.6354C66.6352 32.0059 68.3603 31.3393 69.3214 28.5247C70.2086 25.9323 68.7792 24.4509 67.5963 23.9324C64.7869 22.6979 67.0049 16.5256 67.0049 16.5256C67.0049 16.5256 64.2694 19.8093 63.6533 21.2906C63.0372 22.7473 61.6818 25.5619 65.1812 27.858C67.1527 29.1666 65.8713 30.5492 64.7623 33.0675C63.6533 35.6105 65.7234 37.4622 65.7234 37.4622C66.0191 37.561 66.2902 37.6104 66.6352 37.4622Z" fill="white"/>
</svg>
