<svg width="449" height="255" viewBox="0 0 449 255" fill="none" xmlns="http://www.w3.org/2000/svg">
<path opacity="0.23" d="M109.26 214.139L195.908 255L267.988 253.306L151.61 202.029L109.26 214.139Z" fill="#00638E"/>
<path d="M55.055 148.581L55.8173 150.613L80.7191 138.207L83.5989 134.1L76.3994 124.064L76.4841 121.905L85.5046 117.416L83.5989 110.515L73.9854 106.28C72.9267 103.994 71.6985 101.792 70.2163 99.7171L72.5455 91.1215L66.9977 85.3629L59.9676 89.0891C58.0195 87.6494 56.5796 86.7602 54.5468 85.7863L49.3378 74.7348L43.3664 73.6763L31.7202 79.4349L29.2216 77.5718L4.31982 89.9783C3.81162 91.672 19.0576 101.834 19.0576 101.834L0.00012207 111.319L14.1027 113.479C15.1614 115.765 23.2502 132.363 24.7325 134.438L18.38 143.246L31.5508 136.682L42.0959 155.059L55.055 148.581Z" fill="#9FEDEB"/>
<path d="M31.1699 105.01C31.297 105.137 31.7205 105.56 32.271 106.238C34.812 109.244 40.741 116.612 40.741 116.612C40.741 116.612 50.5238 124.869 42.0538 130.416C33.5839 135.963 41.1222 138.757 34.7273 136.64C28.3325 134.523 28.3325 134.523 28.3325 134.523L23.5046 130.119L19.5237 122.921L18.4226 115.553L19.5237 108.313L31.1699 105.01Z" fill="#168CA8"/>
<path opacity="0.31" d="M14.78 132.363L39.7241 119.957L49.3375 124.191L24.3935 136.597L14.78 132.363Z" fill="#33B3C4"/>
<path d="M42.0957 155.017L41.4604 144.897C43.1968 144.728 44.8061 144.262 46.1613 143.5L55.817 150.613L58.6968 146.506L51.4974 136.471C52.0056 134.777 52.2173 132.914 52.1749 130.839L60.6026 129.823L58.6968 122.921L49.0834 118.687C48.0247 116.4 46.7965 114.199 45.3143 112.124L47.6435 103.528L42.0957 97.8966L35.6161 101.962C33.6681 100.522 31.6776 99.2516 29.6448 98.32L24.4358 87.2685L18.4644 86.21L19.015 96.1182C17.2786 96.2876 15.6693 96.7533 14.3142 97.5155L4.31958 90.1055L1.43979 94.2128L8.97806 104.544C8.46986 106.238 8.25811 108.101 8.30046 110.176L0.0422363 111.404L1.94798 118.306L11.392 122.328C12.4508 124.615 13.6789 126.817 15.1611 128.892L12.8743 137.657L18.4221 143.288L24.8593 139.054C26.8074 140.493 28.7978 141.764 30.8306 142.738L36.1667 154.043L42.0957 155.017ZM33.0752 130.839C28.1202 129.95 22.7841 124.53 21.2172 118.772C19.6502 113.013 22.3606 109.075 27.3579 109.964C32.3129 110.853 37.6489 116.273 39.2159 122.032C40.7828 127.791 38.0301 131.729 33.0752 130.839Z" fill="#33B3C4"/>
<path d="M66.9977 85.3628L42.0959 97.7692L47.6438 103.443L72.5455 91.0367L66.9977 85.3628Z" fill="#E6FFFE"/>
<path d="M49.0836 118.645L73.9854 106.238L83.5988 110.473L58.6971 122.879L49.0836 118.645Z" fill="#E6FFFE"/>
<path d="M49.3378 74.7349L24.3937 87.1414L18.4647 86.0405L43.3664 73.634L49.3378 74.7349Z" fill="#E6FFFE"/>
<path d="M51.4973 136.471L58.6968 146.506L83.5985 134.099L76.399 124.064L51.4973 136.471Z" fill="#E6FFFE"/>
<path d="M153.603 149.47L155.17 153.535L204.846 128.764L210.563 120.55L196.207 100.522L196.376 96.2029L214.375 87.2262L210.563 73.4224L191.379 64.9539C189.304 60.4232 186.805 55.9772 183.883 51.8276L188.499 34.6788L177.403 23.4156L163.343 30.8256C159.489 27.9039 156.61 26.1679 152.544 24.2201L142.126 2.15949L130.226 0L106.976 11.5173L101.978 7.79108L52.3865 32.5616C51.4124 35.9067 81.7773 56.1889 81.7773 56.1889L43.8318 75.0738L71.9945 79.3504C74.0696 83.8811 90.2896 116.993 93.1694 121.185L80.5492 138.757L106.806 125.673L127.812 162.342L153.603 149.47Z" fill="#9FEDEB"/>
<path d="M81.608 74.9042L105.366 68.7222L120.739 81.171L126.753 106.534L119.892 120.126L104.223 120.804C104.223 120.804 103.926 128.087 96.2188 113.606C88.5111 99.1243 88.5111 99.1243 88.5111 99.1243L79.1094 85.5746L81.608 74.9042Z" fill="#168CA8"/>
<path opacity="0.31" d="M73.3501 117.12L123.026 92.3918L142.211 100.86L92.5346 125.589L73.3501 117.12Z" fill="#33B3C4"/>
<path d="M127.812 162.343L126.499 142.103C130.014 141.764 133.148 140.832 135.901 139.308L155.17 153.493L160.887 145.278L146.53 125.25C147.504 121.905 147.97 118.137 147.886 114.029L164.699 111.955L160.887 98.1509L141.703 89.6823C139.627 85.1516 137.129 80.7056 134.207 76.556L138.823 59.4072L127.769 48.144L114.853 56.2738C110.999 53.3522 107.018 50.8963 102.952 48.9908L92.5343 26.9302L80.634 24.7708L81.6927 44.5449C78.1777 44.8836 75.0438 45.8151 72.2911 47.2971L52.3866 32.5618L46.6694 40.7763L61.7036 61.3549C60.7295 64.7 60.2637 68.4685 60.3484 72.5758L43.8319 75.074L47.6434 88.8778L66.4891 96.9229C68.5643 101.454 71.0629 105.9 73.9851 110.049L69.4536 127.494L80.5493 138.758L93.3813 130.374C97.2351 133.295 101.216 135.751 105.282 137.699L115.911 160.225L127.812 162.343ZM109.813 114.072C99.9032 112.293 89.3157 101.538 86.1818 90.021C83.0056 78.5461 88.4687 70.6704 98.3786 72.4911C108.288 74.2695 118.876 85.0246 122.01 96.5418C125.186 108.017 119.723 115.892 109.813 114.072Z" fill="#33B3C4"/>
<path d="M177.446 23.4155L127.77 48.1437L138.865 59.4069L188.542 34.6787L177.446 23.4155Z" fill="#E6FFFE"/>
<path d="M141.703 89.7244L191.379 64.9539L210.564 73.4224L160.887 98.193L141.703 89.7244Z" fill="#E6FFFE"/>
<path d="M142.211 2.15949L92.5342 26.8877L80.6339 24.7282L130.31 0L142.211 2.15949Z" fill="#E6FFFE"/>
<path d="M146.53 125.25L160.887 145.278L210.563 120.55L196.207 100.522L146.53 125.25Z" fill="#E6FFFE"/>
<path d="M222.252 169.88L223.311 172.674L257.487 155.653L261.425 149.979L251.558 136.217L251.685 133.253L264.051 127.071L261.425 117.586L248.255 111.785C246.815 108.652 245.078 105.646 243.13 102.766L246.307 90.9528L238.684 83.204L229.028 88.3275C226.36 86.3374 224.412 85.1095 221.617 83.7968L214.459 68.5958L206.286 67.1138L190.278 75.0319L186.847 72.4913L152.671 89.5131C151.993 91.842 172.914 105.773 172.914 105.773L146.784 118.772L166.138 121.736C167.578 124.869 178.716 147.65 180.707 150.487L172.025 162.554L190.066 153.578L204.507 178.772L222.252 169.88Z" fill="#9FEDEB"/>
<path d="M171.136 116.867L186.085 110.981L199.552 124.319L203.787 141.722L197.435 151.63L187.567 150.656L181.427 146.549L176.133 136.217L171.136 116.867Z" fill="#168CA8"/>
<path opacity="0.31" d="M167.07 147.65L201.247 130.628L214.417 136.429L180.241 153.451L167.07 147.65Z" fill="#33B3C4"/>
<path d="M204.508 178.729L203.618 164.841C206.032 164.629 208.192 163.952 210.056 162.935L223.311 172.674L227.25 167L217.382 153.239C218.06 150.91 218.398 148.327 218.314 145.49L229.875 144.093L227.25 134.608L214.079 128.807C212.639 125.674 210.903 122.667 208.954 119.788L212.131 107.974L204.508 100.226L195.614 105.815C192.946 103.825 190.236 102.131 187.441 100.819L180.284 85.6175L172.11 84.1355L172.83 97.7275C170.416 97.9393 168.256 98.5744 166.35 99.633L152.629 89.513L148.691 95.187L159.024 109.329C158.346 111.658 158.008 114.241 158.092 117.036L146.742 118.73L149.368 128.214L162.327 133.761C163.767 136.895 165.503 139.901 167.452 142.78L164.318 154.806L171.941 162.554L180.749 156.796C183.417 158.786 186.128 160.522 188.923 161.835L196.249 177.332L204.508 178.729ZM192.142 145.533C185.323 144.305 178.039 136.895 175.879 129.019C173.719 121.143 177.446 115.723 184.264 116.951C191.083 118.179 198.367 125.589 200.527 133.465C202.729 141.383 198.96 146.803 192.142 145.533Z" fill="#33B3C4"/>
<path d="M238.684 83.2041L204.508 100.184L212.131 107.932L246.307 90.9528L238.684 83.2041Z" fill="#E6FFFE"/>
<path d="M214.079 128.807L248.255 111.786L261.426 117.587L227.25 134.608L214.079 128.807Z" fill="#E6FFFE"/>
<path d="M214.418 68.5534L180.241 85.5752L172.068 84.0932L206.244 67.1138L214.418 68.5534Z" fill="#E6FFFE"/>
<path d="M217.382 153.239L227.25 167L261.426 149.978L251.559 136.217L217.382 153.239Z" fill="#E6FFFE"/>
<path d="M182.02 79.1384L182.782 81.1708L207.684 68.7644L210.564 64.6571L203.364 54.6219L203.449 52.4624L212.469 47.974L210.564 41.0722L200.95 36.8379C199.891 34.5514 198.663 32.3495 197.181 30.2747L199.51 21.6791L193.962 15.9205L186.932 19.6467C184.984 18.207 183.544 17.3178 181.512 16.3439L176.302 5.29246L170.331 4.23389L158.685 9.95017L156.186 8.08709L131.285 20.4935C130.776 22.1873 146.022 32.3495 146.022 32.3495L126.965 41.8343L141.067 43.9938C142.126 46.2803 150.215 62.8787 151.697 64.9535L145.345 73.7608L158.516 67.1977L169.061 85.5745L182.02 79.1384Z" fill="#9FEDEB"/>
<path d="M158.135 35.5256C158.262 35.6527 158.685 36.0761 159.236 36.7536C161.777 39.7599 167.706 47.1276 167.706 47.1276C167.706 47.1276 177.489 55.3844 169.019 60.9314C160.549 66.4783 168.087 69.2729 161.692 67.1558C155.297 65.0386 155.297 65.0386 155.297 65.0386L150.469 60.635L146.488 53.4367L145.387 46.069L146.488 38.8284L158.135 35.5256Z" fill="#168CA8"/>
<path opacity="0.31" d="M141.787 62.9213L166.689 50.5149L176.302 54.7492L151.4 67.1556L141.787 62.9213Z" fill="#33B3C4"/>
<path d="M169.06 85.5754L168.425 75.4555C170.161 75.2861 171.771 74.8203 173.126 74.0581L182.782 81.1717L185.662 77.0645L178.462 67.0292C178.97 65.3355 179.182 63.4724 179.14 61.3976L187.567 60.3814L185.662 53.4795L176.048 49.2453C174.989 46.9587 173.761 44.7569 172.279 42.6821L174.608 34.0865L169.06 28.4549L162.581 32.5198C160.633 31.0802 158.642 29.8099 156.61 28.8784L151.4 17.8269L145.429 16.7683L145.98 26.6765C144.243 26.8459 142.634 27.3117 141.279 28.0738L131.284 20.6638L128.404 24.7711L135.943 35.1027C135.435 36.7965 135.223 38.6595 135.265 40.7343L127.007 41.9623L128.913 48.8642L138.357 52.8867C139.415 55.1732 140.644 57.3751 142.126 59.4499L139.839 68.2148L145.387 73.8464L151.824 69.6121C153.772 71.0518 155.763 72.3221 157.795 73.296L163.131 84.6015L169.06 85.5754ZM160.04 61.3976C155.085 60.5084 149.749 55.0886 148.182 49.3299C146.615 43.5713 149.325 39.6334 154.323 40.5226C159.278 41.4118 164.614 46.8317 166.181 52.5903C167.748 58.349 165.037 62.2868 160.04 61.3976Z" fill="#33B3C4"/>
<path d="M193.962 15.9211L169.06 28.3276L174.608 34.0015L199.552 21.5951L193.962 15.9211Z" fill="#E6FFFE"/>
<path d="M176.049 49.1603L200.951 36.7539L210.564 41.0305L185.662 53.437L176.049 49.1603Z" fill="#E6FFFE"/>
<path d="M176.303 5.29305L151.401 17.6995L145.429 16.5986L170.331 4.19214L176.303 5.29305Z" fill="#E6FFFE"/>
<path d="M178.462 66.9868L185.662 77.0644L210.564 64.6579L203.364 54.5803L178.462 66.9868Z" fill="#E6FFFE"/>
<path d="M118.028 65.7584C150.511 85.1938 176.302 131.474 175.624 169.117C175.285 187.748 168.509 200.79 157.837 206.845L137.509 216.711C130.31 215.991 123.788 207.056 115.529 202.145C83.0471 182.709 57.256 136.429 57.9336 98.7858C58.1454 86.8875 55.1385 75.963 59.9241 68.9765L82.2848 58.3061C92.3641 55.5961 104.73 57.798 118.028 65.7584Z" fill="#FF815A"/>
<path d="M142.538 214.529C165.897 201.43 166.503 158.138 143.894 117.835C121.285 77.5308 84.0207 55.4769 60.6626 68.5758C37.3045 81.6747 36.6976 124.966 59.307 165.27C81.9164 205.574 119.18 227.628 142.538 214.529Z" fill="#D84021"/>
<path d="M102.74 195.708C76.949 180.295 56.494 143.542 57.0445 113.648C57.3833 95.906 65.0487 84.6004 76.6525 81.5518C62.423 82.4833 52.5978 94.3393 52.259 114.452C51.7085 144.346 72.2058 181.1 97.9969 196.512C108.457 202.779 118.198 204.473 126.075 202.398C119.129 202.822 111.21 200.747 102.74 195.708Z" fill="#D3C5DD"/>
<path d="M104.73 87.4375C94.27 81.1707 84.5295 79.477 76.6524 81.5518C65.0909 84.6005 57.3832 95.906 57.0444 113.648C56.4939 143.542 76.9912 180.295 102.782 195.708C111.21 200.747 119.172 202.822 126.075 202.398C140.304 201.467 150.129 189.611 150.468 169.498C150.976 139.604 130.521 102.85 104.73 87.4375Z" fill="white"/>
<path d="M101.809 95.3135C103.757 96.4991 105.324 99.2514 105.281 101.538C105.239 103.782 103.63 104.671 101.682 103.528C99.7336 102.342 98.1666 99.5902 98.209 97.346C98.2513 95.0171 99.8606 94.1279 101.809 95.3135Z" fill="#460F00"/>
<path d="M100.283 179.618C102.232 180.804 103.798 183.556 103.756 185.843C103.714 188.087 102.104 188.976 100.156 187.833C98.2083 186.647 96.6414 183.895 96.6837 181.651C96.726 179.322 98.3353 178.433 100.283 179.618Z" fill="#460F00"/>
<path d="M64.667 115.723C66.615 116.866 68.1396 119.661 68.0973 121.905C68.0549 124.149 66.4456 125.038 64.4975 123.895C62.5495 122.709 60.9825 119.957 61.0249 117.671C61.1096 115.426 62.7189 114.537 64.667 115.723Z" fill="#460F00"/>
<path d="M137.425 159.166C139.373 160.352 140.94 163.104 140.897 165.391C140.855 167.635 139.246 168.524 137.298 167.381C135.349 166.238 133.825 163.443 133.867 161.199C133.867 158.912 135.476 158.023 137.425 159.166Z" fill="#460F00"/>
<path d="M101.13 106.026C102.358 106.746 103.29 108.482 103.29 109.879L103.248 144.431C103.248 145.109 101.765 144.135 101.342 144.389C101.342 144.389 71.6122 125.885 71.1887 125.123C70.3417 123.641 70.3417 120.508 72.2474 121.651L99.0973 138.673L98.8855 107.254C98.9279 105.899 99.9443 105.306 101.13 106.026Z" fill="#801B00"/>
<path d="M101.215 135.666C104.053 137.36 106.255 141.34 106.213 144.601C106.17 147.861 103.841 149.131 101.004 147.438C98.1661 145.744 95.9639 141.764 96.0062 138.503C96.0486 135.243 98.3778 133.973 101.215 135.666Z" fill="#EF3200"/>
<path d="M101.131 139.943C101.893 140.408 102.528 141.509 102.528 142.398C102.528 143.288 101.851 143.669 101.088 143.203C100.326 142.737 99.6907 141.636 99.6907 140.747C99.6907 139.816 100.326 139.477 101.131 139.943Z" fill="white"/>
<g opacity="0.27">
<g opacity="0.27">
<path opacity="0.27" d="M244.667 203.773L357.826 142.121C361.214 140.428 371.801 145.848 375.147 147.541L446.464 183.363C449.81 185.057 449.81 187.809 446.422 189.461L322.463 251.324C319.075 253.017 313.612 253.017 310.267 251.324L238.949 215.502C225.694 207.287 241.279 205.466 244.667 203.773Z" fill="#00638E"/>
</g>
<g opacity="0.27">
<path opacity="0.27" d="M244.667 203.773L357.826 142.121C361.214 140.428 371.801 145.848 375.147 147.541L446.464 183.363C449.81 185.057 449.81 187.809 446.422 189.461L322.463 251.324C319.075 253.017 313.612 253.017 310.267 251.324L238.949 215.502C225.694 207.287 241.279 205.466 244.667 203.773Z" fill="#00638E"/>
</g>
</g>
<path d="M235.731 207.71L307.048 243.533C310.394 245.226 315.899 245.226 319.245 243.533L443.33 181.67C445.024 180.823 445.871 179.722 445.871 178.579C445.871 180.611 445.871 182.644 445.913 184.676C445.913 185.777 445.066 186.92 443.372 187.767L319.33 249.63C315.984 251.324 310.478 251.324 307.133 249.63L235.816 213.808C234.164 212.961 233.317 211.86 233.317 210.759C233.317 208.727 233.317 206.694 233.317 204.662C233.275 205.805 234.079 206.906 235.731 207.71Z" fill="#168CA8"/>
<path d="M235.816 201.655L359.816 139.793C363.204 138.099 368.667 138.099 372.013 139.793L443.33 175.615C446.676 177.308 446.676 180.061 443.288 181.712L319.287 243.575C315.899 245.268 310.267 245.268 306.921 243.575L235.773 207.753C232.428 206.101 232.428 203.349 235.816 201.655Z" fill="#3DBFC9"/>
<path opacity="0.57" d="M388.741 178.197L388.783 179.171L371.886 187.555L330.213 208.261L329.366 207.88V208.684L314.29 216.179L313.485 215.798L313.528 216.56L293.92 226.638L286.169 222.7V220.583L284.475 221.853L267.747 213.384V210.717L265.079 212.029L257.668 208.261L257.626 206.228L256.059 207.456L248.266 203.391V200.681L257.837 195.939L259.658 196.871V195.05L269.23 190.265L271.051 191.197V189.376L280.579 184.633L282.443 185.65V183.702L291.971 178.96L293.792 180.06V178.07L303.364 173.286L305.354 174.556L305.185 172.396L314.756 167.654L316.661 168.967L316.577 166.722L326.148 161.98L327.969 163.166V161.091L337.54 156.306L339.403 157.238L339.361 155.417L348.974 150.674L350.584 152.495L350.753 149.828L364.644 142.841L372.436 146.779V148.515L374.173 147.668L381.923 151.564V153.3L383.659 152.453L391.409 156.391V158.127L393.145 157.238L400.895 161.176V162.954L402.674 162.065L410.424 166.003L410.339 168.458L389.757 178.705L388.741 178.197Z" fill="#168CA8"/>
<path d="M295.656 186.666L303.406 190.562L312.977 185.819L305.227 181.881L295.656 186.666Z" fill="#70E2E5"/>
<path d="M286.253 219.905L294.003 223.843L313.739 214.02L305.988 210.124L286.253 219.905Z" fill="#70E2E5"/>
<path d="M259.658 195.05L267.408 198.946L276.979 194.203L269.229 190.265L259.658 195.05Z" fill="#70E2E5"/>
<path d="M279.944 203.984L287.694 207.88L297.265 203.137L289.515 199.199L279.944 203.984Z" fill="#70E2E5"/>
<path d="M290.743 198.607L298.451 202.545L308.065 197.802L300.272 193.865L290.743 198.607Z" fill="#70E2E5"/>
<path d="M273.888 197.464L281.638 201.402L291.209 196.659L283.459 192.721L273.888 197.464Z" fill="#70E2E5"/>
<path d="M248.266 200.682L256.017 204.577L265.588 199.835L257.838 195.897L248.266 200.682Z" fill="#70E2E5"/>
<path d="M301.5 193.271L309.25 197.209L318.821 192.424L311.071 188.529L301.5 193.271Z" fill="#70E2E5"/>
<path d="M304.888 201.105L312.638 205.043L322.209 200.258L314.459 196.362L304.888 201.105Z" fill="#70E2E5"/>
<path d="M294.131 206.44L301.881 210.378L311.452 205.636L303.702 201.698L294.131 206.44Z" fill="#70E2E5"/>
<path d="M315.518 195.812L323.268 199.75L332.839 194.965L325.089 191.07L315.518 195.812Z" fill="#70E2E5"/>
<path d="M257.752 205.467L265.502 209.405L280.325 202.037L272.575 198.141L257.752 205.467Z" fill="#70E2E5"/>
<path d="M267.747 210.548L276.725 215.078L281.892 217.704L284.475 219.016L300.61 210.971L292.86 207.076L287.905 209.531L278.927 205.001L267.747 210.548Z" fill="#70E2E5"/>
<path d="M306.963 209.658L314.713 213.554L329.663 206.144L321.913 202.206L306.963 209.658Z" fill="#70E2E5"/>
<path d="M350.753 149.828L358.503 153.766L372.436 146.779L364.643 142.841L350.753 149.828Z" fill="#70E2E5"/>
<path d="M339.233 164.987L346.983 168.925L356.554 164.182L348.804 160.244L339.233 164.987Z" fill="#70E2E5"/>
<path d="M293.793 178.07L301.543 181.966L311.114 177.224L303.364 173.286L293.793 178.07Z" fill="#70E2E5"/>
<path d="M306.54 181.247L314.29 185.142L323.861 180.4L316.111 176.504L306.54 181.247Z" fill="#70E2E5"/>
<path d="M322.887 201.74L330.637 205.636L372.648 184.761L364.898 180.865L322.887 201.74Z" fill="#70E2E5"/>
<path d="M339.361 155.417L347.153 159.355L356.682 154.57L348.974 150.675L339.361 155.417Z" fill="#70E2E5"/>
<path d="M369.599 168.967L377.349 172.863L400.895 161.176L393.145 157.238L369.599 168.967Z" fill="#70E2E5"/>
<path d="M305.184 172.396L312.977 176.292L322.548 171.55L314.755 167.654L305.184 172.396Z" fill="#70E2E5"/>
<path d="M344.528 171.888L352.278 175.783L361.849 171.041L354.099 167.146L344.528 171.888Z" fill="#70E2E5"/>
<path d="M382.431 172.143L390.181 176.081L410.424 166.003L402.674 162.065L382.431 172.143Z" fill="#70E2E5"/>
<path d="M317.254 175.742L325.004 179.68L334.575 174.937L326.825 171L317.254 175.742Z" fill="#70E2E5"/>
<path d="M358.715 174.344L366.465 178.282L376.036 173.54L368.286 169.602L358.715 174.344Z" fill="#70E2E5"/>
<path d="M333.771 177.224L341.521 181.161L351.092 176.377L343.342 172.481L333.771 177.224Z" fill="#70E2E5"/>
<path d="M348.042 179.637L355.792 183.575L365.363 178.833L357.613 174.895L348.042 179.637Z" fill="#70E2E5"/>
<path d="M282.442 183.702L290.192 187.64L299.764 182.898L291.971 178.96L282.442 183.702Z" fill="#70E2E5"/>
<path d="M366.253 180.188L374.003 184.083L388.952 176.673L381.202 172.736L366.253 180.188Z" fill="#70E2E5"/>
<path d="M323.014 182.559L330.764 186.497L340.335 181.755L332.585 177.817L323.014 182.559Z" fill="#70E2E5"/>
<path d="M337.285 185.015L345.035 188.911L354.606 184.168L346.856 180.23L337.285 185.015Z" fill="#70E2E5"/>
<path d="M271.05 189.376L278.8 193.272L288.371 188.529L280.579 184.634L271.05 189.376Z" fill="#70E2E5"/>
<path d="M312.257 187.936L320.007 191.832L329.578 187.09L321.828 183.194L312.257 187.936Z" fill="#70E2E5"/>
<path d="M284.772 192.044L292.522 195.982L302.093 191.239L294.343 187.301L284.772 192.044Z" fill="#70E2E5"/>
<path d="M326.655 190.307L334.405 194.203L343.976 189.461L336.226 185.523L326.655 190.307Z" fill="#70E2E5"/>
<path d="M327.969 161.091L335.719 164.987L345.29 160.244L337.54 156.306L327.969 161.091Z" fill="#70E2E5"/>
<path d="M350.584 159.355L358.334 163.293L381.923 151.564L374.173 147.669L350.584 159.355Z" fill="#70E2E5"/>
<path d="M366.126 161.176L373.876 165.071L391.409 156.391L383.659 152.453L366.126 161.176Z" fill="#70E2E5"/>
<path d="M316.576 166.723L324.368 170.661L333.897 165.918L326.147 161.98L316.576 166.723Z" fill="#70E2E5"/>
<path d="M355.285 166.554L363.077 170.449L372.648 165.707L364.856 161.769L355.285 166.554Z" fill="#70E2E5"/>
<path d="M328.35 170.406L336.1 174.344L345.671 169.602L337.921 165.664L328.35 170.406Z" fill="#70E2E5"/>
<path opacity="0.57" d="M342.791 204.831L362.442 214.739L392.764 199.581L373.114 189.715L342.791 204.831Z" fill="#168CA8"/>
<g opacity="0.64">
<path opacity="0.51" d="M302.559 244.507C302.559 245.311 301.881 245.65 301.077 245.227C300.272 244.803 299.595 243.829 299.595 243.025C299.595 242.22 300.272 241.882 301.077 242.305C301.924 242.686 302.559 243.66 302.559 244.507Z" fill="#00234C"/>
<path opacity="0.51" d="M283.078 236.038L275.667 232.312V229.475L283.078 233.158V236.038Z" fill="#00234C"/>
<path opacity="0.51" d="M248.521 218.72L239.077 214.019V211.606L248.521 216.306V218.72Z" fill="#00234C"/>
<path opacity="0.51" d="M294.089 241.5L286.678 237.816V234.937L294.089 238.663V241.5Z" fill="#00234C"/>
</g>
<path d="M228.742 87.3303L352.785 25.4674C354.479 24.6206 356.004 24.5359 357.147 25.0864C359.18 26.1026 361.213 27.1188 363.246 28.1774C362.145 27.6269 229.674 202.249 230.775 202.799C229.759 202.291 228.743 201.783 227.726 201.275C226.71 200.767 225.693 200.259 224.677 199.751C223.576 199.2 222.898 198.014 222.898 196.363L222.644 96.5187C222.644 93.1313 225.397 89.024 228.742 87.3303Z" fill="#168CA8"/>
<path opacity="0.41" d="M251.316 90.9721L237.425 84.0278L225.398 90.0405C223.746 91.9459 222.645 94.3595 222.645 96.4766V96.8154L231.115 101.05L251.316 90.9721Z" fill="#47C7D1"/>
<path d="M363.246 28.1774C361.213 27.1612 359.18 26.1449 357.147 25.0864C356.046 24.5359 354.479 24.6206 352.785 25.4674L228.785 87.3303C227.302 88.0501 225.99 89.2781 224.931 90.633C229.208 93.0042 233.697 95.5872 233.697 95.5872L360.197 31.7342C362.06 29.4053 363.161 28.0927 363.246 28.1774Z" fill="#47C7D1"/>
<path d="M234.884 90.379L358.884 28.5161C362.272 26.8224 365.025 28.1774 365.025 31.5224L365.279 131.409C365.279 134.754 362.526 138.861 359.181 140.555L235.18 202.418C231.792 204.112 229.04 202.714 229.04 199.369L228.828 99.525C228.743 96.1799 231.496 92.0727 234.884 90.379Z" fill="#33B3C4"/>
<path d="M237.34 94.613L356.428 35.206C358.461 34.1898 360.112 35.0367 360.112 37.0268L360.324 130.858C360.324 132.849 358.672 135.304 356.682 136.321L237.594 195.728C235.561 196.744 233.91 195.939 233.91 193.907L233.698 100.075C233.698 98.0851 235.349 95.5869 237.34 94.613Z" fill="#9FEDEB"/>
<path opacity="0.54" d="M255 85.8057L356.428 35.206C358.461 34.1898 360.112 35.0367 360.112 37.0268L360.324 99.3131L255 85.8057Z" fill="#DEFFFC"/>
<path d="M290.32 66.2011L309.758 56.4622C310.14 56.2505 310.478 55.7847 310.478 55.3613C310.478 54.9802 310.14 54.8108 309.758 54.9802L290.32 64.7191C289.939 64.9308 289.6 65.3965 289.6 65.82C289.558 66.2434 289.896 66.4128 290.32 66.2011Z" fill="#168CA8"/>
<path d="M285.204 68.6887C284.78 68.3577 284.891 67.5066 285.453 66.7877C286.014 66.0689 286.813 65.7545 287.237 66.0855C287.661 66.4165 287.549 67.2675 286.988 67.9864C286.427 68.7053 285.628 69.0197 285.204 68.6887Z" fill="#168CA8"/>
<path d="M301.5 130.139L274.735 143.688V140.767L301.5 127.175V130.139Z" fill="white"/>
<path d="M301.248 124.549L274.483 138.141V135.177L301.248 121.628V124.549Z" fill="white"/>
<path d="M301.416 135.389L274.651 148.981V146.017L301.416 132.467V135.389Z" fill="white"/>
<path d="M301.5 141.487L274.735 155.036V152.115L301.5 138.565V141.487Z" fill="white"/>
<path d="M301.5 147.118L274.735 160.668V157.746L301.5 144.197V147.118Z" fill="white"/>
<path d="M301.5 152.75L274.735 166.3V163.378L301.5 149.786V152.75Z" fill="white"/>
<path d="M272.11 145.001L245.345 158.593V155.629L272.11 142.079V145.001Z" fill="white"/>
<path d="M271.813 139.242L245.048 152.792V149.87L271.813 136.278V139.242Z" fill="white"/>
<path d="M272.11 150.674L245.345 164.266V161.302L272.11 147.753V150.674Z" fill="white"/>
<path d="M272.11 156.137L245.345 169.729V166.807L272.11 153.215V156.137Z" fill="white"/>
<path d="M272.11 161.768L245.345 175.36V172.439L272.11 158.846V161.768Z" fill="white"/>
<path d="M272.11 167.4L245.345 180.992V178.028L272.11 164.478V167.4Z" fill="white"/>
<path d="M301.077 96.7723L274.355 110.364V107.443L301.077 93.8506V96.7723Z" fill="white"/>
<path d="M300.825 91.2253L274.06 104.817V101.853L300.825 88.3037V91.2253Z" fill="white"/>
<path d="M300.993 102.065L274.27 115.657V112.693L300.993 99.1436V102.065Z" fill="white"/>
<path d="M301.077 108.163L274.355 121.712V118.791L301.077 105.241V108.163Z" fill="white"/>
<path d="M301.077 113.794L274.355 127.343V124.422L301.077 110.872V113.794Z" fill="white"/>
<path d="M301.077 119.426L274.355 132.975V130.054L301.077 116.462V119.426Z" fill="white"/>
<path d="M271.686 111.678L244.921 125.27V122.306L271.686 108.756V111.678Z" fill="white"/>
<path d="M271.434 105.919L244.668 119.469V116.547L271.434 102.955V105.919Z" fill="white"/>
<path d="M271.686 117.351L244.921 130.943V127.979L271.686 114.429V117.351Z" fill="white"/>
<path d="M271.686 122.814L244.921 136.406V133.484L271.686 119.892V122.814Z" fill="white"/>
<path d="M271.686 128.445L244.921 142.037V139.073L271.686 125.524V128.445Z" fill="white"/>
<path d="M271.686 134.077L244.921 147.669V144.705L271.686 131.156V134.077Z" fill="white"/>
<path d="M357.614 39.5674V132.298L357.148 132.552L237.806 193.102V115.869L238.272 100.075L357.614 39.5674ZM355.75 42.6584L239.712 101.515V189.927L355.75 131.07V42.6584Z" fill="white"/>
<path d="M348.635 126.031L307.048 146.99V151.309L348.635 130.35V126.031Z" fill="white"/>
<path d="M348.635 120.146L307.048 141.063V145.382L348.635 124.464V120.146Z" fill="white"/>
<path d="M348.635 114.302L307.048 135.219V139.538L348.635 118.621V114.302Z" fill="white"/>
<path d="M348.635 108.374L307.048 129.333V133.652L348.635 112.693V108.374Z" fill="white"/>
<path d="M348.635 102.7L307.005 123.618V127.937L348.635 107.019V102.7Z" fill="white"/>
<path d="M348.635 96.7717L307.005 117.731V122.05L348.635 101.133V96.7717Z" fill="white"/>
<path d="M348.635 90.929L307.048 111.889V116.208L348.635 95.2479V90.929Z" fill="white"/>
<path d="M348.635 85.043L307.048 105.96V110.279L348.635 89.362V85.043Z" fill="white"/>
<path d="M348.593 78.946L307.006 99.8634V104.182L348.593 83.265V78.946Z" fill="white"/>
<path d="M348.593 73.0173L307.006 93.977V98.296L348.593 77.3787V73.0173Z" fill="white"/>
<path d="M348.635 67.1743L307.048 88.1341V92.453L348.635 71.4933V67.1743Z" fill="white"/>
<path d="M348.635 61.2888L307.048 82.2061V86.5251L348.635 65.6078V61.2888Z" fill="white"/>
<path d="M348.594 55.6152L307.006 76.5749V80.8939L348.594 59.9342V55.6152Z" fill="white"/>
<path d="M291.675 83.9001L250.045 104.86V109.179L291.675 88.2614V83.9001Z" fill="white"/>
<path opacity="0.21" d="M392.764 206.949C392.552 207.076 390.731 209.532 390.731 209.532L372.648 218.593L369.556 218.466L392.764 206.949Z" fill="#00234C"/>
</svg>
