<svg width="585" height="456" viewBox="0 0 585 456" fill="none" xmlns="http://www.w3.org/2000/svg">
<path opacity="0.94" d="M169.943 246.173L87.9044 202.274C86.5924 201.58 85.8206 201.426 85.0489 201.426C84.0456 201.426 83.0423 201.657 82.2705 202.043L1.00333 245.556C0.38591 245.864 3.05176e-05 246.327 3.05176e-05 246.713C3.05176e-05 247.099 0.308731 247.33 0.617447 247.484L82.6564 291.383C83.8912 292 86.0522 291.923 87.5185 291.152L168.786 247.639C169.403 247.33 169.789 246.867 169.789 246.482C169.789 246.173 169.48 245.942 169.943 246.173Z" fill="white"/>
<path d="M110.44 208.137L206.679 156.601C207.914 155.906 208.609 154.98 208.609 154.055C208.609 153.206 208.069 152.512 207.143 151.972L109.977 99.9719C108.125 98.969 104.883 99.0461 102.799 100.203L6.56001 151.74C5.32518 152.434 4.63058 153.36 4.63058 154.286C4.63058 155.135 5.17079 155.829 6.09692 156.369L103.263 208.446C104.111 208.909 105.269 209.14 106.427 209.14C107.816 209.14 109.282 208.755 110.44 208.137ZM6.79153 155.212C6.48282 155.058 6.01976 154.749 6.01976 154.286C6.01976 153.823 6.4828 153.283 7.25458 152.897L103.494 101.438C105.192 100.512 107.816 100.435 109.282 101.206L206.448 153.206C206.757 153.36 207.22 153.669 207.22 154.132C207.22 154.595 206.757 155.135 205.985 155.521L109.745 207.057C108.047 207.983 105.423 208.06 103.957 207.289L6.79153 155.212Z" fill="white"/>
<path d="M433.039 310.131L581.99 230.434C583.92 229.431 585 227.965 585 226.499C585 225.188 584.151 224.03 582.685 223.259L432.344 142.791C429.412 141.248 424.55 141.402 421.154 143.176L272.28 222.873C270.35 223.876 269.27 225.342 269.27 226.808C269.27 228.119 270.119 229.277 271.585 230.048L421.926 310.516C423.238 311.211 425.013 311.596 426.865 311.596C429.026 311.596 431.264 311.056 433.039 310.131ZM272.666 228.274C272.125 227.965 271.508 227.502 271.508 226.808C271.508 226.113 272.202 225.342 273.437 224.648L422.311 145.028C424.935 143.639 429.026 143.485 431.187 144.642L581.604 225.11C582.145 225.419 582.762 225.882 582.762 226.576C582.762 227.271 582.067 228.042 580.833 228.737L431.958 308.433C429.334 309.822 425.244 309.976 423.083 308.819L272.666 228.274Z" fill="white"/>
<path opacity="0.49" d="M330.857 412.819L254.607 372.006C253.372 371.389 252.677 371.234 251.983 371.234C251.056 371.234 250.13 371.466 249.359 371.852L173.88 412.279C173.262 412.587 172.954 412.973 172.954 413.359C172.954 413.667 173.262 413.899 173.571 414.053L249.822 454.866C250.902 455.483 252.986 455.406 254.298 454.634L329.777 414.207C330.394 413.899 330.703 413.513 330.703 413.127C330.78 412.819 330.394 412.51 330.857 412.819Z" fill="white"/>
<path opacity="0.84" d="M362.268 368.766L286.018 327.953C284.783 327.336 284.088 327.182 283.394 327.182C282.468 327.182 281.541 327.413 280.77 327.799L205.291 368.226C204.673 368.535 204.365 368.92 204.365 369.306C204.365 369.615 204.673 369.846 204.982 370.001L281.233 410.813C282.313 411.43 284.397 411.353 285.709 410.582L361.188 370.155C361.805 369.846 362.114 369.46 362.114 369.075C362.114 368.766 361.805 368.535 362.268 368.766Z" fill="white"/>
<path d="M350.923 250.571L279.534 212.382C278.377 211.765 277.759 211.688 277.065 211.688C276.216 211.688 275.29 211.842 274.672 212.228L203.978 250.031C203.438 250.34 203.052 250.726 203.052 251.034C203.052 251.343 203.361 251.574 203.592 251.729L274.981 289.918C276.061 290.458 277.991 290.381 279.226 289.764L349.92 251.96C350.46 251.652 350.846 251.266 350.846 250.957C350.846 250.571 350.537 250.34 350.923 250.571Z" fill="#7DD2DB"/>
<path opacity="0.63" d="M448.861 356.267L408.111 334.433C407.494 334.047 407.108 334.047 406.722 334.047C406.259 334.047 405.719 334.124 405.333 334.356L364.969 355.958C364.661 356.112 364.429 356.344 364.429 356.498C364.429 356.652 364.584 356.807 364.738 356.884L405.487 378.717C406.105 379.026 407.185 379.026 407.88 378.64L448.243 357.038C448.552 356.884 448.783 356.652 448.783 356.498C448.783 356.267 448.629 356.112 448.861 356.267Z" fill="white"/>
<path opacity="0.33" d="M482.741 258.208L367.053 196.256C365.201 195.253 364.197 195.098 363.04 195.098C361.651 195.098 360.184 195.407 359.104 196.024L244.496 257.359C243.57 257.822 243.03 258.439 243.03 258.979C243.03 259.442 243.493 259.828 243.879 260.059L359.721 321.857C361.419 322.783 364.506 322.629 366.513 321.549L481.12 260.214C482.047 259.751 482.587 259.134 482.587 258.593C482.51 258.131 482.046 257.822 482.741 258.208Z" fill="white"/>
<path opacity="0.33" d="M406.645 105.296L323.063 60.5488C321.751 59.8545 320.979 59.7002 320.207 59.7002C319.204 59.7002 318.201 59.9316 317.352 60.3174L234.541 104.602C233.923 104.988 233.538 105.373 233.538 105.759C233.538 106.145 233.923 106.376 234.155 106.531L317.738 151.278C318.972 151.973 321.21 151.818 322.677 151.047L405.488 106.762C406.105 106.376 406.491 105.991 406.491 105.605C406.491 105.296 406.182 105.065 406.645 105.296Z" fill="white"/>
<path opacity="0.52" d="M314.572 234.137L276.138 213.538C275.907 213.384 275.521 213.307 275.212 213.307C274.749 213.307 274.286 213.384 273.9 213.615L235.852 233.983C235.543 234.137 235.389 234.369 235.389 234.523C235.389 234.677 235.543 234.832 235.698 234.909L274.055 255.508C274.595 255.817 275.675 255.74 276.293 255.431L314.341 235.063C314.65 234.909 314.804 234.677 314.804 234.523C314.881 234.369 314.727 234.214 314.572 234.137Z" fill="white"/>
<path opacity="0.45" d="M380.173 172.494L346.601 154.518C346.37 154.363 346.061 154.363 345.752 154.363C345.366 154.363 344.903 154.44 344.595 154.595L311.331 172.417C311.1 172.571 310.946 172.725 310.946 172.879C310.946 173.034 311.1 173.111 311.177 173.188L344.749 191.164C345.212 191.396 346.138 191.396 346.756 191.087L380.019 173.265C380.25 173.111 380.405 172.957 380.405 172.802C380.405 172.648 380.328 172.571 380.173 172.494Z" fill="white"/>
<path opacity="0.79" d="M96.5489 151.663L62.977 133.687C62.7454 133.533 62.4368 133.533 62.1281 133.533C61.7422 133.533 61.2791 133.61 60.9704 133.764L27.7072 151.586C27.4757 151.741 27.3213 151.895 27.3213 152.049C27.3213 152.203 27.4756 152.281 27.5528 152.358L61.1247 170.334C61.5878 170.565 62.5139 170.565 63.1313 170.257L96.3945 152.435C96.626 152.281 96.7804 152.126 96.7804 151.972C96.7804 151.818 96.7032 151.663 96.5489 151.663Z" fill="white"/>
<path opacity="0.91" d="M534.758 343.151L501.186 325.175C500.955 325.021 500.646 325.021 500.337 325.021C499.951 325.021 499.488 325.098 499.18 325.252L465.916 343.074C465.685 343.229 465.53 343.383 465.53 343.537C465.53 343.692 465.685 343.769 465.762 343.846L499.334 361.822C499.797 362.053 500.723 362.053 501.341 361.745L534.604 343.923C534.835 343.769 534.99 343.614 534.99 343.46C534.99 343.306 534.912 343.151 534.758 343.151Z" fill="white"/>
<path d="M156.36 410.504C155.511 410.504 154.662 410.273 153.891 409.887L109.205 385.97L109.823 385.044L154.508 408.961C155.666 409.578 157.132 409.578 158.29 408.961L357.792 302.184C358.1 302.03 358.255 302.03 358.255 301.799C358.255 301.49 358.1 300.95 357.792 300.796L312.18 276.339L312.798 275.413L358.409 299.87C359.027 300.256 359.412 300.873 359.412 301.567C359.412 302.262 359.027 302.879 358.409 303.265L158.907 410.041C158.135 410.35 157.286 410.504 156.36 410.504Z" fill="white"/>
<path opacity="0.23" d="M286.712 210.683L125.258 291.46L115.765 286.677L277.296 205.977L286.712 210.683Z" fill="#00638E"/>
<path opacity="0.37" d="M149.028 453.013L188.465 442.058L191.707 450.39L281.695 442.521L279.688 438.895L183.912 432.183L152.038 447.999L149.028 453.013Z" fill="#00638E"/>
<path d="M111.828 423.388L149.028 453.014L236.315 425.625L199.038 395.999L111.828 423.388Z" fill="#FFAE85"/>
<path d="M195.102 419.222L178.432 419.376L182.908 428.711L195.102 419.222Z" fill="#EF937B"/>
<path d="M180.284 415.441L183.063 430.485L191.706 450.39L280.691 441.441L268.112 410.195L193.25 417.756L180.284 415.441Z" fill="#FFDD88"/>
<path d="M205.753 416.521L183.063 430.485L180.285 415.441L205.753 416.521Z" fill="#FFD073"/>
<path opacity="0.7" d="M215.323 447.998L257.153 424.775L253.602 444.14L215.323 447.998Z" fill="#FFEA94"/>
<path d="M124.565 263.223V137.235C124.565 134.998 126.417 132.298 128.655 131.14L283.472 54.144C284.552 53.6039 285.556 53.5268 286.25 53.8354L279.459 50.5179C278.687 50.1321 277.684 50.1321 276.526 50.7493L121.709 127.746C119.471 128.903 117.619 131.603 117.619 133.841V259.905C117.619 260.985 118.005 261.68 118.699 262.065L118.776 262.142C118.776 262.142 118.854 262.143 118.854 262.22L125.722 265.537C125.028 265.151 124.565 264.38 124.565 263.223Z" fill="#168CA8"/>
<path d="M287.562 56.2272C287.562 55.1471 287.176 54.4527 286.482 54.067C286.405 53.9898 286.328 53.9898 286.328 53.9898C285.633 53.6812 284.63 53.7584 283.549 54.2984L128.732 131.295C126.494 132.452 124.642 135.152 124.642 137.39V263.223C124.642 264.303 125.105 265.074 125.8 265.46C125.8 265.46 125.877 265.46 125.877 265.537H125.954C126.649 265.846 127.652 265.769 128.655 265.229L283.472 188.232C285.71 187.075 287.562 184.375 287.562 182.137V56.2272Z" fill="#33B3C4"/>
<path d="M131.509 246.172V160.381C131.509 158.375 133.13 155.983 135.136 154.98L290.879 77.5978C291.883 77.1349 292.732 77.0577 293.349 77.3663L286.48 73.9717C285.863 73.6631 284.937 73.6631 283.933 74.2031L128.191 151.663C126.184 152.665 124.563 155.057 124.563 157.063V242.855C124.563 243.781 124.949 244.475 125.567 244.783H125.644L132.435 248.101C131.895 247.792 131.509 247.098 131.509 246.172Z" fill="#9FEDEB"/>
<path d="M294.507 79.3722C294.507 78.4464 294.121 77.7521 293.503 77.4435C293.503 77.4435 293.426 77.4435 293.426 77.3663C292.809 77.0577 291.883 77.1349 290.956 77.5978L135.136 155.057C133.13 156.06 131.509 158.452 131.509 160.458V246.249C131.509 247.175 131.895 247.792 132.435 248.178C133.13 248.564 134.056 248.564 135.059 248.024L290.879 170.487C292.886 169.484 294.507 167.093 294.507 165.087V79.3722Z" fill="#E1FEFF"/>
<path d="M208.301 172.262L192.557 180.054V164.392L208.301 156.523V172.262Z" fill="#9FEDEB"/>
<path d="M232.457 160.227L216.713 168.096V152.358L232.457 144.488V160.227Z" fill="#9FEDEB"/>
<path d="M159.988 220.327L144.167 228.196V212.458L159.988 204.665V220.327Z" fill="#9FEDEB"/>
<path d="M184.145 208.291L168.323 216.16V200.422L184.145 192.629V208.291Z" fill="#9FEDEB"/>
<path d="M208.301 196.256L192.557 204.125V188.464L208.301 180.594V196.256Z" fill="#9FEDEB"/>
<path d="M184.145 160.227L168.323 168.096V152.358L184.145 144.488V160.227Z" fill="#9FEDEB"/>
<path d="M208.301 148.191L192.557 156.061V140.322L208.301 132.53V148.191Z" fill="#9FEDEB"/>
<path d="M232.456 136.155L216.712 144.025V128.363L232.456 120.494V136.155Z" fill="#9FEDEB"/>
<path d="M159.988 196.256L144.167 204.125V188.464L159.988 180.594V196.256Z" fill="#9FEDEB"/>
<path d="M184.145 184.297L168.323 192.089V176.428L184.145 168.558V184.297Z" fill="#9FEDEB"/>
<path d="M159.988 172.262L144.167 180.054V164.392L159.988 156.523V172.262Z" fill="#9FEDEB"/>
<path d="M256.69 124.12L240.869 131.99V116.328L256.69 108.459V124.12Z" fill="#F15C24"/>
<path d="M256.69 148.192L240.869 156.061V140.323L256.69 132.531V148.192Z" fill="#F15C24"/>
<path d="M280.846 136.156L265.025 144.026V128.364L280.846 120.495V136.156Z" fill="#F15C24"/>
<path d="M280.846 112.162L265.025 119.954V104.292L280.846 96.4229V112.162Z" fill="#F15C24"/>
<path d="M165.391 124.197C165.237 128.98 161.146 134.767 156.284 137.004C151.345 139.242 147.486 137.236 147.64 132.375C147.795 127.592 151.885 121.805 156.747 119.568C161.687 117.331 165.546 119.414 165.391 124.197Z" fill="#168CA8"/>
<path d="M214.552 101.668C214.398 106.451 210.307 112.237 205.445 114.475C200.506 116.712 196.647 114.706 196.801 109.846C196.956 105.062 201.046 99.2759 205.908 97.0385C210.77 94.8012 214.629 96.8842 214.552 101.668Z" fill="#168CA8"/>
<path d="M263.637 79.14C263.483 83.9233 259.392 89.7096 254.53 91.947C249.591 94.1844 245.732 92.1785 245.886 87.318C246.041 82.5346 250.131 76.7483 254.993 74.5109C259.932 72.2736 263.791 74.3566 263.637 79.14Z" fill="#168CA8"/>
<path d="M164.079 127.126L164.156 127.049C165.391 126.509 166.471 126.432 167.32 126.817L160.683 123.346C159.834 122.806 158.676 122.806 157.364 123.423L157.287 123.5C154.74 124.657 152.58 127.666 152.58 130.135L152.348 137.696L159.062 141.322L159.294 133.761C159.371 131.292 161.532 128.283 164.079 127.126Z" fill="#55ACB7"/>
<path d="M168.633 129.441C168.633 128.129 168.169 127.281 167.243 126.818C166.472 126.432 165.314 126.432 164.079 127.049L164.002 127.127C161.455 128.284 159.294 131.293 159.294 133.761L159.063 142.402L158.985 145.334C158.908 147.803 160.915 148.883 163.462 147.726L163.539 147.649C166.086 146.491 168.247 143.482 168.247 141.014L168.633 129.441Z" fill="#69C2CC"/>
<path d="M213.087 104.367L213.164 104.29C214.399 103.75 215.48 103.672 216.329 104.058L209.692 100.586C208.843 100.124 207.685 100.046 206.373 100.664L206.296 100.741C203.749 101.898 201.588 104.907 201.588 107.376L201.356 114.936L208.225 118.485L208.457 110.925C208.38 108.61 210.463 105.601 213.087 104.367Z" fill="#55ACB7"/>
<path d="M217.64 106.757C217.64 105.6 217.254 104.752 216.483 104.289C216.483 104.289 216.483 104.289 216.405 104.212C216.328 104.212 216.328 104.134 216.251 104.134C215.479 103.749 214.322 103.749 213.087 104.366L213.01 104.443C210.463 105.6 208.302 108.609 208.302 111.078L208.07 119.719L207.993 122.651C207.916 125.119 209.923 126.199 212.469 125.042L212.547 124.965C215.093 123.808 217.254 120.799 217.254 118.33L217.64 106.757Z" fill="#69C2CC"/>
<path d="M262.017 81.6867L262.094 81.6095C263.329 80.9923 264.486 80.9923 265.258 81.3781L258.466 77.8292C257.618 77.4434 256.537 77.4434 255.302 78.0606L255.225 78.1378C252.678 79.295 250.517 82.3039 250.517 84.7727L250.286 92.3335L257.154 95.8824L257.386 88.3216C257.386 85.8528 259.47 82.9211 262.017 81.6867Z" fill="#55ACB7"/>
<path d="M266.647 84.0775C266.647 82.8431 266.184 81.9945 265.412 81.5316C265.412 81.5316 265.412 81.5316 265.335 81.5316C264.486 81.1458 263.406 81.1458 262.171 81.763L262.094 81.8402C259.547 82.9974 257.386 86.0063 257.386 88.4751L257.077 100.048C257 102.517 259.007 103.597 261.554 102.439L261.631 102.362C264.178 101.205 266.339 98.1961 266.339 95.7273L266.647 84.0775Z" fill="#69C2CC"/>
<path opacity="0.37" d="M343.051 433.572L240.406 377.561C240.02 377.329 239.557 377.252 239.016 377.175C239.094 377.175 239.171 377.175 239.248 377.175C234.463 376.326 218.487 373.626 215.323 373.086C217.175 375.169 226.282 385.661 228.983 388.825C228.983 388.748 228.906 388.748 228.906 388.67C229.138 388.979 229.446 389.288 229.832 389.519L325.532 439.976L333.944 444.373C333.944 444.373 336.645 444.99 338.497 444.296C342.279 442.907 345.675 441.21 346.061 437.893C346.292 436.041 342.896 433.495 343.051 433.572Z" fill="#00638E"/>
<path d="M212.7 367.609C214.552 369.846 216.327 372.084 218.179 374.321C217.948 374.012 217.793 373.627 217.871 373.164L212.7 367.609Z" fill="#0A3075"/>
<path d="M221.961 369.383C218.874 368.766 215.787 368.226 212.7 367.609L217.871 373.164C217.948 371.775 219.183 370.155 220.649 369.538C221.112 369.383 221.575 369.306 221.961 369.383Z" fill="#057893"/>
<path d="M218.179 374.321C220.88 377.716 223.659 381.033 226.36 384.428C225.742 383.733 225.511 382.73 225.588 381.419L217.87 373.087C217.793 373.627 217.947 374.09 218.179 374.321Z" fill="#FF8E66"/>
<path d="M235.852 372.006C231.222 371.157 226.591 370.231 221.96 369.383C221.574 369.306 221.111 369.383 220.648 369.537C219.182 370.154 217.947 371.697 217.87 373.163L225.588 381.496C225.819 378.024 228.983 374.012 232.534 372.546C233.768 371.929 234.926 371.852 235.852 372.006Z" fill="#FFB48A"/>
<path d="M227.209 385.2L315.962 436.351C314.805 435.734 314.187 434.422 314.342 432.648L225.588 381.497C225.434 383.194 226.051 384.506 227.209 385.2Z" fill="#001D56"/>
<path d="M325.686 423.544L236.933 372.393C235.853 371.776 234.309 371.776 232.534 372.47C228.984 373.936 225.82 377.948 225.588 381.42L314.341 432.571C314.573 429.099 317.737 425.087 321.287 423.621C323.062 422.85 324.606 422.927 325.686 423.544Z" fill="#083D7C"/>
<path d="M315.962 436.274L329.082 443.834C327.925 443.217 327.307 441.906 327.461 440.131L314.341 432.57C314.187 434.345 314.804 435.656 315.962 436.274Z" fill="#ED4373"/>
<path d="M338.807 431.104L325.687 423.543C324.606 422.926 323.063 422.926 321.288 423.62C317.737 425.086 314.573 429.098 314.342 432.57L327.462 440.131C327.693 436.659 330.857 432.647 334.408 431.181C336.106 430.41 337.726 430.41 338.807 431.104Z" fill="#FF73AC"/>
<path d="M319.204 435.424L314.342 432.646C314.187 434.421 314.882 435.733 315.963 436.35L320.825 439.127C319.744 438.433 319.05 437.198 319.204 435.424Z" fill="#D9FFFB"/>
<path d="M330.008 426.012L325.686 423.543C324.606 422.926 323.062 422.926 321.287 423.62C317.737 425.086 314.65 428.712 314.341 432.57L319.203 435.347C319.435 431.875 322.445 427.709 325.995 426.166C327.539 425.626 328.928 425.549 330.008 426.012Z" fill="white"/>
<path d="M327.462 440.131C327.23 443.603 329.931 445.223 333.481 443.757C337.032 442.291 340.196 438.28 340.427 434.808C340.659 431.336 337.958 429.716 334.408 431.182C330.78 432.648 327.693 436.659 327.462 440.131Z" fill="#E85490"/>
<path d="M330.471 439.745C330.317 442.137 332.169 443.294 334.639 442.291C337.109 441.288 339.27 438.511 339.424 436.119C339.578 433.728 337.726 432.57 335.256 433.573C332.787 434.576 330.626 437.354 330.471 439.745Z" fill="#D6418B"/>
<path opacity="0.37" d="M369.292 239.383C335.448 239.383 308.013 224.392 308.013 205.9C308.013 187.408 335.448 172.417 369.292 172.417C403.135 172.417 430.57 187.408 430.57 205.9C430.57 224.392 403.135 239.383 369.292 239.383Z" fill="#00638E"/>
<path d="M360.648 233.52C324.248 233.52 294.739 217.423 294.739 197.568C294.739 177.712 324.248 161.615 360.648 161.615C397.049 161.615 426.557 177.712 426.557 197.568C426.557 217.423 397.049 233.52 360.648 233.52Z" fill="#9FEDEB"/>
<path d="M360.648 230.048C324.248 230.048 294.739 213.952 294.739 194.096C294.739 174.24 324.248 158.144 360.648 158.144C397.049 158.144 426.557 174.24 426.557 194.096C426.557 213.952 397.049 230.048 360.648 230.048Z" fill="white"/>
<path opacity="0.63" d="M359.954 216.316C336.34 216.316 317.198 205.85 317.198 192.939C317.198 180.028 336.34 169.562 359.954 169.562C383.567 169.562 402.71 180.028 402.71 192.939C402.71 205.85 383.567 216.316 359.954 216.316Z" fill="#D9FFFB"/>
<path d="M367.054 211.455C348.299 211.455 333.096 203.165 333.096 192.939C333.096 182.712 348.299 174.422 367.054 174.422C385.808 174.422 401.011 182.712 401.011 192.939C401.011 203.165 385.808 211.455 367.054 211.455Z" fill="#9FEDEB"/>
<path d="M385.035 164.239C383.492 164.239 381.948 163.39 381.254 162.001C380.25 160.072 381.177 157.681 383.183 156.755C383.26 156.755 391.364 153.052 396.998 147.574C402.554 142.251 404.484 137.467 403.172 132.375C402.477 129.829 401.242 129.521 400.857 129.443C398.696 128.981 394.605 130.524 390.361 135.076C388.817 136.696 386.193 136.85 384.495 135.461C382.797 133.995 382.566 131.527 384.109 129.906C390.052 123.503 397.075 120.494 402.863 121.806C407.108 122.809 410.118 125.895 411.353 130.446C413.436 138.239 410.581 145.877 403.018 153.129C396.226 159.609 387.196 163.776 386.81 163.93C386.27 164.161 385.653 164.239 385.035 164.239Z" fill="#D9FFFB"/>
<path d="M392.521 132.221C410.426 142.02 410.426 157.913 392.521 167.634C374.616 177.432 345.52 177.432 327.615 167.634C309.71 157.835 309.71 141.942 327.615 132.221C345.52 122.423 374.539 122.423 392.521 132.221Z" fill="#9FEDEB"/>
<path d="M392.521 132.221C410.426 142.02 410.426 157.913 392.521 167.634C374.616 177.432 345.52 177.432 327.615 167.634C309.71 157.835 309.71 141.942 327.615 132.221C345.52 122.423 374.539 122.423 392.521 132.221ZM388.354 134.459C372.687 125.895 347.373 125.895 331.706 134.459C316.039 143.023 316.039 156.833 331.706 165.396C347.373 173.96 372.687 173.96 388.354 165.396C404.021 156.833 404.021 143.023 388.354 134.459Z" fill="#FCDEA9"/>
<path d="M392.521 132.221C410.426 142.02 410.426 157.913 392.521 167.634C374.616 177.432 345.52 177.432 327.615 167.634C309.71 157.835 309.71 141.942 327.615 132.221C345.52 122.423 374.539 122.423 392.521 132.221ZM388.354 134.459C372.687 125.895 347.373 125.895 331.706 134.459C316.039 143.023 316.039 156.833 331.706 165.396C347.373 173.96 372.687 173.96 388.354 165.396C404.021 156.833 404.021 143.023 388.354 134.459Z" fill="white"/>
<path opacity="0.5" d="M391.827 165.781C400.085 161.307 404.638 155.366 404.638 149.117C404.638 142.868 400.085 137.004 391.827 132.452C383.337 127.823 372.07 125.277 360.03 125.277C347.99 125.277 336.723 127.823 328.233 132.452C319.975 136.927 315.422 142.868 315.422 149.117C315.422 155.366 319.975 161.23 328.233 165.781C336.723 170.411 347.99 172.957 360.03 172.957C372.07 172.957 383.337 170.411 391.827 165.781ZM389.897 132.452C397.924 136.85 402.632 143.176 402.632 149.503C402.632 155.829 397.384 161.384 389.434 165.781C381.639 170.025 370.989 172.339 360.03 172.339C349.071 172.339 338.806 170.025 331.011 165.781C322.985 161.384 317.583 155.135 317.583 148.808C317.583 142.482 322.29 136.773 330.317 132.375C338.112 128.132 349.071 126.049 360.03 126.049C370.989 125.972 382.103 128.209 389.897 132.452Z" fill="#F3F5F6"/>
<path d="M392.522 167.634C374.617 177.432 345.521 177.432 327.616 167.634C320.979 164.007 316.812 159.61 315.114 154.904C317.197 171.105 335.488 199.805 344.209 202.969C354.397 206.672 367.98 207.598 377.627 203.431C387.891 199.034 405.179 168.251 405.719 152.358C404.716 157.99 400.317 163.39 392.522 167.634Z" fill="#D9FFFB"/>
<path d="M332.092 149.503C328.928 151.201 324.22 155.367 322.368 157.45C324.606 160.227 328.696 163.776 331.706 165.396C347.373 173.96 374.771 173.652 388.354 165.396C394.837 161.462 396.766 158.607 398.464 156.061C396.612 154.21 391.981 151.046 389.203 149.503C373.459 140.94 347.913 140.94 332.092 149.503Z" fill="#057893"/>
<path opacity="0.3" d="M397.307 157.527C389.28 150.892 369.292 143.485 361.96 146.648C359.876 147.883 357.175 152.435 361.497 155.829C363.658 157.527 367.208 160.073 364.738 163.236C362.114 166.631 356.249 167.171 351.927 167.402C350.383 167.479 341.508 167.093 340.042 168.868C356.249 174.037 376.083 172.108 388.354 165.396C390.284 164.316 391.904 163.236 393.371 162.001C396.458 158.993 397.307 157.527 397.307 157.527Z" fill="#E9ECEE"/>
<path d="M397.307 122.884C397.307 122.884 395.532 122.19 392.059 124.89C388.586 127.591 392.059 128.208 392.059 128.208C392.059 128.208 394.606 128.593 397.924 126.356C401.243 124.119 397.307 122.884 397.307 122.884Z" fill="white"/>
<path opacity="0.37" d="M170.098 312.755C162.072 316.767 162.072 323.247 170.021 327.259L344.055 414.208C352.004 418.22 365.124 418.22 373.15 414.208L504.196 349.17C526.578 337.597 513.998 335.591 506.049 331.58L330.24 247.639C322.291 243.628 309.171 243.628 301.144 247.639L170.098 312.755Z" fill="#00638E"/>
<path d="M162.072 316.766L338.344 404.795C346.37 408.807 359.644 408.807 367.748 404.795L500.415 338.908C504.505 336.902 506.512 334.202 506.512 331.501V337.596C506.512 340.297 504.505 342.92 500.415 345.003L367.748 410.89C359.644 414.901 346.37 414.901 338.344 410.89L162.072 322.783C158.059 320.777 156.052 318.154 156.052 315.531V309.436C156.052 312.137 158.059 314.76 162.072 316.766Z" fill="#005E7F"/>
<path d="M162.149 302.108C154.045 306.119 153.968 312.754 162.072 316.766L338.344 404.795C346.37 408.807 359.644 408.807 367.748 404.795L500.415 338.908C508.519 334.897 508.596 328.262 500.492 324.25L324.22 236.221C316.194 232.209 302.919 232.209 294.816 236.221L162.149 302.108Z" fill="#057893"/>
<path d="M222.038 263.842V273.794C222.038 273.1 222.578 272.405 223.581 271.865C225.665 270.862 228.984 270.862 231.068 271.865C232.071 272.405 232.611 273.023 232.611 273.717V263.765C232.611 263.07 232.071 262.376 231.068 261.913C228.984 260.91 225.588 260.91 223.581 261.913C222.578 262.453 222.038 263.147 222.038 263.842Z" fill="#D62222"/>
<path d="M266.646 264.382V274.334C267.495 273.948 267.958 273.331 267.958 272.791V262.839C267.958 263.456 267.495 263.996 266.646 264.382Z" fill="#BC8430"/>
<path d="M212.468 278.424C212.237 278.038 212.083 277.575 212.083 277.112V267.16C212.083 268.317 212.931 269.397 214.552 270.169C216.482 271.094 218.179 272.02 219.337 272.56V282.513C218.874 282.281 218.257 281.973 217.562 281.664V290.999L213.009 288.762C212.16 288.299 211.697 287.759 211.697 287.219V277.266C211.697 277.729 212.005 278.115 212.468 278.424Z" fill="#D62222"/>
<path d="M217.484 281.124L217.561 291.077L222.192 293.391V283.439L217.484 281.124Z" fill="#8E6424"/>
<path d="M228.367 283.438V293.391L266.646 274.412V264.382L228.367 283.438Z" fill="#8F6424"/>
<path d="M222.192 283.438V293.391C223.89 294.24 226.668 294.24 228.366 293.391V283.438C226.668 284.287 223.89 284.287 222.192 283.438Z" fill="#BC8430"/>
<path d="M345.521 258.288C338.652 271.558 323.911 281.973 309.325 288.685C289.722 297.789 264.485 303.112 242.258 303.421C229.601 303.575 216.867 302.264 204.287 301.569C197.881 301.183 192.17 299.64 186.305 298.097L171.487 303.961V308.667L315.267 380.803L354.319 399.474L354.473 399.396V262.531L345.521 258.288Z" fill="#9FEDEB"/>
<path d="M490.768 327.105L354.474 262.529V399.395L490.768 331.271V327.105Z" fill="#86E2DE"/>
<path d="M490.768 327.105L354.319 394.766L171.487 303.96L217.562 281.123L222.192 283.438C223.89 284.286 226.669 284.286 228.367 283.438L266.646 264.381C268.344 263.533 268.344 262.144 266.646 261.295L262.016 258.981L308.399 235.99L490.768 327.105Z" fill="#D9FFFB"/>
<path d="M213.009 278.345C211.311 279.194 211.311 280.583 213.009 281.431L217.562 283.669L222.193 285.983C223.891 286.832 226.669 286.832 228.367 285.983L266.647 266.927C267.573 266.464 268.036 265.847 267.881 265.23V262.838L261.939 261.526L257.385 259.289C255.688 258.44 252.909 258.44 251.211 259.289L244.883 262.452C243.725 261.912 242.027 260.986 240.098 260.061C236.625 258.363 230.682 258.44 226.901 260.292L214.938 266.233C211.157 268.161 210.925 271.093 214.321 272.79C216.25 273.716 217.948 274.642 219.106 275.182L213.009 278.345ZM231.145 268.316C229.062 269.319 225.666 269.319 223.582 268.316C221.498 267.313 221.498 265.615 223.582 264.535C225.666 263.532 228.984 263.532 231.068 264.535C233.152 265.538 233.152 267.236 231.145 268.316Z" fill="#D62222"/>
<path d="M213.008 275.723C211.31 276.572 211.31 277.96 213.008 278.809L217.562 281.046L222.192 283.361C223.89 284.21 226.669 284.21 228.367 283.361L266.646 264.305C268.344 263.456 268.344 262.067 266.646 261.219L262.016 258.904L257.462 256.667C255.764 255.818 252.986 255.818 251.288 256.667L244.96 259.83C243.802 259.29 242.104 258.364 240.175 257.438C236.702 255.741 230.759 255.818 226.977 257.67L215.015 263.61C211.233 265.539 211.002 268.471 214.398 270.168C216.327 271.094 218.025 272.02 219.182 272.56L213.008 275.723ZM231.145 265.693C229.061 266.696 225.665 266.696 223.582 265.693C221.498 264.69 221.498 262.993 223.582 261.913C225.665 260.91 228.984 260.91 231.068 261.913C233.151 262.993 233.151 264.69 231.145 265.693Z" fill="#FF815A"/>
<path d="M323.448 248.719L265.025 277.728L323.062 306.736L381.485 277.728L323.448 248.719Z" fill="#9FEDEB"/>
<path d="M322.214 366.374L338.343 374.475L437.516 325.176L421.386 317.152L322.214 366.374Z" fill="#9FEDEB"/>
<path d="M297.903 354.184L314.032 362.285L413.205 313.063L396.998 304.962L297.903 354.184Z" fill="#9FEDEB"/>
<path d="M245.962 328.878L262.169 336.979L318.123 309.128L301.993 301.027L245.962 328.878Z" fill="#9FEDEB"/>
<path d="M405.797 302.57C405.333 302.802 405.025 303.11 404.948 303.419C404.716 304.268 405.874 305.039 407.494 305.116L421.541 306.119C422.544 306.196 423.47 306.042 424.087 305.656C424.55 305.425 424.859 305.116 424.936 304.808L425.785 302.03C426.017 301.182 424.859 300.41 423.238 300.333C422.235 300.256 421.309 300.41 420.692 300.796C420.229 301.027 419.92 301.336 419.843 301.645L419.457 302.879L408.421 302.108C407.417 302.108 406.414 302.262 405.797 302.57Z" fill="#9FEDEB"/>
<path d="M381.485 290.379C381.022 290.611 380.714 290.92 380.636 291.228C380.405 292.077 381.562 292.848 383.183 292.925L397.229 293.928C398.233 294.006 399.159 293.851 399.776 293.466C400.239 293.234 400.548 292.925 400.625 292.617L401.474 289.839C401.706 288.991 400.548 288.219 398.927 288.142C397.924 288.065 396.998 288.219 396.38 288.605C395.917 288.836 395.609 289.145 395.531 289.454L395.146 290.688L384.109 289.917C383.029 289.917 382.103 290.071 381.485 290.379Z" fill="#9FEDEB"/>
<path d="M273.515 342.071L289.722 350.095L388.817 300.872L372.687 292.849L273.515 342.071Z" fill="#9FEDEB"/>
<path d="M225.047 318.386L241.177 326.487L297.208 298.712L281.078 290.612L225.047 318.386Z" fill="#9FEDEB"/>
<path d="M204.133 307.971L220.263 315.994L276.293 288.22L260.086 280.119L204.133 307.971Z" fill="#9FEDEB"/>
<path d="M430.107 314.76C429.644 314.992 429.335 315.3 429.258 315.609C429.026 316.458 430.184 317.229 431.804 317.306L445.851 318.309C446.854 318.386 447.78 318.232 448.397 317.846C448.861 317.615 449.169 317.306 449.246 316.998L450.095 314.22C450.327 313.372 449.169 312.6 447.549 312.523C446.545 312.446 445.619 312.6 445.002 312.986C444.539 313.217 444.23 313.526 444.153 313.834L443.767 315.069L432.731 314.297C431.727 314.22 430.801 314.375 430.107 314.76Z" fill="#9FEDEB"/>
<path d="M323.757 278.345L316.348 281.971L339.887 293.775L347.219 290.149L323.757 278.345Z" fill="white"/>
<path d="M322.907 288.991L315.498 292.617L329.622 299.329L337.031 295.703L322.907 288.991Z" fill="white"/>
<path d="M320.669 267.235L313.337 270.861L349.61 288.992L356.942 285.366L320.669 267.235Z" fill="white"/>
<path d="M317.737 256.125L310.405 259.674L359.335 284.208L366.667 280.582L317.737 256.125Z" fill="white"/>
<path opacity="0.47" d="M367.49 116.721C367.49 116.721 366.218 109.616 374.907 103.755C383.172 98.1901 377.768 82.0096 377.768 82.0096C377.768 82.0096 370.43 89.8162 369.901 92.0312C369.026 95.6779 373.159 98.3521 366.43 106.537C362.589 111.21 365.106 116.342 365.106 116.342C365.106 116.342 362.669 113.371 361.742 110.859C360.735 108.131 360.629 101.864 363.516 95.4078C367.569 86.3316 377 82.5769 382.325 66.9097C387.226 52.4041 379.331 44.1923 372.921 41.302C357.503 34.3598 369.636 0 369.636 0C369.636 0 354.695 18.2604 351.278 26.6072C347.913 34.819 340.443 50.4051 359.649 63.236C370.51 70.4753 363.437 78.2009 357.371 92.3824C351.331 106.564 362.669 116.91 362.669 116.91C364.099 117.234 365.53 117.612 367.49 116.721Z" fill="#EEF8FF"/>
</svg>
