<svg width="176" height="142" viewBox="0 0 176 142" fill="none" xmlns="http://www.w3.org/2000/svg">
<path d="M145.588 110.935L174.609 96.3951C174.981 96.1992 175.191 95.938 175.191 95.6768C175.191 95.4374 175.028 95.2415 174.748 95.0891L145.448 80.4183C144.889 80.1353 143.912 80.1571 143.284 80.4836L114.262 95.0238C113.89 95.2197 113.68 95.4809 113.68 95.7421C113.68 95.9815 113.843 96.1774 114.123 96.3298L143.423 111.022C143.679 111.153 144.028 111.218 144.377 111.218C144.796 111.218 145.238 111.109 145.588 110.935ZM114.332 96.0033C114.239 95.9598 114.099 95.8727 114.099 95.7421C114.099 95.6115 114.239 95.4591 114.472 95.3503L143.493 80.8318C144.005 80.5706 144.796 80.5489 145.238 80.7665L174.539 95.4374C174.632 95.4809 174.772 95.568 174.772 95.6986C174.772 95.8292 174.632 95.9815 174.399 96.0904L145.378 110.631C144.866 110.892 144.075 110.914 143.633 110.696L114.332 96.0033Z" fill="white"/>
<path opacity="0.84" d="M158.812 95.4315L149.783 90.9258C149.643 90.8605 149.55 90.8387 149.48 90.8387C149.364 90.8387 149.271 90.8605 149.178 90.904L140.241 95.3662C140.171 95.4097 140.124 95.4533 140.124 95.475C140.124 95.5186 140.171 95.5403 140.194 95.5621L149.224 100.068C149.364 100.133 149.596 100.133 149.759 100.046L158.696 95.5839C158.766 95.5403 158.812 95.4968 158.812 95.475C158.789 95.4315 158.766 95.4097 158.812 95.4315Z" fill="white"/>
<path opacity="0.84" d="M31.5684 108.408L22.5385 103.903C22.3989 103.837 22.3058 103.816 22.2359 103.816C22.1196 103.816 22.0265 103.837 21.9334 103.881L12.9966 108.343C12.9268 108.387 12.8802 108.43 12.8802 108.452C12.8802 108.496 12.9268 108.517 12.9501 108.539L21.9799 113.045C22.1196 113.11 22.3523 113.11 22.5152 113.023L31.452 108.561C31.5218 108.517 31.5684 108.474 31.5684 108.452C31.5451 108.408 31.5218 108.387 31.5684 108.408Z" fill="white"/>
<path opacity="0.49" d="M41.4841 106.794L21.5625 96.8244C21.4229 96.7591 21.2599 96.7373 21.0738 96.7373C20.841 96.7373 20.585 96.7808 20.3989 96.8897L0.663467 106.772C0.500557 106.859 0.407471 106.946 0.407471 107.033C0.407471 107.12 0.500549 107.164 0.57037 107.207L20.4919 117.176C20.7945 117.329 21.3298 117.307 21.6556 117.133L41.391 107.229C41.5539 107.142 41.647 107.055 41.647 106.968C41.6237 106.902 41.5539 106.837 41.4841 106.794Z" fill="white"/>
<path opacity="0.37" d="M60.3359 141.927L72.2284 138.836L73.2058 141.187L100.342 138.967L99.7369 137.944L70.8553 136.05L61.2436 140.513L60.3359 141.927Z" fill="#00638E"/>
<path d="M49.1192 133.569L60.3368 141.927L86.6584 134.2L75.4176 125.842L49.1192 133.569Z" fill="#FFAE85"/>
<path d="M74.2297 132.394L69.2027 132.437L70.5526 135.071L74.2297 132.394Z" fill="#EF937B"/>
<path d="M69.7613 131.327L70.5991 135.572L73.2057 141.187L100.039 138.662L96.2458 129.847L73.6711 131.98L69.7613 131.327Z" fill="#FFDD88"/>
<path d="M77.4407 131.632L70.5984 135.571L69.7606 131.327L77.4407 131.632Z" fill="#FFD073"/>
<path opacity="0.7" d="M80.3265 140.513L92.9404 133.961L91.8699 139.424L80.3265 140.513Z" fill="#FFEA94"/>
<path d="M120.999 76.3818L120.58 77.4266L106.895 71.0489L105.313 68.9375L109.269 63.7788L109.223 62.6687L104.266 60.3614L105.313 56.8134L110.596 54.6367C111.178 53.4613 111.853 52.3294 112.667 51.2628L111.387 46.8441L114.436 43.8839L118.299 45.7993C119.37 45.0593 120.161 44.6022 121.278 44.1015L124.141 38.4204L127.422 37.8762L133.822 40.8365L135.195 39.8787L148.88 46.2564C149.159 47.1271 140.781 52.3512 140.781 52.3512L151.253 57.2269L143.504 58.3371C142.922 59.5125 138.477 68.0451 137.662 69.1117L141.153 73.6392L133.915 70.2653L128.12 79.7121L120.999 76.3818Z" fill="#9FEDEB"/>
<path d="M134.125 53.9818C134.056 54.0471 133.823 54.2648 133.52 54.613C132.124 56.1585 128.866 59.9459 128.866 59.9459C128.866 59.9459 123.49 64.1905 128.144 67.0419C132.799 69.8934 128.656 71.33 132.171 70.2416C135.685 69.1533 135.685 69.1533 135.685 69.1533L138.338 66.8896L140.526 63.1892L141.131 59.4018L140.526 55.6796L134.125 53.9818Z" fill="#168CA8"/>
<path opacity="0.31" d="M143.131 68.0432L129.424 61.6655L124.141 63.8422L137.848 70.2198L143.131 68.0432Z" fill="#33B3C4"/>
<path d="M128.119 79.6884L128.468 74.4861C127.514 74.3991 126.63 74.1596 125.885 73.7678L120.579 77.4247L118.996 75.3133L122.953 70.1545C122.673 69.2839 122.557 68.3261 122.58 67.2595L117.949 66.7371L118.996 63.1891L124.279 61.0124C124.861 59.837 125.536 58.7052 126.351 57.6386L125.071 53.2199L128.119 50.3249L131.68 52.4145C132.751 51.6745 133.844 51.0215 134.962 50.5426L137.824 44.8614L141.106 44.3173L140.803 49.4107C141.757 49.4978 142.642 49.7372 143.386 50.129L148.879 46.3198L150.461 48.4312L146.319 53.7423C146.598 54.613 146.714 55.5707 146.691 56.6373L151.229 57.2685L150.182 60.8165L144.992 62.8844C144.41 64.0598 143.735 65.1917 142.921 66.2583L144.178 70.764L141.129 73.659L137.591 71.4823C136.521 72.2224 135.427 72.8754 134.31 73.376L131.378 79.1878L128.119 79.6884ZM133.076 67.2595C135.799 66.8024 138.732 64.0163 139.593 61.056C140.454 58.0957 138.964 56.0714 136.218 56.5285C133.495 56.9856 130.563 59.7717 129.702 62.732C128.841 65.6923 130.354 67.7166 133.076 67.2595Z" fill="#33B3C4"/>
<path d="M114.437 43.882L128.121 50.2596L125.072 53.1764L111.388 46.7987L114.437 43.882Z" fill="#E6FFFE"/>
<path d="M124.28 60.9907L110.596 54.613L105.313 56.7897L118.997 63.1674L124.28 60.9907Z" fill="#E6FFFE"/>
<path d="M124.14 38.4185L137.848 44.7961L141.106 44.2302L127.422 37.8525L124.14 38.4185Z" fill="#E6FFFE"/>
<path d="M122.954 70.1545L118.997 75.3133L105.313 68.9356L109.269 63.7769L122.954 70.1545Z" fill="#E6FFFE"/>
<path d="M66.8432 76.837L65.9821 78.9267L38.6831 66.193L35.5412 61.9703L43.4307 51.6745L43.3376 49.4543L33.4467 44.8397L35.5412 37.7437L46.0838 33.3904C47.2242 31.0613 48.5973 28.7758 50.2031 26.6426L47.6664 17.8271L53.7639 12.0371L61.4905 15.8463C63.6083 14.3444 65.1908 13.4519 67.425 12.4506L73.1502 1.11011L79.6898 0L92.4666 5.92059L95.2129 4.00511L122.465 16.7387C123.001 18.4583 106.314 28.8846 106.314 28.8846L127.167 38.5927L111.69 40.7911C110.55 43.1202 101.636 60.1419 100.054 62.2968L106.989 71.33L92.5597 64.6041L81.0164 83.4542L66.8432 76.837Z" fill="#9FEDEB"/>
<path d="M106.408 38.5055L93.3516 35.3276L84.9035 41.727L81.5988 54.7654L85.369 61.7526L93.98 62.1009C93.98 62.1009 94.1429 65.8448 98.3785 58.4005C102.614 50.9562 102.614 50.9562 102.614 50.9562L107.781 43.9908L106.408 38.5055Z" fill="#168CA8"/>
<path opacity="0.31" d="M110.945 60.2071L83.6462 47.4953L73.1036 51.8487L100.403 64.5605L110.945 60.2071Z" fill="#33B3C4"/>
<path d="M81.0155 83.4542L81.737 73.0496C79.8053 72.8755 78.0831 72.3966 76.5704 71.613L65.9813 78.9049L62.8394 74.6821L70.7289 64.3864C70.1936 62.6668 69.9376 60.7296 69.9842 58.6182L60.7449 57.5516L62.8394 50.4556L73.382 46.1022C74.5224 43.7732 75.8955 41.4877 77.5013 39.3545L74.9646 30.5389L81.0388 24.7489L88.137 28.9282C90.2548 27.4263 92.4425 26.1638 94.6767 25.1843L100.402 13.8437L106.941 12.7336L106.36 22.8987C108.291 23.0729 110.013 23.5518 111.526 24.3136L122.464 16.7387L125.606 20.9615L117.344 31.5402C117.88 33.2598 118.136 35.197 118.089 37.3084L127.166 38.5927L125.071 45.6887L114.715 49.8244C113.574 52.1534 112.201 54.4389 110.595 56.5721L113.085 65.5401L106.988 71.33L99.9363 67.0202C97.8185 68.5221 95.6308 69.7846 93.3966 70.7859L87.5552 82.3659L81.0155 83.4542ZM90.9065 58.64C96.3523 57.7257 102.171 52.197 103.893 46.2764C105.638 40.3775 102.636 36.3289 97.1901 37.2649C91.7443 38.1791 85.9261 43.7079 84.2039 49.6285C82.4584 55.5273 85.4606 59.5759 90.9065 58.64Z" fill="#33B3C4"/>
<path d="M53.7395 12.037L81.0386 24.7489L74.9411 30.5389L47.642 17.827L53.7395 12.037Z" fill="#E6FFFE"/>
<path d="M73.3811 46.124L46.082 33.3904L35.5394 37.7438L62.8385 50.4774L73.3811 46.124Z" fill="#E6FFFE"/>
<path d="M73.1031 1.11011L100.402 13.822L106.942 12.7119L79.6428 0L73.1031 1.11011Z" fill="#E6FFFE"/>
<path d="M70.7285 64.3864L62.839 74.6821L35.5399 61.9703L43.4294 51.6746L70.7285 64.3864Z" fill="#E6FFFE"/>
<path d="M29.1137 87.3287L28.5319 88.7653L9.75072 80.015L7.58636 77.0982L13.0089 70.024L12.9391 68.5003L6.14343 65.3224L7.58636 60.4466L14.8242 57.4645C15.6155 55.8538 16.5697 54.3083 17.6402 52.8282L15.8948 46.7552L20.0839 42.7719L25.3901 45.4057C26.8563 44.3826 27.9268 43.7514 29.4628 43.0766L33.3959 35.2623L37.8876 34.5005L46.6847 38.5709L48.5698 37.2649L67.351 46.0152C67.7234 47.2123 56.2266 54.3736 56.2266 54.3736L70.5859 61.0561L59.9503 62.5798C59.159 64.1905 53.0382 75.9011 51.9444 77.3595L56.7153 83.563L46.8011 78.9484L38.8651 91.8997L29.1137 87.3287Z" fill="#9FEDEB"/>
<path d="M57.207 60.0766L48.9917 57.051L41.591 63.9075L39.2637 72.8537L42.7546 77.9471L48.1772 77.4465L51.5517 75.3351L54.4608 70.024L57.207 60.0766Z" fill="#168CA8"/>
<path opacity="0.31" d="M59.4414 75.901L40.6603 67.1508L33.4224 70.1328L52.2036 78.8831L59.4414 75.901Z" fill="#33B3C4"/>
<path d="M38.8686 91.8779L39.3573 84.7384C38.0308 84.6296 36.8439 84.2813 35.8199 83.7589L28.5355 88.7653L26.3711 85.8485L31.7937 78.7743C31.4213 77.5771 31.2351 76.2493 31.2817 74.7909L24.9282 74.0726L26.3711 69.1969L33.6089 66.2148C34.4002 64.6041 35.3544 63.0586 36.4249 61.5785L34.6795 55.5055L38.8686 51.5222L43.7559 54.3954C45.2221 53.3724 46.7116 52.5017 48.2476 51.8269L52.1807 44.0126L56.6723 43.2508L56.2767 50.2379C57.6033 50.3468 58.7902 50.6733 59.8375 51.2174L67.3779 46.0152L69.5422 48.9319L63.8637 56.2021C64.236 57.3992 64.4222 58.727 64.3757 60.1636L70.6128 61.0343L69.1699 65.9101L62.0484 68.7615C61.2571 70.3723 60.3029 71.9177 59.2324 73.3979L60.9546 79.5796L56.7654 83.563L51.9247 80.6027C50.4585 81.6257 48.969 82.5182 47.433 83.1929L43.4068 91.1596L38.8686 91.8779ZM45.6643 74.8127C49.4112 74.1815 53.4141 70.3723 54.6011 66.3236C55.788 62.275 53.74 59.4888 49.993 60.1201C46.2461 60.7513 42.2432 64.5605 41.0563 68.6092C39.8461 72.6796 41.9173 75.4657 45.6643 74.8127Z" fill="#33B3C4"/>
<path d="M20.0868 42.7719L38.8679 51.5004L34.6788 55.4838L15.8976 46.7553L20.0868 42.7719Z" fill="#E6FFFE"/>
<path d="M33.6099 66.2148L14.8286 57.4645L7.59076 60.4466L26.372 69.1968L33.6099 66.2148Z" fill="#E6FFFE"/>
<path d="M33.4223 35.2406L52.2034 43.9908L56.6951 43.229L37.9139 34.5005L33.4223 35.2406Z" fill="#E6FFFE"/>
<path d="M31.7939 78.7743L26.3714 85.8485L7.59015 77.0982L13.0127 70.024L31.7939 78.7743Z" fill="#E6FFFE"/>
<path d="M51.227 40.6841L50.808 41.729L37.1236 35.3513L35.5411 33.2399L39.4974 28.0811L39.4509 26.971L34.4938 24.6637L35.5411 21.1157L40.824 18.939C41.4058 17.7636 42.0807 16.6318 42.8953 15.5652L41.6153 11.1465L44.664 8.18621L48.5273 10.1017C49.5979 9.36163 50.3891 8.90452 51.5062 8.40388L54.3688 2.72273L57.6503 2.17856L64.0503 5.11708L65.4234 4.15934L79.1079 10.537C79.3871 11.4077 71.0089 16.6318 71.0089 16.6318L81.4817 21.5075L73.7318 22.6176C73.15 23.7931 68.7049 32.3257 67.8903 33.3922L71.3813 37.9198L64.1434 34.5459L58.3485 43.9927L51.227 40.6841Z" fill="#9FEDEB"/>
<path d="M64.353 18.2624C64.2832 18.3277 64.0505 18.5454 63.748 18.8936C62.3516 20.4391 59.0934 24.2265 59.0934 24.2265C59.0934 24.2265 53.7174 28.471 58.3719 31.3225C63.0265 34.174 58.8839 35.6106 62.3981 34.5222C65.9123 33.4339 65.9123 33.4339 65.9123 33.4339L68.5654 31.1701L70.7531 27.4698L71.3582 23.6823L70.7531 19.9602L64.353 18.2624Z" fill="#168CA8"/>
<path opacity="0.31" d="M73.3362 32.3456L59.6518 25.9679L54.3688 28.1446L68.0532 34.5223L73.3362 32.3456Z" fill="#33B3C4"/>
<path d="M58.3466 43.9908L58.6957 38.7886C57.7415 38.7015 56.8571 38.4621 56.1124 38.0703L50.8062 41.7271L49.2236 39.6157L53.18 34.457C52.9007 33.5863 52.7844 32.6285 52.8076 31.562L48.1763 31.0396L49.2236 27.4916L54.5066 25.3149C55.0884 24.1395 55.7633 23.0076 56.5778 21.941L55.2978 17.5223L58.3466 14.6273L61.9073 16.717C62.9779 15.9769 64.0717 15.3239 65.1888 14.845L68.0514 9.16386L71.3328 8.61969L71.0303 13.7131C71.9845 13.8002 72.8688 14.0396 73.6136 14.4314L79.106 10.6222L80.6885 12.7336L76.546 18.0447C76.8252 18.9154 76.9416 19.8732 76.9183 20.9397L81.4565 21.571L80.4093 25.119L75.2194 27.1868C74.6376 28.3622 73.9627 29.4941 73.1481 30.5607L74.4049 35.0664L71.3561 37.9614L67.8186 35.7847C66.7481 36.5248 65.6543 37.1778 64.5372 37.6785L61.6048 43.4902L58.3466 43.9908ZM63.3037 31.562C66.0266 31.1049 68.959 28.3187 69.8201 25.3584C70.6812 22.3981 69.1917 20.3738 66.4455 20.8309C63.7226 21.288 60.7902 24.0742 59.9291 27.0345C59.068 29.9948 60.5575 32.0191 63.3037 31.562Z" fill="#33B3C4"/>
<path d="M44.6642 8.18433L58.3486 14.562L55.2999 17.4788L41.5922 11.1011L44.6642 8.18433Z" fill="#E6FFFE"/>
<path d="M54.5076 25.2713L40.8231 18.8937L35.5402 21.0921L49.2246 27.4698L54.5076 25.2713Z" fill="#E6FFFE"/>
<path d="M54.3676 2.72085L68.052 9.09857L71.3335 8.53263L57.649 2.15491L54.3676 2.72085Z" fill="#E6FFFE"/>
<path d="M53.1816 34.4352L49.2253 39.6157L35.5408 33.238L39.4972 28.0575L53.1816 34.4352Z" fill="#E6FFFE"/>
<path d="M115.384 20.1817C97.5338 30.1727 83.3606 53.9639 83.7329 73.3147C83.9191 82.8921 87.6428 89.5963 93.5076 92.709L104.679 97.7806C108.635 97.4106 112.219 92.8178 116.757 90.2928C134.607 80.3018 148.781 56.5106 148.408 37.1599C148.292 31.0434 149.944 25.4275 147.314 21.836L135.026 16.3508C129.487 14.9577 122.692 16.0896 115.384 20.1817Z" fill="#FF815A"/>
<path d="M101.915 96.6591C89.079 89.9254 88.7455 67.6709 101.17 46.9523C113.595 26.2336 134.073 14.8965 146.909 21.6302C159.745 28.3638 160.079 50.6183 147.654 71.337C135.229 92.0556 114.751 103.393 101.915 96.6591Z" fill="#D84021"/>
<path d="M123.787 86.9842C137.96 79.061 149.201 60.1674 148.898 44.8C148.712 35.6797 144.5 29.8679 138.123 28.3007C145.943 28.7796 151.342 34.8743 151.528 45.2136C151.831 60.581 140.567 79.4746 126.393 87.3977C120.645 90.6192 115.292 91.4899 110.964 90.4233C114.78 90.641 119.132 89.5744 123.787 86.9842Z" fill="#D3C5DD"/>
<path d="M122.692 31.3263C128.441 28.1048 133.794 27.2342 138.122 28.3007C144.476 29.868 148.711 35.6797 148.898 44.8C149.2 60.1674 137.936 79.0611 123.763 86.9842C119.132 89.5745 114.756 90.6411 110.963 90.4234C103.143 89.9445 97.7438 83.8498 97.5576 73.5105C97.2784 58.1431 108.519 39.2495 122.692 31.3263Z" fill="white"/>
<path d="M124.297 35.375C123.226 35.9845 122.365 37.3993 122.388 38.5747C122.412 39.7284 123.296 40.1855 124.367 39.5978C125.437 38.9883 126.298 37.5735 126.275 36.4198C126.252 35.2226 125.367 34.7655 124.297 35.375Z" fill="#460F00"/>
<path d="M125.136 78.7128C124.065 79.3223 123.204 80.7371 123.227 81.9125C123.25 83.0662 124.135 83.5233 125.205 82.9356C126.276 82.3261 127.137 80.9113 127.114 79.7576C127.091 78.5604 126.206 78.1033 125.136 78.7128Z" fill="#460F00"/>
<path d="M144.709 45.8667C143.638 46.4544 142.801 47.891 142.824 49.0446C142.847 50.1982 143.731 50.6553 144.802 50.0676C145.873 49.4582 146.734 48.0433 146.71 46.8679C146.664 45.7143 145.78 45.2572 144.709 45.8667Z" fill="#460F00"/>
<path d="M104.726 68.1995C103.655 68.8089 102.794 70.2238 102.817 71.3992C102.841 72.5528 103.725 73.0099 104.796 72.4222C105.866 71.8345 106.704 70.3979 106.681 69.2443C106.681 68.0689 105.796 67.6117 104.726 68.1995Z" fill="#460F00"/>
<path d="M124.669 40.882C123.994 41.2521 123.482 42.1445 123.482 42.8628L123.505 60.6246C123.505 60.9729 124.319 60.4722 124.552 60.6028C124.552 60.6028 140.89 51.0907 141.123 50.6989C141.588 49.9371 141.588 48.3263 140.541 48.914L125.786 57.6643L125.902 41.5133C125.879 40.8167 125.32 40.512 124.669 40.882Z" fill="#801B00"/>
<path d="M124.623 56.1188C123.064 56.9895 121.853 59.0356 121.877 60.7116C121.9 62.3877 123.18 63.0407 124.739 62.17C126.299 61.2993 127.509 59.2532 127.486 57.5772C127.462 55.9012 126.182 55.2482 124.623 56.1188Z" fill="#EF3200"/>
<path d="M124.67 58.3173C124.251 58.5567 123.902 59.1226 123.902 59.5797C123.902 60.0368 124.274 60.2327 124.693 59.9933C125.112 59.7539 125.461 59.1879 125.461 58.7308C125.461 58.252 125.112 58.0778 124.67 58.3173Z" fill="white"/>
<path d="M39.5348 129.69V94.1445C39.5348 93.5133 40.0934 92.7514 40.7683 92.4249L87.4537 70.7016C87.7795 70.5492 88.082 70.5274 88.2915 70.6145L86.2435 69.6785C86.0108 69.5697 85.7082 69.5697 85.3591 69.7438L38.6737 91.4672C37.9988 91.7937 37.4402 92.5555 37.4402 93.1868V128.754C37.4402 129.059 37.5566 129.254 37.7661 129.363L37.7893 129.385C37.7893 129.385 37.8126 129.385 37.8126 129.407L39.8839 130.343C39.6744 130.234 39.5348 130.016 39.5348 129.69Z" fill="#168CA8"/>
<path d="M88.6875 71.2893C88.6875 70.9845 88.5711 70.7886 88.3617 70.6798C88.3384 70.658 88.3151 70.658 88.3151 70.658C88.1057 70.571 87.8031 70.5927 87.4773 70.7451L40.7919 92.4684C40.117 92.7949 39.5585 93.5568 39.5585 94.188V129.69C39.5585 129.994 39.6981 130.212 39.9076 130.321C39.9076 130.321 39.9308 130.321 39.9308 130.343H39.9541C40.1636 130.43 40.4661 130.408 40.7687 130.256L87.454 108.532C88.129 108.206 88.6875 107.444 88.6875 106.813V71.2893Z" fill="#33B3C4"/>
<path d="M41.6275 124.879V100.675C41.6275 100.109 42.1162 99.4339 42.7213 99.1509L89.6859 77.3187C89.9885 77.1881 90.2445 77.1664 90.4307 77.2534L88.3594 76.2957C88.1732 76.2086 87.8939 76.2086 87.5914 76.361L40.6267 98.2149C40.0216 98.4979 39.5329 99.1727 39.5329 99.7386V123.943C39.5329 124.205 39.6493 124.4 39.8354 124.488H39.8587L41.9067 125.424C41.7438 125.336 41.6275 125.141 41.6275 124.879Z" fill="#9FEDEB"/>
<path d="M90.7803 77.8193C90.7803 77.5581 90.6639 77.3622 90.4777 77.2751C90.4777 77.2751 90.4545 77.2751 90.4545 77.2534C90.2683 77.1663 89.989 77.1881 89.7097 77.3187L42.7218 99.1726C42.1167 99.4556 41.628 100.13 41.628 100.696V124.901C41.628 125.162 41.7444 125.336 41.9073 125.445C42.1167 125.554 42.396 125.554 42.6986 125.402L89.6864 103.526C90.2915 103.243 90.7803 102.568 90.7803 102.002V77.8193Z" fill="#E1FEFF"/>
<path d="M64.7849 104.027L60.0373 106.225V101.806L64.7849 99.5862V104.027Z" fill="#9FEDEB"/>
<path d="M72.0686 100.631L67.321 102.851V98.4109L72.0686 96.1906V100.631Z" fill="#9FEDEB"/>
<path d="M50.2156 117.587L45.4446 119.808V115.367L50.2156 113.169V117.587Z" fill="#9FEDEB"/>
<path d="M57.499 114.192L52.7281 116.412V111.972L57.499 109.773V114.192Z" fill="#9FEDEB"/>
<path d="M64.7849 110.796L60.0373 113.016V108.598L64.7849 106.378V110.796Z" fill="#9FEDEB"/>
<path d="M57.499 100.631L52.7281 102.851V98.4108L57.499 96.1906V100.631Z" fill="#9FEDEB"/>
<path d="M64.7849 97.2354L60.0373 99.4556V95.0152L64.7849 92.8168V97.2354Z" fill="#9FEDEB"/>
<path d="M72.0696 93.8398L67.3219 96.06V91.6414L72.0696 89.4211V93.8398Z" fill="#9FEDEB"/>
<path d="M50.2156 110.796L45.4446 113.016V108.598L50.2156 106.378V110.796Z" fill="#9FEDEB"/>
<path d="M57.499 107.422L52.7281 109.621V105.202L57.499 102.982V107.422Z" fill="#9FEDEB"/>
<path d="M50.2156 104.027L45.4446 106.225V101.806L50.2156 99.5862V104.027Z" fill="#9FEDEB"/>
<path d="M79.3772 90.4441L74.6063 92.6643V88.2456L79.3772 86.0255V90.4441Z" fill="#F15C24"/>
<path d="M79.3772 97.2354L74.6063 99.4556V95.0152L79.3772 92.8167V97.2354Z" fill="#F15C24"/>
<path d="M86.6611 93.8398L81.8901 96.06V91.6413L86.6611 89.4211V93.8398Z" fill="#F15C24"/>
<path d="M86.6609 87.0703L81.89 89.2687V84.8501L86.6609 82.6298V87.0703Z" fill="#F15C24"/>
<path d="M51.8446 90.4659C51.7981 91.8155 50.5646 93.448 49.0984 94.0792C47.6089 94.7105 46.4452 94.1445 46.4918 92.7732C46.5383 91.4237 47.7718 89.7912 49.238 89.1599C50.7275 88.5287 51.8911 89.1164 51.8446 90.4659Z" fill="#168CA8"/>
<path d="M66.6688 84.11C66.6223 85.4595 65.3888 87.092 63.9226 87.7233C62.4332 88.3545 61.2696 87.7886 61.3161 86.4173C61.3627 85.0677 62.5961 83.4352 64.0623 82.804C65.5285 82.1727 66.6921 82.7604 66.6688 84.11Z" fill="#168CA8"/>
<path d="M81.4711 77.754C81.4245 79.1036 80.1911 80.7361 78.7249 81.3674C77.2354 81.9986 76.0718 81.4327 76.1184 80.0614C76.1649 78.7118 77.3983 77.0793 78.8645 76.448C80.354 75.8168 81.5176 76.4045 81.4711 77.754Z" fill="#168CA8"/>
<path d="M51.4461 91.293L51.4694 91.2712C51.8418 91.1189 52.1676 91.0971 52.4236 91.2059L50.4221 90.2264C50.1661 90.0741 49.817 90.0741 49.4214 90.2482L49.3981 90.27C48.6301 90.5965 47.9785 91.4454 47.9785 92.1419L47.9087 94.2751L49.9334 95.2981L50.0032 93.165C50.0265 92.4684 50.6781 91.6195 51.4461 91.293Z" fill="#55ACB7"/>
<path d="M52.8201 91.946C52.8201 91.576 52.6804 91.3365 52.4011 91.2059C52.1684 91.0971 51.8193 91.0971 51.447 91.2712L51.4237 91.293C50.6557 91.6195 50.0041 92.4684 50.0041 93.1649L49.9343 95.6028L49.911 96.43C49.8877 97.1265 50.4928 97.4312 51.2608 97.1047L51.2841 97.083C52.0521 96.7565 52.7037 95.9075 52.7037 95.211L52.8201 91.946Z" fill="#69C2CC"/>
<path d="M66.2266 84.8718L66.2499 84.85C66.6223 84.6977 66.9481 84.6759 67.2041 84.7847L65.2026 83.8052C64.9466 83.6746 64.5976 83.6529 64.2019 83.827L64.1787 83.8488C63.4107 84.1753 62.759 85.0242 62.759 85.7207L62.6892 87.8539L64.7605 88.8552L64.8303 86.722C64.807 86.069 65.4354 85.2201 66.2266 84.8718Z" fill="#55ACB7"/>
<path d="M67.6001 85.5466C67.6001 85.2201 67.4837 84.9807 67.251 84.8501C67.251 84.8501 67.251 84.8501 67.2277 84.8283C67.2045 84.8283 67.2045 84.8065 67.1812 84.8065C66.9485 84.6977 66.5994 84.6977 66.227 84.8718L66.2037 84.8936C65.4357 85.2201 64.7841 86.069 64.7841 86.7655L64.7143 89.2034L64.691 90.0306C64.6677 90.7271 65.2728 91.0318 66.0408 90.7053L66.0641 90.6836C66.8321 90.3571 67.4837 89.5082 67.4837 88.8116L67.6001 85.5466Z" fill="#69C2CC"/>
<path d="M80.982 78.4724L81.0053 78.4506C81.3776 78.2765 81.7267 78.2765 81.9595 78.3853L79.9114 77.384C79.6554 77.2752 79.3296 77.2752 78.9573 77.4493L78.934 77.4711C78.166 77.7976 77.5143 78.6465 77.5143 79.3431L77.4445 81.4762L79.5158 82.4775L79.5856 80.3443C79.5856 79.6478 80.214 78.8206 80.982 78.4724Z" fill="#55ACB7"/>
<path d="M82.3777 79.1471C82.3777 78.7989 82.2381 78.5594 82.0053 78.4288C82.0053 78.4288 82.0053 78.4288 81.9821 78.4288C81.7261 78.32 81.4003 78.32 81.0279 78.4941L81.0046 78.5159C80.2366 78.8424 79.585 79.6913 79.585 80.3879L79.4919 83.6529C79.4686 84.3494 80.0737 84.6542 80.8417 84.3277L80.865 84.3059C81.633 83.9794 82.2846 83.1305 82.2846 82.4339L82.3777 79.1471Z" fill="#69C2CC"/>
<path opacity="0.37" d="M118.846 136.583L87.8933 120.78C87.777 120.715 87.6373 120.693 87.4744 120.671C87.4977 120.671 87.521 120.671 87.5442 120.671C86.1013 120.432 81.2838 119.67 80.3297 119.518C80.8882 120.105 83.6344 123.066 84.4489 123.958C84.4489 123.936 84.4257 123.936 84.4257 123.915C84.4955 124.002 84.5886 124.089 84.705 124.154L113.563 138.39L116.1 139.63C116.1 139.63 116.915 139.804 117.473 139.609C118.614 139.217 119.638 138.738 119.754 137.802C119.824 137.28 118.8 136.561 118.846 136.583Z" fill="#00638E"/>
<path d="M79.5405 117.972C80.0991 118.604 80.6343 119.235 81.1929 119.866C81.1231 119.779 81.0765 119.67 81.0998 119.54L79.5405 117.972Z" fill="#0A3075"/>
<path d="M82.3318 118.473C81.4009 118.299 80.47 118.146 79.5391 117.972L81.0984 119.539C81.1216 119.148 81.494 118.691 81.9362 118.516C82.0758 118.473 82.2154 118.451 82.3318 118.473Z" fill="#057893"/>
<path d="M81.1918 119.866C82.0063 120.824 82.8442 121.76 83.6587 122.717C83.4725 122.522 83.4027 122.239 83.426 121.869L81.0987 119.518C81.0754 119.67 81.122 119.801 81.1918 119.866Z" fill="#FF8E66"/>
<path d="M86.52 119.213C85.1237 118.974 83.7273 118.712 82.3309 118.473C82.2146 118.451 82.0749 118.473 81.9353 118.516C81.4931 118.691 81.1207 119.126 81.0975 119.539L83.4247 121.89C83.4946 120.911 84.4487 119.779 85.5193 119.365C85.8917 119.191 86.2407 119.169 86.52 119.213Z" fill="#FFB48A"/>
<path d="M83.9147 122.935L110.678 137.367C110.329 137.192 110.143 136.822 110.19 136.322L83.426 121.89C83.3795 122.369 83.5656 122.739 83.9147 122.935Z" fill="#001D56"/>
<path d="M113.612 133.753L86.8479 119.322C86.5221 119.148 86.0567 119.148 85.5214 119.344C84.4508 119.757 83.4966 120.889 83.4268 121.869L110.191 136.3C110.261 135.32 111.215 134.189 112.285 133.775C112.821 133.557 113.286 133.579 113.612 133.753Z" fill="#083D7C"/>
<path d="M110.679 137.345L114.635 139.478C114.286 139.304 114.1 138.934 114.146 138.433L110.19 136.3C110.143 136.801 110.33 137.171 110.679 137.345Z" fill="#ED4373"/>
<path d="M117.566 135.886L113.609 133.753C113.283 133.579 112.818 133.579 112.283 133.775C111.212 134.189 110.258 135.321 110.188 136.3L114.145 138.433C114.214 137.454 115.169 136.322 116.239 135.908C116.751 135.691 117.24 135.691 117.566 135.886Z" fill="#FF73AC"/>
<path d="M111.657 137.105L110.19 136.322C110.144 136.822 110.353 137.192 110.679 137.367L112.145 138.15C111.819 137.954 111.61 137.606 111.657 137.105Z" fill="#D9FFFB"/>
<path d="M114.913 134.45L113.61 133.753C113.284 133.579 112.819 133.579 112.283 133.775C111.213 134.189 110.282 135.212 110.189 136.3L111.655 137.084C111.725 136.104 112.632 134.929 113.703 134.493C114.168 134.341 114.587 134.319 114.913 134.45Z" fill="white"/>
<path d="M114.146 138.433C114.077 139.413 114.891 139.87 115.962 139.456C117.032 139.043 117.986 137.911 118.056 136.931C118.126 135.952 117.311 135.495 116.241 135.908C115.147 136.322 114.216 137.454 114.146 138.433Z" fill="#E85490"/>
<path d="M115.056 138.324C115.009 138.999 115.568 139.326 116.312 139.043C117.057 138.76 117.709 137.976 117.755 137.301C117.802 136.626 117.243 136.3 116.498 136.583C115.754 136.866 115.102 137.65 115.056 138.324Z" fill="#D6418B"/>
<path opacity="0.37" d="M92.082 113.862C90.3623 114.666 90.3623 115.965 92.0655 116.77L129.353 134.199C131.057 135.003 133.868 135.003 135.587 134.199L163.665 121.162C168.46 118.842 165.765 118.44 164.062 117.636L126.393 100.809C124.69 100.005 121.879 100.005 120.16 100.809L92.082 113.862Z" fill="#00638E"/>
<path d="M90.3632 114.666L128.131 132.313C129.85 133.117 132.694 133.117 134.431 132.313L162.855 119.105C163.732 118.703 164.162 118.161 164.162 117.62V118.842C164.162 119.383 163.732 119.909 162.855 120.327L134.431 133.534C132.694 134.339 129.85 134.339 128.131 133.534L90.3632 115.873C89.5033 115.47 89.0734 114.945 89.0734 114.419V113.197C89.0734 113.738 89.5033 114.264 90.3632 114.666Z" fill="#005E7F"/>
<path d="M90.3781 111.728C88.6419 112.532 88.6253 113.862 90.3616 114.666L128.129 132.312C129.849 133.117 132.693 133.117 134.429 132.312L162.854 119.105C164.59 118.301 164.606 116.971 162.87 116.166L125.103 98.5202C123.383 97.7159 120.539 97.7159 118.803 98.5202L90.3781 111.728Z" fill="#057893"/>
<path d="M103.211 104.057V106.052C103.211 105.913 103.327 105.774 103.542 105.665C103.989 105.464 104.7 105.464 105.146 105.665C105.361 105.774 105.477 105.897 105.477 106.036V104.041C105.477 103.902 105.361 103.763 105.146 103.67C104.7 103.469 103.972 103.469 103.542 103.67C103.327 103.779 103.211 103.918 103.211 104.057Z" fill="#D62222"/>
<path d="M112.767 104.165V106.16C112.949 106.083 113.048 105.959 113.048 105.851V103.856C113.048 103.98 112.949 104.088 112.767 104.165Z" fill="#BC8430"/>
<path d="M101.161 106.98C101.111 106.903 101.078 106.81 101.078 106.717V104.722C101.078 104.954 101.26 105.17 101.607 105.325C102.021 105.511 102.384 105.696 102.632 105.804V107.8C102.533 107.753 102.401 107.691 102.252 107.629V109.501L101.276 109.052C101.095 108.959 100.995 108.851 100.995 108.743V106.748C100.995 106.841 101.061 106.918 101.161 106.98Z" fill="#D62222"/>
<path d="M102.236 107.521L102.253 109.516L103.245 109.98V107.985L102.236 107.521Z" fill="#8E6424"/>
<path d="M104.568 107.985V109.98L112.77 106.176V104.165L104.568 107.985Z" fill="#8F6424"/>
<path d="M103.246 107.985V109.98C103.61 110.15 104.205 110.15 104.569 109.98V107.985C104.205 108.155 103.61 108.155 103.246 107.985Z" fill="#BC8430"/>
<path d="M129.669 102.943C128.197 105.603 125.039 107.691 121.913 109.037C117.713 110.862 112.306 111.929 107.544 111.991C104.832 112.022 102.104 111.759 99.4083 111.62C98.0359 111.542 96.8122 111.233 95.5555 110.924L92.3807 112.099V113.042L123.187 127.503L131.554 131.245L131.587 131.23V103.794L129.669 102.943Z" fill="#9FEDEB"/>
<path d="M160.79 116.739L131.588 103.794V131.23L160.79 117.574V116.739Z" fill="#86E2DE"/>
<path d="M160.789 116.739L131.554 130.302L92.381 112.099L102.253 107.521L103.245 107.985C103.609 108.155 104.204 108.155 104.568 107.985L112.769 104.165C113.133 103.995 113.133 103.717 112.769 103.546L111.777 103.082L121.715 98.4738L160.789 116.739Z" fill="#D9FFFB"/>
<path d="M101.278 106.964C100.914 107.134 100.914 107.413 101.278 107.583L102.253 108.031L103.246 108.495C103.609 108.666 104.205 108.666 104.568 108.495L112.77 104.675C112.969 104.583 113.068 104.459 113.035 104.335V103.856L111.761 103.593L110.786 103.144C110.422 102.974 109.827 102.974 109.463 103.144L108.107 103.778C107.859 103.67 107.495 103.485 107.082 103.299C106.338 102.959 105.065 102.974 104.254 103.345L101.691 104.536C100.881 104.923 100.831 105.511 101.559 105.851C101.972 106.036 102.336 106.222 102.584 106.33L101.278 106.964ZM105.164 104.954C104.717 105.155 103.99 105.155 103.543 104.954C103.097 104.753 103.097 104.413 103.543 104.196C103.99 103.995 104.701 103.995 105.147 104.196C105.594 104.397 105.594 104.737 105.164 104.954Z" fill="#D62222"/>
<path d="M101.278 106.439C100.914 106.609 100.914 106.887 101.278 107.057L102.254 107.506L103.246 107.97C103.61 108.14 104.205 108.14 104.569 107.97L112.77 104.15C113.134 103.98 113.134 103.701 112.77 103.531L111.778 103.067L110.803 102.619C110.439 102.448 109.844 102.448 109.48 102.619L108.124 103.253C107.876 103.144 107.512 102.959 107.099 102.773C106.355 102.433 105.081 102.448 104.271 102.82L101.708 104.01C100.898 104.397 100.848 104.985 101.576 105.325C101.989 105.511 102.353 105.696 102.601 105.804L101.278 106.439ZM105.164 104.428C104.718 104.629 103.99 104.629 103.543 104.428C103.097 104.227 103.097 103.887 103.543 103.67C103.99 103.469 104.701 103.469 105.147 103.67C105.594 103.887 105.594 104.227 105.164 104.428Z" fill="#FF815A"/>
<path d="M124.939 101.026L112.422 106.841L124.857 112.656L137.374 106.841L124.939 101.026Z" fill="#9FEDEB"/>
<path d="M124.675 124.611L128.131 126.234L149.379 116.352L145.923 114.744L124.675 124.611Z" fill="#9FEDEB"/>
<path d="M119.466 122.167L122.922 123.791L144.17 113.924L140.698 112.3L119.466 122.167Z" fill="#9FEDEB"/>
<path d="M108.338 117.094L111.81 118.718L123.799 113.135L120.343 111.511L108.338 117.094Z" fill="#9FEDEB"/>
<path d="M142.583 111.821C142.484 111.867 142.418 111.929 142.401 111.991C142.351 112.161 142.6 112.315 142.947 112.331L145.956 112.532C146.171 112.547 146.37 112.516 146.502 112.439C146.601 112.393 146.667 112.331 146.684 112.269L146.866 111.712C146.915 111.542 146.667 111.388 146.32 111.372C146.105 111.357 145.907 111.388 145.774 111.465C145.675 111.511 145.609 111.573 145.592 111.635L145.51 111.882L143.145 111.728C142.93 111.728 142.715 111.759 142.583 111.821Z" fill="#9FEDEB"/>
<path d="M137.374 109.377C137.275 109.423 137.209 109.485 137.192 109.547C137.142 109.717 137.39 109.872 137.738 109.887L140.747 110.088C140.962 110.104 141.16 110.073 141.293 109.996C141.392 109.949 141.458 109.887 141.475 109.825L141.657 109.269C141.706 109.099 141.458 108.944 141.111 108.928C140.896 108.913 140.697 108.944 140.565 109.021C140.466 109.068 140.4 109.13 140.383 109.191L140.301 109.439L137.936 109.284C137.705 109.284 137.506 109.315 137.374 109.377Z" fill="#9FEDEB"/>
<path d="M114.242 119.739L117.715 121.347L138.946 111.48L135.49 109.872L114.242 119.739Z" fill="#9FEDEB"/>
<path d="M103.857 114.991L107.313 116.615L119.318 111.047L115.862 109.423L103.857 114.991Z" fill="#9FEDEB"/>
<path d="M99.3762 112.903L102.832 114.512L114.837 108.944L111.364 107.32L99.3762 112.903Z" fill="#9FEDEB"/>
<path d="M147.792 114.264C147.693 114.31 147.627 114.372 147.61 114.434C147.561 114.604 147.809 114.759 148.156 114.774L151.165 114.975C151.38 114.991 151.579 114.96 151.711 114.883C151.81 114.836 151.876 114.774 151.893 114.713L152.075 114.156C152.124 113.986 151.876 113.831 151.529 113.816C151.314 113.8 151.116 113.831 150.983 113.908C150.884 113.955 150.818 114.017 150.802 114.078L150.719 114.326L148.354 114.171C148.139 114.156 147.941 114.187 147.792 114.264Z" fill="#9FEDEB"/>
<path d="M125.003 106.964L123.416 107.691L128.459 110.057L130.03 109.331L125.003 106.964Z" fill="white"/>
<path d="M124.824 109.099L123.236 109.825L126.262 111.171L127.85 110.444L124.824 109.099Z" fill="white"/>
<path d="M124.342 104.737L122.771 105.464L130.543 109.099L132.114 108.372L124.342 104.737Z" fill="white"/>
<path d="M123.715 102.51L122.144 103.222L132.627 108.14L134.198 107.413L123.715 102.51Z" fill="white"/>
</svg>
