<svg width="174" height="151" viewBox="0 0 174 151" fill="none" xmlns="http://www.w3.org/2000/svg">
<path opacity="0.28" d="M162.299 118.585C163.022 116.892 159.901 114.132 155.329 112.422C150.757 110.711 146.465 110.698 145.743 112.391C145.02 114.085 148.141 116.844 152.712 118.555C157.284 120.265 161.576 120.279 162.299 118.585Z" fill="#33B3C4"/>
<path d="M150.008 112.831C150.008 112.831 150.498 113.198 151.184 112.831C151.674 112.556 152.163 112.372 152.751 112.281C153.045 112.281 153.339 112.281 153.633 112.281C153.829 112.372 154.319 112.464 154.417 112.648C154.71 113.198 154.319 113.657 153.927 114.024C152.653 114.941 151.184 115.675 149.42 115.858C148.735 115.95 147.755 115.308 147.069 115.033C147.069 115.033 146.971 113.198 147.265 112.923L150.008 112.831Z" fill="#002B6A"/>
<path d="M156.179 114.666C156.179 114.666 156.669 115.033 157.355 114.666C157.845 114.391 158.335 114.207 158.922 114.115C159.216 114.115 159.51 114.115 159.804 114.115C160 114.207 160.294 114.574 160.392 114.849C160.686 115.4 160.49 115.583 160.098 115.95C158.824 116.867 157.061 117.876 155.396 117.968C154.71 118.06 154.122 117.785 153.437 117.509C153.437 117.509 153.339 115.124 153.633 114.757L156.179 114.666Z" fill="#002B6A"/>
<path d="M147.853 94.2093C147.755 91.5491 148.539 88.8888 148.539 88.8888L151.674 88.2467C151.674 87.9715 156.67 90.3566 156.67 90.3566L157.748 115.583C155.201 116.5 153.143 115.583 153.143 115.583L152.066 96.8696L151.478 114.299C148.539 114.849 146.972 113.473 146.972 113.473L147.853 94.2093Z" fill="#002B6A"/>
<path d="M161.569 72.6522C161.569 72.6522 162.353 72.0101 162.745 71.8266C163.43 71.368 163.822 70.6341 163.822 70.2672C163.822 69.9002 163.137 69.1664 163.137 69.1664L162.059 70.1754C161.765 70.0837 161.079 70.3589 161.079 70.3589L159.904 71.9184L161.569 72.6522Z" fill="#F9A873"/>
<path d="M148.931 74.762C148.931 74.762 155.396 75.7711 160.001 71.2761C160.001 71.2761 161.47 71.2761 161.764 72.6521C161.764 72.6521 156.474 79.0734 148.735 77.6974C148.735 77.6974 146.384 75.6793 148.931 74.762Z" fill="#1D99B3"/>
<path opacity="0.51" d="M162.353 76.5967L171.757 81.1833V63.7541L162.353 59.1675V76.5967Z" fill="white"/>
<path d="M170.776 74.3033L172.049 73.386L173.225 71.7349L172.735 70.9093L172.539 70.5424L171.657 71.5514L171.167 71.7349L171.363 71.1845L170.873 71.001C170.873 71.001 170.384 71.3679 170.286 71.6431C170.188 71.9183 169.012 73.2943 169.012 73.2943L170.776 74.3033Z" fill="#F9A873"/>
<path d="M150.988 67.0565C151.87 66.9648 153.143 66.8731 154.025 67.1483C155.494 67.5152 156.376 68.3408 156.67 69.6251C157.061 70.9093 157.159 73.0192 156.278 74.2117C155.788 74.9456 155.396 74.8539 154.612 74.6704C153.633 74.3952 154.319 73.7531 153.535 73.2027C152.359 72.4688 148.931 71.0011 148.931 69.8085C148.931 68.7995 149.518 67.24 150.988 67.0565Z" fill="#F9A873"/>
<path d="M150.4 73.111C150.498 73.2027 150.694 73.2944 150.792 73.3862C151.575 73.9365 152.947 72.9275 153.926 73.2027C154.122 73.2027 154.22 74.4869 154.416 74.5786L154.22 75.2207C153.143 75.4959 152.163 75.4042 151.477 75.2207C150.889 75.129 150.4 74.8538 150.4 74.3952V73.111Z" fill="#F9A873"/>
<path d="M154.71 71.6432C154.71 71.6432 155.102 73.2026 155.689 73.5696C156.375 73.8448 156.669 73.6613 156.669 73.6613C156.669 73.6613 156.767 74.12 156.669 74.3952C156.571 74.6704 156.081 75.3125 155.787 75.3125C155.493 75.3125 154.416 74.9456 154.416 74.3952C154.416 73.8448 154.318 71.9184 154.318 71.9184L154.416 71.7349L154.71 71.6432Z" fill="#002B6A"/>
<path d="M157.06 67.6069C157.06 67.6069 156.277 67.5152 154.513 66.8731C153.632 66.5062 151.085 66.5979 150.301 67.3317C149.419 67.8821 149.027 69.0746 149.027 69.9002C149.027 70.6341 149.321 71.5514 149.713 72.2853C150.595 74.3034 152.26 74.2116 152.26 74.2116C152.456 74.1199 153.73 73.2943 153.73 73.2943C153.24 73.0191 152.848 71.6431 153.436 71.4597C153.926 71.1845 154.317 72.1018 154.317 72.1018C154.513 72.0101 155.003 71.6431 155.003 71.6431L154.611 71.001L154.807 70.0837C155.689 70.0837 156.473 69.625 156.766 69.5333C156.669 69.3499 157.452 69.2581 157.06 67.6069Z" fill="#002B6A"/>
<path d="M157.061 91.182C157.061 89.0721 157.355 85.4029 157.355 83.293C157.355 81.5501 157.649 79.8072 157.551 78.0643C157.551 77.6973 157.551 77.3304 157.551 76.9635L154.319 75.2206L150.4 74.395L148.931 74.7619C148.343 74.7619 147.853 75.2206 147.657 75.7709C147.461 76.78 147.265 78.4312 147.559 79.8072C147.755 80.7245 147.951 82.3757 148.147 84.0269C148.147 84.2103 148.245 88.9804 148.147 90.3564C148.147 90.3564 148.147 90.6316 148.441 90.9068C150.988 93.1084 156.474 92.4662 156.474 92.4662C157.159 92.2828 157.061 91.6407 157.061 91.182Z" fill="#6ABFCE"/>
<path d="M156.865 76.5967C156.865 76.5967 164.016 77.6975 169.11 72.7439C169.11 72.7439 170.677 72.7439 171.069 74.3034C171.069 74.3034 164.996 81.2751 156.669 80.266C156.669 80.266 154.22 77.6057 156.865 76.5967Z" fill="#6ABFCE"/>
<path d="M150.4 73.6613L150.008 74.3951C150.008 74.3951 151.674 76.4132 154.613 75.3124L154.221 74.8538C154.319 74.8538 151.576 75.2207 150.4 73.6613Z" fill="#ECF5FF"/>
<path opacity="0.3" d="M92.6481 124.334C97.22 122.623 100.34 119.864 99.6178 118.17C98.8952 116.477 94.6032 116.49 90.0313 118.201C85.4594 119.911 82.339 122.671 83.0616 124.364C83.7842 126.058 88.0762 126.044 92.6481 124.334Z" fill="#1D99B3"/>
<path d="M106.122 87.1461L104.064 87.513L103.868 86.9626L103.183 87.2378L102.497 87.3296C102.497 87.3296 102.105 87.8799 101.909 88.1551C101.909 88.7973 101.909 90.1732 101.909 90.1732L105.24 89.8063L105.338 89.6228L106.415 87.4213L106.122 87.1461Z" fill="#FBB686"/>
<path d="M102.201 90.5401L101.222 90.6318V88.0633L101.908 87.9716C101.908 88.6137 102.201 90.5401 102.201 90.5401Z" fill="#B9E5FB"/>
<path d="M101.811 90.9989L95.541 91.8245C95.541 91.8245 94.8552 90.8154 94.5613 90.265C94.6593 88.889 94.0715 79.8992 94.0715 79.8992L94.7573 81.0917C94.7573 81.0917 95.1491 81.9173 95.2471 82.376C95.541 83.1098 95.7369 83.9354 96.0308 84.761C96.2267 85.3114 96.9124 87.7882 97.1084 88.3386C98.088 88.3386 100.929 87.9717 101.223 87.9717C101.223 87.8799 101.713 90.9071 101.811 90.9989Z" fill="#002756"/>
<path d="M98.381 119.894L97.0095 118.427L96.3237 117.234C96.3237 117.234 93.4827 116.5 92.5031 117.143C92.5031 117.509 92.4051 118.427 92.3071 118.61C92.4051 118.702 94.5603 120.078 94.7563 120.261C94.8542 120.353 96.5196 121.546 96.5196 121.546L98.283 120.72L98.381 119.894Z" fill="#002B6A"/>
<path d="M91.6215 122.83L90.25 121.637C90.25 121.637 89.7602 120.72 89.6623 120.628C89.5643 120.353 86.0376 119.895 85.3519 120.537C85.3519 120.537 85.2539 121.271 85.2539 121.454C85.4498 121.637 85.7437 121.821 86.0376 122.096C86.1356 121.913 86.3315 122.004 86.5274 122.096C86.7234 122.28 86.8213 122.463 86.8213 122.647C87.8989 123.38 89.7602 124.481 89.7602 124.481C90.1521 124.481 91.6215 123.564 91.6215 123.564V122.83Z" fill="#002B6A"/>
<path d="M95.2468 102.007C95.2468 101.548 95.1488 101.181 95.1488 100.723C95.1488 100.264 95.0508 99.8052 95.0508 99.3465C95.0508 99.0713 94.9529 97.7871 94.8549 97.5119C94.8549 97.0532 94.757 96.6863 94.757 96.3193C94.757 96.3193 84.6669 99.6217 84.5689 99.53C84.5689 99.8052 84.4709 100.172 84.4709 100.447C84.4709 100.814 84.6669 102.741 84.6669 102.741C84.6669 102.741 85.1567 116.409 85.2546 117.785L85.0587 120.262L86.7241 121.087L89.6629 120.445L90.5446 105.584C90.5446 105.584 92.2099 116.134 92.4059 116.959L93.7773 117.601L96.3243 117.234C96.3243 115.216 95.7366 108.061 95.2468 102.007Z" fill="#002B6A"/>
<path d="M84.3725 102.007C84.4705 102.19 84.4705 102.465 84.4705 102.649C84.3725 102.557 84.1766 102.557 84.0786 102.465C84.1766 102.282 84.1766 102.19 84.1766 102.007C84.1766 102.007 84.2746 102.007 84.3725 102.007Z" fill="#F89C69"/>
<path d="M84.4695 103.475C84.3715 103.383 84.2736 103.383 84.0776 103.291C84.0776 103.291 84.1756 103.383 84.1756 103.291C83.9797 103.108 83.8817 102.924 84.0776 102.741C84.0776 102.741 84.0776 102.649 84.1756 102.649C84.2736 102.374 84.2736 101.732 84.2736 102.007C83.3919 102.099 82.5102 102.007 81.7265 102.007C81.6286 102.282 81.6286 102.557 81.7265 102.741C81.7265 102.741 81.7265 102.741 81.7265 102.832C81.7265 103.108 81.8245 103.291 81.8245 103.475C82.5103 103.75 83.2939 104.025 83.9797 104.208C83.9797 103.933 84.3715 103.566 84.4695 103.475C84.5675 103.475 84.5675 103.475 84.4695 103.475Z" fill="#F9A873"/>
<path d="M88.2917 106.41V107.419V113.84L86.4304 114.849V111.547V107.786V107.694V107.235L86.6263 107.144L88.1937 106.501L88.2917 106.41Z" fill="#6ABFCE"/>
<path d="M86.4299 111.547L78.0051 107.511V103.291L86.4299 107.235V111.547Z" fill="#33B3C4"/>
<path d="M86.4299 111.547V114.849L78.0051 110.446V107.511L86.4299 111.547Z" fill="#168CA8"/>
<path d="M84.1782 110.079L85.0599 110.538V111.547L84.1782 111.088V110.079Z" fill="#DCFFFF"/>
<path d="M86.43 107.236L78.0051 103.291L79.8664 102.557C80.0624 102.649 88.2913 106.41 88.3892 106.41V106.502L86.43 107.236Z" fill="#7CD0D8"/>
<path d="M79.9637 109.162L79.082 108.703V107.694L79.9637 108.061V109.162Z" fill="#DCFFFF"/>
<path d="M85.3534 103.016C85.3534 103.016 85.3534 105.401 85.3534 105.584C85.4514 105.492 85.1575 105.768 84.9615 105.768C84.8636 105.768 84.6676 105.584 84.6676 105.584C84.6676 105.492 84.6676 103.75 84.6676 103.474C84.6676 103.474 84.3737 103.383 84.2758 103.291C84.0798 103.107 84.1778 102.741 84.1778 102.741C84.1778 102.741 84.1778 102.649 84.2758 102.649L85.3534 103.016Z" fill="#168CA8"/>
<path d="M81.3351 103.933L81.0413 104.025L80.6494 103.841V102.924L80.7474 101.731L81.3351 101.64H81.629C81.629 101.64 81.629 101.731 81.5311 101.823C81.4331 102.098 81.4331 102.374 81.5311 102.557H81.4331L81.3351 102.649V103.933Z" fill="#168CA8"/>
<path d="M84.3712 102.007L82.3139 102.099L81.6282 101.823L81.7261 101.181H84.4691C84.4691 101.365 84.3712 102.007 84.3712 102.007Z" fill="#6ABFCE"/>
<path d="M94.5614 93.3839C94.5614 93.3839 94.4634 91.3657 94.5614 90.265C94.6594 88.889 95.3451 83.0181 95.3451 83.0181L94.1695 79.8992L91.2306 79.2571L85.8427 81.6421L81.9241 85.0362C81.9241 85.0362 81.4343 96.1358 81.4343 97.787C81.4343 98.5209 81.5323 100.722 81.5323 101.181L82.1201 101.64L84.5691 101.548C84.5691 101.456 84.5691 101.456 84.5691 101.456C84.5691 101.181 84.6671 99.9886 84.6671 99.6217C84.7651 99.6217 87.3121 99.9886 87.3121 99.9886L95.1492 96.778L94.5614 93.3839Z" fill="#002B6A"/>
<path d="M92.1112 87.6964C92.2091 86.8708 92.699 86.137 92.601 85.3114C92.601 85.2197 92.601 85.1279 92.601 85.1279C92.503 84.2106 92.3071 83.2933 91.9152 82.4677C91.8173 82.1925 91.7193 81.9173 91.5234 81.6421C91.5234 81.5504 91.4254 81.5504 91.4254 81.4586C91.1315 81.0917 90.8377 80.8165 90.4458 80.8165C90.6417 80.7248 91.0336 80.5413 91.2295 80.4496C91.4254 80.5413 92.503 81.3669 92.503 81.3669L92.3071 82.1008L93.2867 82.4677L93.5806 83.8437C93.5806 83.8437 92.503 89.4393 92.3071 89.8063C92.4051 89.4393 92.1112 88.889 92.1112 88.522C92.1112 88.2468 92.1112 87.9716 92.1112 87.6964Z" fill="#11487F"/>
<path d="M87.1143 82.6511C87.3102 82.9263 87.6041 83.1097 87.8 83.2932C87.996 83.3849 88.0939 83.4767 88.2899 83.5684C88.8776 83.9353 89.4654 84.3022 90.0532 84.8526C90.7389 85.5865 91.3267 86.5038 91.7186 87.4211V87.5129C91.8165 87.8798 91.9145 88.3384 91.9145 88.7971C91.9145 89.0723 92.0125 89.6227 92.0125 89.6227L91.8165 88.9806C91.4247 87.8798 89.9552 86.5955 89.9552 86.5955L87.8 85.5865V84.5774L86.9184 84.6692L86.4285 83.7519C86.4285 83.7519 85.6448 82.1924 85.8408 81.642C85.8408 81.642 86.4286 80.633 86.8204 80.3578C86.8204 80.5413 86.8204 80.633 86.9184 80.8164C86.9184 81.0916 87.0163 81.3668 87.0163 81.642L86.9184 81.5503C86.6245 81.8255 86.8204 82.2842 87.1143 82.6511Z" fill="#11487F"/>
<path d="M92.502 85.4031C92.502 85.3114 92.502 85.2196 92.502 85.2196C92.404 84.3023 91.8162 82.5594 91.8162 82.5594C91.8162 82.5594 91.6203 82.009 91.4244 81.7338C91.1305 81.5503 87.4079 82.8346 87.114 82.6511C87.3099 82.9263 87.7998 83.2933 87.7998 83.2933L88.2896 83.5685L90.0529 84.8527C90.0529 84.8527 91.3264 86.5039 91.7183 87.4212L92.306 88.0634C92.2081 87.4212 92.502 86.5039 92.502 85.4031Z" fill="#94E5ED"/>
<path d="M92.4045 84.9446L91.4249 83.0182V82.9265L91.229 82.1009C91.229 82.1009 91.0331 81.9174 90.8371 81.9174C90.6412 81.8257 90.2494 81.8257 90.2494 81.8257C90.1514 82.0091 90.0535 82.2843 90.0535 82.5595V82.6513C90.3473 82.9265 90.6412 83.1099 90.9351 83.2934C91.229 84.0273 91.6208 85.5867 91.6208 85.5867L91.7188 87.6048L92.2086 90.3568C92.2086 90.2651 92.6004 85.9536 92.6004 85.9536L92.4045 84.9446Z" fill="#FF5252"/>
<path d="M86.9182 81.5505C87.7019 82.5595 90.2489 82.1926 90.2489 81.367L90.053 80.5414C90.151 80.7248 91.0326 81.1835 91.2286 81.5505C91.2286 81.6422 91.3265 81.6422 91.3265 81.7339C91.3265 81.9174 91.2286 82.1926 91.2286 82.1926L91.1306 82.1009L90.7388 81.9174L90.151 81.8257C90.053 82.0091 89.7591 83.2017 89.7591 83.2017L87.9958 83.1099C87.9958 83.1099 87.2121 82.9265 86.9182 82.743C86.6243 82.3761 86.4283 82.0091 86.6243 81.5505C86.8202 81.4587 86.9182 81.5505 86.9182 81.5505Z" fill="#DCFFFF"/>
<path d="M90.249 80.7248C90.249 80.7248 90.249 81.7339 90.347 81.7339C90.347 82.1008 87.8 82.8346 86.9183 81.5504C86.9183 81.2752 86.7224 79.8992 86.7224 79.7158C86.8204 79.7158 86.9183 79.7158 87.0163 79.624C87.1143 79.8992 90.0531 80.8165 90.249 80.7248Z" fill="#F89C69"/>
<path d="M90.9363 75.4043C90.6424 75.6795 89.8587 75.863 89.4668 76.0464C88.879 76.2299 87.4096 76.9638 87.4096 76.9638C87.4096 77.239 87.4096 77.5142 87.3116 77.8811C87.3116 78.248 87.0177 78.6149 87.3116 79.4405C87.1157 79.3488 86.9198 79.2571 86.7238 79.1653C86.6259 78.7984 86.5279 78.5232 86.4299 78.3397C86.234 78.1563 85.6462 78.3397 85.8422 78.7984C86.0381 79.1653 86.234 79.8992 86.5279 79.8992C86.6259 79.8992 86.7238 79.8992 86.8218 79.8075C86.9198 79.9909 87.5075 80.3579 87.5075 80.3579C87.5075 80.3579 89.7607 81 89.9566 81L91.0342 80.5413L91.2302 77.3307C91.3281 77.3307 91.0342 75.496 90.9363 75.4043Z" fill="#FBB686"/>
<path d="M87.4088 76.9638C87.4088 77.2389 87.4088 77.5141 87.3109 77.8811C87.3109 78.248 87.017 78.6149 87.3109 79.4405C87.1149 79.3488 86.919 79.2571 86.7231 79.1653C86.6251 78.7984 86.5272 78.5232 86.4292 78.3397C86.2333 78.1563 85.6455 78.3397 85.8414 78.7984C86.0374 79.1653 86.2333 79.8992 86.5272 79.8992C86.5272 79.9909 86.6251 80.2661 86.6251 80.2661L86.2333 80.1744L85.9394 79.7157C85.2537 78.7984 84.2741 77.0555 84.2741 77.0555L84.0781 75.3126C84.1761 75.1291 86.2333 76.6886 87.4088 76.9638Z" fill="#11487F"/>
<path d="M87.8017 76.9637C87.8017 76.9637 87.4099 76.9637 87.3119 76.872C86.1364 76.5968 85.0587 75.7712 84.0791 75.1291C84.275 74.6704 85.0587 73.9365 85.0587 73.9365C85.4506 73.6613 87.5078 73.0192 88.1936 73.1109C88.4875 73.1109 89.3692 73.2944 89.5651 73.3861C89.4671 73.3861 91.1325 73.4779 91.2305 73.4779C91.2305 73.4779 91.6223 74.4869 91.3284 74.9456C91.2305 75.1291 90.8386 75.6795 90.8386 75.6795C90.8386 75.6795 88.4875 76.9637 87.8017 76.9637Z" fill="#002B6A"/>
<path d="M140.208 111.363V99.7133C140.208 99.1629 140.404 98.7959 140.894 98.5208L142.559 99.2546V112.923C142.559 112.923 141.677 112.923 141.188 112.739L140.894 112.556C140.502 112.372 140.208 111.914 140.208 111.363Z" fill="#33B3C4"/>
<path d="M136.29 97.7869L138.641 96.6861C138.935 96.5944 139.327 96.5944 139.621 96.6861L145.4 99.5298C146.38 100.08 146.968 100.998 146.968 102.098V103.933C146.968 104.392 146.674 104.85 146.282 104.942L144.715 105.676L142.07 102.924L139.229 101.364C138.249 100.814 137.661 99.8967 137.661 98.796V98.429L136.29 97.7869Z" fill="#FF5252"/>
<path d="M143.54 105.859L137.368 103.016C136.388 102.465 135.801 101.548 135.801 100.447V98.6124C135.801 97.8786 136.682 97.3282 137.368 97.7868L143.54 100.631C144.519 101.181 145.107 102.098 145.107 103.199V105.034C145.205 105.768 144.323 106.226 143.54 105.859Z" fill="#B33939"/>
<path opacity="0.3" d="M119.148 115.216C119.343 115.124 119.735 115.033 120.029 115.033H120.127C120.519 115.033 120.813 115.124 121.107 115.308L164.112 135.397C164.7 135.672 164.798 136.131 164.308 136.315L135.703 149.708C135.409 149.799 135.115 149.891 134.724 149.891C134.724 149.891 134.724 149.891 134.626 149.891C134.234 149.891 133.94 149.799 133.646 149.616L90.6404 129.526C90.0526 129.251 89.9547 128.792 90.4445 128.609L119.148 115.216Z" fill="#1D99B3"/>
<path d="M137.956 146.038H136.389C136.095 146.038 135.801 145.763 135.801 145.488V126.041C135.801 125.765 136.095 125.49 136.389 125.49H137.956C138.25 125.49 138.544 125.765 138.544 126.041V145.488C138.446 145.763 138.25 146.038 137.956 146.038Z" fill="#33B3C4"/>
<path d="M157.843 136.773H156.471C156.177 136.773 155.883 136.498 155.883 136.223V116.776C155.883 116.5 156.177 116.225 156.471 116.225H157.843C158.137 116.225 158.43 116.5 158.43 116.776V136.223C158.332 136.498 158.137 136.773 157.843 136.773Z" fill="#33B3C4"/>
<path d="M98.4782 127.6H96.9108C96.6169 127.6 96.323 127.325 96.323 127.05V110.538C96.323 110.263 96.6169 109.987 96.9108 109.987H98.4782C98.772 109.987 99.0659 110.263 99.0659 110.538V127.05C98.968 127.325 98.772 127.6 98.4782 127.6Z" fill="#33B3C4"/>
<path d="M118.951 118.794H117.58C117.286 118.794 116.992 118.519 116.992 118.243V98.7961C116.992 98.5209 117.286 98.2457 117.58 98.2457H118.951C119.245 98.2457 119.539 98.5209 119.539 98.7961V118.335C119.539 118.61 119.343 118.794 118.951 118.794Z" fill="#33B3C4"/>
<path d="M113.073 129.251L115.033 128.15L113.171 136.773C113.171 136.773 113.465 138.058 115.033 138.333C115.816 138.516 116.796 137.874 116.796 137.874C116.796 137.874 119.931 125.123 119.343 123.656C118.755 122.188 115.816 122.371 113.563 123.38C111.408 124.389 108.371 125.398 108.371 125.398L113.073 129.251Z" fill="#002B6A"/>
<path d="M118.952 98.5208C119.148 98.4291 119.54 98.3374 119.834 98.3374H119.932C120.323 98.3374 120.617 98.4291 120.911 98.6126L164.211 117.601C164.799 117.876 164.603 119.344 164.113 119.619L135.606 133.012C135.312 133.104 135.018 133.196 134.626 133.196C134.626 133.196 134.626 133.196 134.528 133.196C134.136 133.196 133.842 133.104 133.548 132.921L90.5427 112.831C89.955 112.556 89.5631 111.088 90.0529 110.813L118.952 98.5208Z" fill="#33B3C4"/>
<path d="M118.95 97.1448C119.146 97.053 119.538 96.9613 119.832 96.9613H119.93C120.322 96.9613 120.616 97.053 120.91 97.2365L163.915 117.326C164.503 117.601 164.601 118.06 164.111 118.243L135.506 131.636C135.212 131.728 134.918 131.82 134.526 131.82C134.526 131.82 134.526 131.82 134.428 131.82C134.037 131.82 133.743 131.728 133.449 131.545L90.4431 111.455C89.8554 111.18 89.7574 110.721 90.2472 110.538L118.95 97.1448Z" fill="#BFF7F3"/>
<path opacity="0.56" d="M140.112 122.555L129.336 127.6L122.675 124.481L133.451 119.436L140.112 122.555Z" fill="white"/>
<path opacity="0.7" d="M145.403 122.005L134.627 127.05L128.063 123.931L138.839 118.886L145.403 122.005Z" fill="white"/>
<path opacity="0.7" d="M115.033 109.345L104.258 114.391L97.6941 111.272L108.47 106.226L115.033 109.345Z" fill="white"/>
<path opacity="0.7" d="M116.994 109.345L106.218 114.391L99.6541 111.272L110.43 106.226L116.994 109.345Z" fill="white"/>
<path opacity="0.7" d="M125.615 118.519L116.7 122.555L104.455 116.592L113.369 112.556L125.615 118.519Z" fill="white"/>
<path opacity="0.7" d="M157.254 115.95L149.515 122.555L142.951 119.436L150.69 112.831L157.254 115.95Z" fill="white"/>
<path opacity="0.56" d="M144.129 111.914L130.806 118.335L114.74 106.593L128.063 100.172L144.129 111.914Z" fill="white"/>
<path opacity="0.56" d="M133.939 118.06L127.767 123.747L114.052 117.785L120.224 112.097L133.939 118.06Z" fill="white"/>
<path d="M139.621 98.7043H116.501V109.437H139.621V98.7043Z" fill="#33B3C4"/>
<path d="M119.54 113.29V110.813C119.54 110.813 125.123 110.079 128.062 110.079C131.001 110.079 136.585 110.538 136.585 110.538V113.29C136.585 115.033 132.765 116.5 128.062 116.5C123.36 116.5 119.54 115.125 119.54 113.29Z" fill="#168CA8"/>
<path d="M116.501 101.823C119.342 103.291 123.261 104.208 127.473 104.208C132.371 104.208 136.682 103.016 139.621 101.089V98.6127H116.501V101.823Z" fill="#168CA8"/>
<path d="M143.542 93.6591C143.542 98.6126 136.39 102.557 127.476 102.557C118.561 102.557 111.41 98.6126 111.41 93.6591L111.508 87.513C111.508 87.513 121.5 84.761 127.476 84.761C133.353 84.761 143.542 88.4303 143.542 88.4303V93.6591Z" fill="#33B3C4"/>
<path d="M128.061 113.29C134.445 113.29 139.621 111.36 139.621 108.978C139.621 106.597 134.445 104.667 128.061 104.667C121.677 104.667 116.501 106.597 116.501 108.978C116.501 111.36 121.677 113.29 128.061 113.29Z" fill="#33B3C4"/>
<path d="M127.476 97.3284C136.349 97.3284 143.542 93.3446 143.542 88.4303C143.542 83.516 136.349 79.5322 127.476 79.5322C118.603 79.5322 111.41 83.516 111.41 88.4303C111.41 93.3446 118.603 97.3284 127.476 97.3284Z" fill="white"/>
<path d="M127.474 90.5402C132.992 90.5402 137.466 88.2813 137.466 85.4949C137.466 82.7084 132.992 80.4496 127.474 80.4496C121.955 80.4496 117.481 82.7084 117.481 85.4949C117.481 88.2813 121.955 90.5402 127.474 90.5402Z" fill="#FF5252"/>
<path d="M122.97 83.385L118.267 61.2775C118.267 61.2775 119.541 58.8924 120.912 60.5436L125.223 82.6512C125.321 82.5594 124.341 84.2106 122.97 83.385Z" fill="#D3341A"/>
<path d="M130.903 85.5866L135.605 63.4791C135.605 63.4791 134.331 61.0941 132.96 62.7453L128.649 84.8528C128.649 84.8528 129.531 86.4122 130.903 85.5866Z" fill="#D3341A"/>
<path opacity="0.56" d="M164.798 49.9027C164.798 30.6388 148.144 15.136 127.67 15.136C107.196 15.136 90.5425 30.7305 90.5425 49.9027C90.5425 61.8279 97.6937 71.4598 106.706 78.615C110.625 81.7339 110.625 87.4213 112.78 89.8064C116.796 94.3013 123.458 95.6772 127.768 95.6772C132.177 95.6772 139.132 94.7599 143.638 88.7973C145.793 85.9536 145.597 81 149.908 77.8811C158.724 71.2764 164.798 61.3692 164.798 49.9027Z" fill="#FFFDB3"/>
<path opacity="0.31" d="M125.311 47.0289C131.313 39.4025 130.67 29.4194 123.876 24.7312C117.082 20.0429 106.709 22.4248 100.707 30.0513C94.7056 37.6777 95.3482 47.6608 102.142 52.349C108.937 57.0373 119.31 54.6554 125.311 47.0289Z" fill="#FDFFFE"/>
<path opacity="0.35" d="M120.21 42.2527C124.189 37.1955 123.744 30.5622 119.214 27.4367C114.685 24.3112 107.787 25.8771 103.807 30.9342C99.8272 35.9913 100.273 42.6247 104.803 45.7502C109.332 48.8757 116.23 47.3098 120.21 42.2527Z" fill="#FDFFFE"/>
<path opacity="0.72" d="M117.091 40.5459C114.348 44.1235 109.45 45.2243 106.315 43.0227C103.18 40.8211 102.886 36.2344 105.629 32.6569C108.372 29.0793 113.27 27.9785 116.405 30.1801C119.638 32.3817 119.932 36.9683 117.091 40.5459Z" fill="#FDFFFE"/>
<path d="M120.226 60.5436C120.226 60.5436 127.475 64.6716 133.255 63.2956C135.214 63.2038 134.136 64.6716 134.136 64.6716C133.157 65.4054 124.928 66.8732 119.638 61.8278C118.07 60.727 120.226 60.5436 120.226 60.5436Z" fill="white"/>
<path d="M121.401 110.263L120.716 110.538L119.442 109.345L118.757 107.235L119.442 106.869L121.401 107.786V110.263Z" fill="#FF5252"/>
<path d="M120.716 110.538L118.757 109.621V107.236L120.716 108.153V110.538Z" fill="#B33939"/>
<path opacity="0.3" d="M106.413 137.782C107.001 137.507 107.687 137.507 108.275 137.782L114.936 141.635V143.47C114.936 143.837 114.74 144.204 114.348 144.387L107.785 147.506C107.197 147.781 106.511 147.781 105.924 147.506L99.85 144.754C99.4581 144.571 99.2622 144.204 99.2622 143.837V142.002L106.413 137.782Z" fill="#1D99B3"/>
<path d="M114.35 109.804L115.428 108.703L117.093 108.887L117.779 109.254L119.346 108.52L119.836 108.795L118.758 109.62L117.485 110.721L118.367 111.18L118.073 111.639H115.134L114.35 109.804Z" fill="#F9A873"/>
<path d="M109.743 112.281L114.347 109.437C114.347 109.437 115.229 109.987 115.523 110.813C115.817 111.638 115.719 112.189 115.719 112.189L111.31 114.849L109.743 112.281Z" fill="#33B3C4"/>
<path d="M110.332 104.025L111.802 108.52L110.626 109.896L110.136 111.272H107.589C107.589 111.272 106.609 106.685 107.883 105.492C109.059 104.3 110.332 104.025 110.332 104.025Z" fill="#F9A873"/>
<path d="M110.429 107.786L110.625 107.511C110.625 107.511 109.94 105.859 109.94 105.492C109.94 105.034 110.625 104.208 110.625 104.208L109.45 101.731L108.96 101.915L108.176 101.64L107.98 102.007L107.197 101.915L106.805 102.374L106.021 102.282L106.119 102.832L103.474 105.584C103.474 105.584 106.413 110.905 106.805 110.996C107.686 111.088 109.254 111.088 109.646 110.446C110.037 109.896 110.135 108.428 110.135 108.428C110.135 108.428 109.646 108.703 109.352 107.877C109.058 107.052 109.254 106.41 109.646 106.318C109.94 106.41 110.429 107.786 110.429 107.786Z" fill="#002B6A"/>
<path d="M111.996 141.543C112.192 141.452 112.388 141.452 112.584 141.635C113.073 141.91 113.465 142.644 113.465 143.286C113.465 143.653 113.367 144.02 113.171 144.112L111.8 144.754L110.624 142.461L111.996 141.543Z" fill="#002B6A"/>
<path d="M110.232 143.011C110.232 143.653 110.624 144.387 111.114 144.662C111.603 144.938 111.995 144.662 111.995 144.02C111.995 143.378 111.603 142.644 111.114 142.369C110.624 142.094 110.232 142.369 110.232 143.011Z" fill="#11487F"/>
<path d="M110.82 143.286C110.82 143.562 111.016 143.837 111.211 143.928C111.407 144.02 111.603 143.928 111.603 143.653C111.603 143.378 111.407 143.103 111.211 143.011C110.918 142.919 110.82 143.011 110.82 143.286Z" fill="#002B6A"/>
<path d="M102.202 141.543C102.006 141.452 101.811 141.452 101.615 141.635C101.125 141.91 100.733 142.644 100.733 143.286C100.733 143.653 100.831 144.02 101.027 144.112L102.496 144.754L103.672 142.461L102.202 141.543Z" fill="#002B6A"/>
<path d="M103.966 143.011C103.966 143.653 103.574 144.387 103.084 144.663C102.594 144.938 102.202 144.663 102.202 144.02C102.202 143.378 102.594 142.644 103.084 142.369C103.574 142.094 103.966 142.369 103.966 143.011Z" fill="#11487F"/>
<path d="M103.378 143.286C103.378 143.562 103.182 143.837 102.987 143.928C102.791 144.02 102.595 143.929 102.595 143.653C102.595 143.378 102.791 143.103 102.987 143.011C103.28 142.919 103.378 143.011 103.378 143.286Z" fill="#002B6A"/>
<path d="M110.43 136.957C110.332 136.865 110.136 136.865 109.94 137.049C109.451 137.324 109.157 137.966 109.157 138.516C109.157 138.791 109.255 139.158 109.451 139.25L110.724 139.801L111.802 137.691L110.43 136.957Z" fill="#002B6A"/>
<path d="M111.998 138.241C111.998 138.792 111.606 139.434 111.214 139.709C110.725 139.984 110.431 139.709 110.431 139.159C110.431 138.608 110.823 137.966 111.214 137.691C111.606 137.416 111.998 137.691 111.998 138.241Z" fill="#11487F"/>
<path d="M111.509 138.516C111.509 138.7 111.411 138.975 111.215 139.067C111.019 139.158 110.921 139.067 110.921 138.883C110.921 138.7 111.019 138.425 111.215 138.333C111.313 138.241 111.509 138.333 111.509 138.516Z" fill="#002B6A"/>
<path d="M103.472 136.957C103.57 136.865 103.766 136.865 103.962 137.048C104.452 137.324 104.745 137.966 104.745 138.516C104.745 138.791 104.648 139.158 104.452 139.25L103.178 139.8L102.101 137.691L103.472 136.957Z" fill="#002B6A"/>
<path d="M102.004 138.241C102.004 138.791 102.396 139.434 102.788 139.709C103.277 139.984 103.571 139.709 103.571 139.158C103.571 138.608 103.179 137.966 102.788 137.691C102.298 137.415 102.004 137.691 102.004 138.241Z" fill="#11487F"/>
<path d="M102.493 138.516C102.493 138.7 102.591 138.975 102.787 139.067C102.983 139.158 103.081 139.067 103.081 138.883C103.081 138.7 102.983 138.425 102.787 138.333C102.591 138.241 102.493 138.333 102.493 138.516Z" fill="#002B6A"/>
<path d="M111.999 136.957L111.803 137.599L108.864 139.434L108.375 138.608L111.999 136.957Z" fill="#168CA8"/>
<path d="M107.001 138.333L107.785 137.415L110.723 136.406L111.997 136.957L108.372 138.608L107.001 138.333Z" fill="#33B3C4"/>
<path d="M102.103 136.957L102.201 137.599L105.139 139.434L105.629 138.608L102.103 136.957Z" fill="#168CA8"/>
<path d="M107.001 138.333L106.217 137.415L103.278 136.406L102.103 136.957L105.629 138.608L107.001 138.333Z" fill="#33B3C4"/>
<path d="M113.564 142.094L113.172 142.736L111.801 143.47L107.001 140.443V139.067L113.564 142.094Z" fill="#168CA8"/>
<path d="M108.274 138.333L113.564 142.094L112.095 142.828L107.001 139.525V138.333H108.274Z" fill="#33B3C4"/>
<path d="M100.634 142.186L101.026 142.919L102.201 143.47L107.001 140.443V139.067L100.634 142.186Z" fill="#168CA8"/>
<path d="M105.826 138.333L100.634 142.185L102.005 142.828L107.001 139.525V138.333H105.826Z" fill="#33B3C4"/>
<path d="M107 139.525C107.784 139.525 108.372 138.975 108.372 138.333V132.645H105.629V138.333C105.629 138.975 106.216 139.525 107 139.525Z" fill="#33B3C4"/>
<path d="M113.27 137.782L113.956 139.434C113.956 139.434 117.189 139.067 117.091 139.067C116.993 139.067 119.932 138.241 119.932 138.241L119.736 136.957L117.874 136.315L113.368 136.865L113.27 137.782Z" fill="#002B6A"/>
<path d="M108.766 125.215L110.725 124.114L108.864 132.737C108.864 132.737 109.158 134.021 110.725 134.297C111.509 134.48 112.488 133.838 112.488 133.838C112.488 133.838 115.623 121.087 115.035 119.619C114.447 118.151 111.509 118.335 109.255 119.344C107.1 120.353 104.063 121.362 104.063 121.362L108.766 125.215Z" fill="#002B6A"/>
<path d="M109.058 134.205L110.136 135.489C110.136 135.489 112.781 135.122 112.683 135.122C112.585 135.122 115.23 133.93 115.23 133.93L115.034 132.187L113.173 131.545L109.058 133.287V134.205Z" fill="#002B6A"/>
<path d="M101.318 128.701L106.118 126.132C106.706 125.857 107.392 125.857 107.98 126.132L112.29 128.426L114.445 128.793V130.627C114.445 130.994 114.249 131.361 113.857 131.545L107.294 134.663C106.706 134.939 106.02 134.939 105.432 134.663L99.3588 131.911C98.9669 131.728 98.771 131.361 98.771 130.994V129.159L101.318 128.701Z" fill="#B33939"/>
<path d="M113.858 127.875L107.883 124.298C107.295 124.023 106.609 124.023 106.021 124.298L99.3598 128.15C98.576 128.609 98.576 129.618 99.3598 129.985L105.433 132.737C106.021 133.012 106.707 133.012 107.295 132.737L113.858 129.618C114.642 129.343 114.642 128.242 113.858 127.875Z" fill="#FF5252"/>
<path d="M108.471 122.463L110.234 122.004L115.034 124.206C115.034 124.206 114.936 126.866 114.642 127.967L114.446 128.426C114.446 128.426 110.038 130.535 107.589 130.902C104.846 131.361 102.593 130.352 101.417 129.526C100.242 128.793 99.8499 126.499 100.536 125.398C101.123 124.389 108.471 122.463 108.471 122.463Z" fill="#002B6A"/>
<path d="M117.777 118.977L119.247 117.234L121.01 116.959L122.48 117.785L120.814 119.619L119.149 120.17L117.777 118.977Z" fill="#F9A873"/>
<path d="M112.682 113.932L110.625 112.281L106.021 110.905C106.021 110.905 103.474 111.455 102.494 113.748C101.515 115.95 100.339 125.49 100.339 125.49C100.339 125.49 103.082 127.692 106.413 127.875C109.156 127.967 109.94 124.848 109.94 124.848C109.94 124.848 111.997 115.216 112.682 113.932Z" fill="#6ABFCE"/>
<path d="M114.349 120.537C114.349 120.537 113.761 116.042 112.977 114.207C112.39 112.831 110.43 116.867 110.43 116.867L112.39 123.655L113.467 123.747C113.467 123.747 119.247 120.537 119.345 120.353C119.443 120.078 117.876 118.518 117.876 118.518L114.349 120.537Z" fill="#6ABFCE"/>
<path d="M97.8901 117.51L100.241 116.409C100.535 116.317 100.927 116.317 101.221 116.409L107.001 119.252C107.98 119.803 108.568 120.72 108.568 121.821V123.656C108.568 124.114 108.274 124.573 107.882 124.665L106.315 125.399L103.67 122.647L100.829 121.087C99.8494 120.537 99.2616 119.619 99.2616 118.519V118.152L97.8901 117.51Z" fill="#FF5252"/>
<path d="M105.14 125.582L98.9685 122.738C97.9889 122.188 97.4011 121.271 97.4011 120.17V118.335C97.4011 117.601 98.2828 117.051 98.9685 117.51L105.14 120.353C106.12 120.904 106.708 121.821 106.708 122.922V124.756C106.708 125.49 105.826 125.949 105.14 125.582Z" fill="#B33939"/>
<path d="M99.9468 131.545V119.895C99.9468 119.344 100.143 118.977 100.633 118.702L102.298 119.436V133.104C102.298 133.104 101.416 133.104 100.926 132.921L100.633 132.737C100.241 132.554 99.9468 132.003 99.9468 131.545Z" fill="#33B3C4"/>
<path d="M105.629 111.088L105.923 110.538L110.919 111.547L111.213 112.739L105.629 111.088Z" fill="white"/>
<path opacity="0.3" d="M156.669 149.799C158.628 150.992 163.624 150.166 167.836 148.056C172.049 145.947 173.812 143.286 171.853 142.094C169.893 140.901 164.897 141.727 160.685 143.837C156.473 145.947 154.611 148.607 156.669 149.799Z" fill="#1D99B3"/>
<path d="M161.956 143.103C161.663 143.561 161.663 144.112 161.565 144.662C161.369 145.488 161.075 145.855 160.389 145.946C160.487 145.855 160.585 145.671 160.585 145.488C160.781 145.029 160.977 144.662 161.173 144.203C161.369 143.745 161.467 142.644 161.565 141.268C162.054 141.452 162.446 141.543 162.936 141.543C163.132 141.543 163.328 141.543 163.524 141.452C163.524 141.635 163.524 141.91 163.622 142.094C162.838 142.277 162.348 142.644 161.956 143.103Z" fill="#F89C69"/>
<path d="M163.818 142.185C164.602 143.653 163.623 145.488 164.112 146.864C163.623 147.231 163.329 147.047 163.329 147.047V146.589C163.329 146.589 163.231 145.396 163.231 144.754C162.545 145.121 161.369 146.405 161.271 147.139C161.271 147.139 161.173 147.139 161.173 147.231C160.292 147.322 159.508 147.414 158.822 147.139C158.724 146.772 158.822 146.313 158.92 145.946C159.41 145.855 160.292 145.763 160.684 145.58C160.586 145.763 160.488 145.855 160.488 146.038C161.173 145.946 161.467 145.488 161.663 144.754C161.761 144.204 161.761 143.653 162.055 143.195C162.447 142.644 162.937 142.369 163.72 142.277C163.72 142.185 163.818 142.185 163.818 142.185Z" fill="#002B6A"/>
<path d="M161.174 147.231C161.272 146.497 162.545 145.121 163.231 144.754C162.741 145.304 162.349 146.038 162.447 146.772C162.055 147.047 161.467 147.231 161.174 147.231Z" fill="black"/>
<path d="M169.109 143.011C169.305 142.736 169.403 142.644 169.501 142.461C169.305 143.103 169.207 143.561 169.207 144.295C169.109 144.295 169.011 144.387 168.913 144.479C168.913 143.928 169.011 143.47 169.109 143.011Z" fill="black"/>
<path d="M166.955 143.47C167.053 143.103 167.053 142.736 167.249 142.369C167.347 142.185 167.445 141.91 167.543 141.635C167.739 141.176 168.033 140.718 168.425 140.626C168.914 140.534 169.208 140.626 169.404 140.718C169.796 141.085 169.6 141.819 169.6 142.369C169.404 142.552 169.404 142.644 169.208 142.919C169.11 143.378 169.012 144.02 169.012 144.57C169.012 144.754 169.012 144.937 169.012 145.121C168.816 145.304 168.523 145.304 168.229 145.213C168.229 145.029 168.229 143.194 168.033 142.552C167.837 143.011 167.837 144.295 167.739 144.662L167.641 144.937C167.151 145.029 166.759 144.846 166.367 144.754C166.073 144.204 166.465 143.653 166.955 143.47Z" fill="#002B6A"/>
<path d="M167.541 145.029C167.639 144.662 167.737 143.194 167.933 142.644C168.129 143.286 168.129 144.02 168.129 144.754C168.031 144.846 167.639 144.937 167.541 145.029Z" fill="black"/>
<path d="M169.305 140.718C169.109 140.534 168.815 140.534 168.325 140.626C167.933 140.718 167.64 141.176 167.444 141.635C167.444 141.268 167.444 140.809 167.346 140.167C167.542 140.167 167.836 140.259 168.031 140.259C168.227 140.259 168.423 140.259 168.619 140.259C168.913 140.259 169.109 140.167 169.305 140.076C169.403 140.259 169.403 140.534 169.305 140.718Z" fill="#F89C69"/>
<path d="M164.309 116.867C164.309 116.592 164.309 116.317 164.309 116.042C164.505 116.042 164.701 116.042 164.897 115.95C165.484 115.858 165.974 115.675 166.562 115.491C167.15 115.308 168.325 114.757 168.521 114.757C168.619 114.941 168.717 115.583 168.717 115.583C168.619 115.858 165.386 116.684 164.309 116.867Z" fill="#277293"/>
<path d="M161.174 130.811C161.174 126.866 160.194 122.188 160.978 117.418C161.076 117.418 161.076 117.418 160.978 117.418C160.978 117.142 161.076 116.959 161.076 116.684V116.592C161.37 116.684 161.663 116.684 161.859 116.775C161.859 117.051 164.21 117.142 164.21 116.867C165.288 116.775 168.619 115.766 168.619 115.766C168.815 115.95 169.305 116.867 169.305 116.867C170.676 119.527 169.598 121.912 169.305 124.022C169.011 125.949 168.815 127.783 168.815 129.801C169.109 130.627 169.403 131.636 169.598 132.278C169.892 133.287 169.892 133.746 169.892 134.755C169.892 135.764 169.794 136.865 169.598 138.057C169.696 138.791 169.892 139.709 169.892 140.167C169.501 140.351 168.815 140.626 168.619 140.626C167.443 140.718 167.149 140.442 166.953 140.442C167.051 139.984 166.953 139.25 166.953 138.7C166.366 135.489 165.484 130.994 164.994 128.884C164.896 129.343 164.896 129.801 164.798 130.168C164.7 130.902 165.19 131.82 165.19 132.553C165.288 133.838 165.288 133.929 165.092 135.214C164.994 135.948 164.7 137.415 164.406 138.149C164.211 139.066 163.917 140.901 164.113 141.818C163.917 141.91 161.957 142.185 161.076 141.452C161.174 140.718 161.174 139.8 161.174 139.158C161.272 135.489 161.174 132.095 161.174 130.811Z" fill="#002B6A"/>
<path d="M160.389 109.804C160.585 110.079 160.683 110.354 160.879 110.538C160.977 111.088 161.369 112.372 161.467 113.29C160.683 112.648 158.332 110.721 157.255 109.62C157.157 109.529 157.059 109.437 157.059 109.437C157.059 109.345 157.157 108.428 157.94 108.153C157.842 108.153 159.508 109.345 160.389 109.804Z" fill="#1D99B3"/>
<path d="M164.015 102.006C164.994 102.006 166.268 101.823 167.247 101.64C167.247 101.731 167.345 102.006 167.345 102.006C166.856 102.006 166.072 102.006 165.68 102.098C165.288 102.19 164.7 102.373 164.113 102.557C164.015 102.373 164.015 102.19 164.015 102.006Z" fill="#F89C69"/>
<path d="M162.055 97.5117C161.957 96.9613 162.055 96.1357 162.447 95.7688C162.643 95.5853 162.839 95.4019 163.035 95.2184C163.525 94.7597 164.014 94.5763 164.7 94.4845C165.778 94.2093 167.149 94.2093 167.933 95.0349C168.129 95.0349 164.994 95.2184 163.916 96.044C163.72 96.2275 163.231 96.5027 163.035 96.6861C162.741 96.9613 162.643 97.3283 162.349 97.5117C162.153 97.5117 162.153 97.5117 162.055 97.5117Z" fill="#003D75"/>
<path d="M162.938 101.273C162.743 101.364 162.547 101.456 162.449 101.456C162.645 101.823 163.232 102.006 164.016 102.006C164.996 102.006 166.073 101.915 167.053 101.731C167.543 101.64 166.955 101.823 167.739 101.548C168.326 101.181 169.404 100.447 169.698 99.8049C169.796 99.6214 169.796 99.5297 169.894 99.3462C169.894 99.2545 169.992 99.1627 169.992 99.071C170.188 98.4289 170.58 95.31 167.837 95.0348C166.171 94.943 164.506 95.0348 163.33 95.8604C163.134 96.0438 162.841 96.4108 162.547 96.686C162.547 96.686 162.547 96.686 162.547 96.7777C162.253 96.8694 162.155 97.2364 162.155 97.6033C162.253 97.6033 162.253 97.6033 162.351 97.6033C162.841 98.3372 163.036 98.7958 163.232 99.6214C163.526 100.08 163.428 100.997 162.938 101.273Z" fill="#002B6A"/>
<path d="M162.447 97.5115C162.937 98.2454 163.133 98.7041 163.329 99.5297C163.427 100.08 163.329 100.997 162.937 101.181C162.447 100.355 162.251 99.071 162.251 98.0619C162.251 97.9702 162.251 97.8785 162.251 97.7867C162.251 97.695 162.251 97.5115 162.251 97.4198C162.349 97.5115 162.447 97.5115 162.447 97.5115Z" fill="#F9A873"/>
<path d="M161.368 115.675C161.564 115.766 161.76 115.858 161.956 115.858C161.956 116.133 161.956 116.409 161.956 116.776C161.662 116.776 161.368 116.684 161.172 116.592C161.172 116.225 161.368 115.583 161.368 115.675Z" fill="#277293"/>
<path d="M164.112 102.557C164.699 102.374 165.287 102.19 165.679 102.098C166.169 102.007 167.05 101.915 167.54 101.915C167.932 101.915 168.03 102.098 168.03 102.098C167.638 102.19 166.659 102.373 166.561 102.373C165.777 102.465 164.895 102.649 164.112 102.832C163.916 102.832 163.328 103.107 163.132 103.107C163.328 102.924 163.72 102.74 164.112 102.557Z" fill="white"/>
<path d="M161.469 103.933C161.958 103.658 162.546 103.382 163.134 103.199C163.33 103.107 163.428 103.107 163.624 103.016C163.82 102.924 163.918 102.924 164.113 102.832C164.897 102.649 165.681 102.465 166.563 102.373C166.66 102.373 166.758 102.373 166.856 102.282C166.954 102.282 167.052 102.282 167.15 102.19C167.542 102.098 168.032 102.007 168.424 102.007C169.501 101.915 170.089 101.915 170.579 102.649C171.069 103.382 170.579 105.217 170.285 105.768C169.991 106.593 169.795 107.144 169.403 107.969C168.816 109.529 168.816 110.538 168.62 112.189C168.522 112.923 168.522 114.023 168.62 114.757C168.228 114.941 167.248 115.308 166.66 115.491C166.171 115.675 165.583 115.766 164.995 115.858C164.799 115.858 164.603 115.95 164.407 115.95C164.309 112.647 163.624 109.253 163.134 106.134C163.134 105.492 163.036 104.667 162.84 104.208C162.546 103.933 161.958 103.749 161.469 103.933Z" fill="#33B3C4"/>
<path d="M160.489 105.676C160.391 106.96 160.685 108.795 161.077 110.538C161.371 112.005 161.763 113.473 161.763 114.299C161.763 114.299 161.861 114.941 161.861 115.858C161.665 115.766 161.469 115.766 161.273 115.675C161.273 115.675 161.273 113.565 161.077 112.464C160.881 111.547 160.881 111.088 160.783 110.538C160.587 110.262 160.293 110.171 160.097 109.987C159.608 109.437 159.412 109.07 159.412 107.969C159.51 107.51 160.097 106.501 160.489 105.676Z" fill="#33B3C4"/>
<path d="M149.516 103.841C150.398 103.658 150.692 103.474 151.279 103.291C152.357 104.116 155.492 106.593 156.373 107.602L156.863 108.244C157.059 108.52 157.647 109.253 157.647 109.253C157.549 109.253 156.178 109.712 155.492 109.896C154.61 110.171 153.728 110.538 152.945 110.813C151.475 108.978 147.067 105.492 145.793 104.3C146.773 104.208 148.536 104.025 149.516 103.841Z" fill="#DCFFFF"/>
<path d="M155.294 107.144L155.49 107.052C155.588 107.235 155.882 107.327 155.882 107.327H156.764C156.764 107.327 157.057 107.327 157.155 107.327L157.253 107.419C157.449 107.694 157.547 107.969 157.743 108.244C157.547 108.336 157.351 108.428 157.253 108.703C156.764 108.611 156.666 108.336 156.47 108.061C156.274 108.061 155.784 107.969 155.784 107.969L155.392 107.602C155.392 107.511 155.294 107.235 155.294 107.144Z" fill="#F9A873"/>
<path d="M162.054 121.179C162.348 121.546 163.23 121.546 163.72 121.546C163.72 121.912 163.72 122.463 163.72 122.922C163.72 123.013 163.622 123.197 163.622 123.288C163.622 123.38 163.622 123.38 163.622 123.472C163.72 123.839 163.622 124.94 163.622 124.94L163.328 125.123L163.034 125.398L162.348 125.215C162.25 125.123 162.152 125.031 162.152 124.848C161.956 124.481 161.76 124.022 161.564 123.655C161.564 123.564 161.564 123.38 161.564 123.197C161.564 122.555 161.858 121.729 162.054 121.179Z" fill="#F9A873"/>
<path d="M160.488 105.676C160.488 105.309 160.586 104.942 160.684 104.667C160.782 104.392 160.88 104.208 161.076 104.025C161.174 103.933 161.272 103.933 161.37 103.841C161.86 103.749 162.447 103.841 162.741 104.3C162.937 104.667 163.035 105.584 163.035 106.226C163.427 109.345 164.211 112.739 164.309 116.042C164.309 116.317 164.309 117.418 164.309 117.693C164.211 119.069 164.211 120.353 163.819 121.637L163.623 121.729C163.035 121.821 162.252 121.546 161.958 121.179C161.958 121.179 161.958 121.179 161.958 121.087C161.958 120.995 161.958 120.903 161.958 120.812C162.056 119.894 162.056 118.702 162.056 117.509C162.056 117.234 162.056 116.959 162.056 116.684C162.056 116.317 162.056 116.042 162.056 115.766C161.958 114.849 161.958 114.207 161.958 114.207C161.86 113.29 161.566 111.914 161.272 110.446C160.782 108.795 160.39 106.96 160.488 105.676Z" fill="#6ABFCE"/>
<path fill-rule="evenodd" clip-rule="evenodd" d="M64.1919 123.38L66.7389 122.096V121.546L64.1919 122.83V123.38Z" fill="#33B3C4"/>
<path fill-rule="evenodd" clip-rule="evenodd" d="M64.1914 122.83L66.7384 121.546L58.3136 117.418L55.7666 118.702L64.1914 122.83Z" fill="#6ABFCE"/>
<path fill-rule="evenodd" clip-rule="evenodd" d="M55.7666 118.702V119.252L64.1913 123.38V122.83L55.7666 118.702Z" fill="#2CA4B7"/>
<path fill-rule="evenodd" clip-rule="evenodd" d="M48.7134 130.811L51.3583 129.618V129.068L48.8113 130.26L48.7134 130.811Z" fill="#33B3C4"/>
<path fill-rule="evenodd" clip-rule="evenodd" d="M48.812 130.26L51.3591 129.068L42.9342 124.94L40.3872 126.224L48.812 130.26Z" fill="#6ABFCE"/>
<path fill-rule="evenodd" clip-rule="evenodd" d="M40.3867 126.224V126.683L48.7136 130.811L48.8115 130.26L40.3867 126.224Z" fill="#2CA4B7"/>
<path fill-rule="evenodd" clip-rule="evenodd" d="M62.9191 100.447L61.4497 99.6216L59.8823 100.447L61.4497 101.181L62.9191 100.447Z" fill="#929190"/>
<path fill-rule="evenodd" clip-rule="evenodd" d="M61.45 101.181L61.0581 109.529L61.5479 120.995L63.0173 120.262L62.9194 100.447L61.45 101.181Z" fill="#33B3C4"/>
<path fill-rule="evenodd" clip-rule="evenodd" d="M61.4502 101.181L59.8828 100.447L59.9808 120.262L61.5482 120.995L61.4502 101.181Z" fill="#2CA4B7"/>
<path fill-rule="evenodd" clip-rule="evenodd" d="M46.165 108.703L45.3813 118.152L46.263 128.518L47.8304 127.784L47.7324 107.878L46.165 108.703Z" fill="#33B3C4"/>
<path fill-rule="evenodd" clip-rule="evenodd" d="M46.1663 108.703L44.6968 107.878V127.784L46.2642 128.518L46.1663 108.703Z" fill="#2CA4B7"/>
<path fill-rule="evenodd" clip-rule="evenodd" d="M47.7343 107.878L46.1669 107.144L44.6975 107.878L46.1669 108.703L47.7343 107.878Z" fill="#929190"/>
<path fill-rule="evenodd" clip-rule="evenodd" d="M44.0111 108.52L41.9539 107.511V109.345L44.0111 110.354V108.52Z" fill="#2CA4B7"/>
<path fill-rule="evenodd" clip-rule="evenodd" d="M65.0724 98.1538L63.0152 97.1448L41.9534 107.511L44.0106 108.52L65.0724 98.1538Z" fill="#6ABFCE"/>
<path fill-rule="evenodd" clip-rule="evenodd" d="M44.0117 108.52V110.354L65.0737 99.9886V98.1539L44.0117 108.52Z" fill="#33B3C4"/>
<path fill-rule="evenodd" clip-rule="evenodd" d="M63.8991 70.4507L63.1154 70.0837L42.9351 79.9909L43.7188 80.3578L63.8991 70.4507Z" fill="#D1D2D2"/>
<path fill-rule="evenodd" clip-rule="evenodd" d="M43.7182 80.358L42.9346 79.991L43.0325 107.511L43.8162 107.878L43.7182 80.358Z" fill="#9FEDEB"/>
<path fill-rule="evenodd" clip-rule="evenodd" d="M43.719 80.3579L43.817 107.878L63.9972 97.9706L63.8992 70.4508L43.719 80.3579Z" fill="#DCFFFF"/>
<path fill-rule="evenodd" clip-rule="evenodd" d="M44.0111 79.1654L41.9539 78.1563V79.991L44.0111 81V79.1654Z" fill="#2CA4B7"/>
<path fill-rule="evenodd" clip-rule="evenodd" d="M65.0724 68.7995L63.0152 67.7904L41.9534 78.1562L44.0106 79.1653L65.0724 68.7995Z" fill="#6ABFCE"/>
<path fill-rule="evenodd" clip-rule="evenodd" d="M44.0117 79.1652V80.9999L65.0737 70.7258V68.7994L44.0117 79.1652Z" fill="#33B3C4"/>
<path d="M56.1818 91.3278C57.0397 86.4285 55.7009 82.1444 53.1916 81.7591C50.6824 81.3739 47.9527 85.0333 47.0948 89.9327C46.237 94.8321 47.5757 99.1161 50.085 99.5014C52.5943 99.8867 55.3239 96.2272 56.1818 91.3278Z" fill="white"/>
<path fill-rule="evenodd" clip-rule="evenodd" d="M62.92 75.4042L56.2585 78.5231V77.7892L62.92 74.6704V75.4042Z" fill="white"/>
<path fill-rule="evenodd" clip-rule="evenodd" d="M62.7236 78.0645L56.4541 81V80.1744L62.7236 77.2389V78.0645Z" fill="white"/>
<path fill-rule="evenodd" clip-rule="evenodd" d="M62.8224 76.6886L57.2385 79.3489V78.5233L62.8224 75.863V76.6886Z" fill="white"/>
<path fill-rule="evenodd" clip-rule="evenodd" d="M62.7225 79.3487L57.1387 82.009V81.1834L62.7225 78.6149V79.3487Z" fill="white"/>
<path fill-rule="evenodd" clip-rule="evenodd" d="M62.136 94.668L60.1768 95.5853V81.8255L62.136 80.9999V94.668Z" fill="white"/>
<path fill-rule="evenodd" clip-rule="evenodd" d="M59.4905 94.3012L57.9231 95.1268V83.1098L59.4905 82.2842V94.3012Z" fill="white"/>
<path fill-rule="evenodd" clip-rule="evenodd" d="M59.4905 96.0442L57.9231 96.8698V95.4938L59.4905 94.6682V96.0442Z" fill="white"/>
</svg>
