<svg width="191" height="144" viewBox="0 0 191 144" fill="none" xmlns="http://www.w3.org/2000/svg">
<path opacity="0.58" d="M9.38137 110.901L91.4441 76.2422C93.6432 75.2132 97.2167 75.2132 99.3975 76.2422L145.853 98.0735C148.034 99.1025 148.016 100.783 145.835 101.795L65.055 139.507C62.8559 140.536 59.2824 140.536 57.1016 139.507L6.35762 115.618C2.76577 113.92 2.89405 113.165 9.38137 110.901Z" fill="#1D99B3"/>
<path d="M9.49134 111.536L55.9471 133.367C58.1279 134.396 61.7014 134.396 63.9005 133.367L144.662 95.6554C145.762 95.141 146.311 94.455 146.311 93.7861C146.311 95.0209 146.33 96.2728 146.33 97.5076C146.33 98.1936 145.78 98.8624 144.68 99.3769L63.9005 137.089C61.7014 138.118 58.1279 138.118 55.9471 137.089L9.50967 115.257C8.42845 114.743 7.87868 114.074 7.87868 113.405C7.87868 112.17 7.87868 110.919 7.86035 109.684C7.87868 110.37 8.41012 111.039 9.49134 111.536Z" fill="#0F6B93"/>
<path d="M9.54707 107.797L90.3087 70.1027C92.5078 69.0737 96.0813 69.0737 98.2621 70.1027L144.7 91.9169C146.88 92.9458 146.862 94.6265 144.681 95.6383L63.9196 133.367C61.7205 134.396 58.147 134.396 55.9662 133.367L9.51042 111.536C7.32965 110.507 7.34798 108.826 9.54707 107.797Z" fill="#3DBFC9"/>
<g opacity="0.38">
<path opacity="0.38" d="M48.2693 100.92L53.3089 103.321L59.558 100.423L54.5001 98.0221L48.2693 100.92Z" fill="#1D99B3"/>
<path opacity="0.38" d="M42.1489 121.208L47.1885 123.592L60.0348 117.607L60.1448 116.938L42.3322 120.677L42.1489 121.208Z" fill="#1D99B3"/>
<path opacity="0.38" d="M24.8125 106.031L29.8521 108.432L36.0828 105.516L31.0433 103.133L24.8125 106.031Z" fill="#1D99B3"/>
<path opacity="0.38" d="M38.0254 111.484L43.0833 113.868L49.3141 110.97L44.2745 108.586L38.0254 111.484Z" fill="#1D99B3"/>
<path opacity="0.38" d="M45.0435 108.226L50.1014 110.61L56.3322 107.712L51.2742 105.328L45.0435 108.226Z" fill="#1D99B3"/>
<path opacity="0.38" d="M34.0854 107.523L39.1434 109.907L45.3558 107.008L40.3162 104.625L34.0854 107.523Z" fill="#1D99B3"/>
<path opacity="0.38" d="M17.3904 109.478L22.4483 111.862L28.6791 108.963L17.6469 108.912L17.3904 109.478Z" fill="#1D99B3"/>
<path opacity="0.38" d="M52.0632 104.968L57.1028 107.351L63.3336 104.453L58.294 102.069L52.0632 104.968Z" fill="#1D99B3"/>
<path opacity="0.38" d="M54.2622 109.735L59.3201 112.119L65.5509 109.221L60.493 106.837L54.2622 109.735Z" fill="#1D99B3"/>
<path opacity="0.38" d="M47.2612 112.994L52.3008 115.377L58.5316 112.479L53.492 110.095L47.2612 112.994Z" fill="#1D99B3"/>
<path opacity="0.38" d="M61.1892 106.511L66.2471 108.895L72.4779 105.997L67.42 103.613L61.1892 106.511Z" fill="#1D99B3"/>
<path opacity="0.38" d="M23.5664 112.411L28.6243 114.794L38.282 110.301L23.768 111.879L23.5664 112.411Z" fill="#1D99B3"/>
<path opacity="0.38" d="M30.0898 115.498L40.9937 120.642L51.4943 115.755L46.4364 113.371L43.2111 114.88L30.3281 114.983L30.0898 115.498Z" fill="#1D99B3"/>
<path opacity="0.38" d="M55.6179 114.949L60.6575 117.333L70.4068 112.805L70.4617 112.136L55.6179 114.949Z" fill="#1D99B3"/>
<path opacity="0.38" d="M84.1333 78.4888L89.1729 80.8726L98.2441 76.6195L93.2046 74.2357L84.1333 78.4888Z" fill="#1D99B3"/>
<path opacity="0.38" d="M76.6372 87.7325L81.6768 90.1162L87.9076 87.218L82.868 84.8342L76.6372 87.7325Z" fill="#1D99B3"/>
<path opacity="0.38" d="M47.0593 95.6898L52.0989 98.0736L58.348 95.1753L53.2901 92.7915L47.0593 95.6898Z" fill="#1D99B3"/>
<path opacity="0.38" d="M55.3616 97.6277L60.4012 100.011L66.632 97.1132L61.5924 94.7294L55.3616 97.6277Z" fill="#1D99B3"/>
<path opacity="0.38" d="M65.9722 110.112L71.0301 112.513L98.4088 99.7713L98.6287 98.6737L65.9722 110.112Z" fill="#1D99B3"/>
<path opacity="0.38" d="M76.7288 81.8844L81.7867 84.2854L88.0174 81.3871L82.9595 78.9861L76.7288 81.8844Z" fill="#1D99B3"/>
<path opacity="0.38" d="M96.3928 90.1334L101.451 92.5343L116.79 85.4001L111.75 82.9991L96.3928 90.1334Z" fill="#1D99B3"/>
<path opacity="0.38" d="M54.4819 92.2255L59.5215 94.6265L65.7523 91.7282L60.7127 89.3444L54.4819 92.2255Z" fill="#1D99B3"/>
<path opacity="0.38" d="M80.083 91.9169L85.141 94.3179L91.3718 91.4196L86.3138 89.0358L80.083 91.9169Z" fill="#1D99B3"/>
<path opacity="0.38" d="M104.75 92.0884L109.808 94.4722L123.002 88.3327L123.186 87.6124L104.75 92.0884Z" fill="#1D99B3"/>
<path opacity="0.38" d="M62.3257 94.2836L67.3836 96.6674L73.6144 93.7691L68.5565 91.3853L62.3257 94.2836Z" fill="#1D99B3"/>
<path opacity="0.38" d="M89.3188 93.4431L94.3585 95.8269L100.589 92.9287L95.5496 90.5449L89.3188 93.4431Z" fill="#1D99B3"/>
<path opacity="0.38" d="M73.0823 95.1924L78.1402 97.5762L84.3709 94.6779L79.313 92.2942L73.0823 95.1924Z" fill="#1D99B3"/>
<path opacity="0.38" d="M82.3735 96.6673L87.4314 99.051L93.6621 96.1528L88.6042 93.769L82.3735 96.6673Z" fill="#1D99B3"/>
<path opacity="0.38" d="M39.6379 99.1368L44.6958 101.521L50.9266 98.6223L45.8687 96.2385L39.6379 99.1368Z" fill="#1D99B3"/>
<path opacity="0.38" d="M94.2297 96.976L99.2876 99.3597L109.019 94.8323L109.165 94.1464L94.2297 96.976Z" fill="#1D99B3"/>
<path opacity="0.38" d="M65.9722 98.4851L71.0667 100.869L77.2609 97.9878L72.2029 95.5869L65.9722 98.4851Z" fill="#1D99B3"/>
<path opacity="0.38" d="M75.373 99.9257L80.4126 102.309L86.6617 99.4112L81.6038 97.0275L75.373 99.9257Z" fill="#1D99B3"/>
<path opacity="0.38" d="M32.2344 102.584L37.274 104.968L43.5048 102.069L38.4468 99.6857L32.2344 102.584Z" fill="#1D99B3"/>
<path opacity="0.38" d="M59.063 101.692L64.1209 104.093L70.3516 101.195L65.2937 98.811L59.063 101.692Z" fill="#1D99B3"/>
<path opacity="0.38" d="M41.1765 104.213L46.2161 106.614L52.4651 103.716L47.4072 101.315L41.1765 104.213Z" fill="#1D99B3"/>
<path opacity="0.38" d="M68.446 103.15L73.4856 105.534L79.7164 102.635L74.6585 100.252L68.446 103.15Z" fill="#1D99B3"/>
<path opacity="0.38" d="M69.3066 85.3315L74.3646 87.7324L80.5953 84.8342L75.5374 82.4332L69.3066 85.3315Z" fill="#1D99B3"/>
<path opacity="0.38" d="M84.0415 84.2853L89.0811 86.6863L104.42 79.5521L99.3801 77.1511L84.0415 84.2853Z" fill="#1D99B3"/>
<path opacity="0.38" d="M94.1384 85.4001L99.178 87.7838L110.613 82.4675L105.555 80.0837L94.1384 85.4001Z" fill="#1D99B3"/>
<path opacity="0.38" d="M61.9033 88.7785L66.9429 91.1794L73.1736 88.2812L68.1341 85.8802L61.9033 88.7785Z" fill="#1D99B3"/>
<path opacity="0.38" d="M87.1018 88.6585L92.1597 91.0594L98.3904 88.1611L93.3325 85.7601L87.1018 88.6585Z" fill="#1D99B3"/>
<path opacity="0.38" d="M69.5457 91.0251L74.5853 93.426L80.8344 90.5278L75.7764 88.1268L69.5457 91.0251Z" fill="#1D99B3"/>
</g>
<path d="M109.11 93.5289L109.165 94.1463L98.1515 99.2569L71.0111 111.879L70.4796 111.622L70.4613 112.136L60.6387 116.698L60.1072 116.458L60.1439 116.938L47.3892 123.06L42.3313 120.677V119.665L41.2317 120.145L30.3279 114.983V113.371L28.6053 114.177L23.7673 111.879L23.749 111.004L22.7227 111.399L17.6465 108.912V107.249L23.8772 104.35L25.0501 104.916V103.801L31.2808 100.903L32.472 101.469V100.354L38.7028 97.4562L39.8939 98.0735V96.9074L46.1247 94.0091L47.3159 94.6779V93.4603L53.5283 90.562L54.8294 91.3338L54.7195 90.0132L60.9502 87.115L62.1964 87.921L62.1414 86.549L68.3721 83.6679L69.5633 84.3882V83.102L75.7941 80.2037L77.0036 80.7868L76.9852 79.6549L83.216 76.7567L84.2789 77.8714L84.3888 76.2422L93.4418 72.0062L98.4997 74.39V75.4533L99.6175 74.9216L104.675 77.3226V78.3859L105.812 77.8542L110.851 80.238V81.3013L111.987 80.7868L117.045 83.1706V84.2682L118.2 83.7194L123.258 86.1032L123.184 87.6123L109.788 93.8547L109.11 93.5289Z" fill="#1F9DB2"/>
<path d="M48.5068 98.691L53.5647 101.092L59.7955 98.1937L54.7376 95.7927L48.5068 98.691Z" fill="#8FF2F2"/>
<path d="M42.4053 118.979L47.4448 121.363L60.2911 115.395L55.2516 112.994L42.4053 118.979Z" fill="#8FF2F2"/>
<path d="M25.05 103.801L30.1079 106.202L36.3387 103.287L31.2808 100.903L25.05 103.801Z" fill="#8FF2F2"/>
<path d="M38.2817 109.255L43.3396 111.639L49.5704 108.741L44.5125 106.357L38.2817 109.255Z" fill="#8FF2F2"/>
<path d="M45.3 105.997L50.3396 108.38L56.5704 105.482L51.5308 103.098L45.3 105.997Z" fill="#8FF2F2"/>
<path d="M34.3413 105.293L39.3809 107.677L45.6116 104.779L40.5721 102.395L34.3413 105.293Z" fill="#8FF2F2"/>
<path d="M17.6467 107.249L22.6863 109.632L28.9171 106.734L23.8775 104.35L17.6467 107.249Z" fill="#8FF2F2"/>
<path d="M52.301 102.738L57.3589 105.122L63.5897 102.224L58.5318 99.84L52.301 102.738Z" fill="#8FF2F2"/>
<path d="M54.5186 107.506L59.5581 109.89L65.7889 106.991L60.7493 104.608L54.5186 107.506Z" fill="#8FF2F2"/>
<path d="M47.499 110.764L52.5569 113.165L58.7877 110.267L53.7298 107.866L47.499 110.764Z" fill="#8FF2F2"/>
<path d="M61.4456 104.282L66.5035 106.683L72.7343 103.767L67.6763 101.383L61.4456 104.282Z" fill="#8FF2F2"/>
<path d="M23.8228 110.181L28.8623 112.565L38.52 108.089L33.4804 105.688L23.8228 110.181Z" fill="#8FF2F2"/>
<path d="M30.3284 113.268L36.1926 116.029L39.5462 117.624L41.2322 118.43L51.7512 113.525L46.6933 111.141L43.4679 112.651L37.622 109.872L30.3284 113.268Z" fill="#8FF2F2"/>
<path d="M55.856 112.719L60.9139 115.103L70.6449 110.576L65.587 108.192L55.856 112.719Z" fill="#8FF2F2"/>
<path d="M84.3896 76.2594L89.4292 78.6432L98.5005 74.39L93.4426 72.0062L84.3896 76.2594Z" fill="#8FF2F2"/>
<path d="M76.876 85.503L81.9339 87.8867L88.1647 85.0056L83.1068 82.6047L76.876 85.503Z" fill="#8FF2F2"/>
<path d="M47.3157 93.4603L52.3552 95.8441L58.586 92.9458L53.5281 90.562L47.3157 93.4603Z" fill="#8FF2F2"/>
<path d="M55.6182 95.3982L60.6577 97.782L66.8885 94.8838L61.8489 92.5L55.6182 95.3982Z" fill="#8FF2F2"/>
<path d="M66.2283 107.883L71.2862 110.284L98.6465 97.5419L93.607 95.1581L66.2283 107.883Z" fill="#8FF2F2"/>
<path d="M76.9849 79.655L82.0244 82.0559L88.2552 79.1576L83.2156 76.7567L76.9849 79.655Z" fill="#8FF2F2"/>
<path d="M96.6489 87.921L101.707 90.3048L117.046 83.1706L111.988 80.7869L96.6489 87.921Z" fill="#8FF2F2"/>
<path d="M54.7188 90.0132L59.7766 92.397L66.0074 89.4987L60.9495 87.115L54.7188 90.0132Z" fill="#8FF2F2"/>
<path d="M80.3394 89.6874L85.3973 92.0884L91.628 89.1901L86.5701 86.8063L80.3394 89.6874Z" fill="#8FF2F2"/>
<path d="M105.006 89.8589L110.045 92.2427L123.258 86.1031L118.2 83.7194L105.006 89.8589Z" fill="#8FF2F2"/>
<path d="M62.5815 92.0541L67.6211 94.4379L73.8519 91.5396L68.794 89.1558L62.5815 92.0541Z" fill="#8FF2F2"/>
<path d="M89.5566 91.2137L94.6145 93.5975L100.845 90.6992L95.7873 88.3154L89.5566 91.2137Z" fill="#8FF2F2"/>
<path d="M73.3384 92.963L78.378 95.3468L84.6088 92.4485L79.5692 90.0647L73.3384 92.963Z" fill="#8FF2F2"/>
<path d="M82.6299 94.4379L87.6879 96.8217L93.9187 93.9234L88.8607 91.5396L82.6299 94.4379Z" fill="#8FF2F2"/>
<path d="M39.894 96.9074L44.9336 99.2911L51.1827 96.3929L46.1248 94.0092L39.894 96.9074Z" fill="#8FF2F2"/>
<path d="M94.4861 94.7466L99.544 97.1304L109.275 92.6028L104.217 90.219L94.4861 94.7466Z" fill="#8FF2F2"/>
<path d="M66.2283 96.2557L71.3228 98.6395L77.4986 95.7584L72.459 93.3574L66.2283 96.2557Z" fill="#8FF2F2"/>
<path d="M75.6104 97.6963L80.6683 100.08L86.899 97.1818L81.8594 94.798L75.6104 97.6963Z" fill="#8FF2F2"/>
<path d="M32.4719 100.354L37.5298 102.738L43.7606 99.8571L38.7027 97.4562L32.4719 100.354Z" fill="#8FF2F2"/>
<path d="M59.3193 99.4798L64.3589 101.864L70.5897 98.9653L65.5501 96.5815L59.3193 99.4798Z" fill="#8FF2F2"/>
<path d="M41.4331 102.001L46.4727 104.385L52.7034 101.486L47.6639 99.1025L41.4331 102.001Z" fill="#8FF2F2"/>
<path d="M68.6836 100.92L73.7415 103.304L79.9723 100.406L74.9144 98.0221L68.6836 100.92Z" fill="#8FF2F2"/>
<path d="M69.5632 83.102L74.6028 85.5029L80.8336 82.6047L75.794 80.2037L69.5632 83.102Z" fill="#8FF2F2"/>
<path d="M84.2791 82.0559L89.337 84.4568L104.676 77.3226L99.6177 74.9216L84.2791 82.0559Z" fill="#8FF2F2"/>
<path d="M94.377 83.1706L99.4349 85.5544L110.852 80.238L105.812 77.8542L94.377 83.1706Z" fill="#8FF2F2"/>
<path d="M62.1409 86.5491L67.1988 88.95L73.4296 86.0517L68.3716 83.668L62.1409 86.5491Z" fill="#8FF2F2"/>
<path d="M87.3574 86.4291L92.397 88.83L98.6278 85.9317L93.5882 83.548L87.3574 86.4291Z" fill="#8FF2F2"/>
<path d="M69.802 88.7957L74.8416 91.1967L81.0723 88.2983L76.0144 85.8973L69.802 88.7957Z" fill="#8FF2F2"/>
<path opacity="0.57" d="M65 117.435L77.7914 123.455L97.5649 114.228L84.7552 108.209L65 117.435Z" fill="#168CA8"/>
<g opacity="0.64">
<path opacity="0.51" d="M53.0148 133.95C53.0148 134.448 52.575 134.654 52.0435 134.396C51.5121 134.139 51.0723 133.539 51.0723 133.041C51.0723 132.544 51.5121 132.338 52.0435 132.596C52.5933 132.853 53.0148 133.453 53.0148 133.95Z" fill="#00234C"/>
<path opacity="0.51" d="M40.3151 128.788L35.4954 126.542V124.792L40.3151 127.056V128.788Z" fill="#00234C"/>
<path opacity="0.51" d="M17.8113 118.241L11.6721 115.378V113.92L17.8113 116.767V118.241Z" fill="#00234C"/>
<path opacity="0.51" d="M47.4991 132.133L42.6611 129.869V128.137L47.4991 130.4V132.133Z" fill="#00234C"/>
</g>
<path d="M4.94642 38.1531L85.708 0.441293C86.8076 -0.0731927 87.8155 -0.124642 88.5485 0.218349C89.868 0.835731 91.2058 1.47026 92.5252 2.08765C91.7922 1.74466 5.55117 108.175 6.2842 108.518C5.62447 108.209 4.96474 107.9 4.28669 107.591C3.62696 107.283 2.96724 106.974 2.28918 106.648C1.57448 106.305 1.11633 105.602 1.11633 104.573L0.969727 43.7095C0.969727 41.6859 2.74733 39.1821 4.94642 38.1531Z" fill="#168CA8"/>
<path opacity="0.41" d="M19.6254 40.3654L10.5725 36.1295L2.74742 39.7995C1.66621 40.9656 0.951501 42.4405 0.969827 43.7267V43.9496L6.48587 46.5221L19.6254 40.3654Z" fill="#47C7D1"/>
<path d="M92.525 2.10486C91.2056 1.48747 89.8678 0.852942 88.5483 0.23556C87.8153 -0.10743 86.8257 -0.0559807 85.7078 0.458504L4.94618 38.1531C3.99324 38.599 3.13193 39.3364 2.43555 40.1768C5.22106 41.6345 8.15319 43.1951 8.15319 43.1951L90.5275 4.26569C91.7553 2.84228 92.4517 2.07056 92.525 2.10486Z" fill="#56D5D8"/>
<path d="M4.94678 45.596L5.11171 106.46C5.11171 108.5 6.92596 109.341 9.10672 108.312L89.8682 70.6C92.0673 69.571 93.8449 67.0672 93.8449 65.0264L93.6983 4.16269C93.6983 2.1219 91.9024 1.29872 89.7033 2.32769L8.92346 40.0395C6.72437 41.0513 4.94678 43.5552 4.94678 45.596Z" fill="#33B3C4"/>
<path d="M10.5545 44.6871L88.0908 8.48443C89.4103 7.86705 90.4915 8.38153 90.4915 9.59915L90.6381 63.7231C90.6381 64.9407 89.5752 66.4498 88.2558 67.0672L10.7011 103.27C9.38164 103.887 8.30041 103.39 8.30041 102.172L8.15381 48.0312C8.15381 46.8136 9.23503 45.3045 10.5545 44.6871Z" fill="#9FEDEB"/>
<path d="M45.0243 26.7487L57.6874 20.815C57.944 20.6949 58.1639 20.3863 58.1639 20.1462C58.1639 19.9061 57.944 19.8032 57.6874 19.9232L45.0243 25.8569C44.7678 25.9769 44.5479 26.2856 44.5479 26.5257C44.5479 26.7658 44.7678 26.8687 45.0243 26.7487Z" fill="#168CA8"/>
<path d="M41.5242 27.8463C41.5242 28.275 41.8907 28.4465 42.3488 28.2407C42.807 28.0349 43.1735 27.5033 43.1735 27.0745C43.1735 26.6458 42.807 26.4743 42.3488 26.6801C41.8907 26.903 41.5242 27.4175 41.5242 27.8463Z" fill="#168CA8"/>
<path opacity="0.54" d="M22.0444 39.3365L88.1087 8.48443C89.4281 7.86704 90.5093 8.38153 90.5093 9.59915L90.6376 47.5682L22.0444 39.3365Z" fill="#DEFFFC"/>
<path opacity="0.34" d="M174.826 113.954L110.612 144L100.735 139.37L164.93 109.324L174.826 113.954Z" fill="#1D99B3"/>
<path d="M174.789 110.061L110.576 140.107L100.698 135.425V132.184L174.789 106.768V110.061Z" fill="#168CA8"/>
<path d="M100.698 135.425L110.576 140.056V129.989L108.688 129.457L100.698 132.201V135.425Z" fill="#0F6B93"/>
<path d="M174.789 106.768L110.594 136.814L100.698 132.184L164.894 102.138L174.789 106.768Z" fill="#3DBFC9"/>
<path d="M171.343 107.094L111.07 135.391L104.051 132.115L164.325 103.819L171.343 107.094Z" fill="#BFF7F3"/>
<path d="M106.36 132.115V131.875L109.659 131.292V131.532L108.724 131.961L109.696 132.424L111.51 132.253V132.493L110.685 132.887L112.848 133.659V133.899L111.51 134.534L106.36 132.115Z" fill="#168CA8"/>
<path d="M110.282 130.263L115.432 132.441V132.681L114.094 133.316L108.945 130.898V130.658L110.282 130.263Z" fill="#168CA8"/>
<path d="M113.818 128.617L118.968 130.795V131.035L117.795 131.584L114.753 130.812L117.099 131.67V131.91L115.981 132.441L110.831 130.023V129.783L111.949 129.492L115.028 130.229L112.701 129.149V128.908L113.818 128.617Z" fill="#168CA8"/>
<path d="M114.351 128.36V128.12L115.359 127.879C116 127.571 116.476 127.382 116.77 127.313C117.063 127.228 117.319 127.193 117.576 127.211C117.832 127.211 118.052 127.262 118.254 127.313C118.456 127.382 118.785 127.519 119.28 127.759L121.076 128.6C121.534 128.823 121.827 128.977 121.937 129.063C122.047 129.149 122.102 129.251 122.084 129.337C122.066 129.423 121.992 129.526 121.864 129.612C121.736 129.697 121.516 129.817 121.204 129.972L119.518 130.761L114.351 128.36ZM116.586 128.154L119.977 129.749C120.178 129.663 120.251 129.577 120.215 129.526C120.178 129.474 119.995 129.354 119.647 129.2L117.649 128.257C117.411 128.154 117.264 128.085 117.173 128.051C117.099 128.034 117.008 128.017 116.935 128.034C116.843 128.034 116.733 128.085 116.586 128.154Z" fill="#168CA8"/>
<path d="M106.36 131.875L108.633 130.812L109.659 131.292L108.724 131.721L109.696 132.184L110.52 131.79L111.491 132.253L110.667 132.647L112.829 133.659L111.491 134.294L106.36 131.875Z" fill="white"/>
<path d="M110.283 130.04L115.432 132.458L114.094 133.093L108.945 130.675L110.283 130.04Z" fill="white"/>
<path d="M113.819 128.377L118.968 130.795L117.795 131.344L114.753 130.572L117.099 131.67L115.981 132.201L110.832 129.783L111.949 129.251L115.028 129.989L112.701 128.908L113.819 128.377Z" fill="white"/>
<path d="M114.351 128.137L115.359 127.674C116 127.365 116.476 127.176 116.77 127.108C117.063 127.022 117.319 126.988 117.576 127.005C117.833 127.005 118.052 127.056 118.254 127.108C118.456 127.176 118.785 127.314 119.28 127.554L121.076 128.394C121.534 128.617 121.828 128.771 121.938 128.857C122.048 128.943 122.102 129.046 122.084 129.131C122.066 129.217 121.993 129.32 121.864 129.406C121.736 129.492 121.516 129.612 121.205 129.766L119.519 130.555L114.351 128.137ZM116.586 127.914L119.977 129.509C120.178 129.423 120.252 129.337 120.215 129.286C120.178 129.234 119.995 129.114 119.647 128.96L117.649 128.017C117.411 127.914 117.264 127.845 117.173 127.811C117.099 127.794 117.008 127.777 116.935 127.794C116.843 127.811 116.733 127.845 116.586 127.914Z" fill="white"/>
<path d="M170.647 107.094L164.325 110.061L157.984 107.094V106.425L164.325 104.127L170.647 106.425V107.094Z" fill="#168CA8"/>
<path d="M170.648 106.425L164.325 109.392L157.985 106.425L164.325 103.459L170.648 106.425Z" fill="#70E2E5"/>
<path d="M168.339 106.271L166.03 106.117V106.271C166.122 106.46 166.085 106.563 166.03 106.734C166.03 106.751 166.048 106.871 166.03 106.888H168.339C168.706 106.888 168.999 106.751 168.999 106.58C168.999 106.408 169.127 106.237 168.339 106.271Z" fill="#9FEDEB"/>
<path d="M164.894 105.705C163.849 105.225 162.163 105.225 161.118 105.705C160.074 106.185 160.074 106.974 161.118 107.471C162.163 107.952 163.849 107.952 164.894 107.471C165.92 106.974 165.92 106.185 164.894 105.705ZM164.417 107.248C163.629 107.609 162.365 107.609 161.595 107.248C160.807 106.888 160.807 106.288 161.595 105.928C162.383 105.568 163.647 105.568 164.417 105.928C165.187 106.288 165.187 106.871 164.417 107.248Z" fill="#9FEDEB"/>
<path d="M161.907 107.094L162.218 106.94V106.786L161.962 106.751C161.815 106.563 161.888 106.357 162.218 106.202V106.048L161.907 106.065C161.302 106.357 161.302 106.82 161.907 107.094Z" fill="#9FEDEB"/>
<path d="M168.339 106.117H166.03C166.122 106.322 166.122 106.528 166.03 106.734H168.339C168.705 106.734 168.999 106.597 168.999 106.425C168.999 106.254 168.705 106.117 168.339 106.117Z" fill="white"/>
<path d="M164.894 105.551C163.849 105.071 162.163 105.071 161.118 105.551C160.074 106.031 160.074 106.82 161.118 107.317C162.163 107.797 163.849 107.797 164.894 107.317C165.92 106.82 165.92 106.031 164.894 105.551ZM164.417 107.094C163.629 107.454 162.365 107.454 161.595 107.094C160.807 106.734 160.807 106.134 161.595 105.774C162.383 105.414 163.647 105.414 164.417 105.774C165.187 106.134 165.187 106.717 164.417 107.094Z" fill="white"/>
<path d="M161.907 106.94L162.218 106.786C161.778 106.58 161.778 106.254 162.218 106.048L161.907 105.894C161.302 106.202 161.302 106.666 161.907 106.94Z" fill="white"/>
<path opacity="0.34" d="M170.648 80.3239L165.736 77.9915C168.1 76.3795 169.255 74.493 169.182 72.5895C169.09 70.1371 166.983 67.6676 162.914 65.764C154.796 61.9396 141.858 61.7681 134.033 65.4038C130.111 67.2217 128.224 69.6397 128.315 72.0921C128.407 74.5445 130.514 77.014 134.583 78.9176C141.821 82.3304 152.872 82.8277 160.733 80.3239L165.645 82.639L170.648 80.3239ZM159.964 77.6142C154.008 80.3753 144.149 80.2553 137.955 77.3399C134.857 75.8822 133.263 73.9957 133.19 72.1436C133.117 70.2743 134.564 68.4393 137.533 67.0502C143.489 64.2891 153.348 64.4092 159.542 67.3246C162.639 68.7823 164.234 70.6687 164.307 72.5209C164.38 74.3901 162.933 76.2423 159.964 77.6142Z" fill="#1D99B3"/>
<path opacity="0.34" d="M172.389 79.5349L164.014 83.4279L182.01 91.9169L190.385 88.0239L172.389 79.5349Z" fill="#1D99B3"/>
<path opacity="0.37" d="M158.827 74.2872C152.871 77.0483 143.012 76.9282 136.818 74.0128C133.721 72.5551 132.126 70.6686 132.053 68.8165C131.98 66.9472 133.428 65.1122 136.396 63.7231C142.352 60.962 152.212 61.082 158.406 63.9975C161.503 65.4552 163.097 67.3416 163.17 69.1938C163.244 71.0631 161.814 72.8981 158.827 74.2872Z" fill="#00638E"/>
<path d="M170.703 76.2937L165.791 73.9785C168.174 72.3665 169.31 70.48 169.236 68.5765C169.145 66.1241 170.189 63.0029 166.066 61.2022C152.872 55.4571 139.347 57.2235 131.522 60.842C127.6 62.6599 128.278 65.6267 128.37 68.062C128.462 70.5143 130.569 72.9839 134.637 74.8875C141.876 78.3002 152.927 78.7975 160.788 76.2937L165.7 78.6089L170.703 76.2937ZM138.376 71.852C135.279 70.3943 133.3 69.9827 133.226 68.1134C133.153 66.2441 134.601 64.4091 137.57 63.02C143.525 60.2589 153.385 60.379 159.579 63.2944C162.676 64.7521 164.27 66.6386 164.343 68.4907C164.417 70.36 162.694 70.5658 159.707 71.9549C153.77 74.7331 144.552 74.7674 138.376 71.852Z" fill="#168CA8"/>
<path opacity="0.61" d="M148.418 73.8413C157.295 73.8413 164.49 70.5935 164.49 66.587C164.49 62.5806 157.295 59.3328 148.418 59.3328C139.542 59.3328 132.347 62.5806 132.347 66.587C132.347 70.5935 139.542 73.8413 148.418 73.8413Z" fill="#D7FCFF"/>
<path opacity="0.7" d="M159.781 61.4594C153.513 58.6297 143.324 58.6297 137.057 61.4594C136.434 61.7338 135.902 62.0425 135.389 62.3512C135.719 62.2654 146.366 60.5333 151.039 65.0093C154.54 68.3706 160.221 67.8218 164.362 67.4274C164.912 65.3008 163.391 63.0886 159.781 61.4594Z" fill="white"/>
<path d="M170.702 73.0524L165.791 70.7373C168.173 69.1252 169.31 67.2388 169.236 65.3352C169.145 62.8828 167.037 60.4133 162.969 58.5097C154.851 54.6854 141.913 54.5139 134.088 58.1496C130.166 59.9674 128.278 62.3855 128.37 64.8378C128.462 67.2902 130.569 69.7597 134.637 71.6633C141.876 75.0761 152.926 75.5734 160.788 73.0696L165.699 75.3848L170.702 73.0524ZM137.991 70.0856C134.894 68.6279 133.3 66.7414 133.226 64.8893C133.153 63.02 134.601 61.185 137.569 59.7959C143.525 57.0348 153.385 57.1549 159.579 60.0703C162.676 61.528 164.27 63.4144 164.343 65.2666C164.417 67.1359 162.969 68.9709 160 70.36C154.044 73.121 144.185 73.001 137.991 70.0856Z" fill="#3DBFC9"/>
<path d="M164.142 76.1394V80.1695L182.156 88.6414V84.6112L164.142 76.1394Z" fill="#0A5B89"/>
<path d="M190.439 80.7526V84.817L182.156 88.6414V84.5769L190.439 80.7526Z" fill="#01366C"/>
<path d="M164.069 76.1736L172.444 72.2635L190.44 80.7526L182.065 84.6455L164.069 76.1736Z" fill="#1E7B9B"/>
<path d="M61.8841 67.8389L37.0527 79.3805V58.8868L61.8841 47.3452V67.8389Z" fill="#0F6B93"/>
<g opacity="0.35">
<path opacity="0.35" d="M34.6151 57.9094L9.802 69.4511V48.9574L34.6151 37.4157V57.9094Z" fill="#33B3C4"/>
<path opacity="0.35" d="M88.0901 33.1454L63.2588 44.687V24.1934L88.0901 12.6517V33.1454Z" fill="#33B3C4"/>
<path opacity="0.35" d="M61.2241 45.5103L36.3928 57.0519V36.5582L61.2241 25.0166V45.5103Z" fill="#33B3C4"/>
<path opacity="0.35" d="M34.798 81.4385L9.96655 92.9801V72.4864L34.798 60.9448V81.4385Z" fill="#33B3C4"/>
<path opacity="0.35" d="M88.2732 56.6746L63.4419 68.2162V47.7225L88.2732 36.1809V56.6746Z" fill="#33B3C4"/>
</g>
<path d="M11.4145 68.8679L10.2783 68.2505V47.7568L35.1098 36.2152V40.4511L11.4145 68.8679Z" fill="#33B3C4"/>
<path d="M88.5839 31.945L64.9436 44.104L63.7524 43.4866V22.9929L88.5839 11.4513V31.945Z" fill="#33B3C4"/>
<path d="M61.701 44.3097L38.0608 56.4688L36.8696 55.8514V35.3577L61.701 23.816V44.3097Z" fill="#33B3C4"/>
<path d="M11.6529 92.3971L10.4434 91.7797V71.286L35.2747 59.7444L11.6529 92.3971Z" fill="#33B3C4"/>
<path d="M88.7496 55.4741L65.1094 67.6331L63.9182 67.0157V46.5221L88.7496 34.9805V55.4741Z" fill="#33B3C4"/>
<path d="M36.3011 57.3263L11.4697 68.868V48.3742L36.3011 36.8326V57.3263Z" fill="#D9FDFF"/>
<path d="M89.7752 32.5623L64.9438 44.1039V23.6102L89.7752 12.0686V32.5623Z" fill="#D9FDFF"/>
<path d="M62.8919 44.9271L38.0605 56.4688V35.9751L62.8919 24.4335V44.9271Z" fill="#D9FDFF"/>
<path d="M36.4658 80.8554L11.6343 92.397V71.9033L36.4658 60.3617V80.8554Z" fill="#D9FDFF"/>
<path d="M89.9409 56.0914L65.1096 67.6331V47.1394L89.9409 35.5978V56.0914Z" fill="#D9FDFF"/>
<path d="M36.3009 36.8497L35.1097 36.2152L10.2783 47.7568L11.4695 48.3742L36.3009 36.8497Z" fill="white"/>
<path d="M38.0608 35.9751L36.8696 35.3577L61.701 23.816L62.8922 24.4334L38.0608 35.9751Z" fill="white"/>
<path d="M88.5838 11.4513L89.775 12.0687L64.9436 23.6102L63.7524 22.9929L88.5838 11.4513Z" fill="white"/>
<path d="M63.9182 46.522L65.1094 47.1394L89.9407 35.5978L88.7496 34.9805L63.9182 46.522Z" fill="white"/>
<path d="M35.2747 59.7444L36.4659 60.3618L11.6345 71.9033L10.4434 71.2859L35.2747 59.7444Z" fill="white"/>
<path opacity="0.28" d="M25.5069 76.3279C25.5069 77.0997 24.8288 78.0429 24.0042 78.4373C23.1795 78.8318 22.5015 78.5059 22.5015 77.7342C22.5015 76.9625 23.1795 76.0192 24.0042 75.6248C24.8288 75.2303 25.5069 75.5562 25.5069 76.3279Z" fill="#33B3C4"/>
<path d="M23.2715 77.0653L26.1853 78.42L27.5048 76.6708L24.5909 75.316L23.2715 77.0653Z" fill="#0F6B93"/>
<path d="M27.2115 76.2593C27.2115 77.031 26.5334 77.9743 25.7088 78.3687C25.4889 78.4716 24.9208 78.6088 24.9208 78.6088L24.5543 78.403C24.3343 78.2658 24.1877 78.0085 24.1877 77.6656C24.1877 76.8938 24.8658 75.9506 25.6905 75.5562C26.0936 75.3676 26.4418 75.3504 26.7167 75.4533L27.1932 75.7106C27.2115 75.7277 27.2115 76.105 27.2115 76.2593Z" fill="#70E2E5"/>
<path d="M27.5774 76.4651C27.5774 77.2369 26.8994 78.1801 26.0747 78.5745C25.2501 78.969 24.572 78.6431 24.572 77.8714C24.572 77.0997 25.2501 76.1564 26.0747 75.762C26.8994 75.3676 27.5774 75.6934 27.5774 76.4651Z" fill="#3DBFC9"/>
<path d="M26.9432 77.7234C27.4851 77.0739 27.5816 76.297 27.1588 75.9881C26.736 75.6791 25.954 75.9552 25.4121 76.6047C24.8702 77.2542 24.7737 78.0311 25.1965 78.3401C25.6193 78.649 26.4013 78.3729 26.9432 77.7234Z" fill="#E9FFFF"/>
<path d="M27.136 77.8596C27.6779 77.2101 27.7744 76.4331 27.3516 76.1242C26.9288 75.8153 26.1468 76.0914 25.6049 76.7409C25.0631 77.3904 24.9665 78.1673 25.3893 78.4763C25.8121 78.7852 26.5942 78.5091 27.136 77.8596Z" fill="#9FEDEB"/>
<path d="M24.8287 75.762C24.8287 76.225 24.4255 76.791 23.9307 77.0311C23.4359 77.2712 23.0327 77.0825 23.0327 76.6023C23.0327 76.1393 23.4359 75.5733 23.9307 75.3332C24.4255 75.1103 24.8287 75.2989 24.8287 75.762Z" fill="#0F6B93"/>
<path opacity="0.28" d="M25.5069 52.833C25.5069 53.6048 24.8288 54.548 24.0042 54.9424C23.1795 55.3369 22.5015 55.011 22.5015 54.2393C22.5015 53.4676 23.1795 52.5244 24.0042 52.1299C24.8288 51.7355 25.5069 52.0442 25.5069 52.833Z" fill="#33B3C4"/>
<path d="M23.2715 53.5534L26.1853 54.9082L27.5048 53.1761L24.5909 51.8041L23.2715 53.5534Z" fill="#0F6B93"/>
<path d="M27.2115 52.7645C27.2115 53.5362 26.5334 54.4795 25.7088 54.8739C25.4889 54.9768 24.9208 55.114 24.9208 55.114L24.5543 54.9082C24.3343 54.771 24.1877 54.5138 24.1877 54.1708C24.1877 53.399 24.8658 52.4558 25.6905 52.0613C26.0936 51.8727 26.4418 51.8555 26.7167 51.9584L27.1932 52.2157C27.2115 52.2328 27.2115 52.6101 27.2115 52.7645Z" fill="#70E2E5"/>
<path d="M27.5774 52.9703C27.5774 53.742 26.8994 54.6852 26.0747 55.0797C25.2501 55.4741 24.572 55.1483 24.572 54.3765C24.572 53.6048 25.2501 52.6616 26.0747 52.2671C26.8994 51.8727 27.5774 52.1985 27.5774 52.9703Z" fill="#3DBFC9"/>
<path d="M27.4131 53.0903C27.4131 53.742 26.8634 54.5137 26.167 54.8396C25.4707 55.1654 24.9209 54.9082 24.9209 54.2565C24.9209 53.6048 25.4707 52.8331 26.167 52.5072C26.8634 52.1814 27.4131 52.4386 27.4131 53.0903Z" fill="#E9FFFF"/>
<path d="M27.1265 54.352C27.6684 53.7025 27.7649 52.9255 27.3421 52.6166C26.9193 52.3077 26.1373 52.5838 25.5954 53.2332C25.0535 53.8827 24.957 54.6597 25.3798 54.9686C25.8026 55.2775 26.5846 55.0014 27.1265 54.352Z" fill="#9FEDEB"/>
<path d="M24.8287 52.2671C24.8287 52.7302 24.4255 53.2961 23.9307 53.5362C23.4359 53.7763 23.0327 53.5876 23.0327 53.1074C23.0327 52.6273 23.4359 52.0785 23.9307 51.8384C24.4255 51.6154 24.8287 51.8041 24.8287 52.2671Z" fill="#0F6B93"/>
<path opacity="0.28" d="M52.7944 40.0566C52.7944 40.8283 52.1164 41.7715 51.2917 42.166C50.4671 42.5604 49.7891 42.2346 49.7891 41.4629C49.7891 40.6911 50.4671 39.748 51.2917 39.3535C52.1164 38.9591 52.7944 39.2849 52.7944 40.0566Z" fill="#33B3C4"/>
<path d="M50.5767 40.777L53.4721 42.1489L54.7916 40.3997L51.8961 39.0277L50.5767 40.777Z" fill="#0F6B93"/>
<path d="M54.5165 39.9881C54.5165 40.7598 53.8384 41.703 53.0137 42.0974C52.7938 42.2003 52.2257 42.3375 52.2257 42.3375L51.8592 42.1317C51.6393 41.9945 51.4927 41.7373 51.4927 41.3943C51.4927 40.6226 52.1707 39.6794 52.9954 39.285C53.3986 39.0963 53.7468 39.0792 54.0217 39.1821L54.4982 39.4393C54.5165 39.4565 54.5165 39.8337 54.5165 39.9881Z" fill="#70E2E5"/>
<path d="M54.8651 40.1939C54.8651 40.9656 54.187 41.9089 53.3623 42.3033C52.5377 42.6977 51.8596 42.3719 51.8596 41.6002C51.8596 40.8284 52.5377 39.8852 53.3623 39.4908C54.2053 39.0963 54.8651 39.4222 54.8651 40.1939Z" fill="#3DBFC9"/>
<path d="M54.7184 40.3139C54.7184 40.9656 54.1686 41.7373 53.4722 42.0631C52.7759 42.389 52.2261 42.1317 52.2261 41.48C52.2261 40.8284 52.7759 40.0567 53.4722 39.7308C54.1686 39.405 54.7184 39.6622 54.7184 40.3139Z" fill="#E9FFFF"/>
<path d="M54.4175 41.584C54.9594 40.9345 55.0559 40.1576 54.6331 39.8487C54.2103 39.5397 53.4283 39.8158 52.8864 40.4653C52.3445 41.1148 52.248 41.8917 52.6708 42.2007C53.0936 42.5096 53.8756 42.2335 54.4175 41.584Z" fill="#9FEDEB"/>
<path d="M52.1348 39.4907C52.1348 39.9538 51.7317 40.5197 51.2368 40.7598C50.742 40.9999 50.3389 40.8113 50.3389 40.3311C50.3389 39.868 50.742 39.3021 51.2368 39.062C51.7317 38.8391 52.1348 39.0277 52.1348 39.4907Z" fill="#0F6B93"/>
<path opacity="0.28" d="M79.9529 27.9149C79.9529 28.6867 79.2749 29.6299 78.4502 30.0244C77.6256 30.4188 76.9475 30.093 76.9475 29.3212C76.9475 28.5495 77.6256 27.6062 78.4502 27.2118C79.2749 26.8173 79.9529 27.126 79.9529 27.9149Z" fill="#33B3C4"/>
<path d="M77.7349 28.6351L80.6304 29.9899L81.9498 28.2578L79.0543 26.8859L77.7349 28.6351Z" fill="#0F6B93"/>
<path d="M81.6751 27.8462C81.6751 28.6179 80.9971 29.5611 80.1724 29.9556C79.9525 30.0585 79.3844 30.1957 79.3844 30.1957L79.0179 29.9899C78.798 29.8527 78.6514 29.5954 78.6514 29.2524C78.6514 28.4807 79.3294 27.5375 80.1541 27.143C80.5572 26.9544 80.9054 26.9372 81.1803 27.0401L81.6568 27.2974C81.6751 27.2974 81.6751 27.6918 81.6751 27.8462Z" fill="#70E2E5"/>
<path d="M82.0232 28.052C82.0232 28.8237 81.3451 29.7669 80.5205 30.1613C79.6959 30.5558 79.0178 30.2299 79.0178 29.4582C79.0178 28.6865 79.6959 27.7433 80.5205 27.3489C81.3635 26.9545 82.0232 27.2803 82.0232 28.052Z" fill="#3DBFC9"/>
<path d="M81.4 29.3166C81.9419 28.6671 82.0384 27.8902 81.6156 27.5813C81.1928 27.2724 80.4108 27.5485 79.8689 28.1979C79.327 28.8474 79.2304 29.6243 79.6533 29.9332C80.0761 30.2421 80.8581 29.9661 81.4 29.3166Z" fill="#E9FFFF"/>
<path d="M81.5786 29.4433C82.1205 28.7938 82.217 28.0168 81.7942 27.7079C81.3714 27.399 80.5894 27.6751 80.0475 28.3246C79.5057 28.974 79.4091 29.751 79.8319 30.0599C80.2547 30.3688 81.0367 30.0928 81.5786 29.4433Z" fill="#9FEDEB"/>
<path d="M79.2932 27.3489C79.2932 27.8119 78.89 28.3779 78.3952 28.618C77.9005 28.8581 77.4973 28.6694 77.4973 28.1892C77.4973 27.7262 77.9005 27.1603 78.3952 26.9202C78.89 26.6972 79.2932 26.8859 79.2932 27.3489Z" fill="#0F6B93"/>
<g opacity="0.35">
<path opacity="0.35" d="M9.802 103.527C10.0769 103.51 10.3884 103.424 10.7 103.27L34.6334 92.0884V84.4741L9.802 96.0157V103.527Z" fill="#33B3C4"/>
<path opacity="0.35" d="M63.2761 78.7289L88.1075 67.1358V59.7272L63.2761 71.2688V78.7289Z" fill="#33B3C4"/>
<path opacity="0.35" d="M61.2242 79.6893V72.092L36.3928 83.6337V91.2823L61.2242 79.6893Z" fill="#33B3C4"/>
</g>
<path d="M10.4431 94.798V103.373C10.5347 103.338 10.608 103.321 10.6997 103.287L29.4286 94.5407L35.2928 87.5094V83.2735L10.4431 94.798Z" fill="#33B3C4"/>
<path d="M63.917 78.42L88.2536 67.0671C88.4369 66.9814 88.6018 66.8785 88.7667 66.7756V58.5095L63.9353 70.0511V78.42H63.917Z" fill="#33B3C4"/>
<path d="M61.8842 79.3805V70.8744L37.0527 82.416V90.9736L61.8842 79.3805Z" fill="#33B3C4"/>
<path d="M36.4656 91.248V83.8737L11.6343 95.4154V102.841L36.4656 91.248Z" fill="#D9FDFF"/>
<path d="M89.9398 59.127L65.1084 70.6686V77.8713L88.2355 67.0672C88.8952 66.7585 89.4999 66.2268 89.9398 65.6095V59.127Z" fill="#D9FDFF"/>
<path d="M63.0751 78.8147V71.4918L38.2437 83.0334V90.4077L63.0751 78.8147Z" fill="#D9FDFF"/>
<path d="M36.4656 83.908L35.2745 83.2563L10.4431 94.7979L11.6343 95.4153L36.4656 83.908Z" fill="white"/>
<path d="M38.2439 83.0333L37.0527 82.4159L61.8841 70.8744L63.0753 71.4918L38.2439 83.0333Z" fill="white"/>
<path d="M88.7483 58.5095L89.9395 59.1269L65.1082 70.6514L63.917 70.0511L88.7483 58.5095Z" fill="white"/>
<path opacity="0.18" d="M36.9981 95.2954L36.9797 70.1199L55.3972 85.8803L54.096 87.3037L36.9981 95.2954Z" fill="#00638E"/>
<path opacity="0.37" d="M61.9944 83.6166L36.9797 95.2954L40.1684 96.7874L41.4329 96.2043L46.5091 98.5538L46.4908 99.6343L47.6637 99.0855L52.7032 101.486V102.55L53.9127 102.001L59.0073 104.368V105.431L60.1435 104.899L65.2564 107.266L65.2381 108.346L65.5862 108.192L66.2276 108.483V107.9L66.4109 107.797L68.61 108.826L93.4414 97.2848L61.9944 83.6166Z" fill="#00638E"/>
<path d="M37.0347 79.3291L47.0589 60.8934L94.7059 83.2563L69.8745 94.7979L37.0347 79.3291Z" fill="#3DBFC9"/>
<path d="M53.6196 63.9802L91.9387 81.73V69.4166L53.6196 51.6669V63.9802Z" fill="white"/>
<path d="M53.1431 64.3576L90.381 81.7301V69.4167L53.1431 52.0442V64.3576Z" fill="#33B3C4"/>
<path opacity="0.26" d="M61.188 68.1133L43.5769 76.8596L52.8864 51.6155H61.188V68.1133Z" fill="#0F6B93"/>
<path opacity="0.31" d="M59.1729 67.2215L40.9938 75.8649L40.2241 57.8579L59.1729 51.6155V67.2215Z" fill="#0F6B93"/>
<path opacity="0.55" d="M57.9077 66.6213L40.8098 74.5443L52.7032 51.6155H57.9077V66.6213Z" fill="#0F6B93"/>
<path opacity="0.55" d="M56.7712 66.0553L39.4167 73.9784L52.7029 51.6155H56.7712V66.0553Z" fill="#0F6B93"/>
<path opacity="0.55" d="M55.9282 65.8324L39.4167 73.4297L52.7029 51.6155H55.9282V65.8324Z" fill="#0F6B93"/>
<path opacity="0.55" d="M55.3055 65.3694L39.0688 73.4297L52.7033 51.6155H55.3055V65.3694Z" fill="#0F6B93"/>
<path opacity="0.94" d="M54.8842 65.0435L38.2627 73.1724L43.5772 56.1086L54.7376 51.6155L54.8842 65.0435Z" fill="#0F6B93"/>
<path d="M37.0535 77.7684L55.0493 68.5077V51.4611L37.0535 59.83V77.7684Z" fill="#33B3C4"/>
<path d="M37.0532 77.8371L56.0387 69.0223V51.9756L37.0532 60.8076V77.8371Z" fill="#229AAA"/>
<path d="M37.0535 60.8076L56.0389 51.9755L55.0493 51.4611L37.0535 59.8301V60.8076Z" fill="#33B3C4"/>
<path d="M57.9085 69.2966L38.2633 79.3977L37.2737 78.8832V61.8537L57.9085 52.25V69.2966Z" fill="#229AAA"/>
<path d="M58.8976 69.794L38.2627 79.3977V62.3511L58.8976 52.7645V69.794Z" fill="#33B3C4"/>
<path d="M57.9085 52.25L58.8981 52.7645L38.2633 62.3511L37.2737 61.8537L57.9085 52.25Z" fill="#58CDD6"/>
<path d="M59.5204 70.4971L39.8568 80.6154L38.8672 80.1009V63.0542L59.5204 53.4504V70.4971Z" fill="#229AAA"/>
<path d="M60.51 71.0116L39.8569 80.6154V63.5687L60.51 53.965V71.0116Z" fill="#58CDD6"/>
<path d="M59.5204 53.4504L60.5099 53.9649L39.8568 63.5687L38.8672 63.0542L59.5204 53.4504Z" fill="#80E5E8"/>
<path d="M62.2507 71.0973L42.5872 81.2156L41.5977 80.7011V63.6544L62.2507 54.0507V71.0973Z" fill="#33B3C4"/>
<path d="M63.2401 71.6118L42.5869 81.2156V64.1689L63.2401 54.5652V71.6118Z" fill="#80E5E8"/>
<path d="M62.2508 54.0507L63.2404 54.5651L42.5872 64.1689L41.5977 63.6545L62.2508 54.0507Z" fill="#9AF4F4"/>
<path d="M63.7537 71.9719L44.0902 82.073L43.1006 81.5757V64.529L63.7537 54.9253V71.9719Z" fill="#33B3C4"/>
<path d="M64.7432 72.4865L44.0901 82.0731V65.0436L64.7432 55.4398V72.4865Z" fill="#9AF4F4"/>
<path d="M63.7537 54.9253L64.7433 55.4398L44.0902 65.0436L43.1006 64.5291L63.7537 54.9253Z" fill="#B6FFFD"/>
<path d="M65.7698 73.361L46.1063 83.4792L45.1167 82.9648V65.9182L65.7698 56.3145V73.361Z" fill="#33B3C4"/>
<path d="M66.7588 73.8755L46.1057 83.4792V66.4327L66.7588 56.829V73.8755Z" fill="#B6FFFD"/>
<path d="M65.7698 56.3145L66.7594 56.8289L46.1063 66.4326L45.1167 65.9181L65.7698 56.3145Z" fill="#D4FFFD"/>
<path d="M68.0417 73.6182L48.3966 83.7365L47.407 83.222V66.1754L68.0417 56.5717V73.6182Z" fill="#58CDD6"/>
<path d="M69.05 74.1328L48.397 83.7366V66.6899L69.05 57.0862V74.1328Z" fill="#CAFFFC"/>
<path d="M68.0418 56.5717L69.0497 57.0861L48.3966 66.6899L47.407 66.1755L68.0418 56.5717Z" fill="#E9FFFD"/>
<path d="M70.2039 74.6644L50.5404 84.7655L49.5508 84.251V67.2044L70.2039 57.6178V74.6644Z" fill="#80E5E8"/>
<path d="M71.1931 75.1618L50.54 84.7655V67.7189L71.1931 58.1323V75.1618Z" fill="#D9FDFF"/>
<path d="M70.2039 57.6178L71.1935 58.1323L50.5404 67.7189L49.5508 67.2044L70.2039 57.6178Z" fill="#F5FFFE"/>
<path d="M71.9817 76.1564L52.3182 86.2747L51.3286 85.7602V68.7135L71.9817 59.127V76.1564Z" fill="#91EDED"/>
<path d="M72.9709 76.6709L52.3179 86.2747V69.228L72.9709 59.6243V76.6709Z" fill="#D9FDFF"/>
<path d="M71.9817 59.127L72.9713 59.6243L52.3182 69.228L51.3286 68.7135L71.9817 59.127Z" fill="white"/>
<path d="M73.5762 76.8939L53.9127 86.995L52.9231 86.4977V69.451L73.5762 59.8473V76.8939Z" fill="#9EEFED"/>
<path d="M74.5663 77.4084L53.9131 86.995V69.9655L74.5663 60.3617V77.4084Z" fill="#D9FDFF"/>
<path d="M73.5761 59.8473L74.5657 60.3618L53.9127 69.9655L52.9231 69.451L73.5761 59.8473Z" fill="white"/>
<path d="M75.7018 76.4137L56.0382 86.5319L55.0486 86.0174V68.9708L75.7018 59.3671V76.4137Z" fill="#A9FCFA"/>
<path d="M76.6907 76.9282L56.0376 86.5319V69.4853L76.6907 59.8816V76.9282Z" fill="#E3FFFF"/>
<path d="M75.7017 59.3671L76.6913 59.8815L56.0382 69.4852L55.0486 68.9707L75.7017 59.3671Z" fill="white"/>
<path d="M88.5668 52.8331L88.3652 52.0956L87.5405 51.3411C87.5405 51.3411 86.8442 52.4558 86.6059 52.7473L85.598 52.9874C85.3597 53.7077 85.8179 54.6852 85.8179 54.6852L88.4019 56.5031L90.0146 56.04L90.1979 55.9028L90.5094 55.4569L89.5198 54.3422L89.7397 53.9135L88.5668 52.8331Z" fill="#FBB686"/>
<path d="M86.2388 52.936L85.2309 54.0508L84.6445 53.1761L87.2284 50.3464L87.5766 50.8438L88.2729 51.5984L86.2388 52.936Z" fill="white"/>
<path d="M84.9382 54.1194L79.9169 48.1342C79.9169 48.1342 79.8436 47.1566 79.7153 46.3335C80.2101 44.6871 82.4642 33.4541 82.4642 33.4541L82.9407 35.1519C82.9407 35.1519 83.1423 36.3524 83.1789 36.884C83.2889 37.8959 83.2706 38.9934 83.3255 40.0396C83.3255 40.8284 83.4721 44.7728 83.4721 44.7728L87.8704 50.981L85.3047 52.9189C85.2864 52.9018 84.8832 54.0165 84.9382 54.1194Z" fill="#002756"/>
<path d="M82.3539 79.6892L80.2465 78.1457L79.0004 76.8252H78.982C78.982 76.8252 75.6468 76.5165 74.6389 77.4083C74.6938 77.8199 74.4922 78.9689 74.5289 79.209C74.6389 79.2776 77.7909 80.6153 78.0291 80.7353C78.2124 80.8382 80.6313 81.9358 80.6313 81.9358L82.5005 80.5467L82.3539 79.6892Z" fill="#002B6A"/>
<path d="M71.3587 83.0506L69.4528 81.6615C69.4528 81.6615 68.6831 80.5811 68.5732 80.3753C68.5732 80.3753 68.5732 80.3581 68.5548 80.3581C68.3349 80.0323 63.9551 79.6379 63.2037 80.4953C63.2037 80.5125 63.1487 81.7472 63.1671 81.9873C63.387 82.176 63.7901 82.4504 64.2666 82.7762C64.3582 82.5704 64.5965 82.7248 64.7797 82.8277C65.0729 82.9992 65.1829 83.4622 65.2745 83.7366C66.7223 84.6626 69.2146 85.2629 69.2146 85.2629C69.6544 85.2457 71.4136 84.0281 71.4136 84.0281L71.3587 83.0506Z" fill="#002B6A"/>
<path d="M77.9923 53.2104C77.9923 52.6788 77.9739 52.1643 77.9556 51.6669C77.9556 51.6155 65.2009 54.4966 65.0909 54.428C65.0359 54.8053 64.981 55.1826 64.9443 55.5427C64.926 56.0572 65.0176 58.4924 65.0176 58.4924C65.0176 58.4924 65.3108 66.4498 65.2925 68.2162L63.2217 80.2552L65.2192 81.5414L69.5441 81.4042L71.34 69.2623L72.073 60.3789L75.0052 68.6621C75.0052 68.6621 74.5104 76.6881 74.602 77.2197C74.6386 77.2712 77.6074 78.0772 77.6074 78.0772L79.495 78.0086L80.6495 66.2955C80.6678 66.2955 77.9923 53.6391 77.9923 53.2104Z" fill="#002B6A"/>
<path d="M78.7251 50.1921C78.7251 50.1921 79.2932 47.7397 79.7331 46.3163C80.2279 44.6699 82.9401 37.6729 82.9401 37.6729L82.4819 33.4199L79.055 31.9965L72.1095 32.6481L68.7559 34.9119L66.9234 45.5103L64.8525 54.3423L67.8396 55.7485L78.157 54.4966L78.7251 50.1921Z" fill="#002B6A"/>
<path d="M77.6445 42.4062C77.9744 41.463 78.799 40.6741 78.9273 39.6623C78.9456 39.5765 78.964 39.4736 78.964 39.3879C79.1106 38.2217 79.1656 37.0555 79.0373 35.8722C79.019 35.5464 78.9273 35.1348 78.7807 34.7575C78.7441 34.6718 78.7257 34.6032 78.6891 34.5174C78.4692 34.0201 78.1576 33.557 77.7545 33.3855C78.066 33.3684 78.4875 33.2826 78.8174 33.1626C79.0556 33.3684 79.9902 34.7061 79.9902 34.7061L79.4954 35.5635L80.595 36.3353L80.485 38.0845C80.485 38.0845 77.3696 44.5842 77.0764 45.0129C77.3147 44.6356 77.0764 43.7953 77.3146 43.3837C77.4796 43.0922 77.5529 42.6977 77.6445 42.4062Z" fill="#11487F"/>
<path d="M73.356 34.3974C73.5392 34.7918 73.7958 35.1863 73.9974 35.4607C74.144 35.6322 74.2906 35.8208 74.4189 35.9751C75.0236 36.6954 75.5917 37.33 76.0498 38.1874C76.6546 39.3193 77.0578 40.6398 77.2044 41.8917C77.2044 41.9432 77.2227 41.9946 77.2227 42.0461C77.2593 42.5777 77.1677 43.1608 77.0394 43.7267C76.9478 44.0869 76.9112 44.8414 76.9112 44.8414L76.8562 43.7953C76.7096 42.3205 75.4084 40.1768 75.4084 40.1768L73.1177 38.2217L73.4659 37.0213L72.3847 36.8841L72.1098 35.495C72.1098 35.495 71.6883 33.317 72.0732 32.6481C72.1281 32.6139 73.1361 31.6706 73.6125 31.3619C73.5759 31.5334 73.5575 31.7221 73.5392 31.9107C73.5026 32.2709 73.4476 32.6138 73.4109 32.974C73.3926 32.9225 73.3743 32.8711 73.3743 32.8196H73.356C73.0444 33.2827 73.1361 33.8486 73.356 34.3974Z" fill="#11487F"/>
<path d="M78.9265 39.6623C78.9448 39.5765 78.9631 39.4736 78.9631 39.3879C79.1097 38.2217 79.0364 35.8722 79.0364 35.8722C79.0364 35.8722 78.9265 35.1348 78.7799 34.7403C78.4317 34.4488 73.6487 34.7232 73.3555 34.3973C73.5387 34.7918 73.9969 35.4606 73.9969 35.4606L74.4184 35.9751L76.0493 38.1874C76.0493 38.1874 77.0573 40.6398 77.2039 41.8917C77.2039 41.9432 77.662 42.8521 77.662 42.9036C77.8819 42.0632 78.4683 41.0514 78.9265 39.6623Z" fill="#DCFFFF"/>
<path d="M78.9277 39.062L78.378 36.3353L78.3413 36.2324L78.4146 35.1691C78.4146 35.1691 78.1764 34.8947 78.0664 34.7746C77.9015 34.6031 77.3884 34.4316 77.3884 34.4316C77.2235 34.6717 77.0402 34.929 76.8753 35.2205C76.857 35.2548 76.8386 35.272 76.8203 35.3063C77.0402 35.6836 77.3701 36.1123 77.7183 36.4039C77.7916 37.3642 77.7732 39.405 77.7732 39.405L77.2051 41.9432L76.8936 45.5275C76.9303 45.3731 78.8361 40.2625 78.8361 40.2625L78.9277 39.062Z" fill="#FF5252"/>
<path d="M73.4478 32.9911C74.0158 34.5003 77.1862 34.9119 77.4611 33.9515L77.5527 32.871C77.626 33.1283 78.469 34.0029 78.6889 34.5174C78.7255 34.6032 78.7439 34.6718 78.7805 34.7575C78.7622 34.9633 78.5606 35.3406 78.5606 35.3406L78.414 35.1863L78.0658 34.7918L77.3878 34.4488C77.2228 34.6889 76.5265 35.9923 76.5265 35.9923H76.5081L74.474 35.272C74.474 35.272 73.6493 34.7575 73.3744 34.4145C73.1362 33.8657 73.0446 33.2998 73.4111 32.8539H73.4294C73.4111 32.8882 73.4294 32.9396 73.4478 32.9911Z" fill="white"/>
<path d="M77.6448 33.1454C77.6814 33.1626 77.3882 34.363 77.3699 34.4316C77.2599 34.8432 73.9795 34.8775 73.3564 33.0425C73.3931 32.6824 73.6863 30.9332 73.7046 30.7617C73.7963 30.796 73.9062 30.796 74.0345 30.7445C74.2911 31.0189 77.4065 33.1111 77.6448 33.1454Z" fill="#F89C69"/>
<path d="M79.8439 26.8859C79.459 27.2117 78.4145 27.2117 77.883 27.2975C77.1317 27.4175 75.1525 27.8634 75.1525 27.8634C75.1158 28.2578 74.9876 28.5665 74.8593 28.9953C74.731 29.4926 74.4011 29.8185 74.5111 30.9161C74.2912 30.7274 74.0713 30.5559 73.8697 30.3501C73.833 29.9214 73.7964 29.4755 73.7597 29.2354C73.5582 28.9953 72.8434 29.0467 73.0084 29.6298C73.1367 30.0929 73.1916 31.1047 73.6498 31.2419C73.7414 31.2762 73.8514 31.2591 73.9796 31.2076C74.0529 31.5163 74.676 32.0994 74.676 32.0994C74.676 32.0994 77.2966 33.5743 77.5532 33.5914C77.5898 33.5914 78.9276 33.2827 78.9276 33.2827L79.8439 29.3726C79.8072 29.3726 79.8622 27.0745 79.8439 26.8859Z" fill="#FBB686"/>
<path d="M75.1522 27.8806C75.1156 28.275 74.9873 28.5837 74.859 29.0125C74.7307 29.5098 74.4009 29.8356 74.5108 30.9332C74.2909 30.7446 74.071 30.5731 73.8694 30.3673C73.8328 29.9385 73.7961 29.4926 73.7595 29.2525C73.5395 29.0125 72.8432 29.0639 73.0081 29.647C73.1364 30.11 73.1913 31.1218 73.6495 31.259C73.6495 31.4305 73.6312 31.7907 73.6312 31.7907L73.1547 31.5163L72.8981 30.796C72.2751 29.5098 71.5054 27.0231 71.5054 27.0231L71.707 24.8108C71.652 24.8108 73.7961 27.2632 75.1522 27.8806Z" fill="#11487F"/>
<path d="M75.6832 28.0521C75.6832 28.0521 75.2068 27.8977 75.1518 27.8806C73.814 27.2632 72.6595 25.9084 71.6516 24.8108C71.9998 24.3135 73.0627 23.5932 73.0627 23.5932C73.5575 23.3016 76.2697 23.0958 77.021 23.3359C77.3325 23.456 78.4321 23.9362 78.652 24.0048C78.542 23.9705 80.5762 24.5707 80.6128 24.5879C80.6128 24.5879 80.8327 25.9084 80.3929 26.4743C80.2646 26.6287 79.6599 27.246 79.6599 27.246C79.6599 27.246 76.5079 28.2236 75.6832 28.0521Z" fill="#002B6A"/>
<path d="M67.0702 34.6545L65.9157 39.062L63.9182 48.3571L71.9815 53.8964L72.8978 46.1105L70.4421 39.2506L71.3767 33.1454L67.0702 34.6545Z" fill="#002B6A"/>
<path d="M37.0347 78.9346L69.5629 94.0433V81.73L37.0347 66.6213V78.9346Z" fill="white"/>
<path d="M37.053 79.3806L69.5629 94.6265V82.3131L37.0347 67.2216L37.053 79.3806Z" fill="#33B3C4"/>
<path d="M93.5152 82.6561L69.875 94.8152L68.6838 94.1978V73.7041L93.5152 62.1796V82.6561Z" fill="#33B3C4"/>
<path d="M94.7064 83.2734L69.875 94.8151V74.3214L94.7064 62.7798V83.2734Z" fill="#D9FDFF"/>
<path d="M93.5152 62.1796L94.7064 62.7798L69.875 74.3214L68.6838 73.704L93.5152 62.1796Z" fill="white"/>
<path opacity="0.28" d="M84.2779 81.9702C84.2779 82.7419 83.5998 83.6852 82.7752 84.0796C81.9505 84.4741 81.2725 84.1482 81.2725 83.3765C81.2725 82.6047 81.9505 81.6615 82.7752 81.2671C83.5998 80.8726 84.2779 81.1985 84.2779 81.9702Z" fill="#33B3C4"/>
<path d="M82.0425 82.7076L84.9562 84.0624L86.2756 82.3132L83.3619 80.9584L82.0425 82.7076Z" fill="#0F6B93"/>
<path d="M85.9827 81.9015C85.9827 82.6733 85.3046 83.6165 84.48 84.0109C84.2601 84.1138 83.692 84.251 83.692 84.251L83.3255 84.0452C83.1056 83.908 82.959 83.6508 82.959 83.3078C82.959 82.5361 83.637 81.5929 84.4617 81.1984C84.8648 81.0098 85.213 80.9926 85.4879 81.0955L85.9643 81.3528C85.9827 81.3699 85.9827 81.7472 85.9827 81.9015Z" fill="#70E2E5"/>
<path d="M86.3484 82.1074C86.3484 82.8791 85.6704 83.8223 84.8457 84.2168C84.0211 84.6112 83.343 84.2854 83.343 83.5136C83.343 82.7419 84.0211 81.7987 84.8457 81.4043C85.6704 81.027 86.3484 81.3357 86.3484 82.1074Z" fill="#3DBFC9"/>
<path d="M86.2019 82.2275C86.2019 82.8791 85.6521 83.6509 84.9557 83.9767C84.2593 84.3025 83.7095 84.0453 83.7095 83.3936C83.7095 82.7419 84.2593 81.9702 84.9557 81.6444C85.6338 81.3185 86.2019 81.5929 86.2019 82.2275Z" fill="#E9FFFF"/>
<path d="M86.3849 82.3646C86.3849 83.0163 85.8351 83.788 85.1387 84.1139C84.4424 84.4397 83.8926 84.1825 83.8926 83.5308C83.8926 82.8791 84.4424 82.1073 85.1387 81.7815C85.8168 81.4556 86.3849 81.7129 86.3849 82.3646Z" fill="#9FEDEB"/>
<path d="M83.5997 81.4042C83.5997 81.8672 83.1965 82.4332 82.7017 82.6733C82.2069 82.9134 81.8037 82.7247 81.8037 82.2445C81.8037 81.7815 82.2069 81.2156 82.7017 80.9755C83.1965 80.7525 83.5997 80.9412 83.5997 81.4042Z" fill="#0F6B93"/>
<path d="M100.533 31.4477L100.221 31.2076L91.6449 33.2827L90.0506 35.5293L71.9998 40.2454L73.9056 65.1294L74.2172 65.3695L103.3 55.217L100.533 31.4477Z" fill="#FF815A"/>
<path d="M102.109 39.8337L100.533 31.4476L91.9565 33.5227L90.3621 35.7693L72.293 40.4854L74.2172 65.3694L103.612 55.457L102.109 39.8337Z" fill="#D84021"/>
<path d="M101.871 41.1715C101.926 40.8628 101.211 35.7351 101.211 35.7351L74.3274 42.0804L74.6939 60.8248L101.871 41.1715Z" fill="#B3E8E8"/>
<path d="M102.988 39.2679C103.043 38.9592 102.328 33.8315 102.328 33.8315L75.4446 40.1769L75.8111 58.9213L102.988 39.2679Z" fill="#D2FFFF"/>
<path d="M104.839 41.1029C104.839 40.7942 104.839 36.4553 104.839 36.4553L78.0654 38.4104V48.7516L104.839 41.1029Z" fill="#EBFFFE"/>
<path d="M103.336 43.7268C103.336 43.4181 103.336 39.0792 103.336 39.0792L76.5625 41.0343V51.3755L103.336 43.7268Z" fill="white"/>
<path d="M105.664 37.4844L106.141 37.8274L103.117 55.0969L74.6938 65.7124L74.2173 65.3694L76.7462 44.0698L95.3468 38.9935L96.8129 39.9025L105.664 37.4844Z" fill="#D84021"/>
<path d="M106.141 37.8273L103.612 55.4571L74.6938 65.7125L77.2411 44.4127L95.8235 39.3536L97.3079 40.2625L106.141 37.8273Z" fill="#FF815A"/>
<path d="M95.823 39.3537L95.3465 38.9935L76.7458 44.0697L77.2406 44.4127L95.823 39.3537Z" fill="#FFBF8F"/>
<path d="M72.2927 40.4856L71.9995 40.2455L73.9053 65.1294L74.2169 65.3695L72.2927 40.4856Z" fill="#99291D"/>
<path d="M91.9557 33.5228L91.6442 33.2827L89.9399 35.5979L90.3614 35.7694L91.9557 33.5228Z" fill="#99291D"/>
<path d="M96.8123 39.9024L97.3071 40.2626L106.14 37.8274L105.664 37.4844L96.8123 39.9024Z" fill="#FFBF8F"/>
<path d="M78.927 59.6587L79.3851 58.3725L79.2752 57.8408L78.5971 57.9437L77.1311 57.2063L75.7017 57.6007L74.7304 58.9213L74.1624 59.5043L76.5263 60.499L78.927 59.6587Z" fill="#FFBB8D"/>
<path d="M75.9761 57.3778L74.2169 59.8988L73.4656 59.4186L75.2248 56.709C75.9761 57.3778 75.9761 57.3778 75.9761 57.3778Z" fill="white"/>
<path d="M64.321 50.5523C64.321 50.5523 73.6123 59.8817 73.7772 59.7445C73.9421 59.6073 75.6281 56.8462 75.6281 56.8462L69.3057 49.5919L64.321 50.5523Z" fill="#002B6A"/>
</svg>
