<svg width="200" height="252" viewBox="0 0 200 252" fill="none" xmlns="http://www.w3.org/2000/svg">
<path d="M132.643 196.972L193.23 166.642C194.015 166.26 194.455 165.702 194.455 165.144C194.455 164.645 194.109 164.205 193.513 163.911L132.36 133.288C131.168 132.7 129.19 132.759 127.809 133.435L67.2527 163.764C66.4679 164.146 66.0284 164.704 66.0284 165.262C66.0284 165.761 66.3737 166.201 66.9702 166.495L128.123 197.118C128.656 197.383 129.378 197.529 130.132 197.529C131.011 197.529 131.921 197.324 132.643 196.972ZM67.4097 165.82C67.1899 165.702 66.9388 165.526 66.9388 165.262C66.9388 164.997 67.2213 164.704 67.7236 164.44L128.279 134.139C129.347 133.611 131.011 133.552 131.89 133.992L193.073 164.616C193.293 164.733 193.544 164.909 193.544 165.174C193.544 165.438 193.262 165.732 192.759 165.996L132.204 196.326C131.136 196.854 129.472 196.913 128.593 196.472L67.4097 165.82Z" fill="white"/>
<path opacity="0.49" d="M90.8994 235.912L60.1564 220.471C59.6585 220.238 59.3785 220.179 59.0984 220.179C58.725 220.179 58.3516 220.267 58.0404 220.413L27.6086 235.707C27.3596 235.824 27.2352 235.97 27.2352 236.116C27.2352 236.233 27.3596 236.32 27.4841 236.379L58.2271 251.819C58.6628 252.052 59.5029 252.023 60.0319 251.731L90.4638 236.437C90.7127 236.32 90.8372 236.174 90.8372 236.028C90.8683 235.912 90.7127 235.795 90.8994 235.912Z" fill="white"/>
<path opacity="0.84" d="M103.632 219.219L72.889 203.779C72.3912 203.546 72.1111 203.487 71.8311 203.487C71.4577 203.487 71.0843 203.575 70.7731 203.721L40.3412 219.015C40.0923 219.132 39.9678 219.278 39.9678 219.424C39.9678 219.54 40.0923 219.628 40.2168 219.686L70.9598 235.126C71.3954 235.36 72.2356 235.331 72.7646 235.039L103.196 219.745C103.445 219.628 103.57 219.482 103.57 219.336C103.57 219.219 103.445 219.132 103.632 219.219Z" fill="white"/>
<path d="M99.3877 174.32L70.2914 160.029C69.8195 159.798 69.5679 159.769 69.2848 159.769C68.9388 159.769 68.5613 159.827 68.3097 159.971L39.4964 174.118C39.2762 174.234 39.119 174.378 39.119 174.493C39.119 174.609 39.2448 174.695 39.3391 174.753L68.4355 189.044C68.8759 189.246 69.6623 189.218 70.1655 188.987L98.9788 174.84C99.199 174.724 99.3562 174.58 99.3562 174.465C99.3562 174.32 99.2304 174.234 99.3877 174.32Z" fill="#7DD2DB"/>
<path opacity="0.63" d="M139.284 214.527L122.487 206.022C122.233 205.872 122.073 205.872 121.914 205.872C121.724 205.872 121.501 205.902 121.342 205.992L104.704 214.407C104.576 214.467 104.481 214.557 104.481 214.617C104.481 214.677 104.545 214.737 104.608 214.767L121.405 223.272C121.66 223.393 122.105 223.392 122.392 223.242L139.03 214.828C139.157 214.767 139.252 214.677 139.252 214.617C139.252 214.527 139.189 214.467 139.284 214.527Z" fill="white"/>
<path opacity="0.33" d="M152.866 177.435L105.754 153.851C104.999 153.469 104.591 153.41 104.119 153.41C103.554 153.41 102.957 153.528 102.517 153.763L55.8445 177.112C55.4673 177.289 55.2473 177.523 55.2473 177.729C55.2473 177.905 55.4359 178.052 55.593 178.14L102.768 201.666C103.459 202.018 104.717 201.96 105.534 201.549L152.206 178.199C152.583 178.023 152.803 177.788 152.803 177.582C152.771 177.406 152.583 177.289 152.866 177.435Z" fill="white"/>
<path opacity="0.33" d="M122.307 119.073L88.2887 102.066C87.7547 101.802 87.4406 101.744 87.1265 101.744C86.7181 101.744 86.3098 101.832 85.9643 101.978L52.2601 118.809C52.0089 118.956 51.8518 119.103 51.8518 119.249C51.8518 119.396 52.0089 119.484 52.1031 119.542L86.1213 136.549C86.6239 136.813 87.5348 136.755 88.1316 136.461L121.836 119.63C122.087 119.484 122.244 119.337 122.244 119.19C122.244 119.073 122.118 118.985 122.307 119.073Z" fill="white"/>
<path opacity="0.52" d="M84.852 167.97L68.8343 159.86C68.7378 159.8 68.577 159.769 68.4483 159.769C68.2553 159.769 68.0624 159.8 67.9015 159.891L52.0447 167.91C51.916 167.97 51.8517 168.062 51.8517 168.122C51.8517 168.183 51.916 168.244 51.9803 168.274L67.9659 176.384C68.191 176.506 68.6413 176.475 68.8986 176.354L84.7555 168.335C84.8842 168.274 84.9485 168.183 84.9485 168.122C84.9806 168.062 84.9163 168.001 84.852 167.97Z" fill="white"/>
<path opacity="0.45" d="M111.178 144.53L97.6392 137.573C97.5458 137.513 97.4213 137.513 97.2968 137.513C97.1412 137.513 96.9544 137.543 96.8299 137.602L83.4153 144.5C83.3219 144.56 83.2596 144.62 83.2596 144.68C83.2596 144.739 83.3219 144.769 83.353 144.799L96.8922 151.757C97.0789 151.846 97.4524 151.846 97.7014 151.727L111.116 144.829C111.209 144.769 111.272 144.709 111.272 144.65C111.272 144.59 111.241 144.56 111.178 144.53Z" fill="white"/>
<path opacity="0.91" d="M173.994 209.71L160.455 202.752C160.361 202.692 160.237 202.692 160.112 202.692C159.957 202.692 159.77 202.722 159.645 202.782L146.231 209.68C146.137 209.74 146.075 209.799 146.075 209.859C146.075 209.919 146.137 209.949 146.168 209.978L159.708 216.936C159.894 217.026 160.268 217.026 160.517 216.906L173.932 210.008C174.025 209.949 174.087 209.889 174.087 209.829C174.087 209.769 174.056 209.71 173.994 209.71Z" fill="white"/>
<path d="M20.1179 235.282C19.7723 235.282 19.4267 235.194 19.1125 235.046L0.920471 225.899L1.17183 225.545L19.3638 234.692C19.8351 234.928 20.4321 234.928 20.9034 234.692L102.123 193.854C102.249 193.795 102.312 193.795 102.312 193.707C102.312 193.589 102.249 193.382 102.123 193.323L83.5543 183.969L83.8057 183.615L102.375 192.969C102.626 193.117 102.783 193.353 102.783 193.618C102.783 193.884 102.626 194.12 102.375 194.267L21.1548 235.105C20.8406 235.223 20.4949 235.282 20.1179 235.282Z" fill="white"/>
<path opacity="0.23" d="M73.0732 159.179L7.33236 189.974L3.4671 188.151L69.2394 157.385L73.0732 159.179Z" fill="#00638E"/>
<path d="M7.16857 179.12V131.174C7.16857 130.322 7.92198 129.295 8.83236 128.854L71.8054 99.5519C72.2449 99.3464 72.653 99.317 72.9355 99.4345L70.173 98.1719C69.8591 98.0251 69.451 98.0251 68.9801 98.26L6.00705 127.562C5.09667 128.003 4.34326 129.03 4.34326 129.882V177.858C4.34326 178.269 4.50023 178.533 4.78276 178.68L4.81415 178.709C4.81415 178.709 4.84555 178.709 4.84555 178.738L7.63946 180.001C7.35693 179.854 7.16857 179.561 7.16857 179.12Z" fill="#168CA8"/>
<path d="M73.4702 100.345C73.4702 99.9335 73.3133 99.6693 73.0307 99.5225C72.9993 99.4931 72.9679 99.4931 72.9679 99.4931C72.6854 99.3757 72.2773 99.4051 71.8378 99.6106L8.86472 128.913C7.95434 129.353 7.20093 130.381 7.20093 131.232V179.12C7.20093 179.531 7.38928 179.825 7.67181 179.971C7.67181 179.971 7.70319 179.971 7.70319 180.001H7.73458C8.01711 180.118 8.42522 180.089 8.83331 179.883L71.8064 150.581C72.7168 150.141 73.4702 149.113 73.4702 148.262V100.345Z" fill="#33B3C4"/>
<path d="M9.9934 172.631V139.982C9.9934 139.219 10.6526 138.308 11.4688 137.927L74.8187 108.478C75.2268 108.302 75.5721 108.272 75.8232 108.39L73.0293 107.098C72.7782 106.98 72.4015 106.98 71.9934 107.186L8.64353 136.664C7.82733 137.046 7.16809 137.956 7.16809 138.72V171.369C7.16809 171.721 7.32505 171.985 7.57619 172.103H7.60759L10.3701 173.365C10.1504 173.248 9.9934 172.984 9.9934 172.631Z" fill="#9FEDEB"/>
<path d="M76.2944 109.153C76.2944 108.8 76.1375 108.536 75.8863 108.419C75.8863 108.419 75.8549 108.419 75.8549 108.389C75.6038 108.272 75.2271 108.301 74.8504 108.478L11.469 137.956C10.6528 138.338 9.99359 139.248 9.99359 140.011V172.66C9.99359 173.013 10.1506 173.248 10.3703 173.394C10.6528 173.541 11.0295 173.541 11.4377 173.336L74.819 143.828C75.6352 143.446 76.2944 142.536 76.2944 141.773V109.153Z" fill="#E1FEFF"/>
<path d="M41.231 144.504L34.8269 147.469V141.509L41.231 138.514V144.504Z" fill="#9FEDEB"/>
<path d="M51.0554 139.923L44.6514 142.918V136.928L51.0554 133.933V139.923Z" fill="#9FEDEB"/>
<path d="M21.5786 162.795L15.1432 165.79V159.801L21.5786 156.835V162.795Z" fill="#9FEDEB"/>
<path d="M31.4031 158.215L24.9677 161.21V155.22L31.4031 152.255V158.215Z" fill="#9FEDEB"/>
<path d="M41.231 153.635L34.8269 156.63V150.669L41.231 147.674V153.635Z" fill="#9FEDEB"/>
<path d="M31.4031 139.923L24.9677 142.918V136.928L31.4031 133.933V139.923Z" fill="#9FEDEB"/>
<path d="M41.231 135.343L34.8269 138.338V132.348L41.231 129.382V135.343Z" fill="#9FEDEB"/>
<path d="M51.0557 130.763L44.6517 133.757V127.797L51.0557 124.802V130.763Z" fill="#9FEDEB"/>
<path d="M21.5786 153.635L15.1432 156.63V150.669L21.5786 147.674V153.635Z" fill="#9FEDEB"/>
<path d="M31.4031 149.084L24.9677 152.049V146.089L31.4031 143.094V149.084Z" fill="#9FEDEB"/>
<path d="M21.5786 144.504L15.1432 147.469V141.509L21.5786 138.514V144.504Z" fill="#9FEDEB"/>
<path d="M60.9131 126.182L54.4777 129.177V123.217L60.9131 120.222V126.182Z" fill="#F15C24"/>
<path d="M60.9131 135.343L54.4777 138.338V132.348L60.9131 129.383V135.343Z" fill="#F15C24"/>
<path d="M70.7378 130.763L64.3024 133.757V127.797L70.7378 124.802V130.763Z" fill="#F15C24"/>
<path d="M70.7383 121.631L64.3029 124.597V118.637L70.7383 115.642V121.631Z" fill="#F15C24"/>
<path d="M23.7748 126.212C23.712 128.032 22.0482 130.234 20.0705 131.086C18.0614 131.937 16.4918 131.174 16.5546 129.324C16.6173 127.503 18.2811 125.301 20.2588 124.45C22.268 123.598 23.8376 124.391 23.7748 126.212Z" fill="#168CA8"/>
<path d="M43.7705 117.638C43.7077 119.459 42.044 121.661 40.0662 122.512C38.0571 123.364 36.4876 122.6 36.5503 120.751C36.6131 118.93 38.2769 116.728 40.2546 115.877C42.2323 115.025 43.8019 115.818 43.7705 117.638Z" fill="#168CA8"/>
<path d="M63.7369 109.065C63.6742 110.885 62.0104 113.087 60.0327 113.939C58.0235 114.79 56.4539 114.027 56.5167 112.177C56.5795 110.357 58.2433 108.155 60.221 107.303C62.2301 106.452 63.7997 107.244 63.7369 109.065Z" fill="#168CA8"/>
<path d="M23.2374 127.327L23.2688 127.298C23.7711 127.092 24.2106 127.063 24.5559 127.21L21.8561 125.889C21.5108 125.683 21.0399 125.683 20.5063 125.918L20.4749 125.947C19.4389 126.388 18.5599 127.533 18.5599 128.472L18.4658 131.35L21.1969 132.73L21.2911 129.852C21.3225 128.913 22.2015 127.768 23.2374 127.327Z" fill="#55ACB7"/>
<path d="M25.0903 128.208C25.0903 127.709 24.902 127.386 24.5253 127.21C24.2113 127.063 23.7405 127.063 23.2382 127.298L23.2068 127.327C22.1709 127.768 21.2919 128.913 21.2919 129.852L21.1977 133.141L21.1663 134.256C21.135 135.196 21.9511 135.607 22.9871 135.167L23.0185 135.137C24.0544 134.697 24.9334 133.552 24.9334 132.612L25.0903 128.208Z" fill="#69C2CC"/>
<path d="M43.1732 118.666L43.2046 118.637C43.7069 118.431 44.1464 118.402 44.4917 118.548L41.7919 117.227C41.4466 117.051 40.9757 117.022 40.442 117.257L40.4106 117.286C39.3747 117.726 38.4957 118.871 38.4957 119.811L38.4015 122.688L41.1955 124.039L41.2896 121.162C41.2582 120.281 42.1058 119.136 43.1732 118.666Z" fill="#55ACB7"/>
<path d="M45.0261 119.576C45.0261 119.136 44.8692 118.813 44.5552 118.637C44.5552 118.637 44.5552 118.637 44.5238 118.607C44.4924 118.607 44.4924 118.578 44.461 118.578C44.1471 118.431 43.6762 118.431 43.174 118.666L43.1426 118.695C42.1066 119.136 41.2276 120.281 41.2276 121.22L41.1335 124.509L41.1021 125.624C41.0707 126.564 41.8869 126.975 42.9228 126.535L42.9542 126.505C43.9902 126.065 44.8692 124.92 44.8692 123.98L45.0261 119.576Z" fill="#69C2CC"/>
<path d="M63.0775 110.034L63.1089 110.005C63.6112 109.77 64.0821 109.77 64.396 109.916L61.6334 108.566C61.2881 108.419 60.8486 108.419 60.3464 108.654L60.315 108.683C59.279 109.124 58.4 110.269 58.4 111.208L58.3058 114.086L61.0998 115.436L61.194 112.559C61.194 111.619 62.0416 110.504 63.0775 110.034Z" fill="#55ACB7"/>
<path d="M64.9604 110.944C64.9604 110.474 64.7721 110.151 64.4582 109.975C64.4582 109.975 64.4582 109.975 64.4268 109.975C64.0815 109.828 63.642 109.828 63.1397 110.063L63.1083 110.093C62.0724 110.533 61.1934 111.678 61.1934 112.618L61.0678 117.022C61.0364 117.961 61.8526 118.372 62.8886 117.932L62.92 117.903C63.9559 117.462 64.8349 116.317 64.8349 115.378L64.9604 110.944Z" fill="#69C2CC"/>
<path d="M161.348 138.782L161.411 155.665C161.411 156.898 161.945 157.779 162.824 158.19L159.936 156.81C159.057 156.399 158.523 155.518 158.523 154.285L158.46 137.402L161.348 138.782Z" fill="#AB3529"/>
<path d="M191.736 117.026C193.086 116.38 194.279 116.321 195.158 116.762L198.046 118.142C197.167 117.731 195.943 117.789 194.624 118.406L166.151 131.941L163.263 130.561L191.736 117.026Z" fill="#FF6666"/>
<path d="M166.151 131.941C163.483 133.204 161.348 136.287 161.348 138.782L161.411 155.665C161.411 158.161 163.609 159.188 166.245 157.926L186.368 148.442C186.431 148.501 193.745 151.584 193.902 151.525C194.216 151.378 194.342 151.055 194.153 150.644L193.525 145.066L194.75 144.42C197.418 143.157 199.553 140.074 199.553 137.579L199.49 120.696C199.49 118.2 197.292 117.173 194.656 118.435L166.151 131.941Z" fill="#F15C24"/>
<path d="M182.066 135.2C179.648 134.613 176.948 138.459 178.769 139.898C181.218 140.544 183.981 136.61 182.066 135.2Z" fill="#EFEFEF"/>
<path d="M175.129 138.518C172.712 137.931 170.012 141.777 171.833 143.216C174.25 143.862 177.012 139.927 175.129 138.518Z" fill="#EFEFEF"/>
<path d="M189.036 131.912C186.65 131.325 183.888 135.171 185.708 136.61C188.157 137.256 190.92 133.321 189.036 131.912Z" fill="#EFEFEF"/>
<path d="M151.902 156.986L153.785 150.733L150.897 149.353L149.014 155.606C148.919 155.9 148.951 156.076 149.045 156.106L151.933 157.486C151.807 157.456 151.807 157.28 151.902 156.986Z" fill="#EA8B00"/>
<path d="M149.483 133.615C147.537 134.555 145.936 136.815 145.936 138.665L145.967 151.085C145.967 152.935 147.568 153.698 149.546 152.758L153.784 150.762L151.9 157.016C151.775 157.427 151.869 157.603 152.089 157.486C152.183 157.427 152.308 157.339 152.465 157.163L162.417 146.828C162.542 146.71 162.605 146.622 162.668 146.534L170.484 142.805C172.431 141.866 174.032 139.605 174.032 137.755L174 125.335C174 123.486 172.399 122.752 170.422 123.662L149.483 133.615ZM166.937 137.579C165.681 138.166 164.677 137.696 164.677 136.522C164.677 135.347 165.681 133.879 166.937 133.292C168.193 132.705 169.197 133.175 169.197 134.349C169.197 135.553 168.193 136.992 166.937 137.579ZM159.999 140.867C158.744 141.454 157.739 140.985 157.739 139.81C157.739 138.636 158.744 137.197 159.999 136.581C161.255 135.993 162.26 136.463 162.26 137.638C162.228 138.841 161.224 140.28 159.999 140.867ZM153.03 144.185C151.775 144.772 150.77 144.302 150.77 143.128C150.77 141.954 151.775 140.515 153.03 139.898C154.286 139.311 155.291 139.781 155.291 140.955C155.291 142.13 154.286 143.568 153.03 144.185Z" fill="#FFB000"/>
<path d="M154.663 139.663C152.245 139.076 149.546 142.922 151.366 144.361C153.784 145.007 156.546 141.072 154.663 139.663Z" fill="#EFEFEF"/>
<path d="M161.599 136.375C159.182 135.788 156.482 139.634 158.303 141.073C160.752 141.719 163.483 137.784 161.599 136.375Z" fill="#EFEFEF"/>
<path d="M168.57 133.086C166.184 132.499 163.421 136.345 165.242 137.784C167.691 138.401 170.454 134.496 168.57 133.086Z" fill="#EFEFEF"/>
<path d="M172.933 123.456L170.045 122.076C169.386 121.753 168.507 121.812 167.502 122.282L170.391 123.662C171.395 123.192 172.305 123.163 172.933 123.456Z" fill="#FFD939"/>
<path d="M145.966 151.085L143.077 149.705C143.077 150.615 143.485 151.261 144.113 151.584L147.001 152.964C146.374 152.641 145.966 151.995 145.966 151.085Z" fill="#ED9F19"/>
<path d="M145.935 138.665L143.047 137.285L143.078 149.705L145.966 151.085L145.935 138.665Z" fill="#ED9F19"/>
<path d="M170.421 123.662L167.533 122.282L146.594 132.235L149.483 133.615L170.421 123.662Z" fill="#FFD939"/>
<path d="M149.481 133.615L146.593 132.235C144.647 133.175 143.046 135.435 143.046 137.285L145.934 138.665C145.902 136.815 147.503 134.555 149.481 133.615Z" fill="#FFBC27"/>
<path opacity="0.37" d="M96.0387 243.949L54.2868 222.633C54.1298 222.545 53.9414 222.516 53.7217 222.487C53.7531 222.487 53.7845 222.487 53.8159 222.487C51.8695 222.164 45.3713 221.136 44.0842 220.93C44.8376 221.723 48.5419 225.716 49.6407 226.92C49.6407 226.891 49.6093 226.891 49.6093 226.861C49.7035 226.979 49.829 227.096 49.986 227.184L88.9126 246.386L92.3344 248.06C92.3344 248.06 93.4331 248.295 94.1865 248.031C95.7247 247.502 97.106 246.856 97.263 245.594C97.3571 244.889 95.9759 243.92 96.0387 243.949Z" fill="#00638E"/>
<path d="M43.0185 218.846C43.7719 219.697 44.4939 220.549 45.2473 221.4C45.1531 221.283 45.0904 221.136 45.1218 220.96L43.0185 218.846Z" fill="#0A3075"/>
<path d="M46.7842 219.521C45.5285 219.286 44.2728 219.081 43.0172 218.846L45.1204 220.96C45.1518 220.431 45.6541 219.815 46.2505 219.58C46.4389 219.521 46.6272 219.492 46.7842 219.521Z" fill="#057893"/>
<path d="M45.2457 221.4C46.3444 222.692 47.4745 223.955 48.5732 225.246C48.3221 224.982 48.2279 224.601 48.2593 224.101L45.1202 220.93C45.0888 221.136 45.1515 221.312 45.2457 221.4Z" fill="#FF8E66"/>
<path d="M52.4333 220.519C50.5498 220.196 48.6663 219.844 46.7827 219.521C46.6258 219.492 46.4374 219.521 46.2491 219.58C45.6526 219.815 45.1503 220.402 45.119 220.96L48.2582 224.131C48.3524 222.809 49.6394 221.283 51.0835 220.725C51.5858 220.49 52.0566 220.46 52.4333 220.519Z" fill="#FFB48A"/>
<path d="M48.9188 225.54L85.02 245.006C84.5491 244.771 84.298 244.272 84.3608 243.597L48.2596 224.131C48.1968 224.777 48.4479 225.276 48.9188 225.54Z" fill="#001D56"/>
<path d="M88.9763 240.132L52.8751 220.666C52.4356 220.431 51.8077 220.431 51.0857 220.695C49.6416 221.253 48.3546 222.78 48.2604 224.101L84.3616 243.568C84.4558 242.246 85.7429 240.719 87.187 240.162C87.909 239.868 88.5368 239.897 88.9763 240.132Z" fill="#083D7C"/>
<path d="M85.0204 244.977L90.3572 247.854C89.8863 247.62 89.6352 247.12 89.6979 246.445L84.3612 243.568C84.2984 244.243 84.5495 244.742 85.0204 244.977Z" fill="#ED4373"/>
<path d="M94.3105 243.01L88.9738 240.132C88.5343 239.898 87.9065 239.898 87.1845 240.162C85.7404 240.72 84.4533 242.246 84.3591 243.568L89.6959 246.445C89.79 245.124 91.0771 243.597 92.5212 243.039C93.2118 242.746 93.8711 242.746 94.3105 243.01Z" fill="#FF73AC"/>
<path d="M86.3391 244.654L84.3614 243.597C84.2986 244.272 84.5811 244.771 85.0206 245.006L86.9983 246.063C86.5588 245.799 86.2763 245.329 86.3391 244.654Z" fill="#D9FFFB"/>
<path d="M90.7324 241.072L88.9744 240.132C88.5349 239.898 87.9071 239.898 87.1851 240.162C85.741 240.72 84.4853 242.1 84.3597 243.568L86.3375 244.625C86.4316 243.303 87.6559 241.718 89.1 241.131C89.7279 240.925 90.2929 240.896 90.7324 241.072Z" fill="white"/>
<path d="M89.698 246.445C89.6038 247.766 90.7026 248.383 92.1466 247.825C93.5906 247.267 94.8777 245.74 94.9719 244.419C95.0661 243.098 93.9674 242.481 92.5233 243.039C91.0479 243.597 89.7922 245.124 89.698 246.445Z" fill="#E85490"/>
<path d="M90.9243 246.298C90.8615 247.208 91.6149 247.649 92.6194 247.267C93.6239 246.885 94.5029 245.828 94.5657 244.918C94.6285 244.008 93.8751 243.568 92.8706 243.949C91.866 244.331 90.9871 245.388 90.9243 246.298Z" fill="#D6418B"/>
<path opacity="0.37" d="M106.712 170.048C92.9456 170.048 81.786 164.342 81.786 157.305C81.786 150.267 92.9456 144.562 106.712 144.562C120.478 144.562 131.637 150.267 131.637 157.305C131.637 164.342 120.478 170.048 106.712 170.048Z" fill="#00638E"/>
<path d="M103.195 167.816C88.389 167.816 76.3861 161.69 76.3861 154.134C76.3861 146.577 88.389 140.452 103.195 140.452C118.002 140.452 130.004 146.577 130.004 154.134C130.004 161.69 118.002 167.816 103.195 167.816Z" fill="#9FEDEB"/>
<path d="M103.195 166.495C88.389 166.495 76.3861 160.369 76.3861 152.813C76.3861 145.256 88.389 139.13 103.195 139.13C118.002 139.13 130.004 145.256 130.004 152.813C130.004 160.369 118.002 166.495 103.195 166.495Z" fill="white"/>
<path opacity="0.63" d="M102.911 161.269C93.3063 161.269 85.5199 157.286 85.5199 152.372C85.5199 147.459 93.3063 143.476 102.911 143.476C112.516 143.476 120.303 147.459 120.303 152.372C120.303 157.286 112.516 161.269 102.911 161.269Z" fill="#D9FFFB"/>
<path d="M105.803 159.419C98.1744 159.419 91.9902 156.264 91.9902 152.372C91.9902 148.48 98.1744 145.326 105.803 145.326C113.431 145.326 119.615 148.48 119.615 152.372C119.615 156.264 113.431 159.419 105.803 159.419Z" fill="#9FEDEB"/>
<path d="M113.116 141.45C112.488 141.45 111.86 141.127 111.577 140.598C111.169 139.864 111.546 138.954 112.362 138.602C112.394 138.602 115.69 137.193 117.982 135.108C120.242 133.082 121.027 131.262 120.493 129.324C120.21 128.355 119.708 128.238 119.551 128.208C118.672 128.032 117.008 128.619 115.282 130.352C114.654 130.968 113.587 131.027 112.896 130.498C112.205 129.94 112.111 129.001 112.739 128.384C115.156 125.947 118.013 124.802 120.367 125.301C122.094 125.683 123.318 126.858 123.821 128.59C124.668 131.555 123.507 134.462 120.43 137.222C117.668 139.688 113.995 141.274 113.838 141.333C113.618 141.421 113.367 141.45 113.116 141.45Z" fill="#D9FFFB"/>
<path d="M116.162 129.265C123.445 132.994 123.445 139.042 116.162 142.742C108.879 146.471 97.0437 146.471 89.7606 142.742C82.4776 139.013 82.4776 132.965 89.7606 129.265C97.0437 125.536 108.847 125.536 116.162 129.265Z" fill="#9FEDEB"/>
<path d="M116.162 129.265C123.445 132.994 123.445 139.042 116.162 142.742C108.879 146.471 97.0437 146.471 89.7606 142.742C82.4776 139.013 82.4776 132.965 89.7606 129.265C97.0437 125.536 108.847 125.536 116.162 129.265ZM114.467 130.117C108.094 126.858 97.7971 126.858 91.4244 130.117C85.0518 133.376 85.0518 138.631 91.4244 141.89C97.7971 145.15 108.094 145.15 114.467 141.89C120.839 138.631 120.839 133.376 114.467 130.117Z" fill="#FCDEA9"/>
<path d="M116.162 129.265C123.445 132.994 123.445 139.042 116.162 142.742C108.879 146.471 97.0437 146.471 89.7606 142.742C82.4776 139.013 82.4776 132.965 89.7606 129.265C97.0437 125.536 108.847 125.536 116.162 129.265ZM114.467 130.117C108.094 126.858 97.7971 126.858 91.4244 130.117C85.0518 133.376 85.0518 138.631 91.4244 141.89C97.7971 145.15 108.094 145.15 114.467 141.89C120.839 138.631 120.839 133.376 114.467 130.117Z" fill="white"/>
<path opacity="0.5" d="M115.879 142.037C119.238 140.334 121.09 138.073 121.09 135.695C121.09 133.317 119.238 131.086 115.879 129.353C112.426 127.592 107.842 126.623 102.945 126.623C98.0479 126.623 93.4646 127.592 90.0114 129.353C86.6524 131.056 84.8003 133.317 84.8003 135.695C84.8003 138.073 86.6524 140.305 90.0114 142.037C93.4646 143.799 98.0479 144.768 102.945 144.768C107.842 144.768 112.426 143.799 115.879 142.037ZM115.094 129.353C118.359 131.027 120.274 133.434 120.274 135.842C120.274 138.25 118.139 140.364 114.906 142.037C111.735 143.652 107.403 144.533 102.945 144.533C98.4874 144.533 94.3122 143.652 91.1415 142.037C87.8767 140.364 85.6793 137.985 85.6793 135.578C85.6793 133.17 87.5942 130.997 90.859 129.324C94.0296 127.709 98.4874 126.916 102.945 126.916C107.403 126.887 111.923 127.738 115.094 129.353Z" fill="#F3F5F6"/>
<path d="M116.16 142.742C108.877 146.471 97.0418 146.471 89.7588 142.742C87.059 141.362 85.3638 139.689 84.6732 137.897C85.5208 144.063 92.9608 154.986 96.5081 156.189C100.652 157.599 106.177 157.951 110.101 156.366C114.276 154.692 121.308 142.977 121.528 136.929C121.12 139.072 119.33 141.127 116.16 142.742Z" fill="#D9FFFB"/>
<path d="M91.5797 135.842C90.2926 136.488 88.3777 138.074 87.6243 138.866C88.5346 139.923 90.1984 141.274 91.4227 141.89C97.7954 145.149 108.94 145.032 114.465 141.89C117.102 140.393 117.887 139.307 118.577 138.338C117.824 137.633 115.94 136.429 114.81 135.842C108.406 132.583 98.0151 132.583 91.5797 135.842Z" fill="#057893"/>
<path opacity="0.3" d="M118.106 138.896C114.841 136.371 106.71 133.552 103.728 134.756C102.88 135.226 101.782 136.958 103.54 138.25C104.419 138.896 105.863 139.865 104.858 141.068C103.791 142.36 101.405 142.566 99.647 142.654C99.0192 142.683 95.4091 142.536 94.8126 143.212C101.405 145.179 109.473 144.445 114.464 141.89C115.249 141.479 115.908 141.068 116.505 140.599C117.76 139.454 118.106 138.896 118.106 138.896Z" fill="#E9ECEE"/>
<path d="M118.107 125.713C118.107 125.713 117.385 125.448 115.972 126.476C114.559 127.504 115.972 127.739 115.972 127.739C115.972 127.739 117.008 127.885 118.358 127.034C119.708 126.182 118.107 125.713 118.107 125.713Z" fill="white"/>
<path opacity="0.37" d="M25.6867 197.97C22.4219 199.496 22.4219 201.963 25.6553 203.489L96.4451 236.579C99.6786 238.106 105.015 238.106 108.28 236.579L161.584 211.828C170.688 207.424 165.571 206.66 162.338 205.134L90.8259 173.189C87.5925 171.662 82.2558 171.662 78.991 173.189L25.6867 197.97Z" fill="#00638E"/>
<path d="M22.4229 199.497L94.1231 232.997C97.3879 234.524 102.787 234.524 106.084 232.997L160.047 207.923C161.711 207.16 162.527 206.132 162.527 205.105V207.424C162.527 208.452 161.711 209.45 160.047 210.243L106.084 235.317C102.787 236.844 97.3879 236.844 94.1231 235.317L22.4229 201.787C20.7905 201.023 19.9743 200.025 19.9743 199.027V196.707C19.9743 197.735 20.7905 198.733 22.4229 199.497Z" fill="#005E7F"/>
<path d="M22.4529 193.918C19.1567 195.445 19.1253 197.97 22.4215 199.496L94.1218 232.997C97.3866 234.524 102.786 234.524 106.082 232.997L160.046 207.923C163.342 206.396 163.373 203.871 160.077 202.344L88.377 168.844C85.1121 167.317 79.7126 167.317 76.4164 168.844L22.4529 193.918Z" fill="#057893"/>
<path d="M46.8143 179.355V183.142C46.8143 182.878 47.034 182.614 47.4421 182.408C48.2897 182.027 49.6396 182.027 50.4871 182.408C50.8952 182.614 51.115 182.849 51.115 183.113V179.325C51.115 179.061 50.8952 178.797 50.4871 178.621C49.6396 178.239 48.2583 178.239 47.4421 178.621C47.034 178.826 46.8143 179.091 46.8143 179.355Z" fill="#D62222"/>
<path d="M64.9566 179.56V183.348C65.3019 183.201 65.4902 182.966 65.4902 182.761V178.973C65.4902 179.208 65.3019 179.414 64.9566 179.56Z" fill="#BC8430"/>
<path d="M42.9209 184.904C42.8267 184.757 42.764 184.581 42.764 184.405V180.617C42.764 181.058 43.1093 181.469 43.7685 181.762C44.5533 182.115 45.244 182.467 45.7148 182.673V186.46C45.5265 186.372 45.2754 186.255 44.9928 186.137V189.69L43.1407 188.838C42.7954 188.662 42.607 188.457 42.607 188.251V184.464C42.607 184.64 42.7326 184.787 42.9209 184.904Z" fill="#D62222"/>
<path d="M44.9615 185.932L44.9929 189.719L46.8765 190.6V186.812L44.9615 185.932Z" fill="#8E6424"/>
<path d="M49.3884 186.813V190.6L64.959 183.377V179.56L49.3884 186.813Z" fill="#8F6424"/>
<path d="M46.8777 186.812V190.6C47.5684 190.923 48.6985 190.923 49.3892 190.6V186.812C48.6985 187.135 47.5684 187.135 46.8777 186.812Z" fill="#BC8430"/>
<path d="M97.0411 177.241C94.2472 182.291 88.2512 186.255 82.3181 188.809C74.3444 192.274 64.0791 194.3 55.0381 194.417C49.8897 194.476 44.71 193.977 39.593 193.712C36.9875 193.566 34.6644 192.978 32.2786 192.391L26.2513 194.623V196.414L84.7353 223.866L100.62 230.971L100.683 230.942V178.856L97.0411 177.241Z" fill="#9FEDEB"/>
<path d="M156.122 203.431L100.683 178.856V230.942L156.122 205.016V203.431Z" fill="#86E2DE"/>
<path d="M156.121 203.431L100.62 229.18L26.251 194.622L44.9923 185.932L46.8758 186.812C47.5665 187.135 48.6966 187.135 49.3872 186.812L64.9578 179.56C65.6485 179.237 65.6485 178.709 64.9578 178.386L63.0743 177.505L81.9411 168.755L156.121 203.431Z" fill="#D9FFFB"/>
<path d="M43.1415 184.875C42.4509 185.198 42.4509 185.726 43.1415 186.049L44.9936 186.901L46.8772 187.781C47.5678 188.104 48.698 188.104 49.3886 187.781L64.9592 180.529C65.3359 180.353 65.5243 180.118 65.4615 179.883V178.973L63.0443 178.474L61.1921 177.623C60.5015 177.3 59.3714 177.3 58.6807 177.623L56.1066 178.826C55.6357 178.621 54.945 178.269 54.1602 177.916C52.7476 177.27 50.3304 177.3 48.7921 178.004L43.9263 180.265C42.3881 180.999 42.2939 182.115 43.6752 182.761C44.46 183.113 45.1506 183.465 45.6215 183.671L43.1415 184.875ZM50.5187 181.058C49.6711 181.439 48.2898 181.439 47.4423 181.058C46.5947 180.676 46.5947 180.03 47.4423 179.619C48.2898 179.237 49.6397 179.237 50.4873 179.619C51.3349 180.001 51.3349 180.647 50.5187 181.058Z" fill="#D62222"/>
<path d="M43.1411 183.876C42.4505 184.199 42.4505 184.728 43.1411 185.051L44.9933 185.902L46.8768 186.783C47.5675 187.106 48.6976 187.106 49.3882 186.783L64.9588 179.531C65.6495 179.208 65.6495 178.68 64.9588 178.357L63.0753 177.476L61.2231 176.624C60.5325 176.301 59.4024 176.301 58.7118 176.624L56.1376 177.828C55.6667 177.623 54.9761 177.27 54.1913 176.918C52.7786 176.272 50.3614 176.301 48.8232 177.006L43.9573 179.267C42.4191 180.001 42.3249 181.117 43.7062 181.762C44.491 182.115 45.1816 182.467 45.6525 182.673L43.1411 183.876ZM50.5183 180.06C49.6707 180.441 48.2895 180.441 47.4419 180.06C46.5943 179.678 46.5943 179.032 47.4419 178.621C48.2895 178.239 49.6394 178.239 50.4869 178.621C51.3345 179.032 51.3345 179.678 50.5183 180.06Z" fill="#FF815A"/>
<path d="M88.0629 173.6L64.2988 184.64L87.9059 195.68L111.67 184.64L88.0629 173.6Z" fill="#9FEDEB"/>
<path d="M87.562 218.376L94.123 221.458L134.462 202.697L127.901 199.643L87.562 218.376Z" fill="#9FEDEB"/>
<path d="M77.6711 213.737L84.2321 216.82L124.571 198.087L117.979 195.004L77.6711 213.737Z" fill="#9FEDEB"/>
<path d="M56.5451 204.106L63.1375 207.189L85.897 196.59L79.336 193.507L56.5451 204.106Z" fill="#9FEDEB"/>
<path d="M121.557 194.094C121.368 194.182 121.243 194.3 121.211 194.417C121.117 194.74 121.588 195.034 122.247 195.063L127.961 195.445C128.369 195.474 128.745 195.415 128.997 195.269C129.185 195.181 129.311 195.063 129.342 194.946L129.687 193.889C129.781 193.566 129.311 193.272 128.651 193.243C128.243 193.213 127.866 193.272 127.615 193.419C127.427 193.507 127.301 193.624 127.27 193.742L127.113 194.212L122.624 193.918C122.216 193.918 121.808 193.977 121.557 194.094Z" fill="#9FEDEB"/>
<path d="M111.669 189.455C111.481 189.543 111.355 189.661 111.324 189.778C111.23 190.101 111.7 190.395 112.36 190.424L118.073 190.806C118.481 190.835 118.858 190.776 119.109 190.629C119.297 190.541 119.423 190.424 119.454 190.307L119.8 189.25C119.894 188.927 119.423 188.633 118.764 188.604C118.356 188.574 117.979 188.633 117.728 188.78C117.539 188.868 117.414 188.985 117.383 189.103L117.226 189.573L112.736 189.279C112.297 189.279 111.92 189.338 111.669 189.455Z" fill="#9FEDEB"/>
<path d="M67.7535 209.127L74.3459 212.18L114.654 193.448L108.093 190.395L67.7535 209.127Z" fill="#9FEDEB"/>
<path d="M48.0384 200.113L54.5994 203.196L77.3901 192.626L70.8292 189.543L48.0384 200.113Z" fill="#9FEDEB"/>
<path d="M39.5314 196.149L46.0923 199.203L68.8831 188.633L62.2907 185.55L39.5314 196.149Z" fill="#9FEDEB"/>
<path d="M131.448 198.733C131.259 198.821 131.134 198.939 131.102 199.056C131.008 199.379 131.479 199.673 132.138 199.702L137.852 200.084C138.26 200.113 138.636 200.054 138.887 199.908C139.076 199.819 139.201 199.702 139.233 199.585L139.578 198.528C139.672 198.205 139.201 197.911 138.542 197.882C138.134 197.852 137.757 197.911 137.506 198.058C137.318 198.146 137.192 198.263 137.161 198.381L137.004 198.851L132.515 198.557C132.107 198.528 131.73 198.586 131.448 198.733Z" fill="#9FEDEB"/>
<path d="M88.1897 184.875L85.176 186.255L94.7507 190.747L97.7329 189.367L88.1897 184.875Z" fill="white"/>
<path d="M87.8457 188.926L84.832 190.306L90.5769 192.861L93.5906 191.481L87.8457 188.926Z" fill="white"/>
<path d="M86.935 180.647L83.9528 182.027L98.7072 188.926L101.689 187.546L86.935 180.647Z" fill="white"/>
<path d="M85.7422 176.419L82.7599 177.769L102.663 187.106L105.645 185.726L85.7422 176.419Z" fill="white"/>
<path opacity="0.47" d="M108.18 127.371C108.18 127.371 106.686 119.618 116.892 113.222C126.6 107.149 120.252 89.4927 120.252 89.4927C120.252 89.4927 111.634 98.0116 111.011 100.429C109.984 104.408 114.838 107.326 106.935 116.258C102.423 121.358 105.379 126.958 105.379 126.958C105.379 126.958 102.517 123.716 101.428 120.974C100.245 117.997 100.121 111.158 103.513 104.113C108.273 94.209 119.35 90.1117 125.604 73.0149C131.36 57.1857 122.088 48.2246 114.558 45.0706C96.4494 37.495 110.7 0 110.7 0C110.7 0 93.1512 19.9266 89.1374 29.035C85.1857 37.9961 76.4113 55.0044 98.9697 69.0061C111.727 76.9059 103.419 85.3364 96.2938 100.812C89.1996 116.287 102.517 127.577 102.517 127.577C104.197 127.931 105.877 128.344 108.18 127.371Z" fill="#EEF8FF"/>
</svg>
