<svg width="151" height="123" viewBox="0 0 151 123" fill="none" xmlns="http://www.w3.org/2000/svg">
<path d="M0 47.3925L57.6897 16.3265L79.8607 28.118L21.9447 59.184L0 47.3925Z" fill="#FCFEFE"/>
<path d="M144.11 105.443L150.671 102.042V27.6646L144.11 30.8392V105.443Z" fill="#AAA69D"/>
<path d="M144.11 105.443L150.671 102.042V27.6646L144.11 30.8392V105.443Z" fill="#CCFFFE"/>
<path d="M86.1938 0V74.377L144.11 105.443V30.8392L86.1938 0Z" fill="#9FEDEB"/>
<path d="M28.2793 62.3588V30.8392L21.9447 27.6646V59.1841L0 47.3927V90.2501L21.9447 102.042L28.2793 105.443L50.4502 117.234V74.1502L28.2793 62.3588Z" fill="#9FEDEB"/>
<path d="M50.4515 74.1502L108.367 43.0842V48.0729L69.4552 68.9348V107.03L50.4515 117.234V74.1502Z" fill="#CCFFFE"/>
<path d="M28.2789 62.3586L86.1949 31.2926L108.366 43.0841L50.4499 74.15L28.2789 62.3586Z" fill="#FCFEFE"/>
<path d="M78.9551 48.2997C78.9551 48.2997 80.0863 49.4335 81.2174 49.887C82.5748 50.3406 84.8372 50.7941 85.5159 49.4335C86.4208 48.2997 85.7421 47.1659 84.1585 46.2589C82.5748 45.3519 79.6338 46.0321 78.7289 46.7124C78.5026 47.6194 78.9551 48.2997 78.9551 48.2997Z" fill="#33B3C4"/>
<path d="M81.6687 49.4336C80.3112 48.9801 79.4063 47.8463 79.4063 47.8463C79.4063 47.8463 78.9538 47.3927 79.1801 46.7125C78.5014 47.3927 79.1801 48.073 79.1801 48.073C79.1801 48.073 80.3112 49.2068 81.4424 49.6603C82.7998 50.1139 85.0622 50.5674 85.7409 49.2068C85.7409 48.9801 85.9671 48.9801 85.9671 48.9801C85.0622 50.3406 82.7998 49.8871 81.6687 49.4336Z" fill="#168CA8"/>
<path d="M77.5976 51.701L75.109 50.3405C74.6566 50.1137 73.9778 50.1137 73.2991 50.3405L61.3087 56.9165L59.0464 57.5968V58.5038C59.0464 58.7306 59.0464 58.7306 59.2726 58.9573L62.2137 60.5446C62.6661 60.7714 63.3448 60.7714 64.0235 60.5446L78.2763 53.0616C78.5025 53.0616 78.5025 52.8348 78.5025 52.6081V51.701H77.5976Z" fill="#168CA8"/>
<path d="M59.0472 57.1432L73.3 49.6602C73.7525 49.4334 74.4312 49.4334 75.1099 49.6602L78.0509 51.2475C78.2772 51.4742 78.2772 51.9278 78.0509 52.1545L63.7982 59.6376C63.3457 59.8643 62.667 59.8643 61.9883 59.6376L59.0472 58.0503C58.821 57.8235 58.821 57.37 59.0472 57.1432Z" fill="#33B3C4"/>
<path d="M53.1641 79.3656L67.1906 71.8825V80.9529L53.1641 88.4359V79.3656Z" fill="#9FEDEB"/>
<path d="M62.4423 78.0052L58.3701 80.2728V78.4587L62.4423 76.1911V78.0052Z" fill="#CCFFFE"/>
<path d="M53.1641 91.3839L67.1906 83.9008V92.9712L53.1641 100.454V91.3839Z" fill="#9FEDEB"/>
<path d="M62.4423 90.0233L58.3701 92.2909V90.4768L62.4423 88.2092V90.0233Z" fill="#CCFFFE"/>
<path d="M53.1641 103.629L67.1906 96.1458V105.216L53.1641 112.699V103.629Z" fill="#9FEDEB"/>
<path d="M62.4423 102.042L58.3701 104.309V102.495L62.4423 100.228V102.042Z" fill="#CCFFFE"/>
<path d="M76.0144 17.0069L74.2045 16.0999C73.752 15.8731 73.0733 15.6463 72.6209 16.0999L47.7351 29.4786C46.8302 29.9322 46.3777 30.8392 46.3777 31.5195V50.3405C46.3777 50.794 46.6039 51.2475 47.0564 51.4743L48.8663 52.3813L50.2237 50.5672L73.752 38.0955C74.657 37.642 75.1094 36.7349 75.1094 36.0547V18.5942L76.0144 17.0069Z" fill="#9FEDEB"/>
<path d="M59.9523 42.8574V48.7532C59.9523 49.4334 60.1786 49.8869 60.8573 50.1137L63.1196 51.2475C63.5721 51.4743 64.2508 51.4743 64.7033 51.2475L70.1329 48.0729V48.7532C70.1329 49.2067 69.9066 49.8869 69.2279 50.1137L64.9295 52.3813C64.2508 52.8348 63.3459 52.8348 62.6671 52.3813L60.4048 51.2475C59.2736 50.794 58.8212 49.6602 58.8212 48.5264V41.9504L59.9523 42.8574Z" fill="#33B3C4"/>
<path d="M69.6816 47.6193L67.4193 46.4855C66.9668 46.2588 66.5143 45.5785 66.5143 45.125V39.2292L59.7273 42.8574V48.7531C59.7273 49.4334 59.9535 49.8869 60.6322 50.1137L62.8946 51.2475C63.347 51.4742 64.0257 51.4742 64.4782 51.2475L69.6816 48.5264C70.1341 48.2996 70.1341 47.8461 69.6816 47.6193Z" fill="#9FEDEB"/>
<path d="M47.9617 32.6532V49.8869L76.6934 34.4673V18.1406C76.6934 17.0068 75.336 16.3266 74.4311 17.0068L49.3191 30.3856C48.4141 30.8391 47.9617 31.7462 47.9617 32.6532Z" fill="#33B3C4"/>
<path d="M49.5461 32.6532V46.4855L74.8844 33.1067V19.0477L49.5461 32.6532Z" fill="#FCFEFE"/>
<path d="M47.9617 51.2475C47.9617 52.3813 49.3191 53.0616 50.224 52.3813L75.336 39.0025C76.2409 38.549 76.6934 37.642 76.6934 36.9617V33.787L47.9617 49.2067V51.2475Z" fill="#CCFFFE"/>
<path d="M55.6526 39.6829C54.2952 39.6829 53.6165 38.3223 53.164 37.642C52.9378 37.4153 52.9378 37.1885 52.7116 36.9618C52.7116 36.9618 52.0329 37.4153 51.5804 37.642C51.3542 37.8688 50.6755 37.8688 50.4492 37.642C50.223 37.4153 50.223 36.735 50.4492 36.5082C50.9017 36.0547 52.2591 34.9209 53.3903 35.6012C53.8427 35.828 54.069 36.2815 54.2952 36.735C55.2001 38.0956 55.4264 38.3223 56.1051 37.8688C57.01 37.4153 57.9149 35.1477 58.3674 33.3336C58.8199 32.1998 59.2724 30.8393 59.7248 30.159C59.9511 29.7055 60.4035 29.4787 60.856 29.4787C61.5347 29.4787 62.2134 30.159 62.6659 30.8393C63.3446 31.7463 63.5708 31.9731 63.797 31.9731C64.2495 31.7463 64.702 31.9731 64.702 32.4266C64.9282 32.8801 64.702 33.3336 64.2495 33.3336C62.6659 34.0139 61.7609 32.6533 61.3085 31.7463C61.0822 31.5195 61.0822 31.2928 60.856 31.066C60.4035 31.7463 60.1773 32.6533 59.7248 33.7871C59.0461 36.0547 58.1412 38.3223 56.7838 39.0026C56.3313 39.6829 55.8788 39.6829 55.6526 39.6829Z" fill="#CCFFFE"/>
<path d="M64.0233 36.7349L63.7971 27.8913C63.7971 27.8913 63.7971 27.6646 64.0233 27.6646C64.0233 27.6646 64.2496 27.6646 64.2496 27.8913L64.0233 36.7349C64.2496 36.7349 64.2496 36.7349 64.0233 36.7349Z" fill="#CCFFFE"/>
<path d="M50.903 43.7645C50.903 43.7645 50.6768 43.7645 50.903 43.7645L50.6768 34.9209C50.6768 34.9209 50.6768 34.6942 50.903 34.6942C51.1292 34.6942 51.1292 34.6941 51.1292 34.9209L50.903 43.7645C51.1292 43.7645 50.903 43.7645 50.903 43.7645Z" fill="#CCFFFE"/>
<path d="M54.5216 41.7236L54.2954 32.88C54.2954 32.88 54.2954 32.6533 54.5216 32.6533C54.7479 32.6533 54.7479 32.6533 54.7479 32.88L54.5216 41.7236C54.7479 41.7236 54.7479 41.7236 54.5216 41.7236Z" fill="#CCFFFE"/>
<path d="M60.4032 38.7757C60.4032 38.7757 60.177 38.7757 60.4032 38.7757L60.177 29.9321C60.177 29.9321 60.177 29.7053 60.4032 29.7053C60.4032 29.7053 60.6295 29.7053 60.6295 29.9321L60.4032 38.7757C60.6295 38.7757 60.4032 38.7757 60.4032 38.7757Z" fill="#CCFFFE"/>
<path d="M53.1636 34.6941L52.2587 35.1477V34.4674L53.1636 34.0139V34.6941Z" fill="#CCFFFE"/>
<path d="M53.8423 34.9209L52.2587 35.8279V35.6012L53.8423 34.6942V34.9209Z" fill="#CCFFFE"/>
<path d="M57.9153 33.3336L57.0104 33.7871V33.1068L57.9153 32.6533V33.3336Z" fill="#CCFFFE"/>
<path d="M58.5932 33.5603L57.0095 34.4674V34.2406L58.5932 33.3336V33.5603Z" fill="#CCFFFE"/>
<path d="M62.4397 28.7984L61.761 29.2519V28.5716L62.4397 28.1181V28.7984Z" fill="#CCFFFE"/>
<path d="M63.3438 29.0252L61.7601 29.7055V29.4787L63.3438 28.7984V29.0252Z" fill="#CCFFFE"/>
<path d="M71.9408 24.0364L66.2849 26.9843V25.8505L71.9408 22.9026V24.0364Z" fill="#CCFFFE"/>
<path d="M73.2982 24.9434L66.2849 28.7984V28.1181L73.2982 24.4899V24.9434Z" fill="#CCFFFE"/>
<path d="M73.2982 26.304L66.2849 30.1589V29.7054L73.2982 25.8505V26.304Z" fill="#CCFFFE"/>
<path d="M73.2982 27.8913L66.2849 31.7462V31.0659L73.2982 27.4377V27.8913Z" fill="#CCFFFE"/>
<path d="M73.2982 29.2519L66.2849 33.1068V32.6533L73.2982 28.7984V29.2519Z" fill="#CCFFFE"/>
<path d="M73.2982 30.8393L66.2849 34.4674V34.0139L73.2982 30.159V30.8393Z" fill="#CCFFFE"/>
<path d="M73.2982 32.1998L66.2849 36.0547V35.3744L73.2982 31.7463V32.1998Z" fill="#CCFFFE"/>
<path d="M88.6827 48.2997L85.5154 45.5786L80.7645 45.8053L80.9908 46.7124L83.9318 47.3926C83.9318 47.3926 82.3482 47.6194 81.8957 48.0729C81.6695 48.2997 81.6695 48.5264 82.5744 48.98C83.7056 49.4335 85.5154 50.3405 86.1941 50.3405C87.0991 50.1137 88.6827 48.2997 88.6827 48.2997Z" fill="#FFAD91"/>
<path d="M89.1341 93.4247L90.7177 96.1458C90.7177 96.1458 89.1341 97.2796 87.7767 98.4134C86.4193 99.5472 83.9307 102.949 82.347 102.949C80.7634 102.949 81.4421 100.454 82.5733 98.4134C83.7044 96.3726 84.6094 95.012 84.6094 95.012L89.1341 93.4247Z" fill="#002B6A"/>
<path d="M84.8367 64.1729H79.1809L76.6923 65.7602L76.4661 71.8826L84.8367 95.6923L88.909 94.105L86.6466 83.6741L84.8367 64.1729Z" fill="#E69C83"/>
<path d="M73.0722 56.2363L71.0361 54.1954L67.1901 54.4222L63.7966 56.6898L67.4164 59.4109L70.3574 60.0911L73.0722 56.2363Z" fill="#FFAD91"/>
<path d="M101.002 36.3518L93.1895 37.6447L94.2582 44.1326L102.07 42.8397L101.002 36.3518Z" fill="#FFAD91"/>
<path d="M107.687 41.7237C107.461 41.2702 105.651 39.2294 104.294 39.2294C103.389 39.2294 102.257 39.4561 101.352 39.6829C101.126 39.6829 100.9 39.6829 100.674 39.9096C100.448 39.9096 100.221 39.9096 99.995 40.1364C98.1852 40.3632 96.1491 40.8167 94.3392 41.2702C93.8867 41.2702 93.6605 41.497 93.208 41.7237C92.7555 41.9505 92.5293 41.9505 92.0768 42.1772C90.7194 42.6307 89.362 43.311 88.2309 43.9913L85.9685 48.2997C85.0636 50.3406 83.7062 52.8349 83.7062 53.7419C83.7062 56.6898 84.1586 57.3701 85.2898 58.7306C85.7423 59.1842 86.421 59.6377 86.8735 60.0912C87.0997 61.4517 87.0997 62.5855 87.5522 64.8531C88.0046 67.5742 88.0046 72.7897 88.0046 72.7897C88.4571 73.0164 88.9096 73.2432 89.362 73.2432C90.4932 73.47 92.5293 73.6967 94.7917 73.6967C95.2441 73.6967 95.6966 73.6967 96.1491 73.47C97.5065 73.2432 98.8639 73.0165 99.995 72.5629C101.352 72.1094 103.615 71.4291 104.52 70.7489C104.293 68.9348 104.293 65.9869 104.52 64.3996C104.972 60.318 104.972 57.5968 106.33 53.9687C107.235 51.9279 107.461 50.5673 108.366 48.5265C109.271 47.6194 108.818 43.5378 107.687 41.7237Z" fill="#002B6A"/>
<path d="M81.895 57.1433L88.682 43.9913C90.9444 44.8983 92.3018 46.7124 90.9444 51.2476L85.741 63.2658L84.1573 63.4925L69.6783 60.0912L73.0719 56.0095L81.895 57.1433Z" fill="#002B6A"/>
<path opacity="0.3" d="M93.8855 99.5472C92.5281 98.8669 90.9445 98.8669 89.8133 99.5472L74.8818 108.618V112.926C74.8818 113.833 75.3343 114.74 76.2392 115.194L90.9445 122.45C92.3019 123.13 93.8855 123.13 95.0167 122.45L108.591 115.647C109.496 115.194 109.948 114.287 109.948 113.38V109.071L93.8855 99.5472Z" fill="#1D99B3"/>
<path d="M81.4431 108.391C80.9906 108.164 80.7644 108.164 80.0857 108.618C78.9545 109.298 78.0496 110.885 78.0496 112.472C78.0496 113.379 78.2758 114.287 78.7283 114.513L81.8955 116.101L84.6104 110.432L81.4431 108.391Z" fill="#002B6A"/>
<path d="M85.2893 112.019C85.2893 113.606 84.3843 115.193 83.2531 115.874C82.122 116.554 81.217 115.874 81.217 114.286C81.217 112.699 82.122 111.112 83.2531 110.431C84.3843 109.751 85.2893 110.432 85.2893 112.019Z" fill="#11487F"/>
<path d="M84.1576 112.699C84.1576 113.379 83.7051 113.833 83.4789 114.287C83.0264 114.513 82.8002 114.287 82.8002 113.606C82.8002 112.926 83.2526 112.472 83.4789 112.019C83.7051 111.792 84.1576 112.246 84.1576 112.699Z" fill="#002B6A"/>
<path d="M103.39 108.391C103.842 108.164 104.068 108.164 104.747 108.618C105.878 109.298 106.783 110.885 106.783 112.472C106.783 113.379 106.557 114.06 106.104 114.287L102.937 115.874L100.222 110.205L103.39 108.391Z" fill="#002B6A"/>
<path d="M99.5425 112.019C99.5425 113.606 100.447 115.194 101.579 115.874C102.71 116.554 103.615 115.874 103.615 114.287C103.615 112.699 102.71 111.112 101.579 110.432C100.447 109.751 99.5425 110.432 99.5425 112.019Z" fill="#11487F"/>
<path d="M100.673 112.699C100.673 113.379 101.126 113.833 101.352 114.287C101.805 114.513 102.031 114.287 102.031 113.606C102.031 112.926 101.578 112.472 101.352 112.019C101.126 111.792 100.673 112.246 100.673 112.699Z" fill="#002B6A"/>
<path d="M85.0647 97.5064C85.2909 97.2796 85.7434 97.2796 86.1959 97.7331C87.1008 98.4134 88.0057 99.774 88.0057 101.135C88.0057 101.815 87.7795 102.722 87.327 102.949L84.6122 104.309L82.3499 99.3204L85.0647 97.5064Z" fill="#002B6A"/>
<path d="M81.4437 100.681C81.4437 102.042 82.3487 103.629 83.2536 104.082C84.1585 104.763 85.0635 104.082 85.0635 102.722C85.0635 101.361 84.1585 99.774 83.2536 99.3205C82.3487 98.6402 81.4437 99.3205 81.4437 100.681Z" fill="#11487F"/>
<path d="M82.5746 101.361C82.5746 101.815 82.8008 102.495 83.2533 102.722C83.7057 102.949 83.932 102.722 83.932 102.268C83.932 101.815 83.7057 101.135 83.2533 100.908C83.027 100.454 82.5746 100.681 82.5746 101.361Z" fill="#002B6A"/>
<path d="M100.446 97.5064C100.22 97.2796 99.7677 97.2796 99.3152 97.7331C98.4103 98.4134 97.5054 99.774 97.5054 101.135C97.5054 101.815 97.7316 102.722 98.1841 102.949L100.899 104.309L103.161 99.3204L100.446 97.5064Z" fill="#002B6A"/>
<path d="M103.84 100.681C103.84 102.041 102.935 103.629 102.03 104.082C101.125 104.763 100.22 104.082 100.22 102.722C100.22 101.361 101.125 99.7739 102.03 99.3203C103.161 98.6401 103.84 99.3203 103.84 100.681Z" fill="#11487F"/>
<path d="M102.708 101.361C102.708 101.815 102.482 102.495 102.029 102.722C101.577 102.949 101.351 102.722 101.351 102.268C101.351 101.815 101.577 101.135 102.029 100.908C102.482 100.454 102.708 100.681 102.708 101.361Z" fill="#002B6A"/>
<path d="M81.4435 97.5063L81.896 99.0937L88.4568 103.402L89.5879 101.361L81.4435 97.5063Z" fill="#168CA8"/>
<path d="M92.529 100.908L90.9453 98.6401L84.1583 96.1458L81.4435 97.5063L89.5879 101.588L92.529 100.908Z" fill="#33B3C4"/>
<path d="M103.616 97.5063L103.389 99.0937L96.6023 103.402L95.6974 101.361L103.616 97.5063Z" fill="#168CA8"/>
<path d="M92.5297 100.908L94.3395 98.6401L100.9 96.1458L103.615 97.5063L95.6969 101.588L92.5297 100.908Z" fill="#33B3C4"/>
<path d="M78.0496 109.978L78.7283 111.565L81.8955 113.153L92.5286 105.897V102.495L78.0496 109.978Z" fill="#168CA8"/>
<path d="M89.8137 100.908L78.0496 109.978L81.2168 111.566L92.5286 103.856V100.908H89.8137Z" fill="#33B3C4"/>
<path d="M106.782 109.978L105.877 111.792L103.389 113.153L92.5297 105.897V102.495L106.782 109.978Z" fill="#168CA8"/>
<path d="M95.2445 100.908L106.782 109.978L103.841 111.566L92.5297 103.856V100.908H95.2445Z" fill="#33B3C4"/>
<path d="M92.5279 103.629C90.718 103.629 89.3606 102.268 89.3606 100.681V86.8487H95.4689V100.681C95.6951 102.268 94.3377 103.629 92.5279 103.629Z" fill="#33B3C4"/>
<path d="M105.425 77.7783L94.7916 71.6558C93.4342 70.9756 91.8506 70.9756 90.7194 71.6558L80.7651 77.0981L75.788 78.0051V82.3135C75.788 83.2206 76.2404 84.1276 77.1454 84.5811L91.8506 92.0641C93.208 92.7444 94.7916 92.7444 95.9228 92.0641L109.497 85.2614C110.402 84.8079 110.854 83.9008 110.854 82.9938V78.6854L105.425 77.7783Z" fill="#B33939"/>
<path d="M77.1439 75.7375L90.4917 67.1206C91.8491 66.4403 93.4328 66.4403 94.5639 67.1206L109.495 76.4177C111.305 77.3248 111.305 79.8191 109.495 80.9529L95.9213 87.5289C94.5639 88.2092 92.9803 88.2092 91.8491 87.5289L77.1439 80.2726C75.5603 79.3656 75.5603 76.8713 77.1439 75.7375Z" fill="#FF5252"/>
<path d="M89.1351 64.8531L84.8366 64.1729L78.5021 68.0277L73.5249 71.6559L75.1085 77.3249L92.9811 84.8079L96.6008 85.0347C96.6008 85.0347 103.388 82.0868 104.971 80.953C107.46 79.3657 108.365 74.1502 107.008 71.6559C105.876 69.1615 89.1351 64.8531 89.1351 64.8531Z" fill="#002B6A"/>
<path d="M113.117 54.1954L107.913 51.7011C107.235 51.4743 106.556 51.4743 105.651 51.7011L92.7556 58.5038C90.4933 59.8644 89.1359 62.132 89.1359 64.6263V68.9347C89.1359 70.0685 89.8146 70.9756 90.4933 71.4291L94.113 73.2432L100.221 66.6672L106.556 63.039C108.818 61.6785 110.176 59.4109 110.176 56.9165V56.0095L113.117 54.1954Z" fill="#B33939"/>
<path d="M96.8295 73.47L110.63 66.6672C112.892 65.3067 114.249 63.0391 114.249 60.5447V56.2363C114.249 54.4222 112.213 53.2884 110.63 54.1955L96.8295 60.9982C94.5671 62.3588 93.2097 64.6264 93.2097 67.1207V71.4292C93.2097 73.2432 95.2458 74.377 96.8295 73.47Z" fill="#FF5252"/>
<path d="M108.364 84.5811V60.9982C108.364 59.6377 107.912 58.7306 106.781 58.0504L103.161 59.8644V88.436C103.161 88.436 105.197 88.436 106.102 87.9825L106.781 87.7558C107.686 86.8487 108.364 85.7149 108.364 84.5811Z" fill="#168CA8"/>
<path d="M88.9095 26.9844L88.457 30.8393L89.362 37.8688L94.3391 38.3223C94.3391 38.3223 92.5292 26.9844 88.9095 26.9844Z" fill="#FFAD91"/>
<path d="M84.158 95.9192L85.9679 98.6403L83.0268 102.042L78.2759 106.123L76.4661 104.763L79.8596 98.6403L84.158 95.9192Z" fill="#002B6A"/>
<path d="M79.8597 67.1207H73.7514L71.489 68.9347V74.8305L79.8597 98.6402L83.9319 97.2796L81.8958 86.6219L79.8597 67.1207Z" fill="#FFAD91"/>
<path d="M33.0298 36.735L38.6856 33.7871V41.2701L33.0298 44.218V36.735Z" fill="#FCFEFE"/>
<path d="M37.1022 43.3109L42.758 40.363V47.8461L37.1022 50.794V43.3109Z" fill="#33B3C4"/>
<path d="M78.2767 19.0477L83.9326 16.0999V23.3561L78.2767 26.5307V19.0477Z" fill="#9FEDEB"/>
<path d="M38.6853 61.6783L48.4134 56.4629L60.1775 62.8121L50.4495 68.0276L38.6853 61.6783Z" fill="#CCFFFE"/>
<path d="M41.399 61.4516L48.4123 57.8234L49.091 58.0502L42.0778 61.6783L41.399 61.4516Z" fill="#9FEDEB"/>
<path d="M42.983 62.3586L48.8651 59.184L49.3176 59.6375L43.6617 62.5854L42.983 62.3586Z" fill="#9FEDEB"/>
<path d="M44.5676 63.0389L50.2235 60.091L50.9022 60.3178L45.0201 63.4924L44.5676 63.0389Z" fill="#9FEDEB"/>
<path d="M45.9246 63.9459L51.8067 60.7713L52.2591 60.9981L46.6033 64.1727L45.9246 63.9459Z" fill="#9FEDEB"/>
<path d="M47.5063 64.6263L53.1622 61.6784L53.8409 61.9052L47.9588 65.0798L47.5063 64.6263Z" fill="#9FEDEB"/>
<path d="M48.8662 65.5333L54.7483 62.3586L55.2008 62.5854L49.5449 65.76L48.8662 65.5333Z" fill="#9FEDEB"/>
<path d="M50.2231 66.2136L56.1052 63.0389L56.784 63.4925L50.9018 66.6671L50.2231 66.2136Z" fill="#9FEDEB"/>
<path d="M88.0042 27.8913C87.778 26.5307 88.0042 24.4899 88.9091 23.5828C89.3616 23.1293 89.8141 22.6758 90.2666 22.2223C91.3977 21.0885 92.5289 20.635 94.1125 20.4082C96.6011 19.7279 99.7684 19.7279 101.578 21.7688C102.031 21.7688 94.7912 22.2223 92.3027 24.2631C91.8502 24.7166 92.0764 25.3969 91.3977 26.0772C90.719 26.7575 90.9453 27.4377 90.2666 27.6645C89.8141 27.6645 88.0042 27.8913 88.0042 27.8913Z" fill="#003D75"/>
<path d="M90.9467 37.8687C90.4942 38.0954 90.0418 38.3222 89.8155 38.3222C90.268 39.456 91.6254 39.9095 93.4353 39.9095C95.6976 39.9095 100.222 39.456 102.032 38.7757C103.39 37.8687 105.878 35.6011 106.557 33.787C106.783 33.3335 106.783 33.1067 107.009 32.6532C107.009 32.4265 107.236 31.9729 107.236 31.7462C107.688 29.9321 108.593 21.542 102.258 20.635C98.4124 20.4082 94.5665 20.635 91.8517 22.9026C91.3992 23.3561 90.7205 24.4899 90.0418 25.1702C90.0418 25.1702 89.1368 26.5307 89.1368 27.4378C89.3631 27.4378 89.3631 27.4378 89.5893 27.4378C90.7205 29.4786 91.1729 30.6124 91.6254 33.1067C92.3041 34.694 92.0779 37.4151 90.9467 37.8687Z" fill="#002B6A"/>
</svg>
