<svg width="170" height="138" viewBox="0 0 170 138" fill="none" xmlns="http://www.w3.org/2000/svg">
<path d="M165.466 52.9157L91.5757 18.4135C90.5802 17.8954 89.6953 17.8954 89.0316 18.2063C87.8148 18.8279 86.5981 19.346 85.3813 19.9676C86.045 19.6568 164.913 117.05 164.25 117.361C164.803 117.05 165.466 116.74 166.02 116.532C166.573 116.222 167.236 115.911 167.789 115.704C168.453 115.393 168.896 114.771 168.896 113.839L169.006 58.0962C169.117 56.1276 167.568 53.8482 165.466 52.9157Z" fill="#168CA8"/>
<path d="M165.467 59.7539L165.356 115.496C165.356 117.361 163.697 118.087 161.706 117.154L87.8148 82.6518C85.8238 81.7193 84.1646 79.4399 84.1646 77.5749L84.2752 21.8326C84.2752 19.9676 85.9344 19.2423 87.9255 20.1748L161.927 54.677C163.918 55.6095 165.467 57.889 165.467 59.7539Z" fill="#33B3C4"/>
<path d="M160.378 56.9564L89.4742 23.8011C88.2574 23.283 87.2619 23.6975 87.2619 24.8372L87.1512 77.1604C87.1512 78.3001 88.1468 79.647 89.3635 80.1651L160.268 113.32C161.484 113.838 162.48 113.424 162.48 112.284L162.591 59.9611C162.591 58.925 161.595 57.578 160.378 56.9564Z" fill="#BFF7F3"/>
<path d="M126.42 95.8104L158.387 110.73V67.6284L126.42 52.6049V95.8104Z" fill="#9FEDEB"/>
<path opacity="0.35" d="M108.168 87.2108L124.097 94.6708V51.5689L108.168 44.0054V87.2108Z" fill="white"/>
<path d="M153.963 113.113L154.848 112.803V69.7007L122.991 54.7808L121.995 54.988L153.963 113.113Z" fill="#BFF7F3"/>
<path opacity="0.35" d="M90.359 78.922L106.398 86.382V43.28L90.359 35.8201V78.922Z" fill="white"/>
<path d="M121.995 98.0898L153.963 113.113V69.9078L121.995 54.9879V98.0898Z" fill="#E9FFFC"/>
<path d="M123.212 67.732L135.048 73.3269V64.4164L123.212 58.7179V67.732Z" fill="#BFF7F3"/>
<path d="M123.212 80.2689L150.313 93.0129V83.9989L123.212 71.3584V80.2689Z" fill="#BFF7F3"/>
<path d="M123.212 92.184L150.313 104.824V95.914L123.212 83.1699V92.184Z" fill="#BFF7F3"/>
<path d="M120.668 80.8906L147.769 93.6346V84.6205L120.668 71.8765V80.8906Z" fill="white"/>
<path d="M120.778 92.7021L147.879 105.446V96.4321L120.778 83.7916V92.7021Z" fill="white"/>
<path d="M121 68.6645L132.835 74.2594V65.2453L121 59.6504V68.6645Z" fill="white"/>
<path d="M138.698 75.0884L150.534 80.6834V71.7728L138.698 66.0742V75.0884Z" fill="#BFF7F3"/>
<path d="M130.955 76.2281L142.68 82.4447L143.123 82.0303V73.2234L130.955 67.3176L130.402 67.5248L130.955 76.2281Z" fill="#9FEDEB"/>
<path d="M89.5851 33.4369L159.826 66.0742V58.9251L89.5851 26.3914V33.4369Z" fill="#9FEDEB"/>
<path d="M130.402 76.5389L142.68 82.4447V73.4306L130.402 67.6284V76.5389Z" fill="white"/>
<path d="M152.635 61.8262L158.94 64.8309V60.0649L152.635 57.0602V61.8262Z" fill="#BFF7F3"/>
<path d="M145.335 58.4071L151.64 61.4117V56.6457L145.335 53.641V58.4071Z" fill="#BFF7F3"/>
<path d="M138.034 54.988L144.34 57.9927V53.2266L138.034 50.2219V54.988Z" fill="#BFF7F3"/>
<path opacity="0.3" d="M110.491 132.489C113.256 135.079 120.336 137.151 126.309 137.151C132.282 137.151 135.047 135.079 132.282 132.489C129.517 129.898 122.437 127.826 116.464 127.826C110.491 127.826 107.725 130.002 110.491 132.489Z" fill="#1D99B3"/>
<path fill-rule="evenodd" clip-rule="evenodd" d="M115.137 128.862V130.002L117.128 131.038L122.216 128.862L122.548 125.547L118.455 126.272L115.137 128.862Z" fill="#002B6A"/>
<path fill-rule="evenodd" clip-rule="evenodd" d="M126.198 132.903C126.308 132.903 129.959 133.421 129.959 133.421L131.397 135.182L130.844 135.804L122.548 136.529L121.663 135.7L120.999 135.079L121.884 132.385L126.198 132.903Z" fill="#002B6A"/>
<path fill-rule="evenodd" clip-rule="evenodd" d="M118.787 101.095C118.787 101.302 118.455 102.338 118.455 102.338L117.792 106.897L116.685 116.014L114.805 124.303V129.277L116.796 129.898L119.672 128.033L122.88 112.388L118.787 101.095Z" fill="#002B6A"/>
<path fill-rule="evenodd" clip-rule="evenodd" d="M129.848 104.617C129.848 104.617 129.627 117.361 129.516 117.465C129.406 117.569 126.53 133.732 126.53 133.732C126.53 133.732 124.428 135.39 124.207 135.286C124.096 135.182 120.667 133.939 120.667 133.939L122.769 121.402C122.769 121.402 121.995 110.005 121.884 109.901C121.11 109.073 117.791 106.171 117.791 106.171L118.344 102.234L129.848 104.617Z" fill="#003D75"/>
<path fill-rule="evenodd" clip-rule="evenodd" d="M142.79 80.6833C142.79 80.5797 144.671 77.2642 144.671 77.2642L143.786 74.363L143.233 74.6739L143.122 76.0208L142.458 76.3317L141.573 76.4353L141.242 79.8545L142.79 80.6833Z" fill="#F9A873"/>
<path fill-rule="evenodd" clip-rule="evenodd" d="M130.955 73.2234L131.729 71.462L130.623 70.0115V68.1465L130.291 67.6284L129.295 69.7006V72.9126L130.955 73.2234Z" fill="#F9A873"/>
<path fill-rule="evenodd" clip-rule="evenodd" d="M143.343 79.8544L143.454 80.787L142.016 82.652L140.357 79.6472L141.021 78.6111L143.343 79.8544Z" fill="white"/>
<path fill-rule="evenodd" clip-rule="evenodd" d="M131.397 74.674L131.95 74.0523L131.729 73.4306L129.406 72.0837L129.185 72.6018L131.397 74.674Z" fill="white"/>
<path fill-rule="evenodd" clip-rule="evenodd" d="M125.866 90.4227L135.158 86.6927L140.578 78.8184L143.122 80.2689L143.454 81.0978L137.923 90.0082L127.968 95.7068H125.535C125.645 95.7068 123.433 93.0129 125.866 90.4227Z" fill="#002B6A"/>
<path fill-rule="evenodd" clip-rule="evenodd" d="M131.508 73.5342L129.185 72.1873L125.535 78.7147L117.238 84.4133L119.672 87.2108L128.521 81.9267L131.84 74.7775L131.508 73.5342Z" fill="#002B6A"/>
<path fill-rule="evenodd" clip-rule="evenodd" d="M128.742 89.1794L119.229 84.4133H117.238L116.021 89.1794L119.008 98.0899L117.681 102.338L126.198 106.897L130.291 105.653L130.18 103.996L129.627 97.0538L130.291 91.9769L128.742 89.1794Z" fill="#002B6A"/>
<path fill-rule="evenodd" clip-rule="evenodd" d="M125.977 88.0397C125.977 87.9361 125.977 85.035 125.977 85.035C125.977 85.035 122.658 83.9989 122.437 84.1025C122.327 84.2061 120.889 85.9675 120.889 85.9675L123.101 87.8324L125.977 88.0397Z" fill="#F9A873"/>
<path fill-rule="evenodd" clip-rule="evenodd" d="M124.539 86.4855C124.539 86.2783 127.525 83.7916 127.525 83.7916V79.6472L125.866 81.4086L124.539 86.4855Z" fill="#F9A873"/>
<path fill-rule="evenodd" clip-rule="evenodd" d="M128.189 78.922L125.424 76.9534L121.995 77.4714L119.893 79.9581L120.667 85.1385L124.096 86.4855L126.198 84.4133L126.64 81.305L128.189 78.922Z" fill="#11487F"/>
<path fill-rule="evenodd" clip-rule="evenodd" d="M120.999 85.7603L123.543 87.2108L125.977 87.5216L126.198 88.0397H123.322L120.446 86.2783L120.557 85.6567L121.331 85.4495L120.999 85.7603Z" fill="white"/>
<path d="M103.743 7.32703C103.743 7.32703 102.748 7.32703 102.195 7.84508C101.752 8.36313 100.757 13.5437 100.757 13.5437L97.1062 20.7964L98.9867 21.2108L102.195 16.4447L103.743 7.32703Z" fill="#002B6A"/>
<path d="M97.6594 41.3113L99.3186 42.2438L98.8761 44.6268L98.5443 46.9062H97.9912V45.7665L97.3275 46.9062V47.9423L96.2214 48.4604L93.3454 48.6676L92.7924 48.4604L92.903 47.1135L95.4471 45.0412L97.6594 41.3113Z" fill="#002B6A"/>
<path d="M92.4605 43.2798L90.9119 45.0412V46.4917C90.9119 46.4917 91.2437 47.0098 91.3543 47.0098C91.4649 47.0098 93.6772 46.3881 93.6772 46.3881L94.0091 45.4556L94.6728 44.6268L95.1152 45.1448L96.5532 40.6896L95.2258 39.9644L92.4605 43.2798Z" fill="#002B6A"/>
<path d="M94.009 46.6989L94.894 45.5592L95.3364 43.0726L96.332 40.0679L97.1063 34.0585C97.1063 34.0585 100.425 35.3018 100.425 35.509C100.425 35.6126 98.1019 41.2076 98.1019 41.2076L98.5443 42.5545L96.4426 46.5953L95.4471 47.0098L94.009 46.6989Z" fill="#F9A873"/>
<path d="M92.9028 45.0413L91.9072 44.4196L92.0178 43.9015L92.7921 42.6582L93.4558 40.3788L93.6771 39.3427L93.0134 33.1261L96.1106 34.6802L95.4469 38.4102L95.5575 40.586L94.3408 43.5907L92.9028 45.0413Z" fill="#F9A873"/>
<path d="M99.0972 28.2564L96.2212 29.3961L96.8849 37.2705L92.6815 36.1308L92.4603 27.5311L101.752 20.382L103.411 22.9722L99.0972 28.2564Z" fill="#002B6A"/>
<path d="M110.601 26.3914C110.49 26.3914 100.424 31.7791 100.424 31.7791V35.8199C100.424 35.8199 100.093 39.5499 99.7607 39.4462C99.4288 39.3426 96.221 38.5138 96.221 38.5138L96.6635 30.0178L100.314 25.8734L103.411 22.9723H111.707L110.601 26.3914Z" fill="#002B6A"/>
<path d="M110.933 16.4448L109.605 19.4494L111.707 22.9722H103.411L101.752 20.3819L102.968 17.8953L101.973 14.9942L101.309 14.4762L101.42 12.1968L102.415 10.539L103.411 7.63794L109.163 8.46682L110.933 9.71013V16.4448Z" fill="#002B6A"/>
<path d="M97.8804 26.1842L100.093 28.2563L104.517 25.4589L97.3273 21.9362L96.2212 25.3553L97.8804 26.1842Z" fill="#B33939"/>
<path d="M98.212 20.6927L97.3271 20.9L95.7784 22.2469L96.4421 24.1119L99.0969 23.0758L98.6545 21.1072L98.212 20.6927Z" fill="#F9A873"/>
<path d="M100.093 28.2563L96.8847 22.3506L89.5841 18.517L92.5707 24.3192L100.093 28.2563Z" fill="#FF5252"/>
<path d="M105.292 23.5939L104.517 24.1119L103.964 24.0083L101.752 24.63V26.495L102.969 26.9094L105.734 25.6661L106.509 25.0444L105.292 23.5939Z" fill="#F9A873"/>
<path d="M105.181 7.01616C105.181 7.01616 105.624 7.84506 105.292 8.46673L104.739 9.08841L105.181 10.2281L109.053 8.67396C109.053 8.67396 107.947 8.88118 107.726 8.46673C107.504 8.05228 107.504 5.66919 107.504 5.66919L105.181 7.01616Z" fill="#F9A873"/>
<path d="M102.526 3.38982L102.305 5.35842L103.743 8.36312L104.739 8.67395L107.062 7.43062C107.062 7.43062 108.057 5.98008 108.057 5.04759C108.057 2.76816 105.292 1.73206 105.292 1.73206L102.858 3.07899L102.526 3.38982Z" fill="#F9A873"/>
<path d="M102.748 2.25016C102.748 2.25016 103.633 4.21876 105.845 4.52959C108.057 4.84042 108.942 4.32237 108.942 4.32237L110.27 3.80432C110.27 3.80432 109.053 0.592399 107.283 0.0743478C105.513 -0.340093 102.637 1.11045 102.637 1.11045L102.748 2.25016Z" fill="#E3FFFE"/>
<path d="M102.195 5.87646C102.195 5.87646 100.868 4.42593 100.978 3.70067C101.089 3.07901 101.421 2.14653 102.084 1.62848C102.748 1.21404 103.301 1.73209 103.412 2.04292C103.522 2.35374 103.08 3.18262 102.637 4.1151C102.195 5.1512 102.195 5.87646 102.195 5.87646Z" fill="#E3FFFE"/>
<path d="M106.398 3.18259C106.398 3.18259 107.062 4.21869 106.509 4.94396C106.066 5.56562 105.624 6.3945 106.177 7.22338C106.73 8.05226 107.504 9.71002 108.942 9.29558C110.38 8.88114 111.044 9.60641 111.929 10.7461C112.814 11.8858 112.924 10.7461 112.482 9.71002C112.15 8.67392 111.376 6.60172 109.495 6.29089C108.168 6.08367 109.495 6.29089 109.495 6.29089C109.495 6.29089 110.27 5.15118 110.159 3.80425C110.048 2.56093 106.177 0.281509 105.845 0.281509C102.969 0.488729 106.398 3.18259 106.398 3.18259Z" fill="#E3FFFE"/>
<path d="M110.933 9.71017C110.933 9.71017 112.26 10.7463 112.26 11.5752C112.26 12.404 113.256 19.864 113.256 19.864V20.4857L105.955 25.5626L104.517 23.9048L110.048 19.346L109.495 13.2329C109.716 13.2329 108.942 10.7463 110.933 9.71017Z" fill="#11487F"/>
<path d="M54.5697 119.149L53.7995 121.018L29.3825 109.628L26.5723 105.852L33.6289 96.6427L33.5457 94.6569L24.6989 90.5295L26.5723 84.1827L36.0019 80.2889C37.0219 78.2057 38.25 76.1615 39.6863 74.2536L37.4174 66.3687L42.8712 61.19L49.782 64.597C51.6763 63.2537 53.0918 62.4555 55.0901 61.5599L60.2108 51.4166L66.06 50.4237L77.4879 55.7192L79.9442 54.006L104.32 65.3953C104.798 66.9333 89.8734 76.2589 89.8734 76.2589L108.524 84.942L94.6819 86.9083C93.6619 88.9915 85.6894 104.216 84.2739 106.144L90.4771 114.223L77.5712 108.207L67.2466 125.067L54.5697 119.149Z" fill="#9FEDEB"/>
<path d="M89.9584 84.8641L78.2807 82.0216L70.7245 87.7455L67.7686 99.4073L71.1408 105.657L78.8427 105.968C78.8427 105.968 78.9884 109.317 82.7769 102.659C86.5654 96.0003 86.5654 96.0003 86.5654 96.0003L91.1865 89.7702L89.9584 84.8641Z" fill="#168CA8"/>
<path opacity="0.31" d="M94.0166 104.275L69.5996 92.9048L60.17 96.7985L84.587 108.168L94.0166 104.275Z" fill="#33B3C4"/>
<path d="M67.2468 125.067L67.8921 115.761C66.1644 115.605 64.624 115.177 63.2709 114.476L53.7997 120.998L50.9896 117.221L58.0462 108.013C57.5674 106.475 57.3384 104.742 57.3801 102.853L49.1161 101.899L50.9896 95.5525L60.4192 91.6587C61.4391 89.5756 62.6673 87.5313 64.1036 85.6234L61.8347 77.7385L67.2676 72.5598L73.6164 76.2978C75.5107 74.9545 77.4674 73.8253 79.4657 72.9492L84.5864 62.8059L90.4357 61.813L89.9153 70.9049C91.643 71.0607 93.1834 71.489 94.5364 72.1704L104.32 65.3953L107.13 69.1722L99.7404 78.6341C100.219 80.1721 100.448 81.9048 100.406 83.7933L108.525 84.942L106.651 91.2888L97.3882 94.9879C96.3682 97.0711 95.14 99.1153 93.7038 101.023L95.9311 109.044L90.4773 114.223L84.1701 110.368C82.2758 111.712 80.3191 112.841 78.3208 113.736L73.096 124.094L67.2468 125.067ZM76.0935 102.873C80.9644 102.055 86.1684 97.11 87.7088 91.8145C89.27 86.5384 86.5847 82.9172 81.7138 83.7544C76.8429 84.5721 71.6389 89.5172 70.0985 94.8127C68.5374 100.089 71.2226 103.71 76.0935 102.873Z" fill="#33B3C4"/>
<path d="M42.8505 61.1901L67.2676 72.5599L61.8138 77.7386L37.3967 66.3688L42.8505 61.1901Z" fill="#E6FFFE"/>
<path d="M60.4185 91.6783L36.0014 80.2891L26.5718 84.1828L50.9888 95.572L60.4185 91.6783Z" fill="#E6FFFE"/>
<path d="M60.1696 51.4166L84.5865 62.7864L90.4358 61.7935L66.0188 50.4237L60.1696 51.4166Z" fill="#E6FFFE"/>
<path d="M58.0461 108.013L50.9896 117.221L26.5726 105.852L33.6292 96.6428L58.0461 108.013Z" fill="#E6FFFE"/>
<path d="M20.8265 128.533L20.3061 129.818L3.50771 121.991L1.57185 119.382L6.42193 113.055L6.3595 111.692L0.28125 108.85L1.57185 104.489L8.04558 101.821C8.75332 100.381 9.60677 98.9984 10.5643 97.6746L9.00311 92.2427L12.75 88.6799L17.496 91.0357C18.8074 90.1206 19.7649 89.556 21.1388 88.9525L24.6566 81.9631L28.6741 81.2817L36.5425 84.9224L38.2286 83.7543L55.027 91.5808C55.3601 92.6516 45.077 99.0568 45.077 99.0568L57.9204 105.034L48.4076 106.397C47.6998 107.837 42.2252 118.312 41.2469 119.616L45.5142 125.165L36.6466 121.037L29.5484 132.621L20.8265 128.533Z" fill="#9FEDEB"/>
<path d="M45.9521 104.158L38.6042 101.452L31.9847 107.584L29.9031 115.586L33.0255 120.142L37.8756 119.694L40.8939 117.805L43.4959 113.055L45.9521 104.158Z" fill="#168CA8"/>
<path opacity="0.31" d="M47.9504 118.312L31.1521 110.485L24.6783 113.152L41.4767 120.979L47.9504 118.312Z" fill="#33B3C4"/>
<path d="M29.5495 132.602L29.9867 126.216C28.8002 126.119 27.7385 125.807 26.8226 125.34L20.3073 129.818L18.3714 127.209L23.2215 120.882C22.8884 119.811 22.7219 118.623 22.7635 117.319L17.0808 116.676L18.3714 112.315L24.8451 109.648C25.5529 108.207 26.4063 106.825 27.3638 105.501L25.8027 100.069L29.5495 96.5065L33.9209 99.0764C35.2323 98.1613 36.5645 97.3826 37.9383 96.779L41.4562 89.7897L45.4737 89.1083L45.1198 95.3578C46.3063 95.4551 47.3679 95.7472 48.3046 96.2339L55.049 91.5808L56.9848 94.1897L51.9058 100.692C52.2388 101.763 52.4054 102.951 52.3637 104.236L57.9424 105.014L56.6518 109.375L50.2821 111.926C49.5744 113.367 48.7209 114.749 47.7634 116.073L49.3038 121.602L45.5569 125.165L41.2272 122.517C39.9158 123.432 38.5836 124.23 37.2098 124.834L33.6086 131.959L29.5495 132.602ZM35.6278 117.338C38.9791 116.774 42.5594 113.367 43.6211 109.745C44.6827 106.124 42.8509 103.632 39.4995 104.197C36.1481 104.761 32.5678 108.168 31.5062 111.79C30.4238 115.43 32.2764 117.922 35.6278 117.338Z" fill="#33B3C4"/>
<path d="M12.7506 88.6801L29.5491 96.487L25.8022 100.05L9.00378 92.2428L12.7506 88.6801Z" fill="#E6FFFE"/>
<path d="M24.8459 109.648L8.04753 101.821L1.57379 104.489L18.3722 112.315L24.8459 109.648Z" fill="#E6FFFE"/>
<path d="M24.6787 81.9437L41.4771 89.7703L45.4946 89.0888L28.6962 81.2817L24.6787 81.9437Z" fill="#E6FFFE"/>
<path d="M23.2217 120.881L18.3716 127.209L1.57318 119.382L6.42326 113.055L23.2217 120.881Z" fill="#E6FFFE"/>
<path d="M40.6032 86.8113L40.2285 87.7458L27.9888 82.0414L26.5733 80.1529L30.112 75.5388L30.0704 74.5459L25.6366 72.4822L26.5733 69.3088L31.2985 67.3619C31.8189 66.3106 32.4226 65.2982 33.1511 64.3442L32.0062 60.392L34.7331 57.7443L38.1886 59.4575C39.1461 58.7956 39.8538 58.3868 40.853 57.939L43.4133 52.8576L46.3484 52.3709L52.0727 54.9992L53.3009 54.1425L65.5406 59.8469C65.7904 60.6257 58.2967 65.2982 58.2967 65.2982L67.6638 69.6592L60.7321 70.6521C60.2117 71.7034 56.2359 79.3352 55.5074 80.2892L58.6297 84.3387L52.156 81.3211L46.9729 89.7705L40.6032 86.8113Z" fill="#9FEDEB"/>
<path d="M52.3444 66.7581C52.2819 66.8165 52.0738 67.0112 51.8032 67.3227C50.5542 68.7049 47.6401 72.0925 47.6401 72.0925C47.6401 72.0925 42.8317 75.889 46.9948 78.4394C51.1579 80.9898 47.4527 82.2747 50.5959 81.3013C53.739 80.3279 53.739 80.3279 53.739 80.3279L56.112 78.3031L58.0687 74.9934L58.6099 71.6058L58.0687 68.2766L52.3444 66.7581Z" fill="#168CA8"/>
<path opacity="0.31" d="M60.3796 79.3544L48.1399 73.65L43.4147 75.5969L55.6544 81.3013L60.3796 79.3544Z" fill="#33B3C4"/>
<path d="M46.9722 89.7703L47.2844 85.1172C46.4309 85.0393 45.6399 84.8252 44.9738 84.4747L40.2278 87.7455L38.8123 85.857L42.351 81.2429C42.1012 80.4641 41.9972 79.6075 42.018 78.6535L37.8756 78.1863L38.8123 75.0128L43.5375 73.0659C44.0579 72.0146 44.6616 71.0022 45.3902 70.0483L44.2453 66.0961L46.9722 63.5067L50.157 65.3757C51.1145 64.7138 52.0929 64.1297 53.092 63.7014L55.6524 58.62L58.5874 58.1333L58.3168 62.689C59.1703 62.7669 59.9613 62.9811 60.6274 63.3315L65.5399 59.9244L66.9554 61.8129L63.2502 66.5633C63.5 67.3421 63.6041 68.1987 63.5832 69.1527L67.6423 69.7173L66.7056 72.8907L62.0637 74.7403C61.5433 75.7916 60.9396 76.804 60.2111 77.7579L61.3351 81.788L58.6082 84.3774L55.4442 82.4305C54.4867 83.0924 53.5083 83.6765 52.5092 84.1243L49.8864 89.3225L46.9722 89.7703ZM51.4059 78.6535C53.8414 78.2447 56.4642 75.7527 57.2344 73.1049C58.0046 70.4571 56.6724 68.6465 54.2161 69.0554C51.7806 69.4642 49.1578 71.9562 48.3876 74.604C47.6174 77.2518 48.9497 79.0624 51.4059 78.6535Z" fill="#33B3C4"/>
<path d="M34.7344 57.744L46.9741 63.4483L44.2472 66.0571L31.9867 60.3528L34.7344 57.744Z" fill="#E6FFFE"/>
<path d="M43.5386 73.0272L31.2989 67.3228L26.5737 69.2891L38.8134 74.9935L43.5386 73.0272Z" fill="#E6FFFE"/>
<path d="M43.4131 52.8573L55.6529 58.5616L58.5879 58.0555L46.3482 52.3511L43.4131 52.8573Z" fill="#E6FFFE"/>
<path d="M42.3523 81.2236L38.8136 85.8572L26.574 80.1528L30.1126 75.5192L42.3523 81.2236Z" fill="#E6FFFE"/>
</svg>
