<svg width="99" height="63" viewBox="0 0 99 63" fill="none" xmlns="http://www.w3.org/2000/svg">
<path d="M83.2936 7.74255V14.7969L51.2843 33.5511V26.3247L83.2936 7.74255Z" fill="#FFC104"/>
<path d="M83.293 7.74256L51.2837 26.3247L18.9302 7.74256C27.707 2.58085 39.4093 0 51.1116 0C62.814 0 74.3442 2.58085 83.293 7.74256Z" fill="#FFE44A"/>
<path d="M51.2837 26.3247V34.4114L18.9302 15.6572V7.74255L51.2837 26.3247Z" fill="#FFC104"/>
<path d="M0 33.207V25.4644C0 28.7335 1.03256 32.1746 3.26978 35.2717V43.0142C1.03256 39.9172 0 36.4761 0 33.207Z" fill="#00ADBD"/>
<path d="M45.605 25.4644L45.4329 34.5834L3.27008 43.0142V35.2717L45.605 25.4644Z" fill="#008C99"/>
<path d="M13.2513 6.88226L45.6048 25.4644L3.26995 35.2717C-3.26958 25.6365 0.000184214 14.4528 13.2513 6.88226Z" fill="#63F2FF"/>
<path d="M98.0928 28.0453V35.7878C98.0928 42.4981 93.6184 49.2083 84.8416 54.37C76.0649 59.5317 64.3625 62.1125 52.6602 62.1125V54.37C64.3625 54.37 75.8928 51.7891 84.8416 46.6274C93.6184 41.4657 98.0928 34.7555 98.0928 28.0453Z" fill="#D62222"/>
<path d="M84.6698 9.29108C89.1442 11.8719 92.5861 14.969 94.8233 18.238C101.363 27.7012 98.0931 38.8849 84.8419 46.6274C76.0652 51.7892 64.3628 54.37 52.6605 54.37L52.4884 28.0453L84.6698 9.29108Z" fill="#FF5542"/>
<path d="M51.2843 26.3247L51.4564 52.6494C39.7541 52.6494 28.2238 50.0686 19.275 44.9069C14.8006 42.326 11.3587 39.229 9.12152 35.9599L51.2843 26.3247Z" fill="#95D94C"/>
<path d="M51.4564 52.6495V60.392C39.7541 60.392 28.2238 57.8112 19.275 52.6495C14.6285 50.0686 11.3587 46.9716 9.12152 43.7025V35.96C11.3587 39.229 14.8006 42.3261 19.275 44.9069C28.0517 50.0686 39.7541 52.6495 51.4564 52.6495Z" fill="#67A329"/>
</svg>
