<svg width="122" height="121" viewBox="0 0 122 121" fill="none" xmlns="http://www.w3.org/2000/svg">
<path d="M111.562 97.3595L73.6708 116.431C71.8934 117.334 68.9827 117.334 67.1795 116.431L1.33947 83.4754C0.437907 83.0367 0 82.4432 0 81.8496C0 82.9335 0 84.0174 0 85.1013C0 85.6948 0.437907 86.2884 1.33947 86.7271L67.2053 119.656C68.9827 120.56 71.9192 120.56 73.6966 119.656L111.562 100.585C112.438 100.147 112.876 99.553 112.902 98.9595C112.902 97.8756 112.902 96.7917 112.902 95.7078C112.876 96.3272 112.438 96.8949 111.562 97.3595Z" fill="#168CA8"/>
<path d="M111.537 94.1078L45.6972 61.1784C43.8941 60.2752 40.9833 60.2752 39.206 61.1784L1.3402 80.2238C-0.437169 81.127 -0.437171 82.5722 1.36596 83.4754L67.2318 116.405C69.0092 117.308 71.9457 117.308 73.7231 116.405L111.615 97.3337C113.34 96.4562 113.34 94.9852 111.537 94.1078Z" fill="#3DBFC9"/>
<path d="M79.7512 86.1337L75.6297 88.224L70.5552 85.695L74.6766 83.6046L79.7512 86.1337Z" fill="#70E2E5"/>
<path d="M84.7222 103.837L80.6265 105.927L70.1426 100.714L74.264 98.6241L84.7222 103.837Z" fill="#70E2E5"/>
<path d="M98.8633 90.598L94.7419 92.6884L89.6674 90.1593L93.7888 88.069L98.8633 90.598Z" fill="#70E2E5"/>
<path d="M88.0981 95.3467L83.9766 97.437L78.8763 94.908L82.9978 92.8176L88.0981 95.3467Z" fill="#70E2E5"/>
<path d="M82.3771 92.5078L78.2557 94.5982L73.1812 92.0691L77.3026 89.9788L82.3771 92.5078Z" fill="#70E2E5"/>
<path d="M91.3172 91.8884L87.1957 93.9788L82.1212 91.4497L86.2169 89.3594L91.3172 91.8884Z" fill="#70E2E5"/>
<path d="M104.918 93.5917L100.797 95.682L95.7222 93.153L99.8436 91.0626L104.918 93.5917Z" fill="#70E2E5"/>
<path d="M76.6597 89.6691L72.5383 91.7594L67.4637 89.2046L71.5852 87.14L76.6597 89.6691Z" fill="#70E2E5"/>
<path d="M74.856 93.8239L70.7346 95.9142L65.66 93.3852L69.7815 91.2948L74.856 93.8239Z" fill="#70E2E5"/>
<path d="M80.5763 96.6627L76.4549 98.7531L71.3804 96.224L75.476 94.1337L80.5763 96.6627Z" fill="#70E2E5"/>
<path d="M69.1888 91.0111L65.0931 93.1015L59.9928 90.5724L64.1142 88.4821L69.1888 91.0111Z" fill="#70E2E5"/>
<path d="M99.8953 96.1466L95.7739 98.2369L87.8916 94.3401L92.013 92.2498L99.8953 96.1466Z" fill="#70E2E5"/>
<path d="M94.5624 98.8563L89.797 101.256L87.0665 102.65L85.6755 103.347L77.0978 99.0886L81.2192 96.9982L83.8724 98.3144L88.6378 95.8885L94.5624 98.8563Z" fill="#70E2E5"/>
<path d="M73.7485 98.3659L69.627 100.456L61.6932 96.5078L65.8147 94.4175L73.7485 98.3659Z" fill="#70E2E5"/>
<path d="M50.4874 66.5462L46.3917 68.6366L38.9989 64.9204L43.0946 62.8301L50.4874 66.5462Z" fill="#70E2E5"/>
<path d="M56.6192 74.6238L52.4978 76.7141L47.4232 74.1851L51.5447 72.0947L56.6192 74.6238Z" fill="#70E2E5"/>
<path d="M80.7297 81.5659L76.6082 83.6563L71.5337 81.1272L75.6551 79.0369L80.7297 81.5659Z" fill="#70E2E5"/>
<path d="M73.9556 83.2432L69.8342 85.3335L64.7596 82.8045L68.8811 80.7141L73.9556 83.2432Z" fill="#70E2E5"/>
<path d="M65.2995 94.1595L61.1781 96.2498L38.8707 85.1271L42.9664 83.0367L65.2995 94.1595Z" fill="#70E2E5"/>
<path d="M56.5412 69.5139L52.4198 71.6043L47.3452 69.0752L51.4409 66.9849L56.5412 69.5139Z" fill="#70E2E5"/>
<path d="M40.4932 76.7142L36.3718 78.8045L23.8787 72.5851L27.9743 70.4948L40.4932 76.7142Z" fill="#70E2E5"/>
<path d="M74.6777 78.5463L70.5562 80.6366L65.4817 78.1076L69.6031 76.0172L74.6777 78.5463Z" fill="#70E2E5"/>
<path d="M53.7869 78.2883L49.6655 80.3529L44.5909 77.8496L48.7124 75.7593L53.7869 78.2883Z" fill="#70E2E5"/>
<path d="M33.6939 78.4172L29.5724 80.5076L18.8052 75.1398L22.9266 73.0494L33.6939 78.4172Z" fill="#70E2E5"/>
<path d="M68.1852 80.3787L64.0638 82.469L58.9893 79.94L63.1107 77.8496L68.1852 80.3787Z" fill="#70E2E5"/>
<path d="M46.2631 79.6044L42.1417 81.6947L37.0671 79.1657L41.1886 77.0753L46.2631 79.6044Z" fill="#70E2E5"/>
<path d="M59.5045 81.127L55.383 83.2173L50.3085 80.6883L54.4299 78.5979L59.5045 81.127Z" fill="#70E2E5"/>
<path d="M51.9303 82.4174L47.8089 84.5077L42.7344 81.9787L46.8558 79.8883L51.9303 82.4174Z" fill="#70E2E5"/>
<path d="M86.7844 84.5593L82.663 86.6497L77.5885 84.1206L81.7099 82.0303L86.7844 84.5593Z" fill="#70E2E5"/>
<path d="M42.2452 82.6755L38.1495 84.7658L30.1899 80.8174L34.3114 78.7271L42.2452 82.6755Z" fill="#70E2E5"/>
<path d="M65.2219 83.9658L61.1005 86.0562L56.026 83.5271L60.1474 81.4368L65.2219 83.9658Z" fill="#70E2E5"/>
<path d="M57.6485 85.2562L53.5271 87.3466L48.4268 84.8175L52.5482 82.7272L57.6485 85.2562Z" fill="#70E2E5"/>
<path d="M92.8365 87.5786L88.715 89.669L83.6405 87.1399L87.7362 85.0496L92.8365 87.5786Z" fill="#70E2E5"/>
<path d="M70.9422 86.8046L66.8208 88.8949L61.7462 86.3659L65.8677 84.2755L70.9422 86.8046Z" fill="#70E2E5"/>
<path d="M85.5217 89.0239L81.4002 91.0885L76.3257 88.5594L80.4471 86.4949L85.5217 89.0239Z" fill="#70E2E5"/>
<path d="M63.2901 88.0691L59.1687 90.1594L54.0941 87.6304L58.2156 85.54L63.2901 88.0691Z" fill="#70E2E5"/>
<path d="M62.5966 72.5336L58.4752 74.6239L53.3749 72.0949L57.4963 70.0045L62.5966 72.5336Z" fill="#70E2E5"/>
<path d="M50.5651 71.6044L46.4694 73.6948L33.9506 67.4754L38.072 65.385L50.5651 71.6044Z" fill="#70E2E5"/>
<path d="M42.3483 72.585L38.2269 74.6754L28.9021 70.0302L33.0235 67.9398L42.3483 72.585Z" fill="#70E2E5"/>
<path d="M68.6229 75.527L64.5014 77.6173L59.4269 75.0883L63.5483 72.9979L68.6229 75.527Z" fill="#70E2E5"/>
<path d="M48.0667 75.4238L43.9453 77.5142L38.8707 74.9851L42.9922 72.8948L48.0667 75.4238Z" fill="#70E2E5"/>
<path d="M62.3897 77.4882L58.294 79.5785L53.1937 77.0494L57.3152 74.9591L62.3897 77.4882Z" fill="#70E2E5"/>
<path opacity="0.57" d="M43.5065 90.8047L33.0741 96.0434L16.949 87.9917L27.4071 82.7272L43.5065 90.8047Z" fill="#168CA8"/>
<path d="M115.271 33.2813L49.4055 0.377742C48.5039 -0.0609729 47.6796 -0.112587 47.0872 0.197094C46.0053 0.739036 44.9234 1.28098 43.8416 1.82292C44.434 1.51324 114.756 94.4433 114.164 94.7272C114.705 94.4691 115.246 94.1853 115.787 93.9014C116.327 93.6175 116.868 93.3594 117.409 93.0756C118.002 92.7917 118.362 92.1465 118.362 91.2691L118.491 38.133C118.517 36.3781 117.049 34.1846 115.271 33.2813Z" fill="#168CA8"/>
<path d="M112.026 34.9329L46.1602 2.00351C44.3571 1.10028 42.9146 1.82287 42.8888 3.60353L42.76 56.7396C42.76 58.5203 44.2025 60.7138 46.0056 61.6171L111.871 94.5465C113.649 95.4497 115.117 94.7013 115.143 92.9207L115.272 39.7846C115.272 38.0039 113.803 35.8103 112.026 34.9329Z" fill="#33B3C4"/>
<path d="M110.713 37.1523L47.4745 5.53902C46.3927 4.99707 45.5169 5.43579 45.5169 6.51967L45.4138 56.4557C45.4138 57.5138 46.2896 58.8299 47.3457 59.3719L110.584 90.9851C111.666 91.5271 112.542 91.0883 112.542 90.0303L112.645 40.0942C112.645 39.0104 111.769 37.6942 110.713 37.1523Z" fill="#9FEDEB"/>
<path opacity="0.54" d="M101.337 32.4813L47.4745 5.53902C46.3927 4.99707 45.5169 5.43579 45.5169 6.51967L45.4138 39.6555L101.337 32.4813Z" fill="#DEFFFC"/>
<path d="M82.5838 22.0554L72.2802 16.8941C72.0741 16.7908 71.8938 16.5328 71.8938 16.3263C71.8938 16.1198 72.0741 16.0166 72.2802 16.1457L82.6096 21.307C82.8156 21.4102 82.9959 21.6683 82.9959 21.8748C82.9702 22.0812 82.8156 22.1586 82.5838 22.0554Z" fill="#168CA8"/>
<path d="M85.3034 23.3649C85.5276 23.1894 85.4681 22.7376 85.1704 22.3556C84.8728 21.9737 84.4497 21.8063 84.2254 21.9817C84.0011 22.1571 84.0606 22.609 84.3583 22.9909C84.656 23.3729 85.0791 23.5403 85.3034 23.3649Z" fill="#168CA8"/>
<g opacity="0.48">
<path opacity="0.48" d="M64.7597 25.6683V24.249L52.0089 17.7715V19.1909L64.7597 25.6683Z" fill="white"/>
<path opacity="0.48" d="M64.7597 28.3523V26.9587L52.0089 20.4554V21.8748L64.7597 28.3523Z" fill="white"/>
<path opacity="0.48" d="M64.7597 31.0361V29.6425L52.0089 23.165V24.5586L64.7597 31.0361Z" fill="white"/>
<g opacity="0.48">
<path opacity="0.48" d="M71.9211 27.9651V29.3587L84.6976 35.8619V34.4426L71.9211 27.9651Z" fill="white"/>
<path opacity="0.48" d="M71.9208 32.0684L84.6973 38.5459V37.1265L71.9208 30.649V32.0684Z" fill="white"/>
<path opacity="0.48" d="M71.9208 34.7523L84.6973 41.2298V39.8362L71.9208 33.3329V34.7523Z" fill="white"/>
<path opacity="0.48" d="M71.9208 41.4879L84.6973 47.9654V46.5719L71.9208 40.0944V41.4879Z" fill="white"/>
<path opacity="0.48" d="M71.9208 44.1716L84.6973 50.6491V49.2556L71.9208 42.7781V44.1716Z" fill="white"/>
<path opacity="0.48" d="M71.9208 46.8557L84.6973 53.359V51.9397L71.9208 45.4622V46.8557Z" fill="white"/>
<path opacity="0.48" d="M71.9208 53.617L84.6973 60.0945V58.7009L71.9208 52.1976V53.617Z" fill="white"/>
<path opacity="0.48" d="M71.9208 56.3009L84.6973 62.7784V61.3848L71.9208 54.9073V56.3009Z" fill="white"/>
<path opacity="0.48" d="M71.9208 58.9848L84.6973 65.4623V64.0687L71.9208 57.5912V58.9848Z" fill="white"/>
</g>
<path opacity="0.48" d="M64.7597 33.7199V32.3264L52.0089 25.8489V27.2424L64.7597 33.7199Z" fill="white"/>
<path opacity="0.48" d="M94.203 55.5783L89.6952 53.2815V67.8365L94.203 70.1333V55.5783Z" fill="white"/>
<path opacity="0.48" d="M100.152 50.7267L95.644 48.4299V70.8818L100.152 73.1786V50.7267Z" fill="white"/>
<path opacity="0.48" d="M106.129 45.9008L101.621 43.604V73.9269L106.129 76.1979V45.9008Z" fill="white"/>
<path opacity="0.48" d="M59.5562 43.8878L59.4274 35.7587C59.2729 35.6813 59.1441 35.6039 58.9895 35.5264C55.0484 33.6168 51.88 35.6297 51.9315 40.0684C51.983 44.5072 55.2287 49.6427 59.1956 51.5782C63.1367 53.4879 66.3051 51.475 66.2536 47.0363C66.2536 46.9588 66.2536 46.9072 66.2536 46.8298L59.5562 43.8878Z" fill="white"/>
<path opacity="0.48" d="M48.8649 11.965V51.4751L49.0967 51.6041L110.043 82.5722V43.0621L109.811 42.933L48.8649 11.965ZM49.8437 13.565L109.115 43.6814V80.9722L49.8437 50.8557V13.565Z" fill="white"/>
</g>
<path d="M92.4047 49.8563C91.3743 49.3402 90.5243 48.1531 90.3697 47.095L75.3779 39.5852V38.7594V34.14C74.4764 33.469 73.7809 32.3077 73.7809 31.3271C73.7809 30.1916 74.7082 29.7271 75.8416 30.2948C76.975 30.8625 77.9023 32.2561 77.9023 33.3916C77.9023 34.4239 77.1553 34.8884 76.1765 34.5787V39.1723L90.3955 46.295C90.6273 45.495 91.4258 45.2369 92.4047 45.7272C93.5381 46.295 94.4654 47.6885 94.4654 48.824C94.4654 49.9595 93.5381 50.4241 92.4047 49.8563Z" fill="white"/>
<path d="M97.4018 59.1725C96.3714 58.6564 95.5214 57.4693 95.3668 56.4112L86.4542 51.9467C86.2997 52.8499 85.4496 53.1854 84.4192 52.6692C83.2858 52.1015 82.3585 50.7079 82.3585 49.5724C82.3585 48.4369 83.2858 47.9724 84.4192 48.5402C85.3981 49.0305 86.2224 50.1144 86.4284 51.1208L95.3926 55.6112C95.5987 54.8112 96.423 54.5531 97.4018 55.0435C98.5352 55.6112 99.4625 57.0048 99.4625 58.1403C99.4625 59.2758 98.5352 59.7403 97.4018 59.1725Z" fill="white"/>
<path d="M62.6016 53.1595C63.6835 53.7015 64.5593 54.9402 64.6623 56.0499L77.104 62.2951V54.295L77.207 54.3467L92.1988 61.8564C92.3533 60.9274 93.2034 60.5919 94.2337 61.108C95.3671 61.6758 96.2945 63.0693 96.2945 64.2048C96.2945 65.3403 95.3671 65.8049 94.2337 65.2371C93.2807 64.7468 92.4563 63.6887 92.2245 62.6822L77.9025 55.508V63.5081L77.6449 63.379L64.5336 56.8241C64.276 57.5467 63.4774 57.7532 62.5501 57.2886C61.4167 56.7209 60.4894 55.3273 60.4894 54.1918C60.5409 53.0563 61.4682 52.5918 62.6016 53.1595Z" fill="white"/>
<path d="M119.732 75.6631C118.599 75.0953 117.671 75.4566 117.517 76.4631L101.186 68.2823V69.1856V74.2179C100.181 73.9598 99.4598 74.476 99.4598 75.5341C99.4598 76.7728 100.464 78.2954 101.701 78.9147C102.937 79.5341 103.942 79.0438 103.942 77.7792C103.942 76.6696 103.143 75.3276 102.061 74.605V69.5985L117.543 77.3663C117.774 78.476 118.676 79.6373 119.732 80.1793C120.969 80.7986 121.973 80.3083 121.973 79.0438C121.973 77.805 120.969 76.2824 119.732 75.6631Z" fill="white"/>
<path d="M119.733 67.792C118.626 67.2242 117.698 67.5855 117.518 68.5662L107.833 63.7145C107.652 62.5532 106.725 61.2629 105.617 60.7209C104.381 60.1016 103.376 60.5919 103.376 61.8564C103.376 63.0951 104.381 64.6177 105.617 65.2371C106.674 65.779 107.575 65.4694 107.807 64.6177L117.57 69.4952C117.802 70.6049 118.703 71.792 119.759 72.3081C120.996 72.9275 122 72.4372 122 71.1726C121.974 69.9081 120.97 68.4113 119.733 67.792Z" fill="white"/>
<path d="M79.7808 43.9466C78.6732 43.3789 77.7458 43.7402 77.5655 44.7208L67.8801 39.8692C67.6998 38.7079 66.7725 37.4175 65.6649 36.8756C64.4284 36.2562 63.4238 36.7465 63.4238 38.0111C63.4238 39.2498 64.4284 40.7724 65.6649 41.3918C66.721 41.9337 67.6226 41.624 67.8544 40.7724L77.6171 45.6499C77.8489 46.7596 78.7505 47.9467 79.8066 48.4628C81.043 49.0822 82.0476 48.5918 82.0476 47.3273C82.0476 46.0886 81.043 44.5918 79.7808 43.9466Z" fill="white"/>
<path d="M85.2676 38.2174C86.4268 38.811 87.3799 38.3981 87.5087 37.3142L101.084 44.1014V52.8241L101.187 52.8757L117.518 61.0564C117.673 62.2177 118.626 63.5339 119.733 64.0758C120.97 64.6952 121.974 64.2048 121.974 62.9403C121.974 61.7016 120.97 60.179 119.733 59.5596C118.677 59.0435 117.801 59.3016 117.544 60.179L101.959 52.3595V43.6369L101.702 43.5078L87.4314 36.3594C87.1481 35.3013 86.298 34.1916 85.2676 33.7013C84.0312 33.0819 83.0266 33.5722 83.0266 34.8368C83.0266 36.0755 84.0312 37.5981 85.2676 38.2174Z" fill="white"/>
<path opacity="0.73" d="M88.1544 47.5338L88.2832 40.8498C88.412 33.9336 84.033 26.0368 78.4948 23.2238C72.9566 20.3851 68.3715 23.7142 68.2427 30.6562L68.1139 37.3401L64.7653 35.6369L64.8168 59.25L91.5031 72.8502V49.237L88.1544 47.5338ZM74.8886 58.8887L76.769 53.2371C75.8416 52.1274 75.2234 50.6306 75.2234 49.237C75.2234 47.1725 76.5887 46.1918 78.263 47.0176C79.9373 47.8435 81.3026 50.2177 81.3026 52.2822C81.3026 53.7274 80.6328 54.6306 79.654 54.7597L81.5086 62.2178L74.8886 58.8887ZM84.136 45.495L72.1066 39.353L72.2354 32.6691C72.3127 28.5142 75.0689 26.5271 78.3918 28.2303C81.6889 29.9078 84.3421 34.6562 84.2648 38.8111L84.136 45.495Z" fill="#33B3C4"/>
<path d="M84.8327 48.9017L84.9615 42.2178C85.0903 35.3016 80.7113 27.4047 75.1731 24.5918C73.4472 23.7143 71.7987 23.4305 70.3561 23.6627L65.3847 25.9595C63.7618 27.3789 64.9725 28.7983 64.921 32.0241L64.7922 38.7081L61.4435 37.0048L57.863 38.8629L61.495 60.618L84.6009 76.102L88.1814 74.2439V50.6308L84.8327 48.9017ZM71.5926 60.2825L73.473 54.6308C72.5457 53.5211 71.9274 52.0243 71.9274 50.6308C71.9274 48.5662 73.2927 47.5856 74.967 48.4114C76.6413 49.263 78.0066 51.6114 78.0066 53.676C78.0066 55.1211 77.3368 56.0244 76.358 56.1534L78.2126 63.6116L71.5926 60.2825ZM80.8401 46.863L68.8106 40.721L68.9394 34.037C69.0167 29.8822 71.6956 28.0499 75.0958 29.5983C76.0231 30.0112 81.0719 40.4629 80.9431 41.9855L80.8401 46.863Z" fill="#70E2E5"/>
<g opacity="0.5">
<path opacity="0.5" d="M65.2283 42.6046L68.8088 40.7207L80.8383 46.8627L77.2578 48.7208L65.2283 42.6046Z" fill="#B6FFFF"/>
<path opacity="0.3" d="M57.6292 67.3276L61.2097 65.4437L88.3597 78.9148L84.7792 80.7987L57.6292 67.3276Z" fill="#1D99B3"/>
<path opacity="0.5" d="M57.8856 38.8627L61.4661 36.9788L64.8148 38.682L61.2086 40.5659L57.8856 38.8627Z" fill="#B6FFFF"/>
<path opacity="0.5" d="M81.2489 50.7597L84.8294 48.9016L88.1781 50.6049L84.5976 52.4888L81.2489 50.7597Z" fill="#B6FFFF"/>
<path opacity="0.5" d="M67.9825 62.1403L71.5888 60.2822L73.5465 61.2113L74.6026 65.4436L67.9825 62.1403Z" fill="#B6FFFF"/>
<path opacity="0.5" d="M73.4468 54.6048C72.8801 53.9338 72.4679 53.108 72.1846 52.2306L67.8571 54.0629L69.8663 56.4629L73.4468 54.6048Z" fill="#B6FFFF"/>
<path opacity="0.5" d="M65.7942 27.0174L71.693 29.2368C72.6719 28.9271 73.831 29.0303 75.0932 29.5981C75.2735 29.6755 75.6084 30.14 76.0205 30.8368L80.245 28.9529C78.7768 27.069 77.0251 25.5206 75.1705 24.5658C73.4446 23.6883 71.7961 23.4045 70.3535 23.6367L65.9487 25.7529L65.7942 27.0174Z" fill="#B6FFFF"/>
</g>
<path d="M81.2522 50.7596L81.381 44.0757C81.5098 37.1595 77.1308 29.2626 71.5926 26.4497C66.0544 23.6109 61.4693 26.94 61.3405 33.882L61.2117 40.5659L57.863 38.8627L57.9146 62.4759L84.6266 76.076V52.4629L81.2522 50.7596ZM67.9863 62.1404L69.8667 56.4887C68.9394 55.379 68.3212 53.8822 68.3212 52.4887C68.3212 50.4241 69.6864 49.4435 71.3608 50.2693C73.0351 51.1209 74.4003 53.4693 74.4003 55.5339C74.4003 56.979 73.7306 57.8823 72.7517 58.0113L74.6064 65.4694L67.9863 62.1404ZM77.2596 48.7209L65.2301 42.5789L65.3589 35.8949C65.4362 31.74 68.1924 29.7529 71.5153 31.4562C74.8125 33.1336 77.4656 37.882 77.3884 42.0369L77.2596 48.7209Z" fill="white"/>
</svg>
