<svg width="25" height="25" viewBox="0 0 25 25" fill="none" xmlns="http://www.w3.org/2000/svg">
<g clip-path="url(#clip0)">
<path d="M21.375 0H3.375C1.71815 0 0.375 1.39911 0.375 3.125V21.875C0.375 23.6009 1.71815 25 3.375 25H21.375C23.0319 25 24.375 23.6009 24.375 21.875V3.125C24.375 1.39911 23.0319 0 21.375 0Z" fill="#01B7EE"/>
<path d="M21.0882 14.5746C21.2196 13.9395 21.2928 13.2791 21.2928 12.603C21.2928 7.52932 17.3436 3.41763 12.4732 3.41763C11.9589 3.41763 11.4546 3.46393 10.9653 3.55074C10.176 3.03549 9.2437 2.73438 8.24355 2.73438C5.42013 2.73438 3.12964 5.11926 3.12964 8.06008C3.12964 9.04446 3.38727 9.96339 3.83362 10.7549C3.71689 11.3511 3.65524 11.9696 3.65524 12.6023C3.65524 17.6747 7.60264 21.7874 12.4733 21.7874C13.0245 21.7874 13.5643 21.7332 14.0888 21.634C14.808 22.0364 15.6318 22.2656 16.5061 22.2656C19.3295 22.2656 21.6204 19.8808 21.6204 16.9391C21.6204 16.0904 21.4268 15.2872 21.0882 14.5746ZM16.9954 16.994C16.588 17.5947 15.9856 18.072 15.2037 18.4101C14.4308 18.7447 13.5027 18.9141 12.4492 18.9141C11.1825 18.9141 10.1209 18.6814 9.29163 18.2244C8.69977 17.8903 8.21093 17.4398 7.83988 16.882C7.46463 16.3198 7.27526 15.7615 7.27526 15.2214C7.27526 14.8853 7.40074 14.5952 7.64366 14.355C7.88509 14.1185 8.19562 13.9979 8.56401 13.9979C8.86774 13.9979 9.12886 14.0931 9.34181 14.2795C9.54519 14.46 9.71735 14.724 9.85891 15.0665C10.0159 15.4391 10.1849 15.7554 10.3648 16.0023C10.5381 16.2413 10.7868 16.4401 11.1058 16.5976C11.424 16.756 11.8557 16.8357 12.3863 16.8357C13.1164 16.8357 13.7125 16.6722 14.1622 16.3531C14.6015 16.0414 14.8138 15.6663 14.8138 15.2073C14.8138 14.8446 14.7046 14.5595 14.4733 14.3362C14.2353 14.1027 13.9172 13.9207 13.5317 13.7952C13.1325 13.6639 12.5866 13.5244 11.9146 13.3766C10.9992 13.1742 10.2214 12.9317 9.60287 12.6571C8.97171 12.3765 8.46176 11.9888 8.089 11.502C7.71015 11.008 7.51924 10.3897 7.51924 9.6619C7.51924 8.96725 7.72049 8.34328 8.11802 7.80212C8.51206 7.26668 9.08861 6.84957 9.82882 6.56562C10.5625 6.28273 11.4326 6.13897 12.417 6.13897C13.2052 6.13897 13.8957 6.23409 14.4743 6.42242C15.056 6.61174 15.5466 6.86576 15.931 7.17956C16.3185 7.4949 16.6083 7.83247 16.7884 8.18272C16.9721 8.53906 17.063 8.88974 17.063 9.23088C17.063 9.5589 16.9418 9.85743 16.7014 10.1169C16.4611 10.3783 16.1553 10.5132 15.7964 10.5132C15.4706 10.5132 15.2146 10.4297 15.0382 10.2662C14.8718 10.1141 14.6993 9.87621 14.5101 9.53661C14.2917 9.10208 14.0256 8.76027 13.72 8.51677C13.4233 8.28147 12.9286 8.16222 12.2483 8.16222C11.6159 8.16222 11.1023 8.29458 10.7197 8.55574C10.3518 8.80632 10.1738 9.09531 10.1738 9.4362C10.1738 9.64497 10.23 9.82185 10.3495 9.97115C10.4739 10.1304 10.6514 10.2696 10.8748 10.387C11.1077 10.5089 11.3454 10.6045 11.5843 10.6731C11.8291 10.7432 12.2411 10.848 12.8034 10.9849C13.5174 11.1439 14.1731 11.3227 14.7533 11.5156C15.3402 11.7119 15.8482 11.9526 16.2612 12.2333C16.6836 12.5203 17.0188 12.8892 17.2568 13.326C17.4929 13.7679 17.6139 14.3125 17.6139 14.9451C17.6122 15.7002 17.405 16.3896 16.9954 16.994Z" fill="white"/>
</g>
<defs>
<clipPath id="clip0">
<rect width="24" height="25" fill="white" transform="translate(0.375)"/>
</clipPath>
</defs>
</svg>
