<svg width="21" height="48" viewBox="0 0 21 48" fill="none" xmlns="http://www.w3.org/2000/svg">
<path d="M11.3025 30L11.3025 0L9.30249 0L9.30249 30H11.3025Z" fill="#0B4275"/>
<path d="M3.5378 41.3865C5.49165 45.039 10.0365 46.4161 13.6891 44.4623C17.3416 42.5084 18.7186 37.9635 16.7648 34.311C14.811 30.6585 10.2661 29.2814 6.61355 31.2353C2.96102 33.1891 1.58396 37.734 3.5378 41.3865Z" fill="#0B4275"/>
<path d="M1.65723 37.8247C1.65723 33.1247 5.45723 29.3247 10.1572 29.3247C14.8572 29.3247 18.6572 33.1247 18.6572 37.8247C18.6572 42.5247 14.8572 46.3247 10.1572 46.3247C5.45723 46.4247 1.65723 42.5247 1.65723 37.8247ZM16.6572 37.8247C16.6572 34.2247 13.7572 31.3247 10.1572 31.3247C6.55723 31.3247 3.65723 34.2247 3.65723 37.8247C3.65723 41.4247 6.55723 44.3247 10.1572 44.3247C13.7572 44.3247 16.6572 41.4247 16.6572 37.8247Z" fill="#0B4275"/>
</svg>
