<svg width="26" height="25" viewBox="0 0 26 25" fill="none" xmlns="http://www.w3.org/2000/svg">
<g clip-path="url(#clip0)">
<path d="M14.2224 13.7781C13.8216 13.5448 13.2646 13.5448 12.812 13.5448H11.3258V16.6073H12.6898C13.1948 16.6073 13.8388 16.6435 14.2742 16.3378C14.674 16.0687 14.9003 15.5406 14.9003 15.0378C14.9003 14.5706 14.6221 14.0117 14.2224 13.7781ZM13.6617 11.1628C13.9924 10.9109 14.1659 10.462 14.1659 10.0484C14.1659 9.59922 13.9573 9.16797 13.5747 8.93463C13.1745 8.7013 12.443 8.75521 11.9732 8.75521H11.3258V11.4505H12.1823C12.6695 11.4503 13.2443 11.4862 13.6617 11.1628ZM20.9805 0H4.76901C2.34245 0 0.375 1.96745 0.375 4.39453V20.6055C0.375 23.032 2.34245 25 4.76901 25H20.9805C23.407 25 25.375 23.032 25.375 20.6055V4.39453C25.375 1.96745 23.407 0 20.9805 0ZM13.5531 18.8893H8.44583V6.56276H14.026C15.6424 6.56276 17.1339 7.59167 17.1339 9.40651C17.1339 10.8078 16.3516 11.7674 15.3536 12.0656V12.1018C16.8333 12.4076 17.8901 13.2112 17.8901 15.15C17.8901 16.9443 16.6682 18.8893 13.5531 18.8893Z" fill="#2580C3"/>
</g>
<defs>
<clipPath id="clip0">
<rect width="25" height="25" fill="white" transform="translate(0.375)"/>
</clipPath>
</defs>
</svg>
