<svg width="25" height="25" viewBox="0 0 25 25" fill="none" xmlns="http://www.w3.org/2000/svg">
<path fill-rule="evenodd" clip-rule="evenodd" d="M12.3171 0C5.51868 0 0 5.51868 0 12.3171C0 14.7165 0.666508 17.0093 1.97286 19.0088L0.106642 23.1411C-0.0533202 23.5144 0 23.9676 0.266603 24.2875C0.479886 24.5275 0.773149 24.6608 1.09307 24.6608C1.19971 24.6608 1.2797 24.6608 1.38634 24.6341L6.55844 23.2211C8.34468 24.1809 10.3442 24.6874 12.3704 24.6874C19.1688 24.6874 24.6875 19.1688 24.6875 12.3704C24.6341 5.51868 19.1154 0 12.3171 0ZM12.3171 22.5013C10.5042 22.5013 8.74458 22.0214 7.19828 21.115C7.03832 21.0083 6.8517 20.955 6.66508 20.955C6.55844 20.955 6.47846 20.955 6.37181 20.9817L2.98595 21.9148L4.15901 19.3287C4.31897 18.9821 4.26565 18.5556 4.05237 18.2623C2.79933 16.5294 2.13282 14.4765 2.13282 12.3171C2.13282 6.7184 6.7184 2.13282 12.3171 2.13282C17.9157 2.13282 22.5013 6.69174 22.5013 12.3171C22.5013 17.9157 17.9424 22.5013 12.3171 22.5013Z" fill="#15DE11"/>
<path fill-rule="evenodd" clip-rule="evenodd" d="M17.0625 14.1566C16.5559 13.8367 15.8628 13.4901 15.2762 13.7567C14.823 13.9433 14.5031 14.6898 14.2098 15.0631C14.0499 15.2497 13.8632 15.2764 13.6233 15.1964C11.8637 14.5032 10.5307 13.3302 9.57093 11.7305C9.41097 11.4906 9.43763 11.2773 9.62425 11.0374C9.91752 10.6908 10.2908 10.2909 10.3707 9.83766C10.4507 9.38443 10.2374 8.82457 10.0508 8.42466C9.81087 7.89146 9.54427 7.14497 9.01107 6.8517C8.53118 6.5851 7.89133 6.7184 7.46477 7.09165C6.71828 7.70483 6.34504 8.66461 6.3717 9.59772C6.3717 9.86432 6.39836 10.1309 6.47834 10.3975C6.6383 11.0107 6.9049 11.5972 7.25149 12.1571C7.49143 12.5837 7.75803 12.9836 8.05129 13.3568C8.98441 14.6365 10.1575 15.7296 11.4905 16.5561C12.157 16.956 12.9035 17.3292 13.65 17.5691C14.5031 17.8358 15.2496 18.129 16.156 17.9691C17.1158 17.7824 18.0489 17.1959 18.4222 16.2895C18.5288 16.0229 18.5821 15.7029 18.5288 15.4363C18.3422 14.7965 17.5424 14.4499 17.0625 14.1566Z" fill="#15DE11"/>
</svg>
